<?xml version="1.0" standalone="no"?>
<!DOCTYPE svg PUBLIC "-//W3C//DTD SVG 1.1//EN" "http://www.w3.org/Graphics/SVG/1.1/DTD/svg11.dtd" >
<svg xmlns="http://www.w3.org/2000/svg" xmlns:xlink="http://www.w3.org/1999/xlink" version="1.1">
<metadata>
Created by FontForge 20170731 at Sat Feb  5 18:00:03 2022
 By Aleksey,,,
Copyright (c) 2013 by Ahmet Altun. All rights reserved.
</metadata>
<defs>
<font id="HalisR-Black" horiz-adv-x="1202" >
  <font-face 
    font-family="Halis R Black"
    font-weight="900"
    font-stretch="normal"
    units-per-em="2048"
    panose-1="2 0 5 5 3 0 0 2 0 4"
    ascent="1638"
    descent="-410"
    x-height="1024"
    cap-height="1434"
    bbox="-375.667 -714.273 2533.45 2037"
    underline-thickness="102"
    underline-position="-368"
    unicode-range="U+0020-FB04"
  />
<missing-glyph horiz-adv-x="1003" 
d="M430 428q0 -25 19 -43t45 -18q25 0 42 18t17 43t-17 41t-42 16q-27 0 -45.5 -16.5t-18.5 -40.5zM537 547v57q0 22 23.5 54t51 61t51 73.5t23.5 88.5q0 79 -50 123.5t-128 44.5q-65 0 -112 -25t-101 -82l59 -57q38 40 67.5 58.5t65.5 19.5q30 1 50.5 -7t30 -22.5t13 -27.5
t3.5 -27q0 -32 -14.5 -61.5t-35 -53t-41 -46.5t-35 -51.5t-14.5 -58.5v-61h93zM942 1294v-1155q0 -15 -11 -26t-26 -11h-807q-15 0 -26 11t-11 26v1155q0 15 11 26t26 11h807q15 0 26 -11t11 -26z" />
    <glyph glyph-name="f_f" unicode="ff" horiz-adv-x="1427" 
d="M1436 1333l-70 -176q-4 -14 -18.5 -20.5t-28.5 -1.5q-88 32 -166 32q-34 0 -57 -19t-23 -58v-66h146q15 0 25.5 -11t10.5 -26v-203q0 -15 -10.5 -25.5t-25.5 -10.5h-146v-711q0 -15 -11 -26t-26 -11h-237q-15 0 -26 11t-11 26v711h-328v-711q0 -15 -11 -26t-26 -11h-237
q-15 0 -26 11t-11 26v711h-66q-15 0 -26 10.5t-11 25.5v203q0 15 11 26t26 11h66v72q7 95 41 166t89.5 113t123.5 62.5t149 20.5q207 0 363 -80q100 74 248 74q118 0 278 -68q31 -17 21 -51zM434 1024h328v72q0 31 4 67q-80 41 -174 41q-68 0 -113 -27t-45 -83v-70z" />
    <glyph glyph-name="fi" unicode="fi" horiz-adv-x="1239" 
d="M1075 987v-950q0 -15 -11 -26t-26 -11h-237q-15 0 -26 11t-11 26v711h-330v-711q0 -15 -11 -26t-26 -11h-237q-15 0 -26 11t-11 26v711h-66q-15 0 -26 10.5t-11 25.5v203q0 15 11 26t26 11h66v72q0 174 105.5 265t269.5 91q118 0 278 -68q31 -17 21 -51l-70 -176
q-4 -14 -18.5 -20.5t-28.5 -1.5q-88 32 -166 32q-34 0 -57 -19t-23 -58v-66h604q15 0 26 -11t11 -26z" />
    <glyph glyph-name="fl" unicode="fl" horiz-adv-x="1284" 
d="M1120 1397v-1362q0 -15 -11 -26t-26 -11h-237q-15 0 -26 11t-11 26v1055q-34 55 -94 84.5t-123 29.5q-68 0 -113 -27t-45 -83v-70h178q15 0 26 -11t11 -26v-203q0 -15 -11 -25.5t-26 -10.5h-178v-711q0 -15 -11 -26t-26 -11h-237q-15 0 -26 11t-11 26v711h-66
q-15 0 -26 10.5t-11 25.5v203q0 15 11 26t26 11h66v72q7 95 41 166t89.5 113t123.5 62.5t149 20.5q87 0 181.5 -28.5t158.5 -100.5l19 70q3 15 15.5 25t29.5 10h153q15 0 26 -11t11 -26z" />
    <glyph glyph-name="f_f_i" unicode="ffi" horiz-adv-x="1894" 
d="M1436 1333l-70 -176q-4 -14 -18.5 -20.5t-28.5 -1.5q-88 32 -166 32q-34 0 -57 -19t-23 -58v-66h621q15 0 26 -11t11 -26v-950q0 -15 -11 -26t-26 -11h-238q-15 0 -26 11t-11 26v711h-346v-711q0 -15 -11 -26t-26 -11h-237q-15 0 -26 11t-11 26v711h-328v-711
q0 -15 -11 -26t-26 -11h-237q-15 0 -26 11t-11 26v711h-66q-15 0 -26 10.5t-11 25.5v203q0 15 11 26t26 11h66v72q7 95 41 166t89.5 113t123.5 62.5t149 20.5q207 0 363 -80q100 74 248 74q118 0 278 -68q31 -17 21 -51zM434 1024h328v72q0 31 4 67q-80 41 -174 41
q-68 0 -113 -27t-45 -83v-70z" />
    <glyph glyph-name="f_f_l" unicode="ffl" horiz-adv-x="1943" 
d="M866 1329q106 129 320 129q87 0 181.5 -28.5t158.5 -100.5l18 70q3 15 15.5 25t29.5 10h154q15 0 26 -11t11 -26v-1360q0 -15 -11 -26t-26 -11h-238q-15 0 -26 11t-11 26v1053q-34 55 -94 84.5t-123 29.5q-68 0 -112.5 -27t-44.5 -83v-70h178q15 0 26 -11t11 -26v-203
q0 -15 -11 -25.5t-26 -10.5h-178v-711q0 -15 -11 -26t-26 -11h-238q-15 0 -26 11t-11 26v711h-348v-711q0 -15 -11 -26t-26 -11h-237q-15 0 -26 11t-11 26v711h-66q-15 0 -26 10.5t-11 25.5v203q0 15 11 26t26 11h66v72q7 95 41 166t89.5 113t123.5 62.5t149 20.5
q87 0 181.5 -28.5t158.5 -100.5zM782 1024q0 35 0.5 57t1 30t0.5 9q-36 40 -87.5 62t-104.5 22q-68 0 -113 -27t-45 -83v-70h348z" />
    <glyph glyph-name="f_h" unicode="fh" horiz-adv-x="1845" 
d="M1323 1040q103 -5 178.5 -38.5t117 -80.5t65.5 -117.5t31 -132.5t7 -143v-491q0 -15 -10.5 -26t-25.5 -11h-236q-15 0 -26 11t-11 26v491q0 48 -5.5 83t-21 71t-50.5 54.5t-87 17.5q-40 -1 -75.5 -17.5t-53.5 -40.5v-659q0 -15 -11 -26t-26 -11h-237q-15 0 -26 11t-11 26
v1053q-34 55 -94 84.5t-123 29.5q-68 0 -113 -27t-45 -83v-70h178q15 0 26 -11t11 -26v-203q0 -15 -11 -25.5t-26 -10.5h-178v-711q0 -15 -11 -26t-26 -11h-237q-15 0 -26 11t-11 26v711h-66q-15 0 -26 10.5t-11 25.5v203q0 15 11 26t26 11h66v72q7 95 41 166t89.5 113
t123.5 62.5t149 20.5q87 0 181.5 -28.5t158.5 -100.5l19 70q3 15 15.5 25t29.5 10h153q15 0 26 -11t11 -26v-404q73 47 203 47z" />
    <glyph glyph-name="f_j" unicode="fj" horiz-adv-x="1239" 
d="M1075 987v-989q0 -21 -1.5 -42.5t-6.5 -56t-16.5 -65.5t-29 -66t-46 -63.5t-65 -52t-89.5 -36.5t-116 -13q-83 0 -167.5 33.5t-142.5 78.5q-12 9 -13.5 26t7.5 30l90 145q9 12 24 15.5t27 -3.5q81 -47 142 -47q41 0 66.5 29.5t25.5 93.5v744h-330v-711q0 -15 -11 -26
t-26 -11h-237q-15 0 -26 11t-11 26v711h-66q-15 0 -26 10.5t-11 25.5v203q0 15 11 26t26 11h66v72q0 174 105.5 265t269.5 91q118 0 278 -68q31 -17 21 -51l-70 -176q-4 -14 -18.5 -20.5t-28.5 -1.5q-88 32 -166 32q-34 0 -57 -19t-23 -58v-66h604q15 0 26 -11t11 -26z" />
    <glyph glyph-name="f_k" unicode="fk" horiz-adv-x="1943" 
d="M1487 27l-367 409v-399q0 -15 -11 -26t-26 -11h-237q-15 0 -26 11t-11 26v1053q-34 55 -94 84.5t-123 29.5q-68 0 -113 -27t-45 -83v-70h178q15 0 26 -11t11 -26v-203q0 -15 -11 -25.5t-26 -10.5h-178v-711q0 -15 -11 -26t-26 -11h-237q-15 0 -26 11t-11 26v711h-66
q-15 0 -26 10.5t-11 25.5v203q0 15 11 26t26 11h66v72q7 95 41 166t89.5 113t123.5 62.5t149 20.5q87 0 181.5 -28.5t158.5 -100.5l19 70q3 15 15.5 25t29.5 10h153q15 0 26 -11t11 -26v-785l340 383q26 29 62 29h297q11 0 15 -10t-3 -17l-420 -465l459 -505q7 -7 3 -17
t-15 -10h-310q-34 0 -61 27z" />
    <glyph glyph-name="f_b" unicode="fb" horiz-adv-x="1904" 
d="M1395 1032q90 -15 160 -54.5t112 -91.5t68.5 -118.5t36.5 -128t10 -127.5t-12 -130.5t-42.5 -133t-77 -122t-121.5 -92t-169 -48.5q-184 -17 -313 82l-15 -33q-12 -35 -51 -35h-135q-15 0 -26 11t-11 26v1053q-34 55 -94 84.5t-123 29.5q-68 0 -113 -27t-45 -83v-70h178
q15 0 26 -11t11 -26v-203q0 -15 -11 -25.5t-26 -10.5h-178v-711q0 -15 -11 -26t-26 -11h-237q-15 0 -26 11t-11 26v711h-66q-15 0 -26 10.5t-11 25.5v203q0 15 11 26t26 11h66v72q7 95 41 166t89.5 113t123.5 62.5t149 20.5q87 0 181.5 -28.5t158.5 -100.5l19 70
q3 15 15.5 25t29.5 10h153q15 0 26 -11t11 -26v-408q96 63 275 43zM1272 268q51 0 89.5 19t59 46t33 63.5t16 63t3.5 52.5q0 31 -4 60t-17.5 64.5t-36 61t-64 43t-96.5 17.5q-30 0 -69.5 -10.5t-65.5 -26.5v-393q20 -25 61.5 -42.5t90.5 -17.5z" />
    <glyph glyph-name="f_f_b" unicode="ffb" horiz-adv-x="2564" 
d="M2054 1032q90 -15 160 -54.5t112 -91.5t68.5 -118.5t36.5 -128t10 -127.5t-12 -130.5t-42.5 -133t-77 -122t-121.5 -92t-169 -48.5q-184 -17 -313 82l-14 -33q-12 -35 -52 -35h-135q-15 0 -26 11t-11 26v1053q-34 55 -94 84.5t-123 29.5q-68 0 -112.5 -27t-44.5 -83v-70
h178q15 0 26 -11t11 -26v-203q0 -15 -11 -25.5t-26 -10.5h-178v-711q0 -15 -11 -26t-26 -11h-238q-15 0 -26 11t-11 26v711h-348v-711q0 -15 -11 -26t-26 -11h-237q-15 0 -26 11t-11 26v711h-66q-15 0 -26 10.5t-11 25.5v203q0 15 11 26t26 11h66v72q7 95 41 166t89.5 113
t123.5 62.5t149 20.5q87 0 181.5 -28.5t158.5 -100.5q106 129 320 129q87 0 181.5 -28.5t158.5 -100.5l18 70q3 15 15.5 25t29.5 10h154q15 0 26 -11t11 -26v-408q96 63 274 43zM782 1024q0 35 0.5 57t1 30t0.5 9q-36 40 -87.5 62t-104.5 22q-68 0 -113 -27t-45 -83v-70h348
zM1931 268q51 0 89.5 19t59 46t33 63.5t16 63t3.5 52.5q0 31 -4 59.5t-17.5 64.5t-35.5 61.5t-63.5 43t-96.5 17.5q-30 0 -69.5 -10.5t-65.5 -26.5v-393q20 -25 61.5 -42.5t89.5 -17.5z" />
    <glyph glyph-name="f_f_h" unicode="ffh" horiz-adv-x="2504" 
d="M1982 1040q87 -4 154 -27t109.5 -62t70.5 -84.5t42 -106t19 -113t5 -119.5v-491q0 -15 -11 -26t-26 -11h-236q-15 0 -25.5 11t-10.5 26v491q0 48 -5.5 83t-21 71t-50.5 54.5t-87 17.5q-40 -1 -75.5 -17.5t-53.5 -40.5v-659q0 -15 -11 -26t-26 -11h-238q-15 0 -26 11
t-11 26v1053q-34 55 -94 84.5t-123 29.5q-68 0 -112.5 -27t-44.5 -83v-70h178q15 0 26 -11t11 -26v-203q0 -15 -11 -25.5t-26 -10.5h-178v-711q0 -15 -11 -26t-26 -11h-238q-15 0 -26 11t-11 26v711h-348v-711q0 -15 -11 -26t-26 -11h-237q-15 0 -26 11t-11 26v711h-66
q-15 0 -26 10.5t-11 25.5v203q0 15 11 26t26 11h66v72q7 95 41 166t89.5 113t123.5 62.5t149 20.5q87 0 181.5 -28.5t158.5 -100.5q106 129 320 129q87 0 181.5 -28.5t158.5 -100.5l18 70q3 15 15.5 25t29.5 10h154q15 0 26 -11t11 -26v-404q73 47 202 47zM782 1024
q0 35 0.5 57t1 30t0.5 9q-36 40 -87.5 62t-104.5 22q-68 0 -113 -27t-45 -83v-70h348z" />
    <glyph glyph-name="f_f_j" unicode="ffj" horiz-adv-x="1894" 
d="M1073 1024h621q15 0 26 -11t11 -26v-989q0 -25 -2 -50t-10.5 -66t-23 -76.5t-42.5 -74t-66 -66t-96.5 -45t-130.5 -17.5q-83 0 -167 33.5t-142 78.5q-12 9 -14 26t7 30l91 133q9 12 24 15.5t27 -3.5q81 -47 141 -47q41 0 66.5 29.5t25.5 93.5v756h-346v-711
q0 -15 -11 -26t-26 -11h-237q-15 0 -26 11t-11 26v711h-328v-711q0 -15 -11 -26t-26 -11h-237q-15 0 -26 11t-11 26v711h-66q-15 0 -26 10.5t-11 25.5v203q0 15 11 26t26 11h66v72q7 95 41 166t89.5 113t123.5 62.5t149 20.5q207 0 363 -80q100 74 248 74q118 0 278 -68
q31 -17 21 -51l-70 -176q-4 -14 -18.5 -20.5t-28.5 -1.5q-88 32 -166 32q-34 0 -57 -19t-23 -58v-66zM762 1096q0 31 4 67q-80 41 -174 41q-68 0 -113 -27t-45 -83v-70h328v72z" />
    <glyph glyph-name="f_f_k" unicode="ffk" horiz-adv-x="2603" 
d="M866 1329q106 129 320 129q87 0 181.5 -28.5t158.5 -100.5l18 70q3 15 15.5 25t29.5 10h154q15 0 26 -11t11 -26v-785l340 383q26 29 61 29h301q10 0 14 -10t-2 -17l-423 -465l458 -505q7 -7 3 -17t-15 -10h-309q-35 0 -62 27l-366 409v-399q0 -15 -11 -26t-26 -11h-238
q-15 0 -26 11t-11 26v1053q-34 55 -94 84.5t-123 29.5q-68 0 -112.5 -27t-44.5 -83v-70h178q15 0 26 -11t11 -26v-203q0 -15 -11 -25.5t-26 -10.5h-178v-711q0 -15 -11 -26t-26 -11h-238q-15 0 -26 11t-11 26v711h-348v-711q0 -15 -11 -26t-26 -11h-237q-15 0 -26 11t-11 26
v711h-66q-15 0 -26 10.5t-11 25.5v203q0 15 11 26t26 11h66v72q7 95 41 166t89.5 113t123.5 62.5t149 20.5q87 0 181.5 -28.5t158.5 -100.5zM782 1024q0 35 0.5 57t1 30t0.5 9q-36 40 -87.5 62t-104.5 22q-68 0 -113 -27t-45 -83v-70h348z" />
    <glyph glyph-name=".notdef" horiz-adv-x="1003" 
d="M430 428q0 -25 19 -43t45 -18q25 0 42 18t17 43t-17 41t-42 16q-27 0 -45.5 -16.5t-18.5 -40.5zM537 547v57q0 22 23.5 54t51 61t51 73.5t23.5 88.5q0 79 -50 123.5t-128 44.5q-65 0 -112 -25t-101 -82l59 -57q38 40 67.5 58.5t65.5 19.5q30 1 50.5 -7t30 -22.5t13 -27.5
t3.5 -27q0 -32 -14.5 -61.5t-35 -53t-41 -46.5t-35 -51.5t-14.5 -58.5v-61h93zM942 1294v-1155q0 -15 -11 -26t-26 -11h-807q-15 0 -26 11t-11 26v1155q0 15 11 26t26 11h807q15 0 26 -11t11 -26z" />
    <glyph glyph-name=".null" horiz-adv-x="0" 
 />
    <glyph glyph-name="nonmarkingreturn" horiz-adv-x="682" 
 />
    <glyph glyph-name="space" unicode=" " horiz-adv-x="614" 
 />
    <glyph glyph-name="exclam" unicode="!" horiz-adv-x="724" 
d="M207 139q0 66 45.5 112t112.5 46q66 0 110.5 -46t44.5 -112q0 -67 -44.5 -111t-110.5 -44q-68 0 -113 44t-45 111zM516 1401v-529l-33 -380q-1 -15 -13.5 -26t-27.5 -11h-163q-15 0 -27.5 11t-13.5 26l-33 380v529q0 15 11 26t26 11h237q15 0 26 -11t11 -26z" />
    <glyph glyph-name="quotedbl" unicode="&#x22;" horiz-adv-x="905" 
d="M819 1401l-41 -449q-1 -15 -13.5 -26t-27.5 -11h-127q-15 0 -27.5 11t-13.5 26l-41 449q-2 15 8 26t25 11h225q15 0 25 -11t8 -26zM377 1401l-41 -449q-1 -15 -13.5 -26t-27.5 -11h-127q-15 0 -27.5 11t-13.5 26l-41 449q-2 15 8 26t25 11h225q15 0 25 -11t8 -26z" />
    <glyph glyph-name="numbersign" unicode="#" horiz-adv-x="1179" 
d="M160 817h123v170q0 15 10.5 26t25.5 11h173q15 0 25.5 -11t10.5 -26v-170h123v170q0 15 11 26t26 11h172q15 0 26 -11t11 -26v-170h123q15 0 26 -11t11 -26v-170q0 -15 -11 -26t-26 -11h-123v-122h123q15 0 26 -11t11 -26v-168q0 -15 -11 -26t-26 -11h-123v-172
q0 -15 -11 -26t-26 -11h-172q-15 0 -26 11t-11 26v172h-123v-172q0 -15 -10.5 -26t-25.5 -11h-173q-15 0 -25.5 11t-10.5 26v172h-123q-15 0 -26 11t-11 26v168q0 15 11 26t26 11h123v122h-123q-15 0 -26 11t-11 26v170q0 15 11 26t26 11zM528 573v-122h123v122h-123z" />
    <glyph glyph-name="dollar" unicode="$" horiz-adv-x="1343" 
d="M492 1042q1 -14 7 -27t18 -25t23.5 -22t32.5 -20.5t36.5 -18t44 -18t46 -17t51.5 -18.5t52 -18q71 -25 121.5 -46.5t110.5 -59.5t97.5 -80t63 -105t25.5 -139q0 -169 -121.5 -291t-317.5 -147v-152q0 -15 -11 -26t-26 -11h-147q-15 0 -26 11t-11 26v154q-196 19 -405 129
q-13 7 -18 22.5t1 28.5l113 209q6 13 21 17.5t28 -1.5q235 -106 377 -106q81 0 138.5 35t57.5 88q0 26 -13.5 48.5t-33 38.5t-55 32.5t-65 26.5t-78.5 26q-173 57 -246 96q-190 101 -216 281q-5 31 -5 65q0 179 109 291t290 133v147q0 15 11 26t26 11h147q15 0 26 -11
t11 -26v-157q162 -25 357 -109q14 -6 19 -20t-1 -29l-92 -211q-6 -14 -20 -19t-29 1q-240 92 -361 92q-72 0 -118 -25t-45 -80z" />
    <glyph glyph-name="percent" unicode="%" horiz-adv-x="1755" 
d="M709 1108q0 -44 -9.5 -87.5t-33 -89t-59 -79.5t-92.5 -56t-128 -22q-72 0 -130 22t-94 56t-59.5 79.5t-33 89t-9.5 87.5t9.5 88t33 90t59.5 81t94 57t130 22q71 0 128.5 -22t92.5 -57t58.5 -81t33 -90t9.5 -88zM387 1012q23 0 39 10.5t23 27.5t9.5 31t2.5 27
q0 14 -2.5 28t-9.5 31.5t-23 28t-39 10.5q-32 0 -51 -20t-23 -39t-4 -39q0 -19 4 -37.5t23 -38.5t51 -20zM1032 1434h174q13 0 21.5 -11.5t3.5 -23.5l-451 -1364q-14 -35 -49 -35h-176q-13 0 -21.5 11.5t-3.5 23.5l453 1364q14 35 49 35zM1372 662q71 0 128.5 -22t92.5 -57
t58.5 -81t33 -90t9.5 -88t-9.5 -87.5t-33 -89t-59 -79.5t-92.5 -56t-128 -22q-72 0 -129.5 22t-92.5 56t-59 79.5t-33 89t-9 87.5t9 88t33 90t59 81t92.5 57t129.5 22zM1372 227q30 0 48.5 20t23 39t4.5 38q0 14 -3 28t-10 31t-23.5 28t-39.5 11q-24 0 -40.5 -11t-24 -28
t-10.5 -31t-3 -28q0 -19 4.5 -38t23.5 -39t50 -20z" />
    <glyph glyph-name="ampersand" unicode="&#x26;" horiz-adv-x="1497" 
d="M1196 319q25 -29 80.5 -86t73.5 -77q9 -10 8.5 -26.5t-10.5 -25.5l-154 -139q-11 -10 -26.5 -9.5t-26.5 11.5l-123 127q-150 -121 -385 -121q-102 1 -190.5 38.5t-149 98t-95 139t-34.5 161.5q0 131 60.5 228.5t152.5 143.5q-125 140 -125 305q0 67 23.5 130.5t69 117
t122 86.5t172.5 33q91 0 163.5 -31t116 -82.5t66.5 -114.5t23 -132q0 -200 -193 -363q19 -20 74.5 -81t93.5 -101q27 66 51 182q3 15 15.5 24t27.5 7l193 -39q15 -3 24.5 -15.5t8.5 -27.5q-24 -199 -107 -361zM633 1184q-48 0 -69 -30t-21 -64q0 -76 82 -154q92 70 92 156
q0 36 -23 64t-61 28zM645 258q102 0 172 49q-199 209 -242 256q-50 -24 -78 -62.5t-30 -78.5q0 -74 53 -119t125 -45z" />
    <glyph glyph-name="quotesingle" unicode="'" horiz-adv-x="462" 
d="M377 1401l-41 -449q-1 -15 -13.5 -26t-27.5 -11h-127q-15 0 -27.5 11t-13.5 26l-41 449q-2 15 8 26t25 11h225q15 0 25 -11t8 -26z" />
    <glyph glyph-name="parenleft" unicode="(" horiz-adv-x="681" 
d="M61 606q0 514 330 1000q7 13 23 16.5t28 -4.5l148 -90q12 -8 15.5 -22.5t-3.5 -28.5q-242 -464 -242 -869q0 -418 242 -882q7 -14 3.5 -29t-15.5 -23l-148 -88q-12 -8 -28 -4t-23 17q-330 479 -330 1007z" />
    <glyph glyph-name="parenright" unicode=")" horiz-adv-x="681" 
d="M621 606q0 -528 -330 -1007q-9 -13 -24 -17t-27 4l-148 88q-12 7 -16 23t2 29q244 462 244 882q0 407 -244 869q-6 13 -2 28.5t16 22.5l148 90q12 8 27 4.5t24 -16.5q330 -486 330 -1000z" />
    <glyph glyph-name="asterisk" unicode="*" horiz-adv-x="991" 
d="M741 805l-141 74l-8 -160q-2 -15 -13 -26t-26 -11h-115q-15 0 -26 11t-13 26l-8 160l-141 -74q-13 -6 -28.5 -1.5t-22.5 17.5l-58 99q-7 14 -3 29t16 24l133 84l-133 86q-12 9 -16 24t3 29l58 98q7 13 22.5 18t28.5 -1l141 -74l8 160q2 15 13 26t26 11h115q15 0 26 -11
t13 -26l8 -160l141 74q13 6 29 1t23 -18l57 -98q7 -14 3.5 -29t-15.5 -24l-133 -86l133 -84q12 -9 15.5 -24t-3.5 -29l-57 -99q-7 -13 -23 -17.5t-29 1.5z" />
    <glyph glyph-name="plus" unicode="+" horiz-adv-x="1142" 
d="M449 324v247h-248q-15 0 -26 11t-11 26v170q0 15 11 26t26 11h248v248q0 15 10.5 26t25.5 11h172q15 0 26 -11t11 -26v-248h248q15 0 26 -11t11 -26v-170q0 -15 -11 -26t-26 -11h-248v-247q0 -15 -11 -26t-26 -11h-172q-15 0 -25.5 11t-10.5 26z" />
    <glyph glyph-name="comma" unicode="," horiz-adv-x="694" 
d="M272 -338l-71 41q-14 8 -18 22.5t3 28.5q88 163 99 238q-52 11 -86.5 57t-34.5 107q0 73 53.5 125.5t124.5 52.5q97 0 142.5 -57t45.5 -138q0 -88 -64.5 -230t-137.5 -237q-9 -12 -26 -15t-30 5z" />
    <glyph glyph-name="hyphen" unicode="-" horiz-adv-x="913" 
d="M201 729h512q15 0 26 -11t11 -26v-174q0 -15 -11 -26t-26 -11h-512q-15 0 -26 11t-11 26v174q0 15 11 26t26 11z" />
    <glyph glyph-name="period" unicode="." horiz-adv-x="686" 
d="M164 166q0 74 53.5 127t126.5 53q74 0 126 -52.5t52 -127.5q0 -74 -52 -126t-126 -52q-73 0 -126.5 52.5t-53.5 125.5z" />
    <glyph glyph-name="slash" unicode="/" horiz-adv-x="847" 
d="M774 1399l-450 -1364q-14 -35 -50 -35h-176q-13 0 -21 11.5t-3 23.5l452 1364q14 35 49 35h175q13 0 21 -11.5t3 -23.5z" />
    <glyph glyph-name="zero" unicode="0" horiz-adv-x="1320" 
d="M659 1399q99 0 182.5 -31.5t141 -87t100.5 -124.5t67.5 -149t36 -155.5t11.5 -149.5q0 -76 -11.5 -153.5t-36 -159.5t-67.5 -152.5t-100.5 -127t-141 -89t-182.5 -32.5q-118 0 -213 47t-154 120.5t-98.5 170.5t-55 190t-15.5 186q0 90 15.5 181t55 185.5t98.5 166.5
t154 118t213 46zM659 272q47 0 85 24.5t61 65.5t39.5 87t24.5 97.5t11 88.5t3 67q0 38 -4 82t-18.5 105t-37.5 108.5t-65.5 81t-98.5 33.5t-99 -33.5t-66 -81t-37.5 -108.5t-18.5 -105t-4 -82t4 -84t18.5 -110t37.5 -114t66 -86t99 -36z" />
    <glyph glyph-name="one" unicode="1" horiz-adv-x="880" 
d="M696 1352v-1315q0 -15 -11 -26t-26 -11h-237q-15 0 -26 11t-11 26v901l-156 -76q-14 -6 -28.5 -1.5t-22.5 16.5l-84 141q-8 12 -5 28t15 25l400 295q30 23 65 23h90q15 0 26 -11t11 -26z" />
    <glyph glyph-name="two" unicode="2" horiz-adv-x="1105" 
d="M231 975l-141 147q-10 10 -10 27t10 27q225 225 457 225q123 0 219.5 -41.5t156.5 -130.5t60 -215q0 -125 -80 -264q-38 -64 -321 -461h336q15 0 25.5 -11t10.5 -26v-215q0 -15 -10.5 -26t-25.5 -11h-783q-15 0 -26 11t-11 26v35q0 32 21 67q507 713 518 735
q41 69 41 127q0 48 -30.5 81.5t-98.5 33.5q-108 0 -266 -143q-10 -9 -26.5 -8.5t-25.5 10.5z" />
    <glyph glyph-name="three" unicode="3" horiz-adv-x="1132" 
d="M1010 989q0 -87 -39.5 -169t-112.5 -126q72 -34 112 -121.5t40 -173.5q0 -51 -11 -102.5t-43.5 -110t-82 -103t-134.5 -74t-194 -29.5q-233 0 -436 178q-11 9 -12 25t9 28l132 158q10 12 25.5 12.5t25.5 -8.5q59 -50 131.5 -83.5t124.5 -33.5q68 0 116 37.5t48 105.5
q0 72 -48.5 114t-115.5 42h-152q-15 0 -26 11t-11 26v203q0 15 11 25.5t26 10.5h152q67 0 115.5 43t48.5 115q0 68 -48 106t-116 38q-51 0 -122 -32t-130 -79q-12 -9 -27.5 -8.5t-25.5 12.5l-131 156q-10 12 -9.5 27t11.5 26q198 174 434 174q109 0 194 -29.5t134.5 -74
t82 -103.5t43.5 -110.5t11 -102.5z" />
    <glyph glyph-name="four" unicode="4" horiz-adv-x="1136" 
d="M903 260v-223q0 -15 -11 -26t-26 -11h-243q-15 0 -26 11t-11 26v223h-488q-15 0 -26 11t-11 26v109q0 37 21 67l555 887q21 31 57 31h172q15 0 26 -11t11 -26v-805h135q15 0 26 -11t11 -26v-215q0 -15 -11 -26t-26 -11h-135zM586 776l-148 -227h148v227z" />
    <glyph glyph-name="five" unicode="5" horiz-adv-x="1187" 
d="M150 254l157 139q11 10 25.5 9t25.5 -13q55 -59 114 -87t108 -28q82 0 130 53.5t48 125.5q0 71 -47.5 122.5t-132.5 51.5h-322q-15 0 -26 11t-11 26v690q0 15 11 26t26 11h688q15 0 26 -11t11 -26v-213q0 -15 -11 -26t-26 -11h-401v-201h35q113 0 201 -30.5t140.5 -77.5
t86.5 -110.5t46.5 -122t12.5 -118.5q0 -50 -12.5 -105.5t-47 -119.5t-86.5 -114t-140.5 -83.5t-200.5 -33.5q-250 0 -433 213q-9 12 -7.5 27t12.5 26z" />
    <glyph glyph-name="six" unicode="6" 
d="M752 1384l112 -172q8 -12 4.5 -27t-16.5 -22q-145 -89 -287 -254q34 6 74 6q87 -5 157.5 -29t117 -61.5t80 -82.5t51.5 -98t26 -101t8 -97t-11.5 -103t-45 -119.5t-84 -116t-138 -85t-198.5 -34.5t-199 36t-139 89.5t-84.5 121t-45 123.5t-11.5 105q0 136 34 262.5
t89.5 224.5t132 185.5t154.5 149.5t165 112q14 7 29.5 3t24.5 -16zM602 276q80 0 126 53t46 126q0 72 -44.5 124t-127.5 52q-82 0 -126.5 -50.5t-47.5 -125.5q0 -73 46 -126t128 -53z" />
    <glyph glyph-name="seven" unicode="7" horiz-adv-x="1026" 
d="M61 1141v213q0 15 11 26t26 11h801q15 0 26 -11t11 -26v-51q0 -40 -14 -72l-486 -1196q-14 -35 -51 -35h-252q-14 0 -21 11.5t-1 23.5l430 1069h-443q-15 0 -26 11t-11 26z" />
    <glyph glyph-name="eight" unicode="8" horiz-adv-x="1177" 
d="M1053 981q-2 -71 -40 -153.5t-120 -133.5q83 -47 121.5 -126t38.5 -158q0 -50 -11 -102t-43 -111t-81.5 -104t-134.5 -75t-193 -30q-91 0 -165.5 20.5t-123.5 55.5t-84.5 77.5t-54 91.5t-27 91.5t-8.5 83.5q0 76 43.5 164.5t108.5 123.5q-73 37 -114.5 113t-41.5 172
q0 41 8.5 84t28 91.5t55.5 90t85 76t124 54.5t166 20q108 0 193.5 -29.5t135.5 -74.5t82 -102.5t43 -109.5t9 -100zM590 264q65 0 112.5 39.5t47.5 104.5q0 68 -47 106.5t-113 38.5t-114 -38.5t-48 -106.5t48 -106t114 -38zM590 836q66 0 113 38.5t47 106.5q0 67 -47 103
t-113 36q-67 0 -114.5 -36t-47.5 -103q0 -68 48 -106.5t114 -38.5z" />
    <glyph glyph-name="nine" unicode="9" 
d="M451 6l-113 172q-9 12 -5.5 26.5t17.5 22.5q145 89 287 254q-34 -6 -74 -6q-87 5 -157.5 29t-117 61.5t-80 82.5t-51.5 98t-26 101t-8 97t11.5 103.5t45 119.5t84 116t138 85.5t198.5 34.5t199 -36t139 -89.5t84.5 -121t45 -123.5t11.5 -105q0 -136 -34 -262.5
t-89.5 -224.5t-132 -185.5t-154.5 -149.5t-165 -112q-13 -8 -28.5 -4.5t-24.5 16.5zM600 1114q-80 0 -126 -52.5t-46 -125.5q0 -72 44.5 -124t127.5 -52q82 0 126.5 50.5t47.5 125.5q0 73 -46 125.5t-128 52.5z" />
    <glyph glyph-name="colon" unicode=":" horiz-adv-x="686" 
d="M164 166q0 74 53.5 127t126.5 53q74 0 126 -52.5t52 -127.5q0 -74 -52 -126t-126 -52q-73 0 -126.5 52.5t-53.5 125.5zM164 856q0 74 53.5 127t126.5 53q74 0 126 -52.5t52 -127.5q0 -74 -52 -126t-126 -52q-73 0 -126.5 52.5t-53.5 125.5z" />
    <glyph glyph-name="semicolon" unicode=";" horiz-adv-x="694" 
d="M164 854q0 74 53.5 127t126.5 53q74 0 126 -52.5t52 -127.5q0 -74 -52 -126t-126 -52q-73 0 -126.5 52.5t-53.5 125.5zM272 -338l-71 41q-14 8 -18 22.5t3 28.5q88 163 99 238q-52 11 -86.5 57t-34.5 107q0 73 53.5 125.5t124.5 52.5q97 0 142.5 -57t45.5 -138
q0 -88 -64.5 -230t-137.5 -237q-9 -12 -26 -15t-30 5z" />
    <glyph glyph-name="less" unicode="&#x3c;" horiz-adv-x="923" 
d="M506 598l325 -205q12 -9 16 -24t-3 -29l-96 -172q-7 -13 -22.5 -17.5t-27.5 3.5l-606 368q-31 17 -31 56v40q0 35 31 56l606 366q12 8 27.5 3.5t22.5 -17.5l96 -170q7 -14 3 -29t-16 -24z" />
    <glyph glyph-name="equal" unicode="=" horiz-adv-x="1044" 
d="M844 788h-643q-15 0 -26 11t-11 26v168q0 15 11 26t26 11h643q15 0 26 -11t11 -26v-168q0 -15 -11 -26t-26 -11zM844 360h-643q-15 0 -26 11t-11 26v164q0 15 11 26t26 11h643q15 0 26 -11t11 -26v-164q0 -15 -11 -26t-26 -11z" />
    <glyph glyph-name="greater" unicode="&#x3e;" horiz-adv-x="923" 
d="M92 393l326 205l-326 205q-12 9 -15.5 24t3.5 29l96 170q7 13 22 17.5t27 -3.5l606 -366q31 -21 31 -56v-40q0 -39 -31 -56l-606 -368q-12 -8 -27 -3.5t-22 17.5l-96 172q-7 14 -3.5 29t15.5 24z" />
    <glyph glyph-name="question" unicode="?" horiz-adv-x="1187" 
d="M442 147q0 72 49.5 121t122.5 49q71 0 121.5 -49.5t50.5 -120.5q0 -73 -50.5 -122.5t-121.5 -49.5q-75 0 -123.5 47t-48.5 125zM758 596v-109q0 -15 -11 -25.5t-26 -10.5h-221q-15 0 -26 10.5t-11 25.5v113q0 64 25.5 121t61.5 99.5t72 82.5t61.5 87.5t25.5 96.5
q0 18 -5.5 36t-27.5 36.5t-58 18.5q-63 0 -111.5 -27.5t-127.5 -103.5q-11 -11 -26.5 -12t-26.5 9l-136 127q-11 11 -12 26.5t8 27.5q108 127 213 179t240 52q171 0 278 -96t107 -270q0 -68 -27.5 -136.5t-66.5 -121t-78 -98t-66.5 -81.5t-27.5 -57z" />
    <glyph glyph-name="at" unicode="@" horiz-adv-x="2347" 
d="M1188 1495q234 0 429.5 -75.5t328 -207.5t205.5 -312.5t73 -389.5q0 -98 -16.5 -193.5t-56.5 -189.5t-98.5 -165t-150 -115t-204.5 -44q-82 0 -148 36.5t-104 103.5q-123 -97 -289 -97q-115 0 -208 36t-150.5 92.5t-96 131t-54 146.5t-15.5 145q0 60 11.5 120.5t35 124
t65.5 117.5t97.5 97t136.5 67.5t178 24.5q166 0 281 -88l12 37q14 35 49 35h115q15 0 26 -11t11 -26v-752q2 -44 18.5 -69t61.5 -25q97 0 159 129.5t62 321.5q0 157 -52 291.5t-148 233.5t-242.5 155.5t-327.5 56.5q-369 0 -581.5 -233t-207.5 -629q2 -118 40.5 -235
t116 -231t209.5 -212.5t304 -161.5q13 -4 18.5 -18.5t-0.5 -26.5l-77 -147q-8 -14 -22.5 -20.5t-29.5 -0.5q-272 97 -459.5 260t-277 362.5t-90.5 430.5q-1 239 73.5 445t211 355.5t337.5 234.5t441 85zM1376 195v405q-35 46 -89.5 77.5t-119.5 31.5q-54 0 -98 -17.5
t-71 -46.5t-46.5 -62.5t-29 -71t-13.5 -65t-4 -51.5q0 -29 5.5 -63t22.5 -79.5t44 -81t76.5 -60.5t113.5 -25q137 0 209 109z" />
    <glyph glyph-name="A" unicode="A" horiz-adv-x="1511" 
d="M803 1417l631 -1384q6 -10 -1.5 -21.5t-19.5 -11.5h-293q-37 0 -51 35l-102 256h-422l-103 -256q-14 -35 -51 -35h-293q-12 0 -19.5 11t-2.5 22l629 1384q6 15 20 24t29 9t29 -9t20 -24zM756 813l-109 -266h215z" />
    <glyph glyph-name="B" unicode="B" horiz-adv-x="1394" 
d="M1087 719q81 -31 133 -109.5t52 -173.5q0 -62 -15.5 -120.5t-53 -117t-95 -101.5t-148.5 -70t-206 -27h-512q-15 0 -26 11t-11 26v1360q0 15 11 26t26 11h512q114 0 205.5 -27t149 -71t95 -102.5t53 -117.5t15.5 -121q0 -77 -53 -160t-132 -116zM774 305q50 0 85.5 15
t51.5 38.5t22.5 42.5t6.5 35q0 20 -6 39.5t-21.5 43t-50 38.5t-84.5 16h-248v-268h244zM778 846q49 1 84 18.5t50.5 43.5t21.5 47t6 40q0 16 -6.5 35.5t-22.5 43.5t-51.5 40t-85.5 16h-244v-284h248z" />
    <glyph glyph-name="C" unicode="C" horiz-adv-x="1533" 
d="M1384 1141l-165 -160q-10 -9 -26 -8.5t-26 10.5q-67 69 -159.5 115.5t-171.5 46.5q-68 0 -125 -18.5t-95.5 -47.5t-68 -68.5t-46 -79t-27 -82t-14 -73.5t-3.5 -57t3.5 -57t14 -73.5t27 -81.5t46.5 -78.5t68.5 -68.5t95.5 -47t126 -18q83 0 176.5 41t169.5 104
q12 9 27 8.5t24 -12.5l141 -168q10 -12 9.5 -28t-11.5 -27q-246 -231 -538 -231q-113 0 -210.5 25t-169.5 67.5t-129.5 101t-95 124t-62.5 139t-35.5 142.5t-10.5 138q0 67 10.5 135t35.5 141t62.5 139t95.5 125t129.5 102t169 68t210.5 25q167 0 300 -66.5t250 -193.5
q10 -11 9.5 -26.5t-11.5 -26.5z" />
    <glyph glyph-name="D" unicode="D" horiz-adv-x="1554" 
d="M721 0h-479q-15 0 -26 11t-11 26v1360q0 15 11 26t26 11h479q113 0 210.5 -24t169 -65t129 -98t94.5 -120.5t62 -135t35.5 -138.5t10.5 -134q0 -98 -21 -193t-73 -192t-130.5 -169.5t-204 -118.5t-282.5 -46zM530 305h191q68 0 125 17.5t95.5 45.5t68 66.5t46 76.5
t27 79.5t14 72t3.5 56.5q0 32 -5.5 68t-18.5 85t-41 92.5t-67.5 82t-103.5 61t-143 22.5h-191v-825z" />
    <glyph glyph-name="E" unicode="E" horiz-adv-x="1318" 
d="M1014 555h-482v-250h627q15 0 26 -11t11 -26v-231q0 -15 -11 -26t-26 -11h-917q-15 0 -26 11t-11 26v1360q0 15 11 26t26 11h917q15 0 26 -11t11 -26v-232q0 -15 -11 -26t-26 -11h-627v-268h482q15 0 26 -11t11 -26v-231q0 -15 -11 -26t-26 -11z" />
    <glyph glyph-name="F" unicode="F" horiz-adv-x="1316" 
d="M1014 555h-484v-518q0 -15 -10.5 -26t-25.5 -11h-252q-15 0 -26 11t-11 26v1360q0 15 11 26t26 11h915q15 0 26 -11t11 -26v-232q0 -15 -11 -26t-26 -11h-627v-268h484q15 0 26 -11t11 -26v-231q0 -15 -11 -26t-26 -11z" />
    <glyph glyph-name="G" unicode="G" horiz-adv-x="1503" 
d="M1040 485h-235q-15 0 -26 11t-11 26v228q0 15 11 25.5t26 10.5h528q15 0 26 -10.5t11 -25.5v-510q0 -37 -27 -64q-210 -194 -507 -194q-113 0 -210.5 25t-169.5 67.5t-129.5 101t-95 124t-62.5 139t-35.5 142.5t-10.5 138q0 67 10.5 135t35.5 141t62.5 139t95.5 125
t129.5 102t169 68t210.5 25q294 0 520 -223q10 -11 10 -27t-10 -26l-154 -168q-10 -10 -25.5 -10.5t-25.5 8.5q-66 59 -154 98t-161 39q-68 0 -125 -18t-95.5 -47t-68 -68t-46 -78t-27 -81t-14 -73t-3.5 -57q0 -27 3.5 -58t14 -75t27 -84.5t46 -81.5t68 -71t95.5 -49
t125 -19q53 0 111 16.5t93 42.5v141z" />
    <glyph glyph-name="H" unicode="H" horiz-adv-x="1595" 
d="M535 555v-518q0 -15 -11 -26t-26 -11h-256q-15 0 -26 11t-11 26v1360q0 15 11 26t26 11h256q15 0 26 -11t11 -26v-537h530v537q0 15 11 26t26 11h252q15 0 26 -11t11 -26v-1360q0 -15 -11 -26t-26 -11h-252q-15 0 -26 11t-11 26v518h-530z" />
    <glyph glyph-name="I" unicode="I" horiz-adv-x="737" 
d="M532 1397v-1360q0 -15 -10.5 -26t-25.5 -11h-254q-15 0 -26 11t-11 26v1360q0 15 11 26t26 11h254q15 0 25.5 -11t10.5 -26z" />
    <glyph glyph-name="J" unicode="J" horiz-adv-x="1312" 
d="M76 459l221 82q13 4 27 -2.5t20 -20.5q78 -217 225 -217q47 0 84 14t58.5 39.5t35.5 51.5t20 60t7.5 54.5t1.5 44.5v832q0 15 11 26t26 11h258q15 0 26 -11t11 -26v-832q0 -78 -13.5 -152t-50.5 -153.5t-94.5 -137.5t-154 -96t-220.5 -38q-113 0 -204 33t-153.5 92.5
t-103.5 133.5t-65 165q-3 14 4.5 28.5t22.5 18.5z" />
    <glyph glyph-name="K" unicode="K" horiz-adv-x="1525" 
d="M498 0h-256q-15 0 -26 11t-11 26v1360q0 15 11 26t26 11h256q15 0 26 -11t11 -26v-508l450 516q26 29 62 29h335q11 0 15.5 -10t-2.5 -17l-602 -668l647 -712q6 -7 1.5 -17t-14.5 -10h-335q-35 0 -62 27l-495 563v-553q0 -15 -11 -26t-26 -11z" />
    <glyph glyph-name="L" unicode="L" horiz-adv-x="1175" 
d="M535 1397v-1092h481q15 0 26 -11t11 -26v-231q0 -15 -11 -26t-26 -11h-774q-15 0 -26 11t-11 26v1360q0 15 11 26t26 11h256q15 0 26 -11t11 -26z" />
    <glyph glyph-name="M" unicode="M" horiz-adv-x="2072" 
d="M1036 616l371 803q14 31 47 31q34 0 47 -33l498 -1382q5 -12 -3.5 -23.5t-21.5 -11.5h-274q-35 0 -49 35l-236 713l-332 -734q-13 -30 -47 -30t-47 30l-332 734l-235 -713q-14 -35 -49 -35h-275q-13 0 -21 11.5t-3 23.5l497 1382q6 15 18.5 24t26.5 9q15 0 29.5 -9
t20.5 -22z" />
    <glyph glyph-name="N" unicode="N" horiz-adv-x="1597" 
d="M498 0h-256q-15 0 -26 11t-11 26v1386q0 12 8 21.5t20 9.5q31 0 54 -20l778 -727v690q0 15 11 26t26 11h254q15 0 26 -11t11 -26v-1381q0 -10 -8 -18t-19 -8q-27 0 -45 18l-786 744v-715q0 -15 -11 -26t-26 -11z" />
    <glyph glyph-name="O" unicode="O" horiz-adv-x="1669" 
d="M836 1458q156 0 281.5 -48.5t203.5 -125t130.5 -176.5t73.5 -196.5t21 -192.5q0 -69 -10.5 -138t-35.5 -143t-62 -140t-94.5 -125.5t-129 -102.5t-168.5 -68t-210 -25t-210.5 25t-169.5 68t-129.5 102.5t-95 125.5t-62.5 140t-35.5 143t-10.5 138q0 67 10.5 135.5
t35.5 142t62.5 139.5t95.5 125.5t129.5 102.5t169 68.5t210.5 25.5zM836 285q68 0 124.5 18.5t94.5 48.5t67.5 70.5t46 80.5t26.5 83.5t13.5 74.5t3.5 58q0 40 -7 86t-31 110t-62.5 113.5t-110 85t-165.5 35.5t-166.5 -35.5t-111 -85t-63 -113t-31.5 -110t-7 -86.5
q0 -32 5.5 -69.5t18.5 -89.5t41 -98.5t67.5 -87t103.5 -65t143 -24.5z" />
    <glyph glyph-name="P" unicode="P" horiz-adv-x="1398" 
d="M535 481v-444q0 -15 -11 -26t-26 -11h-256q-15 0 -26 11t-11 26v1360q0 15 11 26t26 11h516q114 0 205.5 -31t148.5 -79.5t95.5 -112.5t53.5 -126t15 -124q0 -138 -73.5 -250t-186 -171t-234.5 -59h-247zM774 788q40 1 72 14.5t50.5 32.5t30.5 43.5t16.5 44.5t4.5 38
q0 26 -8 52t-26.5 54t-56 45.5t-89.5 17.5h-233v-342h239z" />
    <glyph glyph-name="Q" unicode="Q" horiz-adv-x="1726" 
d="M1288 123l320 -387q7 -9 2.5 -19t-15.5 -10h-313q-35 0 -61 29l-217 258q-87 -17 -168 -17q-113 0 -210.5 25t-169.5 68t-129.5 102.5t-95 125.5t-62.5 140t-35.5 143t-10.5 138q0 67 10.5 135.5t35.5 142t62.5 139.5t95.5 125.5t129.5 102.5t169 68.5t210.5 25.5
q156 0 281.5 -48.5t203.5 -125t130.5 -176.5t73.5 -196.5t21 -192.5q0 -165 -62.5 -326.5t-195.5 -269.5zM836 285q68 0 124.5 18.5t94.5 48.5t67.5 70.5t46 80.5t26.5 83.5t13.5 74.5t3.5 58q0 40 -7 86t-31 110t-62.5 113.5t-110 85t-165.5 35.5t-166.5 -35.5t-111 -85
t-63 -113t-31.5 -110t-7 -86.5q0 -32 5.5 -69.5t18.5 -89.5t41 -98.5t67.5 -87t103.5 -65t143 -24.5z" />
    <glyph glyph-name="R" unicode="R" horiz-adv-x="1394" 
d="M1272 961q0 -147 -71.5 -255.5t-192.5 -168.5l235 -504q6 -10 -1 -21.5t-19 -11.5h-285q-36 0 -53 33l-209 448h-146v-444q0 -15 -10.5 -26t-25.5 -11h-252q-15 0 -26 11t-11 26v1360q0 15 11 26t26 11h512q114 0 205.5 -31t148.5 -79.5t95.5 -112.5t53.5 -126t15 -124z
M772 788q49 1 85 20.5t53.5 48t25.5 55t8 49.5q0 26 -8 52t-26.5 54t-56 45.5t-89.5 17.5h-234v-342h242z" />
    <glyph glyph-name="S" unicode="S" horiz-adv-x="1343" 
d="M803 858q71 -25 121.5 -46.5t110.5 -59.5t97.5 -80t63 -105t25.5 -139q0 -190 -149.5 -317t-381.5 -127q-144 0 -271 34.5t-263 104.5q-13 6 -18 21t1 28l113 209q6 13 21 17.5t28 -1.5q235 -106 377 -106q81 0 138.5 35t57.5 88q0 26 -13.5 48.5t-33 38.5t-55 32.5
t-65 26.5t-78.5 26q-173 57 -246 96q-190 101 -216 281q-5 31 -5 65q0 197 131.5 312.5t341.5 115.5q252 0 518 -123q31 -17 18 -51l-92 -211q-6 -14 -20 -19t-29 1q-256 94 -375 94q-72 0 -118 -25t-45 -80q1 -14 7 -27t18 -25t23.5 -22t32.5 -20.5t36.5 -18t44 -18t46 -17
t51.5 -18.5t52 -18z" />
    <glyph glyph-name="T" unicode="T" horiz-adv-x="1267" 
d="M467 37v1091h-338q-15 0 -26 11t-11 26v232q0 15 11 26t26 11h1010q15 0 26 -11t11 -26v-232q0 -15 -11 -26t-26 -11h-342v-1091q0 -15 -11 -26t-26 -11h-256q-15 0 -26 11t-11 26z" />
    <glyph glyph-name="U" unicode="U" horiz-adv-x="1515" 
d="M758 289q55 0 99.5 21.5t70.5 53t43.5 70.5t23.5 71t6 58v834q0 15 11 26t26 11h256q15 0 26 -11t11 -26v-834q0 -77 -18 -154t-61.5 -154.5t-107 -136t-163.5 -95.5t-223 -37t-223 37t-164 95.5t-107.5 136t-61.5 154.5t-18 154v834q0 15 11 26t26 11h254q15 0 26 -11
t11 -26v-834q0 -34 12 -76t37.5 -88.5t77 -78t119.5 -31.5z" />
    <glyph glyph-name="V" unicode="V" horiz-adv-x="1511" 
d="M1434 1401l-631 -1387q-6 -13 -20 -21.5t-29 -8.5t-29 8.5t-20 21.5l-629 1387q-5 11 2.5 22t19.5 11h293q37 0 51 -35l314 -778l313 778q14 35 51 35h293q12 0 19.5 -11.5t1.5 -21.5z" />
    <glyph glyph-name="W" unicode="W" horiz-adv-x="2240" 
d="M1485 662l313 737q14 35 51 35h293q12 0 19.5 -11.5t1.5 -21.5l-633 -1391q-13 -26 -41 -26t-41 26l-328 740l-327 -740q-13 -26 -41 -26t-41 26l-635 1391q-5 11 2.5 22t19.5 11h293q37 0 51 -35l314 -737l319 759q4 13 17 22t28 9q31 0 45 -31z" />
    <glyph glyph-name="X" unicode="X" horiz-adv-x="1400" 
d="M942 31l-242 411l-241 -411q-21 -31 -56 -31h-305q-12 0 -17 11t1 20l446 686l-446 686q-6 9 -1 20t17 11h305q36 0 56 -33l241 -412l242 412q16 33 55 33h306q12 0 17 -11t-1 -20l-449 -686l449 -686q6 -9 1 -20t-17 -11h-306q-38 0 -55 31z" />
    <glyph glyph-name="Y" unicode="Y" horiz-adv-x="1427" 
d="M877 637v-600q0 -15 -11 -26t-26 -11h-252q-15 0 -26 11t-11 26v596l-471 770q-6 9 0 20t18 11h289q34 0 55 -31l271 -451l270 451q17 31 55 31h291q12 0 18.5 -11t0.5 -20z" />
    <glyph glyph-name="Z" unicode="Z" horiz-adv-x="1363" 
d="M637 305h555q15 0 26 -11t11 -26v-231q0 -15 -11 -26t-26 -11h-987q-15 0 -26 11t-11 26v24q0 35 18 70l541 999h-508q-15 0 -26 11t-11 26v230q0 15 11 26t26 11h950q15 0 26 -11t11 -26v-8q0 -35 -18 -70z" />
    <glyph glyph-name="bracketleft" unicode="[" horiz-adv-x="567" 
d="M61 -383v1948q0 15 11 26t26 11h371q15 0 26 -11t11 -26v-164q0 -15 -11 -26t-26 -11h-123v-1546h123q15 0 26 -11t11 -26v-164q0 -15 -11 -26t-26 -11h-371q-15 0 -26 11t-11 26z" />
    <glyph glyph-name="backslash" unicode="\" horiz-adv-x="847" 
d="M524 35l-450 1364q-5 12 3 23.5t21 11.5h174q36 0 50 -35l452 -1364q5 -12 -3 -23.5t-21 -11.5h-177q-35 0 -49 35z" />
    <glyph glyph-name="bracketright" unicode="]" horiz-adv-x="567" 
d="M506 1565v-1948q0 -15 -11 -26t-26 -11h-371q-15 0 -26 11t-11 26v164q0 15 11 26t26 11h123v1546h-123q-15 0 -26 11t-11 26v164q0 15 11 26t26 11h371q15 0 26 -11t11 -26z" />
    <glyph glyph-name="asciicircum" unicode="^" horiz-adv-x="1404" 
d="M266 735l-116 117q-10 10 -10 26t10 27l499 500q22 22 53 22q32 0 54 -22l499 -500q11 -11 11 -27t-11 -26l-116 -117q-11 -11 -27 -11.5t-27 9.5l-383 344l-383 -344q-11 -10 -26.5 -9.5t-26.5 11.5z" />
    <glyph glyph-name="underscore" unicode="_" horiz-adv-x="862" 
d="M10 -150v107q0 15 11 26t26 11h768q15 0 26 -11t11 -26v-107q0 -15 -11 -25.5t-26 -10.5h-768q-15 0 -26 10.5t-11 25.5z" />
    <glyph glyph-name="grave" unicode="`" horiz-adv-x="1044" 
d="M371 1610l282 -219q12 -9 15 -25.5t-6 -28.5l-74 -106q-9 -12 -24 -15.5t-27 3.5l-308 190q-12 9 -15 24t5 27l103 142q8 12 22.5 14.5t26.5 -6.5z" />
    <glyph glyph-name="a" unicode="a" horiz-adv-x="1130" 
d="M582 1042q74 0 133 -14t99 -36t69 -57.5t45 -70.5t25 -83t11.5 -87.5t2.5 -91.5v-565q0 -15 -11 -26t-26 -11h-133q-39 0 -52 33l-16 37q-45 -42 -113 -66t-137 -24q-86 0 -152 23.5t-103.5 58t-61.5 81.5t-31.5 87t-7.5 81q0 94 33.5 164t91.5 108t125.5 56t146.5 18
q62 0 133 -14q0 123 -116 123q-83 0 -230 -61q-15 -6 -29 -1t-20 19l-76 170q-6 15 -0.5 30t19.5 21q188 90 381 98zM653 319v78q-62 17 -96 17q-135 0 -135 -90q0 -31 26.5 -48.5t65.5 -17.5q44 0 82.5 17.5t56.5 43.5z" />
    <glyph glyph-name="b" unicode="b" horiz-adv-x="1259" 
d="M750 1032q90 -15 160 -54.5t112 -91.5t68.5 -118.5t36.5 -128t10 -127.5t-12 -130.5t-42.5 -133t-77 -122t-121.5 -92t-169 -48.5q-185 -17 -314 82l-14 -33q-12 -35 -51 -35h-135q-15 0 -26 11t-11 26v1360q0 15 11 26t26 11h237q15 0 26 -11t11 -26v-408q96 63 275 43z
M627 268q51 0 89.5 19t59 46t33 63.5t15.5 63t3 52.5q0 31 -4 59.5t-17.5 64.5t-35.5 61.5t-63.5 43t-96.5 17.5q-30 0 -69.5 -10.5t-65.5 -26.5v-393q20 -25 61.5 -42.5t90.5 -17.5z" />
    <glyph glyph-name="c" unicode="c" horiz-adv-x="1153" 
d="M881 367l137 -164q11 -12 10.5 -29t-12.5 -27q-174 -161 -373 -161q-113 0 -204.5 34t-149 87.5t-96 124t-54.5 139.5t-16 137q0 70 13.5 138t50.5 141t93 127.5t148.5 89.5t210.5 36q221 0 395 -174q12 -10 12.5 -26.5t-10.5 -26.5l-135 -149q-10 -10 -25.5 -10.5
t-25.5 8.5q-100 86 -211 86q-52 0 -92.5 -22t-63 -57.5t-34 -75t-11.5 -79.5q0 -104 60 -165.5t143 -61.5q85 0 190 84q10 9 25.5 8.5t24.5 -12.5z" />
    <glyph glyph-name="d" unicode="d" horiz-adv-x="1259" 
d="M784 989v408q0 15 11 26t26 11h238q15 0 26 -11t11 -26v-1360q0 -15 -11 -26t-26 -11h-135q-40 0 -52 35l-14 33q-129 -99 -313 -82q-94 10 -169 48.5t-121.5 92t-77 122t-42.5 133t-12 130.5t10 127.5t36.5 128t68.5 118.5t112 91.5t160 54.5q178 20 274 -43zM633 268
q48 0 89.5 17.5t61.5 42.5v393q-26 16 -65.5 26.5t-69.5 10.5q-55 0 -96.5 -17.5t-63.5 -43t-35.5 -61.5t-17.5 -64.5t-4 -59.5q0 -26 3.5 -52.5t16 -63t33 -63.5t59 -46t89.5 -19z" />
    <glyph glyph-name="e" unicode="e" horiz-adv-x="1124" 
d="M981 444h-561q17 -73 63.5 -120.5t120.5 -47.5q113 0 215 62q12 8 28 5t23 -15l107 -156q9 -14 6.5 -29t-14.5 -24q-90 -70 -175 -100.5t-190 -30.5q-112 0 -202.5 34t-147 87.5t-94.5 124.5t-53 140.5t-15 139.5q0 69 15 137.5t53 139.5t94.5 125t147 88t202.5 34
q203 0 315.5 -120t112.5 -324q0 -35 -8 -113q-3 -17 -15.5 -27t-27.5 -10zM604 754q-141 0 -176 -131h293q-12 128 -117 131z" />
    <glyph glyph-name="f" unicode="f" horiz-adv-x="788" 
d="M797 1333l-70 -176q-4 -14 -18.5 -20.5t-28.5 -1.5q-88 32 -166 32q-34 0 -57 -19t-23 -58v-66h146q15 0 25.5 -11t10.5 -26v-203q0 -15 -10.5 -25.5t-25.5 -10.5h-146v-711q0 -15 -11 -26t-26 -11h-237q-15 0 -26 11t-11 26v711h-66q-15 0 -26 10.5t-11 25.5v203
q0 15 11 26t26 11h66v72q0 174 105.5 265t269.5 91q118 0 278 -68q31 -17 21 -51z" />
    <glyph glyph-name="g" unicode="g" horiz-adv-x="1212" 
d="M590 174q112 0 197 -16t137 -43t84.5 -67.5t44.5 -83.5t12 -97q0 -16 -3 -37t-14.5 -54t-30 -63.5t-54 -63t-82 -56t-117.5 -39t-158 -15.5q-109 0 -195.5 21t-139 54.5t-87 78.5t-48 88t-13.5 88q2 49 28.5 105t71.5 92q-78 88 -78 190q0 117 99 186q-70 83 -70 199
q0 56 13 111t44.5 110t78.5 97t121 68t165 26q109 0 180 -39l139 125q11 10 26 9.5t26 -11.5l118 -129q10 -11 9.5 -27t-11.5 -27l-125 -131q30 -38 44 -91t14 -95q0 -54 -13 -107.5t-45 -107t-78.5 -94.5t-120 -66.5t-163.5 -25.5q-115 0 -172 22q-12 -1 -19.5 -11.5
t-7.5 -21.5q0 -21 21 -37t65 -16q9 0 51 1t56 1zM596 764q-30 0 -51.5 -13.5t-31 -35t-13.5 -40t-4 -34.5q0 -15 3.5 -32t12.5 -39t31 -36t53 -14q30 0 51 14t29.5 36t12 39t3.5 32t-3.5 32t-12 39.5t-29.5 37t-51 14.5zM596 -221q46 0 80.5 8t51 19t26.5 24.5t12 20.5t2 12
q0 92 -172 92q-104 0 -140 -23t-36 -65q0 -14 6.5 -26.5t24 -27t54.5 -24t91 -10.5z" />
    <glyph glyph-name="h" unicode="h" horiz-adv-x="1200" 
d="M438 0h-237q-15 0 -26 11t-11 26v1360q0 15 11 26t26 11h237q15 0 26 -11t11 -26v-404q73 47 203 47q103 -5 178.5 -38.5t117 -80.5t65.5 -117.5t31 -132.5t7 -143v-491q0 -15 -11 -26t-26 -11h-235q-15 0 -26 11t-11 26v491q0 48 -5.5 83t-21 71t-50.5 54.5t-87 17.5
q-40 -1 -75.5 -17.5t-53.5 -40.5v-659q0 -15 -11 -26t-26 -11z" />
    <glyph glyph-name="i" unicode="i" horiz-adv-x="657" 
d="M483 987v-950q0 -15 -11 -26t-26 -11h-237q-15 0 -26 11t-11 26v950q0 15 11 26t26 11h237q15 0 26 -11t11 -26zM164 1374q0 69 48 117.5t118 48.5q69 0 116.5 -48.5t47.5 -117.5q0 -70 -47.5 -117t-116.5 -47q-71 0 -118.5 47t-47.5 117z" />
    <glyph glyph-name="j" unicode="j" horiz-adv-x="610" 
d="M-104 -72q81 -47 141 -47q86 0 86 123v983q0 15 11 26t26 11h243q15 0 26 -11t11 -26v-989q0 -21 -1.5 -42.5t-6.5 -56t-16.5 -65.5t-29 -66t-46 -63.5t-65 -52t-89.5 -36.5t-116 -13q-83 0 -167.5 33.5t-142.5 78.5q-12 9 -13.5 26t7.5 30l90 145q9 12 24.5 15.5
t27.5 -3.5zM117 1370q0 69 48 117.5t118 48.5q69 0 116 -48.5t47 -117.5q0 -70 -47 -117t-116 -47q-71 0 -118.5 47t-47.5 117z" />
    <glyph glyph-name="k" unicode="k" horiz-adv-x="1298" 
d="M842 27l-367 409v-399q0 -15 -11 -26t-26 -11h-237q-15 0 -26 11t-11 26v1360q0 15 11 26t26 11h237q15 0 26 -11t11 -26v-785l340 383q26 29 62 29h297q10 0 14 -10t-2 -17l-441 -465l478 -505q6 -7 1.5 -17t-14.5 -10h-307q-34 0 -61 27z" />
    <glyph glyph-name="l" unicode="l" horiz-adv-x="643" 
d="M479 1397v-1360q0 -15 -11 -26t-26 -11h-241q-15 0 -26 11t-11 26v1360q0 15 11 26t26 11h241q15 0 26 -11t11 -26z" />
    <glyph glyph-name="m" unicode="m" horiz-adv-x="1730" 
d="M475 692v-655q0 -15 -11 -26t-26 -11h-237q-15 0 -26 11t-11 26v950q0 15 11 26t26 11h131q37 0 51 -35l12 -33q103 84 242 84q194 0 289 -112q42 54 119 83t153 29q64 0 118 -10t93.5 -26.5t70.5 -43.5t51.5 -54t35.5 -66.5t22.5 -72t12 -78.5t5.5 -79.5t1 -81.5v-491
q0 -15 -11 -26t-26 -11h-244q-15 0 -26 11t-11 26v516q4 35 1 71t-11 66t-31.5 49t-60.5 19q-82 0 -144 -66v-655q0 -15 -10.5 -26t-25.5 -11h-240q-15 0 -26 11t-11 26v516q0 28 0.5 56.5t-5.5 55.5t-16 47.5t-31.5 33t-51.5 12.5q-47 0 -87.5 -19t-64.5 -47z" />
    <glyph glyph-name="n" unicode="n" 
d="M475 688v-651q0 -15 -11 -26t-26 -11h-237q-15 0 -26 11t-11 26v950q0 15 11 26t26 11h129q35 0 55 -33l16 -30q46 37 110.5 58t125.5 21q82 0 148 -16t111.5 -43t79.5 -67.5t53 -83t31 -96.5t15.5 -101.5t3.5 -104.5v-491q0 -15 -11 -26t-26 -11h-241q-15 0 -26 11
t-11 26v491q0 37 -1.5 61t-9 59t-21 56t-40.5 36.5t-65 15.5q-50 0 -90 -19t-62 -49z" />
    <glyph glyph-name="o" unicode="o" horiz-adv-x="1265" 
d="M633 1044q113 0 203.5 -35t146.5 -90t93 -127.5t52 -141.5t15 -138q0 -71 -15 -140.5t-52 -141t-93 -125.5t-146.5 -88.5t-203.5 -34.5t-203.5 34.5t-146.5 88.5t-93 125.5t-52 141t-15 140.5q0 69 15 138t52 141.5t93 127.5t146.5 90t203.5 35zM633 266q49 0 87 20
t58 48.5t33 65t16.5 63t3.5 49.5q0 30 -7 65.5t-26 80t-61.5 73.5t-103.5 29t-104.5 -29t-62.5 -73.5t-26.5 -80t-7.5 -65.5q0 -23 3.5 -49.5t16.5 -63t34 -65t59 -48.5t88 -20z" />
    <glyph glyph-name="p" unicode="p" horiz-adv-x="1259" 
d="M475 37v-408q0 -15 -11 -26t-26 -11h-237q-15 0 -26 11t-11 26v1360q0 15 11 26t26 11h135q37 0 51 -35l14 -33q129 99 314 82q94 -10 169 -48.5t121.5 -92t77 -122t42.5 -133t12 -130.5t-10 -127.5t-36.5 -128t-68.5 -118.5t-112 -91.5t-160 -54.5q-179 -20 -275 43z
M627 758q-49 0 -90.5 -17.5t-61.5 -42.5v-393q26 -16 65.5 -26.5t69.5 -10.5q55 0 96.5 17.5t63.5 43t35.5 61.5t17.5 64.5t4 59.5q0 26 -3 52.5t-15.5 63t-33 63.5t-59 46t-89.5 19z" />
    <glyph glyph-name="q" unicode="q" horiz-adv-x="1259" 
d="M752 16q-92 -40 -242 -24q-90 15 -160 54.5t-112 91.5t-68.5 118.5t-36.5 128t-10 127.5t12 130.5t42.5 133t77 122t121.5 92t169 48.5q184 17 313 -82l14 33q6 15 20.5 25t31.5 10h135q15 0 26 -11t11 -26v-1360q0 -15 -11 -26t-26 -11h-238q-15 0 -26 11t-11 26v371
q0 12 -10.5 18t-21.5 0zM633 756q-51 0 -89.5 -19t-59 -46t-33 -63.5t-16 -63t-3.5 -52.5q0 -31 4 -59.5t17.5 -64.5t35.5 -61.5t63.5 -43t96.5 -17.5q30 0 69.5 10.5t65.5 26.5v393q-20 25 -61.5 42.5t-89.5 17.5z" />
    <glyph glyph-name="r" unicode="r" horiz-adv-x="872" 
d="M821 979l-69 -217q-5 -14 -18.5 -22t-26.5 -5q-48 10 -86 10q-96 0 -146 -63v-645q0 -15 -11 -26t-26 -11h-237q-15 0 -26 11t-11 26v950q0 15 11 26t26 11h129q36 0 53 -33l16 -30q92 75 242 75q58 0 154 -14q14 -3 21.5 -16t4.5 -27z" />
    <glyph glyph-name="s" unicode="s" horiz-adv-x="1062" 
d="M686 616q42 -16 74 -32t68 -42.5t59 -57.5t38 -76.5t15 -100.5q0 -143 -110.5 -233t-280.5 -90q-106 0 -198 26t-195 84q-13 7 -18 22.5t1 28.5l94 181q6 13 21.5 17.5t28.5 -1.5q158 -74 256 -74q34 0 59 10.5t25 30.5q0 8 -2.5 14.5t-9.5 12t-14 9t-20.5 8t-24.5 7.5
t-31.5 8.5t-35.5 10.5q-51 15 -87.5 29t-85.5 42t-79.5 61t-52.5 85.5t-22 116.5q0 152 98 239.5t258 87.5q178 0 377 -90q13 -6 18.5 -21t-0.5 -30l-82 -182q-6 -14 -20 -19.5t-29 0.5q-166 66 -254 66q-57 0 -57 -37q0 -13 11 -24.5t35 -22.5t46 -19t62 -21.5t65 -23.5z
" />
    <glyph glyph-name="t" unicode="t" horiz-adv-x="698" 
d="M123 743h-66q-15 0 -26 11t-11 26v207q0 15 11 26t26 11h66l16 164q1 15 13.5 26t27.5 11h217q15 0 26 -11t11 -26v-164h148q15 0 25.5 -11t10.5 -26v-207q0 -15 -10.5 -26t-25.5 -11h-148v-415q0 -29 15 -43.5t32 -14.5q38 0 107 15q14 5 27 -3.5t16 -23.5l39 -180
q3 -15 -5 -28.5t-22 -18.5q-171 -43 -264 -43q-67 0 -117 23.5t-75.5 55.5t-41 75.5t-19 73.5t-3.5 60v467z" />
    <glyph glyph-name="u" unicode="u" 
d="M727 336v651q0 15 11 26t26 11h237q15 0 26 -11t11 -26v-950q0 -15 -11 -26t-26 -11h-129q-35 0 -55 33l-16 30q-46 -37 -110.5 -58t-125.5 -21q-82 0 -148 16t-111.5 43t-79.5 67.5t-53 83t-31 96.5t-15.5 101.5t-3.5 104.5v491q0 15 11 26t26 11h241q15 0 26 -11
t11 -26v-491q0 -37 1.5 -61t9 -59t21 -56t40.5 -36.5t65 -15.5q50 0 90 19t62 49z" />
    <glyph glyph-name="v" unicode="v" horiz-adv-x="1193" 
d="M596 565l176 424q14 35 51 35h273q12 0 19 -11.5t1 -21.5l-485 -985q-12 -24 -39 -24q-25 0 -39 24l-475 985q-6 10 1 21.5t19 11.5h269q37 0 51 -35z" />
    <glyph glyph-name="w" unicode="w" horiz-adv-x="1708" 
d="M852 1036q22 0 29 -18l227 -500l188 471q6 15 20.5 25t31.5 10h258q12 0 19 -11.5t1 -21.5l-465 -993q-11 -21 -33 -21t-32 21l-244 434l-244 -434q-10 -21 -33 -21q-21 0 -32 21l-465 993q-6 10 1 21.5t19 11.5h258q17 0 31.5 -10t20.5 -25l188 -471l227 500q7 18 29 18
z" />
    <glyph glyph-name="x" unicode="x" horiz-adv-x="1064" 
d="M379 0h-281q-12 0 -18 11t0 20l291 481l-291 481q-6 9 0 20t18 11h283q37 0 53 -33l98 -198l99 198q17 33 53 33h283q12 0 18 -11t0 -20l-291 -481l291 -481q6 -9 0 -20t-18 -11h-281q-36 0 -53 33l-101 200l-100 -200q-16 -33 -53 -33z" />
    <glyph glyph-name="y" unicode="y" horiz-adv-x="1261" 
d="M424 989l203 -524l209 524q14 35 51 35h276q12 0 19.5 -11.5t3.5 -23.5l-582 -1362q-12 -35 -51 -35h-260q-13 0 -20.5 11.5t-2.5 23.5l189 453l-383 909q-5 12 2 23.5t20 11.5h277q17 0 30.5 -10t18.5 -25z" />
    <glyph glyph-name="z" unicode="z" horiz-adv-x="1089" 
d="M154 762v225q0 15 10.5 26t25.5 11h732q15 0 25.5 -11t10.5 -26v-10q0 -35 -18 -70l-330 -608h312q15 0 25.5 -11t10.5 -26v-225q0 -15 -10.5 -26t-25.5 -11h-750q-15 0 -26 11t-11 26v14q0 34 19 70l329 604h-293q-15 0 -25.5 11t-10.5 26z" />
    <glyph glyph-name="braceleft" unicode="{" horiz-adv-x="671" 
d="M573 -408h-57q-7 0 -22 1.5t-48.5 9.5t-65.5 21.5t-69 41.5t-64.5 65t-46 97t-18.5 133v442q0 37 -18 59.5t-41 24.5h-25q-15 0 -26 11t-11 26v135q0 15 11 26t26 11h23q24 0 42.5 23.5t18.5 60.5v443q0 73 18.5 133t46 97t64.5 65t69 41t65.5 21t48.5 9.5t22 1.5h57
q15 0 26 -11t11 -26v-161q0 -15 -11 -26t-26 -11h-8q-6 0 -14 -1t-24.5 -9.5t-29 -22.5t-22.5 -44t-10 -71v-428q0 -64 -31.5 -114.5t-73.5 -73.5q40 -23 72.5 -74t32.5 -112v-429q0 -41 10 -71t22 -44.5t28.5 -22.5t25 -9.5t14.5 -1.5h8q15 0 26 -11t11 -26v-162
q0 -15 -11 -26t-26 -11z" />
    <glyph glyph-name="bar" unicode="|" horiz-adv-x="466" 
d="M307 -412h-147q-15 0 -26 11t-11 26v1917q0 15 11 26t26 11h147q15 0 26 -11t11 -26v-1917q0 -15 -11 -26t-26 -11z" />
    <glyph glyph-name="braceright" unicode="}" horiz-adv-x="671" 
d="M156 -408h-58q-15 0 -26 11t-11 26v162q0 15 11 26t26 11h8q6 0 14.5 1.5t25 9.5t29 22.5t22.5 44.5t10 71v429q0 61 32 112t72 74q-41 23 -72.5 73.5t-31.5 114.5v428q0 41 -10 71t-23 44t-29.5 22.5t-24.5 9.5t-14 1h-8q-15 0 -26 11t-11 26v161q0 15 11 26t26 11h58
q7 0 21.5 -1.5t48.5 -9.5t66 -21t69 -41t64 -65t45.5 -97t18.5 -133v-443q0 -37 19 -60.5t43 -23.5h22q15 0 26 -11t11 -26v-135q0 -15 -11 -26t-26 -11h-24q-23 -2 -41.5 -24.5t-18.5 -59.5v-442q0 -73 -18.5 -133t-45.5 -97t-64 -65t-69.5 -41.5t-65.5 -21.5t-48 -9.5
t-22 -1.5z" />
    <glyph glyph-name="asciitilde" unicode="~" horiz-adv-x="1290" 
d="M268 442l-114 82q-13 7 -17 23t4 28q143 232 346 232q35 0 73 -12t56.5 -21.5t59.5 -32.5q84 -49 135 -49q65 0 156 107q9 12 24.5 13.5t28.5 -7.5l117 -84q13 -10 16.5 -26t-4.5 -29q-71 -118 -159.5 -177t-180.5 -59q-95 0 -213 74q-88 45 -117 45q-73 0 -157 -98
q-9 -12 -25.5 -14.5t-28.5 5.5z" />
    <glyph glyph-name="exclamdown" unicode="&#xa1;" horiz-adv-x="753" 
d="M535 156v-529q0 -15 -11 -26t-26 -11h-238q-15 0 -26 11t-11 26v529l33 364q1 15 13.5 26t27.5 11h164q15 0 27.5 -11t13.5 -26zM225 889q0 67 45 111t113 44q66 0 111 -44t45 -111q0 -66 -45 -112t-111 -46q-67 0 -112.5 46t-45.5 112z" />
    <glyph glyph-name="cent" unicode="&#xa2;" horiz-adv-x="1153" 
d="M719 -178h-148q-15 0 -25.5 11t-10.5 26v137q-89 14 -161 53.5t-118 91.5t-76.5 116.5t-43.5 126.5t-13 124q0 63 11.5 125t41 129t74.5 120t118.5 94t166.5 56v123q0 15 10.5 26t25.5 11h148q15 0 26 -11t11 -26v-127q152 -36 278 -162q12 -10 12.5 -26.5t-10.5 -26.5
l-135 -149q-10 -10 -25.5 -10.5t-25.5 8.5q-50 40 -94 59v-402q32 15 75 52q10 9 25.5 8.5t24.5 -12.5l137 -164q10 -12 9.5 -28.5t-11.5 -27.5q-120 -114 -260 -147v-141q0 -15 -11 -26t-26 -11zM438 514q0 -134 97 -197v402q-49 -31 -73 -88t-24 -117z" />
    <glyph glyph-name="sterling" unicode="&#xa3;" horiz-adv-x="1445" 
d="M1012 1331l-70 -176q-4 -14 -18.5 -20.5t-28.5 -1.5q-88 32 -166 32q-34 0 -57 -19.5t-23 -58.5v-65h146q15 0 25.5 -11t10.5 -26v-203q0 -15 -10.5 -26t-25.5 -11h-146v-401q34 -4 108.5 -37t114.5 -33q136 -3 228 109q9 12 24 14.5t27 -6.5l143 -106q12 -9 15.5 -26
t-4.5 -30q-76 -124 -181 -182t-254 -61q-54 -1 -117 25.5t-125 53.5t-114 27q-38 0 -101 -23.5t-118 -80.5q-11 -11 -25.5 -12t-25.5 8l-135 122q-12 11 -15 27.5t6 28.5q80 119 238 184v399h-66q-15 0 -25.5 11t-10.5 26v203q0 15 10.5 26t25.5 11h66v72q0 174 105.5 265
t269.5 91q118 0 278 -68q31 -17 21 -51z" />
    <glyph glyph-name="currency" unicode="&#xa4;" horiz-adv-x="1359" 
d="M1096 584q0 -117 -41 -207l155 -156q10 -11 10 -27t-10 -26l-100 -98q-10 -10 -26 -10t-27 10l-146 145q-103 -61 -231 -61q-135 0 -231 59l-146 -143q-11 -10 -27 -10t-26 10l-100 100q-10 10 -10 26t10 25l159 156q-45 90 -45 207q0 126 51 225l-163 166q-10 11 -10 27
t10 26l100 102q10 10 26 10t27 -10l164 -165q93 49 211 49q123 0 215 -53l162 169q11 10 27 10t26 -10l100 -102q10 -10 10 -26t-10 -27l-168 -168q54 -100 54 -223zM680 453q32 0 55 15t33 38.5t14 42.5t4 35t-4 35t-14 43t-33 39.5t-55 15.5q-43 0 -69.5 -28t-33 -54.5
t-6.5 -50.5t6.5 -50t33 -53.5t69.5 -27.5z" />
    <glyph glyph-name="yen" unicode="&#xa5;" horiz-adv-x="1427" 
d="M1034 123h-157v-86q0 -15 -11 -26t-26 -11h-252q-15 0 -26 11t-11 26v86h-160q-15 0 -26 11t-11 26v137q0 15 11 26t26 11h160v137h-160q-15 0 -26 11t-11 26v137q0 15 11 26t26 11h129l-440 721q-6 9 0 20t18 11h289q34 0 55 -31l271 -451l270 451q17 31 55 31h291
q12 0 18.5 -11t0.5 -20l-445 -721h131q15 0 26 -11t11 -26v-137q0 -15 -11 -26t-26 -11h-157v-137h157q15 0 26 -11t11 -26v-137q0 -15 -11 -26t-26 -11z" />
    <glyph glyph-name="brokenbar" unicode="&#xa6;" horiz-adv-x="468" 
d="M346 348v-719q0 -15 -11 -26t-26 -11h-149q-15 0 -26 11t-11 26v719q0 15 11 26t26 11h149q15 0 26 -11t11 -26zM346 1548v-717q0 -15 -11 -25.5t-26 -10.5h-149q-15 0 -26 10.5t-11 25.5v717q0 15 11 26t26 11h149q15 0 26 -11t11 -26z" />
    <glyph glyph-name="section" unicode="&#xa7;" horiz-adv-x="1259" 
d="M186 -188l123 157q20 26 53 8q171 -120 267 -120q50 0 88.5 26.5t38.5 73.5q0 82 -213 193q-334 158 -334 417q0 71 35.5 137.5t81.5 114.5q-38 36 -70.5 107.5t-32.5 146.5q0 66 26 131t76 121.5t135 91.5t191 35q191 0 402 -145q12 -7 15 -23.5t-5 -28.5l-117 -170
q-9 -13 -24.5 -16.5t-28.5 4.5q-169 94 -266 94q-40 0 -67.5 -22.5t-31.5 -65.5q6 -76 168 -157q83 -41 146.5 -81t125 -94.5t95 -121.5t33.5 -142q0 -70 -37 -140.5t-86 -123.5q104 -125 104 -270q0 -113 -58.5 -201t-154 -134t-209.5 -46q-244 0 -465 190q-11 11 -12 26.5
t8 27.5zM506 584q0 -20 7 -38.5t17 -33t28 -30t32.5 -25.5t38.5 -22.5t37.5 -19t38.5 -17.5t34 -15q39 49 43 92q-1 32 -41.5 63t-110 65.5t-89.5 47.5q-35 -35 -35 -67z" />
    <glyph glyph-name="dieresis" unicode="&#xa8;" horiz-adv-x="1191" 
d="M186 1370q0 69 48 117.5t118 48.5q69 0 116.5 -48.5t47.5 -117.5q0 -70 -47.5 -117t-116.5 -47q-71 0 -118.5 47t-47.5 117zM670 1370q0 69 48 117.5t118 48.5q69 0 116 -48.5t47 -117.5q0 -70 -47 -117t-116 -47q-71 0 -118.5 47t-47.5 117z" />
    <glyph glyph-name="copyright" unicode="&#xa9;" horiz-adv-x="1200" 
d="M600 1444q215 0 366.5 -151.5t151.5 -366.5t-151.5 -366.5t-366.5 -151.5q-98 0 -192 40t-166 108t-116 166t-44 208q0 131 67.5 249t188 191.5t262.5 73.5zM600 557q155 0 262 107t107 262t-107 262.5t-262 107.5t-263 -107.5t-108 -262.5t108 -262t263 -107zM481 922
q0 64 37 103.5t90 39.5q58 0 109 -43q12 -10 27 -10t24 10l43 45q12 10 12.5 26.5t-10.5 26.5q-88 94 -205 94q-63 0 -114.5 -19.5t-84.5 -49.5t-55 -69.5t-31.5 -78t-9.5 -75.5q0 -39 9.5 -78t31.5 -78.5t55 -70t84.5 -49.5t114.5 -19q114 0 205 94q10 11 9.5 26.5
t-11.5 26.5l-39 41q-10 10 -26.5 10.5t-28.5 -8.5q-51 -39 -109 -39q-53 0 -90 39.5t-37 104.5z" />
    <glyph glyph-name="ordfeminine" unicode="&#xaa;" horiz-adv-x="837" 
d="M389 1450l37 2q77 0 132.5 -20t85 -49.5t46.5 -77t21 -87.5t4 -96v-415q0 -15 -11 -26t-26 -11h-80q-37 0 -53 32l-8 21q-33 -32 -84 -50t-103 -18q-64 0 -114 17.5t-78 43.5t-46 61t-24 65t-6 61q0 57 17 102.5t45 74.5t67 48t81 27t89 8q51 0 100 -10q0 92 -88 92
q-54 0 -164 -43q-15 -6 -29 -0.5t-20 19.5l-49 110q-6 15 -0.5 30t19.5 21q133 65 239 68zM481 909v60q-46 12 -73 12q-101 0 -101 -68q0 -24 20 -36.5t50 -12.5q33 0 61.5 13t42.5 32z" />
    <glyph glyph-name="guillemotleft" unicode="&#xab;" horiz-adv-x="1222" 
d="M383 524l207 -260q9 -12 7.5 -27.5t-13.5 -25.5l-107 -92q-12 -10 -27 -9.5t-26 11.5l-354 379q-9 14 -9 22q0 12 9 25l354 377q11 11 26 11.5t27 -9.5l107 -92q12 -10 13.5 -26t-7.5 -28zM932 524l207 -260q9 -12 7.5 -27.5t-13.5 -25.5l-107 -92q-12 -10 -27 -9.5
t-26 11.5l-355 379q-8 12 -8 22q0 13 8 25l355 377q11 11 26 11.5t27 -9.5l107 -92q12 -10 13.5 -26t-7.5 -28z" />
    <glyph glyph-name="logicalnot" unicode="&#xac;" horiz-adv-x="1284" 
d="M1120 823v-610q0 -15 -11 -26t-26 -11h-378q-15 0 -26 11t-11 26v223h-467q-15 0 -26 11t-11 26v350q0 15 11 26t26 11h882q15 0 26 -11t11 -26z" />
    <glyph glyph-name="uni00AD" unicode="&#xad;" horiz-adv-x="819" 
d="M162 545h504q15 0 25.5 -11t10.5 -26v-164q0 -15 -10.5 -26t-25.5 -11h-504q-15 0 -26 11t-11 26v164q0 15 11 26t26 11z" />
    <glyph glyph-name="registered" unicode="&#xae;" horiz-adv-x="1200" 
d="M600 1444q215 0 366.5 -151.5t151.5 -366.5t-151.5 -366.5t-366.5 -151.5q-98 0 -192 40t-166 108t-116 166t-44 208q0 131 67.5 249t188 191.5t262.5 73.5zM600 557q155 0 262 107t107 262t-107 262.5t-262 107.5t-263 -107.5t-108 -262.5t108 -262t263 -107zM549 827
v-112q0 -15 -11 -26t-26 -11h-66q-15 0 -25.5 11t-10.5 26v438q0 15 10.5 26t25.5 11h168q52 0 91.5 -17.5t60.5 -46t31 -58t10 -58.5q0 -41 -24.5 -83.5t-59.5 -66.5l84 -149q6 -10 -0.5 -21.5t-18.5 -11.5h-90q-35 0 -55 33l-61 116h-33zM549 965h72q24 1 34.5 15.5
t10.5 29.5q0 16 -11.5 31.5t-38.5 15.5h-67v-92z" />
    <glyph glyph-name="macron" unicode="&#xaf;" horiz-adv-x="1056" 
d="M268 1444h543q15 0 26 -11t11 -26v-147q0 -15 -11 -26t-26 -11h-543q-15 0 -26 11t-11 26v147q0 15 11 26t26 11z" />
    <glyph glyph-name="degree" unicode="&#xb0;" horiz-adv-x="675" 
d="M338 901q-116 0 -196.5 80.5t-80.5 196.5q0 115 80.5 195.5t196.5 80.5q115 0 195.5 -78.5t80.5 -197.5q0 -115 -81 -196t-195 -81zM338 1079q38 0 66 28t28 71q0 40 -28 67t-66 27q-40 0 -70 -28.5t-30 -65.5q0 -43 29.5 -71t70.5 -28z" />
    <glyph glyph-name="plusminus" unicode="&#xb1;" horiz-adv-x="1142" 
d="M201 236h731q15 0 26 -11t11 -26v-160q0 -15 -11 -26t-26 -11h-731q-15 0 -26 11t-11 26v160q0 15 11 26t26 11zM449 410v161h-248q-15 0 -26 11t-11 26v170q0 15 11 26t26 11h248v248q0 15 10.5 26t25.5 11h172q15 0 26 -11t11 -26v-248h248q15 0 26 -11t11 -26v-170
q0 -15 -11 -26t-26 -11h-248v-161q0 -15 -11 -26t-26 -11h-172q-15 0 -25.5 11t-10.5 26z" />
    <glyph glyph-name="twosuperior" unicode="&#xb2;" horiz-adv-x="624" 
d="M145 1427l-57 56q-11 11 -11.5 26.5t9.5 26.5q105 113 233 113q103 0 163.5 -62t60.5 -151q0 -87 -82 -193l-88 -117h125q15 0 26 -10.5t11 -25.5v-86q0 -15 -11 -26t-26 -11h-383q-11 0 -18 7t-7 17q0 25 14 45l142 197q17 26 33.5 50t26 37.5t18.5 26.5t13 19t7.5 12
t5 9t2.5 6q8 20 8 41q0 17 -13.5 32t-35.5 15q-45 0 -112 -54q-11 -11 -27 -11t-27 11z" />
    <glyph glyph-name="threesuperior" unicode="&#xb3;" horiz-adv-x="577" 
d="M516 1434q0 -33 -17 -72t-46 -64q63 -50 63 -131q0 -31 -10.5 -64t-35 -68.5t-74 -58t-117.5 -22.5q-114 0 -209 76q-12 9 -13 24.5t9 26.5l51 58q10 10 25.5 11t27.5 -7q46 -31 109 -31q29 0 50 15.5t21 39.5q0 31 -20.5 47.5t-50.5 16.5h-76q-15 0 -26 11t-11 26v63
q0 15 11 26t26 11h76q29 0 50 17.5t21 48.5q0 25 -21 40t-50 15q-51 0 -107 -37q-32 -18 -55 8l-47 53q-11 12 -10.5 28.5t12.5 25.5q96 80 207 80q68 0 117.5 -22t74 -57t35 -68t10.5 -66z" />
    <glyph glyph-name="acute" unicode="&#xb4;" horiz-adv-x="1044" 
d="M309 1393l283 219q10 9 26 6.5t23 -14.5l102 -142q8 -12 5 -27t-15 -24l-307 -190q-12 -7 -27.5 -3.5t-23.5 15.5l-74 106q-9 12 -6.5 28.5t14.5 25.5z" />
    <glyph glyph-name="mu" unicode="&#xb5;" horiz-adv-x="1243" 
d="M164 -371v1358q0 15 11 26t26 11h241q15 0 26 -11t11 -26v-528q1 -39 6 -68.5t19 -59.5t42 -46.5t70 -16.5q50 0 90 19t62 49v651q0 15 11 26t26 11h237q15 0 26 -11t11 -26v-950q0 -15 -11 -26t-26 -11h-129q-35 0 -55 33l-16 30q-95 -77 -224 -77q-81 0 -139 28v-385
q0 -15 -11 -26t-26 -11h-241q-15 0 -26 11t-11 26z" />
    <glyph glyph-name="mu" unicode="&#x3bc;" horiz-adv-x="1243" 
d="M164 -371v1358q0 15 11 26t26 11h241q15 0 26 -11t11 -26v-528q1 -39 6 -68.5t19 -59.5t42 -46.5t70 -16.5q50 0 90 19t62 49v651q0 15 11 26t26 11h237q15 0 26 -11t11 -26v-950q0 -15 -11 -26t-26 -11h-129q-35 0 -55 33l-16 30q-95 -77 -224 -77q-81 0 -139 28v-385
q0 -15 -11 -26t-26 -11h-241q-15 0 -26 11t-11 26z" />
    <glyph glyph-name="paragraph" unicode="&#xb6;" horiz-adv-x="1503" 
d="M82 1006q0 57 12 113t42.5 114.5t76 102.5t120 72t167.5 28h803q15 0 25.5 -11t10.5 -26v-148q0 -15 -10.5 -26t-25.5 -11h-101v-1585q0 -15 -11 -26t-26 -11h-192q-15 0 -26 11t-11 26v1585h-180v-1585q0 -15 -11 -26t-26 -11h-193q-15 0 -26 11t-11 26v946
q-90 1 -162 30t-117 73t-74.5 102.5t-41.5 114t-12 111.5z" />
    <glyph glyph-name="periodcentered" unicode="&#xb7;" horiz-adv-x="602" 
d="M123 612q0 76 49.5 126t126.5 50q76 0 128 -50t52 -126q0 -75 -52.5 -127.5t-127.5 -52.5q-76 0 -126 52t-50 128z" />
    <glyph glyph-name="cedilla" unicode="&#xb8;" horiz-adv-x="1134" 
d="M668 -184h-33q-18 0 -33 12q-12 15 -12 33v176q0 15 11 26t26 11h94q15 0 26 -11t11 -26v-94q101 -3 150.5 -61.5t49.5 -125.5q0 -109 -70.5 -167t-172.5 -58q-78 0 -183 37q-15 6 -21 20t-1 29l31 82q5 14 18.5 21.5t28.5 3.5q65 -21 106 -21q30 0 49.5 13.5t20.5 39.5
q2 23 -19.5 41.5t-76.5 18.5z" />
    <glyph glyph-name="onesuperior" unicode="&#xb9;" horiz-adv-x="466" 
d="M375 1599v-595q0 -15 -11 -26t-26 -11h-107q-15 0 -25.5 11t-10.5 26v389l-52 -29q-13 -6 -28.5 -2t-22.5 16l-33 54q-8 12 -4 28t17 23l182 131q31 22 68 22h16q15 0 26 -11t11 -26z" />
    <glyph glyph-name="ordmasculine" unicode="&#xba;" horiz-adv-x="774" 
d="M387 1446q68 0 122 -21t87.5 -53.5t56 -76t31 -85t8.5 -82.5q0 -43 -8.5 -84.5t-31 -84.5t-56 -75t-87.5 -52.5t-122 -20.5t-122 20.5t-87.5 52.5t-56 75t-31 84.5t-8.5 84.5q0 41 8.5 82.5t31 85t56 76t87.5 53.5t122 21zM387 1026q27 0 46 11.5t27.5 30t11.5 33t3 27.5
t-3 27t-11.5 32.5t-27.5 30t-46 11.5t-46 -11.5t-27.5 -30t-11.5 -32.5t-3 -27t3 -27.5t11.5 -33t27.5 -30t46 -11.5zM158 659h456q15 0 26 -10.5t11 -25.5v-142q0 -15 -11 -26t-26 -11h-456q-15 0 -26 11t-11 26v142q0 15 11 25.5t26 10.5z" />
    <glyph glyph-name="guillemotright" unicode="&#xbb;" horiz-adv-x="1222" 
d="M633 264l207 260l-207 256q-9 12 -7.5 28t13.5 26l106 92q12 10 27.5 9.5t26.5 -11.5l354 -377q8 -12 8 -25q0 -10 -8 -22l-354 -379q-11 -11 -26.5 -11.5t-27.5 9.5l-106 92q-12 10 -13.5 25.5t7.5 27.5zM84 264l207 260l-207 256q-9 12 -7.5 28t13.5 26l107 92
q12 10 27 9.5t26 -11.5l354 -377q8 -12 8 -25q0 -10 -8 -22l-354 -379q-11 -11 -26 -11.5t-27 9.5l-107 92q-12 10 -13.5 25.5t7.5 27.5z" />
    <glyph glyph-name="onequarter" unicode="&#xbc;" horiz-adv-x="1212" 
d="M1032 1401l-682 -1368q-16 -33 -53 -33h-135q-12 0 -19.5 11.5t-1.5 21.5l684 1368q17 33 54 33h133q12 0 19 -11.5t1 -21.5zM375 1403v-596q0 -15 -11 -26t-26 -11h-107q-15 0 -25.5 11t-10.5 26v389l-52 -29q-14 -6 -28.5 -1.5t-22.5 16.5l-33 53q-8 12 -4 28t17 23
l182 131q33 23 68 23h16q15 0 26 -11t11 -26zM1044 98v-59q0 -15 -10.5 -26t-25.5 -11h-97q-15 0 -26 11t-11 26v59h-233q-15 0 -26 11t-11 26v62q0 32 21 67l260 379q21 31 57 31h66q15 0 25.5 -11t10.5 -26v-387h58q15 0 26 -11t11 -26v-78q0 -15 -11 -26t-26 -11h-58z
M874 375l-86 -125h86v125z" />
    <glyph glyph-name="onehalf" unicode="&#xbd;" horiz-adv-x="1308" 
d="M811 463l-57 55q-11 11 -11.5 26.5t9.5 26.5q105 113 233 113q103 0 163 -62t60 -151q0 -86 -82 -192l-88 -117h125q15 0 26 -11t11 -26v-86q0 -15 -11 -26t-26 -11h-383q-10 0 -17 7t-7 18q0 25 14 45l141 196q24 35 45 66t30.5 44.5t17.5 25t10.5 16t3.5 8.5q8 20 8 41
q0 17 -13.5 32t-35.5 15q-47 0 -113 -53q-10 -11 -26 -11t-27 11zM1032 1401l-682 -1368q-16 -33 -53 -33h-135q-12 0 -19.5 11.5t-1.5 21.5l684 1368q17 33 54 33h133q12 0 19 -11.5t1 -21.5zM375 1403v-596q0 -15 -11 -26t-26 -11h-107q-15 0 -25.5 11t-10.5 26v389
l-52 -29q-14 -6 -28.5 -1.5t-22.5 16.5l-33 53q-8 12 -4 28t17 23l182 131q33 23 68 23h16q15 0 26 -11t11 -26z" />
    <glyph glyph-name="threequarters" unicode="&#xbe;" horiz-adv-x="1296" 
d="M1108 1401l-682 -1368q-16 -33 -53 -33h-135q-12 0 -19.5 11.5t-1.5 21.5l684 1368q17 33 53 33h133q12 0 19.5 -11.5t1.5 -21.5zM1120 98v-61q0 -15 -11 -26t-26 -11h-96q-15 0 -26 11t-11 26v61h-233q-15 0 -26 11t-11 26v62q0 34 20 67l261 379q21 31 57 31h65
q15 0 26 -11t11 -26v-387h58q15 0 25.5 -11t10.5 -26v-78q0 -15 -10.5 -26t-25.5 -11h-58zM950 375l-86 -125h86v125zM516 1235q0 -33 -17 -71.5t-46 -63.5q63 -50 63 -131q0 -31 -10.5 -64t-35 -68.5t-74 -58t-117.5 -22.5q-116 0 -209 75q-12 9 -13 25t9 27l51 57
q10 10 25.5 11t27.5 -7q46 -31 109 -31q29 0 50 16t21 40q0 31 -20.5 47t-50.5 16h-76q-15 0 -26 11t-11 26v64q0 15 11 25.5t26 10.5h76q29 0 50 17.5t21 48.5q0 25 -21 40t-50 15q-51 0 -107 -37q-13 -8 -29 -5.5t-26 14.5l-47 53q-11 12 -10.5 28t12.5 25q96 80 207 80
q68 0 117.5 -22t74 -57t35 -68t10.5 -66z" />
    <glyph glyph-name="questiondown" unicode="&#xbf;" horiz-adv-x="1187" 
d="M430 412v86q0 15 11 26t26 11h221q15 0 26 -11t11 -26v-90q0 -64 -25.5 -121t-61.5 -100t-72 -83t-61.5 -87.5t-25.5 -96.5q0 -18 5.5 -36t27 -36t57.5 -18q63 0 112 27.5t128 103.5q11 11 26.5 11.5t26.5 -9.5l135 -127q11 -11 12 -26t-8 -27q-108 -127 -213.5 -179.5
t-238.5 -52.5q-171 0 -278 96.5t-107 270.5q0 68 27.5 136.5t66.5 121t78 98t66.5 81.5t27.5 57zM745 860q0 -72 -49.5 -121t-122.5 -49q-71 0 -121.5 49.5t-50.5 120.5q0 73 50.5 122.5t121.5 49.5q75 0 123.5 -47t48.5 -125z" />
    <glyph glyph-name="Agrave" unicode="&#xc0;" horiz-adv-x="1511" 
d="M803 1417l631 -1384q6 -10 -1.5 -21.5t-19.5 -11.5h-293q-37 0 -51 35l-102 256h-422l-103 -256q-14 -35 -51 -35h-293q-12 0 -19.5 11t-2.5 22l629 1384q6 15 20 24t29 9t29 -9t20 -24zM756 813l-109 -266h215zM686 2019l283 -219q12 -9 14.5 -25t-6.5 -28l-74 -107
q-9 -12 -24 -15.5t-27 3.5l-307 191q-12 9 -15 24t5 27l102 141q8 12 22.5 14.5t26.5 -6.5z" />
    <glyph glyph-name="Aacute" unicode="&#xc1;" horiz-adv-x="1511" 
d="M803 1417l631 -1384q6 -10 -1.5 -21.5t-19.5 -11.5h-293q-37 0 -51 35l-102 256h-422l-103 -256q-14 -35 -51 -35h-293q-12 0 -19.5 11t-2.5 22l629 1384q6 15 20 24t29 9t29 -9t20 -24zM756 813l-109 -266h215zM545 1800l282 219q12 9 27 6.5t23 -14.5l102 -141
q8 -12 5 -27t-15 -24l-307 -191q-12 -7 -27.5 -3.5t-24.5 15.5l-73 107q-9 12 -6.5 28t14.5 25z" />
    <glyph glyph-name="Acircumflex" unicode="&#xc2;" horiz-adv-x="1511" 
d="M803 1417l631 -1384q6 -10 -1.5 -21.5t-19.5 -11.5h-293q-37 0 -51 35l-102 256h-422l-103 -256q-14 -35 -51 -35h-293q-12 0 -19.5 11t-2.5 22l629 1384q6 15 20 24t29 9t29 -9t20 -24zM756 813l-109 -266h215zM784 2019l283 -219q12 -9 14.5 -25t-6.5 -28l-74 -107
q-9 -12 -24 -15.5t-27 3.5l-194 121l-195 -121q-12 -7 -27.5 -3.5t-23.5 15.5l-74 107q-9 12 -6.5 28t14.5 25l283 219q12 9 28.5 9t28.5 -9z" />
    <glyph glyph-name="Atilde" unicode="&#xc3;" horiz-adv-x="1511" 
d="M803 1417l631 -1384q6 -10 -1.5 -21.5t-19.5 -11.5h-293q-37 0 -51 35l-102 256h-422l-103 -256q-14 -35 -51 -35h-293q-12 0 -19.5 11t-2.5 22l629 1384q6 15 20 24t29 9t29 -9t20 -24zM756 813l-109 -266h215zM498 1632l-105 64q-12 9 -16.5 24t2.5 29q50 90 115.5 131
t130.5 41q42 0 113.5 -34t113.5 -34q47 0 84 43q9 12 24 16t27 -5l105 -64q12 -8 16.5 -22.5t-2.5 -28.5q-50 -91 -117 -132.5t-133 -41.5q-42 0 -110 35t-107 35q-51 0 -90 -43q-9 -12 -24 -16t-27 3z" />
    <glyph glyph-name="Adieresis" unicode="&#xc4;" horiz-adv-x="1511" 
d="M348 1780q0 69 48 117.5t118 48.5q69 0 116.5 -48.5t47.5 -117.5q0 -70 -47.5 -117t-116.5 -47q-71 0 -118.5 47t-47.5 117zM831 1780q0 69 48 117.5t118 48.5q69 0 116.5 -48.5t47.5 -117.5q0 -70 -47.5 -117t-116.5 -47q-71 0 -118.5 47t-47.5 117zM803 1417l631 -1384
q6 -10 -1.5 -21.5t-19.5 -11.5h-293q-37 0 -51 35l-102 256h-422l-103 -256q-14 -35 -51 -35h-293q-12 0 -19.5 11t-2.5 22l629 1384q6 15 20 24t29 9t29 -9t20 -24zM756 813l-109 -266h215z" />
    <glyph glyph-name="Aring" unicode="&#xc5;" horiz-adv-x="1511" 
d="M539 1819q0 89 64 153t153 64t152 -64t63 -153t-63 -152t-152 -63t-153 63t-64 152zM694 1819q0 -23 18.5 -41.5t43.5 -18.5q23 0 41 18.5t18 41.5q0 25 -18 43t-41 18q-25 0 -43.5 -18t-18.5 -43zM803 1417l631 -1384q6 -10 -1.5 -21.5t-19.5 -11.5h-293q-37 0 -51 35
l-102 256h-422l-103 -256q-14 -35 -51 -35h-293q-12 0 -19.5 11t-2.5 22l629 1384q6 15 20 24t29 9t29 -9t20 -24zM756 813l-109 -266h215z" />
    <glyph glyph-name="AE" unicode="&#xc6;" horiz-adv-x="1869" 
d="M1565 555h-482v-250h627q15 0 26 -11t11 -26v-231q0 -15 -11 -26t-26 -11h-917q-15 0 -26 11t-11 26v262h-203l-111 -264q-14 -35 -51 -35h-293q-12 0 -19 11.5t-1 21.5l641 1368q17 33 53 33h938q15 0 26 -11t11 -26v-232q0 -15 -11 -26t-26 -11h-627v-268h482
q15 0 26 -11t11 -26v-231q0 -15 -11 -26t-26 -11zM756 786l-97 -229h97v229z" />
    <glyph glyph-name="Ccedilla" unicode="&#xc7;" horiz-adv-x="1533" 
d="M791 -184h-33q-18 0 -33 12q-12 15 -12 33v129q-129 17 -233 71.5t-169 128.5t-109 167.5t-61.5 182.5t-17.5 179q0 67 10.5 135t35.5 141t62.5 139t95.5 125t129.5 102t169 68t210.5 25q167 0 300 -66.5t250 -193.5q10 -11 9.5 -26.5t-11.5 -26.5l-165 -160
q-10 -9 -26 -8.5t-26 10.5q-67 69 -159.5 115.5t-171.5 46.5q-68 0 -125 -18.5t-95.5 -47.5t-68 -68.5t-46 -79t-27 -82t-14 -73.5t-3.5 -57t3.5 -57t14 -73.5t27 -81.5t46.5 -78.5t68.5 -68.5t95.5 -47t126 -18q83 0 176.5 41t169.5 104q12 9 27 8.5t24 -12.5l141 -168
q10 -12 9.5 -28t-11.5 -27q-226 -213 -493 -229v-41q101 -3 150.5 -61.5t49.5 -125.5q0 -109 -70.5 -167t-172.5 -58q-78 0 -183 37q-15 6 -21 20t-1 29l31 82q5 14 18.5 21.5t28.5 3.5q65 -21 106 -21q30 0 49.5 13.5t20.5 39.5q2 23 -19.5 41.5t-76.5 18.5z" />
    <glyph glyph-name="Egrave" unicode="&#xc8;" horiz-adv-x="1318" 
d="M1014 555h-482v-250h627q15 0 26 -11t11 -26v-231q0 -15 -11 -26t-26 -11h-917q-15 0 -26 11t-11 26v1360q0 15 11 26t26 11h917q15 0 26 -11t11 -26v-232q0 -15 -11 -26t-26 -11h-627v-268h482q15 0 26 -11t11 -26v-231q0 -15 -11 -26t-26 -11zM590 2019l282 -219
q12 -9 15 -25t-6 -28l-74 -107q-9 -12 -24 -15.5t-27 3.5l-307 191q-12 9 -15 24t4 27l103 141q8 12 22.5 14.5t26.5 -6.5z" />
    <glyph glyph-name="Eacute" unicode="&#xc9;" horiz-adv-x="1318" 
d="M1014 555h-482v-250h627q15 0 26 -11t11 -26v-231q0 -15 -11 -26t-26 -11h-917q-15 0 -26 11t-11 26v1360q0 15 11 26t26 11h917q15 0 26 -11t11 -26v-232q0 -15 -11 -26t-26 -11h-627v-268h482q15 0 26 -11t11 -26v-231q0 -15 -11 -26t-26 -11zM446 1802l283 219
q10 9 26 6.5t23 -14.5l103 -141q7 -12 4 -27t-15 -24l-307 -191q-12 -7 -27.5 -3.5t-23.5 15.5l-74 107q-9 12 -6.5 28t14.5 25z" />
    <glyph glyph-name="Ecircumflex" unicode="&#xca;" horiz-adv-x="1318" 
d="M1014 555h-482v-250h627q15 0 26 -11t11 -26v-231q0 -15 -11 -26t-26 -11h-917q-15 0 -26 11t-11 26v1360q0 15 11 26t26 11h917q15 0 26 -11t11 -26v-232q0 -15 -11 -26t-26 -11h-627v-268h482q15 0 26 -11t11 -26v-231q0 -15 -11 -26t-26 -11zM688 2019l283 -219
q12 -9 14.5 -25t-6.5 -28l-74 -107q-9 -12 -24 -15.5t-27 3.5l-195 121l-194 -121q-12 -7 -27.5 -3.5t-23.5 15.5l-74 107q-9 12 -6.5 28t14.5 25l283 219q12 9 28.5 9t28.5 -9z" />
    <glyph glyph-name="Edieresis" unicode="&#xcb;" horiz-adv-x="1318" 
d="M1014 555h-482v-250h627q15 0 26 -11t11 -26v-231q0 -15 -11 -26t-26 -11h-917q-15 0 -26 11t-11 26v1360q0 15 11 26t26 11h917q15 0 26 -11t11 -26v-232q0 -15 -11 -26t-26 -11h-627v-268h482q15 0 26 -11t11 -26v-231q0 -15 -11 -26t-26 -11zM276 1817
q12 56 56.5 92.5t105.5 36.5q69 0 116.5 -48.5t47.5 -117.5q0 -70 -47.5 -117t-116.5 -47q-61 0 -105.5 35t-56.5 92q-9 37 0 74zM756 1780q0 69 48 117.5t118 48.5q69 0 116 -48.5t47 -117.5q0 -70 -47 -117t-116 -47q-71 0 -118.5 47t-47.5 117z" />
    <glyph glyph-name="Igrave" unicode="&#xcc;" horiz-adv-x="565" 
d="M446 1397v-1360q0 -15 -10.5 -26t-25.5 -11h-254q-15 0 -26 11t-11 26v1360q0 15 11 26t26 11h254q15 0 25.5 -11t10.5 -26zM213 2019l283 -219q12 -9 14.5 -25t-6.5 -28l-74 -107q-9 -12 -24 -15.5t-27 3.5l-307 191q-12 9 -15 24t4 27l103 141q8 12 22.5 14.5
t26.5 -6.5z" />
    <glyph glyph-name="Iacute" unicode="&#xcd;" horiz-adv-x="565" 
d="M446 1397v-1360q0 -15 -10.5 -26t-25.5 -11h-254q-15 0 -26 11t-11 26v1360q0 15 11 26t26 11h254q15 0 25.5 -11t10.5 -26zM70 1802l282 219q10 9 26 6.5t23 -14.5l103 -141q8 -12 5 -27t-15 -24l-308 -191q-12 -7 -27.5 -3.5t-23.5 15.5l-74 107q-9 12 -6 28t15 25z
" />
    <glyph glyph-name="Icircumflex" unicode="&#xce;" horiz-adv-x="679" 
d="M504 1397v-1360q0 -15 -11 -26t-26 -11h-254q-15 0 -26 11t-11 26v1360q0 15 11 26t26 11h254q15 0 26 -11t11 -26zM369 2019l282 -219q12 -9 14.5 -25t-6.5 -28l-73 -107q-9 -12 -24 -15.5t-27 3.5l-195 121l-195 -121q-12 -7 -27.5 -3.5t-23.5 15.5l-74 107
q-9 12 -6 28t15 25l282 219q12 9 29 9t29 -9z" />
    <glyph glyph-name="Idieresis" unicode="&#xcf;" horiz-adv-x="813" 
d="M0 1780q0 69 48 117.5t118 48.5q69 0 116.5 -48.5t47.5 -117.5q0 -70 -47.5 -117t-116.5 -47q-71 0 -118.5 47t-47.5 117zM483 1780q0 69 48 117.5t118 48.5q69 0 116.5 -48.5t47.5 -117.5q0 -70 -47.5 -117t-116.5 -47q-71 0 -118.5 47t-47.5 117zM569 1397v-1360
q0 -15 -11 -26t-26 -11h-253q-15 0 -26 11t-11 26v1360q0 15 11 26t26 11h253q15 0 26 -11t11 -26z" />
    <glyph glyph-name="Eth" unicode="&#xd0;" horiz-adv-x="1554" 
d="M145 848h60v549q0 15 11 26t26 11h479q113 0 210.5 -24t169 -65t129 -98t94.5 -120.5t62 -135t35.5 -138.5t10.5 -134q0 -98 -21 -193t-73 -192t-130.5 -169.5t-204 -118.5t-282.5 -46h-479q-15 0 -26 11t-11 26v563h-60q-15 0 -25.5 11t-10.5 26v174q0 15 10.5 26
t25.5 11zM530 305h191q68 0 125 17.5t95.5 45.5t68 66.5t46 76.5t27 79.5t14 72t3.5 56.5q0 32 -5.5 68t-18.5 85t-41 92.5t-67.5 82t-103.5 61t-143 22.5h-191v-282h201q15 0 26 -11t11 -26v-174q0 -15 -11 -26t-26 -11h-201v-295z" />
    <glyph glyph-name="Ntilde" unicode="&#xd1;" horiz-adv-x="1597" 
d="M498 0h-256q-15 0 -26 11t-11 26v1386q0 11 8 19t18 8q27 0 45 -18l789 -746v711q0 15 11 26t26 11h254q15 0 26 -11t11 -26v-1387q0 -12 -8.5 -20t-20.5 -8q-32 0 -49 20l-780 741v-706q0 -15 -11 -26t-26 -11zM553 1632l-104 64q-13 9 -17.5 24t2.5 29q50 90 115.5 131
t130.5 41q42 0 113.5 -34t113.5 -34q47 0 84 43q9 12 24 16t27 -5l105 -64q12 -8 16.5 -22.5t-2.5 -28.5q-50 -91 -117 -132.5t-133 -41.5q-43 0 -110 35t-107 35q-51 0 -90 -43q-9 -12 -24 -16t-27 3z" />
    <glyph glyph-name="Ograve" unicode="&#xd2;" horiz-adv-x="1669" 
d="M836 1458q156 0 281.5 -48.5t203.5 -125t130.5 -176.5t73.5 -196.5t21 -192.5q0 -69 -10.5 -138t-35.5 -143t-62 -140t-94.5 -125.5t-129 -102.5t-168.5 -68t-210 -25t-210.5 25t-169.5 68t-129.5 102.5t-95 125.5t-62.5 140t-35.5 143t-10.5 138q0 67 10.5 135.5
t35.5 142t62.5 139.5t95.5 125.5t129.5 102.5t169 68.5t210.5 25.5zM836 285q68 0 124.5 18.5t94.5 48.5t67.5 70.5t46 80.5t26.5 83.5t13.5 74.5t3.5 58q0 40 -7 86t-31 110t-62.5 113.5t-110 85t-165.5 35.5t-166.5 -35.5t-111 -85t-63 -113t-31.5 -110t-7 -86.5
q0 -32 5.5 -69.5t18.5 -89.5t41 -98.5t67.5 -87t103.5 -65t143 -24.5zM686 2019l283 -219q12 -9 14.5 -25t-6.5 -28l-74 -107q-9 -12 -24 -15.5t-27 3.5l-307 191q-12 9 -15 24t5 27l102 141q8 12 22.5 14.5t26.5 -6.5z" />
    <glyph glyph-name="Oacute" unicode="&#xd3;" horiz-adv-x="1669" 
d="M836 1458q156 0 281.5 -48.5t203.5 -125t130.5 -176.5t73.5 -196.5t21 -192.5q0 -69 -10.5 -138t-35.5 -143t-62 -140t-94.5 -125.5t-129 -102.5t-168.5 -68t-210 -25t-210.5 25t-169.5 68t-129.5 102.5t-95 125.5t-62.5 140t-35.5 143t-10.5 138q0 67 10.5 135.5
t35.5 142t62.5 139.5t95.5 125.5t129.5 102.5t169 68.5t210.5 25.5zM836 285q68 0 124.5 18.5t94.5 48.5t67.5 70.5t46 80.5t26.5 83.5t13.5 74.5t3.5 58q0 40 -7 86t-31 110t-62.5 113.5t-110 85t-165.5 35.5t-166.5 -35.5t-111 -85t-63 -113t-31.5 -110t-7 -86.5
q0 -32 5.5 -69.5t18.5 -89.5t41 -98.5t67.5 -87t103.5 -65t143 -24.5zM889 2019q12 9 26.5 6.5t22.5 -14.5l102 -141q8 -12 5 -27t-15 -24l-307 -191q-12 -7 -27 -3.5t-24 15.5l-74 107q-9 12 -6.5 28t14.5 25z" />
    <glyph glyph-name="Ocircumflex" unicode="&#xd4;" horiz-adv-x="1669" 
d="M836 1458q156 0 281.5 -48.5t203.5 -125t130.5 -176.5t73.5 -196.5t21 -192.5q0 -69 -10.5 -138t-35.5 -143t-62 -140t-94.5 -125.5t-129 -102.5t-168.5 -68t-210 -25t-210.5 25t-169.5 68t-129.5 102.5t-95 125.5t-62.5 140t-35.5 143t-10.5 138q0 67 10.5 135.5
t35.5 142t62.5 139.5t95.5 125.5t129.5 102.5t169 68.5t210.5 25.5zM836 285q68 0 124.5 18.5t94.5 48.5t67.5 70.5t46 80.5t26.5 83.5t13.5 74.5t3.5 58q0 40 -7 86t-31 110t-62.5 113.5t-110 85t-165.5 35.5t-166.5 -35.5t-111 -85t-63 -113t-31.5 -110t-7 -86.5
q0 -32 5.5 -69.5t18.5 -89.5t41 -98.5t67.5 -87t103.5 -65t143 -24.5zM862 2019l283 -219q12 -9 14.5 -25t-6.5 -28l-74 -107q-9 -12 -24 -15.5t-27 3.5l-194 121l-195 -121q-12 -7 -27.5 -3.5t-23.5 15.5l-74 107q-9 12 -6.5 28t14.5 25l283 219q12 9 28.5 9t28.5 -9z" />
    <glyph glyph-name="Otilde" unicode="&#xd5;" horiz-adv-x="1669" 
d="M836 1458q156 0 281.5 -48.5t203.5 -125t130.5 -176.5t73.5 -196.5t21 -192.5q0 -69 -10.5 -138t-35.5 -143t-62 -140t-94.5 -125.5t-129 -102.5t-168.5 -68t-210 -25t-210.5 25t-169.5 68t-129.5 102.5t-95 125.5t-62.5 140t-35.5 143t-10.5 138q0 67 10.5 135.5
t35.5 142t62.5 139.5t95.5 125.5t129.5 102.5t169 68.5t210.5 25.5zM836 285q68 0 124.5 18.5t94.5 48.5t67.5 70.5t46 80.5t26.5 83.5t13.5 74.5t3.5 58q0 40 -7 86t-31 110t-62.5 113.5t-110 85t-165.5 35.5t-166.5 -35.5t-111 -85t-63 -113t-31.5 -110t-7 -86.5
q0 -32 5.5 -69.5t18.5 -89.5t41 -98.5t67.5 -87t103.5 -65t143 -24.5zM578 1632l-105 64q-12 9 -16.5 24t2.5 29q50 90 115.5 131t130.5 41q42 0 113.5 -34t113.5 -34q47 0 84 43q9 12 24 16t27 -5l104 -64q12 -8 17 -22.5t-2 -28.5q-50 -91 -117 -132.5t-133 -41.5
q-42 0 -110 35t-107 35q-51 0 -90 -43q-9 -12 -24 -16t-27 3z" />
    <glyph glyph-name="Odieresis" unicode="&#xd6;" horiz-adv-x="1669" 
d="M836 1458q156 0 281.5 -48.5t203.5 -125t130.5 -176.5t73.5 -196.5t21 -192.5q0 -69 -10.5 -138t-35.5 -143t-62 -140t-94.5 -125.5t-129 -102.5t-168.5 -68t-210 -25t-210.5 25t-169.5 68t-129.5 102.5t-95 125.5t-62.5 140t-35.5 143t-10.5 138q0 67 10.5 135.5
t35.5 142t62.5 139.5t95.5 125.5t129.5 102.5t169 68.5t210.5 25.5zM836 285q68 0 124.5 18.5t94.5 48.5t67.5 70.5t46 80.5t26.5 83.5t13.5 74.5t3.5 58q0 40 -7 86t-31 110t-62.5 113.5t-110 85t-165.5 35.5t-166.5 -35.5t-111 -85t-63 -113t-31.5 -110t-7 -86.5
q0 -32 5.5 -69.5t18.5 -89.5t41 -98.5t67.5 -87t103.5 -65t143 -24.5zM428 1780q0 69 48 117.5t118 48.5q69 0 116.5 -48.5t47.5 -117.5q0 -70 -47.5 -117t-116.5 -47q-71 0 -118.5 47t-47.5 117zM911 1780q0 69 48 117.5t118 48.5q69 0 116.5 -48.5t47.5 -117.5
q0 -70 -47.5 -117t-116.5 -47q-71 0 -118.5 47t-47.5 117z" />
    <glyph glyph-name="multiply" unicode="&#xd7;" horiz-adv-x="1159" 
d="M754 74l-174 174l-177 -174q-11 -10 -27 -10t-26 10l-119 119q-11 11 -11 27t11 26l177 174l-177 174q-11 10 -11 26t11 27l121 121q10 10 27 10t27 -10l174 -174l176 174q10 10 26 10t27 -10l119 -119q10 -11 10 -27t-10 -26l-176 -174l176 -174q10 -10 10 -26t-10 -27
l-121 -121q-11 -10 -27 -10t-26 10z" />
    <glyph glyph-name="Oslash" unicode="&#xd8;" horiz-adv-x="1669" 
d="M1374 1227q88 -107 130 -242.5t42 -265.5q0 -69 -10.5 -138t-35.5 -143t-62 -140t-94.5 -125.5t-129 -102.5t-168.5 -68t-210 -25q-247 0 -412 113l-68 -80q-10 -12 -25.5 -13.5t-27.5 7.5l-113 94q-12 10 -13.5 26t7.5 28l80 94q-72 103 -106.5 227t-34.5 246
q0 67 10.5 135.5t35.5 142t62.5 139.5t95.5 125.5t129.5 102.5t169 68.5t210.5 25.5q211 0 368 -90l72 86q11 12 26 13t27 -9l113 -94q12 -9 13 -24t-9 -27zM457 719q0 -106 37 -199l499 596q-71 33 -157 33q-94 0 -166.5 -35.5t-111 -85t-63 -113t-31.5 -110t-7 -86.5z
M836 285q68 0 124.5 18.5t94.5 48.5t67.5 70.5t46 80.5t26.5 83.5t13.5 74.5t3.5 58q0 133 -59 244l-520 -623q80 -55 203 -55z" />
    <glyph glyph-name="Ugrave" unicode="&#xd9;" horiz-adv-x="1515" 
d="M979 1747l-74 -107q-9 -12 -24 -15.5t-27 3.5l-307 191q-12 9 -15 24t5 27l102 141q8 12 22.5 14.5t26.5 -6.5l283 -219q12 -9 14.5 -25t-6.5 -28zM1038 1434h256q15 0 26 -11t11 -26v-834q0 -77 -18 -154t-61.5 -154.5t-107 -136t-163.5 -95.5t-223 -37t-223 37
t-164 95.5t-107.5 136t-61.5 154.5t-18 154v834q0 15 11 26t26 11h254q15 0 26 -11t11 -26v-834q0 -34 12 -76t37.5 -88.5t77 -78t119.5 -31.5q55 0 99.5 21.5t70.5 53t43.5 70.5t23.5 71t6 58v834q0 15 11 26t26 11z" />
    <glyph glyph-name="Uacute" unicode="&#xda;" horiz-adv-x="1515" 
d="M612 1640l-73 107q-9 12 -6.5 28t14.5 25l282 219q12 9 27 6.5t23 -14.5l102 -141q8 -12 5 -27t-15 -24l-307 -191q-12 -7 -27.5 -3.5t-24.5 15.5zM1038 1434h256q15 0 26 -11t11 -26v-834q0 -77 -18 -154t-61.5 -154.5t-107 -136t-163.5 -95.5t-223 -37t-223 37
t-164 95.5t-107.5 136t-61.5 154.5t-18 154v834q0 15 11 26t26 11h254q15 0 26 -11t11 -26v-834q0 -34 12 -76t37.5 -88.5t77 -78t119.5 -31.5q55 0 99.5 21.5t70.5 53t43.5 70.5t23.5 71t6 58v834q0 15 11 26t26 11z" />
    <glyph glyph-name="Ucircumflex" unicode="&#xdb;" horiz-adv-x="1515" 
d="M1038 1434h256q15 0 26 -11t11 -26v-834q0 -77 -18 -154t-61.5 -154.5t-107 -136t-163.5 -95.5t-223 -37t-223 37t-164 95.5t-107.5 136t-61.5 154.5t-18 154v834q0 15 11 26t26 11h254q15 0 26 -11t11 -26v-834q0 -34 12 -76t37.5 -88.5t77 -78t119.5 -31.5
q55 0 99.5 21.5t70.5 53t43.5 70.5t23.5 71t6 58v834q0 15 11 26t26 11zM758 1749l-195 -121q-12 -7 -27.5 -3.5t-23.5 15.5l-74 107q-9 12 -6.5 28t14.5 25l283 219q12 9 28.5 9t28.5 -9l283 -219q12 -9 14.5 -25t-6.5 -28l-73 -107q-9 -12 -24.5 -15.5t-27.5 3.5z" />
    <glyph glyph-name="Udieresis" unicode="&#xdc;" horiz-adv-x="1515" 
d="M350 1780q0 69 48 117.5t118 48.5q69 0 116.5 -48.5t47.5 -117.5q0 -70 -47.5 -117t-116.5 -47q-71 0 -118.5 47t-47.5 117zM834 1780q0 69 47.5 117.5t117.5 48.5q69 0 116.5 -48.5t47.5 -117.5q0 -70 -47.5 -117t-116.5 -47q-71 0 -118 47t-47 117zM1038 1434h256
q15 0 26 -11t11 -26v-834q0 -77 -18 -154t-61.5 -154.5t-107 -136t-163.5 -95.5t-223 -37t-223 37t-164 95.5t-107.5 136t-61.5 154.5t-18 154v834q0 15 11 26t26 11h254q15 0 26 -11t11 -26v-834q0 -34 12 -76t37.5 -88.5t77 -78t119.5 -31.5q55 0 99.5 21.5t70.5 53
t43.5 70.5t23.5 71t6 58v834q0 15 11 26t26 11z" />
    <glyph glyph-name="Yacute" unicode="&#xdd;" horiz-adv-x="1427" 
d="M877 637v-600q0 -15 -11 -26t-26 -11h-252q-15 0 -26 11t-11 26v596l-471 770q-6 9 0 20t18 11h289q34 0 55 -31l271 -451l270 451q17 31 55 31h291q12 0 18.5 -11t0.5 -20zM500 1802l282 219q10 9 26 6.5t23 -14.5l103 -141q8 -12 5 -27t-15 -24l-308 -191
q-12 -7 -27.5 -3.5t-23.5 15.5l-73 107q-9 12 -6.5 28t14.5 25z" />
    <glyph glyph-name="Thorn" unicode="&#xde;" horiz-adv-x="1355" 
d="M702 164h-176v-127q0 -15 -11 -26t-26 -11h-247q-15 0 -26 11t-11 26v1360q0 15 11 26t26 11h247q15 0 26 -11t11 -26v-140h176q117 0 211 -36t152.5 -92.5t97.5 -130.5t54.5 -145t15.5 -142t-15.5 -142t-54.5 -145.5t-97.5 -131t-152.5 -92.5t-211 -36zM526 967v-510
h162q65 0 112.5 28.5t69.5 72t31.5 81.5t9.5 72q0 26 -5 56t-20 66.5t-38.5 65.5t-65 48.5t-94.5 19.5h-162z" />
    <glyph glyph-name="germandbls" unicode="&#xdf;" horiz-adv-x="1384" 
d="M1180 383q0 -181 -129.5 -291.5t-382.5 -120.5q-15 0 -26 11t-11 26v178q0 15 11 26t26 13q99 11 141.5 58t44.5 106q-3 39 -32 84t-61.5 80t-59.5 82t-27 90q0 35 15.5 69t38 62t44.5 54.5t37.5 56.5t15.5 59q0 9 -0.5 16.5t-8 30.5t-20.5 39t-43 29.5t-71 13.5
q-24 0 -47 -6t-49 -20.5t-42.5 -47t-17.5 -77.5v-1110q0 -15 -11 -26t-26 -11h-247q-15 0 -26 11t-11 26v1105q0 92 24.5 166t60.5 120t86.5 80t92.5 49.5t90.5 24.5t67.5 10t35 1q109 0 195 -31t136 -76.5t82 -105.5t43.5 -110.5t11.5 -98.5q0 -63 -19 -118t-41 -85
t-41 -57t-19 -41q0 -12 17.5 -32.5t42.5 -48t50 -62.5t42.5 -88t17.5 -113z" />
    <glyph glyph-name="agrave" unicode="&#xe0;" horiz-adv-x="1130" 
d="M786 1337l-73 -106q-9 -12 -24 -15.5t-27 3.5l-308 190q-12 9 -15 24t5 27l102 142q8 12 23 14.5t27 -6.5l282 -219q12 -9 14.5 -25.5t-6.5 -28.5zM582 1042q74 0 133 -14t99 -36t69 -57.5t45 -70.5t25 -83t11.5 -87.5t2.5 -91.5v-565q0 -15 -11 -26t-26 -11h-133
q-39 0 -52 33l-16 37q-45 -42 -113 -66t-137 -24q-86 0 -152 23.5t-103.5 58t-61.5 81.5t-31.5 87t-7.5 81q0 94 33.5 164t91.5 108t125.5 56t146.5 18q62 0 133 -14q0 123 -116 123q-83 0 -230 -61q-15 -6 -29 -1t-20 19l-76 170q-6 15 -0.5 30t19.5 21q188 90 381 98z
M653 319v78q-62 17 -96 17q-135 0 -135 -90q0 -31 26.5 -48.5t65.5 -17.5q44 0 82.5 17.5t56.5 43.5z" />
    <glyph glyph-name="aacute" unicode="&#xe1;" horiz-adv-x="1130" 
d="M582 1042q74 0 133 -14t99 -36t69 -57.5t45 -70.5t25 -83t11.5 -87.5t2.5 -91.5v-565q0 -15 -11 -26t-26 -11h-133q-39 0 -52 33l-16 37q-45 -42 -113 -66t-137 -24q-86 0 -152 23.5t-103.5 58t-61.5 81.5t-31.5 87t-7.5 81q0 94 33.5 164t91.5 108t125.5 56t146.5 18
q62 0 133 -14q0 123 -116 123q-83 0 -230 -61q-15 -6 -29 -1t-20 19l-76 170q-6 15 -0.5 30t19.5 21q188 90 381 98zM653 319v78q-62 17 -96 17q-135 0 -135 -90q0 -31 26.5 -48.5t65.5 -17.5q44 0 82.5 17.5t56.5 43.5zM776 1411l-307 -190q-12 -7 -27.5 -3.5t-23.5 15.5
l-74 106q-9 12 -6.5 28.5t14.5 25.5l283 219q10 9 26 6.5t23 -14.5l102 -142q8 -12 5 -27t-15 -24z" />
    <glyph glyph-name="acircumflex" unicode="&#xe2;" horiz-adv-x="1130" 
d="M565 1339l-194 -120q-12 -7 -28 -3.5t-24 15.5l-73 106q-9 12 -6.5 28.5t14.5 25.5l283 219q12 9 28.5 9t28.5 -9l283 -219q12 -9 14.5 -25.5t-6.5 -28.5l-74 -106q-9 -12 -24 -15.5t-27 3.5zM582 1042q74 0 133 -14t99 -36t69 -57.5t45 -70.5t25 -83t11.5 -87.5
t2.5 -91.5v-565q0 -15 -11 -26t-26 -11h-133q-39 0 -52 33l-16 37q-45 -42 -113 -66t-137 -24q-86 0 -152 23.5t-103.5 58t-61.5 81.5t-31.5 87t-7.5 81q0 94 33.5 164t91.5 108t125.5 56t146.5 18q62 0 133 -14q0 123 -116 123q-83 0 -230 -61q-15 -6 -29 -1t-20 19
l-76 170q-6 15 -0.5 30t19.5 21q188 90 381 98zM653 319v78q-62 17 -96 17q-135 0 -135 -90q0 -31 26.5 -48.5t65.5 -17.5q44 0 82.5 17.5t56.5 43.5z" />
    <glyph glyph-name="atilde" unicode="&#xe3;" horiz-adv-x="1130" 
d="M582 1042q74 0 133 -14t99 -36t69 -57.5t45 -70.5t25 -83t11.5 -87.5t2.5 -91.5v-565q0 -15 -11 -26t-26 -11h-133q-39 0 -52 33l-16 37q-45 -42 -113 -66t-137 -24q-86 0 -152 23.5t-103.5 58t-61.5 81.5t-31.5 87t-7.5 81q0 94 33.5 164t91.5 108t125.5 56t146.5 18
q62 0 133 -14q0 123 -116 123q-83 0 -230 -61q-15 -6 -29 -1t-20 19l-76 170q-6 15 -0.5 30t19.5 21q188 90 381 98zM653 319v78q-62 17 -96 17q-135 0 -135 -90q0 -31 26.5 -48.5t65.5 -17.5q44 0 82.5 17.5t56.5 43.5zM461 1278q-51 0 -90 -43q-9 -12 -24.5 -15.5
t-27.5 3.5l-104 63q-12 9 -16.5 24t2.5 29q50 90 115 131t130 41q42 0 114 -33.5t114 -33.5q47 0 84 43q9 12 24 15.5t27 -5.5l104 -63q12 -8 17 -23t-2 -29q-50 -91 -117 -132.5t-133 -41.5q-42 0 -110 35t-107 35z" />
    <glyph glyph-name="adieresis" unicode="&#xe4;" horiz-adv-x="1136" 
d="M160 1370q0 69 48 117.5t118 48.5q69 0 116 -48.5t47 -117.5q0 -70 -47 -117t-116 -47q-71 0 -118.5 47t-47.5 117zM643 1370q0 69 48 117.5t118 48.5q69 0 116.5 -48.5t47.5 -117.5q0 -70 -47.5 -117t-116.5 -47q-71 0 -118.5 47t-47.5 117zM582 1042q74 0 133 -14
t99 -36t69 -57.5t45 -70.5t25 -83t11.5 -87.5t2.5 -91.5v-565q0 -15 -11 -26t-26 -11h-133q-39 0 -52 33l-16 37q-45 -42 -113 -66t-137 -24q-86 0 -152 23.5t-103.5 58t-61.5 81.5t-31.5 87t-7.5 81q0 94 33.5 164t91.5 108t125.5 56t146.5 18q62 0 133 -14q0 123 -116 123
q-83 0 -230 -61q-15 -6 -29 -1t-20 19l-76 170q-6 15 -0.5 30t19.5 21q188 90 381 98zM653 319v78q-62 17 -96 17q-135 0 -135 -90q0 -31 26.5 -48.5t65.5 -17.5q44 0 82.5 17.5t56.5 43.5z" />
    <glyph glyph-name="aring" unicode="&#xe5;" horiz-adv-x="1130" 
d="M348 1409q0 89 64 153t153 64t152 -64t63 -153t-63 -152t-152 -63t-153 63t-64 152zM504 1409q0 -23 18 -41t43 -18q23 0 41.5 18t18.5 41q0 25 -18.5 43t-41.5 18q-25 0 -43 -18t-18 -43zM582 1042q74 0 133 -14t99 -36t69 -57.5t45 -70.5t25 -83t11.5 -87.5t2.5 -91.5
v-565q0 -15 -11 -26t-26 -11h-133q-39 0 -52 33l-16 37q-45 -42 -113 -66t-137 -24q-86 0 -152 23.5t-103.5 58t-61.5 81.5t-31.5 87t-7.5 81q0 94 33.5 164t91.5 108t125.5 56t146.5 18q62 0 133 -14q0 123 -116 123q-83 0 -230 -61q-15 -6 -29 -1t-20 19l-76 170
q-6 15 -0.5 30t19.5 21q188 90 381 98zM653 319v78q-62 17 -96 17q-135 0 -135 -90q0 -31 26.5 -48.5t65.5 -17.5q44 0 82.5 17.5t56.5 43.5z" />
    <glyph glyph-name="ae" unicode="&#xe6;" horiz-adv-x="1646" 
d="M1554 594q0 -35 -8 -113q-3 -17 -15.5 -27t-27.5 -10h-561q17 -73 63.5 -120.5t120.5 -47.5q113 0 215 62q12 8 28.5 5t23.5 -15l106 -156q9 -14 6.5 -29t-14.5 -24q-90 -70 -175 -100.5t-190 -30.5q-200 0 -329 104q-148 -112 -318 -112q-86 0 -152 23.5t-103.5 58
t-61.5 81.5t-31.5 87t-7.5 81q0 94 33.5 164t91.5 108t125.5 56t146.5 18q58 0 109 -10q13 61 14 62q-19 57 -106 57q-83 0 -230 -61q-15 -6 -29 -1t-20 19l-76 170q-6 15 -0.5 30t19.5 21q188 90 381 98q174 0 266 -73q116 69 278 69q203 0 315.5 -120t112.5 -324zM514 258
q40 0 77 15t56 38q-14 43 -24 95q-40 8 -66 8q-135 0 -135 -90q0 -31 26.5 -48.5t65.5 -17.5zM950 623h293q-12 128 -117 131q-141 0 -176 -131z" />
    <glyph glyph-name="ccedilla" unicode="&#xe7;" horiz-adv-x="1153" 
d="M641 287q85 0 190 84q10 9 25.5 8.5t24.5 -12.5l137 -164q11 -12 10.5 -29t-12.5 -27q-152 -145 -330 -159v-45q53 -1 94 -20t63 -48t33 -59.5t11 -59.5q0 -109 -71 -167t-173 -58q-77 0 -182 37q-15 6 -21.5 20t-1.5 29l31 82q5 14 18.5 21.5t28.5 3.5q65 -21 107 -21
q30 0 49 13.5t20 39.5q2 23 -19.5 41.5t-76.5 18.5h-33q-18 0 -33 12q-12 15 -12 33v137q-106 20 -186 75.5t-123.5 130t-64.5 151.5t-21 153q0 70 13.5 138t50.5 141t93 127.5t148.5 89.5t210.5 36q221 0 395 -174q12 -10 12.5 -26.5t-10.5 -26.5l-135 -149
q-10 -10 -25.5 -10.5t-25.5 8.5q-100 86 -211 86q-52 0 -92.5 -22t-63 -57.5t-34 -75t-11.5 -79.5q0 -104 60 -165.5t143 -61.5z" />
    <glyph glyph-name="egrave" unicode="&#xe8;" horiz-adv-x="1124" 
d="M782 1337l-73 -106q-9 -12 -24.5 -15.5t-27.5 3.5l-307 190q-12 9 -15 24t5 27l102 142q8 12 23 14.5t27 -6.5l282 -219q12 -9 14.5 -25.5t-6.5 -28.5zM1032 594q0 -35 -8 -113q-3 -17 -15.5 -27t-27.5 -10h-561q17 -73 63.5 -120.5t120.5 -47.5q113 0 215 62q12 8 28 5
t23 -15l107 -156q9 -14 6.5 -29t-14.5 -24q-90 -70 -175 -100.5t-190 -30.5q-112 0 -202.5 34t-147 87.5t-94.5 124.5t-53 140.5t-15 139.5q0 69 15 137.5t53 139.5t94.5 125t147 88t202.5 34q203 0 315.5 -120t112.5 -324zM428 623h293q-12 128 -117 131q-141 0 -176 -131z
" />
    <glyph glyph-name="eacute" unicode="&#xe9;" horiz-adv-x="1124" 
d="M453 1231l-74 106q-9 12 -6.5 28.5t14.5 25.5l283 219q12 9 26.5 6.5t22.5 -14.5l102 -142q8 -12 5 -27t-15 -24l-307 -190q-12 -7 -27 -3.5t-24 15.5zM1032 594q0 -35 -8 -113q-3 -17 -15.5 -27t-27.5 -10h-561q17 -73 63.5 -120.5t120.5 -47.5q113 0 215 62q12 8 28 5
t23 -15l107 -156q9 -14 6.5 -29t-14.5 -24q-90 -70 -175 -100.5t-190 -30.5q-112 0 -202.5 34t-147 87.5t-94.5 124.5t-53 140.5t-15 139.5q0 69 15 137.5t53 139.5t94.5 125t147 88t202.5 34q203 0 315.5 -120t112.5 -324zM428 623h293q-12 128 -117 131q-141 0 -176 -131z
" />
    <glyph glyph-name="ecircumflex" unicode="&#xea;" horiz-adv-x="1124" 
d="M592 1339l-195 -120q-12 -7 -27.5 -3.5t-23.5 15.5l-74 106q-9 12 -6 28.5t15 25.5l282 219q12 9 29 9t29 -9l282 -219q12 -9 14.5 -25.5t-6.5 -28.5l-73 -106q-9 -12 -24.5 -15.5t-27.5 3.5zM1032 594q0 -35 -8 -113q-3 -17 -15.5 -27t-27.5 -10h-561
q17 -73 63.5 -120.5t120.5 -47.5q113 0 215 62q12 8 28 5t23 -15l107 -156q9 -14 6.5 -29t-14.5 -24q-90 -70 -175 -100.5t-190 -30.5q-112 0 -202.5 34t-147 87.5t-94.5 124.5t-53 140.5t-15 139.5q0 69 15 137.5t53 139.5t94.5 125t147 88t202.5 34q203 0 315.5 -120
t112.5 -324zM428 623h293q-12 128 -117 131q-141 0 -176 -131z" />
    <glyph glyph-name="edieresis" unicode="&#xeb;" horiz-adv-x="1124" 
d="M180 1370q0 69 48 117.5t118 48.5q69 0 116.5 -48.5t47.5 -117.5q0 -70 -47.5 -117t-116.5 -47q-71 0 -118.5 47t-47.5 117zM664 1370q0 69 47.5 117.5t117.5 48.5q69 0 116.5 -48.5t47.5 -117.5q0 -70 -47.5 -117t-116.5 -47q-71 0 -118 47t-47 117zM1032 594
q0 -35 -8 -113q-3 -17 -15.5 -27t-27.5 -10h-561q17 -73 63.5 -120.5t120.5 -47.5q113 0 215 62q12 8 28 5t23 -15l107 -156q9 -14 6.5 -29t-14.5 -24q-90 -70 -175 -100.5t-190 -30.5q-112 0 -202.5 34t-147 87.5t-94.5 124.5t-53 140.5t-15 139.5q0 69 15 137.5t53 139.5
t94.5 125t147 88t202.5 34q203 0 315.5 -120t112.5 -324zM428 623h293q-12 128 -117 131q-141 0 -176 -131z" />
    <glyph glyph-name="igrave" unicode="&#xec;" horiz-adv-x="565" 
d="M420 987v-950q0 -15 -11 -26t-26 -11h-205q-15 0 -26 11t-11 26v950q0 15 11 26t26 11h205q15 0 26 -11t11 -26zM213 1599l283 -219q12 -9 14.5 -25t-6.5 -28l-74 -106q-9 -12 -24 -16t-27 3l-307 191q-12 9 -15 24t4 27l103 141q8 12 22.5 14.5t26.5 -6.5z" />
    <glyph glyph-name="iacute" unicode="&#xed;" horiz-adv-x="565" 
d="M420 987v-950q0 -15 -11 -26t-26 -11h-205q-15 0 -26 11t-11 26v950q0 15 11 26t26 11h205q15 0 26 -11t11 -26zM72 1380l282 219q12 9 26.5 6.5t22.5 -14.5l103 -141q8 -12 5 -27t-15 -24l-308 -191q-12 -7 -27 -3t-24 16l-74 106q-9 12 -6 28t15 25z" />
    <glyph glyph-name="icircumflex" unicode="&#xee;" horiz-adv-x="679" 
d="M477 987v-950q0 -15 -11 -26t-26 -11h-204q-15 0 -26 11t-11 26v950q0 15 11 26t26 11h204q15 0 26 -11t11 -26zM369 1599l282 -219q12 -9 14.5 -25t-6.5 -28l-73 -106q-9 -12 -24 -16t-27 3l-195 121l-195 -121q-12 -7 -27.5 -3t-23.5 16l-74 106q-9 12 -6 28t15 25
l282 219q12 9 29 9t29 -9z" />
    <glyph glyph-name="idieresis" unicode="&#xef;" horiz-adv-x="813" 
d="M0 1370q0 69 48 117.5t118 48.5q69 0 116.5 -48.5t47.5 -117.5q0 -70 -47.5 -117t-116.5 -47q-71 0 -118.5 47t-47.5 117zM483 1370q0 69 48 117.5t118 48.5q69 0 116.5 -48.5t47.5 -117.5q0 -70 -47.5 -117t-116.5 -47q-71 0 -118.5 47t-47.5 117zM545 987v-950
q0 -15 -11 -26t-26 -11h-205q-15 0 -26 11t-11 26v950q0 15 11 26t26 11h205q15 0 26 -11t11 -26z" />
    <glyph glyph-name="eth" unicode="&#xf0;" 
d="M332 1124l57 58q-34 26 -53 37q-12 7 -15 22t5 27l112 170q9 12 24.5 15.5t29.5 -3.5q15 -8 100 -64l74 78q10 10 26 10t27 -10l78 -78q11 -10 11 -26t-11 -27l-64 -63q157 -150 251.5 -354t94.5 -453q0 -49 -11.5 -105t-45 -123.5t-84.5 -121t-139 -89.5t-199 -36
t-198.5 34.5t-138 85t-84 116t-45 119.5t-11.5 103q0 57 10 111.5t37 115t69 107.5t113 83t162 48q64 9 135 -8q-25 47 -51.5 81t-71.5 79l-67 -66q-11 -11 -27 -11t-26 11l-74 74q-10 11 -10 27t10 26zM600 276q82 0 128 53t46 126q-3 75 -47.5 125.5t-126.5 50.5
q-83 0 -127.5 -52t-44.5 -124q0 -73 46 -126t126 -53z" />
    <glyph glyph-name="ntilde" unicode="&#xf1;" 
d="M475 688v-651q0 -15 -11 -26t-26 -11h-237q-15 0 -26 11t-11 26v950q0 15 11 26t26 11h129q35 0 55 -33l16 -30q46 37 110.5 58t125.5 21q82 0 148 -16t111.5 -43t79.5 -67.5t53 -83t31 -96.5t15.5 -101.5t3.5 -104.5v-491q0 -15 -11 -26t-26 -11h-241q-15 0 -26 11
t-11 26v491q0 37 -1.5 61t-9 59t-21 56t-40.5 36.5t-65 15.5q-50 0 -90 -19t-62 -49zM356 1217l-104 63q-12 9 -16.5 24t2.5 29q50 90 115 131t130 41q42 0 114 -33.5t114 -33.5q47 0 84 43q9 12 24 15.5t27 -5.5l104 -64q12 -8 17 -22.5t-2 -28.5q-50 -91 -117 -132.5
t-133 -41.5q-43 0 -110 35t-107 35q-51 0 -90 -43q-9 -12 -24.5 -15.5t-27.5 3.5z" />
    <glyph glyph-name="ograve" unicode="&#xf2;" horiz-adv-x="1265" 
d="M633 1044q113 0 203.5 -35t146.5 -90t93 -127.5t52 -141.5t15 -138q0 -71 -15 -140.5t-52 -141t-93 -125.5t-146.5 -88.5t-203.5 -34.5t-203.5 34.5t-146.5 88.5t-93 125.5t-52 141t-15 140.5q0 69 15 138t52 141.5t93 127.5t146.5 90t203.5 35zM633 266q49 0 87 20
t58 48.5t33 65t16.5 63t3.5 49.5q0 30 -7 65.5t-26 80t-61.5 73.5t-103.5 29t-104.5 -29t-62.5 -73.5t-26.5 -80t-7.5 -65.5q0 -23 3.5 -49.5t16.5 -63t34 -65t59 -48.5t88 -20zM563 1599l283 -219q12 -9 14.5 -25t-6.5 -28l-74 -106q-9 -12 -24 -16t-27 3l-307 191
q-12 9 -15 24t5 27l102 141q8 12 22.5 14.5t26.5 -6.5z" />
    <glyph glyph-name="oacute" unicode="&#xf3;" horiz-adv-x="1265" 
d="M633 1044q113 0 203.5 -35t146.5 -90t93 -127.5t52 -141.5t15 -138q0 -71 -15 -140.5t-52 -141t-93 -125.5t-146.5 -88.5t-203.5 -34.5t-203.5 34.5t-146.5 88.5t-93 125.5t-52 141t-15 140.5q0 69 15 138t52 141.5t93 127.5t146.5 90t203.5 35zM633 266q49 0 87 20
t58 48.5t33 65t16.5 63t3.5 49.5q0 30 -7 65.5t-26 80t-61.5 73.5t-103.5 29t-104.5 -29t-62.5 -73.5t-26.5 -80t-7.5 -65.5q0 -23 3.5 -49.5t16.5 -63t34 -65t59 -48.5t88 -20zM705 1599q12 9 26.5 6.5t22.5 -14.5l102 -141q8 -12 5 -27t-15 -24l-307 -191q-12 -7 -27.5 -3
t-24.5 16l-73 106q-9 12 -6.5 28t14.5 25z" />
    <glyph glyph-name="ocircumflex" unicode="&#xf4;" horiz-adv-x="1265" 
d="M633 1044q113 0 203.5 -35t146.5 -90t93 -127.5t52 -141.5t15 -138q0 -71 -15 -140.5t-52 -141t-93 -125.5t-146.5 -88.5t-203.5 -34.5t-203.5 34.5t-146.5 88.5t-93 125.5t-52 141t-15 140.5q0 69 15 138t52 141.5t93 127.5t146.5 90t203.5 35zM633 266q49 0 87 20
t58 48.5t33 65t16.5 63t3.5 49.5q0 30 -7 65.5t-26 80t-61.5 73.5t-103.5 29t-104.5 -29t-62.5 -73.5t-26.5 -80t-7.5 -65.5q0 -23 3.5 -49.5t16.5 -63t34 -65t59 -48.5t88 -20zM662 1599l282 -219q12 -9 14.5 -25t-6.5 -28l-73 -106q-9 -12 -24.5 -16t-27.5 3l-194 121
l-195 -121q-12 -7 -27.5 -3t-23.5 16l-74 106q-9 12 -6 28t15 25l282 219q12 9 29 9t29 -9z" />
    <glyph glyph-name="otilde" unicode="&#xf5;" horiz-adv-x="1265" 
d="M633 1044q113 0 203.5 -35t146.5 -90t93 -127.5t52 -141.5t15 -138q0 -71 -15 -140.5t-52 -141t-93 -125.5t-146.5 -88.5t-203.5 -34.5t-203.5 34.5t-146.5 88.5t-93 125.5t-52 141t-15 140.5q0 69 15 138t52 141.5t93 127.5t146.5 90t203.5 35zM633 266q49 0 87 20
t58 48.5t33 65t16.5 63t3.5 49.5q0 30 -7 65.5t-26 80t-61.5 73.5t-103.5 29t-104.5 -29t-62.5 -73.5t-26.5 -80t-7.5 -65.5q0 -23 3.5 -49.5t16.5 -63t34 -65t59 -48.5t88 -20zM387 1217l-104 63q-13 9 -17.5 24t2.5 29q50 90 115.5 131t130.5 41q42 0 113.5 -33.5
t113.5 -33.5q47 0 84 43q9 12 24.5 15.5t27.5 -5.5l104 -64q12 -8 16.5 -22.5t-2.5 -28.5q-50 -91 -117 -132.5t-133 -41.5q-43 0 -110 35t-107 35q-51 0 -90 -43q-9 -12 -24 -15.5t-27 3.5z" />
    <glyph glyph-name="odieresis" unicode="&#xf6;" horiz-adv-x="1265" 
d="M633 1044q113 0 203.5 -35t146.5 -90t93 -127.5t52 -141.5t15 -138q0 -71 -15 -140.5t-52 -141t-93 -125.5t-146.5 -88.5t-203.5 -34.5t-203.5 34.5t-146.5 88.5t-93 125.5t-52 141t-15 140.5q0 69 15 138t52 141.5t93 127.5t146.5 90t203.5 35zM633 266q49 0 87 20
t58 48.5t33 65t16.5 63t3.5 49.5q0 30 -7 65.5t-26 80t-61.5 73.5t-103.5 29t-104.5 -29t-62.5 -73.5t-26.5 -80t-7.5 -65.5q0 -23 3.5 -49.5t16.5 -63t34 -65t59 -48.5t88 -20zM225 1356q0 69 48 117.5t118 48.5q69 0 116.5 -48.5t47.5 -117.5q0 -70 -47.5 -117t-116.5 -47
q-71 0 -118.5 47t-47.5 117zM709 1356q0 69 47.5 117.5t117.5 48.5q69 0 116.5 -48.5t47.5 -117.5q0 -70 -47.5 -117t-116.5 -47q-71 0 -118 47t-47 117z" />
    <glyph glyph-name="divide" unicode="&#xf7;" horiz-adv-x="958" 
d="M160 623h639q15 0 26 -11t11 -26v-150q0 -15 -11 -26t-26 -11h-639q-15 0 -26 11t-11 26v150q0 15 11 26t26 11zM326 909q12 53 53.5 86t99.5 33q66 0 111 -45t45 -111q0 -68 -44.5 -112.5t-111.5 -44.5q-58 0 -100 33.5t-53 87.5q-9 36 0 73zM322 156q0 66 45 111.5
t112 45.5q66 0 111 -45.5t45 -111.5q0 -68 -44.5 -112t-111.5 -44q-68 0 -112.5 43.5t-44.5 112.5z" />
    <glyph glyph-name="oslash" unicode="&#xf8;" horiz-adv-x="1265" 
d="M1042 846q51 -74 76 -162.5t25 -171.5q0 -71 -15 -140.5t-52 -141t-93 -125.5t-146.5 -88.5t-203.5 -34.5q-159 0 -262 59l-49 -57q-9 -12 -24.5 -14t-27.5 7l-112 95q-12 10 -13.5 25.5t7.5 27.5l57 68q-86 137 -86 319q0 69 15 138t52 141.5t93 127.5t146.5 90
t203.5 35q138 0 244 -53l53 66q11 12 26 13t27 -9l113 -94q12 -9 13 -24.5t-9 -27.5zM432 512q0 -31 4 -49l242 291q-21 6 -45 6q-61 0 -104.5 -29t-62.5 -73.5t-26.5 -80t-7.5 -65.5zM633 266q49 0 87 20t58 48.5t33 65t16.5 63t3.5 49.5q0 33 -8 72l-256 -308
q30 -10 66 -10z" />
    <glyph glyph-name="ugrave" unicode="&#xf9;" 
d="M727 336v651q0 15 11 26t26 11h237q15 0 26 -11t11 -26v-950q0 -15 -11 -26t-26 -11h-129q-35 0 -55 33l-16 30q-46 -37 -110.5 -58t-125.5 -21q-82 0 -148 16t-111.5 43t-79.5 67.5t-53 83t-31 96.5t-15.5 101.5t-3.5 104.5v491q0 15 11 26t26 11h241q15 0 26 -11
t11 -26v-491q0 -37 1.5 -61t9 -59t21 -56t40.5 -36.5t65 -15.5q50 0 90 19t62 49zM530 1599l283 -219q12 -9 14.5 -25t-6.5 -28l-73 -106q-9 -12 -24.5 -16t-27.5 3l-307 191q-12 9 -15 24t5 27l102 141q8 12 22.5 14.5t26.5 -6.5z" />
    <glyph glyph-name="uacute" unicode="&#xfa;" 
d="M727 336v651q0 15 11 26t26 11h237q15 0 26 -11t11 -26v-950q0 -15 -11 -26t-26 -11h-129q-35 0 -55 33l-16 30q-46 -37 -110.5 -58t-125.5 -21q-82 0 -148 16t-111.5 43t-79.5 67.5t-53 83t-31 96.5t-15.5 101.5t-3.5 104.5v491q0 15 11 26t26 11h241q15 0 26 -11
t11 -26v-491q0 -37 1.5 -61t9 -59t21 -56t40.5 -36.5t65 -15.5q50 0 90 19t62 49zM672 1599q12 9 26.5 6.5t22.5 -14.5l102 -141q8 -12 5 -27t-15 -24l-307 -191q-12 -7 -27 -3t-24 16l-74 106q-9 12 -6.5 28t14.5 25z" />
    <glyph glyph-name="ucircumflex" unicode="&#xfb;" 
d="M727 336v651q0 15 11 26t26 11h237q15 0 26 -11t11 -26v-950q0 -15 -11 -26t-26 -11h-129q-35 0 -55 33l-16 30q-46 -37 -110.5 -58t-125.5 -21q-82 0 -148 16t-111.5 43t-79.5 67.5t-53 83t-31 96.5t-15.5 101.5t-3.5 104.5v491q0 15 11 26t26 11h241q15 0 26 -11
t11 -26v-491q0 -37 1.5 -61t9 -59t21 -56t40.5 -36.5t65 -15.5q50 0 90 19t62 49zM629 1610l282 -219q12 -9 15 -25.5t-6 -28.5l-74 -106q-9 -12 -24 -15.5t-27 3.5l-195 120l-194 -120q-12 -7 -28 -3.5t-24 15.5l-73 106q-9 12 -6.5 28.5t14.5 25.5l282 219q12 9 29 9
t29 -9z" />
    <glyph glyph-name="udieresis" unicode="&#xfc;" 
d="M195 1356q0 69 47.5 117.5t117.5 48.5q69 0 116.5 -48.5t47.5 -117.5q0 -70 -47.5 -117t-116.5 -47q-71 0 -118 47t-47 117zM678 1356q0 69 48 117.5t118 48.5q69 0 116.5 -48.5t47.5 -117.5q0 -70 -47.5 -117t-116.5 -47q-71 0 -118.5 47t-47.5 117zM727 336v651
q0 15 11 26t26 11h237q15 0 26 -11t11 -26v-950q0 -15 -11 -26t-26 -11h-129q-35 0 -55 33l-16 30q-46 -37 -110.5 -58t-125.5 -21q-82 0 -148 16t-111.5 43t-79.5 67.5t-53 83t-31 96.5t-15.5 101.5t-3.5 104.5v491q0 15 11 26t26 11h241q15 0 26 -11t11 -26v-491
q0 -37 1.5 -61t9 -59t21 -56t40.5 -36.5t65 -15.5q50 0 90 19t62 49z" />
    <glyph glyph-name="yacute" unicode="&#xfd;" horiz-adv-x="1261" 
d="M424 989l203 -524l209 524q14 35 51 35h276q12 0 19.5 -11.5t3.5 -23.5l-582 -1362q-12 -35 -51 -35h-260q-13 0 -20.5 11.5t-2.5 23.5l189 453l-383 909q-5 12 2 23.5t20 11.5h277q17 0 30.5 -10t18.5 -25zM418 1380l282 219q10 9 26.5 6.5t23.5 -14.5l102 -141
q8 -12 5 -27t-15 -24l-307 -191q-12 -7 -28 -3t-24 16l-73 106q-9 12 -6.5 28t14.5 25z" />
    <glyph glyph-name="thorn" unicode="&#xfe;" horiz-adv-x="1259" 
d="M590 -14q-59 3 -115 18v-373q0 -15 -11 -26t-26 -11h-237q-15 0 -26 11t-11 26v1766q0 15 11 26t26 11h237q15 0 26 -11t11 -26v-377q78 20 152 20q113 0 203.5 -34.5t146.5 -89t93 -126t52 -140.5t15 -138q0 -67 -13.5 -133.5t-48 -136.5t-86.5 -124t-136 -91t-189 -43
q-49 0 -74 2zM475 723v-422q53 -33 135 -33q64 0 110 27.5t67.5 69.5t30.5 78.5t9 68.5t-9 68.5t-30.5 78.5t-67.5 69.5t-110 27.5q-82 0 -135 -33z" />
    <glyph glyph-name="ydieresis" unicode="&#xff;" horiz-adv-x="1261" 
d="M424 989l203 -524l209 524q14 35 51 35h276q12 0 19.5 -11.5t3.5 -23.5l-582 -1362q-12 -35 -51 -35h-260q-13 0 -20.5 11.5t-2.5 23.5l189 453l-383 909q-5 12 2 23.5t20 11.5h277q17 0 30.5 -10t18.5 -25zM227 1407q12 56 56.5 92.5t105.5 36.5q69 0 116.5 -48.5
t47.5 -117.5q0 -70 -47.5 -117t-116.5 -47q-61 0 -105.5 35t-56.5 92q-9 37 0 74zM707 1370q0 69 47.5 117.5t117.5 48.5q69 0 116.5 -48.5t47.5 -117.5q0 -70 -47.5 -117t-116.5 -47q-71 0 -118 47t-47 117z" />
    <glyph glyph-name="Amacron" unicode="&#x100;" horiz-adv-x="1511" 
d="M803 1417l631 -1384q6 -10 -1.5 -21.5t-19.5 -11.5h-293q-37 0 -51 35l-102 256h-422l-103 -256q-14 -35 -51 -35h-293q-12 0 -19.5 11t-2.5 22l629 1384q6 15 20 24t29 9t29 -9t20 -24zM756 813l-109 -266h215zM483 1853h543q15 0 26 -10.5t11 -25.5v-148q0 -15 -11 -26
t-26 -11h-543q-15 0 -26 11t-11 26v148q0 15 11 25.5t26 10.5z" />
    <glyph glyph-name="amacron" unicode="&#x101;" horiz-adv-x="1130" 
d="M872 1407v-147q0 -15 -10.5 -26t-25.5 -11h-543q-15 0 -26 11t-11 26v147q0 15 11 26t26 11h543q15 0 25.5 -11t10.5 -26zM582 1042q74 0 133 -14t99 -36t69 -57.5t45 -70.5t25 -83t11.5 -87.5t2.5 -91.5v-565q0 -15 -11 -26t-26 -11h-133q-39 0 -52 33l-16 37
q-45 -42 -113 -66t-137 -24q-86 0 -152 23.5t-103.5 58t-61.5 81.5t-31.5 87t-7.5 81q0 94 33.5 164t91.5 108t125.5 56t146.5 18q62 0 133 -14q0 123 -116 123q-83 0 -230 -61q-15 -6 -29 -1t-20 19l-76 170q-6 15 -0.5 30t19.5 21q188 90 381 98zM653 319v78
q-62 17 -96 17q-135 0 -135 -90q0 -31 26.5 -48.5t65.5 -17.5q44 0 82.5 17.5t56.5 43.5z" />
    <glyph glyph-name="Abreve" unicode="&#x102;" horiz-adv-x="1511" 
d="M803 1417l631 -1384q6 -10 -1.5 -21.5t-19.5 -11.5h-293q-37 0 -51 35l-102 256h-422l-103 -256q-14 -35 -51 -35h-293q-12 0 -19.5 11t-2.5 22l629 1384q6 15 20 24t29 9t29 -9t20 -24zM756 813l-109 -266h215zM891 1950l156 -47q14 -5 21 -18.5t3 -26.5
q-39 -122 -124.5 -183t-192.5 -61q-109 0 -193.5 60.5t-122.5 185.5q-4 13 3.5 26.5t21.5 18.5l151 43q13 4 26 -3.5t19 -21.5q25 -76 95 -76q62 0 92 78q5 14 18.5 21.5t26.5 3.5z" />
    <glyph glyph-name="abreve" unicode="&#x103;" horiz-adv-x="1130" 
d="M582 1042q74 0 133 -14t99 -36t69 -57.5t45 -70.5t25 -83t11.5 -87.5t2.5 -91.5v-565q0 -15 -11 -26t-26 -11h-133q-39 0 -52 33l-16 37q-45 -42 -113 -66t-137 -24q-86 0 -152 23.5t-103.5 58t-61.5 81.5t-31.5 87t-7.5 81q0 94 33.5 164t91.5 108t125.5 56t146.5 18
q62 0 133 -14q0 123 -116 123q-83 0 -230 -61q-15 -6 -29 -1t-20 19l-76 170q-6 15 -0.5 30t19.5 21q188 90 381 98zM653 319v78q-62 17 -96 17q-135 0 -135 -90q0 -31 26.5 -48.5t65.5 -17.5q44 0 82.5 17.5t56.5 43.5zM563 1204q-109 0 -193 60.5t-122 185.5q-4 13 3 26.5
t21 18.5l152 43q13 4 26 -3.5t19 -21.5q25 -75 94 -75q62 0 92 78q5 14 18.5 21t26.5 3l156 -47q14 -5 21.5 -18.5t3.5 -26.5q-39 -122 -125 -183t-193 -61z" />
    <glyph glyph-name="Aogonek" unicode="&#x104;" horiz-adv-x="1511" 
d="M803 1417l631 -1384q6 -10 -1.5 -21.5t-19.5 -11.5h-125v-6q0 -21 -31.5 -81t-31.5 -103q0 -35 26.5 -53.5t71.5 -18.5q51 0 133 20q12 5 23.5 -3t11.5 -21v-111q0 -17 -10 -30.5t-25 -18.5q-98 -33 -221 -33q-103 0 -172.5 56t-69.5 163q0 47 22.5 97t45 87.5t22.5 55.5
q-6 13 -116 291h-422l-103 -256q-14 -35 -51 -35h-293q-12 0 -19.5 11t-2.5 22l629 1384q6 15 20 24t29 9t29 -9t20 -24zM756 813l-109 -266h215z" />
    <glyph glyph-name="aogonek" unicode="&#x105;" horiz-adv-x="1148" 
d="M1001 -262q52 0 134 20q12 5 23 -3t11 -21v-111q0 -17 -9.5 -30.5t-24.5 -18.5q-98 -33 -222 -33q-102 0 -171.5 56t-69.5 163q0 47 22 97t44 87.5t22 55.5l-31 70q-45 -42 -113 -66t-137 -24q-86 0 -152 23.5t-103.5 58t-61.5 81.5t-31.5 87t-7.5 81q0 94 33.5 164
t91.5 108t125.5 56t146.5 18q62 0 133 -14q0 123 -116 123q-83 0 -230 -61q-15 -6 -29 -1t-20 19l-76 170q-6 15 -0.5 30t19.5 21q188 90 381 98q74 0 133 -14t99 -36t69 -57.5t45 -70.5t25 -83t11.5 -87.5t2.5 -91.5v-608q0 -21 -32 -81t-32 -103q0 -35 26.5 -53.5
t71.5 -18.5zM653 319v78q-62 17 -96 17q-135 0 -135 -90q0 -31 26.5 -48.5t65.5 -17.5q44 0 82.5 17.5t56.5 43.5z" />
    <glyph glyph-name="Cacute" unicode="&#x106;" horiz-adv-x="1533" 
d="M1384 1141l-165 -160q-10 -9 -26 -8.5t-26 10.5q-67 69 -159.5 115.5t-171.5 46.5q-68 0 -125 -18.5t-95.5 -47.5t-68 -68.5t-46 -79t-27 -82t-14 -73.5t-3.5 -57t3.5 -57t14 -73.5t27 -81.5t46.5 -78.5t68.5 -68.5t95.5 -47t126 -18q83 0 176.5 41t169.5 104
q12 9 27 8.5t24 -12.5l141 -168q10 -12 9.5 -28t-11.5 -27q-246 -231 -538 -231q-113 0 -210.5 25t-169.5 67.5t-129.5 101t-95 124t-62.5 139t-35.5 142.5t-10.5 138q0 67 10.5 135t35.5 141t62.5 139t95.5 125t129.5 102t169 68t210.5 25q167 0 300 -66.5t250 -193.5
q10 -11 9.5 -26.5t-11.5 -26.5zM616 1802l283 219q10 9 26 6.5t23 -14.5l103 -141q7 -12 4 -27t-15 -24l-307 -191q-12 -7 -27.5 -3.5t-23.5 15.5l-74 107q-9 12 -6.5 28t14.5 25z" />
    <glyph glyph-name="cacute" unicode="&#x107;" horiz-adv-x="1153" 
d="M641 287q85 0 190 84q10 9 25.5 8.5t24.5 -12.5l137 -164q11 -12 10.5 -29t-12.5 -27q-174 -161 -373 -161q-113 0 -204.5 34t-149 87.5t-96 124t-54.5 139.5t-16 137q0 70 13.5 138t50.5 141t93 127.5t148.5 89.5t210.5 36q221 0 395 -174q12 -10 12.5 -26.5
t-10.5 -26.5l-135 -149q-10 -10 -25.5 -10.5t-25.5 8.5q-100 86 -211 86q-52 0 -92.5 -22t-63 -57.5t-34 -75t-11.5 -79.5q0 -104 60 -165.5t143 -61.5zM850 1411l-307 -190q-12 -7 -27.5 -3.5t-23.5 15.5l-74 106q-9 12 -6.5 28.5t14.5 25.5l283 219q10 9 26 6.5t23 -14.5
l102 -142q8 -12 5 -27t-15 -24z" />
    <glyph glyph-name="Ccircumflex" unicode="&#x108;" horiz-adv-x="1533" 
d="M831 1749l-194 -121q-12 -7 -27.5 -3.5t-23.5 15.5l-74 107q-9 12 -6.5 28t14.5 25l283 219q12 9 28.5 9t28.5 -9l283 -219q12 -9 14.5 -25t-6.5 -28l-74 -107q-9 -12 -24 -15.5t-27 3.5zM838 295q83 0 176.5 41t169.5 104q12 9 27 8.5t24 -12.5l141 -168q10 -12 9.5 -28
t-11.5 -27q-246 -231 -538 -231q-113 0 -210.5 25t-169.5 67.5t-129.5 101t-95 124t-62.5 139t-35.5 142.5t-10.5 138q0 67 10.5 135t35.5 141t62.5 139t95.5 125t129.5 102t169 68t210.5 25q167 0 300 -66.5t250 -193.5q10 -11 9.5 -26.5t-11.5 -26.5l-165 -160
q-10 -9 -26 -8.5t-26 10.5q-67 69 -159.5 115.5t-171.5 46.5q-68 0 -125 -18.5t-95.5 -47.5t-68 -68.5t-46 -79t-27 -82t-14 -73.5t-3.5 -57t3.5 -57t14 -73.5t27 -81.5t46.5 -78.5t68.5 -68.5t95.5 -47t126 -18z" />
    <glyph glyph-name="ccircumflex" unicode="&#x109;" horiz-adv-x="1153" 
d="M641 287q85 0 190 84q10 9 25.5 8.5t24.5 -12.5l137 -164q11 -12 10.5 -29t-12.5 -27q-174 -161 -373 -161q-113 0 -204.5 34t-149 87.5t-96 124t-54.5 139.5t-16 137q0 70 13.5 138t50.5 141t93 127.5t148.5 89.5t210.5 36q221 0 395 -174q12 -10 12.5 -26.5
t-10.5 -26.5l-135 -149q-10 -10 -25.5 -10.5t-25.5 8.5q-100 86 -211 86q-52 0 -92.5 -22t-63 -57.5t-34 -75t-11.5 -79.5q0 -104 60 -165.5t143 -61.5zM625 1339l-195 -120q-12 -7 -27.5 -3.5t-23.5 15.5l-74 106q-9 12 -6.5 28.5t14.5 25.5l283 219q12 9 28.5 9t28.5 -9
l283 -219q12 -9 14.5 -25.5t-6.5 -28.5l-74 -106q-9 -12 -24 -15.5t-27 3.5z" />
    <glyph glyph-name="Cdotaccent" unicode="&#x10a;" horiz-adv-x="1533" 
d="M664 1778q0 69 47.5 117.5t117.5 48.5q69 0 116.5 -48.5t47.5 -117.5q0 -70 -47.5 -117t-116.5 -47q-71 0 -118 47t-47 117zM838 295q83 0 176.5 41t169.5 104q12 9 27 8.5t24 -12.5l141 -168q10 -12 9.5 -28t-11.5 -27q-246 -231 -538 -231q-113 0 -210.5 25
t-169.5 67.5t-129.5 101t-95 124t-62.5 139t-35.5 142.5t-10.5 138q0 67 10.5 135t35.5 141t62.5 139t95.5 125t129.5 102t169 68t210.5 25q167 0 300 -66.5t250 -193.5q10 -11 9.5 -26.5t-11.5 -26.5l-165 -160q-10 -9 -26 -8.5t-26 10.5q-67 69 -159.5 115.5t-171.5 46.5
q-68 0 -125 -18.5t-95.5 -47.5t-68 -68.5t-46 -79t-27 -82t-14 -73.5t-3.5 -57t3.5 -57t14 -73.5t27 -81.5t46.5 -78.5t68.5 -68.5t95.5 -47t126 -18z" />
    <glyph glyph-name="cdotaccent" unicode="&#x10b;" horiz-adv-x="1153" 
d="M465 1368q0 69 48 117.5t118 48.5q69 0 116.5 -48.5t47.5 -117.5q0 -70 -47.5 -117t-116.5 -47q-71 0 -118.5 47t-47.5 117zM641 287q85 0 190 84q10 9 25.5 8.5t24.5 -12.5l137 -164q11 -12 10.5 -29t-12.5 -27q-174 -161 -373 -161q-113 0 -204.5 34t-149 87.5t-96 124
t-54.5 139.5t-16 137q0 70 13.5 138t50.5 141t93 127.5t148.5 89.5t210.5 36q221 0 395 -174q12 -10 12.5 -26.5t-10.5 -26.5l-135 -149q-10 -10 -25.5 -10.5t-25.5 8.5q-100 86 -211 86q-52 0 -92.5 -22t-63 -57.5t-34 -75t-11.5 -79.5q0 -104 60 -165.5t143 -61.5z" />
    <glyph glyph-name="Ccaron" unicode="&#x10c;" horiz-adv-x="1533" 
d="M1384 1141l-165 -160q-10 -9 -26 -8.5t-26 10.5q-67 69 -159.5 115.5t-171.5 46.5q-68 0 -125 -18.5t-95.5 -47.5t-68 -68.5t-46 -79t-27 -82t-14 -73.5t-3.5 -57t3.5 -57t14 -73.5t27 -81.5t46.5 -78.5t68.5 -68.5t95.5 -47t126 -18q83 0 176.5 41t169.5 104
q12 9 27 8.5t24 -12.5l141 -168q10 -12 9.5 -28t-11.5 -27q-246 -231 -538 -231q-113 0 -210.5 25t-169.5 67.5t-129.5 101t-95 124t-62.5 139t-35.5 142.5t-10.5 138q0 67 10.5 135t35.5 141t62.5 139t95.5 125t129.5 102t169 68t210.5 25q167 0 300 -66.5t250 -193.5
q10 -11 9.5 -26.5t-11.5 -26.5zM1133 1851l-283 -219q-12 -9 -28.5 -9t-28.5 9l-283 219q-12 9 -14.5 24.5t6.5 29.5l73 106q8 12 24 15.5t28 -5.5l194 -118l195 118q12 9 27 5.5t24 -15.5l74 -106q9 -14 6.5 -29.5t-14.5 -24.5z" />
    <glyph glyph-name="ccaron" unicode="&#x10d;" horiz-adv-x="1153" 
d="M1018 203l-137 164q-9 12 -24.5 12.5t-25.5 -8.5q-105 -84 -190 -84q-83 0 -143 61.5t-60 165.5q0 40 11.5 79.5t34 75t63 57.5t92.5 22q111 0 211 -86q10 -9 25.5 -8.5t25.5 10.5l135 149q11 10 10.5 26.5t-12.5 26.5q-174 174 -395 174q-118 -1 -210.5 -36
t-148.5 -89.5t-93 -127.5t-50.5 -141t-13.5 -138q0 -68 16 -137t54.5 -139.5t96 -124t149 -87.5t204.5 -34q199 0 373 161q12 10 12.5 27t-10.5 29zM965 1464l-340 -264l-340 264l114 168l195 -121q30 -17 61 0l195 121z" />
    <glyph glyph-name="Dcaron" unicode="&#x10e;" horiz-adv-x="1554" 
d="M721 0h-479q-15 0 -26 11t-11 26v1360q0 15 11 26t26 11h479q113 0 210.5 -24t169 -65t129 -98t94.5 -120.5t62 -135t35.5 -138.5t10.5 -134q0 -98 -21 -193t-73 -192t-130.5 -169.5t-204 -118.5t-282.5 -46zM530 305h191q68 0 125 17.5t95.5 45.5t68 66.5t46 76.5
t27 79.5t14 72t3.5 56.5q0 32 -5.5 68t-18.5 85t-41 92.5t-67.5 82t-103.5 61t-143 22.5h-191v-825zM907 1851l-282 -219q-12 -9 -29 -9t-29 9l-282 219q-12 9 -15 24.5t6 29.5l74 106q8 12 23.5 15.5t27.5 -5.5l195 -118l195 118q12 9 27 5.5t24 -15.5l73 -106
q9 -14 6.5 -29.5t-14.5 -24.5z" />
    <glyph glyph-name="dcaron" unicode="&#x10f;" horiz-adv-x="1613" 
d="M1425 1458q51 0 89 -17t59 -45.5t31 -61.5t10 -70q0 -88 -65 -230t-138 -237q-9 -12 -25 -15.5t-30 4.5l-72 41q-13 7 -17.5 23t3.5 29q87 161 98 237q-52 11 -86.5 57t-34.5 107q0 73 53.5 125.5t124.5 52.5zM784 989v408q0 15 11 26t26 11h238q15 0 26 -11t11 -26
v-1360q0 -15 -11 -26t-26 -11h-135q-40 0 -52 35l-14 33q-129 -99 -313 -82q-94 10 -169 48.5t-121.5 92t-77 122t-42.5 133t-12 130.5t10 127.5t36.5 128t68.5 118.5t112 91.5t160 54.5q178 20 274 -43zM784 328v393q-26 16 -65.5 26.5t-69.5 10.5q-55 0 -96.5 -17.5
t-63.5 -43t-35.5 -61.5t-17.5 -64.5t-4 -59.5q0 -26 3.5 -52.5t16 -63t33 -63.5t59 -46t89.5 -19q48 0 89.5 17.5t61.5 42.5z" />
    <glyph glyph-name="Dcroat" unicode="&#x110;" horiz-adv-x="1554" 
d="M721 0h-479q-15 0 -26 11t-11 26v1360q0 15 11 26t26 11h479q113 0 210.5 -24t169 -65t129 -98t94.5 -120.5t62 -135t35.5 -138.5t10.5 -134q0 -98 -21 -193t-73 -192t-130.5 -169.5t-204 -118.5t-282.5 -46zM530 305h191q68 0 125 17.5t95.5 45.5t68 66.5t46 76.5
t27 79.5t14 72t3.5 56.5q0 32 -5.5 68t-18.5 85t-41 92.5t-67.5 82t-103.5 61t-143 22.5h-191v-825zM299 1853h543q15 0 26 -10.5t11 -25.5v-148q0 -15 -11 -26t-26 -11h-543q-15 0 -26 11t-11 26v148q0 15 11 25.5t26 10.5z" />
    <glyph glyph-name="dcroat" unicode="&#x111;" horiz-adv-x="1257" 
d="M1096 1364h84q15 0 26 -11t11 -26v-98q0 -15 -11 -26t-26 -11h-84v-1155q0 -15 -11 -26t-26 -11h-135q-40 0 -52 35l-14 33q-129 -99 -313 -82q-94 10 -169 48.5t-121.5 92t-77 122t-42.5 133t-12 130.5t10 127.5t36.5 128t68.5 118.5t112 91.5t160 54.5q178 20 274 -43
v203h-94q-15 0 -26 11t-11 26v98q0 15 11 26t26 11h94v33q0 15 11 26t26 11h238q15 0 26 -11t11 -26v-33zM633 268q48 0 89.5 17.5t61.5 42.5v393q-26 16 -65.5 26.5t-69.5 10.5q-55 0 -96.5 -17.5t-63.5 -43t-35.5 -61.5t-17.5 -64.5t-4 -59.5q0 -26 3.5 -52.5t16 -63
t33 -63.5t59 -46t89.5 -19z" />
    <glyph glyph-name="Emacron" unicode="&#x112;" horiz-adv-x="1318" 
d="M1014 555h-482v-250h627q15 0 26 -11t11 -26v-231q0 -15 -11 -26t-26 -11h-917q-15 0 -26 11t-11 26v1360q0 15 11 26t26 11h917q15 0 26 -11t11 -26v-232q0 -15 -11 -26t-26 -11h-627v-268h482q15 0 26 -11t11 -26v-231q0 -15 -11 -26t-26 -11zM387 1853h543
q15 0 26 -10.5t11 -25.5v-148q0 -15 -11 -26t-26 -11h-543q-15 0 -26 11t-11 26v148q0 15 11 25.5t26 10.5z" />
    <glyph glyph-name="emacron" unicode="&#x113;" horiz-adv-x="1124" 
d="M981 444h-561q17 -73 63.5 -120.5t120.5 -47.5q113 0 215 62q12 8 28 5t23 -15l107 -156q9 -14 6.5 -29t-14.5 -24q-90 -70 -175 -100.5t-190 -30.5q-112 0 -202.5 34t-147 87.5t-94.5 124.5t-53 140.5t-15 139.5q0 69 15 137.5t53 139.5t94.5 125t147 88t202.5 34
q203 0 315.5 -120t112.5 -324q0 -35 -8 -113q-3 -17 -15.5 -27t-27.5 -10zM567 752q-108 -16 -139 -129h293q-11 104 -80 125q-25 8 -74 4zM322 1444h542q15 0 26 -11t11 -26v-147q0 -15 -11 -26t-26 -11h-542q-15 0 -26 11t-11 26v147q0 15 11 26t26 11z" />
    <glyph glyph-name="Ebreve" unicode="&#x114;" horiz-adv-x="1318" 
d="M1014 555h-482v-250h627q15 0 26 -11t11 -26v-231q0 -15 -11 -26t-26 -11h-917q-15 0 -26 11t-11 26v1360q0 15 11 26t26 11h917q15 0 26 -11t11 -26v-232q0 -15 -11 -26t-26 -11h-627v-268h482q15 0 26 -11t11 -26v-231q0 -15 -11 -26t-26 -11zM795 1950l155 -47
q14 -5 21.5 -18.5t3.5 -26.5q-39 -122 -125 -183t-193 -61q-109 0 -193 60.5t-122 185.5q-4 13 3.5 26.5t21.5 18.5l151 43q13 4 26 -3.5t19 -21.5q25 -76 94 -76q27 0 52 18.5t41 59.5q5 14 18.5 21.5t26.5 3.5z" />
    <glyph glyph-name="ebreve" unicode="&#x115;" horiz-adv-x="1124" 
d="M600 1204q-109 0 -193 60.5t-122 185.5q-4 13 3 26.5t21 18.5l152 43q13 4 26 -3.5t19 -21.5q25 -75 94 -75q62 0 92 78q5 14 18.5 21t26.5 3l156 -47q14 -5 21.5 -18.5t3.5 -26.5q-39 -122 -125 -183t-193 -61zM1032 594q0 -35 -8 -113q-3 -17 -15.5 -27t-27.5 -10h-561
q17 -73 63.5 -120.5t120.5 -47.5q113 0 215 62q12 8 28 5t23 -15l107 -156q9 -14 6.5 -29t-14.5 -24q-90 -70 -175 -100.5t-190 -30.5q-112 0 -202.5 34t-147 87.5t-94.5 124.5t-53 140.5t-15 139.5q0 69 15 137.5t53 139.5t94.5 125t147 88t202.5 34q203 0 315.5 -120
t112.5 -324zM428 623h293q-12 128 -117 131q-141 0 -176 -131z" />
    <glyph glyph-name="Edotaccent" unicode="&#x116;" horiz-adv-x="1318" 
d="M494 1778q0 69 47.5 117.5t117.5 48.5q69 0 116.5 -48.5t47.5 -117.5q0 -70 -47.5 -117t-116.5 -47q-71 0 -118 47t-47 117zM1014 555h-482v-250h627q15 0 26 -11t11 -26v-231q0 -15 -11 -26t-26 -11h-917q-15 0 -26 11t-11 26v1360q0 15 11 26t26 11h917q15 0 26 -11
t11 -26v-232q0 -15 -11 -26t-26 -11h-627v-268h482q15 0 26 -11t11 -26v-231q0 -15 -11 -26t-26 -11z" />
    <glyph glyph-name="edotaccent" unicode="&#x117;" horiz-adv-x="1124" 
d="M434 1368q0 69 48 117.5t118 48.5q69 0 116.5 -48.5t47.5 -117.5q0 -70 -47.5 -117t-116.5 -47q-71 0 -118.5 47t-47.5 117zM1032 594q0 -35 -8 -113q-3 -17 -15.5 -27t-27.5 -10h-561q17 -73 63.5 -120.5t120.5 -47.5q113 0 215 62q12 8 28 5t23 -15l107 -156
q9 -14 6.5 -29t-14.5 -24q-90 -70 -175 -100.5t-190 -30.5q-112 0 -202.5 34t-147 87.5t-94.5 124.5t-53 140.5t-15 139.5q0 69 15 137.5t53 139.5t94.5 125t147 88t202.5 34q203 0 315.5 -120t112.5 -324zM428 623h293q-12 128 -117 131q-141 0 -176 -131z" />
    <glyph glyph-name="Eogonek" unicode="&#x118;" horiz-adv-x="1318" 
d="M1014 555h-482v-250h627q15 0 26 -11t11 -26v-274q0 -21 -33 -81t-33 -103q0 -35 27 -53.5t72 -18.5q51 0 133 20q12 5 23.5 -3t11.5 -21v-111q0 -17 -10 -30.5t-25 -18.5q-98 -33 -221 -33q-103 0 -172.5 56t-69.5 163q0 47 22.5 97t45 87.5t22.5 55.5h-747
q-15 0 -26 11t-11 26v1360q0 15 11 26t26 11h917q15 0 26 -11t11 -26v-232q0 -15 -11 -26t-26 -11h-627v-268h482q15 0 26 -11t11 -26v-231q0 -15 -11 -26t-26 -11z" />
    <glyph glyph-name="eogonek" unicode="&#x119;" horiz-adv-x="1124" 
d="M981 444h-561q17 -73 63.5 -120.5t120.5 -47.5q113 0 215 62q12 8 28 5t23 -15l107 -156q20 -30 -8 -55q-43 -34 -103 -66v-57q0 -21 -31.5 -81t-31.5 -103q0 -35 26.5 -53.5t71.5 -18.5q51 0 133 20q12 5 23.5 -3t11.5 -21v-111q0 -17 -10 -30.5t-25 -18.5
q-98 -33 -221 -33q-103 0 -172.5 56t-69.5 163q0 45 19.5 91.5t42.5 84.5t26 54q-9 0 -27.5 -1t-27.5 -1q-112 0 -202.5 34t-147 87.5t-94.5 124.5t-53 140.5t-15 139.5q0 69 15 137.5t53 139.5t94.5 125t147 88t202.5 34q203 0 315.5 -120t112.5 -324q0 -35 -8 -113
q-3 -17 -15.5 -27t-27.5 -10zM604 754q-141 0 -176 -131h293q-12 128 -117 131z" />
    <glyph glyph-name="Ecaron" unicode="&#x11a;" horiz-adv-x="1318" 
d="M1014 555h-482v-250h627q15 0 26 -11t11 -26v-231q0 -15 -11 -26t-26 -11h-917q-15 0 -26 11t-11 26v1360q0 15 11 26t26 11h917q15 0 26 -11t11 -26v-232q0 -15 -11 -26t-26 -11h-627v-268h482q15 0 26 -11t11 -26v-231q0 -15 -11 -26t-26 -11zM971 1851l-283 -219
q-12 -9 -28.5 -9t-28.5 9l-283 219q-12 9 -14.5 24.5t6.5 29.5l74 106q8 12 23.5 15.5t27.5 -5.5l194 -118l195 118q12 9 27 5.5t24 -15.5l74 -106q9 -14 6.5 -29.5t-14.5 -24.5z" />
    <glyph glyph-name="ecaron" unicode="&#x11b;" horiz-adv-x="1124" 
d="M981 444h-561q17 -73 63.5 -120.5t120.5 -47.5q113 0 215 62q12 8 28 5t23 -15l107 -156q9 -14 6.5 -29t-14.5 -24q-90 -70 -175 -100.5t-190 -30.5q-112 0 -202.5 34t-147 87.5t-94.5 124.5t-53 140.5t-15 139.5q0 69 15 137.5t53 139.5t94.5 125t147 88t202.5 34
q203 0 315.5 -120t112.5 -324q0 -35 -8 -113q-3 -17 -15.5 -27t-27.5 -10zM567 752q-108 -16 -139 -129h293q-11 104 -80 125q-25 8 -74 4zM907 1442l-282 -219q-12 -9 -29 -9t-29 9l-282 219q-12 9 -15 24t6 29l74 107q8 12 23.5 15.5t27.5 -5.5l195 -119l195 119
q12 9 27 5.5t24 -15.5l73 -107q9 -14 6.5 -29t-14.5 -24z" />
    <glyph glyph-name="Gcircumflex" unicode="&#x11c;" horiz-adv-x="1503" 
d="M1040 485h-235q-15 0 -26 11t-11 26v228q0 15 11 25.5t26 10.5h528q15 0 26 -10.5t11 -25.5v-510q0 -37 -27 -64q-210 -194 -507 -194q-113 0 -210.5 25t-169.5 67.5t-129.5 101t-95 124t-62.5 139t-35.5 142.5t-10.5 138q0 67 10.5 135t35.5 141t62.5 139t95.5 125
t129.5 102t169 68t210.5 25q294 0 520 -223q10 -11 10 -27t-10 -26l-154 -168q-10 -10 -25.5 -10.5t-25.5 8.5q-66 59 -154 98t-161 39q-68 0 -125 -18t-95.5 -47t-68 -68t-46 -78t-27 -81t-14 -73t-3.5 -57q0 -27 3.5 -58t14 -75t27 -84.5t46 -81.5t68 -71t95.5 -49
t125 -19q53 0 111 16.5t93 42.5v141zM864 2019l283 -219q12 -9 14.5 -25t-6.5 -28l-74 -107q-9 -12 -24 -15.5t-27 3.5l-194 121l-195 -121q-12 -7 -27.5 -3.5t-23.5 15.5l-74 107q-9 12 -6.5 28t14.5 25l283 219q12 9 28.5 9t28.5 -9z" />
    <glyph glyph-name="gcircumflex" unicode="&#x11d;" horiz-adv-x="1212" 
d="M606 1339l-194 -120q-12 -7 -28 -3.5t-24 15.5l-73 106q-9 12 -6.5 28.5t14.5 25.5l283 219q12 9 28.5 9t28.5 -9l283 -219q12 -9 14.5 -25.5t-6.5 -28.5l-74 -106q-9 -12 -24 -15.5t-27 3.5zM590 174q112 0 197 -16t137 -43t84.5 -67.5t44.5 -83.5t12 -97q0 -16 -3 -37
t-14.5 -54t-30 -63.5t-54 -63t-82 -56t-117.5 -39t-158 -15.5q-109 0 -195.5 21t-139 54.5t-87 78.5t-48 88t-13.5 88q2 49 28.5 105t71.5 92q-78 88 -78 190q0 117 99 186q-70 83 -70 199q0 56 13 111t44.5 110t78.5 97t121 68t165 26q109 0 180 -39l139 125q11 10 26 9.5
t26 -11.5l118 -129q10 -11 9.5 -27t-11.5 -27l-125 -131q30 -38 44 -91t14 -95q0 -54 -13 -107.5t-45 -107t-78.5 -94.5t-120 -66.5t-163.5 -25.5q-115 0 -172 22q-12 -1 -19.5 -11.5t-7.5 -21.5q0 -21 21 -37t65 -16q9 0 51 1t56 1zM596 764q-30 0 -51.5 -13.5t-31 -35
t-13.5 -40t-4 -34.5q0 -15 3.5 -32t12.5 -39t31 -36t53 -14q30 0 51 14t29.5 36t12 39t3.5 32t-3.5 32t-12 39.5t-29.5 37t-51 14.5zM596 -193q46 0 80.5 6t51 13t26.5 16.5t12 14t2 6.5q0 27 -54.5 39t-117.5 12q-176 0 -176 -47q0 -5 3.5 -11t15 -14.5t29.5 -15.5
t51.5 -12.5t76.5 -6.5z" />
    <glyph glyph-name="Gbreve" unicode="&#x11e;" horiz-adv-x="1503" 
d="M1040 485h-235q-15 0 -26 11t-11 26v228q0 15 11 25.5t26 10.5h528q15 0 26 -10.5t11 -25.5v-510q0 -37 -27 -64q-210 -194 -507 -194q-113 0 -210.5 25t-169.5 67.5t-129.5 101t-95 124t-62.5 139t-35.5 142.5t-10.5 138q0 67 10.5 135t35.5 141t62.5 139t95.5 125
t129.5 102t169 68t210.5 25q294 0 520 -223q10 -11 10 -27t-10 -26l-154 -168q-10 -10 -25.5 -10.5t-25.5 8.5q-66 59 -154 98t-161 39q-68 0 -125 -18t-95.5 -47t-68 -68t-46 -78t-27 -81t-14 -73t-3.5 -57q0 -27 3.5 -58t14 -75t27 -84.5t46 -81.5t68 -71t95.5 -49
t125 -19q53 0 111 16.5t93 42.5v141zM967 1950l155 -47q14 -5 21.5 -18.5t3.5 -26.5q-39 -122 -125 -183t-193 -61q-109 0 -193 60.5t-122 185.5q-4 13 3.5 26.5t21.5 18.5l151 43q13 4 26 -3.5t19 -21.5q25 -76 94 -76q27 0 52 18.5t41 59.5q5 14 18.5 21.5t26.5 3.5z" />
    <glyph glyph-name="gbreve" unicode="&#x11f;" horiz-adv-x="1212" 
d="M590 174q112 0 197 -16t137 -43t84.5 -67.5t44.5 -83.5t12 -97q0 -16 -3 -37t-14.5 -54t-30 -63.5t-54 -63t-82 -56t-117.5 -39t-158 -15.5q-109 0 -195.5 21t-139 54.5t-87 78.5t-48 88t-13.5 88q2 49 28.5 105t71.5 92q-78 88 -78 190q0 117 99 186q-70 83 -70 199
q0 56 13 111t44.5 110t78.5 97t121 68t165 26q109 0 180 -39l139 125q11 10 26 9.5t26 -11.5l118 -129q10 -11 9.5 -27t-11.5 -27l-125 -131q30 -38 44 -91t14 -95q0 -54 -13 -107.5t-45 -107t-78.5 -94.5t-120 -66.5t-163.5 -25.5q-115 0 -172 22q-12 -1 -19.5 -11.5
t-7.5 -21.5q0 -21 21 -37t65 -16q9 0 51 1t56 1zM596 764q-30 0 -51.5 -13.5t-31 -35t-13.5 -40t-4 -34.5q0 -15 3.5 -32t12.5 -39t31 -36t53 -14q30 0 51 14t29.5 36t12 39t3.5 32t-3.5 32t-12 39.5t-29.5 37t-51 14.5zM596 -193q46 0 80.5 6t51 13t26.5 16.5t12 14t2 6.5
q0 27 -54.5 39t-117.5 12q-176 0 -176 -47q0 -5 3.5 -11t15 -14.5t29.5 -15.5t51.5 -12.5t76.5 -6.5zM604 1204q-109 0 -193 60.5t-122 185.5q-4 13 3 26.5t21 18.5l152 43q13 4 26 -3.5t19 -21.5q25 -75 94 -75q62 0 92 78q5 14 18.5 21t26.5 3l156 -47q14 -5 21.5 -18.5
t3.5 -26.5q-39 -122 -125 -183t-193 -61z" />
    <glyph glyph-name="Gdotaccent" unicode="&#x120;" horiz-adv-x="1503" 
d="M635 1778q0 69 48 117.5t118 48.5q69 0 116.5 -48.5t47.5 -117.5q0 -70 -47.5 -117t-116.5 -47q-71 0 -118.5 47t-47.5 117zM1040 485h-235q-15 0 -26 11t-11 26v228q0 15 11 25.5t26 10.5h528q15 0 26 -10.5t11 -25.5v-510q0 -37 -27 -64q-210 -194 -507 -194
q-113 0 -210.5 25t-169.5 67.5t-129.5 101t-95 124t-62.5 139t-35.5 142.5t-10.5 138q0 67 10.5 135t35.5 141t62.5 139t95.5 125t129.5 102t169 68t210.5 25q294 0 520 -223q10 -11 10 -27t-10 -26l-154 -168q-10 -10 -25.5 -10.5t-25.5 8.5q-66 59 -154 98t-161 39
q-68 0 -125 -18t-95.5 -47t-68 -68t-46 -78t-27 -81t-14 -73t-3.5 -57q0 -27 3.5 -58t14 -75t27 -84.5t46 -81.5t68 -71t95.5 -49t125 -19q53 0 111 16.5t93 42.5v141z" />
    <glyph glyph-name="gdotaccent" unicode="&#x121;" horiz-adv-x="1212" 
d="M440 1368q0 69 48 117.5t118 48.5q69 0 116.5 -48.5t47.5 -117.5q0 -70 -47.5 -117t-116.5 -47q-71 0 -118.5 47t-47.5 117zM590 174q112 0 197 -16t137 -43t84.5 -67.5t44.5 -83.5t12 -97q0 -16 -3 -37t-14.5 -54t-30 -63.5t-54 -63t-82 -56t-117.5 -39t-158 -15.5
q-109 0 -195.5 21t-139 54.5t-87 78.5t-48 88t-13.5 88q2 49 28.5 105t71.5 92q-78 88 -78 190q0 117 99 186q-70 83 -70 199q0 56 13 111t44.5 110t78.5 97t121 68t165 26q109 0 180 -39l139 125q11 10 26 9.5t26 -11.5l118 -129q10 -11 9.5 -27t-11.5 -27l-125 -131
q30 -38 44 -91t14 -95q0 -54 -13 -107.5t-45 -107t-78.5 -94.5t-120 -66.5t-163.5 -25.5q-115 0 -172 22q-12 -1 -19.5 -11.5t-7.5 -21.5q0 -21 21 -37t65 -16q9 0 51 1t56 1zM596 764q-30 0 -51.5 -13.5t-31 -35t-13.5 -40t-4 -34.5q0 -15 3.5 -32t12.5 -39t31 -36t53 -14
q30 0 51 14t29.5 36t12 39t3.5 32t-3.5 32t-12 39.5t-29.5 37t-51 14.5zM596 -193q46 0 80.5 6t51 13t26.5 16.5t12 14t2 6.5q0 27 -54.5 39t-117.5 12q-176 0 -176 -47q0 -5 3.5 -11t15 -14.5t29.5 -15.5t51.5 -12.5t76.5 -6.5z" />
    <glyph glyph-name="Gcommaaccent" unicode="&#x122;" horiz-adv-x="1503" 
d="M1040 485h-235q-15 0 -26 11t-11 26v228q0 15 11 25.5t26 10.5h528q15 0 26 -10.5t11 -25.5v-510q0 -37 -27 -64q-210 -194 -507 -194q-113 0 -210.5 25t-169.5 67.5t-129.5 101t-95 124t-62.5 139t-35.5 142.5t-10.5 138q0 67 10.5 135t35.5 141t62.5 139t95.5 125
t129.5 102t169 68t210.5 25q294 0 520 -223q10 -11 10 -27t-10 -26l-154 -168q-10 -10 -25.5 -10.5t-25.5 8.5q-66 59 -154 98t-161 39q-68 0 -125 -18t-95.5 -47t-68 -68t-46 -78t-27 -81t-14 -73t-3.5 -57q0 -27 3.5 -58t14 -75t27 -84.5t46 -81.5t68 -71t95.5 -49
t125 -19q53 0 111 16.5t93 42.5v141zM793 -711l-64 29q-13 6 -17.5 20t1.5 27q11 27 23.5 62.5t25 72t16.5 47.5q-94 40 -94 150q0 63 45.5 110.5t108.5 47.5q83 0 124.5 -50.5t41.5 -119.5q0 -67 -48.5 -176.5t-107.5 -202.5q-9 -13 -24.5 -18t-30.5 1z" />
    <glyph glyph-name="gcommaaccent" unicode="&#x123;" horiz-adv-x="1212" 
d="M610 1210q-83 0 -124.5 50.5t-41.5 119.5q0 67 48 174.5t108 204.5q9 13 24.5 18t28.5 -1l64 -29q13 -6 18.5 -20t-0.5 -27q-11 -27 -23.5 -62.5t-25 -72t-16.5 -47.5q94 -40 94 -150q0 -63 -45.5 -110.5t-108.5 -47.5zM590 174q112 0 197 -16t137 -43t84.5 -67.5
t44.5 -83.5t12 -97q0 -16 -3 -37t-14.5 -54t-30 -63.5t-54 -63t-82 -56t-117.5 -39t-158 -15.5q-109 0 -195.5 21t-139 54.5t-87 78.5t-48 88t-13.5 88q2 49 28.5 105t71.5 92q-78 88 -78 190q0 117 99 186q-70 83 -70 199q0 56 13 111t44.5 110t78.5 97t121 68t165 26
q109 0 180 -39l139 125q11 10 26 9.5t26 -11.5l118 -129q10 -11 9.5 -27t-11.5 -27l-125 -131q30 -38 44 -91t14 -95q0 -54 -13 -107.5t-45 -107t-78.5 -94.5t-120 -66.5t-163.5 -25.5q-115 0 -172 22q-12 -1 -19.5 -11.5t-7.5 -21.5q0 -21 21 -37t65 -16q9 0 51 1t56 1z
M596 764q-30 0 -51.5 -13.5t-31 -35t-13.5 -40t-4 -34.5q0 -15 3.5 -32t12.5 -39t31 -36t53 -14q30 0 51 14t29.5 36t12 39t3.5 32t-3.5 32t-12 39.5t-29.5 37t-51 14.5zM596 -193q46 0 80.5 6t51 13t26.5 16.5t12 14t2 6.5q0 27 -54.5 39t-117.5 12q-176 0 -176 -47
q0 -5 3.5 -11t15 -14.5t29.5 -15.5t51.5 -12.5t76.5 -6.5z" />
    <glyph glyph-name="Hcircumflex" unicode="&#x124;" horiz-adv-x="1595" 
d="M535 555v-518q0 -15 -11 -26t-26 -11h-256q-15 0 -26 11t-11 26v1360q0 15 11 26t26 11h256q15 0 26 -11t11 -26v-537h530v537q0 15 11 26t26 11h252q15 0 26 -11t11 -26v-1360q0 -15 -11 -26t-26 -11h-252q-15 0 -26 11t-11 26v518h-530zM825 2019l283 -219
q12 -9 14.5 -25t-6.5 -28l-74 -107q-9 -12 -24 -15.5t-27 3.5l-194 121l-195 -121q-12 -7 -27.5 -3.5t-23.5 15.5l-74 107q-9 12 -6.5 28t14.5 25l283 219q12 9 28.5 9t28.5 -9z" />
    <glyph glyph-name="hcircumflex" unicode="&#x125;" horiz-adv-x="1200" 
d="M438 0h-237q-15 0 -26 11t-11 26v1360q0 15 11 26t26 11h237q15 0 26 -11t11 -26v-404q73 47 203 47q103 -5 178.5 -38.5t117 -80.5t65.5 -117.5t31 -132.5t7 -143v-491q0 -15 -11 -26t-26 -11h-235q-15 0 -26 11t-11 26v491q0 48 -5.5 83t-21 71t-50.5 54.5t-87 17.5
q-40 -1 -75.5 -17.5t-53.5 -40.5v-659q0 -15 -11 -26t-26 -11zM340 2028l283 -220q12 -9 14.5 -25t-6.5 -28l-74 -106q-9 -12 -24 -16t-27 3l-195 121l-194 -121q-12 -7 -27.5 -3t-23.5 16l-74 106q-9 12 -6.5 28t14.5 25l283 220q12 9 28.5 9t28.5 -9z" />
    <glyph glyph-name="Hbar" unicode="&#x126;" horiz-adv-x="1556" 
d="M119 1266h65v131q0 15 11 26t26 11h254q15 0 26 -11t11 -26v-131h532v131q0 15 11 26t26 11h254q15 0 26 -11t11 -26v-131h66q15 0 26 -11t11 -26v-148q0 -15 -11 -26t-26 -11h-66v-1007q0 -15 -11 -26t-26 -11h-254q-15 0 -26 11t-11 26v518h-532v-518q0 -15 -11 -26
t-26 -11h-254q-15 0 -26 11t-11 26v1007h-65q-15 0 -26 11t-11 26v148q0 15 11 26t26 11zM512 860h532v184h-532v-184z" />
    <glyph glyph-name="hbar" unicode="&#x127;" horiz-adv-x="1200" 
d="M88 1337h76v60q0 15 11 26t26 11h237q15 0 26 -11t11 -26v-60h156q15 0 26 -11t11 -26v-110q0 -15 -11 -26t-26 -11h-156v-160q73 47 203 47q103 -5 178.5 -38.5t117 -80.5t65.5 -117.5t31 -132.5t7 -143v-491q0 -15 -11 -26t-26 -11h-235q-15 0 -26 11t-11 26v491
q0 48 -5.5 83t-21 71t-50.5 54.5t-87 17.5q-40 -1 -75.5 -17.5t-53.5 -40.5v-659q0 -15 -11 -26t-26 -11h-237q-15 0 -26 11t-11 26v1116h-76q-15 0 -26 11t-11 26v110q0 15 11 26t26 11z" />
    <glyph glyph-name="Itilde" unicode="&#x128;" horiz-adv-x="759" 
d="M543 1397v-1360q0 -15 -11 -26t-26 -11h-254q-15 0 -26 11t-11 26v1360q0 15 11 26t26 11h254q15 0 26 -11t11 -26zM135 1632l-104 64q-13 9 -17.5 24t2.5 29q50 90 115.5 131t130.5 41q42 0 113.5 -34t113.5 -34q47 0 84 43q9 12 24.5 16t27.5 -5l104 -64
q12 -8 16.5 -22.5t-2.5 -28.5q-50 -91 -116.5 -132.5t-132.5 -41.5q-42 0 -110 35t-108 35q-51 0 -90 -43q-9 -12 -24 -16t-27 3z" />
    <glyph glyph-name="itilde" unicode="&#x129;" horiz-adv-x="759" 
d="M522 987v-950q0 -15 -11 -26t-26 -11h-237q-15 0 -26 11t-11 26v950q0 15 11 26t26 11h237q15 0 26 -11t11 -26zM135 1223l-104 63q-13 9 -17.5 24t2.5 29q50 90 115.5 131t130.5 41q42 0 113.5 -33.5t113.5 -33.5q47 0 84 43q9 12 24.5 15.5t27.5 -5.5l104 -63
q12 -8 16.5 -23t-2.5 -29q-50 -91 -116.5 -132.5t-132.5 -41.5q-42 0 -110 35t-108 35q-51 0 -90 -43q-9 -12 -24 -15.5t-27 3.5z" />
    <glyph glyph-name="Imacron" unicode="&#x12a;" horiz-adv-x="616" 
d="M471 1397v-1360q0 -15 -11 -26t-26 -11h-254q-15 0 -26 11t-11 26v1360q0 15 11 26t26 11h254q15 0 26 -11t11 -26zM37 1853h543q15 0 25.5 -10.5t10.5 -25.5v-148q0 -15 -10.5 -26t-25.5 -11h-543q-15 0 -26 11t-11 26v148q0 15 11 25.5t26 10.5z" />
    <glyph glyph-name="imacron" unicode="&#x12b;" horiz-adv-x="616" 
d="M451 987v-950q0 -15 -11 -26t-26 -11h-238q-15 0 -26 11t-11 26v950q0 15 11 26t26 11h238q15 0 26 -11t11 -26zM37 1444h543q15 0 25.5 -11t10.5 -26v-147q0 -15 -10.5 -26t-25.5 -11h-543q-15 0 -26 11t-11 26v147q0 15 11 26t26 11z" />
    <glyph glyph-name="Ibreve" unicode="&#x12c;" horiz-adv-x="653" 
d="M489 1397v-1360q0 -15 -10.5 -26t-25.5 -11h-254q-15 0 -26 11t-11 26v1360q0 15 11 26t26 11h254q15 0 25.5 -11t10.5 -26zM463 1950l155 -47q14 -5 21.5 -18.5t3.5 -26.5q-39 -122 -124.5 -183t-192.5 -61q-109 0 -193.5 60.5t-122.5 185.5q-4 13 3.5 26.5t21.5 18.5
l151 43q13 4 26 -3.5t19 -21.5q25 -76 95 -76q62 0 92 78q5 14 18.5 21.5t26.5 3.5z" />
    <glyph glyph-name="ibreve" unicode="&#x12d;" horiz-adv-x="653" 
d="M469 987v-950q0 -15 -11 -26t-26 -11h-237q-15 0 -26 11t-11 26v950q0 15 11 26t26 11h237q15 0 26 -11t11 -26zM463 1540l155 -47q14 -5 21.5 -18.5t3.5 -26.5q-39 -122 -124.5 -183t-192.5 -61q-109 0 -193.5 60.5t-122.5 185.5q-4 13 3.5 26.5t21.5 18.5l151 43
q13 4 26 -3.5t19 -21.5q25 -75 95 -75q62 0 92 78q5 14 18.5 21t26.5 3z" />
    <glyph glyph-name="Iogonek" unicode="&#x12e;" horiz-adv-x="714" 
d="M532 1397v-1403q0 -21 -31.5 -81t-31.5 -103q0 -35 26.5 -53.5t71.5 -18.5q51 0 133 20q12 5 23.5 -3t11.5 -21v-111q0 -17 -10 -30.5t-25 -18.5q-98 -33 -221 -33q-102 0 -171.5 56t-69.5 163q0 47 22.5 97t45 87.5t22.5 55.5h-86q-15 0 -26 11t-11 26v1360q0 15 11 26
t26 11h254q15 0 25.5 -11t10.5 -26z" />
    <glyph glyph-name="iogonek" unicode="&#x12f;" horiz-adv-x="665" 
d="M483 987v-993q0 -21 -31.5 -81t-31.5 -103q0 -35 26.5 -53.5t71.5 -18.5q51 0 133 20q12 5 23.5 -3t11.5 -21v-111q0 -17 -10 -30.5t-25 -18.5q-98 -33 -221 -33q-103 0 -172.5 56t-69.5 163q0 37 14 76.5t31.5 67t31.5 54.5t14 42h-70q-15 0 -26 11t-11 26v950
q0 15 11 26t26 11h237q15 0 26 -11t11 -26zM164 1374q0 69 48 117.5t118 48.5q69 0 116.5 -48.5t47.5 -117.5q0 -70 -47.5 -117t-116.5 -47q-71 0 -118.5 47t-47.5 117z" />
    <glyph glyph-name="Idotaccent" unicode="&#x130;" horiz-adv-x="739" 
d="M532 1397v-1360q0 -15 -10.5 -26t-25.5 -11h-254q-15 0 -26 11t-11 26v1360q0 15 11 26t26 11h254q15 0 25.5 -11t10.5 -26zM205 1778q0 69 48 117.5t118 48.5q69 0 116.5 -48.5t47.5 -117.5q0 -70 -47.5 -117t-116.5 -47q-71 0 -118.5 47t-47.5 117z" />
    <glyph glyph-name="dotlessi" unicode="&#x131;" horiz-adv-x="638" 
d="M475 987v-950q0 -15 -11 -26t-26 -11h-237q-15 0 -26 11t-11 26v950q0 15 11 26t26 11h237q15 0 26 -11t11 -26z" />
    <glyph glyph-name="IJ" unicode="&#x132;" horiz-adv-x="1931" 
d="M532 1397v-1360q0 -15 -10.5 -26t-25.5 -11h-254q-15 0 -26 11t-11 26v1360q0 15 11 26t26 11h254q15 0 25.5 -11t10.5 -26zM715 459l221 82q13 4 27 -2.5t20 -20.5q78 -217 225 -217q47 0 84 14t58.5 39.5t35.5 51.5t20 60t7.5 54.5t1.5 44.5v832q0 15 11 26t26 11h258
q15 0 26 -11t11 -26v-832q0 -78 -13.5 -152t-50.5 -153.5t-94.5 -137.5t-154 -96t-220.5 -38q-113 0 -204 33t-153.5 92.5t-103.5 133.5t-65 165q-3 14 4.5 28.5t22.5 18.5z" />
    <glyph glyph-name="ij" unicode="&#x133;" horiz-adv-x="1294" 
d="M479 987v-950q0 -15 -11 -26t-26 -11h-237q-15 0 -26 11t-11 26v950q0 15 11 26t26 11h237q15 0 26 -11t11 -26zM164 1411q12 56 56.5 92.5t105.5 36.5q69 0 116 -48.5t47 -117.5q0 -70 -47 -117t-116 -47q-61 0 -105.5 35t-56.5 92q-9 37 0 74zM569 -72q81 -47 142 -47
q86 0 86 123v983q0 15 11 26t26 11h243q15 0 26 -11t11 -26v-989q0 -25 -2 -50t-10.5 -66t-23 -76.5t-42.5 -74t-66 -66t-96.5 -45t-130.5 -17.5q-83 0 -167 33.5t-142 78.5q-12 9 -13.5 26t7.5 30l90 145q9 12 24 15.5t27 -3.5zM791 1370q0 69 47.5 117.5t117.5 48.5
q69 0 116.5 -48.5t47.5 -117.5q0 -70 -47.5 -117t-116.5 -47q-71 0 -118 47t-47 117z" />
    <glyph glyph-name="Jcircumflex" unicode="&#x134;" horiz-adv-x="1310" 
d="M76 459l221 82q13 4 27 -2.5t20 -20.5q78 -217 225 -217q47 0 84 14t58.5 39.5t35.5 51.5t20 60t7.5 54.5t1.5 44.5v832q0 15 11 26t26 11h258q15 0 26 -11t11 -26v-832q0 -78 -13.5 -152t-50.5 -153.5t-94.5 -137.5t-154 -96t-220.5 -38q-113 0 -204 33t-153.5 92.5
t-103.5 133.5t-65 165q-3 14 4.5 28.5t22.5 18.5zM979 2019l283 -219q12 -9 14.5 -25t-6.5 -28l-74 -107q-9 -12 -24 -15.5t-27 3.5l-195 121l-194 -121q-12 -7 -27.5 -3.5t-23.5 15.5l-74 107q-9 12 -6.5 28t14.5 25l283 219q12 9 28.5 9t28.5 -9z" />
    <glyph glyph-name="jcircumflex" unicode="&#x135;" horiz-adv-x="671" 
d="M-104 -72q81 -47 141 -47q86 0 86 123v983q0 15 11 26t26 11h243q15 0 26 -11t11 -26v-989q0 -21 -1.5 -42.5t-6.5 -56t-16.5 -65.5t-29 -66t-46 -63.5t-65 -52t-89.5 -36.5t-116 -13q-83 0 -167.5 33.5t-142.5 78.5q-12 9 -13.5 26t7.5 30l90 145q9 12 24.5 15.5
t27.5 -3.5zM340 1610l283 -219q12 -9 14.5 -25.5t-6.5 -28.5l-74 -106q-9 -12 -24 -15.5t-27 3.5l-195 120l-194 -120q-12 -7 -27.5 -3.5t-23.5 15.5l-74 106q-9 12 -6.5 28.5t14.5 25.5l283 219q12 9 28.5 9t28.5 -9z" />
    <glyph glyph-name="Kcommaaccent" unicode="&#x136;" horiz-adv-x="1525" 
d="M498 0h-256q-15 0 -26 11t-11 26v1360q0 15 11 26t26 11h256q15 0 26 -11t11 -26v-508l450 516q26 29 62 29h335q11 0 15.5 -10t-2.5 -17l-602 -668l647 -712q6 -7 1.5 -17t-14.5 -10h-335q-35 0 -62 27l-495 563v-553q0 -15 -11 -26t-26 -11zM711 -711l-64 29
q-13 6 -17.5 20t1.5 27q11 27 23.5 62.5t25 72t16.5 47.5q-94 40 -94 150q0 63 45.5 110.5t108.5 47.5q83 0 124.5 -50.5t41.5 -119.5q0 -67 -48.5 -176.5t-107.5 -202.5q-9 -13 -24.5 -18t-30.5 1z" />
    <glyph glyph-name="kcommaaccent" unicode="&#x137;" horiz-adv-x="1298" 
d="M842 27l-367 409v-399q0 -15 -11 -26t-26 -11h-237q-15 0 -26 11t-11 26v1360q0 15 11 26t26 11h237q15 0 26 -11t11 -26v-785l340 383q26 29 62 29h301q10 0 14 -10t-2 -17l-424 -465l459 -505q7 -7 2.5 -17t-15.5 -10h-309q-34 0 -61 27zM598 -711l-63 29q-13 6 -18 20
t1 27q5 13 66 182q-95 41 -95 150q0 63 45.5 110.5t108.5 47.5q83 0 124.5 -50.5t41.5 -119.5q0 -67 -48.5 -176.5t-107.5 -202.5q-9 -13 -24.5 -18t-30.5 1z" />
    <glyph glyph-name="kgreenlandic" unicode="&#x138;" horiz-adv-x="1298" 
d="M842 27l-367 409v-399q0 -15 -11 -26t-26 -11h-237q-15 0 -26 11t-11 26v952q0 15 11 26t26 11h237q15 0 26 -11t11 -26v-377l340 383q26 29 62 29h301q10 0 14 -10t-2 -17l-424 -465l459 -505q7 -7 2.5 -17t-15.5 -10h-309q-34 0 -61 27z" />
    <glyph glyph-name="Lacute" unicode="&#x139;" horiz-adv-x="1175" 
d="M535 1397v-1092h481q15 0 26 -11t11 -26v-231q0 -15 -11 -26t-26 -11h-774q-15 0 -26 11t-11 26v1360q0 15 11 26t26 11h256q15 0 26 -11t11 -26zM233 1806l283 219q10 9 26 6.5t23 -14.5l103 -141q7 -12 4 -27t-15 -24l-307 -191q-12 -7 -27.5 -3t-23.5 16l-74 106
q-9 12 -6.5 28t14.5 25z" />
    <glyph glyph-name="lacute" unicode="&#x13a;" horiz-adv-x="565" 
d="M426 1399v-1362q0 -15 -11 -26t-26 -11h-242q-15 0 -25.5 11t-10.5 26v1362q0 15 10.5 26t25.5 11h242q15 0 26 -11t11 -26zM80 1798l282 219q10 9 26.5 6.5t23.5 -14.5l102 -141q8 -12 5 -27t-15 -24l-307 -191q-12 -7 -28.5 -3.5t-23.5 15.5l-73 107q-9 12 -6.5 28
t14.5 25z" />
    <glyph glyph-name="Lcommaaccent" unicode="&#x13b;" horiz-adv-x="1175" 
d="M535 1397v-1092h481q15 0 26 -11t11 -26v-231q0 -15 -11 -26t-26 -11h-774q-15 0 -26 11t-11 26v1360q0 15 11 26t26 11h256q15 0 26 -11t11 -26zM537 -711l-64 29q-13 6 -17.5 20t1.5 27q11 27 23.5 62.5t25 72t16.5 47.5q-94 40 -94 150q0 63 45.5 110.5t108.5 47.5
q83 0 124.5 -50.5t41.5 -119.5q0 -67 -48.5 -176.5t-107.5 -202.5q-9 -13 -24.5 -18t-30.5 1z" />
    <glyph glyph-name="lcommaaccent" unicode="&#x13c;" horiz-adv-x="647" 
d="M481 1397v-1360q0 -15 -11 -26t-26 -11h-241q-15 0 -26 11t-11 26v1360q0 15 11 26t26 11h241q15 0 26 -11t11 -26zM281 -711l-64 29q-13 6 -17.5 20t1.5 27q11 27 23.5 62.5t25 72t16.5 47.5q-94 40 -94 150q0 63 45.5 110.5t108.5 47.5q83 0 124.5 -50.5t41.5 -119.5
q0 -67 -48.5 -176.5t-107.5 -202.5q-9 -13 -24.5 -18t-30.5 1z" />
    <glyph glyph-name="Lcaron" unicode="&#x13d;" horiz-adv-x="1175" 
d="M535 1397v-1092h481q15 0 26 -11t11 -26v-231q0 -15 -11 -26t-26 -11h-774q-15 0 -26 11t-11 26v1360q0 15 11 26t26 11h256q15 0 26 -11t11 -26zM825 791l-71 40q-14 8 -18 23t3 29q88 164 99 237q-52 11 -86.5 57t-34.5 107q0 73 53.5 125.5t124.5 52.5q67 0 111 -30
t60.5 -71.5t16.5 -92.5q0 -88 -64.5 -230t-137.5 -237q-9 -12 -26 -15t-30 5z" />
    <glyph glyph-name="lcaron" unicode="&#x13e;" horiz-adv-x="974" 
d="M479 1397v-1360q0 -15 -11 -26t-26 -11h-241q-15 0 -26 11t-11 26v1360q0 15 11 26t26 11h241q15 0 26 -11t11 -26zM717 776l-72 41q-13 7 -17.5 22.5t3.5 28.5q87 161 98 238q-52 11 -86.5 57t-34.5 107q0 73 53.5 125.5t124.5 52.5q67 0 111 -30t61 -72t17 -93
q0 -88 -65 -230t-138 -237q-9 -12 -25.5 -15t-29.5 5z" />
    <glyph glyph-name="Ldot" unicode="&#x13f;" horiz-adv-x="1175" 
d="M535 1397v-1092h481q15 0 26 -11t11 -26v-231q0 -15 -11 -26t-26 -11h-774q-15 0 -26 11t-11 26v1360q0 15 11 26t26 11h256q15 0 26 -11t11 -26zM653 776q0 -71 47.5 -120.5t118.5 -49.5t120.5 50t49.5 120q0 71 -49.5 118.5t-120.5 47.5q-72 0 -119 -47t-47 -119z" />
    <glyph glyph-name="ldot" unicode="&#x140;" horiz-adv-x="1009" 
d="M653 776q0 -71 47.5 -120.5t118.5 -49.5t120.5 50t49.5 120q0 71 -49.5 118.5t-120.5 47.5q-72 0 -119 -47t-47 -119zM479 1397v-1360q0 -15 -11 -26t-26 -11h-241q-15 0 -26 11t-11 26v1360q0 15 11 26t26 11h241q15 0 26 -11t11 -26z" />
    <glyph glyph-name="Lslash" unicode="&#x141;" horiz-adv-x="1212" 
d="M137 432l-98 162q-8 12 -3.5 27t17.5 22l213 123v631q0 15 11 26t26 11h254q15 0 26 -11t11 -26v-439l197 115q13 8 28.5 3.5t22.5 -17.5l96 -162q8 -12 3.5 -27t-17.5 -22l-330 -193v-350h459q15 0 26 -11t11 -26v-231q0 -15 -11 -26t-26 -11h-750q-15 0 -26 11t-11 26
v430l-80 -47q-12 -7 -26.5 -3.5t-22.5 15.5z" />
    <glyph glyph-name="lslash" unicode="&#x142;" horiz-adv-x="829" 
d="M133 422l-94 153q-7 12 -3.5 27t15.5 23l191 116v656q0 15 11 26t26 11h241q15 0 26 -11t11 -26v-473l90 53q13 8 28.5 3.5t22.5 -17.5l93 -154q8 -12 3 -27t-18 -22l-219 -129v-592q0 -15 -11 -26t-26 -11h-241q-15 0 -26 11t-11 26v410l-60 -37q-12 -9 -26.5 -5.5
t-22.5 15.5z" />
    <glyph glyph-name="Nacute" unicode="&#x143;" horiz-adv-x="1597" 
d="M498 0h-256q-15 0 -26 11t-11 26v1386q0 12 8 21.5t20 9.5q31 0 54 -20l778 -727v690q0 15 11 26t26 11h254q15 0 26 -11t11 -26v-1381q0 -10 -8 -18t-19 -8q-27 0 -45 18l-786 744v-715q0 -15 -11 -26t-26 -11zM586 1802l282 219q10 9 26.5 6.5t23.5 -14.5l102 -141
q8 -12 5 -27t-15 -24l-308 -191q-12 -7 -27.5 -3.5t-23.5 15.5l-73 107q-9 12 -6.5 28t14.5 25z" />
    <glyph glyph-name="nacute" unicode="&#x144;" 
d="M475 688v-651q0 -15 -11 -26t-26 -11h-237q-15 0 -26 11t-11 26v950q0 15 11 26t26 11h129q35 0 55 -33l16 -30q46 37 110.5 58t125.5 21q82 0 148 -16t111.5 -43t79.5 -67.5t53 -83t31 -96.5t15.5 -101.5t3.5 -104.5v-491q0 -15 -11 -26t-26 -11h-241q-15 0 -26 11
t-11 26v491q0 37 -1.5 61t-9 59t-21 56t-40.5 36.5t-65 15.5q-50 0 -90 -19t-62 -49zM387 1393l283 219q10 9 26 6.5t23 -14.5l102 -142q8 -12 5 -27t-15 -24l-307 -190q-12 -7 -27.5 -3.5t-23.5 15.5l-74 106q-9 12 -6.5 28.5t14.5 25.5z" />
    <glyph glyph-name="Ncommaaccent" unicode="&#x145;" horiz-adv-x="1597" 
d="M498 0h-256q-15 0 -26 11t-11 26v1386q0 12 8 21.5t20 9.5q31 0 54 -20l778 -727v690q0 15 11 26t26 11h254q15 0 26 -11t11 -26v-1381q0 -10 -8 -18t-19 -8q-27 0 -45 18l-786 744v-715q0 -15 -11 -26t-26 -11zM748 -711l-64 29q-13 6 -17.5 20t1.5 27q11 27 23.5 62.5
t25 72t16.5 47.5q-94 40 -94 150q0 63 45.5 110.5t108.5 47.5q83 0 124 -50.5t41 -119.5q0 -67 -48 -177t-107 -202q-9 -13 -24.5 -18t-30.5 1z" />
    <glyph glyph-name="ncommaaccent" unicode="&#x146;" 
d="M475 688v-651q0 -15 -11 -26t-26 -11h-237q-15 0 -26 11t-11 26v950q0 15 11 26t26 11h129q35 0 55 -33l16 -30q46 37 110.5 58t125.5 21q82 0 148 -16t111.5 -43t79.5 -67.5t53 -83t31 -96.5t15.5 -101.5t3.5 -104.5v-491q0 -15 -11 -26t-26 -11h-241q-15 0 -26 11
t-11 26v491q0 37 -1.5 61t-9 59t-21 56t-40.5 36.5t-65 15.5q-50 0 -90 -19t-62 -49zM549 -711l-64 29q-13 6 -17.5 20t1.5 27q5 13 66 182q-95 41 -95 150q0 63 45.5 110.5t108.5 47.5q83 0 124.5 -50.5t41.5 -119.5q0 -67 -48.5 -176.5t-107.5 -202.5q-9 -13 -24.5 -18
t-30.5 1z" />
    <glyph glyph-name="Ncaron" unicode="&#x147;" horiz-adv-x="1597" 
d="M498 0h-256q-15 0 -26 11t-11 26v1386q0 12 8 21.5t20 9.5q31 0 54 -20l778 -727v690q0 15 11 26t26 11h254q15 0 26 -11t11 -26v-1381q0 -10 -8 -18t-19 -8q-27 0 -45 18l-786 744v-715q0 -15 -11 -26t-26 -11zM1110 1851l-283 -219q-12 -9 -28.5 -9t-28.5 9l-283 219
q-12 9 -14.5 24.5t6.5 29.5l74 106q8 12 23.5 15.5t27.5 -5.5l195 -118l194 118q12 9 27 5.5t24 -15.5l74 -106q9 -14 6.5 -29.5t-14.5 -24.5z" />
    <glyph glyph-name="ncaron" unicode="&#x148;" 
d="M475 688v-651q0 -15 -11 -26t-26 -11h-237q-15 0 -26 11t-11 26v950q0 15 11 26t26 11h129q35 0 55 -33l16 -30q46 37 110.5 58t125.5 21q82 0 148 -16t111.5 -43t79.5 -67.5t53 -83t31 -96.5t15.5 -101.5t3.5 -104.5v-491q0 -15 -11 -26t-26 -11h-241q-15 0 -26 11
t-11 26v491q0 37 -1.5 61t-9 59t-21 56t-40.5 36.5t-65 15.5q-50 0 -90 -19t-62 -49zM911 1442l-282 -219q-12 -9 -29 -9t-29 9l-282 219q-12 9 -14.5 24t6.5 29l73 107q8 12 24 15.5t28 -5.5l194 -119l195 119q12 9 27 5.5t24 -15.5l74 -107q9 -14 6 -29t-15 -24z" />
    <glyph glyph-name="napostrophe" unicode="&#x149;" horiz-adv-x="1492" 
d="M766 688v-651q0 -15 -11 -26t-26 -11h-237q-15 0 -26 11t-11 26v950q0 15 11 26t26 11h129q35 0 55 -33l16 -30q46 37 110.5 58t125.5 21q82 0 148 -16t111.5 -43t79.5 -67.5t53 -83t31 -96.5t15.5 -101.5t3.5 -104.5v-491q0 -15 -11 -26t-26 -11h-241q-15 0 -26 11
t-11 26v491q0 37 -1.5 61t-9 59t-21 56t-40.5 36.5t-65 15.5q-50 0 -90 -19t-62 -49zM129 950l-63 29q-13 6 -18 20t1 27q5 13 66 182q-95 41 -95 150q0 63 45.5 110.5t108.5 47.5q83 0 124.5 -50.5t41.5 -119.5q0 -67 -48.5 -176.5t-107.5 -202.5q-9 -13 -24.5 -18t-30.5 1
z" />
    <glyph glyph-name="Eng" unicode="&#x14a;" horiz-adv-x="1597" 
d="M848 -137q74 -43 127 -43q92 0 92 119v319l-532 494v-715q0 -15 -11 -26t-26 -11h-256q-15 0 -26 11t-11 26v1384q0 13 9.5 23t23.5 10q32 0 57 -22l770 -723v688q0 15 11 26t26 11h254q15 0 26 -11t11 -26v-1452q0 -25 -2 -50t-10.5 -66.5t-23 -77t-42.5 -74t-66 -66
t-96.5 -45t-130.5 -17.5q-82 0 -166.5 34t-142.5 79q-12 9 -13.5 25.5t7.5 29.5l90 133q8 12 23.5 16t27.5 -3z" />
    <glyph glyph-name="eng" unicode="&#x14b;" 
d="M535 -160q81 -47 141 -47q86 0 86 123l2 612q0 37 -1.5 61t-9 59t-21 56t-40.5 36.5t-65 15.5q-50 0 -90 -19t-62 -49v-651q0 -15 -11 -26t-26 -11h-237q-15 0 -26 11t-11 26v950q0 15 11 26t26 11h129q35 0 55 -33l16 -30q46 37 110.5 58t125.5 21q82 0 148 -16
t111.5 -43t79.5 -67.5t53 -83t31 -96.5t15.5 -101.5t3.5 -104.5v-602q0 -21 -1.5 -42.5t-6.5 -56t-16.5 -65.5t-29 -66t-46 -63.5t-65 -52t-89.5 -36.5t-116 -13q-82 0 -167 34t-143 79q-12 9 -13.5 25.5t7.5 29.5l90 129q7 12 23.5 16t28.5 -4z" />
    <glyph glyph-name="Omacron" unicode="&#x14c;" horiz-adv-x="1669" 
d="M836 1458q156 0 281.5 -48.5t203.5 -125t130.5 -176.5t73.5 -196.5t21 -192.5q0 -69 -10.5 -138t-35.5 -143t-62 -140t-94.5 -125.5t-129 -102.5t-168.5 -68t-210 -25t-210.5 25t-169.5 68t-129.5 102.5t-95 125.5t-62.5 140t-35.5 143t-10.5 138q0 67 10.5 135.5
t35.5 142t62.5 139.5t95.5 125.5t129.5 102.5t169 68.5t210.5 25.5zM836 285q68 0 124.5 18.5t94.5 48.5t67.5 70.5t46 80.5t26.5 83.5t13.5 74.5t3.5 58q0 40 -7 86t-31 110t-62.5 113.5t-110 85t-165.5 35.5t-166.5 -35.5t-111 -85t-63 -113t-31.5 -110t-7 -86.5
q0 -32 5.5 -69.5t18.5 -89.5t41 -98.5t67.5 -87t103.5 -65t143 -24.5zM563 1853h543q15 0 26 -10.5t11 -25.5v-148q0 -15 -11 -26t-26 -11h-543q-15 0 -26 11t-11 26v148q0 15 11 25.5t26 10.5z" />
    <glyph glyph-name="omacron" unicode="&#x14d;" horiz-adv-x="1265" 
d="M633 1044q113 0 203.5 -35t146.5 -90t93 -127.5t52 -141.5t15 -138q0 -71 -15 -140.5t-52 -141t-93 -125.5t-146.5 -88.5t-203.5 -34.5t-203.5 34.5t-146.5 88.5t-93 125.5t-52 141t-15 140.5q0 69 15 138t52 141.5t93 127.5t146.5 90t203.5 35zM633 266q49 0 87 20
t58 48.5t33 65t16.5 63t3.5 49.5q0 30 -7 65.5t-26 80t-61.5 73.5t-103.5 29t-104.5 -29t-62.5 -73.5t-26.5 -80t-7.5 -65.5q0 -23 3.5 -49.5t16.5 -63t34 -65t59 -48.5t88 -20zM360 1444h543q15 0 26 -11t11 -26v-147q0 -15 -11 -26t-26 -11h-543q-15 0 -25.5 11t-10.5 26
v147q0 15 10.5 26t25.5 11z" />
    <glyph glyph-name="Obreve" unicode="&#x14e;" horiz-adv-x="1669" 
d="M836 1458q156 0 281.5 -48.5t203.5 -125t130.5 -176.5t73.5 -196.5t21 -192.5q0 -69 -10.5 -138t-35.5 -143t-62 -140t-94.5 -125.5t-129 -102.5t-168.5 -68t-210 -25t-210.5 25t-169.5 68t-129.5 102.5t-95 125.5t-62.5 140t-35.5 143t-10.5 138q0 67 10.5 135.5
t35.5 142t62.5 139.5t95.5 125.5t129.5 102.5t169 68.5t210.5 25.5zM836 285q68 0 124.5 18.5t94.5 48.5t67.5 70.5t46 80.5t26.5 83.5t13.5 74.5t3.5 58q0 40 -7 86t-31 110t-62.5 113.5t-110 85t-165.5 35.5t-166.5 -35.5t-111 -85t-63 -113t-31.5 -110t-7 -86.5
q0 -32 5.5 -69.5t18.5 -89.5t41 -98.5t67.5 -87t103.5 -65t143 -24.5zM971 1950l155 -47q14 -5 21.5 -18.5t3.5 -26.5q-39 -122 -124.5 -183t-192.5 -61q-109 0 -193.5 60.5t-122.5 185.5q-4 13 3.5 26.5t21.5 18.5l151 43q13 4 26 -3.5t19 -21.5q25 -76 95 -76q62 0 92 78
q5 14 18.5 21.5t26.5 3.5z" />
    <glyph glyph-name="obreve" unicode="&#x14f;" horiz-adv-x="1265" 
d="M633 1044q113 0 203.5 -35t146.5 -90t93 -127.5t52 -141.5t15 -138q0 -71 -15 -140.5t-52 -141t-93 -125.5t-146.5 -88.5t-203.5 -34.5t-203.5 34.5t-146.5 88.5t-93 125.5t-52 141t-15 140.5q0 69 15 138t52 141.5t93 127.5t146.5 90t203.5 35zM633 266q49 0 87 20
t58 48.5t33 65t16.5 63t3.5 49.5q0 30 -7 65.5t-26 80t-61.5 73.5t-103.5 29t-104.5 -29t-62.5 -73.5t-26.5 -80t-7.5 -65.5q0 -23 3.5 -49.5t16.5 -63t34 -65t59 -48.5t88 -20zM768 1540l156 -47q14 -5 21 -18.5t3 -26.5q-39 -122 -124.5 -183t-192.5 -61
q-109 0 -193.5 60.5t-122.5 185.5q-4 13 3.5 26.5t21.5 18.5l152 43q13 4 26 -3.5t19 -21.5q25 -75 94 -75q62 0 92 78q5 14 18.5 21t26.5 3z" />
    <glyph glyph-name="Ohungarumlaut" unicode="&#x150;" horiz-adv-x="1669" 
d="M836 1458q156 0 281.5 -48.5t203.5 -125t130.5 -176.5t73.5 -196.5t21 -192.5q0 -69 -10.5 -138t-35.5 -143t-62 -140t-94.5 -125.5t-129 -102.5t-168.5 -68t-210 -25t-210.5 25t-169.5 68t-129.5 102.5t-95 125.5t-62.5 140t-35.5 143t-10.5 138q0 67 10.5 135.5
t35.5 142t62.5 139.5t95.5 125.5t129.5 102.5t169 68.5t210.5 25.5zM836 285q68 0 124.5 18.5t94.5 48.5t67.5 70.5t46 80.5t26.5 83.5t13.5 74.5t3.5 58q0 40 -7 86t-31 110t-62.5 113.5t-110 85t-165.5 35.5t-166.5 -35.5t-111 -85t-63 -113t-31.5 -110t-7 -86.5
q0 -32 5.5 -69.5t18.5 -89.5t41 -98.5t67.5 -87t103.5 -65t143 -24.5zM1266 1933l-111 -270q-14 -35 -51 -35h-146q-13 0 -21 11.5t-5 23.5l84 270q5 15 17.5 25t29.5 10h180q13 0 20.5 -11.5t2.5 -23.5zM860 1933l-112 -270q-6 -15 -20.5 -25t-31.5 -10h-143
q-13 0 -21.5 11.5t-5.5 23.5l84 270q5 15 17.5 25t29.5 10h181q13 0 20 -11.5t2 -23.5z" />
    <glyph glyph-name="ohungarumlaut" unicode="&#x151;" horiz-adv-x="1265" 
d="M633 1044q113 0 203.5 -35t146.5 -90t93 -127.5t52 -141.5t15 -138q0 -71 -15 -140.5t-52 -141t-93 -125.5t-146.5 -88.5t-203.5 -34.5t-203.5 34.5t-146.5 88.5t-93 125.5t-52 141t-15 140.5q0 69 15 138t52 141.5t93 127.5t146.5 90t203.5 35zM633 266q49 0 87 20
t58 48.5t33 65t16.5 63t3.5 49.5q0 30 -7 65.5t-26 80t-61.5 73.5t-103.5 29t-104.5 -29t-62.5 -73.5t-26.5 -80t-7.5 -65.5q0 -23 3.5 -49.5t16.5 -63t34 -65t59 -48.5t88 -20zM1065 1524l-111 -271q-14 -34 -51 -34h-145q-13 0 -21.5 11t-5.5 23l84 271q11 35 47 35h180
q13 0 20.5 -11.5t2.5 -23.5zM659 1524l-112 -271q-14 -34 -51 -34h-144q-13 0 -21 11t-5 23l84 271q5 15 17.5 25t29.5 10h180q13 0 20 -11.5t2 -23.5z" />
    <glyph glyph-name="OE" unicode="&#x152;" horiz-adv-x="2129" 
d="M1825 555h-482v-250h627q15 0 26 -11t11 -26v-231q0 -15 -11 -26t-26 -11h-932q-100 -23 -202 -23q-113 0 -210.5 25t-169.5 68t-129.5 102.5t-95 125.5t-62.5 140t-35.5 143t-10.5 138q0 67 10.5 135.5t35.5 142t62.5 139.5t95.5 125.5t129.5 102.5t169 68.5t210.5 25.5
q99 0 204 -24h930q15 0 26 -11t11 -26v-232q0 -15 -11 -26t-26 -11h-627v-268h482q15 0 26 -11t11 -26v-231q0 -15 -11 -26t-26 -11zM836 285q100 0 180 41v780q-78 43 -180 43q-94 0 -166.5 -35.5t-111 -85t-63 -113t-31.5 -110t-7 -86.5q0 -32 5.5 -69.5t18.5 -89.5
t41 -98.5t67.5 -87t103.5 -65t143 -24.5z" />
    <glyph glyph-name="oe" unicode="&#x153;" horiz-adv-x="1865" 
d="M1774 594q0 -25 -9 -113q-3 -17 -15.5 -27t-27.5 -10h-561q16 -73 63 -120.5t122 -47.5q113 0 215 62q12 8 28 5t23 -15l106 -156q9 -14 6.5 -29t-14.5 -24q-91 -70 -175.5 -100.5t-188.5 -30.5q-221 0 -355 127q-133 -133 -358 -133q-113 0 -203.5 34.5t-146.5 88.5
t-93 125.5t-52 141t-15 140.5q0 69 15 138t52 141.5t93 127.5t146.5 90t203.5 35q224 0 356 -135q136 129 357 129q203 0 315.5 -120t112.5 -324zM633 266q49 0 87 20t58 48.5t33 65t16.5 63t3.5 49.5q0 30 -7 65.5t-26 80t-61.5 73.5t-103.5 29t-104.5 -29t-62.5 -73.5
t-26.5 -80t-7.5 -65.5q0 -23 3.5 -49.5t16.5 -63t34 -65t59 -48.5t88 -20zM1169 623h293q-12 128 -116 131q-142 0 -177 -131z" />
    <glyph glyph-name="Racute" unicode="&#x154;" horiz-adv-x="1394" 
d="M907 1821l-307 -191q-12 -7 -27.5 -3.5t-23.5 15.5l-74 107q-9 12 -6.5 28t14.5 25l283 219q10 9 26 6.5t23 -14.5l103 -141q7 -12 4 -27t-15 -24zM1272 961q0 -147 -71.5 -255.5t-192.5 -168.5l235 -504q6 -10 -1 -21.5t-19 -11.5h-285q-36 0 -53 33l-209 448h-146v-444
q0 -15 -10.5 -26t-25.5 -11h-252q-15 0 -26 11t-11 26v1360q0 15 11 26t26 11h512q114 0 205.5 -31t148.5 -79.5t95.5 -112.5t53.5 -126t15 -124zM772 788q49 1 85 20.5t53.5 48t25.5 55t8 49.5q0 26 -8 52t-26.5 54t-56 45.5t-89.5 17.5h-234v-342h242z" />
    <glyph glyph-name="racute" unicode="&#x155;" horiz-adv-x="872" 
d="M821 979l-69 -217q-5 -14 -18.5 -22t-26.5 -5q-48 10 -86 10q-96 0 -146 -63v-645q0 -15 -11 -26t-26 -11h-237q-15 0 -26 11t-11 26v950q0 15 11 26t26 11h129q36 0 53 -33l16 -30q92 75 242 75q58 0 154 -14q14 -3 21.5 -16t4.5 -27zM223 1393l283 219q10 9 26 6.5
t23 -14.5l102 -142q8 -12 5 -27t-15 -24l-307 -190q-12 -7 -27.5 -3.5t-23.5 15.5l-74 106q-9 12 -6.5 28.5t14.5 25.5z" />
    <glyph glyph-name="Rcommaaccent" unicode="&#x156;" horiz-adv-x="1394" 
d="M690 -145q83 0 124.5 -50.5t41.5 -119.5q0 -67 -48.5 -176.5t-107.5 -202.5q-9 -13 -24.5 -18t-30.5 1l-63 29q-13 6 -18 20t1 27q5 13 66 182q-94 40 -94 150q0 63 45 110.5t108 47.5zM1272 961q0 -147 -71.5 -255.5t-192.5 -168.5l235 -504q6 -10 -1 -21.5t-19 -11.5
h-285q-36 0 -53 33l-209 448h-146v-444q0 -15 -10.5 -26t-25.5 -11h-252q-15 0 -26 11t-11 26v1360q0 15 11 26t26 11h512q114 0 205.5 -31t148.5 -79.5t95.5 -112.5t53.5 -126t15 -124zM772 788q49 1 85 20.5t53.5 48t25.5 55t8 49.5q0 26 -8 52t-26.5 54t-56 45.5
t-89.5 17.5h-234v-342h242z" />
    <glyph glyph-name="rcommaaccent" unicode="&#x157;" horiz-adv-x="872" 
d="M821 979l-69 -217q-5 -14 -18.5 -22t-26.5 -5q-48 10 -86 10q-96 0 -146 -63v-645q0 -15 -11 -26t-26 -11h-237q-15 0 -26 11t-11 26v950q0 15 11 26t26 11h129q36 0 53 -33l16 -30q92 75 242 75q58 0 154 -14q14 -3 21.5 -16t4.5 -27zM268 -711l-63 29q-13 6 -18 20
t1 27q5 13 66 182q-94 40 -94 150q0 63 45 110.5t108 47.5q83 0 124.5 -50.5t41.5 -119.5q0 -67 -48 -177t-107 -202q-9 -13 -25 -18t-31 1z" />
    <glyph glyph-name="Rcaron" unicode="&#x158;" horiz-adv-x="1394" 
d="M907 1851l-282 -219q-12 -9 -29 -9t-29 9l-282 219q-12 9 -15 24.5t6 29.5l74 106q8 12 23.5 15.5t27.5 -5.5l195 -118l195 118q12 9 27 5.5t24 -15.5l73 -106q9 -14 6.5 -29.5t-14.5 -24.5zM1272 961q0 -147 -71.5 -255.5t-192.5 -168.5l235 -504q6 -10 -1 -21.5
t-19 -11.5h-285q-36 0 -53 33l-209 448h-146v-444q0 -15 -10.5 -26t-25.5 -11h-252q-15 0 -26 11t-11 26v1360q0 15 11 26t26 11h512q114 0 205.5 -31t148.5 -79.5t95.5 -112.5t53.5 -126t15 -124zM772 788q49 1 85 20.5t53.5 48t25.5 55t8 49.5q0 26 -8 52t-26.5 54
t-56 45.5t-89.5 17.5h-234v-342h242z" />
    <glyph glyph-name="rcaron" unicode="&#x159;" horiz-adv-x="872" 
d="M821 979l-69 -217q-5 -14 -18.5 -22t-26.5 -5q-48 10 -86 10q-96 0 -146 -63v-645q0 -15 -11 -26t-26 -11h-237q-15 0 -26 11t-11 26v950q0 15 11 26t26 11h129q36 0 53 -33l16 -30q92 75 242 75q58 0 154 -14q14 -3 21.5 -16t4.5 -27zM760 1442l-283 -219
q-12 -9 -28.5 -9t-28.5 9l-283 219q-12 9 -14.5 24t6.5 29l74 107q8 12 23.5 15.5t27.5 -5.5l195 -119l194 119q12 9 27 5.5t24 -15.5l74 -107q9 -14 6.5 -29t-14.5 -24z" />
    <glyph glyph-name="Sacute" unicode="&#x15a;" horiz-adv-x="1343" 
d="M803 858q71 -25 121.5 -46.5t110.5 -59.5t97.5 -80t63 -105t25.5 -139q0 -190 -149.5 -317t-381.5 -127q-144 0 -271 34.5t-263 104.5q-13 6 -18 21t1 28l113 209q6 13 21 17.5t28 -1.5q235 -106 377 -106q81 0 138.5 35t57.5 88q0 26 -13.5 48.5t-33 38.5t-55 32.5
t-65 26.5t-78.5 26q-173 57 -246 96q-190 101 -216 281q-5 31 -5 65q0 197 131.5 312.5t341.5 115.5q252 0 518 -123q31 -17 18 -51l-92 -211q-6 -14 -20 -19t-29 1q-256 94 -375 94q-72 0 -118 -25t-45 -80q1 -14 7 -27t18 -25t23.5 -22t32.5 -20.5t36.5 -18t44 -18t46 -17
t51.5 -18.5t52 -18zM883 1821l-308 -191q-12 -7 -27.5 -3.5t-23.5 15.5l-73 107q-9 12 -6.5 28t14.5 25l282 219q10 9 26.5 6.5t23.5 -14.5l102 -141q8 -12 5 -27t-15 -24z" />
    <glyph glyph-name="sacute" unicode="&#x15b;" horiz-adv-x="1062" 
d="M686 616q42 -16 74 -32t68 -42.5t59 -57.5t38 -76.5t15 -100.5q0 -143 -110.5 -233t-280.5 -90q-106 0 -198 26t-195 84q-13 7 -18 22.5t1 28.5l94 181q6 13 21.5 17.5t28.5 -1.5q158 -74 256 -74q34 0 59 10.5t25 30.5q0 8 -2.5 14.5t-9.5 12t-14 9t-20.5 8t-24.5 7.5
t-31.5 8.5t-35.5 10.5q-51 15 -87.5 29t-85.5 42t-79.5 61t-52.5 85.5t-22 116.5q0 152 98 239.5t258 87.5q178 0 377 -90q13 -6 18.5 -21t-0.5 -30l-82 -182q-6 -14 -20 -19.5t-29 0.5q-166 66 -254 66q-57 0 -57 -37q0 -13 11 -24.5t35 -22.5t46 -19t62 -21.5t65 -23.5z
M741 1411l-307 -190q-12 -7 -27.5 -3.5t-23.5 15.5l-74 106q-9 12 -6.5 28.5t14.5 25.5l283 219q10 9 26 6.5t23 -14.5l103 -142q7 -12 4 -27t-15 -24z" />
    <glyph glyph-name="Scircumflex" unicode="&#x15c;" horiz-adv-x="1343" 
d="M672 1749l-195 -121q-12 -7 -27.5 -3.5t-23.5 15.5l-74 107q-9 12 -6.5 28t14.5 25l283 219q12 9 28.5 9t28.5 -9l283 -219q12 -9 14.5 -25t-6.5 -28l-73 -107q-9 -12 -24.5 -15.5t-27.5 3.5zM803 858q71 -25 121.5 -46.5t110.5 -59.5t97.5 -80t63 -105t25.5 -139
q0 -190 -149.5 -317t-381.5 -127q-144 0 -271 34.5t-263 104.5q-13 6 -18 21t1 28l113 209q6 13 21 17.5t28 -1.5q235 -106 377 -106q81 0 138.5 35t57.5 88q0 26 -13.5 48.5t-33 38.5t-55 32.5t-65 26.5t-78.5 26q-173 57 -246 96q-190 101 -216 281q-5 31 -5 65
q0 197 131.5 312.5t341.5 115.5q252 0 518 -123q31 -17 18 -51l-92 -211q-6 -14 -20 -19t-29 1q-256 94 -375 94q-72 0 -118 -25t-45 -80q1 -14 7 -27t18 -25t23.5 -22t32.5 -20.5t36.5 -18t44 -18t46 -17t51.5 -18.5t52 -18z" />
    <glyph glyph-name="scircumflex" unicode="&#x15d;" horiz-adv-x="1062" 
d="M532 1339l-194 -120q-12 -7 -27.5 -3.5t-23.5 15.5l-74 106q-9 12 -6.5 28.5t14.5 25.5l283 219q12 9 28.5 9t28.5 -9l283 -219q12 -9 14.5 -25.5t-6.5 -28.5l-74 -106q-9 -12 -24 -15.5t-27 3.5zM686 616q42 -16 74 -32t68 -42.5t59 -57.5t38 -76.5t15 -100.5
q0 -143 -110.5 -233t-280.5 -90q-106 0 -198 26t-195 84q-13 7 -18 22.5t1 28.5l94 181q6 13 21.5 17.5t28.5 -1.5q158 -74 256 -74q34 0 59 10.5t25 30.5q0 8 -2.5 14.5t-9.5 12t-14 9t-20.5 8t-24.5 7.5t-31.5 8.5t-35.5 10.5q-51 15 -87.5 29t-85.5 42t-79.5 61
t-52.5 85.5t-22 116.5q0 152 98 239.5t258 87.5q178 0 377 -90q13 -6 18.5 -21t-0.5 -30l-82 -182q-6 -14 -20 -19.5t-29 0.5q-166 66 -254 66q-57 0 -57 -37q0 -13 11 -24.5t35 -22.5t46 -19t62 -21.5t65 -23.5z" />
    <glyph glyph-name="Scedilla" unicode="&#x15e;" horiz-adv-x="1323" 
d="M1200 395q0 -165 -134.5 -281t-338.5 -128v-43q53 -1 93.5 -21t62 -49.5t31.5 -59.5t10 -57q0 -109 -69 -166t-171 -57q-98 0 -184 39q-14 6 -19.5 20.5t0.5 28.5l33 70q13 29 49 18q58 -20 101 -20q29 0 51 20t24 47q2 29 -23.5 48.5t-78.5 19.5h-35q-19 0 -31 12
q-12 15 -12 33v121q-201 16 -403 123q-13 6 -18 21t1 28l88 174q6 13 21 17.5t28 -1.5q223 -100 388 -100q98 0 167.5 40t69.5 105q0 61 -48.5 105.5t-96 63t-154.5 50.5q-15 5 -22 7q-54 16 -88.5 27.5t-83.5 32.5t-81 41.5t-67.5 52t-56 68t-34 86t-13.5 107.5
q0 193 129.5 305.5t335.5 112.5q83 0 210.5 -25.5t276.5 -91.5q15 -6 20.5 -20t-0.5 -27l-81 -182q-6 -14 -20.5 -19t-29.5 1q-89 34 -185.5 61t-145.5 27t-84.5 -5.5t-67 -19t-49 -40.5t-19.5 -66q1 -29 17.5 -53.5t37 -40t63 -33t71 -26.5t86.5 -26q60 -18 95.5 -29.5
t92.5 -34.5t92 -45.5t77 -59.5t65.5 -78.5t40 -100t16.5 -127.5z" />
    <glyph glyph-name="scedilla" unicode="&#x15f;" horiz-adv-x="1048" 
d="M506 -176h-35q-19 0 -31 12q-12 15 -12 33v123q-130 17 -274 98q-12 8 -16.5 22.5t1.5 28.5l78 152q6 13 21 17.5t28 -1.5q163 -78 264 -78q46 0 79.5 18t33.5 46q0 21 -12.5 38t-39.5 30.5t-51 21.5t-67 21q-40 12 -64 20.5t-61.5 24.5t-61 31t-51 40t-43 52.5t-26 65.5
t-10.5 83q0 147 95.5 232t252.5 85q166 0 364 -90q14 -6 19 -20.5t-2 -28.5l-74 -162q-6 -13 -19.5 -18t-27.5 0q-149 65 -227 65q-113 0 -113 -55q0 -25 36 -43t115 -43q45 -14 69 -22.5t67 -26.5t68 -34.5t56.5 -44t48.5 -57.5t29.5 -72t12.5 -91q0 -127 -91.5 -211
t-238.5 -98v-45q53 -1 93.5 -21t62 -49.5t31.5 -59.5t10 -57q0 -109 -69 -166t-171 -57q-98 0 -184 39q-14 6 -19.5 20.5t0.5 28.5l33 70q13 29 49 18q58 -20 100 -20q29 0 51.5 20.5t24.5 46.5q2 29 -23.5 48.5t-78.5 19.5z" />
    <glyph glyph-name="Scaron" unicode="&#x160;" horiz-adv-x="1343" 
d="M973 1843l-273 -211q-12 -9 -28.5 -9t-28.5 9l-272 211q-12 9 -14.5 24.5t5.5 28.5l66 91q8 12 23.5 15.5t27.5 -3.5l193 -119l192 119q12 7 27 3.5t24 -15.5l66 -91q18 -33 -8 -53zM803 858q71 -25 121.5 -46.5t110.5 -59.5t97.5 -80t63 -105t25.5 -139
q0 -190 -149.5 -317t-381.5 -127q-144 0 -271 34.5t-263 104.5q-13 6 -18 21t1 28l113 209q6 13 21 17.5t28 -1.5q235 -106 377 -106q81 0 138.5 35t57.5 88q0 26 -13.5 48.5t-33 38.5t-55 32.5t-65 26.5t-78.5 26q-173 57 -246 96q-190 101 -216 281q-5 31 -5 65
q0 197 131.5 312.5t341.5 115.5q252 0 518 -123q31 -17 18 -51l-92 -211q-6 -14 -20 -19t-29 1q-256 94 -375 94q-72 0 -118 -25t-45 -80q1 -14 7 -27t18 -25t23.5 -22t32.5 -20.5t36.5 -18t44 -18t46 -17t51.5 -18.5t52 -18z" />
    <glyph glyph-name="scaron" unicode="&#x161;" horiz-adv-x="1062" 
d="M844 1442l-283 -219q-12 -9 -28.5 -9t-28.5 9l-283 219q-12 9 -14.5 24t6.5 29l74 107q8 12 23.5 15.5t27.5 -5.5l194 -119l195 119q12 9 27 5.5t24 -15.5l74 -107q9 -14 6.5 -29t-14.5 -24zM686 616q42 -16 74 -32t68 -42.5t59 -57.5t38 -76.5t15 -100.5
q0 -143 -110.5 -233t-280.5 -90q-106 0 -198 26t-195 84q-13 7 -18 22.5t1 28.5l94 181q6 13 21.5 17.5t28.5 -1.5q158 -74 256 -74q34 0 59 10.5t25 30.5q0 8 -2.5 14.5t-9.5 12t-14 9t-20.5 8t-24.5 7.5t-31.5 8.5t-35.5 10.5q-51 15 -87.5 29t-85.5 42t-79.5 61
t-52.5 85.5t-22 116.5q0 152 98 239.5t258 87.5q178 0 377 -90q13 -6 18.5 -21t-0.5 -30l-82 -182q-6 -14 -20 -19.5t-29 0.5q-166 66 -254 66q-57 0 -57 -37q0 -13 11 -24.5t35 -22.5t46 -19t62 -21.5t65 -23.5z" />
    <glyph glyph-name="Tcommaaccent" unicode="&#x162;" horiz-adv-x="1267" 
d="M467 37v1091h-338q-15 0 -26 11t-11 26v232q0 15 11 26t26 11h1010q15 0 26 -11t11 -26v-232q0 -15 -11 -26t-26 -11h-342v-1091q0 -15 -11 -26t-26 -11h-256q-15 0 -26 11t-11 26zM582 -711l-64 29q-13 6 -17.5 20t1.5 27q11 27 23.5 62.5t25 72t16.5 47.5
q-94 40 -94 150q0 63 45.5 110.5t108.5 47.5q83 0 124.5 -50.5t41.5 -119.5q0 -67 -48.5 -176.5t-107.5 -202.5q-9 -13 -24.5 -18t-30.5 1z" />
    <glyph glyph-name="tcommaaccent" unicode="&#x163;" horiz-adv-x="698" 
d="M379 -12q-67 0 -117 23.5t-75.5 55.5t-41 75.5t-19 73.5t-3.5 60v467h-66q-15 0 -26 11t-11 26v207q0 15 11 26t26 11h66l16 164q1 15 13.5 26t27.5 11h217q15 0 26 -11t11 -26v-164h148q15 0 25.5 -11t10.5 -26v-207q0 -15 -10.5 -26t-25.5 -11h-148v-415
q0 -29 15 -43.5t32 -14.5q38 0 107 15q14 5 27 -3.5t16 -23.5l39 -180q3 -15 -5 -28.5t-22 -18.5q-171 -43 -264 -43zM342 -145q83 0 124.5 -50.5t41.5 -119.5q0 -67 -48.5 -176.5t-107.5 -202.5q-9 -13 -24.5 -18t-30.5 1l-64 29q-13 6 -17.5 20t1.5 27q5 13 66 182
q-95 41 -95 150q0 63 45.5 110.5t108.5 47.5z" />
    <glyph glyph-name="Tcaron" unicode="&#x164;" horiz-adv-x="1267" 
d="M467 37v1091h-338q-15 0 -26 11t-11 26v232q0 15 11 26t26 11h1010q15 0 26 -11t11 -26v-232q0 -15 -11 -26t-26 -11h-342v-1091q0 -15 -11 -26t-26 -11h-256q-15 0 -26 11t-11 26zM944 1851l-282 -219q-12 -9 -29 -9t-29 9l-282 219q-12 9 -15 24.5t6 29.5l74 106
q8 12 23.5 15.5t27.5 -5.5l195 -118l194 118q12 9 27.5 5.5t24.5 -15.5l73 -106q9 -14 6.5 -29.5t-14.5 -24.5z" />
    <glyph glyph-name="tcaron" unicode="&#x165;" horiz-adv-x="1107" 
d="M481 270q38 0 107 15q14 5 27 -3.5t16 -23.5l39 -180q3 -15 -5 -28.5t-22 -18.5q-171 -43 -264 -43q-67 0 -117 23.5t-75.5 55.5t-41 75.5t-19 73.5t-3.5 60v467h-66q-15 0 -26 11t-11 26v207q0 15 11 26t26 11h66l16 164q1 15 13.5 26t27.5 11h217q15 0 26 -11t11 -26
v-164h148q15 0 25.5 -11t10.5 -26v-207q0 -15 -10.5 -26t-25.5 -11h-148v-415q0 -29 15 -43.5t32 -14.5zM918 1442q97 0 142.5 -57t45.5 -138q0 -88 -65 -230t-138 -237q-9 -12 -25.5 -15t-29.5 5l-72 41q-13 7 -17.5 22.5t3.5 28.5q87 161 98 238q-52 11 -86.5 57
t-34.5 107q0 73 54 125.5t125 52.5z" />
    <glyph glyph-name="Tbar" unicode="&#x166;" horiz-adv-x="1267" 
d="M467 37v543h-137q-15 0 -26 10.5t-11 25.5v150q0 15 11 26t26 11h137v325h-338q-15 0 -26 11t-11 26v232q0 15 11 26t26 11h1010q15 0 26 -11t11 -26v-232q0 -15 -11 -26t-26 -11h-340v-325h135q15 0 26 -11t11 -26v-150q0 -15 -11 -25.5t-26 -10.5h-135v-543
q0 -15 -11 -26t-26 -11h-258q-15 0 -26 11t-11 26z" />
    <glyph glyph-name="tbar" unicode="&#x167;" horiz-adv-x="698" 
d="M53 635h70v145h-66q-15 0 -26 11t-11 26v170q0 15 11 26t26 11h66l16 164q1 15 13.5 26t27.5 11h217q15 0 26 -11t11 -26v-164h148q15 0 25.5 -11t10.5 -26v-170q0 -15 -10.5 -26t-25.5 -11h-148v-145h146q15 0 25.5 -11t10.5 -26v-139q0 -15 -10.5 -26t-25.5 -11h-146
v-94q0 -29 15 -43.5t32 -14.5q38 0 107 15q14 5 27 -3.5t16 -23.5l39 -180q3 -15 -5 -28.5t-22 -18.5q-171 -43 -264 -43q-67 0 -117 23.5t-75.5 55.5t-41 75.5t-19 73.5t-3.5 60v146h-70q-15 0 -26 11t-11 26v139q0 15 11 26t26 11z" />
    <glyph glyph-name="Utilde" unicode="&#x168;" horiz-adv-x="1515" 
d="M1038 1434h256q15 0 26 -11t11 -26v-834q0 -77 -18 -154t-61.5 -154.5t-107 -136t-163.5 -95.5t-223 -37t-223 37t-164 95.5t-107.5 136t-61.5 154.5t-18 154v834q0 15 11 26t26 11h254q15 0 26 -11t11 -26v-834q0 -34 12 -76t37.5 -88.5t77 -78t119.5 -31.5
q55 0 99.5 21.5t70.5 53t43.5 70.5t23.5 71t6 58v834q0 15 11 26t26 11zM653 1688q-51 0 -90 -43q-9 -12 -24 -16t-27 3l-104 64q-13 9 -17.5 24t2.5 29q50 90 115.5 131t130.5 41q42 0 113.5 -34t113.5 -34q47 0 84 43q9 12 24 16t27 -5l105 -64q12 -8 16.5 -22.5
t-2.5 -28.5q-50 -91 -117 -132.5t-133 -41.5q-42 0 -110 35t-107 35z" />
    <glyph glyph-name="utilde" unicode="&#x169;" 
d="M727 336v651q0 15 11 26t26 11h237q15 0 26 -11t11 -26v-950q0 -15 -11 -26t-26 -11h-129q-35 0 -55 33l-16 30q-46 -37 -110.5 -58t-125.5 -21q-82 0 -148 16t-111.5 43t-79.5 67.5t-53 83t-31 96.5t-15.5 101.5t-3.5 104.5v491q0 15 11 26t26 11h241q15 0 26 -11
t11 -26v-491q0 -37 1.5 -61t9 -59t21 -56t40.5 -36.5t65 -15.5q50 0 90 19t62 49zM356 1223l-104 63q-12 9 -16.5 24t2.5 29q50 90 115 131t130 41q42 0 114 -33.5t114 -33.5q47 0 84 43q9 12 24 15.5t27 -5.5l104 -63q12 -8 17 -23t-2 -29q-50 -91 -117 -132.5t-133 -41.5
q-43 0 -110 35t-107 35q-51 0 -90 -43q-9 -12 -24.5 -15.5t-27.5 3.5z" />
    <glyph glyph-name="Umacron" unicode="&#x16a;" horiz-adv-x="1515" 
d="M1038 1434h256q15 0 26 -11t11 -26v-834q0 -77 -18 -154t-61.5 -154.5t-107 -136t-163.5 -95.5t-223 -37t-223 37t-164 95.5t-107.5 136t-61.5 154.5t-18 154v834q0 15 11 26t26 11h254q15 0 26 -11t11 -26v-834q0 -34 12 -76t37.5 -88.5t77 -78t119.5 -31.5
q55 0 99.5 21.5t70.5 53t43.5 70.5t23.5 71t6 58v834q0 15 11 26t26 11zM1065 1817v-148q0 -15 -11 -26t-26 -11h-543q-15 0 -25.5 11t-10.5 26v148q0 15 10.5 25.5t25.5 10.5h543q15 0 26 -10.5t11 -25.5z" />
    <glyph glyph-name="umacron" unicode="&#x16b;" 
d="M881 1407v-147q0 -15 -11 -26t-26 -11h-543q-15 0 -26 11t-11 26v147q0 15 11 26t26 11h543q15 0 26 -11t11 -26zM764 1024h237q15 0 26 -11t11 -26v-950q0 -15 -11 -26t-26 -11h-129q-35 0 -55 33l-16 30q-46 -37 -110.5 -58t-125.5 -21q-82 0 -148 16t-111.5 43
t-79.5 67.5t-53 83t-31 96.5t-15.5 101.5t-3.5 104.5v491q0 15 11 26t26 11h241q15 0 26 -11t11 -26v-491q0 -37 1.5 -61t9 -59t21 -56t40.5 -36.5t65 -15.5q50 0 90 19t62 49v651q0 15 11 26t26 11z" />
    <glyph glyph-name="Ubreve" unicode="&#x16c;" horiz-adv-x="1515" 
d="M756 1614q-109 0 -193.5 60.5t-122.5 185.5q-4 13 3.5 26.5t21.5 18.5l151 43q13 4 26.5 -3.5t19.5 -21.5q25 -76 94 -76q62 0 92 78q5 14 18.5 21.5t26.5 3.5l156 -47q14 -5 21 -18.5t3 -26.5q-39 -122 -124.5 -183t-192.5 -61zM1038 1434h256q15 0 26 -11t11 -26v-834
q0 -77 -18 -154t-61.5 -154.5t-107 -136t-163.5 -95.5t-223 -37t-223 37t-164 95.5t-107.5 136t-61.5 154.5t-18 154v834q0 15 11 26t26 11h254q15 0 26 -11t11 -26v-834q0 -34 12 -76t37.5 -88.5t77 -78t119.5 -31.5q55 0 99.5 21.5t70.5 53t43.5 70.5t23.5 71t6 58v834
q0 15 11 26t26 11z" />
    <glyph glyph-name="ubreve" unicode="&#x16d;" 
d="M600 1204q-109 0 -193 60.5t-122 185.5q-4 13 3 26.5t21 18.5l152 43q13 4 26 -3.5t19 -21.5q25 -75 94 -75q62 0 92 78q5 14 18.5 21t26.5 3l156 -47q14 -5 21.5 -18.5t3.5 -26.5q-39 -122 -125 -183t-193 -61zM764 1024h237q15 0 26 -11t11 -26v-950q0 -15 -11 -26
t-26 -11h-129q-35 0 -55 33l-16 30q-46 -37 -110.5 -58t-125.5 -21q-82 0 -148 16t-111.5 43t-79.5 67.5t-53 83t-31 96.5t-15.5 101.5t-3.5 104.5v491q0 15 11 26t26 11h241q15 0 26 -11t11 -26v-491q0 -37 1.5 -61t9 -59t21 -56t40.5 -36.5t65 -15.5q50 0 90 19t62 49v651
q0 15 11 26t26 11z" />
    <glyph glyph-name="Uring" unicode="&#x16e;" horiz-adv-x="1515" 
d="M541 1819q0 89 64 153t153 64t152 -64t63 -153t-63 -152t-152 -63t-153 63t-64 152zM696 1819q0 -23 18.5 -41.5t43.5 -18.5q23 0 41 18.5t18 41.5q0 25 -18 43t-41 18q-25 0 -43.5 -18t-18.5 -43zM1038 1434h256q15 0 26 -11t11 -26v-834q0 -77 -18 -154t-61.5 -154.5
t-107 -136t-163.5 -95.5t-223 -37t-223 37t-164 95.5t-107.5 136t-61.5 154.5t-18 154v834q0 15 11 26t26 11h254q15 0 26 -11t11 -26v-834q0 -34 12 -76t37.5 -88.5t77 -78t119.5 -31.5q55 0 99.5 21.5t70.5 53t43.5 70.5t23.5 71t6 58v834q0 15 11 26t26 11z" />
    <glyph glyph-name="uring" unicode="&#x16f;" 
d="M764 1024h237q15 0 26 -11t11 -26v-950q0 -15 -11 -26t-26 -11h-129q-35 0 -55 33l-16 30q-46 -37 -110.5 -58t-125.5 -21q-82 0 -148 16t-111.5 43t-79.5 67.5t-53 83t-31 96.5t-15.5 101.5t-3.5 104.5v491q0 15 11 26t26 11h241q15 0 26 -11t11 -26v-491q0 -37 1.5 -61
t9 -59t21 -56t40.5 -36.5t65 -15.5q50 0 90 19t62 49v651q0 15 11 26t26 11zM575 1194q-89 0 -153 63t-64 152t64 153t153 64t152.5 -64t63.5 -153t-63.5 -152t-152.5 -63zM575 1470q-25 0 -43 -18t-18 -43q0 -23 18 -41t43 -18q23 0 41.5 18t18.5 41q0 25 -18.5 43
t-41.5 18z" />
    <glyph glyph-name="Uhungarumlaut" unicode="&#x170;" horiz-adv-x="1515" 
d="M1038 1434h256q15 0 26 -11t11 -26v-834q0 -77 -18 -154t-61.5 -154.5t-107 -136t-163.5 -95.5t-223 -37t-223 37t-164 95.5t-107.5 136t-61.5 154.5t-18 154v834q0 15 11 26t26 11h254q15 0 26 -11t11 -26v-834q0 -34 12 -76t37.5 -88.5t77 -78t119.5 -31.5
q55 0 99.5 21.5t70.5 53t43.5 70.5t23.5 71t6 58v834q0 15 11 26t26 11zM1171 1933l-110 -270q-14 -35 -51 -35h-146q-13 0 -21 11.5t-5 23.5l84 270q5 15 17.5 25t29.5 10h180q13 0 20 -11.5t2 -23.5zM766 1933l-113 -270q-14 -35 -51 -35h-143q-13 0 -21.5 11.5t-5.5 23.5
l84 270q5 15 17.5 25t29.5 10h180q13 0 20.5 -11.5t2.5 -23.5z" />
    <glyph glyph-name="uhungarumlaut" unicode="&#x171;" 
d="M727 336v651q0 15 11 26t26 11h237q15 0 26 -11t11 -26v-950q0 -15 -11 -26t-26 -11h-129q-35 0 -55 33l-16 30q-46 -37 -110.5 -58t-125.5 -21q-82 0 -148 16t-111.5 43t-79.5 67.5t-53 83t-31 96.5t-15.5 101.5t-3.5 104.5v491q0 15 11 26t26 11h241q15 0 26 -11
t11 -26v-491q0 -37 1.5 -61t9 -59t21 -56t40.5 -36.5t65 -15.5q50 0 90 19t62 49zM969 1524l-111 -271q-14 -34 -51 -34h-145q-13 0 -21.5 11t-5.5 23l84 271q11 35 47 35h180q13 0 20.5 -11.5t2.5 -23.5zM563 1524l-112 -271q-14 -34 -52 -34h-143q-13 0 -21.5 11t-5.5 23
l84 271q11 35 47 35h181q13 0 20 -11.5t2 -23.5z" />
    <glyph glyph-name="Uogonek" unicode="&#x172;" horiz-adv-x="1515" 
d="M1026 41v-47q0 -21 -31.5 -81t-31.5 -103q0 -35 26.5 -53.5t71.5 -18.5q51 0 133 20q12 5 23.5 -3t11.5 -21v-111q0 -17 -10 -30.5t-25 -18.5q-98 -33 -221 -33q-103 0 -172.5 56t-69.5 163q0 44 19 89.5t42 83.5t27 55q-20 -2 -61 -2q-123 0 -223 37t-164 95.5
t-107.5 136t-61.5 154.5t-18 154v834q0 15 11 26t26 11h254q15 0 26 -11t11 -26v-834q0 -34 12 -76t37.5 -88.5t77 -78t119.5 -31.5q55 0 99.5 21.5t70.5 53t43.5 70.5t23.5 71t6 58v834q0 15 11 26t26 11h256q15 0 26 -11t11 -26v-834q0 -72 -17 -145t-52 -144.5
t-95.5 -133t-140.5 -99.5z" />
    <glyph glyph-name="uogonek" unicode="&#x173;" 
d="M727 336v651q0 15 11 26t26 11h237q15 0 26 -11t11 -26v-993q0 -21 -31.5 -81t-31.5 -103q0 -35 26.5 -53.5t71.5 -18.5q51 0 133 20q12 5 23.5 -3t11.5 -21v-111q0 -17 -10 -30.5t-25 -18.5q-98 -33 -221 -33q-103 0 -172.5 56t-69.5 163q0 47 23.5 97t46.5 87.5
t23 55.5l-35 63q-46 -37 -110.5 -58t-125.5 -21q-82 0 -148 16t-111.5 43t-79.5 67.5t-53 83t-31 96.5t-15.5 101.5t-3.5 104.5v491q0 15 11 26t26 11h241q15 0 26 -11t11 -26v-491q0 -37 1.5 -61t9 -59t21 -56t40.5 -36.5t65 -15.5q50 0 90 19t62 49z" />
    <glyph glyph-name="Wcircumflex" unicode="&#x174;" horiz-adv-x="2240" 
d="M1485 662l313 737q14 35 51 35h293q12 0 19.5 -11.5t1.5 -21.5l-633 -1391q-13 -26 -41 -26t-41 26l-328 740l-327 -740q-13 -26 -41 -26t-41 26l-635 1391q-5 11 2.5 22t19.5 11h293q37 0 51 -35l314 -737l319 759q4 13 17 22t28 9q31 0 45 -31zM1157 2019l283 -219
q12 -9 14.5 -25t-6.5 -28l-74 -107q-9 -12 -24 -15.5t-27 3.5l-195 121l-194 -121q-12 -7 -27.5 -3.5t-23.5 15.5l-74 107q-9 12 -6.5 28t14.5 25l283 219q12 9 28.5 9t28.5 -9z" />
    <glyph glyph-name="wcircumflex" unicode="&#x175;" horiz-adv-x="1703" 
d="M852 1036q22 0 29 -18l227 -500l188 471q6 15 20.5 25t31.5 10h258q12 0 19 -11.5t1 -21.5l-465 -993q-11 -21 -33 -21t-32 21l-244 434l-244 -434q-10 -21 -33 -21q-21 0 -32 21l-465 993q-6 10 1 21.5t19 11.5h258q17 0 31.5 -10t20.5 -25l188 -471l227 500q7 18 29 18
zM883 1610l282 -219q12 -9 15 -25.5t-6 -28.5l-74 -106q-9 -12 -24 -15.5t-27 3.5l-195 120l-195 -120q-12 -7 -27.5 -3.5t-23.5 15.5l-73 106q-9 12 -6.5 28.5t14.5 25.5l282 219q12 9 29 9t29 -9z" />
    <glyph glyph-name="Ycircumflex" unicode="&#x176;" horiz-adv-x="1427" 
d="M877 637v-600q0 -15 -11 -26t-26 -11h-252q-15 0 -26 11t-11 26v596l-471 770q-6 9 0 20t18 11h289q34 0 55 -31l271 -451l270 451q17 31 55 31h291q12 0 18.5 -11t0.5 -20zM741 2019l283 -219q12 -9 14.5 -25t-6.5 -28l-74 -107q-9 -12 -24 -15.5t-27 3.5l-194 121
l-195 -121q-12 -7 -27.5 -3.5t-23.5 15.5l-74 107q-9 12 -6.5 28t14.5 25l283 219q12 9 28.5 9t28.5 -9z" />
    <glyph glyph-name="ycircumflex" unicode="&#x177;" horiz-adv-x="1261" 
d="M424 989l197 -536l215 536q14 35 51 35h276q12 0 19.5 -11.5t3.5 -23.5l-582 -1362q-12 -35 -51 -35h-260q-13 0 -20.5 11.5t-2.5 23.5l189 453l-383 909q-5 12 2 23.5t20 11.5h277q35 0 49 -35zM659 1610l283 -219q12 -9 14.5 -25.5t-6.5 -28.5l-73 -106
q-9 -12 -24.5 -15.5t-27.5 3.5l-194 120l-195 -120q-12 -7 -27.5 -3.5t-23.5 15.5l-74 106q-9 12 -6.5 28.5t14.5 25.5l283 219q12 9 28.5 9t28.5 -9z" />
    <glyph glyph-name="Ydieresis" unicode="&#x178;" horiz-adv-x="1427" 
d="M877 637v-600q0 -15 -11 -26t-26 -11h-252q-15 0 -26 11t-11 26v596l-471 770q-6 9 0 20t18 11h289q34 0 55 -31l271 -451l270 451q17 31 55 31h291q12 0 18.5 -11t0.5 -20zM311 1817q12 56 56.5 92.5t105.5 36.5q69 0 116.5 -48.5t47.5 -117.5q0 -70 -47.5 -117
t-116.5 -47q-61 0 -105.5 35t-56.5 92q-9 37 0 74zM791 1780q0 69 47.5 117.5t117.5 48.5q69 0 116.5 -48.5t47.5 -117.5q0 -70 -47.5 -117t-116.5 -47q-71 0 -118 47t-47 117z" />
    <glyph glyph-name="Zacute" unicode="&#x179;" horiz-adv-x="1363" 
d="M637 305h555q15 0 26 -11t11 -26v-231q0 -15 -11 -26t-26 -11h-995q-15 0 -26 11t-11 26v10q0 35 18 70l549 1013h-508q-15 0 -26 11t-11 26v230q0 15 11 26t26 11h959q13 0 23.5 -10.5t10.5 -24.5q0 -34 -16 -66zM469 1802l283 219q10 9 26 6.5t23 -14.5l102 -141
q8 -12 5 -27t-15 -24l-307 -191q-12 -7 -27.5 -3.5t-23.5 15.5l-74 107q-9 12 -6.5 28t14.5 25z" />
    <glyph glyph-name="zacute" unicode="&#x17a;" horiz-adv-x="1089" 
d="M154 762v225q0 15 10.5 26t25.5 11h754q12 0 20.5 -8.5t8.5 -20.5q0 -29 -15 -53l-348 -643h312q15 0 25.5 -11t10.5 -26v-225q0 -15 -10.5 -26t-25.5 -11h-758q-15 0 -26 11t-11 26q0 35 18 69l338 619h-293q-15 0 -25.5 11t-10.5 26zM332 1393l282 219q10 9 26.5 6.5
t23.5 -14.5l102 -142q8 -12 5 -27t-15 -24l-307 -190q-12 -7 -28 -3.5t-24 15.5l-73 106q-9 12 -6.5 28.5t14.5 25.5z" />
    <glyph glyph-name="Zdotaccent" unicode="&#x17b;" horiz-adv-x="1363" 
d="M516 1778q0 69 48 117.5t118 48.5q69 0 116.5 -48.5t47.5 -117.5q0 -70 -47.5 -117t-116.5 -47q-71 0 -118.5 47t-47.5 117zM637 305h555q15 0 26 -11t11 -26v-231q0 -15 -11 -26t-26 -11h-995q-15 0 -26 11t-11 26v10q0 35 18 70l549 1013h-508q-15 0 -26 11t-11 26v230
q0 15 11 26t26 11h959q13 0 23.5 -10.5t10.5 -24.5q0 -34 -16 -66z" />
    <glyph glyph-name="zdotaccent" unicode="&#x17c;" horiz-adv-x="1089" 
d="M381 1368q0 69 48 117.5t118 48.5q69 0 116.5 -48.5t47.5 -117.5q0 -70 -47.5 -117t-116.5 -47q-71 0 -118.5 47t-47.5 117zM154 762v225q0 15 10.5 26t25.5 11h754q12 0 20.5 -8.5t8.5 -20.5q0 -29 -15 -53l-348 -643h312q15 0 25.5 -11t10.5 -26v-225q0 -15 -10.5 -26
t-25.5 -11h-758q-15 0 -26 11t-11 26q0 35 18 69l338 619h-293q-15 0 -25.5 11t-10.5 26z" />
    <glyph glyph-name="Zcaron" unicode="&#x17d;" horiz-adv-x="1363" 
d="M637 305h555q15 0 26 -11t11 -26v-231q0 -15 -11 -26t-26 -11h-991q-15 0 -26 11t-11 26v18q0 35 18 70l545 1005h-508q-15 0 -26 11t-11 26v230q0 15 11 26t26 11h967q12 0 21.5 -9.5t9.5 -21.5q0 -27 -15 -57zM993 1851l-282 -219q-12 -9 -29 -9t-29 9l-282 219
q-12 9 -15 24.5t6 29.5l74 106q8 12 23.5 15.5t27.5 -5.5l195 -118l195 118q12 9 27 5.5t24 -15.5l73 -106q9 -14 6.5 -29.5t-14.5 -24.5z" />
    <glyph glyph-name="zcaron" unicode="&#x17e;" horiz-adv-x="1089" 
d="M154 762v225q0 15 10.5 26t25.5 11h746q14 0 23.5 -10t9.5 -23q0 -30 -17 -61l-342 -631h312q15 0 25.5 -11t10.5 -26v-225q0 -15 -10.5 -26t-25.5 -11h-740q-15 0 -26 11t-11 26v33q0 33 19 69l319 586h-293q-15 0 -25.5 11t-10.5 26zM856 1442l-283 -219
q-12 -9 -28.5 -9t-28.5 9l-283 219q-12 9 -14.5 24t6.5 29l74 107q8 12 23.5 15.5t27.5 -5.5l195 -119l194 119q12 9 27.5 5.5t24.5 -15.5l73 -107q9 -14 6.5 -29t-14.5 -24z" />
    <glyph glyph-name="longs" unicode="&#x17f;" horiz-adv-x="788" 
d="M797 1333l-70 -176q-4 -14 -18.5 -20.5t-28.5 -1.5q-88 32 -166 32q-34 0 -57 -19t-23 -58v-1053q0 -15 -11 -26t-26 -11h-237q-15 0 -26 11t-11 26v711h-66q-15 0 -26 10.5t-11 25.5v203q0 15 11 26t26 11h66v72q0 174 105.5 265t269.5 91q118 0 278 -68q31 -17 21 -51z
" />
    <glyph glyph-name="florin" unicode="&#x192;" horiz-adv-x="856" 
d="M-172 -338l70 176q5 14 18.5 20.5t28.5 2.5q90 -33 166 -33q34 0 56.5 19.5t22.5 58.5v842h-65q-15 0 -26 10.5t-11 25.5v203q0 15 11 26t26 11h65v72q0 174 105.5 265t269.5 91q119 0 279 -68q30 -17 20 -51l-69 -176q-4 -14 -18.5 -20.5t-28.5 -1.5q-88 32 -166 32
q-34 0 -57 -19t-23 -58v-66h145q15 0 26 -11t11 -26v-203q0 -15 -11 -25.5t-26 -10.5h-145v-848q0 -174 -105.5 -265.5t-269.5 -91.5q-119 0 -279 68q-13 6 -19 21t-1 30z" />
    <glyph glyph-name="Scommaaccent" unicode="&#x218;" horiz-adv-x="1343" 
d="M645 -711l-63 29q-13 6 -18 20t1 27q5 13 66 182q-94 40 -94 150q0 63 45 110.5t108 47.5q83 0 124.5 -50.5t41.5 -119.5q0 -67 -48.5 -176.5t-107.5 -202.5q-9 -13 -24.5 -18t-30.5 1zM492 1042q1 -14 7 -27t18 -25t23.5 -22t32.5 -20.5t36.5 -18t44 -18t46 -17
t51.5 -18.5t52 -18q71 -25 121.5 -46.5t110.5 -59.5t97.5 -80t63 -105t25.5 -139q0 -190 -149.5 -317t-381.5 -127q-144 0 -271 34.5t-263 104.5q-13 6 -18 21t1 28l113 209q6 13 21 17.5t28 -1.5q235 -106 377 -106q81 0 138.5 35t57.5 88q0 26 -13.5 48.5t-33 38.5
t-55 32.5t-65 26.5t-78.5 26q-173 57 -246 96q-190 101 -216 281q-5 31 -5 65q0 197 131.5 312.5t341.5 115.5q252 0 518 -123q31 -17 18 -51l-92 -211q-6 -14 -20 -19t-29 1q-256 94 -375 94q-72 0 -118 -25t-45 -80z" />
    <glyph glyph-name="scommaaccent" unicode="&#x219;" horiz-adv-x="1062" 
d="M487 758q-20 -11 -20 -31q0 -13 11 -24.5t35 -22.5t46 -19t62 -21.5t65 -23.5q42 -16 74 -32t68 -42.5t59 -57.5t38 -76.5t15 -100.5q0 -143 -110.5 -233t-280.5 -90q-106 0 -198 26t-195 84q-13 7 -18 22.5t1 28.5l94 181q6 13 21.5 17.5t28.5 -1.5q158 -74 256 -74
q34 0 59 10.5t25 30.5q0 8 -2.5 14.5t-9.5 12t-14 9t-20.5 8t-24.5 7.5t-31.5 8.5t-35.5 10.5q-51 15 -87.5 29t-85.5 42t-79.5 61t-52.5 85.5t-22 116.5q0 152 98 239.5t258 87.5q178 0 377 -90q13 -6 18.5 -21t-0.5 -30l-82 -182q-6 -14 -20 -19.5t-29 0.5
q-141 53 -217 64q-55 4 -74 -4zM479 -711l-63 29q-13 6 -18 20t1 27q5 13 66 182q-94 40 -94 150q0 63 45 110.5t108 47.5q83 0 124.5 -50.5t41.5 -119.5q0 -67 -48 -177t-107 -202q-9 -13 -25 -18t-31 1z" />
    <glyph glyph-name="circumflex" unicode="&#x2c6;" horiz-adv-x="1060" 
d="M567 1610l283 -219q12 -9 14.5 -25.5t-6.5 -28.5l-74 -106q-9 -12 -24 -15.5t-27 3.5l-194 120l-195 -120q-12 -7 -27.5 -3.5t-23.5 15.5l-74 106q-9 12 -6.5 28.5t14.5 25.5l283 219q12 9 28.5 9t28.5 -9z" />
    <glyph glyph-name="caron" unicode="&#x2c7;" horiz-adv-x="1024" 
d="M850 1442l-283 -219q-12 -9 -28.5 -9t-28.5 9l-283 219q-12 9 -14.5 24t6.5 29l74 107q8 12 23.5 15.5t27.5 -5.5l195 -119l194 119q12 9 27 5.5t24 -15.5l74 -107q9 -14 6.5 -29t-14.5 -24z" />
    <glyph glyph-name="breve" unicode="&#x2d8;" horiz-adv-x="1056" 
d="M676 1540l155 -47q14 -5 21.5 -18.5t3.5 -26.5q-39 -122 -124.5 -183t-192.5 -61q-109 0 -193.5 60.5t-122.5 185.5q-4 13 3.5 26.5t21.5 18.5l151 43q13 4 26 -3.5t19 -21.5q25 -75 95 -75q62 0 92 78q5 14 18.5 21t26.5 3z" />
    <glyph glyph-name="dotaccent" unicode="&#x2d9;" horiz-adv-x="1185" 
d="M416 1368q0 69 48 117.5t118 48.5q69 0 116 -48.5t47 -117.5q0 -70 -47 -117t-116 -47q-71 0 -118.5 47t-47.5 117z" />
    <glyph glyph-name="ring" unicode="&#x2da;" horiz-adv-x="1071" 
d="M319 1409q0 89 64.5 153t153.5 64t152 -64t63 -153t-63 -152t-152 -63q-90 0 -154 63t-64 152zM475 1409q0 -23 18.5 -41t43.5 -18q23 0 41 18t18 41q0 25 -18 43t-41 18q-25 0 -43.5 -18t-18.5 -43z" />
    <glyph glyph-name="ogonek" unicode="&#x2db;" horiz-adv-x="1251" 
d="M586 100h131q15 0 26 -11t11 -26v-69q0 -21 -32 -81t-32 -103q0 -35 26.5 -53.5t71.5 -18.5q52 0 134 20q12 5 23 -3t11 -21v-111q0 -17 -9.5 -30.5t-24.5 -18.5q-98 -33 -222 -33q-102 0 -171.5 56t-69.5 163q0 47 22.5 97t45 87.5t22.5 55.5v63q0 15 11 26t26 11z" />
    <glyph glyph-name="tilde" unicode="&#x2dc;" horiz-adv-x="1095" 
d="M291 1223l-105 63q-12 9 -16.5 24t2.5 29q50 90 115.5 131t130.5 41q42 0 113.5 -33.5t113.5 -33.5q47 0 84 43q9 12 24 15.5t27 -5.5l105 -63q12 -8 16.5 -23t-2.5 -29q-50 -91 -117 -132.5t-133 -41.5q-43 0 -110 35t-107 35q-51 0 -90 -43q-9 -12 -24 -15.5t-27 3.5z
" />
    <glyph glyph-name="hungarumlaut" unicode="&#x2dd;" horiz-adv-x="1085" 
d="M934 1524l-111 -271q-14 -34 -51 -34h-145q-13 0 -21.5 11t-5.5 23l84 271q5 15 17.5 25t29.5 10h180q13 0 20.5 -11.5t2.5 -23.5zM528 1524l-112 -271q-14 -34 -51 -34h-144q-13 0 -21 11t-5 23l84 271q11 35 47 35h180q13 0 20 -11.5t2 -23.5z" />
    <glyph glyph-name="Delta" unicode="&#x394;" horiz-adv-x="1595" 
d="M811 1415l645 -1382q6 -10 -1 -21.5t-19 -11.5h-1276q-12 0 -19.5 11.5t-1.5 21.5l639 1382q4 9 16 9t17 -9zM594 305h405l-202 496z" />
    <glyph glyph-name="Delta" unicode="&#x2206;" horiz-adv-x="1595" 
d="M811 1415l645 -1382q6 -10 -1 -21.5t-19 -11.5h-1276q-12 0 -19.5 11.5t-1.5 21.5l639 1382q4 9 16 9t17 -9zM594 305h405l-202 496z" />
    <glyph glyph-name="Omega" unicode="&#x3a9;" horiz-adv-x="1736" 
d="M868 1450q114 0 211.5 -25t168.5 -68t128.5 -102.5t94 -124.5t61 -138.5t35 -141.5t10.5 -135q0 -106 -33 -214.5t-102 -195.5h135q15 0 26 -11t11 -26v-231q0 -15 -11 -26t-26 -11h-551q-15 0 -26 11t-11 26v201q0 35 33 55q68 42 115.5 103.5t69 124.5t30 109.5
t8.5 84.5q0 26 -3.5 57t-14 74t-27.5 82.5t-46.5 79.5t-67.5 69t-94 47.5t-124 18.5q-79 0 -142 -24t-102.5 -64t-67 -85.5t-40.5 -97t-18.5 -88.5t-5.5 -69q0 -38 8.5 -84.5t30 -109.5t69 -124.5t115.5 -103.5q33 -20 33 -55v-201q0 -15 -11 -26t-26 -11h-551q-15 0 -26 11
t-11 26v231q0 15 11 26t26 11h135q-69 87 -102 195.5t-33 214.5q0 67 10 135t34.5 141.5t61.5 138.5t94 124.5t128 102.5t168.5 68t211.5 25z" />
    <glyph glyph-name="Omega" unicode="&#x2126;" horiz-adv-x="1736" 
d="M868 1450q114 0 211.5 -25t168.5 -68t128.5 -102.5t94 -124.5t61 -138.5t35 -141.5t10.5 -135q0 -106 -33 -214.5t-102 -195.5h135q15 0 26 -11t11 -26v-231q0 -15 -11 -26t-26 -11h-551q-15 0 -26 11t-11 26v201q0 35 33 55q68 42 115.5 103.5t69 124.5t30 109.5
t8.5 84.5q0 26 -3.5 57t-14 74t-27.5 82.5t-46.5 79.5t-67.5 69t-94 47.5t-124 18.5q-79 0 -142 -24t-102.5 -64t-67 -85.5t-40.5 -97t-18.5 -88.5t-5.5 -69q0 -38 8.5 -84.5t30 -109.5t69 -124.5t115.5 -103.5q33 -20 33 -55v-201q0 -15 -11 -26t-26 -11h-551q-15 0 -26 11
t-11 26v231q0 15 11 26t26 11h135q-69 87 -102 195.5t-33 214.5q0 67 10 135t34.5 141.5t61.5 138.5t94 124.5t128 102.5t168.5 68t211.5 25z" />
    <glyph glyph-name="pi" unicode="&#x3c0;" horiz-adv-x="1343" 
d="M942 -14q-67 0 -117.5 23.5t-76.5 55.5t-42 75.5t-20 74t-4 59.5v451h-133v-688q0 -15 -11 -26t-26 -11h-240q-15 0 -25.5 11t-10.5 26v688h-97q-15 0 -26 11t-11 26v225q0 15 11 26t26 11h1004q15 0 26 -11t11 -26v-225q0 -15 -11 -26t-26 -11h-146v-399q0 -29 15 -43.5
t32 -14.5q38 0 107 15q14 5 27 -3.5t16 -23.5l39 -180q3 -15 -5 -28.5t-22 -18.5q-171 -43 -264 -43z" />
    <glyph glyph-name="endash" unicode="&#x2013;" horiz-adv-x="1126" 
d="M928 528h-727q-15 0 -26 11t-11 26v170q0 15 11 26t26 11h727q15 0 26 -11t11 -26v-170q0 -15 -11 -26t-26 -11z" />
    <glyph glyph-name="emdash" unicode="&#x2014;" horiz-adv-x="1376" 
d="M1176 528h-975q-15 0 -26 11t-11 26v170q0 15 11 26t26 11h975q15 0 25.5 -11t10.5 -26v-170q0 -15 -10.5 -26t-25.5 -11z" />
    <glyph glyph-name="quoteleft" unicode="&#x2018;" horiz-adv-x="612" 
d="M381 1481l72 -41q13 -7 17.5 -22.5t-3.5 -28.5q-87 -161 -98 -238q51 -11 85.5 -57t34.5 -107q0 -73 -53.5 -125.5t-124.5 -52.5q-97 0 -142.5 57t-45.5 138q0 87 64.5 228.5t138.5 237.5q9 12 25.5 15t29.5 -4z" />
    <glyph glyph-name="quoteright" unicode="&#x2019;" horiz-adv-x="612" 
d="M231 827l-71 41q-14 8 -18 23t3 29q88 164 99 237q-52 11 -86.5 57t-34.5 107q0 73 53.5 125.5t124.5 52.5q67 0 111 -30t60.5 -71.5t16.5 -92.5q0 -88 -64.5 -230t-137.5 -237q-9 -12 -26 -15.5t-30 4.5z" />
    <glyph glyph-name="quotesinglbase" unicode="&#x201a;" horiz-adv-x="679" 
d="M274 -328l-77 37q-13 6 -18 21t3 28q71 138 97 230q-111 36 -111 159q0 71 47.5 119.5t118.5 48.5q94 0 138 -53.5t44 -130.5q0 -85 -59 -216t-127 -230q-9 -12 -25.5 -16t-30.5 3z" />
    <glyph glyph-name="quotedblleft" unicode="&#x201c;" horiz-adv-x="1093" 
d="M381 1481l72 -41q13 -7 17.5 -22.5t-3.5 -28.5q-87 -161 -98 -238q51 -11 85.5 -57t34.5 -107q0 -73 -53.5 -125.5t-124.5 -52.5q-97 0 -142.5 57t-45.5 138q0 87 64.5 228.5t138.5 237.5q9 12 25.5 15t29.5 -4zM862 1481l72 -41q13 -7 17.5 -22.5t-3.5 -28.5
q-87 -161 -98 -238q52 -11 86.5 -57t34.5 -107q0 -73 -53.5 -125.5t-124.5 -52.5q-67 0 -111 30t-61 72t-17 93q0 87 64.5 228.5t138.5 237.5q9 12 25 15t30 -4z" />
    <glyph glyph-name="quotedblright" unicode="&#x201d;" horiz-adv-x="1093" 
d="M713 827l-72 41q-13 7 -17.5 23t3.5 29q87 161 98 237q-52 11 -86.5 57t-34.5 107q0 73 53.5 125.5t124.5 52.5q51 0 89 -17t59 -45.5t31 -61.5t10 -70q0 -88 -65 -230t-138 -237q-9 -12 -25.5 -15t-29.5 4zM231 827l-71 41q-14 8 -18 23t3 29q88 164 99 237
q-52 11 -86.5 57t-34.5 107q0 73 53.5 125.5t124.5 52.5q67 0 111 -30t60.5 -71.5t16.5 -92.5q0 -88 -64.5 -230t-137.5 -237q-9 -12 -26 -15.5t-30 4.5z" />
    <glyph glyph-name="quotedblbase" unicode="&#x201e;" horiz-adv-x="1114" 
d="M274 -328l-77 37q-13 6 -18 21t3 28q71 138 97 230q-111 36 -111 159q0 71 47.5 119.5t118.5 48.5q94 0 138 -53.5t44 -130.5q0 -85 -59 -216t-127 -230q-9 -12 -25.5 -16t-30.5 3zM791 -328l-78 37q-13 6 -18 21t3 28q71 138 97 230q-111 36 -111 159q0 71 47.5 119.5
t118.5 48.5q94 0 138 -53.5t44 -130.5q0 -85 -59 -216t-127 -230q-9 -12 -25 -16t-30 3z" />
    <glyph glyph-name="dagger" unicode="&#x2020;" horiz-adv-x="1132" 
d="M711 750v-1039q0 -15 -11 -26t-26 -11h-217q-15 0 -26 11t-11 26v1039h-219q-15 0 -26 10.5t-11 25.5v201q0 15 11 26t26 11h219v373q0 15 11 26t26 11h217q15 0 26 -11t11 -26v-373h221q15 0 26 -11t11 -26v-201q0 -15 -11 -25.5t-26 -10.5h-221z" />
    <glyph glyph-name="daggerdbl" unicode="&#x2021;" horiz-adv-x="1132" 
d="M711 80v-369q0 -15 -11 -26t-26 -11h-217q-15 0 -26 11t-11 26v369h-219q-15 0 -26 11t-11 26v200q0 15 11 26t26 11h219v396h-219q-15 0 -26 10.5t-11 25.5v201q0 15 11 26t26 11h219v373q0 15 11 26t26 11h217q15 0 26 -11t11 -26v-373h221q15 0 26 -11t11 -26v-201
q0 -15 -11 -25.5t-26 -10.5h-221v-396h221q15 0 26 -11t11 -26v-200q0 -15 -11 -26t-26 -11h-221z" />
    <glyph glyph-name="bullet" unicode="&#x2022;" horiz-adv-x="884" 
d="M436 315q-106 0 -189 84t-83 191q0 113 82.5 198.5t189.5 85.5q119 0 202 -84.5t83 -199.5q0 -109 -83.5 -192t-201.5 -83z" />
    <glyph glyph-name="ellipsis" unicode="&#x2026;" horiz-adv-x="1597" 
d="M164 158q0 71 51 121.5t121 50.5q71 0 120.5 -50t49.5 -122q0 -70 -50 -120t-120 -50t-121 50t-51 120zM668 158q0 71 51 121.5t121 50.5q71 0 120.5 -50t49.5 -122q0 -70 -50 -120t-120 -50t-121 50t-51 120zM1174 158q0 71 51 121.5t121 50.5q71 0 120.5 -50t49.5 -122
q0 -70 -50 -120t-120 -50t-121 50t-51 120z" />
    <glyph glyph-name="perthousand" unicode="&#x2030;" horiz-adv-x="2551" 
d="M709 1108q0 -44 -9.5 -87.5t-33 -89t-59 -79.5t-92.5 -56t-128 -22q-72 0 -130 22t-94 56t-59.5 79.5t-33 89t-9.5 87.5t9.5 88t33 90t59.5 81t94 57t130 22q71 0 128.5 -22t92.5 -57t58.5 -81t33 -90t9.5 -88zM387 1012q23 0 39 10.5t23 27.5t9.5 31t2.5 27
q0 14 -2.5 28t-9.5 31.5t-23 28t-39 10.5q-32 0 -51 -20t-23 -39t-4 -39q0 -19 4 -37.5t23 -38.5t51 -20zM2169 662q71 0 128 -22t92.5 -57t59 -81t32.5 -90t9 -88t-9 -87.5t-32.5 -89t-59 -79.5t-92.5 -56t-128 -22q-72 0 -129.5 22t-93 56t-59 79.5t-33 89t-9.5 87.5
t9.5 88t33 90t59 81t93 57t129.5 22zM2169 227q30 0 48.5 20t23 39t4.5 38q0 14 -3 28t-10 31t-23.5 28t-39.5 11q-24 0 -40.5 -11t-24 -28t-10.5 -31t-3 -28q0 -19 4.5 -38t23.5 -39t50 -20zM1372 662q71 0 128.5 -22t92.5 -57t58.5 -81t33 -90t9.5 -88t-9.5 -87.5t-33 -89
t-59 -79.5t-92.5 -56t-128 -22q-72 0 -129.5 22t-92.5 56t-59 79.5t-33 89t-9 87.5t9 88t33 90t59 81t92.5 57t129.5 22zM1372 227q30 0 48.5 20t23 39t4.5 38q0 14 -3 28t-10 31t-23.5 28t-39.5 11q-24 0 -40.5 -11t-24 -28t-10.5 -31t-3 -28q0 -19 4.5 -38t23.5 -39
t50 -20zM1032 1434h174q13 0 21.5 -11.5t3.5 -23.5l-451 -1364q-14 -35 -49 -35h-176q-13 0 -21.5 11.5t-3.5 23.5l453 1364q14 35 49 35z" />
    <glyph glyph-name="guilsinglleft" unicode="&#x2039;" horiz-adv-x="673" 
d="M383 524l207 -260q9 -12 7.5 -27.5t-13.5 -25.5l-107 -92q-12 -10 -27 -9.5t-26 11.5l-354 379q-9 14 -9 22q0 12 9 25l354 377q11 11 26 11.5t27 -9.5l107 -92q12 -10 13.5 -26t-7.5 -28z" />
    <glyph glyph-name="guilsinglright" unicode="&#x203a;" horiz-adv-x="673" 
d="M84 264l207 260l-207 256q-9 12 -7.5 28t13.5 26l107 92q12 10 27 9.5t26 -11.5l354 -377q8 -12 8 -25q0 -10 -8 -22l-354 -379q-11 -11 -26 -11.5t-27 9.5l-107 92q-12 10 -13.5 25.5t7.5 27.5z" />
    <glyph glyph-name="fraction" unicode="&#x2044;" horiz-adv-x="137" 
d="M518 1401l-682 -1368q-16 -33 -53 -33h-135q-12 0 -19.5 11.5t-1.5 21.5l684 1368q17 33 54 33h133q12 0 19 -11.5t1 -21.5z" />
    <glyph glyph-name="zerosuperior" unicode="&#x2070;" horiz-adv-x="671" 
d="M336 1645q76 0 132 -33.5t85.5 -88t43 -111t13.5 -114.5q0 -46 -8 -91t-27.5 -91t-49.5 -80.5t-79 -56t-110 -21.5q-75 0 -131 32t-86 84.5t-44 108.5t-14 115q0 45 8 90.5t28.5 92.5t50.5 82.5t78.5 58.5t109.5 23zM336 1120q29 0 49.5 20.5t29.5 52t13 57.5t4 48
q0 23 -4 49.5t-13 59t-29.5 53.5t-49.5 21t-49.5 -21t-29.5 -53.5t-13 -59t-4 -49.5q0 -22 4 -48t13 -57.5t29.5 -52t49.5 -20.5z" />
    <glyph glyph-name="foursuperior" unicode="&#x2074;" horiz-adv-x="616" 
d="M481 1063v-59q0 -15 -11 -26t-26 -11h-96q-15 0 -26 11t-11 26v59h-233q-15 0 -26 11t-11 26v61q0 35 20 68l261 379q20 30 57 30h65q15 0 26 -10.5t11 -25.5v-388h58q15 0 25.5 -10.5t10.5 -25.5v-78q0 -15 -10.5 -26t-25.5 -11h-58zM311 1339l-86 -125h86v125z" />
    <glyph glyph-name="fivesuperior" unicode="&#x2075;" horiz-adv-x="624" 
d="M88 1106l64 57q11 9 25.5 8t25.5 -10q48 -41 110 -41q33 0 53.5 23t20.5 49q0 30 -20 50t-56 20h-143q-15 0 -26 10.5t-11 25.5v301q0 15 11 26t26 11h313q15 0 26 -11t11 -26v-75q0 -15 -11 -26t-26 -11h-172v-80q61 0 108 -14t74 -35.5t44 -51.5t22.5 -57t5.5 -57
q0 -26 -7 -55t-25 -62t-45 -59t-72.5 -43t-102.5 -17q-128 0 -225 97q-10 12 -9.5 27t11.5 26z" />
    <glyph glyph-name="sixsuperior" unicode="&#x2076;" horiz-adv-x="614" 
d="M383 1622l37 -49q9 -12 6.5 -26.5t-14.5 -22.5q-87 -65 -142 -127q18 12 64 12q56 0 98 -18.5t64.5 -44.5t35.5 -59t16.5 -57t2.5 -44q-1 -24 -7.5 -51.5t-24 -61t-43.5 -59.5t-70.5 -44t-100.5 -18q-57 0 -101.5 17.5t-70.5 43.5t-43 59t-23 61t-6 53q0 271 269 446
q12 8 28 5t25 -15zM305 1118q32 0 52 23t20 51q0 29 -19 49.5t-53 20.5q-28 0 -48.5 -20t-20.5 -50q0 -29 18.5 -51.5t50.5 -22.5z" />
    <glyph glyph-name="sevensuperior" unicode="&#x2077;" horiz-adv-x="540" 
d="M41 1513v89q0 15 11 25.5t26 10.5h366q14 0 23.5 -9.5t9.5 -22.5q0 -34 -12 -64l-213 -538q-14 -35 -51 -35h-109q-14 0 -21 11.5t-1 23.5l186 473h-178q-15 0 -26 10.5t-11 25.5z" />
    <glyph glyph-name="eightsuperior" unicode="&#x2078;" horiz-adv-x="589" 
d="M528 1440q0 -34 -18.5 -76t-54.5 -64q71 -46 71 -147q0 -24 -5.5 -48.5t-21.5 -52.5t-40.5 -49t-66.5 -35t-95 -14q-67 0 -116 20t-73.5 52t-35.5 64t-11 65q0 38 19.5 83t52.5 65q-33 16 -52.5 55.5t-19.5 79.5q0 29 11 60.5t35 65.5t73.5 56t116.5 22q66 0 114 -19
t72 -51t34.5 -64.5t10.5 -67.5zM297 1112q23 0 40 14.5t17 38.5t-17 39t-40 15q-24 0 -42.5 -15t-18.5 -39t18 -38.5t43 -14.5zM297 1378q23 0 40 15t17 39q0 25 -17 40t-40 15q-25 0 -43 -15t-18 -40q0 -24 18.5 -39t42.5 -15z" />
    <glyph glyph-name="ninesuperior" unicode="&#x2079;" horiz-adv-x="614" 
d="M231 981l-36 49q-9 10 -6.5 26t14.5 23q84 63 141 127q-18 -12 -63 -12q-56 0 -98.5 18.5t-64.5 44.5t-35.5 59t-17 57t-2.5 44q1 24 7.5 51.5t24 61t43.5 59.5t70.5 44t100.5 18q57 0 101.5 -17.5t70.5 -43.5t43 -59t23 -61t6 -53q0 -271 -268 -446q-12 -8 -28.5 -5
t-25.5 15zM309 1485q-32 0 -51.5 -23t-19.5 -51q0 -29 18.5 -49.5t52.5 -20.5q28 0 49 20t21 50q0 29 -19 51.5t-51 22.5z" />
    <glyph glyph-name="zeroinferior" unicode="&#x2080;" horiz-adv-x="671" 
d="M336 346q76 0 132 -33.5t85.5 -87.5t43 -110.5t13.5 -114.5q0 -46 -8 -91t-27.5 -91t-49.5 -80.5t-79 -56t-110 -21.5q-75 0 -131 32t-86 84.5t-44 108.5t-14 115q0 45 8 90.5t28.5 92t50.5 82.5t78.5 58.5t109.5 22.5zM336 -178q29 0 49.5 20.5t29.5 52t13 57.5t4 48
q0 23 -4 49.5t-13 58.5t-29.5 53t-49.5 21t-49.5 -21t-29.5 -53t-13 -58.5t-4 -49.5q0 -22 4 -48t13 -57.5t29.5 -52t49.5 -20.5z" />
    <glyph glyph-name="oneinferior" unicode="&#x2081;" horiz-adv-x="466" 
d="M375 301v-596q0 -15 -11 -26t-26 -11h-107q-15 0 -25.5 11t-10.5 26v389l-52 -28q-13 -6 -28.5 -2t-22.5 16l-33 53q-8 12 -4 28t17 23l182 131q33 23 68 23h16q15 0 26 -11t11 -26z" />
    <glyph glyph-name="twoinferior" unicode="&#x2082;" horiz-adv-x="624" 
d="M145 129l-57 55q-11 11 -11.5 27t9.5 27q104 112 233 112q103 0 163.5 -62t60.5 -151q0 -82 -82 -192l-84 -117l119 -2q15 0 25.5 -11t10.5 -26v-86q0 -15 -10.5 -26t-25.5 -11l-357 2q-13 0 -24 11t-11 24q0 37 21 64l199 280q36 53 36 88q0 17 -13.5 32t-35.5 15
q-46 0 -112 -53q-11 -11 -27 -11t-27 11z" />
    <glyph glyph-name="threeinferior" unicode="&#x2083;" horiz-adv-x="577" 
d="M516 135q0 -33 -17 -71.5t-46 -63.5q63 -50 63 -131q0 -31 -10.5 -64t-35 -68.5t-74 -58t-117.5 -22.5q-114 0 -209 76q-12 9 -13 24.5t9 26.5l51 57q10 10 25.5 11t27.5 -7q44 -30 109 -30q29 0 50 15.5t21 39.5q0 31 -20.5 47t-50.5 16h-76q-15 0 -26 11t-11 26v64
q0 15 11 26t26 11h76q30 0 50.5 17t20.5 48q0 25 -21 40t-50 15q-52 0 -107 -36q-32 -18 -55 8l-47 53q-11 12 -10.5 28t12.5 25q96 80 207 80q68 0 117.5 -22t74 -57t35 -68t10.5 -66z" />
    <glyph glyph-name="fourinferior" unicode="&#x2084;" horiz-adv-x="616" 
d="M481 -236v-59q0 -15 -11 -26t-26 -11h-96q-15 0 -26 11t-11 26v59h-233q-15 0 -26 11t-11 26v62q0 34 20 67l261 379q21 31 57 31h65q15 0 26 -11t11 -26v-387h58q15 0 25.5 -11t10.5 -26v-78q0 -15 -10.5 -26t-25.5 -11h-58zM311 41l-86 -125h86v125z" />
    <glyph glyph-name="fiveinferior" unicode="&#x2085;" horiz-adv-x="624" 
d="M88 -193l64 58q11 9 25.5 8t25.5 -10q48 -41 110 -41q33 0 53.5 23t20.5 49q0 30 -20 49.5t-56 19.5h-143q-15 0 -26 11t-11 26v301q0 15 11 26t26 11h313q15 0 26 -11t11 -26v-76q0 -15 -11 -26t-26 -11h-172v-79q61 0 108 -14t74 -35.5t44 -51.5t22.5 -57t5.5 -57
q0 -26 -7 -55t-25 -62t-45 -59t-72.5 -43t-102.5 -17q-129 0 -225 96q-10 12 -9.5 27t11.5 26z" />
    <glyph glyph-name="sixinferior" unicode="&#x2086;" horiz-adv-x="614" 
d="M383 324l37 -50q9 -12 6.5 -26.5t-14.5 -22.5q-87 -65 -142 -127q20 13 64 13q56 0 98 -18.5t64.5 -44.5t35.5 -59.5t16.5 -57.5t2.5 -44q-1 -24 -7.5 -51.5t-24 -60.5t-43.5 -59t-70.5 -44t-100.5 -18q-57 0 -101.5 17.5t-70.5 43t-43 58.5t-23 61t-6 53q0 272 269 447
q12 8 28 5t25 -15zM305 -180q32 0 52 23t20 51q0 29 -19 49t-53 20q-28 0 -48.5 -19.5t-20.5 -49.5q0 -29 18.5 -51.5t50.5 -22.5z" />
    <glyph glyph-name="seveninferior" unicode="&#x2087;" horiz-adv-x="540" 
d="M41 213v88q0 15 11 26t26 11h373q13 0 22.5 -9.5t9.5 -23.5q0 -32 -12 -59l-219 -543q-14 -35 -51 -35h-109q-14 0 -21 11.5t-1 23.5l192 473h-184q-15 0 -26 11t-11 26z" />
    <glyph glyph-name="eightinferior" unicode="&#x2088;" horiz-adv-x="589" 
d="M528 141q0 -34 -18.5 -75.5t-54.5 -63.5q71 -46 71 -147q0 -24 -5.5 -48.5t-21.5 -52.5t-40.5 -49t-66.5 -35t-95 -14q-67 0 -116 20t-73.5 52t-35.5 64t-11 65q0 38 19.5 82.5t52.5 64.5q-33 16 -52.5 55.5t-19.5 79.5q0 22 6 47t22.5 53.5t42 51.5t68.5 38t97 15
q66 0 114 -19.5t72 -51.5t34.5 -64.5t10.5 -67.5zM297 -186q23 0 40 14.5t17 38.5t-17 38.5t-40 14.5q-25 0 -43 -14.5t-18 -38.5t18 -38.5t43 -14.5zM297 80q23 0 40 14.5t17 38.5q0 25 -17 40t-40 15q-25 0 -43 -15t-18 -40q0 -24 18 -38.5t43 -14.5z" />
    <glyph glyph-name="nineinferior" unicode="&#x2089;" horiz-adv-x="614" 
d="M231 -317l-36 49q-9 10 -6.5 26t14.5 23q84 63 141 127q-18 -12 -63 -12q-56 0 -98.5 18.5t-64.5 44.5t-35.5 59t-17 57t-2.5 44q1 24 7.5 51.5t24 60.5t43.5 59t70.5 44t100.5 18q57 0 101.5 -17.5t70.5 -43t43 -58.5t23 -61t6 -53q0 -272 -268 -447q-12 -8 -28.5 -4.5
t-25.5 15.5zM309 186q-32 0 -51.5 -22.5t-19.5 -50.5q0 -29 18.5 -49.5t52.5 -20.5q28 0 49 20t21 50q0 28 -19 50.5t-51 22.5z" />
    <glyph glyph-name="Euro" unicode="&#x20ac;" horiz-adv-x="1193" 
d="M115 637h45q-2 35 -2 108h-101q-13 0 -22 11.5t-4 23.5l37 125q11 35 47 35h61q19 100 57 186t99 158.5t153.5 114t206.5 41.5q228 0 395 -178q10 -11 9.5 -27t-11.5 -27l-145 -145q-10 -10 -26.5 -10.5t-26.5 8.5q-49 44 -102.5 67t-92.5 23q-87 0 -135.5 -56.5
t-71.5 -154.5h342q13 0 21.5 -11.5t5.5 -23.5l-35 -125q-11 -35 -47 -35h-301v-4q0 -67 4 -104h240q13 0 22 -11.5t4 -23.5l-30 -125q-11 -35 -47 -35h-146q30 -79 70.5 -123.5t103.5 -44.5q39 0 92.5 26t102.5 71q11 11 27 11t26 -11l139 -142q11 -11 11.5 -26.5
t-9.5 -26.5q-181 -190 -389 -190q-100 0 -183.5 34t-144.5 96.5t-103.5 144t-67.5 181.5h-136q-13 0 -22 11.5t-4 23.5l37 125q5 15 17.5 25t29.5 10z" />
    <glyph glyph-name="afii61289" unicode="&#x2113;" horiz-adv-x="929" 
d="M41 621v208q0 15 11 26t26 11h63v219q0 89 25 158.5t62 109t86 65t91 34t84 8.5q76 0 139 -22t107 -59t74.5 -87.5t44.5 -107t14 -117.5q0 -185 -118 -316.5t-293 -160.5v-189q0 -129 59 -129q49 0 152 68q12 8 27 5t24 -15l106 -168q9 -13 7.5 -30.5t-13.5 -27.5
q-141 -124 -321 -124q-68 0 -123.5 16.5t-92 42.5t-63.5 63t-41.5 72.5t-23 77t-11 70.5t-2.5 59v203h-63q-15 0 -26 11t-11 26zM457 1100v-221q50 19 80 68t30 116q0 45 -19 78t-46 33q-18 0 -31.5 -18t-13.5 -56z" />
    <glyph glyph-name="trademark" unicode="&#x2122;" horiz-adv-x="1390" 
d="M219 1028v344h-90q-15 0 -26 11t-11 26v102q0 15 11 26t26 11h367q15 0 25.5 -11t10.5 -26v-102q0 -15 -10.5 -26t-25.5 -11h-93v-344q0 -15 -10.5 -26t-25.5 -11h-111q-15 0 -26 11t-11 26zM920 987q-12 0 -19 10l-106 185l-47 -156q-5 -15 -18 -25t-30 -10h-120
q-13 0 -21.5 11.5t-3.5 23.5l197 506q7 14 20 14q15 0 21 -12l129 -219l116 217q10 14 23 14q15 0 22 -14l201 -506q5 -12 -2 -23.5t-20 -11.5h-115q-35 0 -49 35l-54 164l-106 -193q-7 -10 -18 -10z" />
    <glyph glyph-name="estimated" unicode="&#x212e;" horiz-adv-x="1658" 
d="M1278 362l90 -73q12 -9 13.5 -24t-7.5 -27q-110 -131 -240 -193.5t-307 -62.5q-113 0 -210 25t-168 67.5t-127.5 101.5t-93 124.5t-61 139t-34.5 142.5t-10 137q0 66 10 133t34.5 139.5t61 137.5t93 124t127.5 102t168 68t210 25q114 0 211.5 -25t168.5 -68t128.5 -102
t94 -124t61 -137.5t35 -139.5t10.5 -133v-31q0 -15 -11 -26t-26 -11h-1036v-325q140 -166 364 -166q121 0 217 50.5t181 145.5q10 12 25.5 13.5t27.5 -7.5zM827 1272q-118 0 -210.5 -47t-153.5 -119v-277h729v285q-136 158 -365 158z" />
    <glyph glyph-name="onethird" unicode="&#x2153;" horiz-adv-x="1290" 
d="M1032 1401l-682 -1368q-16 -33 -53 -33h-135q-12 0 -19.5 11.5t-1.5 21.5l684 1368q17 33 54 33h133q12 0 19 -11.5t1 -21.5zM375 1403v-596q0 -15 -11 -26t-26 -11h-107q-15 0 -25.5 11t-10.5 26v389l-52 -29q-14 -6 -28.5 -1.5t-22.5 16.5l-33 53q-8 12 -4 28t17 23
l182 131q33 23 68 23h16q15 0 26 -11t11 -26zM1225 467q0 -33 -17.5 -71.5t-46.5 -63.5q64 -50 64 -131q0 -24 -6 -50t-22.5 -56t-42 -53t-69 -38.5t-98.5 -15.5q-116 0 -209 75q-12 9 -13 25t9 27l51 57q10 10 26 11t28 -7q46 -31 108 -31q29 0 50.5 16t21.5 40
q0 30 -21 46.5t-51 16.5h-76q-15 0 -26 11t-11 26v64q0 15 11 25.5t26 10.5h76q30 0 51 17.5t21 48.5q0 25 -21.5 40t-50.5 15q-50 0 -106 -37q-13 -8 -29.5 -5.5t-26.5 14.5l-47 53q-11 12 -10.5 28t12.5 25q96 80 207 80q55 0 98.5 -15t69 -38t42 -52.5t22.5 -56t6 -51.5z
" />
    <glyph glyph-name="twothirds" unicode="&#x2154;" horiz-adv-x="1413" 
d="M1147 1401l-682 -1368q-17 -33 -53 -33h-136q-9 0 -15.5 7t-6.5 16q0 6 2 10l684 1368q16 33 53 33h133q9 0 16 -7.5t7 -15.5t-2 -10zM1339 467q0 -33 -17 -71.5t-46 -63.5q63 -50 63 -131q0 -31 -10.5 -64t-35 -68.5t-74 -58t-117.5 -22.5q-70 0 -146.5 33t-76.5 69
q0 15 10 25l51 57q10 10 29 10q12 0 24 -6q46 -31 109 -31q29 0 50.5 16t21.5 40q0 30 -21 46.5t-51 16.5h-76q-15 0 -26 11t-11 26v64q0 15 11 25.5t26 10.5h76q30 0 51 17.5t21 48.5q0 25 -21.5 40t-50.5 15q-16 0 -65 -21.5t-66 -21.5q-19 0 -31 15l-47 53q-10 10 -10 26
q0 35 76 71t143 36q68 0 117.5 -22t74 -57t35 -68t10.5 -66zM139 1229l-57 55q-12 12 -12 29q0 14 10 24q105 113 233 113q103 0 163.5 -62t60.5 -151q0 -78 -82 -193l-84 -116h118q15 0 26 -11t11 -26v-86q0 -15 -11 -26t-26 -11h-346q-13 0 -23.5 10.5t-10.5 24.5
q0 36 18 63l190 281q37 53 37 88q0 17 -13.5 32t-35.5 15q-46 0 -112 -53q-10 -10 -27 -10q-20 0 -27 10z" />
    <glyph glyph-name="oneeighth" unicode="&#x215b;" horiz-adv-x="1286" 
d="M1032 1401l-682 -1368q-16 -33 -53 -33h-135q-9 0 -16 7t-7 16q0 6 2 10l684 1368q17 33 54 33h133q9 0 15.5 -7.5t6.5 -15.5t-2 -10zM375 1403v-596q0 -15 -11 -26t-26 -11h-107q-15 0 -25.5 11t-10.5 26v389l-52 -29q-12 -4 -18 -4q-23 0 -33 19l-33 53q-6 9 -6 18
q0 23 19 33l182 131q33 23 68 23h16q15 0 26 -11t11 -26zM1214 473q0 -34 -18.5 -75.5t-54.5 -63.5q71 -46 71 -148q0 -31 -10.5 -62t-34 -63.5t-71 -52.5t-113.5 -20q-54 0 -97 13.5t-68 34t-41.5 48.5t-22.5 53t-6 51q0 38 19 83t52 65q-33 16 -52 55.5t-19 79.5
q0 29 10.5 60.5t35 66t73.5 56.5t116 22q66 0 114 -19.5t72 -51.5t34.5 -64.5t10.5 -67.5zM983 145q23 0 40 15t17 39t-17 38.5t-40 14.5q-25 0 -43 -14.5t-18 -38.5t18.5 -39t42.5 -15zM983 412q23 0 40 14.5t17 38.5q0 25 -17 40t-40 15q-25 0 -43 -15t-18 -40
q0 -24 18 -38.5t43 -14.5z" />
    <glyph glyph-name="threeeighths" unicode="&#x215c;" horiz-adv-x="1318" 
d="M1106 1401l-682 -1368q-16 -33 -53 -33h-135q-9 0 -16 7t-7 16q0 6 2 10l684 1368q17 33 53 33h133q9 0 16 -7.5t7 -15.5t-2 -10zM1253 473q0 -34 -18.5 -75.5t-54.5 -63.5q71 -46 71 -148q0 -31 -10.5 -62t-34 -63.5t-71 -52.5t-113.5 -20q-67 0 -116 19.5t-73.5 51.5
t-35.5 64t-11 65q0 38 19.5 83t52.5 65q-33 16 -52.5 55.5t-19.5 79.5q0 22 6 47t22.5 53.5t42 51.5t68.5 38t97 15q66 0 114 -19.5t72 -51.5t34.5 -64.5t10.5 -67.5zM1022 145q23 0 40 15t17 39t-17 38.5t-40 14.5q-25 0 -43 -14.5t-18 -38.5t18.5 -39t42.5 -15zM1022 412
q23 0 40 14.5t17 38.5q0 25 -17 40t-40 15q-25 0 -43 -15t-18 -40q0 -24 18 -38.5t43 -14.5zM520 1225q0 -33 -17 -71.5t-46 -63.5q63 -50 63 -132q0 -31 -10.5 -64t-35 -68.5t-74 -58t-117.5 -22.5q-70 0 -147 33.5t-77 69.5q0 13 11 24l51 58q10 10 29 10q12 0 24 -6
q46 -31 109 -31q29 0 50 15.5t21 39.5q0 31 -20.5 47.5t-50.5 16.5h-76q-15 0 -26 11t-11 26v63q0 15 11 26t26 11h76q29 0 50 17.5t21 48.5q0 25 -21 40t-50 15q-17 0 -66 -21.5t-65 -21.5q-20 0 -31 14l-47 54q-11 11 -11 26q0 35 76.5 71t143.5 36q68 0 117.5 -22t74 -57
t35 -68t10.5 -66z" />
    <glyph glyph-name="fiveeighths" unicode="&#x215d;" horiz-adv-x="1341" 
d="M539 993q0 -26 -7 -54.5t-25 -61.5t-45 -59t-72.5 -43t-102.5 -17q-130 0 -226 96q-10 12 -9.5 27t11.5 26l64 58q11 9 25.5 8t25.5 -10q48 -41 111 -41q33 0 53 22.5t20 48.5q0 31 -20 50.5t-55 19.5h-144q-15 0 -26 11t-11 26v301q0 15 11 26t26 11h314q15 0 26 -11
t11 -26v-76q0 -15 -11 -26t-26 -11h-172v-80q61 0 108 -14t74 -35.5t44 -51.5t22.5 -57t5.5 -57zM1180 334q71 -46 71 -148q0 -31 -10.5 -62t-34 -63.5t-71 -52.5t-113.5 -20q-67 0 -116 19.5t-73.5 51.5t-35.5 64t-11 65q0 38 19.5 83t52.5 65q-33 16 -52.5 55.5
t-19.5 79.5q0 22 6 47t22.5 53.5t42 51.5t68.5 38t97 15q66 0 114 -19.5t72 -51.5t34.5 -64.5t10.5 -67.5q0 -34 -18.5 -75.5t-54.5 -63.5zM1022 145q23 0 40 15t17 39t-17 38.5t-40 14.5q-25 0 -43 -14.5t-18 -38.5t18.5 -39t42.5 -15zM1022 412q23 0 40 14.5t17 38.5
q0 25 -17 40t-40 15q-25 0 -43 -15t-18 -40q0 -24 18 -38.5t43 -14.5zM952 1434h133q12 0 19.5 -11.5t1.5 -21.5l-682 -1368q-16 -33 -53 -33h-135q-12 0 -19.5 11.5t-1.5 21.5l684 1368q17 33 53 33z" />
    <glyph glyph-name="seveneighths" unicode="&#x215e;" horiz-adv-x="1257" 
d="M877 1434h133q12 0 19 -11.5t1 -21.5l-682 -1368q-16 -33 -53 -33h-135q-12 0 -19.5 11.5t-1.5 21.5l684 1368q17 33 54 33zM225 764h-108q-14 0 -21.5 11.5t-1.5 23.5l185 473h-177q-15 0 -25.5 11t-10.5 26v88q0 15 10.5 26t25.5 11h375q13 0 23 -10t10 -23
q0 -33 -12 -60l-222 -542q-14 -35 -51 -35zM1104 334q41 -27 56.5 -69.5t15.5 -78.5q0 -24 -6 -48.5t-22 -52t-40.5 -48.5t-66.5 -35t-95 -14q-54 0 -97 13.5t-68 34t-41.5 48.5t-22.5 53t-6 51q0 38 19 83t52 65q-33 16 -52 55.5t-19 79.5q0 29 10.5 60.5t35 66t73.5 56.5
t116 22q66 0 114 -19.5t72.5 -51.5t35 -64.5t10.5 -67.5q0 -34 -19 -75.5t-55 -63.5zM946 145q23 0 40.5 15t17.5 39t-17.5 38.5t-40.5 14.5q-25 0 -43 -14.5t-18 -38.5t18.5 -39t42.5 -15zM946 412q23 0 40.5 14.5t17.5 38.5q0 25 -17.5 40t-40.5 15q-25 0 -43 -15t-18 -40
q0 -24 18 -38.5t43 -14.5z" />
    <glyph glyph-name="arrowleft" unicode="&#x2190;" horiz-adv-x="1300" 
d="M1141 387h-514l200 -217q9 -10 8.5 -26t-10.5 -25l-137 -129q-11 -10 -26.5 -9.5t-26.5 11.5l-500 506q-12 12 -12 28q0 19 12 31l496 510q11 11 27 11t26 -11l135 -133q11 -11 11.5 -26.5t-9.5 -26.5l-192 -213h512q15 0 26 -11t11 -26v-207q0 -15 -11 -26t-26 -11z" />
    <glyph glyph-name="arrowup" unicode="&#x2191;" horiz-adv-x="1374" 
d="M545 39v514l-217 -201q-11 -10 -27 -9.5t-25 11.5l-129 138q-10 11 -9 26.5t12 26.5l505 499q13 13 29 13q18 0 31 -13l510 -495q11 -11 11 -27t-11 -26l-133 -136q-11 -11 -27 -11.5t-27 9.5l-213 193v-512q0 -15 -11 -26t-26 -11h-206q-15 0 -26 11t-11 26z" />
    <glyph glyph-name="arrowright" unicode="&#x2192;" horiz-adv-x="1300" 
d="M674 387h-514q-15 0 -26 11t-11 26v207q0 15 11 26t26 11h512l-193 213q-10 11 -9.5 26.5t11.5 26.5l135 133q10 11 27 11t27 -11l495 -510q13 -13 13 -31q0 -15 -13 -28l-499 -506q-11 -11 -27 -11.5t-27 9.5l-137 129q-11 9 -11.5 24.5t9.5 26.5z" />
    <glyph glyph-name="arrowdown" unicode="&#x2193;" horiz-adv-x="1374" 
d="M545 506v514q0 15 11 26t26 11h206q15 0 26 -11t11 -26v-512l213 192q11 10 27 9.5t27 -11.5l133 -135q11 -11 11 -27t-11 -26l-510 -496q-12 -12 -31 -12q-17 0 -29 12l-505 500q-11 11 -12 26.5t9 26.5l129 138q9 10 25.5 10.5t26.5 -8.5z" />
    <glyph glyph-name="partialdiff" unicode="&#x2202;" 
d="M332 1253l119 172q9 13 24.5 17t28.5 -4q108 -63 205.5 -155t183 -214t136 -279.5t50.5 -326.5q0 -49 -11.5 -105t-45 -123.5t-84.5 -121t-139 -89.5t-199 -36t-198.5 34.5t-138 85t-84 116t-45 119.5t-11.5 103t8 97t26 101t51.5 98t80 82.5t117 61.5t157.5 29
q39 0 74 -6q-43 73 -96.5 131.5t-93.5 89t-105 72.5q-12 9 -15 24t5 27zM600 276q82 0 128 53t46 126q-3 75 -47.5 125.5t-126.5 50.5q-83 0 -127.5 -52t-44.5 -124q0 -73 46 -126t126 -53z" />
    <glyph glyph-name="product" unicode="&#x220f;" horiz-adv-x="1251" 
d="M233 37v1110h-104q-15 0 -26 11t-11 26v213q0 15 11 26t26 11h993q15 0 26 -11t11 -26v-213q0 -15 -11 -26t-26 -11h-98v-1110q0 -15 -11 -26t-26 -11h-246q-15 0 -25.5 11t-10.5 26v1110h-154v-1110q0 -15 -11 -26t-26 -11h-244q-15 0 -26 11t-11 26z" />
    <glyph glyph-name="summation" unicode="&#x2211;" horiz-adv-x="1110" 
d="M594 1147l260 -399q9 -14 9 -31t-9 -31l-260 -399h418q15 0 26 -11t11 -26v-213q0 -15 -11 -26t-26 -11h-901q-9 0 -16 7t-7 16q0 24 12 45l418 649l-418 653q-12 18 -12 41q0 9 7 16t16 7h901q15 0 26 -11t11 -26v-213q0 -15 -11 -26t-26 -11h-418z" />
    <glyph glyph-name="minus" unicode="&#x2212;" horiz-adv-x="1140" 
d="M190 877h775q15 0 25.5 -11t10.5 -26v-125q0 -15 -10.5 -26t-25.5 -11h-775q-15 0 -25.5 11t-10.5 26v125q0 15 10.5 26t25.5 11z" />
    <glyph glyph-name="radical" unicode="&#x221a;" horiz-adv-x="1445" 
d="M602 643l328 756q14 35 51 35h367q15 0 25.5 -11t10.5 -26v-187q0 -15 -10.5 -25.5t-25.5 -10.5h-189l-538 -1164q-6 -9 -17 -9.5t-16 9.5l-510 981q-6 10 1 21.5t19 11.5h275q37 0 53 -33z" />
    <glyph glyph-name="infinity" unicode="&#x221e;" horiz-adv-x="1372" 
d="M459 293q-76 0 -134.5 27t-92.5 72t-51 99t-17 113q0 58 17 111t51 99t92.5 73.5t134.5 27.5q65 0 125.5 -32.5t103.5 -85.5q39 54 98.5 86t126.5 32q77 0 135.5 -27.5t92.5 -73.5t50.5 -99.5t16.5 -112.5t-16.5 -112t-50.5 -98t-92.5 -72t-135.5 -27q-64 0 -124 31
t-101 82q-41 -52 -100.5 -82.5t-128.5 -30.5zM897 516q34 0 56 25t22 61q0 33 -22 56.5t-56 23.5q-58 0 -92 -80q35 -86 92 -86zM477 516q55 0 90 88q-32 80 -90 80q-35 0 -56.5 -21.5t-21.5 -58.5q0 -41 21 -64.5t57 -23.5z" />
    <glyph glyph-name="integral" unicode="&#x222b;" horiz-adv-x="993" 
d="M852 1120q-81 47 -141 47q-86 0 -86 -123v-1058q0 -25 -2 -50t-10.5 -66.5t-23 -77t-42.5 -74t-66 -66t-96.5 -45t-130.5 -17.5q-82 0 -166.5 34t-142.5 79q-12 9 -13.5 25.5t7.5 29.5l90 146q9 12 24 15.5t27 -3.5q81 -47 141 -47q86 0 86 123v1059q0 25 2 50t10.5 66
t23 76.5t42.5 74t66 66t96.5 45t130.5 17.5q82 0 165.5 -34t141.5 -79q29 -23 8 -55l-90 -145q-9 -12 -24 -16t-27 3z" />
    <glyph glyph-name="approxequal" unicode="&#x2248;" horiz-adv-x="1331" 
d="M309 625l-114 82q-13 7 -17 23t4 28q142 231 346 231q35 0 72.5 -11.5t57.5 -21.5t59 -32q86 -50 135 -50q65 0 156 107q9 12 24.5 13.5t28.5 -7.5l117 -84q13 -10 16.5 -26t-4.5 -29q-71 -118 -159.5 -177t-180.5 -59q-95 0 -213 74q-88 45 -117 45q-74 0 -158 -98
q-9 -12 -25 -14t-28 6zM309 160l-114 82q-13 7 -17 23t4 28q142 231 346 231q35 0 72.5 -11.5t57.5 -21.5t59 -32q84 -49 135 -49q66 0 156 106q9 12 24.5 13.5t28.5 -7.5l117 -84q13 -10 16.5 -26t-4.5 -29q-71 -118 -159.5 -177t-180.5 -59q-95 0 -213 74q-88 45 -117 45
q-74 0 -158 -98q-9 -12 -25 -14t-28 6z" />
    </font>
</defs>
</svg>
