<?xml version="1.0" standalone="no"?>
<!DOCTYPE svg PUBLIC "-//W3C//DTD SVG 1.1//EN" "http://www.w3.org/Graphics/SVG/1.1/DTD/svg11.dtd" >
<svg xmlns="http://www.w3.org/2000/svg" xmlns:xlink="http://www.w3.org/1999/xlink" version="1.1">
<metadata>
Created by FontForge 20170731 at Sat Feb  5 18:00:02 2022
 By Aleksey,,,
Copyright (c) 2013 by Ahmet Altun. All rights reserved.
</metadata>
<defs>
<font id="HalisR-Book" horiz-adv-x="1179" >
  <font-face 
    font-family="Halis R Book"
    font-weight="400"
    font-stretch="normal"
    units-per-em="2048"
    panose-1="2 0 5 5 0 0 0 2 0 4"
    ascent="1638"
    descent="-410"
    x-height="1024"
    cap-height="1434"
    bbox="-354.381 -690 2256.6 2028"
    underline-thickness="102"
    underline-position="-368"
    unicode-range="U+0020-FB04"
  />
<missing-glyph horiz-adv-x="1003" 
d="M430 428q0 -25 19 -43t45 -18q25 0 42 18t17 43t-17 41t-42 16q-27 0 -45.5 -16.5t-18.5 -40.5zM537 547v57q0 22 23.5 54t51 61t51 73.5t23.5 88.5q0 79 -50 123.5t-128 44.5q-65 0 -112 -25t-101 -82l59 -57q38 40 67.5 58.5t65.5 19.5q30 2 50.5 -6t30 -23t13 -28.5
t3.5 -26.5q0 -32 -14.5 -61.5t-35 -53t-41 -46.5t-35 -51.5t-14.5 -58.5v-61h93zM942 1300v-1167q0 -12 -9.5 -21.5t-21.5 -9.5h-819q-12 0 -21.5 9.5t-9.5 21.5v1167q0 12 9.5 21.5t21.5 9.5h819q12 0 21.5 -9.5t9.5 -21.5z" />
    <glyph glyph-name="f_f" unicode="ff" horiz-adv-x="1257" 
d="M1268 1374l-21 -67q-5 -12 -16 -17.5t-23 -1.5q-83 25 -155 25q-86 0 -141.5 -45.5t-55.5 -151.5v-92h188q12 0 21.5 -9.5t9.5 -21.5v-71q0 -12 -9.5 -21.5t-21.5 -9.5h-188v-858q0 -12 -9.5 -21.5t-21.5 -9.5h-110q-12 0 -21.5 9.5t-9.5 21.5v858h-362v-858
q0 -12 -9.5 -21.5t-21.5 -9.5h-111q-12 0 -21 9.5t-9 21.5v858h-99q-12 0 -21.5 9.5t-9.5 21.5v71q0 12 9.5 21.5t21.5 9.5h99v100q0 161 98 244.5t250 83.5q65 0 147 -22t139 -58q92 80 248 80q113 0 217 -39q12 -5 17.5 -16t1.5 -23zM322 1024h362v100q0 78 21 131
q-36 25 -90 41.5t-97 16.5q-40 0 -73 -9.5t-62 -31t-45 -61.5t-16 -95v-92z" />
    <glyph glyph-name="fi" unicode="fi" horiz-adv-x="1042" 
d="M879 993v-964q0 -12 -9.5 -21.5t-21.5 -9.5h-109q-12 0 -21 9.5t-9 21.5v862h-387v-858q0 -12 -9.5 -21.5t-21.5 -9.5h-111q-12 0 -21 9.5t-9 21.5v858h-99q-12 0 -21.5 9.5t-9.5 21.5v71q0 12 9.5 21.5t21.5 9.5h99v100q0 161 98 244.5t250 83.5q113 0 217 -39
q12 -5 17 -16t1 -23l-20 -67q-5 -12 -16 -17.5t-23 -1.5q-83 25 -156 25q-40 0 -73 -9.5t-62 -31t-45 -61.5t-16 -95v-92h526q12 0 21.5 -9.5t9.5 -21.5z" />
    <glyph glyph-name="fl" unicode="fl" horiz-adv-x="1067" 
d="M903 1403v-1372q0 -12 -9.5 -21.5t-21.5 -9.5h-108q-12 0 -21.5 9.5t-9.5 21.5v1177q-91 95 -221 95q-83 0 -136.5 -45t-53.5 -142v-92h215q12 0 21 -9.5t9 -21.5v-71q0 -12 -9 -21.5t-21 -9.5h-215v-858q0 -12 -9.5 -21.5t-21.5 -9.5h-111q-12 0 -21 9.5t-9 21.5v858
h-99q-12 0 -21.5 9.5t-9.5 21.5v71q0 12 9.5 21.5t21.5 9.5h99v100q0 85 26.5 149.5t73 101.5t103 55t122.5 18q80 0 160.5 -30.5t138.5 -92.5l25 80q11 29 41 29h32q12 0 21.5 -9.5t9.5 -21.5z" />
    <glyph glyph-name="f_f_i" unicode="ffi" horiz-adv-x="1574" 
d="M1411 993v-964q0 -12 -9.5 -21.5t-21.5 -9.5h-108q-12 0 -21.5 9.5t-9.5 21.5v862h-387v-858q0 -12 -9.5 -21.5t-21.5 -9.5h-110q-12 0 -21.5 9.5t-9.5 21.5v858h-360v-858q0 -12 -9.5 -21.5t-21.5 -9.5h-111q-12 0 -21 9.5t-9 21.5v858h-99q-12 0 -21.5 9.5t-9.5 21.5
v71q0 12 9.5 21.5t21.5 9.5h99v100q0 161 98 244.5t250 83.5q65 0 146.5 -21.5t137.5 -58.5q92 80 248 80q113 0 217 -39q12 -5 17.5 -16t1.5 -23l-21 -67q-5 -12 -16 -17.5t-23 -1.5q-83 25 -155 25q-86 0 -141.5 -45.5t-55.5 -151.5v-92h526q12 0 21.5 -9.5t9.5 -21.5z
M682 1024v100q0 81 20 131q-36 26 -88.5 42t-95.5 16q-40 0 -73 -9.5t-62 -31t-45 -61.5t-16 -95v-92h360z" />
    <glyph glyph-name="f_f_l" unicode="ffl" horiz-adv-x="1601" 
d="M1438 1403v-1372q0 -12 -9.5 -21.5t-21.5 -9.5h-109q-12 0 -21 9.5t-9 21.5v1177q-91 95 -221 95q-83 0 -137 -45t-54 -142v-92h215q12 0 21.5 -9.5t9.5 -21.5v-71q0 -12 -9.5 -21.5t-21.5 -9.5h-215v-860q0 -12 -9.5 -21.5t-21.5 -9.5h-110q-12 0 -21.5 9.5t-9.5 21.5
v860h-362v-860q0 -12 -9.5 -21.5t-21.5 -9.5h-111q-12 0 -21 9.5t-9 21.5v860h-99q-12 0 -21.5 9.5t-9.5 21.5v71q0 12 9.5 21.5t21.5 9.5h99v100q0 161 98 244.5t250 83.5q65 0 146.5 -21.5t137.5 -58.5q87 76 228 76q80 0 160.5 -30.5t138.5 -92.5l24 80q11 29 41 29h33
q12 0 21.5 -9.5t9.5 -21.5zM684 1024v100q0 76 21 131q-36 25 -90 41.5t-97 16.5q-40 0 -73 -9.5t-62 -31t-45 -61.5t-16 -95v-92h362z" />
    <glyph glyph-name="f_h" unicode="fh" horiz-adv-x="1748" 
d="M903 1403v-481q138 116 311 116q103 0 180 -32t120 -80.5t69.5 -119.5t34.5 -135.5t8 -142.5v-497q0 -12 -9.5 -21.5t-21.5 -9.5h-106q-12 0 -21.5 9.5t-9.5 21.5v497q0 200 -66 285.5t-210 85.5q-86 0 -167.5 -43.5t-111.5 -99.5v-725q0 -12 -9.5 -21.5t-21.5 -9.5h-108
q-12 0 -21.5 9.5t-9.5 21.5v1177q-91 95 -221 95q-83 0 -136.5 -45t-53.5 -142v-92h215q12 0 21 -9.5t9 -21.5v-71q0 -12 -9 -21.5t-21 -9.5h-215v-858q0 -12 -9.5 -21.5t-21.5 -9.5h-111q-12 0 -21 9.5t-9 21.5v858h-99q-12 0 -21.5 9.5t-9.5 21.5v71q0 12 9.5 21.5
t21.5 9.5h99v100q0 85 26.5 149.5t73 101.5t103 55t122.5 18q80 0 160.5 -30.5t138.5 -92.5l25 80q11 29 41 29h32q12 0 21.5 -9.5t9.5 -21.5z" />
    <glyph glyph-name="f_j" unicode="fj" horiz-adv-x="1044" 
d="M879 993v-1022v-4q1 -20 0.5 -37.5t-6.5 -60t-17 -77t-36 -77t-59.5 -71t-91.5 -48.5t-128 -20q-129 0 -236 68q-11 8 -13 20.5t5 24.5l39 59q6 11 19 14.5t24 -2.5q73 -36 147 -36q85 0 134 59t49 188v920h-387v-860q0 -12 -9.5 -21.5t-21.5 -9.5h-111q-12 0 -21 9.5
t-9 21.5v860h-99q-12 0 -21.5 9.5t-9.5 21.5v71q0 12 9.5 21.5t21.5 9.5h99v100q0 161 98 244.5t250 83.5q113 0 217 -39q12 -5 17 -16t1 -23l-20 -67q-5 -12 -16 -17.5t-23 -1.5q-83 25 -156 25q-40 0 -73 -9.5t-62 -31t-45 -61.5t-16 -95v-92h526q12 0 21.5 -9.5
t9.5 -21.5z" />
    <glyph glyph-name="f_k" unicode="fk" horiz-adv-x="1677" 
d="M905 508v-479q0 -12 -9.5 -21.5t-21.5 -9.5h-110q-12 0 -21.5 9.5t-9.5 21.5v1179q-91 95 -221 95q-83 0 -136.5 -45t-53.5 -142v-92h215q12 0 21 -9.5t9 -21.5v-71q0 -12 -9 -21.5t-21 -9.5h-215v-858q0 -12 -9.5 -21.5t-21.5 -9.5h-111q-12 0 -21 9.5t-9 21.5v858h-99
q-12 0 -21.5 9.5t-9.5 21.5v71q0 12 9.5 21.5t21.5 9.5h99v100q0 85 26.5 149.5t73 101.5t103 55t122.5 18q80 0 160.5 -30.5t138.5 -92.5l25 80q11 29 41 29h34q12 0 21.5 -9.5t9.5 -21.5v-860l457 456q23 23 53 23h148q8 0 11 -8t-3 -13l-481 -466l522 -517q6 -4 3 -12
t-11 -8h-156q-31 0 -53 22z" />
    <glyph glyph-name="f_b" unicode="fb" horiz-adv-x="1820" 
d="M1188 1038q112 0 202.5 -34.5t146.5 -89t93.5 -126t52.5 -140.5t15 -138q0 -70 -15 -139.5t-52.5 -140t-92.5 -124.5t-143 -88t-197 -34q-211 0 -334 143l-33 -98q-11 -29 -40 -29h-27q-12 0 -21.5 9.5t-9.5 21.5v1177q-91 95 -221 95q-83 0 -136.5 -45t-53.5 -142v-92
h215q12 0 21 -9.5t9 -21.5v-71q0 -12 -9 -21.5t-21 -9.5h-215v-858q0 -12 -9.5 -21.5t-21.5 -9.5h-111q-12 0 -21 9.5t-9 21.5v858h-99q-12 0 -21.5 9.5t-9.5 21.5v71q0 12 9.5 21.5t21.5 9.5h99v100q0 85 26.5 149.5t73 101.5t103 55t122.5 18q80 0 160.5 -30.5
t138.5 -92.5l25 80q11 29 41 29h32q12 0 21.5 -9.5t9.5 -21.5v-436q139 71 285 71zM1190 137q84 0 149 30t99.5 72t56.5 97t28.5 96t6.5 78q0 40 -8 85.5t-32.5 101t-62.5 98.5t-104.5 72.5t-151.5 29.5q-60 0 -139.5 -26.5t-126.5 -61.5v-535q39 -53 116 -95t169 -42z" />
    <glyph glyph-name="f_f_b" unicode="ffb" horiz-adv-x="2355" 
d="M1722 1036q112 0 202.5 -34.5t146.5 -89t93.5 -126t52.5 -140.5t15 -138q0 -70 -15 -139t-52 -140t-92 -125t-143 -88t-197 -34q-211 0 -334 143q-1 -6 -33 -98q-11 -29 -41 -29h-27q-12 0 -21 9.5t-9 21.5v1179q-91 95 -221 95q-83 0 -137 -45t-54 -142v-92h215
q12 0 21.5 -9.5t9.5 -21.5v-71q0 -12 -9.5 -21.5t-21.5 -9.5h-215v-860q0 -12 -9.5 -21.5t-21.5 -9.5h-110q-12 0 -21.5 9.5t-9.5 21.5v860h-362v-860q0 -12 -9.5 -21.5t-21.5 -9.5h-111q-12 0 -21 9.5t-9 21.5v860h-99q-12 0 -21.5 9.5t-9.5 21.5v71q0 12 9.5 21.5
t21.5 9.5h99v100q0 161 98 244.5t250 83.5q65 0 146.5 -21.5t137.5 -58.5q87 76 228 76q80 0 160.5 -30.5t138.5 -92.5l24 80q11 29 41 29h33q12 0 21.5 -9.5t9.5 -21.5v-438q139 71 284 71zM684 1124q0 76 21 131q-36 25 -90 41.5t-97 16.5q-40 0 -73 -9.5t-62 -31
t-45 -61.5t-16 -95v-92h362v100zM1722 135q84 0 149 30t99.5 72t56.5 97t28.5 96t6.5 78q0 41 -8 86t-32.5 100.5t-62 98.5t-104 72.5t-151.5 29.5q-60 0 -139.5 -26.5t-126.5 -61.5v-535q39 -53 116 -95t168 -42z" />
    <glyph glyph-name="f_f_h" unicode="ffh" horiz-adv-x="2283" 
d="M1438 1403v-481q138 116 311 116q103 0 180 -32t120 -80.5t69.5 -119.5t34.5 -135.5t8 -142.5v-497q0 -12 -9.5 -21.5t-21.5 -9.5h-107q-12 0 -21 9.5t-9 21.5v497q0 200 -66.5 285.5t-210.5 85.5q-86 0 -167 -43.5t-111 -99.5v-725q0 -12 -9.5 -21.5t-21.5 -9.5h-109
q-12 0 -21 9.5t-9 21.5v1177q-91 95 -221 95q-83 0 -137 -45t-54 -142v-92h215q12 0 21.5 -9.5t9.5 -21.5v-71q0 -12 -9.5 -21.5t-21.5 -9.5h-215v-860q0 -12 -9.5 -21.5t-21.5 -9.5h-110q-12 0 -21.5 9.5t-9.5 21.5v860h-362v-860q0 -12 -9.5 -21.5t-21.5 -9.5h-111
q-12 0 -21 9.5t-9 21.5v860h-99q-12 0 -21.5 9.5t-9.5 21.5v71q0 12 9.5 21.5t21.5 9.5h99v100q0 161 98 244.5t250 83.5q65 0 146.5 -21.5t137.5 -58.5q87 76 228 76q80 0 160.5 -30.5t138.5 -92.5l24 80q11 29 41 29h33q12 0 21.5 -9.5t9.5 -21.5zM684 1024v100
q0 76 21 131q-36 25 -90 41.5t-97 16.5q-40 0 -73 -9.5t-62 -31t-45 -61.5t-16 -95v-92h362z" />
    <glyph glyph-name="f_f_j" unicode="ffj" horiz-adv-x="1574" 
d="M1411 993l2 -1009q0 -135 -41 -223q-83 -172 -299 -173q-128 0 -235 68q-11 8 -13.5 20.5t4.5 24.5l39 59q6 11 19 15t24 -2q75 -37 148 -37q85 0 133.5 59.5t48.5 188.5v907h-387v-858q0 -12 -9.5 -21.5t-21.5 -9.5h-110q-12 0 -21.5 9.5t-9.5 21.5v858h-360v-858
q0 -12 -9.5 -21.5t-21.5 -9.5h-111q-12 0 -21 9.5t-9 21.5v858h-99q-12 0 -21.5 9.5t-9.5 21.5v71q0 12 9.5 21.5t21.5 9.5h99v100q0 161 98 244.5t250 83.5q65 0 146.5 -21.5t137.5 -58.5q92 80 248 80q113 0 217 -39q12 -5 17.5 -16t1.5 -23l-21 -67q-5 -12 -16 -17.5
t-23 -1.5q-83 25 -155 25q-86 0 -141.5 -45.5t-55.5 -151.5v-92h526q12 0 21.5 -9.5t9.5 -21.5zM682 1024v100q0 81 20 131q-36 26 -88.5 42t-95.5 16q-40 0 -73 -9.5t-62 -31t-45 -61.5t-16 -95v-92h360z" />
    <glyph glyph-name="f_f_k" unicode="ffk" horiz-adv-x="2211" 
d="M1440 508v-479q0 -12 -9.5 -21.5t-21.5 -9.5h-111q-12 0 -21 9.5t-9 21.5v1179q-91 95 -221 95q-83 0 -137 -45t-54 -142v-92h215q12 0 21.5 -9.5t9.5 -21.5v-71q0 -12 -9.5 -21.5t-21.5 -9.5h-215v-860q0 -12 -9.5 -21.5t-21.5 -9.5h-110q-12 0 -21.5 9.5t-9.5 21.5v860
h-362v-860q0 -12 -9.5 -21.5t-21.5 -9.5h-111q-12 0 -21 9.5t-9 21.5v860h-99q-12 0 -21.5 9.5t-9.5 21.5v71q0 12 9.5 21.5t21.5 9.5h99v100q0 161 98 244.5t250 83.5q65 0 146.5 -21.5t137.5 -58.5q87 76 228 76q80 0 160.5 -30.5t138.5 -92.5l24 80q11 29 41 29h35
q12 0 21.5 -9.5t9.5 -21.5v-860l456 456q23 23 54 23h147q8 0 11 -8t-3 -13l-481 -466l522 -517q6 -4 3 -12t-11 -8h-156q-31 0 -53 22zM684 1024v100q0 76 21 131q-36 25 -90 41.5t-97 16.5q-40 0 -73 -9.5t-62 -31t-45 -61.5t-16 -95v-92h362z" />
    <glyph glyph-name=".notdef" horiz-adv-x="1003" 
d="M430 428q0 -25 19 -43t45 -18q25 0 42 18t17 43t-17 41t-42 16q-27 0 -45.5 -16.5t-18.5 -40.5zM537 547v57q0 22 23.5 54t51 61t51 73.5t23.5 88.5q0 79 -50 123.5t-128 44.5q-65 0 -112 -25t-101 -82l59 -57q38 40 67.5 58.5t65.5 19.5q30 2 50.5 -6t30 -23t13 -28.5
t3.5 -26.5q0 -32 -14.5 -61.5t-35 -53t-41 -46.5t-35 -51.5t-14.5 -58.5v-61h93zM942 1300v-1167q0 -12 -9.5 -21.5t-21.5 -9.5h-819q-12 0 -21.5 9.5t-9.5 21.5v1167q0 12 9.5 21.5t21.5 9.5h819q12 0 21.5 -9.5t9.5 -21.5z" />
    <glyph glyph-name=".null" horiz-adv-x="0" 
 />
    <glyph glyph-name="nonmarkingreturn" horiz-adv-x="682" 
 />
    <glyph glyph-name="space" unicode=" " horiz-adv-x="614" 
 />
    <glyph glyph-name="exclam" unicode="!" horiz-adv-x="620" 
d="M395 1403v-549l-39 -397q0 -13 -10 -22t-22 -9h-33q-14 0 -23.5 9t-9.5 22l-33 397v549q0 12 9.5 21.5t21.5 9.5h109q12 0 21 -9.5t9 -21.5zM205 98q0 44 30 74.5t74 30.5t75.5 -30.5t31.5 -74.5t-31.5 -75t-75.5 -31t-74 31t-30 75z" />
    <glyph glyph-name="quotedbl" unicode="&#x22;" horiz-adv-x="657" 
d="M121 973l-37 430q0 12 8.5 21.5t20.5 9.5h112q12 0 20.5 -9.5t8.5 -21.5l-37 -430q-1 -13 -11 -22t-22 -9h-30q-14 0 -23.5 9t-9.5 22zM440 973l-37 430q0 12 8.5 21.5t20.5 9.5h113q12 0 20 -9.5t8 -21.5l-36 -430q-1 -13 -11 -22t-22 -9h-31q-14 0 -23.5 9t-9.5 22z
" />
    <glyph glyph-name="numbersign" unicode="#" horiz-adv-x="1169" 
d="M154 784h159v209q0 12 9.5 21.5t21.5 9.5h55q12 0 21.5 -9.5t9.5 -21.5v-209h309v209q0 12 9.5 21.5t21.5 9.5h55q12 0 21.5 -9.5t9.5 -21.5v-209h160q12 0 21.5 -9t9.5 -21v-56q0 -12 -9.5 -21t-21.5 -9h-160v-310h160q12 0 21.5 -9t9.5 -21v-56q0 -12 -9.5 -21
t-21.5 -9h-160v-211q0 -12 -9.5 -21.5t-21.5 -9.5h-55q-12 0 -21.5 9.5t-9.5 21.5v211h-309v-211q0 -12 -9.5 -21.5t-21.5 -9.5h-55q-12 0 -21.5 9.5t-9.5 21.5v211h-159q-12 0 -21.5 9t-9.5 21v56q0 12 9.5 21t21.5 9h159v310h-159q-12 0 -21.5 9t-9.5 21v56q0 12 9.5 21
t21.5 9zM430 668v-310h309v310h-309z" />
    <glyph glyph-name="dollar" unicode="$" horiz-adv-x="1255" 
d="M635 -213h-55q-12 0 -21.5 9.5t-9.5 21.5v162q-208 13 -399 108q-17 10 -17 31q0 26 27 69t45 43q8 0 12 -2q174 -75 332 -88v545q-51 15 -89.5 28t-84.5 33.5t-79.5 41.5t-66.5 52t-53.5 66.5t-33.5 82.5t-13 102q0 173 115.5 266t304.5 98v150q0 12 9.5 21t21.5 9h55
q12 0 21.5 -9t9.5 -21v-156q30 -4 75 -11.5t120.5 -22.5t126 -38t50.5 -47q0 -31 -22 -75t-41 -44q-6 0 -10 2q-183 57 -299 70v-461q89 -28 136.5 -45.5t121 -56t111.5 -80.5t68 -111.5t30 -156.5q0 -158 -131 -272t-336 -121v-162q0 -12 -9.5 -21.5t-21.5 -9.5zM946 399
q-2 52 -24 93t-63 70.5t-85.5 49t-107.5 39.5v-510q119 11 199.5 77t80.5 165v16zM307 1100v-2q0 -47 17.5 -84.5t53 -65t74.5 -46.5t97 -40v428q-102 -5 -170 -52t-72 -138z" />
    <glyph glyph-name="percent" unicode="%" horiz-adv-x="1501" 
d="M1143 614q81 0 141.5 -30t93 -78.5t47.5 -99t15 -101.5q0 -42 -9 -83t-30.5 -82.5t-54.5 -72.5t-85.5 -51t-117.5 -20q-66 0 -118.5 20t-85 51t-54.5 73t-30.5 82.5t-8.5 82.5q0 51 15 101.5t47 99t93 78.5t142 30zM356 1442q81 0 142 -30t93 -78.5t47 -99t15 -101.5
q0 -53 -15 -104t-47 -99t-92.5 -77.5t-142.5 -29.5q-81 0 -141 29.5t-92 77.5t-47 99t-15 104q0 40 8.5 80.5t30 82.5t54 73.5t85 52t117.5 20.5zM547 0h-66q-9 0 -15.5 6t-6.5 14q0 7 2 9l446 1378q11 29 41 29h62q9 0 15.5 -6.5t6.5 -14.5q0 -2 -1 -4.5t-1 -3.5
l-442 -1378q-11 -29 -41 -29zM1143 100q54 0 92 23.5t54.5 59.5t23 65.5t6.5 56.5q0 21 -3.5 43.5t-14.5 52.5t-29 52.5t-51.5 38.5t-77.5 16t-78 -16t-53 -39t-30.5 -52.5t-15 -52t-3.5 -43.5q0 -26 7 -56t24 -66t55.5 -59.5t93.5 -23.5zM356 928q44 0 78 16.5t52.5 39.5
t30 53.5t15 53t3.5 42.5q0 21 -3.5 43.5t-15 52t-30 52t-52.5 38.5t-78 16q-55 0 -93 -22.5t-55 -58t-23.5 -65t-6.5 -56.5t6.5 -56.5t23.5 -65.5t55 -59.5t93 -23.5z" />
    <glyph glyph-name="ampersand" unicode="&#x26;" horiz-adv-x="1425" 
d="M422 1112v-2q2 -36 15.5 -70.5t42 -70.5t46 -55t54.5 -56q61 39 98.5 72.5t65.5 87t28 117.5q0 73 -45 125.5t-131 52.5q-49 0 -86 -21t-55.5 -53.5t-26.5 -61.5t-8 -53q0 -2 1 -6t1 -6zM340 393q0 -118 81.5 -189t194.5 -71q180 0 306 133q-62 66 -186.5 195t-186.5 194
q-101 -67 -155 -127t-54 -135zM936 1137q0 -66 -20.5 -124.5t-60 -107.5t-78.5 -84.5t-93 -75.5q45 -48 159 -168.5t171 -183.5q57 117 82 258q2 11 10 18t18 7h6l93 -14q26 -6 26 -37q-36 -211 -127 -353q2 -2 57 -53.5t83 -83.5t28 -47t-10 -22l-72 -66q-8 -8 -20 -8
q-13 0 -23 10l-139 145q-167 -167 -403 -167q-198 0 -327.5 120t-129.5 283q0 57 15.5 108.5t40 90.5t61.5 76t72.5 63t80.5 53q-11 14 -42 51t-38.5 47t-29 38t-26.5 39.5t-17 36t-15 43t-6.5 44.5t-3.5 55q0 60 22 116.5t63 103.5t109.5 75.5t153.5 28.5q81 0 146 -26.5
t104 -72t59.5 -100.5t20.5 -116z" />
    <glyph glyph-name="quotesingle" unicode="'" horiz-adv-x="337" 
d="M121 973l-37 430q0 12 8.5 21.5t20.5 9.5h112q12 0 20.5 -9.5t8.5 -21.5l-37 -430q-1 -13 -11 -22t-22 -9h-30q-14 0 -23.5 9t-9.5 22z" />
    <glyph glyph-name="parenleft" unicode="(" horiz-adv-x="546" 
d="M61 598q0 507 306 967q6 10 19 13t22 -3l51 -35q12 -6 15 -19.5t-3 -23.5q-235 -444 -235 -897q0 -469 235 -913q6 -11 2.5 -24t-14.5 -19l-49 -33q-10 -6 -23.5 -4t-19.5 12q-306 467 -306 979z" />
    <glyph glyph-name="parenright" unicode=")" horiz-adv-x="546" 
d="M485 598q0 -509 -305 -979q-6 -10 -19.5 -12t-23.5 4l-49 33q-12 6 -15 19.5t3 23.5q235 450 235 913q0 447 -235 897q-6 10 -3 23.5t13 19.5l51 35q10 6 23.5 3t19.5 -13q305 -463 305 -967z" />
    <glyph glyph-name="asterisk" unicode="*" horiz-adv-x="935" 
d="M334 1063l-187 123q-10 6 -13 19.5t3 23.5l21 39q6 11 18 14.5t23 -2.5l204 -104l13 227q2 12 11.5 21.5t21.5 9.5h40q12 0 21.5 -9.5t11.5 -21.5l10 -229l205 106q11 6 23 2.5t18 -14.5l21 -39q6 -11 2 -24t-15 -19l-188 -123l188 -123q11 -6 15 -19t-2 -24l-21 -35
q-6 -11 -18 -14.5t-23 2.5l-205 100l-12 -225q-2 -12 -11.5 -21.5t-21.5 -9.5h-41q-12 0 -21 9.5t-11 21.5l-11 227l-204 -102q-11 -6 -23 -2.5t-18 14.5l-21 35q-6 10 -3 23.5t13 19.5z" />
    <glyph glyph-name="plus" unicode="+" horiz-adv-x="1132" 
d="M506 610h-311q-12 0 -21.5 9.5t-9.5 21.5v59q0 12 9.5 21.5t21.5 9.5h311v311q0 12 9.5 21.5t21.5 9.5h59q12 0 21.5 -9.5t9.5 -21.5v-311h311q12 0 21.5 -9.5t9.5 -21.5v-59q0 -12 -9.5 -21.5t-21.5 -9.5h-311v-311q0 -12 -9.5 -21.5t-21.5 -9.5h-59q-12 0 -21.5 9.5
t-9.5 21.5v311z" />
    <glyph glyph-name="comma" unicode="," horiz-adv-x="581" 
d="M223 -326l-12 7q-11 6 -14.5 17.5t2.5 22.5q80 161 96 267q-51 -5 -90 25.5t-39 92.5q2 50 35 83.5t82 33.5q70 0 102.5 -38.5t32.5 -94.5q0 -87 -46 -201.5t-104 -201.5q-6 -10 -19.5 -14t-25.5 1z" />
    <glyph glyph-name="hyphen" unicode="-" horiz-adv-x="884" 
d="M195 662h495q12 0 21.5 -9.5t9.5 -21.5v-74q0 -12 -9.5 -21.5t-21.5 -9.5h-495q-12 0 -21.5 9.5t-9.5 21.5v74q0 12 9.5 21.5t21.5 9.5z" />
    <glyph glyph-name="period" unicode="." horiz-adv-x="563" 
d="M164 109q0 49 33.5 82.5t83.5 33.5t84 -33.5t34 -82.5q0 -50 -34.5 -84.5t-83.5 -34.5t-83 34.5t-34 84.5z" />
    <glyph glyph-name="slash" unicode="/" horiz-adv-x="724" 
d="M653 1405l-446 -1376q-11 -29 -41 -29h-74q-11 0 -17.5 9.5t-2.5 19.5l446 1376q11 29 41 29h74q11 0 17.5 -9.5t2.5 -19.5z" />
    <glyph glyph-name="zero" unicode="0" horiz-adv-x="1308" 
d="M653 1399q118 0 212.5 -46.5t153 -119t97.5 -168.5t54.5 -188t15.5 -185q0 -96 -15.5 -190t-54.5 -189.5t-97.5 -167.5t-153 -117.5t-212.5 -45.5q-117 0 -211 45.5t-152.5 117.5t-97 167.5t-54 189.5t-15.5 190q0 93 15.5 185t54 188t97 168.5t152.5 119t211 46.5z
M653 121q66 0 121.5 24.5t92 63.5t65 92.5t44.5 106t26 110t13 98.5t3 76t-3 75.5t-13 97t-26 108.5t-44.5 104.5t-65 91t-92 62.5t-121.5 24t-120.5 -24t-91.5 -62.5t-65 -91t-44 -104.5t-26.5 -108t-13.5 -97t-3 -76t3 -76t13.5 -98.5t26.5 -110t44 -106t65 -92.5
t91.5 -63.5t120.5 -24.5z" />
    <glyph glyph-name="one" unicode="1" horiz-adv-x="763" 
d="M580 1358v-1327q0 -12 -9.5 -21.5t-21.5 -9.5h-109q-12 0 -21 9.5t-9 21.5v1087l-232 -143q-11 -7 -24 -5t-21 13l-33 47q-8 10 -6 23t12 20l357 295q24 21 55 21h31q12 0 21.5 -9.5t9.5 -21.5z" />
    <glyph glyph-name="two" unicode="2" horiz-adv-x="1060" 
d="M164 1122l-51 52q-8 9 -7.5 22.5t9.5 22.5q184 178 407 178q125 0 220 -47.5t148.5 -145.5t45.5 -233q-4 -76 -53.5 -172.5t-120.5 -171.5l-404 -477h512q12 0 21.5 -9.5t9.5 -21.5v-88q0 -12 -9.5 -21.5t-21.5 -9.5h-731q-12 0 -21 9.5t-9 21.5v14q0 32 20 55l514 621
q117 143 131 252q5 37 5 76.5t-17.5 78t-45 69t-77.5 49t-115 18.5q-154 0 -317 -144q-9 -9 -22 -8t-21 10z" />
    <glyph glyph-name="three" unicode="3" horiz-adv-x="1042" 
d="M920 1012q0 -102 -47 -185t-134 -139q181 -113 181 -317q0 -47 -11 -95t-42 -102.5t-78 -95.5t-128 -68.5t-184 -27.5q-223 0 -373 135q-9 8 -10 21t8 22q15 19 45 53q7 9 20.5 9.5t22.5 -7.5q62 -47 139.5 -76.5t147.5 -29.5q118 0 201.5 69t83.5 193q0 86 -41.5 145.5
t-104 85t-139.5 25.5h-123q-12 0 -21 9t-9 21v68q0 12 9 21.5t21 9.5h123q77 0 139.5 26t104 85.5t41.5 144.5q0 124 -83.5 193t-201.5 69q-69 0 -146 -29.5t-138 -75.5q-11 -7 -24.5 -5.5t-21.5 10.5q-15 15 -43 51q-20 21 2 43q75 62 161 98.5t210 36.5q103 0 184 -27.5
t128 -69t78 -96.5t42 -103t11 -95z" />
    <glyph glyph-name="four" unicode="4" horiz-adv-x="1110" 
d="M852 285v-254q0 -12 -9.5 -21.5t-21.5 -9.5h-108q-12 0 -21.5 9.5t-9.5 21.5v254h-590q-12 0 -21.5 9t-9.5 21v29q0 26 17 57l620 957q16 26 47 26h76q12 0 21.5 -9t9.5 -21v-928h166q12 0 21.5 -9.5t9.5 -21.5v-80q0 -12 -9.5 -21t-21.5 -9h-166zM682 1077l-418 -651
h418v651z" />
    <glyph glyph-name="five" unicode="5" horiz-adv-x="1114" 
d="M145 186l56 56q9 8 22.5 7.5t22.5 -9.5q58 -55 130 -86t136 -31q98 0 171.5 46.5t108.5 117.5t35 153q0 124 -84.5 211.5t-232.5 87.5h-274q-12 0 -21.5 9.5t-9.5 21.5v582q0 12 9.5 21t21.5 9h614q12 0 21.5 -9t9.5 -21v-78q0 -12 -9.5 -21.5t-21.5 -9.5h-475v-362h135
q111 0 198 -30.5t139 -77t85.5 -109t46 -120.5t12.5 -118q0 -48 -12.5 -102t-47 -116.5t-86 -112t-139 -82.5t-196.5 -33q-218 0 -367 163q-9 9 -8 21.5t10 21.5z" />
    <glyph glyph-name="six" unicode="6" horiz-adv-x="1193" 
d="M731 1386l37 -53q6 -10 3 -23t-13 -20q-171 -102 -271 -219t-149 -258q115 82 258 82q94 0 170.5 -22t126.5 -61t86 -85.5t54.5 -101t27 -101.5t8.5 -94q0 -44 -12 -96.5t-45 -116.5t-83.5 -114.5t-137 -84t-195.5 -30.5q-80 1 -147.5 20t-114.5 49.5t-84.5 71.5
t-60.5 83t-38 88t-20.5 83.5t-5.5 71.5q0 150 34.5 285.5t90 236.5t130.5 186.5t150.5 141.5t155.5 96q29 11 45 -15zM596 129q145 0 227 93.5t82 221.5q0 127 -81.5 219.5t-227.5 92.5q-149 0 -227.5 -84t-83.5 -219q0 -60 20.5 -117t58 -103.5t98 -75t134.5 -28.5z" />
    <glyph glyph-name="seven" unicode="7" horiz-adv-x="956" 
d="M61 1276v78q0 12 9.5 21t21.5 9h754q12 0 21.5 -9t9.5 -21v-4q0 -31 -13 -60l-530 -1261q-13 -29 -43 -29h-111q-11 0 -16.5 9.5t-1.5 19.5l500 1216h-570q-12 0 -21.5 9.5t-9.5 21.5z" />
    <glyph glyph-name="eight" unicode="8" horiz-adv-x="1132" 
d="M123 1008q0 47 11 95.5t41.5 104t78 97.5t128 70t183.5 28t184 -28t128.5 -70t79 -97.5t42.5 -104t11 -95.5q0 -88 -43.5 -175t-132.5 -145q89 -59 132.5 -145t43.5 -172q0 -47 -11 -96t-42.5 -104t-79 -97t-128.5 -69.5t-184 -27.5t-183.5 27.5t-128 69.5t-78 97
t-41.5 103.5t-11 96.5q0 86 43 173.5t133 143.5q-90 56 -133 144t-43 176zM565 754q121 0 204 65t83 189q0 125 -85 194.5t-202 69.5q-118 0 -201 -69.5t-83 -194.5q0 -122 82.5 -188t201.5 -66zM565 625q-57 0 -106.5 -15t-90 -44.5t-64 -79.5t-23.5 -115q0 -124 83 -193
t201 -69q75 0 139 28.5t106 89.5t42 144q0 126 -83.5 190t-203.5 64z" />
    <glyph glyph-name="nine" unicode="9" horiz-adv-x="1193" 
d="M463 6l-37 53q-6 10 -3 23t13 20q321 194 420 478q-115 -82 -258 -82q-94 0 -170.5 22t-126.5 61t-86 85.5t-54.5 101t-27 101.5t-8.5 94q0 45 12 97.5t45 116t83.5 113.5t137 83.5t195.5 31.5q80 -2 147.5 -21.5t114.5 -49.5t84.5 -70t60.5 -82t38 -87.5t20.5 -83.5
t5.5 -73q0 -150 -34.5 -285.5t-90 -236.5t-130.5 -186.5t-150.5 -141.5t-155.5 -96q-12 -5 -25.5 -1t-19.5 15zM598 1264q-145 0 -227 -94t-82 -222q0 -81 32.5 -150t104.5 -115t172 -46q149 0 227.5 84t83.5 219q0 60 -20.5 117t-58 103.5t-98 75t-134.5 28.5z" />
    <glyph glyph-name="colon" unicode=":" horiz-adv-x="563" 
d="M164 109q0 49 33.5 82.5t83.5 33.5t84 -33.5t34 -82.5q0 -50 -34.5 -84.5t-83.5 -34.5t-83 34.5t-34 84.5zM164 913q0 49 34 83t83 34q50 0 84 -34t34 -83q0 -50 -34.5 -85t-83.5 -35t-83 35t-34 85z" />
    <glyph glyph-name="semicolon" unicode=";" horiz-adv-x="581" 
d="M164 913q0 49 34 83t83 34q50 0 84 -34t34 -83q0 -50 -34.5 -85t-83.5 -35t-83 35t-34 85zM223 -326l-12 7q-11 6 -14.5 17.5t2.5 22.5q80 161 96 267q-51 -5 -90 25.5t-39 92.5q2 50 35 83.5t82 33.5q70 0 102.5 -38.5t32.5 -94.5q0 -87 -46 -201.5t-104 -201.5
q-6 -10 -19.5 -14t-25.5 1z" />
    <glyph glyph-name="less" unicode="&#x3c;" horiz-adv-x="860" 
d="M772 909l-459 -293l459 -297q11 -6 14 -19t-4 -24l-32 -57q-8 -11 -20 -14t-23 4l-631 379q-15 8 -15 24q0 20 15 27l631 379q10 6 23 3t20 -13l32 -56q7 -11 4 -24t-14 -19z" />
    <glyph glyph-name="equal" unicode="=" horiz-adv-x="1028" 
d="M834 928h-639q-12 0 -21.5 9t-9.5 21v56q0 12 9.5 21t21.5 9h639q12 0 21 -9t9 -21v-56q0 -12 -9 -21t-21 -9zM834 406h-639q-12 0 -21.5 9t-9.5 21v56q0 12 9.5 21t21.5 9h639q12 0 21 -9t9 -21v-56q0 -12 -9 -21t-21 -9z" />
    <glyph glyph-name="greater" unicode="&#x3e;" horiz-adv-x="860" 
d="M547 616l-459 293q-11 6 -14 19t4 24l33 56q6 10 19.5 13t23.5 -3l630 -379q15 -7 15 -27q0 -16 -15 -24l-630 -379q-11 -7 -23 -4t-20 14l-33 57q-7 11 -4 24t14 19z" />
    <glyph glyph-name="question" unicode="?" horiz-adv-x="1105" 
d="M442 98q0 44 32 74.5t77 30.5q47 0 77.5 -30t30.5 -75t-30.5 -75.5t-77.5 -30.5q-45 0 -77 31t-32 75zM627 530v-94q0 -12 -9.5 -21t-21.5 -9h-92q-12 0 -21.5 9t-9.5 21v96q0 50 22 100t47 82.5t70 82.5q35 40 48 55.5t40 53t38 63t21.5 63.5t10.5 76q0 26 -4.5 50.5
t-19 53.5t-38 50.5t-65.5 35t-98 11.5q-74 -4 -133.5 -37t-130.5 -101q-9 -7 -22.5 -7t-22.5 7l-50 50q-9 9 -10 22.5t8 22.5q94 97 185.5 139.5t216.5 42.5q158 0 257 -88.5t99 -249.5q0 -97 -53.5 -187.5t-138.5 -185.5q-57 -65 -88 -114t-35 -93z" />
    <glyph glyph-name="at" unicode="@" horiz-adv-x="2367" 
d="M1200 1491q237 0 434.5 -75t330.5 -207.5t206.5 -314t73.5 -392.5q0 -78 -10.5 -155.5t-32.5 -156.5t-61 -146.5t-90.5 -120.5t-126 -83t-163.5 -30q-93 0 -161.5 45t-96.5 137q-157 -139 -336 -139q-109 0 -196.5 34t-142.5 88t-91.5 125t-51.5 141t-15 140t14.5 139.5
t50.5 140.5t89.5 125.5t139.5 88.5t193 34q194 0 344 -143l31 96q11 29 41 29h29q12 0 21 -9.5t9 -21.5v-749q0 -162 146 -162q88 0 157 72.5t106.5 196.5t37.5 276q0 180 -59.5 334.5t-169.5 268.5t-278 179t-374 65q-277 0 -483.5 -120t-316 -339.5t-109.5 -510.5
q0 -108 22.5 -211.5t74.5 -208.5t130.5 -195.5t197 -171.5t267.5 -137q18 -6 18 -27q0 -8 -2 -12l-32 -78q-10 -20 -31 -20q-6 0 -10 2q-261 96 -441 255t-267.5 357.5t-90.5 431.5q0 243 74.5 451t211 360t340 238t449.5 86zM1466 145v471q-27 51 -117 101.5t-178 50.5
q-62 0 -112.5 -17t-84.5 -43.5t-59.5 -63.5t-39.5 -72.5t-23 -74.5t-11.5 -66.5t-2.5 -51.5q0 -37 6.5 -80t29 -101t57.5 -102.5t100 -76t149 -31.5q95 0 172 47.5t114 109.5z" />
    <glyph glyph-name="A" unicode="A" horiz-adv-x="1398" 
d="M1130 29l-149 366h-569l-148 -366q-13 -29 -43 -29h-129q-11 0 -16.5 9.5t-1.5 19.5l581 1390q10 27 41 27q27 0 37 -27l592 -1390q4 -10 -1.5 -19.5t-16.5 -9.5h-133q-31 0 -44 29zM694 1098l-225 -559h453z" />
    <glyph glyph-name="B" unicode="B" horiz-adv-x="1343" 
d="M1044 719v-4q90 -50 133.5 -139.5t43.5 -178.5q0 -54 -14.5 -106t-50 -106t-89.5 -94t-141 -65.5t-195 -25.5h-495q-12 0 -21.5 9.5t-9.5 21.5v1372q0 12 9.5 21.5t21.5 9.5h495q108 0 195 -25.5t141 -66.5t89.5 -95t50 -106.5t14.5 -106.5q0 -90 -45 -176t-132 -139z
M377 782h383q70 2 123 21.5t82 46.5t47.5 63t24 64.5t5.5 56.5q0 23 -5.5 50.5t-24.5 65t-48.5 67t-85 50.5t-126.5 21h-375v-506zM377 147h375q71 0 126.5 20t85 48.5t48.5 65.5t24.5 64.5t5.5 51.5q0 31 -5.5 59t-23.5 61t-48 57t-82.5 40.5t-122.5 18.5h-383v-486z" />
    <glyph glyph-name="C" unicode="C" horiz-adv-x="1470" 
d="M1325 1221l-63 -64q-9 -7 -22.5 -7t-22.5 7q-77 64 -181 108t-205 44q-96 0 -175.5 -25t-133 -65.5t-95 -95t-64.5 -108.5t-38 -112.5t-19.5 -101t-4.5 -78.5q0 -37 4.5 -79t19.5 -100.5t38 -112.5t64.5 -108.5t95 -94t133 -64.5t175.5 -25q202 0 390 146q11 7 23 6
t20 -10q12 -16 63 -76q17 -24 -4 -45q-204 -178 -492 -178q-114 0 -211.5 25t-168.5 68t-128 102.5t-94 125t-61.5 139.5t-34.5 143t-10 138q0 67 10 135t34.5 141.5t61.5 138.5t94 124.5t128 102.5t168.5 68t211.5 25q160 0 278.5 -49.5t215.5 -142.5q9 -9 9 -22.5
t-9 -22.5z" />
    <glyph glyph-name="D" unicode="D" horiz-adv-x="1525" 
d="M694 0h-458q-12 0 -21.5 9.5t-9.5 21.5v1372q0 12 9.5 21.5t21.5 9.5h458q114 0 211.5 -24t168.5 -65t128.5 -98.5t94 -120.5t61 -134.5t35 -138.5t10.5 -134q0 -98 -20.5 -193t-72 -192t-129.5 -169.5t-204 -118.5t-283 -46zM379 147h315q96 0 176 24.5t134.5 63
t96.5 91.5t66.5 106t40 110t20.5 99t5 78t-5 78t-20.5 98.5t-40 109t-66.5 105.5t-96.5 91.5t-134.5 62.5t-176 24h-315v-1141z" />
    <glyph glyph-name="E" unicode="E" horiz-adv-x="1255" 
d="M938 633h-559v-486h723q12 0 21.5 -9t9.5 -21v-86q0 -12 -9.5 -21.5t-21.5 -9.5h-866q-12 0 -21.5 9.5t-9.5 21.5v1372q0 12 9.5 21.5t21.5 9.5h866q12 0 21.5 -9.5t9.5 -21.5v-86q0 -12 -9.5 -21.5t-21.5 -9.5h-723v-506h559q12 0 21.5 -9t9.5 -21v-86q0 -12 -9.5 -21.5
t-21.5 -9.5z" />
    <glyph glyph-name="F" unicode="F" horiz-adv-x="1255" 
d="M938 633h-559v-602q0 -12 -9.5 -21.5t-21.5 -9.5h-112q-12 0 -21.5 9.5t-9.5 21.5v1372q0 12 9.5 21.5t21.5 9.5h866q12 0 21.5 -9.5t9.5 -21.5v-86q0 -12 -9.5 -21.5t-21.5 -9.5h-723v-506h559q12 0 21.5 -9t9.5 -21v-86q0 -12 -9.5 -21.5t-21.5 -9.5z" />
    <glyph glyph-name="G" unicode="G" horiz-adv-x="1462" 
d="M1163 526h-278q-12 0 -21.5 9.5t-9.5 21.5v86q0 12 9.5 21.5t21.5 9.5h424q12 0 21 -9.5t9 -21.5v-438q0 -32 -22 -51q-188 -172 -486 -172q-114 0 -211.5 25t-168.5 67.5t-128 101.5t-94 124t-61.5 138.5t-34.5 142.5t-10 138q0 67 10 135t34.5 141.5t61.5 138.5
t94 124.5t128 102.5t168.5 68t211.5 25q160 0 265.5 -39.5t195.5 -124.5q9 -9 10 -22.5t-8 -22.5l-65 -65q-7 -9 -20.5 -9.5t-22.5 7.5q-65 57 -158.5 92t-196.5 35q-96 0 -175.5 -25t-133.5 -65.5t-95.5 -95t-65 -108.5t-38 -112.5t-19.5 -101t-5 -78.5q0 -37 5 -79
t19.5 -100.5t38 -112.5t65 -108t95.5 -94t133.5 -65t175.5 -25q193 0 332 105v286z" />
    <glyph glyph-name="H" unicode="H" horiz-adv-x="1562" 
d="M379 633v-602q0 -12 -9.5 -21.5t-21.5 -9.5h-112q-12 0 -21.5 9.5t-9.5 21.5v1372q0 12 9.5 21.5t21.5 9.5h112q12 0 21.5 -9.5t9.5 -21.5v-623h803v623q0 12 9 21.5t21 9.5h115q12 0 21.5 -9.5t9.5 -21.5v-1372q0 -12 -9.5 -21.5t-21.5 -9.5h-115q-12 0 -21 9.5t-9 21.5
v602h-803z" />
    <glyph glyph-name="I" unicode="I" horiz-adv-x="583" 
d="M379 1403v-1372q0 -12 -9.5 -21.5t-21.5 -9.5h-112q-12 0 -21.5 9.5t-9.5 21.5v1372q0 12 9.5 21.5t21.5 9.5h112q12 0 21.5 -9.5t9.5 -21.5z" />
    <glyph glyph-name="J" unicode="J" horiz-adv-x="1236" 
d="M70 362l90 33q12 4 23 -1t16 -17q95 -242 327 -234q64 1 116.5 19t86 44.5t58 64.5t37 72.5t20 76.5t9 68t1.5 55v860q0 12 9.5 21.5t21.5 9.5h116q12 0 21.5 -9.5t9.5 -21.5v-860q0 -52 -6.5 -103.5t-22.5 -107.5t-41.5 -104.5t-65.5 -93.5t-91 -76.5t-122.5 -50.5
t-156.5 -19q-349 0 -475 336q-4 12 1.5 22.5t17.5 15.5z" />
    <glyph glyph-name="K" unicode="K" horiz-adv-x="1415" 
d="M348 0h-112q-12 0 -21.5 9.5t-9.5 21.5v1372q0 12 9.5 21.5t21.5 9.5h112q12 0 21.5 -9.5t9.5 -21.5v-639l676 649q25 21 53 21h160q14 0 14 -15q0 -12 -10 -22l-686 -652l723 -696q14 -11 14 -31q0 -8 -5.5 -13t-12.5 -5h-152q-30 0 -53 20l-721 703v-692
q0 -12 -9.5 -21.5t-21.5 -9.5z" />
    <glyph glyph-name="L" unicode="L" horiz-adv-x="1064" 
d="M379 1403v-1256h532q12 0 21.5 -9t9.5 -21v-86q0 -12 -9.5 -21.5t-21.5 -9.5h-675q-12 0 -21.5 9.5t-9.5 21.5v1372q0 12 9.5 21.5t21.5 9.5h112q12 0 21.5 -9.5t9.5 -21.5z" />
    <glyph glyph-name="M" unicode="M" horiz-adv-x="2072" 
d="M1497 1020l-422 -1010q-10 -26 -39 -26q-28 0 -41 26l-422 1008l-315 -989q-3 -12 -14.5 -20.5t-24.5 -8.5h-127q-11 0 -17.5 9.5t-2.5 19.5l450 1394q3 9 13 16t20 7q25 0 35 -23l446 -1085l449 1085q7 23 31 23q22 0 32 -23l453 -1394q4 -10 -3 -19.5t-18 -9.5h-127
q-30 0 -41 29z" />
    <glyph glyph-name="N" unicode="N" horiz-adv-x="1562" 
d="M350 0h-114q-12 0 -21.5 9.5t-9.5 21.5v1384q0 12 9.5 21.5t21.5 9.5h2q31 0 51 -23l895 -1034v1014q0 12 9 21.5t21 9.5h113q12 0 21.5 -9.5t9.5 -21.5v-1387q0 -12 -9.5 -20t-21.5 -8q-30 0 -49 22l-897 1039v-1018q0 -12 -9.5 -21.5t-21.5 -9.5z" />
    <glyph glyph-name="O" unicode="O" horiz-adv-x="1662" 
d="M831 1454q114 0 211.5 -25t168.5 -68t128.5 -102.5t94 -124.5t61 -138.5t35 -141.5t10.5 -135q0 -69 -10.5 -138t-35 -142.5t-61 -139t-94 -124t-128.5 -101t-168.5 -67.5t-211.5 -25t-211.5 25t-168.5 67.5t-128 101.5t-94 124t-61.5 138.5t-34.5 142.5t-10 138
q0 67 10 135t34.5 141.5t61.5 138.5t94 124.5t128 102.5t168.5 68t211.5 25zM831 139q95 0 174.5 25t133 64.5t95 93.5t64.5 107.5t38 111.5t19.5 100t4.5 78t-4.5 78t-19.5 99.5t-38 110t-64.5 106.5t-95 93t-133 63.5t-174.5 24.5q-96 0 -175.5 -24.5t-133 -63.5t-95 -93
t-64.5 -106.5t-38 -110t-19.5 -99.5t-4.5 -78t4.5 -78t19.5 -100t38 -111.5t64.5 -107.5t95 -93.5t133 -64.5t175.5 -25z" />
    <glyph glyph-name="P" unicode="P" horiz-adv-x="1347" 
d="M379 549v-518q0 -12 -9.5 -21.5t-21.5 -9.5h-112q-12 0 -21.5 9.5t-9.5 21.5v1372q0 12 9.5 21.5t21.5 9.5h497q109 0 196.5 -29t141 -74.5t89.5 -105.5t50.5 -117.5t14.5 -114.5q0 -128 -69.5 -232t-174.5 -158t-217 -54h-385zM379 698h375q69 2 123.5 24.5t86 54.5
t52 73.5t28 76t7.5 66.5q0 34 -7 69.5t-28.5 77t-54 73.5t-88.5 53.5t-128 21.5h-366v-590z" />
    <glyph glyph-name="Q" unicode="Q" horiz-adv-x="1662" 
d="M831 1454q114 0 211.5 -25t168.5 -68t128.5 -102.5t94 -124.5t61 -138.5t35 -141.5t10.5 -135q0 -86 -17.5 -172.5t-55 -175t-104.5 -167.5t-157 -134l312 -373q4 -4 4 -8q0 -6 -4.5 -10.5t-10.5 -4.5h-137q-31 0 -51 23l-268 309q-105 -24 -220 -24q-114 0 -211.5 25
t-168.5 67.5t-128 101.5t-94 124t-61.5 138.5t-34.5 142.5t-10 138q0 67 10 135t34.5 141.5t61.5 138.5t94 124.5t128 102.5t168.5 68t211.5 25zM831 141q95 0 174.5 24.5t133 64t95 93.5t64.5 107.5t38 111t19.5 99.5t4.5 78t-4.5 78t-19.5 99.5t-38 110.5t-64.5 107
t-95 93.5t-133 64t-174.5 24.5q-96 0 -175.5 -24.5t-133 -64t-95 -93.5t-64.5 -107t-38 -110.5t-19.5 -99.5t-4.5 -78t4.5 -78t19.5 -99.5t38 -111t64.5 -107.5t95 -93.5t133 -64t175.5 -24.5z" />
    <glyph glyph-name="R" unicode="R" horiz-adv-x="1343" 
d="M375 549v-518q0 -12 -9.5 -21.5t-21.5 -9.5h-108q-12 0 -21.5 9.5t-9.5 21.5v1372q0 12 9.5 21.5t21.5 9.5h493q109 0 196.5 -29t141 -74.5t89.5 -105.5t50.5 -117.5t14.5 -114.5q0 -152 -94.5 -264.5t-239.5 -165.5q83 -179 252 -534q4 -10 -2 -19.5t-17 -9.5h-116
q-33 0 -43 29l-248 520h-338zM375 698h375q69 2 123.5 24.5t86 54.5t52 73.5t28 76t7.5 66.5q0 34 -7 69.5t-28.5 77t-54 73.5t-88.5 53.5t-128 21.5h-366v-590z" />
    <glyph glyph-name="S" unicode="S" horiz-adv-x="1255" 
d="M307 1100v-2q0 -57 28.5 -101t76 -72.5t109.5 -52t130.5 -44.5t137 -45t130.5 -58.5t109.5 -79.5t76 -114.5t28.5 -157.5q0 -167 -142 -281.5t-360 -114.5q-142 0 -251.5 27t-229.5 84q-11 6 -15 18.5t0 24.5q20 42 41 82q4 12 16.5 16.5t24.5 -0.5q214 -90 397 -90
q133 0 229 64t103 166q5 65 -18.5 114.5t-68.5 81t-105 56t-127.5 44.5t-136 41t-132 51t-113 69.5t-81 102t-35.5 142.5q-7 187 116 286t322 99q79 0 199 -21t252 -73q12 -4 17.5 -16.5t0.5 -24.5q-7 -19 -17.5 -50t-12.5 -38q-5 -12 -17 -17.5t-24 -1.5q-235 76 -392 76
q-72 0 -128.5 -17.5t-95.5 -62t-42 -110.5z" />
    <glyph glyph-name="T" unicode="T" horiz-adv-x="1220" 
d="M520 31v1255h-397q-12 0 -21.5 9.5t-9.5 21.5v86q0 12 9.5 21.5t21.5 9.5h975q12 0 21 -9.5t9 -21.5v-86q0 -12 -9 -21.5t-21 -9.5h-402v-1255q0 -12 -9 -21.5t-21 -9.5h-115q-12 0 -21.5 9.5t-9.5 21.5z" />
    <glyph glyph-name="U" unicode="U" horiz-adv-x="1474" 
d="M735 131q87 0 156 32.5t109.5 79.5t67.5 106t36.5 106.5t9.5 85.5v862q0 12 9.5 21.5t21.5 9.5h115q12 0 21 -9.5t9 -21.5v-862q0 -75 -17.5 -149.5t-59.5 -148.5t-104 -130.5t-158.5 -91.5t-215.5 -35q-118 0 -214 35t-157.5 91.5t-103 130.5t-59 148.5t-17.5 149.5v862
q0 12 9.5 21.5t21.5 9.5h111q12 0 21 -9.5t9 -21.5v-862q0 -38 10 -85.5t37 -106.5t67.5 -106t109.5 -79.5t155 -32.5z" />
    <glyph glyph-name="V" unicode="V" horiz-adv-x="1398" 
d="M264 1405l430 -1069l436 1069q13 29 44 29h133q11 0 16.5 -9.5t1.5 -19.5l-592 -1391q-10 -26 -39 -26t-39 26l-581 1391q-4 10 1.5 19.5t16.5 9.5h129q30 0 43 -29z" />
    <glyph glyph-name="W" unicode="W" horiz-adv-x="2328" 
d="M2107 1434h129q11 0 17 -9.5t2 -19.5l-598 -1395q-6 -22 -33 -22q-25 0 -31 22l-430 1059l-434 -1061q-7 -20 -31 -20q-21 0 -28 20l-596 1397q-4 10 1.5 19.5t16.5 9.5h127q29 0 43 -29l438 -1063l422 1077q10 29 39 29q31 0 41 -29l422 -1077l440 1063q14 29 43 29z
" />
    <glyph glyph-name="X" unicode="X" horiz-adv-x="1220" 
d="M987 1434h141q9 0 14 -9t1 -18l-441 -688l441 -692q4 -9 -1 -18t-14 -9h-137q-30 0 -47 27l-334 548l-334 -548q-17 -27 -47 -27h-137q-10 0 -14.5 9t0.5 18l440 692l-440 688q-5 9 -0.5 18t14.5 9h141q31 0 48 -27l329 -545l330 545q17 27 47 27z" />
    <glyph glyph-name="Y" unicode="Y" horiz-adv-x="1273" 
d="M723 651v-620q0 -12 -9.5 -21.5t-21.5 -9.5h-114q-12 0 -21.5 9.5t-9.5 21.5v618l-469 758q-6 9 -1.5 18t15.5 9h135q30 0 47 -27l361 -612l360 612q17 27 47 27h140q9 0 13.5 -9t0.5 -18z" />
    <glyph glyph-name="Z" unicode="Z" horiz-adv-x="1292" 
d="M401 147h738q12 0 21 -9t9 -21v-86q0 -12 -9 -21.5t-21 -9.5h-961q-12 0 -20 8.5t-8 20.5q0 31 14 53l725 1206h-686q-12 0 -21.5 9.5t-9.5 21.5v84q0 12 9.5 21.5t21.5 9.5h919q10 0 17.5 -7t7.5 -18q0 -27 -12 -45z" />
    <glyph glyph-name="bracketleft" unicode="[" horiz-adv-x="481" 
d="M61 -381v1942q0 12 9.5 21t21.5 9h297q12 0 21.5 -9t9.5 -21v-56q0 -12 -9.5 -21t-21.5 -9h-160v-1770h160q12 0 21.5 -9.5t9.5 -21.5v-55q0 -12 -9.5 -21.5t-21.5 -9.5h-297q-12 0 -21.5 9.5t-9.5 21.5z" />
    <glyph glyph-name="backslash" unicode="\" horiz-adv-x="724" 
d="M518 29l-446 1376q-4 10 2.5 19.5t17.5 9.5h74q30 0 41 -29l446 -1376q4 -10 -2.5 -19.5t-17.5 -9.5h-74q-30 0 -41 29z" />
    <glyph glyph-name="bracketright" unicode="]" horiz-adv-x="481" 
d="M420 1561v-1942q0 -12 -9.5 -21.5t-21.5 -9.5h-297q-12 0 -21.5 9.5t-9.5 21.5v55q0 12 9.5 21.5t21.5 9.5h160v1770h-160q-12 0 -21.5 9t-9.5 21v56q0 12 9.5 21t21.5 9h297q12 0 21.5 -9t9.5 -21z" />
    <glyph glyph-name="asciicircum" unicode="^" horiz-adv-x="1263" 
d="M653 1460l387 -520q8 -10 6 -23t-12 -20l-47 -39q-24 -17 -45 4l-311 367l-309 -367q-9 -9 -22 -10t-24 6l-47 39q-10 7 -12 20t6 23l387 520q10 10 21 10q12 0 22 -10z" />
    <glyph glyph-name="underscore" unicode="_" horiz-adv-x="843" 
d="M10 -55v18q0 12 9.5 21.5t21.5 9.5h762q12 0 21.5 -9.5t9.5 -21.5v-18q0 -12 -9.5 -21.5t-21.5 -9.5h-762q-12 0 -21.5 9.5t-9.5 21.5z" />
    <glyph glyph-name="grave" unicode="`" horiz-adv-x="1044" 
d="M328 1509l268 -198q10 -7 12 -20.5t-6 -22.5l-24 -37q-6 -11 -19 -13t-24 5l-283 172q-10 6 -13 19t3 22l45 65q6 11 18 13t23 -5z" />
    <glyph glyph-name="a" unicode="a" horiz-adv-x="1089" 
d="M236 858l-25 66q-6 12 -1 24t17 17q166 75 336 75q70 0 125.5 -13.5t93.5 -34.5t65 -55.5t42 -68t23.5 -80t11 -84.5t2.5 -88v-585q0 -12 -9.5 -21.5t-21.5 -9.5h-29q-13 0 -24.5 8.5t-14.5 20.5l-30 104q-59 -77 -149 -114t-171 -37q-87 0 -153.5 23t-103.5 56t-60 76.5
t-30 77.5t-7 66q0 92 31.5 159t88 104t123.5 53.5t148 16.5q130 0 240 -26v41q0 91 -15 148.5t-47.5 84.5t-70.5 34t-97 3q-127 -16 -248 -59q-12 -5 -24 0.5t-16 17.5zM754 272v177q-114 28 -236 28q-239 0 -239 -178q0 -86 58 -131t146 -45q91 0 163 44t108 105z" />
    <glyph glyph-name="b" unicode="b" horiz-adv-x="1251" 
d="M618 1038q112 0 202.5 -34.5t146.5 -89t93.5 -126t52.5 -140.5t15 -138q0 -70 -15 -139t-52 -140t-92 -125t-143 -88t-197 -34q-211 0 -334 143q-31 -127 -74 -127h-26q-12 0 -21.5 9.5t-9.5 21.5v1376q0 12 9.5 21.5t21.5 9.5h108q12 0 21.5 -9.5t9.5 -21.5v-440
q139 71 284 71zM618 137q84 0 149 30t99.5 72t56.5 97t28.5 96t6.5 78q0 41 -8 86t-32.5 100.5t-62 98.5t-104 72.5t-151.5 29.5q-60 0 -139.5 -26.5t-126.5 -61.5v-535q39 -53 116 -95t168 -42z" />
    <glyph glyph-name="c" unicode="c" horiz-adv-x="1128" 
d="M983 868l-68 -63q-9 -9 -22.5 -9t-22.5 9q-111 88 -239 88q-140 0 -239 -100.5t-99 -272.5q0 -74 22 -144t62.5 -126.5t106 -90.5t145.5 -34q146 0 248 92q9 9 22 9t21 -9l51 -59q9 -9 8 -22.5t-10 -22.5q-146 -136 -340 -136q-117 0 -208 34.5t-146 89t-90.5 128.5
t-48.5 144.5t-13 146.5q0 68 15 137.5t52 142t93 127.5t146.5 90.5t203.5 35.5q207 0 352 -142q8 -9 7.5 -22.5t-9.5 -20.5z" />
    <glyph glyph-name="d" unicode="d" horiz-adv-x="1251" 
d="M633 1038q146 0 285 -71v440q0 12 9 21.5t21 9.5h109q12 0 21 -9.5t9 -21.5v-1376q0 -12 -9 -21.5t-21 -9.5h-27q-44 0 -72 120q-1 5 -2 7q-70 -82 -153 -112.5t-180 -30.5q-109 0 -197 34t-143 88t-92.5 124.5t-52.5 140t-15 139.5q0 69 15 138t52.5 140.5t93.5 126
t146.5 89t202.5 34.5zM633 137q92 0 169 42t116 95v535q-47 35 -127 61.5t-140 26.5q-85 0 -151.5 -29.5t-104 -72.5t-62 -98.5t-32.5 -100.5t-8 -86q0 -37 6.5 -78t28.5 -96t56.5 -97t99.5 -72t149 -30z" />
    <glyph glyph-name="e" unicode="e" horiz-adv-x="1103" 
d="M934 221l47 -59q7 -11 6 -24t-10 -21q-83 -70 -171 -101.5t-204 -31.5q-113 0 -203.5 34.5t-146.5 89t-93 126.5t-52 141.5t-15 140.5q0 69 15 138t52 140.5t93 126t146.5 89t203.5 34.5q195 0 302.5 -117t107.5 -315q0 -45 -6 -94q-1 -13 -11 -22t-24 -9h-709
q2 -43 13 -88t37 -95t63 -88.5t96 -63.5t131 -25q160 0 289 98q10 8 23 7t20 -11zM600 899q-80 0 -141.5 -26t-99 -70.5t-59.5 -91.5t-34 -103h582q6 51 -3 98.5t-35 90.5t-80 70.5t-130 31.5z" />
    <glyph glyph-name="f" unicode="f" horiz-adv-x="722" 
d="M733 1374l-20 -67q-5 -12 -16 -17.5t-23 -1.5q-83 25 -156 25q-40 0 -73 -9.5t-62 -31t-45 -61.5t-16 -95v-92h188q12 0 21.5 -9.5t9.5 -21.5v-71q0 -12 -9.5 -21.5t-21.5 -9.5h-188v-858q0 -12 -9.5 -21.5t-21.5 -9.5h-111q-12 0 -21 9.5t-9 21.5v858h-99
q-12 0 -21.5 9.5t-9.5 21.5v71q0 12 9.5 21.5t21.5 9.5h99v100q0 161 98 244.5t250 83.5q113 0 217 -39q12 -5 17 -16t1 -23z" />
    <glyph glyph-name="g" unicode="g" horiz-adv-x="1132" 
d="M125 -137q20 115 151 180q-124 47 -124 188q0 63 37 109.5t102 65.5q-98 130 -98 266q0 49 11 97.5t38.5 98.5t69 87.5t108 61t149.5 23.5q123 0 219 -57l132 119q8 8 20 8q15 0 25 -10l43 -43q10 -10 10 -23q0 -8 -8 -20l-123 -131q59 -112 59 -211q0 -50 -11.5 -99
t-39 -99t-69.5 -87.5t-108 -61.5t-149 -24q-38 0 -96 12.5t-80 12.5q-60 0 -84 -32t-24 -75q0 -25 6.5 -44.5t22 -33t30 -23.5t43 -16t47.5 -9.5t57.5 -5t58.5 -1.5h64h21q90 -2 158 -17t109 -37.5t66.5 -56t34.5 -67t9 -74.5q0 -26 -7.5 -57.5t-35 -76.5t-71 -80.5
t-125.5 -61t-189 -25.5q-103 0 -185.5 19.5t-133 50t-83.5 71.5t-46 79.5t-13 78.5q0 21 2 31zM569 438q50 0 89.5 19t60.5 46t35 61.5t18 60t4 47.5q0 21 -4 46.5t-18 60.5t-35 62t-60.5 46.5t-89.5 19.5q-51 0 -90.5 -19.5t-60.5 -46.5t-34.5 -62t-17.5 -60.5t-4 -46.5
q0 -22 4 -47.5t17.5 -60t34.5 -61.5t60.5 -46t90.5 -19zM569 -328q76 0 133 13.5t86 32t46.5 42t21.5 37.5t4 25q0 3 1 9t1 9q0 54 -64 81.5t-229 27.5q-92 0 -153 -9t-91.5 -27t-41.5 -38.5t-11 -50.5q0 -12 6 -28t26 -38t50.5 -39.5t86.5 -31t128 -15.5z" />
    <glyph glyph-name="h" unicode="h" 
d="M303 0h-108q-12 0 -21.5 9.5t-9.5 21.5v1372q0 12 9.5 21.5t21.5 9.5h108q12 0 21.5 -9.5t9.5 -21.5v-481q138 116 311 116q103 0 180 -32t120 -80.5t69.5 -119.5t34.5 -135.5t8 -142.5v-497q0 -12 -9.5 -21.5t-21.5 -9.5h-106q-12 0 -21.5 9.5t-9.5 21.5v497
q0 200 -66.5 285.5t-210.5 85.5q-86 0 -167 -43.5t-111 -99.5v-725q0 -12 -9.5 -21.5t-21.5 -9.5z" />
    <glyph glyph-name="i" unicode="i" horiz-adv-x="538" 
d="M164 1321q0 44 30 75t74 31t75.5 -31t31.5 -75t-31 -74t-76 -30q-44 0 -74 30t-30 74zM352 993v-964q0 -12 -9 -21.5t-21 -9.5h-109q-12 0 -21.5 9.5t-9.5 21.5v964q0 12 9.5 21.5t21.5 9.5h109q12 0 21 -9.5t9 -21.5z" />
    <glyph glyph-name="j" unicode="j" horiz-adv-x="518" 
d="M143 1321q0 44 30.5 75t74.5 31t75 -31t31 -75t-31 -74t-75 -30t-74.5 30t-30.5 74zM-6 -424q-129 0 -236 68q-11 8 -13 20.5t5 24.5l39 59q6 11 19 14.5t24 -2.5q73 -36 148 -36q85 0 133.5 59t48.5 188v1022q0 12 9.5 21.5t21.5 9.5h110q12 0 21.5 -9.5t9.5 -21.5
v-1022q0 -134 -41 -221q-81 -174 -299 -174z" />
    <glyph glyph-name="k" unicode="k" horiz-adv-x="1126" 
d="M336 510v-479q0 -12 -9.5 -21.5t-21.5 -9.5h-110q-12 0 -21.5 9.5t-9.5 21.5v1374q0 12 9.5 21.5t21.5 9.5h110q12 0 21.5 -9.5t9.5 -21.5v-860l457 456q23 23 53 23h147q8 0 11 -8t-3 -12l-481 -467l522 -517q6 -4 3 -12t-11 -8h-155q-31 0 -54 23z" />
    <glyph glyph-name="l" unicode="l" horiz-adv-x="538" 
d="M354 1407v-1376q0 -12 -9 -21.5t-21 -9.5h-109q-12 0 -21.5 9.5t-9.5 21.5v1376q0 12 9.5 21.5t21.5 9.5h109q12 0 21 -9.5t9 -21.5z" />
    <glyph glyph-name="m" unicode="m" horiz-adv-x="1818" 
d="M334 737v-706q0 -12 -9.5 -21.5t-21.5 -9.5h-108q-12 0 -21.5 9.5t-9.5 21.5v962q0 12 9.5 21.5t21.5 9.5h26q30 0 41 -29l31 -98q152 143 336 143q229 0 332 -151q154 151 342 151q78 0 139.5 -17t102.5 -43.5t70 -69.5t44.5 -83.5t24 -98t10.5 -99.5t2 -101v-497
q0 -12 -9.5 -21.5t-21.5 -9.5h-109q-12 0 -21 9.5t-9 21.5v547q0 31 -0.5 51.5t-5.5 56t-13.5 60t-25.5 54t-41 48.5t-61.5 33.5t-84.5 17.5q-94 7 -175 -41.5t-113 -109.5q14 -82 14 -220v-497q0 -12 -9.5 -21.5t-21.5 -9.5h-106q-12 0 -21.5 9.5t-9.5 21.5v536q0 8 -1 26
q-5 124 -34 184q-52 108 -196 118q-96 4 -175 -48t-112 -110z" />
    <glyph glyph-name="n" unicode="n" 
d="M334 731v-700q0 -12 -9.5 -21.5t-21.5 -9.5h-108q-12 0 -21.5 9.5t-9.5 21.5v962q0 12 9.5 21.5t21.5 9.5h26q30 0 41 -29l31 -98q135 143 336 143q79 0 142.5 -16t107.5 -43t76.5 -67.5t51.5 -83t30.5 -96.5t15.5 -101.5t4 -104.5v-497q0 -12 -9.5 -21.5t-21.5 -9.5
h-111q-12 0 -21 9.5t-9 21.5v495v41.5t-2.5 47t-6.5 53.5t-13 52t-21.5 52t-33.5 43.5t-47 37.5t-62.5 22.5t-80.5 9.5q-87 0 -169 -50.5t-115 -103.5z" />
    <glyph glyph-name="o" unicode="o" horiz-adv-x="1265" 
d="M633 1040q113 0 203.5 -34.5t146.5 -89t93 -126t52 -140.5t15 -138q0 -71 -15 -140.5t-52 -140.5t-93 -125t-146.5 -88t-203.5 -34q-112 0 -202.5 34t-146.5 88t-93.5 125t-52.5 140.5t-15 140.5q0 69 15 138t52.5 140.5t93.5 126t146.5 89t202.5 34.5zM633 127
q62 0 113.5 16.5t86 42.5t61 61.5t41.5 71t24.5 74t12.5 66.5t3 53t-3 53t-12.5 66.5t-24.5 74t-41.5 71t-61 61.5t-86 42.5t-113.5 16.5q-71 0 -128 -21t-92.5 -57t-60.5 -76.5t-37 -86.5t-17 -80t-5 -64t5 -64t17 -80t37 -86.5t60.5 -76.5t92.5 -57t128 -21z" />
    <glyph glyph-name="p" unicode="p" horiz-adv-x="1251" 
d="M588 -12q-136 9 -254 71v-440q0 -12 -9.5 -21.5t-21.5 -9.5h-108q-12 0 -21.5 9.5t-9.5 21.5v1376q0 12 9.5 21.5t21.5 9.5h26q30 0 41 -29q32 -92 33 -98q122 143 334 143q109 0 197 -34t143 -88t92 -125t52 -140t15 -139q0 -67 -14 -134t-49.5 -137t-88 -124.5
t-137.5 -91t-190 -41.5h-61zM618 889q-91 0 -168.5 -42.5t-115.5 -94.5v-535q47 -35 126.5 -61.5t139.5 -26.5q85 0 151.5 29.5t104 72.5t62 98.5t32.5 100.5t8 86q0 37 -6.5 78t-28.5 96t-56.5 97t-99.5 72t-149 30z" />
    <glyph glyph-name="q" unicode="q" horiz-adv-x="1251" 
d="M602 -12q-105 5 -190 41.5t-137.5 91t-88 124.5t-49.5 137t-14 134q0 70 15 139.5t52.5 140t92.5 124.5t143 88t197 34q97 0 180 -30.5t153 -112.5q22 90 46 114q13 13 28 13h27q12 0 21 -9.5t9 -21.5v-1376q0 -12 -9 -21.5t-21 -9.5h-109q-12 0 -21 9.5t-9 21.5v440
q-132 -71 -316 -71zM633 889q-84 0 -149 -30t-99.5 -72t-56.5 -97t-28.5 -96t-6.5 -78q0 -41 8 -86t32.5 -100.5t62 -98.5t104 -72.5t151.5 -29.5q60 0 140 26.5t127 61.5v535q-38 52 -116 94.5t-169 42.5z" />
    <glyph glyph-name="r" unicode="r" horiz-adv-x="747" 
d="M700 1004l-14 -82q-3 -13 -14 -21t-23 -6q-6 0 -17.5 1t-17.5 1q-98 0 -176 -46t-104 -120v-700q0 -12 -9.5 -21.5t-21.5 -9.5h-108q-12 0 -21.5 9.5t-9.5 21.5v962q0 12 9.5 21.5t21.5 9.5h26q30 0 41 -29l31 -98q152 143 336 143q31 0 47 -2q12 -2 19.5 -12t4.5 -22z
" />
    <glyph glyph-name="s" unicode="s" horiz-adv-x="989" 
d="M293 766q0 -28 13 -52t30.5 -39.5t51.5 -31t60.5 -24.5t71.5 -23q40 -13 68.5 -23t67.5 -27t66 -34t56.5 -42.5t47 -54t29 -67t11.5 -82.5q0 -126 -103.5 -204t-262.5 -78q-192 0 -350 82q-11 6 -15 18.5t0 24.5q5 10 16.5 29.5t16.5 29.5q4 12 16.5 16.5t22.5 -0.5
q144 -67 280 -67q85 0 144 40.5t59 106.5q0 29 -7.5 52t-26.5 42t-35.5 32t-49.5 27t-53.5 21l-61.5 21q-8 3 -12 4q-135 45 -189 78q-122 76 -122 217q1 133 90 207.5t234 74.5q164 0 327 -71q12 -4 17 -16.5t0 -24.5q-18 -38 -31 -70q-6 -11 -18.5 -15.5t-24.5 -0.5
q-145 57 -231 57q-195 0 -203 -133z" />
    <glyph glyph-name="t" unicode="t" horiz-adv-x="616" 
d="M152 889h-101q-12 0 -21.5 9.5t-9.5 21.5v73q0 12 9.5 21.5t21.5 9.5h101l14 174q0 12 10 21.5t23 9.5h94q12 0 21.5 -9.5t9.5 -21.5v-174h188q12 0 21.5 -9.5t9.5 -21.5v-73q0 -12 -9.5 -21.5t-21.5 -9.5h-188v-619q0 -35 4.5 -59.5t17 -47.5t40 -33.5t69.5 -6.5
q49 4 88 12q12 3 23 -3.5t14 -18.5l10 -54q3 -13 -4 -24.5t-21 -14.5q-101 -28 -209 -28q-53 0 -92.5 21.5t-60 50.5t-33 67.5t-15.5 63.5t-3 47v647z" />
    <glyph glyph-name="u" unicode="u" 
d="M846 293v700q0 12 9.5 21.5t21.5 9.5h108q12 0 21.5 -9.5t9.5 -21.5v-962q0 -12 -9.5 -21.5t-21.5 -9.5h-27q-29 0 -40 29l-31 98q-135 -143 -336 -143q-79 0 -142.5 16t-107.5 43t-76.5 67.5t-51.5 83t-30.5 96.5t-15.5 101.5t-4 104.5v497q0 12 9.5 21.5t21.5 9.5h110
q12 0 21.5 -9.5t9.5 -21.5v-495q0 -133 23 -200q55 -159 243 -159q87 0 168.5 50t116.5 104z" />
    <glyph glyph-name="v" unicode="v" horiz-adv-x="1048" 
d="M258 995l266 -688l267 688q11 29 40 29h125q11 0 17 -9.5t2 -19.5l-408 -985q-13 -26 -43 -26q-28 0 -41 26l-409 985q-4 10 1.5 19.5t16.5 9.5h125q30 0 41 -29z" />
    <glyph glyph-name="w" unicode="w" horiz-adv-x="1632" 
d="M1108 307l266 688q11 29 41 29h125q11 0 17 -9.5t2 -19.5l-410 -985q-13 -26 -43 -26t-39 28l-252 662l-252 -664q-10 -26 -39 -26t-39 26l-411 985q-4 10 1.5 19.5t16.5 9.5h125q30 0 41 -29l266 -688l258 717q3 9 13 16t20 7t20 -7t13 -16z" />
    <glyph glyph-name="x" unicode="x" horiz-adv-x="968" 
d="M684 27l-201 340l-200 -340q-17 -27 -47 -27h-144q-10 0 -14.5 9t0.5 18l315 483l-315 487q-5 9 -0.5 18t14.5 9h139q31 0 48 -27l204 -348l205 348q17 27 47 27h139q9 0 14 -9t1 -18l-318 -487l320 -485q5 -8 0 -16.5t-14 -8.5h-146q-30 0 -47 27z" />
    <glyph glyph-name="y" unicode="y" horiz-adv-x="1157" 
d="M258 995l322 -776l311 776q15 29 43 29h131q11 0 16.5 -9.5t1.5 -19.5l-589 -1390q-13 -29 -43 -29h-119q-11 0 -17 9.5t-2 19.5l176 415l-415 975q-4 10 1.5 19.5t16.5 9.5h123q29 0 43 -29z" />
    <glyph glyph-name="z" unicode="z" horiz-adv-x="976" 
d="M141 901v92q0 12 9.5 21.5t21.5 9.5h662q10 0 18 -8t8 -19q0 -27 -14 -47l-486 -796h474q12 0 21 -9.5t9 -21.5v-92q0 -12 -9 -21.5t-21 -9.5h-676q-12 0 -21.5 9.5t-9.5 21.5v6q0 28 16 57l465 776h-436q-12 0 -21.5 9.5t-9.5 21.5z" />
    <glyph glyph-name="braceleft" unicode="{" horiz-adv-x="593" 
d="M195 1245q0 91 30 159t68 101.5t89 55t75 25.5t45 5q12 0 21 -9t9 -21v-56q0 -12 -9 -20t-21 -10q-16 -2 -30.5 -7.5t-35 -22t-35.5 -42t-25.5 -71.5t-10.5 -107v-441q0 -64 -42 -114t-110 -76q69 -23 110.5 -76.5t41.5 -120.5v-438q0 -61 10.5 -107t25.5 -71.5t35.5 -42
t35 -22t30.5 -7.5q12 -2 21 -10.5t9 -20.5v-55q0 -12 -9 -21.5t-21 -9.5q-13 1 -27.5 3t-46.5 10.5t-60 22t-61.5 40.5t-56.5 61.5t-39 89t-16 120.5v434q0 67 -30 108t-75 56q-29 11 -29 38v33q0 28 29 39q45 17 75 58t30 106v434z" />
    <glyph glyph-name="bar" unicode="|" horiz-adv-x="362" 
d="M209 -406h-55q-12 0 -21.5 9.5t-9.5 21.5v1934q0 12 9.5 21t21.5 9h55q12 0 21.5 -9t9.5 -21v-1934q0 -12 -9.5 -21.5t-21.5 -9.5z" />
    <glyph glyph-name="braceright" unicode="}" horiz-adv-x="593" 
d="M92 1591q21 -1 45 -5t75 -25.5t89 -55t68 -101.5t30 -159v-434q0 -65 29.5 -106t73.5 -58q30 -10 30 -39v-33q0 -28 -30 -38q-44 -15 -73.5 -56t-29.5 -108v-434q0 -66 -16 -120.5t-39 -89t-56.5 -61.5t-61.5 -40.5t-60 -22t-46.5 -10.5t-27.5 -3q-12 0 -21.5 9.5
t-9.5 21.5v55q0 12 9.5 20.5t21.5 10.5q16 2 30.5 7.5t35 22t35.5 42t25.5 71.5t10.5 107v438q0 67 41.5 120.5t110.5 76.5q-68 26 -110 76t-42 114v441q0 61 -10.5 107t-25.5 71.5t-35.5 42t-35 22t-30.5 7.5q-13 2 -22 10t-9 20v56q0 12 9.5 21t21.5 9z" />
    <glyph glyph-name="asciitilde" unicode="~" horiz-adv-x="1243" 
d="M199 502l-52 33q-11 8 -13 21t5 24q121 174 305 174q46 0 96 -21t87 -45.5t87.5 -45.5t96.5 -21q103 0 195 106q9 10 21.5 11t21.5 -7l49 -43q9 -9 11 -22.5t-5 -24.5q-116 -178 -295 -178q-52 0 -106 21.5t-92.5 47t-87 47t-89.5 21.5q-103 0 -190 -94q-21 -21 -45 -4z
" />
    <glyph glyph-name="exclamdown" unicode="&#xa1;" horiz-adv-x="620" 
d="M205 934q0 44 30 75t74 31t75.5 -31t31.5 -75t-31.5 -74.5t-75.5 -30.5t-74 30.5t-30 74.5zM395 178v-549q0 -12 -9 -21t-21 -9h-109q-12 0 -21.5 9t-9.5 21v549l33 397q0 12 10 21.5t23 9.5h33q12 0 22 -9.5t10 -21.5z" />
    <glyph glyph-name="cent" unicode="&#xa2;" horiz-adv-x="1128" 
d="M651 -215h-55q-12 0 -21.5 9.5t-9.5 21.5v170q-101 8 -180.5 45.5t-127.5 90.5t-79.5 123.5t-43 137t-11.5 137.5q0 64 13 128.5t45.5 132.5t81.5 121.5t127 92t175 47.5v148q0 12 9.5 21.5t21.5 9.5h55q12 0 21.5 -9.5t9.5 -21.5v-146q178 -17 301 -133q9 -9 9 -22
t-9 -21l-68 -63q-9 -9 -23 -9.5t-24 7.5q-92 76 -186 94v-776q109 17 195 96q9 9 22 9t21 -9l51 -59q9 -9 8 -22.5t-10 -22.5q-119 -113 -287 -129v-168q0 -12 -9.5 -21.5t-21.5 -9.5zM293 520q0 -149 71.5 -261t200.5 -136v772q-119 -23 -195.5 -120t-76.5 -255z" />
    <glyph glyph-name="sterling" unicode="&#xa3;" horiz-adv-x="1214" 
d="M168 12l-51 35q-10 6 -13 19t5 22q64 87 145 133v477h-92q-12 0 -21.5 9.5t-9.5 21.5v70q0 12 9.5 21t21.5 9h92v291q0 161 98 244.5t248 83.5q103 0 215 -39q12 -5 17.5 -16t1.5 -23q-4 -11 -23 -67q-4 -12 -15.5 -18t-23.5 -3q-92 29 -164 29q-176 0 -184 -178v-304
h319q12 0 21.5 -9t9.5 -21v-70q0 -12 -9.5 -21.5t-21.5 -9.5h-319v-434q65 -9 127.5 -42.5t118 -61t112.5 -27.5q103 0 195 105q9 10 21.5 11t21.5 -7l49 -41q9 -9 11 -22.5t-5 -24.5q-117 -179 -295 -179q-50 0 -104 21.5t-92.5 46.5t-87.5 46.5t-90 21.5q-107 0 -193 -93
q-20 -20 -45 -6z" />
    <glyph glyph-name="currency" unicode="&#xa4;" horiz-adv-x="1318" 
d="M1061 555q0 -122 -66 -246l179 -178q9 -9 9 -22.5t-9 -22.5l-29 -29q-9 -9 -22.5 -9.5t-22.5 7.5l-170 170q-115 -88 -271 -88q-157 0 -270 86q-25 -25 -83 -82t-85 -84q-9 -9 -22.5 -9.5t-22.5 7.5l-31 31q-9 9 -9 22.5t9 22.5l179 176q-68 122 -68 248q0 146 76 268
l-187 187q-9 9 -9 22.5t9 22.5l31 30q9 9 22.5 9t22.5 -9l187 -186q107 74 251 74t254 -76q28 28 92 92.5t95 95.5q9 9 22.5 9t20.5 -9l31 -30q9 -9 9 -22.5t-9 -22.5l-189 -189q76 -122 76 -266zM659 295q56 0 99 21t66 51t37.5 68.5t19 67t4.5 52.5t-4.5 52t-19 66.5
t-37.5 68.5t-66 51.5t-99 21.5t-99.5 -21.5t-66.5 -51.5t-38 -68.5t-19 -66.5t-4 -52q0 -25 4 -53t19 -66.5t38 -68.5t66.5 -51t99.5 -21z" />
    <glyph glyph-name="yen" unicode="&#xa5;" horiz-adv-x="1273" 
d="M956 178h-233v-147q0 -12 -9.5 -21.5t-21.5 -9.5h-114q-12 0 -21.5 9.5t-9.5 21.5v147h-230q-12 0 -21 9.5t-9 21.5v55q0 12 9 21.5t21 9.5h230v237h-230q-12 0 -21 9.5t-9 21.5v55q0 12 9 21.5t21 9.5h230l-469 758q-6 9 -1.5 18t15.5 9h135q30 0 47 -27l361 -594
l360 594q17 27 47 27h140q9 0 13.5 -9t0.5 -18l-473 -756v-2h233q12 0 21.5 -9.5t9.5 -21.5v-55q0 -12 -9.5 -21.5t-21.5 -9.5h-233v-237h233q12 0 21.5 -9.5t9.5 -21.5v-55q0 -12 -9.5 -21.5t-21.5 -9.5z" />
    <glyph glyph-name="brokenbar" unicode="&#xa6;" horiz-adv-x="360" 
d="M238 342v-719q0 -12 -9.5 -21.5t-21.5 -9.5h-53q-12 0 -21.5 9.5t-9.5 21.5v719q0 12 9.5 21.5t21.5 9.5h53q12 0 21.5 -9.5t9.5 -21.5zM238 1554v-718q0 -12 -9.5 -21.5t-21.5 -9.5h-53q-12 0 -21.5 9.5t-9.5 21.5v718q0 12 9.5 21.5t21.5 9.5h53q12 0 21.5 -9.5
t9.5 -21.5z" />
    <glyph glyph-name="section" unicode="&#xa7;" horiz-adv-x="1161" 
d="M182 -260l51 65q7 10 20 12.5t23 -5.5q148 -101 279 -109q56 0 107 20.5t87.5 66.5t36.5 108q0 81 -67 142.5t-215 133.5q-146 61 -233 158.5t-87 228.5q0 47 16 91.5t42.5 78.5t51 57.5t50.5 42.5q-143 143 -143 285q0 58 24.5 116.5t71 108.5t124 81.5t173.5 31.5
q162 0 330 -111q10 -7 12 -20.5t-4 -22.5q-10 -15 -27 -37t-24 -32t-21 -13t-24 3q-127 68 -232 77q-112 0 -168 -50.5t-61 -119.5q0 -141 231 -254q71 -34 120 -61t104.5 -66.5t88.5 -78t55.5 -90t22.5 -109.5q0 -138 -172 -281q28 -32 46 -54.5t47 -65.5t44 -90.5
t15 -94.5q0 -99 -57.5 -177t-149 -118.5t-197.5 -40.5q-104 0 -206 44.5t-179 103.5q-10 9 -12 22t6 23zM348 582q0 -30 10.5 -58.5t24.5 -50.5t43 -48t49 -41t62 -39.5t62.5 -35.5t67.5 -35q18 -9 27 -14q111 90 117 195q0 27 -12.5 53.5t-29.5 48t-47.5 45.5t-54 39.5
t-61.5 35.5t-57.5 29t-54.5 25t-41 19q-4 -4 -23.5 -22t-29.5 -29t-24.5 -30.5t-21 -41t-6.5 -45.5z" />
    <glyph glyph-name="dieresis" unicode="&#xa8;" horiz-adv-x="1171" 
d="M225 1317q0 44 30.5 75t74.5 31t75 -31t31 -75t-31 -74.5t-75 -30.5t-74.5 30.5t-30.5 74.5zM735 1317q0 44 30.5 75t74.5 31t75 -31t31 -75t-31 -74.5t-75 -30.5t-74.5 30.5t-30.5 74.5z" />
    <glyph glyph-name="copyright" unicode="&#xa9;" horiz-adv-x="1200" 
d="M600 1438q106 0 202 -41t165 -111t110 -166t41 -202q0 -140 -69 -259.5t-188.5 -189.5t-260.5 -70q-132 0 -250.5 67.5t-193 189.5t-74.5 268q0 131 67.5 249t188 191.5t262.5 73.5zM600 481q184 0 311 127t127 310q0 184 -127 312t-311 128t-311 -128t-127 -312
q0 -183 127 -310t311 -127zM424 915q0 -87 51.5 -138.5t122.5 -51.5q62 0 121 39q28 14 49 -4l12 -15q9 -7 9 -20t-9 -20q-83 -66 -182 -66q-73 0 -130 28t-88 71.5t-46 89t-15 87.5t15 88t46 90t88 72.5t130 28.5q99 0 182 -66q9 -8 9 -21t-9 -20l-12 -14q-9 -9 -23 -9.5
t-24 5.5q-61 39 -123 39q-70 0 -122 -54.5t-52 -138.5z" />
    <glyph glyph-name="ordfeminine" unicode="&#xaa;" horiz-adv-x="806" 
d="M375 1454q60 3 107.5 -5t79.5 -23t55 -41t36 -51.5t20 -62t9 -66t2 -68.5v-430q0 -12 -9.5 -21.5t-21.5 -9.5h-6q-13 0 -24.5 8.5t-14.5 20.5l-20 69q-58 -55 -122 -83.5t-118 -28.5q-65 0 -115 17t-78 41.5t-45 57t-22.5 58t-5.5 49.5q0 63 22.5 110t61.5 73.5t86 39
t102 12.5q77 0 201 -39v66q0 69 -11 111t-36.5 61.5t-52 25t-72.5 5.5q-66 0 -178 -41q-13 -3 -25 1.5t-16 16.5l-12 33q-6 12 -1.5 24t15.5 17q103 47 209 53zM555 879v110q-4 1 -17 5t-17 5.5t-15.5 4.5t-17 4.5t-16.5 4t-18 3.5t-18.5 2.5t-21 2t-22 1t-25.5 0.5
q-70 0 -119 -33t-49 -90q0 -65 44 -101t109 -36q66 0 121 36t82 81z" />
    <glyph glyph-name="guillemotleft" unicode="&#xab;" horiz-adv-x="915" 
d="M215 514l248 -295q9 -9 8 -22t-10 -21l-25 -24q-9 -8 -22.5 -7.5t-20.5 9.5l-325 342q-7 10 -7 18t7 18l325 345q7 9 20.5 9.5t22.5 -7.5l27 -27q9 -9 10 -21.5t-8 -21.5zM584 514l247 -295q9 -9 8 -22t-10 -21l-24 -24q-9 -8 -22.5 -7.5t-20.5 9.5l-326 342q-6 9 -6 18
t6 18l326 345q7 9 20.5 9.5t22.5 -7.5l26 -27q9 -9 10.5 -21.5t-7.5 -21.5z" />
    <glyph glyph-name="logicalnot" unicode="&#xac;" horiz-adv-x="1284" 
d="M1120 829v-571q0 -12 -9 -21.5t-21 -9.5h-211q-12 0 -21.5 9.5t-9.5 21.5v356h-653q-12 0 -21.5 9.5t-9.5 21.5v184q0 12 9.5 21.5t21.5 9.5h895q12 0 21 -9.5t9 -21.5z" />
    <glyph glyph-name="uni00AD" unicode="&#xad;" horiz-adv-x="819" 
d="M156 479h516q12 0 21 -9t9 -21v-66q0 -12 -9 -21.5t-21 -9.5h-516q-12 0 -21.5 9.5t-9.5 21.5v66q0 12 9.5 21t21.5 9z" />
    <glyph glyph-name="registered" unicode="&#xae;" horiz-adv-x="1200" 
d="M600 1438q106 0 202 -41t165 -111t110 -166t41 -202q0 -140 -69 -259.5t-188.5 -189.5t-260.5 -70q-132 0 -250.5 67.5t-193 189.5t-74.5 268q0 131 67.5 249t188 191.5t262.5 73.5zM600 481q184 0 311 127t127 310q0 184 -127 312t-311 128t-311 -128t-127 -312
q0 -183 127 -310t311 -127zM506 838v-162q0 -12 -9.5 -21.5t-21.5 -9.5h-22q-12 0 -21.5 9.5t-9.5 21.5v495q0 12 9.5 21.5t21.5 9.5h182q54 0 94.5 -17.5t62.5 -45.5t32 -58t10 -61q0 -58 -33.5 -107t-89.5 -67l88 -174q5 -9 -1 -18t-16 -9h-26q-32 0 -45 27l-84 166h-121z
M506 915h137q24 0 43.5 8t30 20t17.5 27t9 27t2 23q0 17 -4 33.5t-14.5 34t-33 28t-54.5 10.5h-133v-211z" />
    <glyph glyph-name="macron" unicode="&#xaf;" horiz-adv-x="1056" 
d="M262 1333h555q12 0 21.5 -9t9.5 -21v-52q0 -12 -9.5 -21t-21.5 -9h-555q-12 0 -21.5 9t-9.5 21v52q0 12 9.5 21t21.5 9z" />
    <glyph glyph-name="degree" unicode="&#xb0;" horiz-adv-x="675" 
d="M338 901q-116 0 -196.5 80.5t-80.5 196.5q0 115 80.5 195.5t196.5 80.5t196 -80t80 -196t-80.5 -196.5t-195.5 -80.5zM338 995q75 0 127.5 52.5t52.5 130.5q0 75 -52.5 127.5t-127.5 52.5q-78 0 -130 -52t-52 -128q0 -78 52 -130.5t130 -52.5z" />
    <glyph glyph-name="plusminus" unicode="&#xb1;" horiz-adv-x="1132" 
d="M195 201h743q12 0 21.5 -9.5t9.5 -21.5v-57q0 -12 -9.5 -21.5t-21.5 -9.5h-743q-12 0 -21.5 9.5t-9.5 21.5v57q0 12 9.5 21.5t21.5 9.5zM506 610h-311q-12 0 -21.5 9.5t-9.5 21.5v59q0 12 9.5 21.5t21.5 9.5h311v311q0 12 9.5 21.5t21.5 9.5h59q12 0 21.5 -9.5t9.5 -21.5
v-311h311q12 0 21.5 -9.5t9.5 -21.5v-59q0 -12 -9.5 -21.5t-21.5 -9.5h-311v-225q0 -12 -9.5 -21.5t-21.5 -9.5h-59q-12 0 -21.5 9.5t-9.5 21.5v225z" />
    <glyph glyph-name="twosuperior" unicode="&#xb2;" horiz-adv-x="538" 
d="M90 1499l-18 17q-8 9 -7.5 22.5t9.5 20.5q92 86 194 86q97 0 155 -56t52 -157q-7 -67 -86 -170l-162 -203h201q12 0 21.5 -9.5t9.5 -21.5v-33q0 -12 -9.5 -21t-21.5 -9h-348q-8 0 -13.5 5.5t-5.5 12.5q0 22 13 35l239 305q56 66 62 111q4 18 0 39.5t-13 40t-33 30.5
t-59 12q-62 0 -137 -59q-9 -9 -22 -8t-21 10z" />
    <glyph glyph-name="threesuperior" unicode="&#xb3;" horiz-adv-x="526" 
d="M465 1448q0 -87 -78 -152q78 -65 78 -147q0 -31 -10 -62t-32.5 -63t-68.5 -52t-110 -20q-101 0 -181 64q-9 8 -10 21t8 22l15 18q9 10 22 12t23 -6q73 -47 123 -47q51 0 87 29.5t36 83.5q0 53 -35.5 79.5t-87.5 26.5h-54q-12 0 -21 9.5t-9 21.5v23q0 12 9 21t21 9h54
q52 0 87.5 27.5t35.5 81.5q0 53 -36 82t-87 29q-54 0 -121 -43q-25 -14 -45 6l-12 14q-20 20 2 43q82 66 176 66q64 0 110 -20t68.5 -52t32.5 -63t10 -62z" />
    <glyph glyph-name="acute" unicode="&#xb4;" horiz-adv-x="1044" 
d="M446 1311l269 198q9 8 22 5t19 -13l45 -65q6 -9 3 -22t-13 -19l-283 -172q-11 -7 -24 -5t-21 13l-25 37q-6 9 -4 22.5t12 20.5z" />
    <glyph glyph-name="mu" unicode="&#xb5;" horiz-adv-x="1220" 
d="M164 -377v1372q0 12 9.5 21.5t21.5 9.5h110q12 0 21.5 -9.5t9.5 -21.5v-542q0 -312 266 -312q87 0 168.5 50t116.5 104v700q0 12 9.5 21.5t21.5 9.5h108q12 0 21.5 -9.5t9.5 -21.5v-962q0 -12 -9.5 -21.5t-21.5 -9.5h-27q-30 0 -41 29l-30 98q-135 -143 -336 -143
q-88 0 -148.5 22t-107.5 72v-457q0 -12 -9.5 -21.5t-21.5 -9.5h-110q-12 0 -21.5 9.5t-9.5 21.5z" />
    <glyph glyph-name="mu" unicode="&#x3bc;" horiz-adv-x="1220" 
d="M164 -377v1372q0 12 9.5 21.5t21.5 9.5h110q12 0 21.5 -9.5t9.5 -21.5v-542q0 -312 266 -312q87 0 168.5 50t116.5 104v700q0 12 9.5 21.5t21.5 9.5h108q12 0 21.5 -9.5t9.5 -21.5v-962q0 -12 -9.5 -21.5t-21.5 -9.5h-27q-30 0 -41 29l-30 98q-135 -143 -336 -143
q-88 0 -148.5 22t-107.5 72v-457q0 -12 -9.5 -21.5t-21.5 -9.5h-110q-12 0 -21.5 9.5t-9.5 21.5z" />
    <glyph glyph-name="paragraph" unicode="&#xb6;" horiz-adv-x="1345" 
d="M82 1016q0 55 12 110t41.5 111.5t74 99.5t116.5 70t161 27h664q12 0 21.5 -9.5t9.5 -21.5v-43q0 -12 -9.5 -21.5t-21.5 -9.5h-119v-1704q0 -12 -9.5 -21.5t-21.5 -9.5h-43q-12 0 -21 9.5t-9 21.5v1704h-275v-1704q0 -12 -9 -21.5t-21 -9.5h-43q-12 0 -21.5 9.5t-9.5 21.5
v973h-62q-89 0 -161 27t-116.5 70t-74 99.5t-41.5 111.5t-12 110z" />
    <glyph glyph-name="periodcentered" unicode="&#xb7;" horiz-adv-x="483" 
d="M123 608q0 50 33.5 83.5t83.5 33.5t85 -34t35 -83q0 -51 -35 -86t-85 -35q-49 0 -83 35t-34 86z" />
    <glyph glyph-name="cedilla" unicode="&#xb8;" horiz-adv-x="1134" 
d="M563 -156q-6 6 -6 15v170q0 12 9.5 21t21.5 9h37q12 0 21 -9t9 -21v-105h27q85 -4 131.5 -55.5t46.5 -112.5q0 -100 -61.5 -154.5t-147.5 -54.5q-80 0 -141 35q-12 6 -15 19.5t3 23.5l12 29q6 12 18.5 15.5t22.5 -1.5q50 -20 90 -20q57 0 83 33t26 67q0 36 -26.5 63
t-86.5 27h-59q-9 0 -15 6z" />
    <glyph glyph-name="onesuperior" unicode="&#xb9;" horiz-adv-x="405" 
d="M303 1612v-621q0 -12 -9.5 -21t-21.5 -9h-43q-12 0 -21 9t-9 21v484l-88 -54q-11 -7 -24 -4.5t-19 13.5l-11 14q-6 10 -3.5 24t12.5 21l172 133q21 14 41 14q11 0 17.5 -7t6.5 -17z" />
    <glyph glyph-name="ordmasculine" unicode="&#xba;" horiz-adv-x="774" 
d="M387 1446q68 0 122 -21t87.5 -53.5t56 -76t31 -85t8.5 -82.5q0 -43 -8.5 -84.5t-31 -84.5t-56 -75t-87.5 -52.5t-122 -20.5t-122 20.5t-87.5 52.5t-56 75t-31 84.5t-8.5 84.5q0 41 8.5 82.5t31 85t56 76t87.5 53.5t122 21zM387 905q48 0 85 18t56.5 43.5t32 58.5t16 57.5
t3.5 45.5t-3.5 44.5t-16 56.5t-32 58t-56.5 43t-85 18t-85 -18t-56.5 -43t-31.5 -58t-15.5 -56.5t-3.5 -44.5t3.5 -45.5t15.5 -57.5t31.5 -58.5t56.5 -43.5t85 -18zM152 612h469q12 0 21 -9t9 -21v-39q0 -12 -9 -21.5t-21 -9.5h-469q-12 0 -21.5 9.5t-9.5 21.5v39
q0 12 9.5 21t21.5 9z" />
    <glyph glyph-name="guillemotright" unicode="&#xbb;" horiz-adv-x="915" 
d="M453 219l247 295l-249 295q-9 9 -8 21.5t10 21.5l26 27q9 8 22.5 7.5t20.5 -9.5l326 -345q6 -9 6 -18t-6 -18l-326 -342q-7 -9 -20.5 -9.5t-22.5 7.5l-24 24q-9 8 -10 21t8 22zM84 219l248 295l-250 295q-20 21 2 43l27 27q9 8 22.5 7.5t20.5 -9.5l325 -345q6 -9 6 -18
t-6 -18l-325 -342q-7 -9 -20.5 -9.5t-22.5 7.5l-25 24q-9 8 -10 21t8 22z" />
    <glyph glyph-name="onequarter" unicode="&#xbc;" horiz-adv-x="1114" 
d="M303 1413v-625q0 -12 -9.5 -21t-21.5 -9h-43q-12 0 -21 9t-9 21v484q-17 -9 -50.5 -31t-37.5 -24q-10 -6 -23.5 -3t-19.5 13l-11 14q-6 10 -3.5 24t12.5 21l182 135q16 13 35 13q20 0 20 -21zM926 1407l-686 -1380q-14 -27 -45 -27h-64q-10 0 -15.5 9t-0.5 18l688 1380
q13 27 45 27h61q10 0 16 -9t1 -18zM920 131v-100q0 -12 -9.5 -21.5t-21.5 -9.5h-43q-12 0 -21.5 9.5t-9.5 21.5v100h-262q-12 0 -20.5 8.5t-8.5 20.5q0 28 17 55l278 430q17 27 47 27h23q12 0 21.5 -9.5t9.5 -21.5v-418h61q12 0 21.5 -9t9.5 -21v-31q0 -12 -9.5 -21.5
t-21.5 -9.5h-61zM815 473l-162 -250h162v250z" />
    <glyph glyph-name="onehalf" unicode="&#xbd;" horiz-adv-x="1198" 
d="M926 1407l-686 -1380q-14 -27 -45 -27h-64q-10 0 -15.5 9t-0.5 18l688 1380q13 27 45 27h61q10 0 16 -9t1 -18zM688 535l-18 16q-8 9 -7.5 22.5t9.5 20.5q92 86 194 86q97 0 155 -56t52 -157q-7 -67 -86 -170l-180 -203h219q12 0 21.5 -9.5t9.5 -21.5v-32
q0 -12 -9.5 -21.5t-21.5 -9.5h-344q-10 0 -18.5 8t-8.5 19q0 23 17 47l239 284q56 60 62 111q9 49 -15 86t-90 37q-61 0 -137 -60q-9 -9 -22 -7.5t-21 10.5zM303 1407v-619q0 -12 -9.5 -21t-21.5 -9h-43q-12 0 -21 9t-9 21v484q-17 -9 -50.5 -31t-37.5 -24q-10 -6 -23.5 -3
t-19.5 13l-11 14q-6 10 -3.5 24t12.5 21l165 131q20 17 45 17q10 0 18.5 -8t8.5 -19z" />
    <glyph glyph-name="threequarters" unicode="&#xbe;" horiz-adv-x="1226" 
d="M1018 1407l-686 -1380q-14 -27 -45 -27h-64q-10 0 -15.5 9t-0.5 18l688 1380q13 27 45 27h61q10 0 16 -9t1 -18zM1012 131v-100q0 -12 -9.5 -21.5t-21.5 -9.5h-43q-12 0 -21.5 9.5t-9.5 21.5v100h-262q-12 0 -20.5 8.5t-8.5 20.5q0 28 17 55l278 430q17 27 47 27h23
q12 0 21.5 -9.5t9.5 -21.5v-418h61q12 0 21.5 -9t9.5 -21v-31q0 -12 -9.5 -21.5t-21.5 -9.5h-61zM907 473l-162 -250h162v250zM485 1245q0 -87 -77 -151q77 -64 77 -148q0 -31 -10 -61.5t-32.5 -62.5t-68.5 -52t-110 -20q-102 0 -180 63q-9 8 -10 21t8 22l14 18q21 24 45 7
q73 -47 123 -47q51 0 87 29t36 83q0 53 -35.5 80t-87.5 27h-53q-12 0 -21.5 9t-9.5 21v23q0 12 9.5 21.5t21.5 9.5h53q52 0 87.5 27t35.5 81q0 53 -36 82t-87 29q-54 0 -121 -43q-25 -14 -45 6l-12 14q-20 21 2 43q82 66 176 66q64 0 110 -20t68.5 -52t32.5 -63t10 -62z" />
    <glyph glyph-name="questiondown" unicode="&#xbf;" horiz-adv-x="1105" 
d="M664 930q0 -44 -32 -74.5t-77 -30.5q-47 0 -78 30t-31 75t31 75.5t78 30.5q45 0 77 -31t32 -75zM479 498v94q0 12 9.5 21.5t21.5 9.5h92q12 0 21.5 -9.5t9.5 -21.5v-96q0 -50 -22 -100t-47 -82.5t-70 -82.5q-3 -3 -28.5 -33.5t-30 -36.5t-25 -33t-25.5 -38t-18.5 -36
t-17.5 -42.5t-8.5 -42t-4.5 -49.5q0 -26 4.5 -50.5t19 -53.5t38 -50.5t65.5 -35t98 -11.5q72 1 130 34t134 104q9 8 22.5 7.5t22.5 -9.5l50 -50q9 -7 9.5 -20.5t-7.5 -22.5q-94 -97 -185.5 -139.5t-216.5 -42.5q-158 0 -257 88.5t-99 249.5q0 97 53.5 187.5t138.5 185.5
q57 65 88 114t35 93z" />
    <glyph glyph-name="Agrave" unicode="&#xc0;" horiz-adv-x="1398" 
d="M1130 29l-149 366h-569l-148 -366q-13 -29 -43 -29h-129q-11 0 -16.5 9.5t-1.5 19.5l581 1390q10 27 41 27q27 0 37 -27l592 -1390q4 -10 -1.5 -19.5t-16.5 -9.5h-133q-31 0 -44 29zM694 1098l-225 -559h453zM604 1919l268 -199q10 -7 12.5 -20.5t-5.5 -22.5l-25 -37
q-6 -11 -19 -13t-24 5l-283 172q-10 6 -13 19t3 22l45 66q6 11 18 13t23 -5z" />
    <glyph glyph-name="Aacute" unicode="&#xc1;" horiz-adv-x="1398" 
d="M1130 29l-149 366h-569l-148 -366q-13 -29 -43 -29h-129q-11 0 -16.5 9.5t-1.5 19.5l581 1390q10 27 41 27q27 0 37 -27l592 -1390q4 -10 -1.5 -19.5t-16.5 -9.5h-133q-31 0 -44 29zM694 1098l-225 -559h453zM795 1919q11 7 23 5t18 -13l45 -66q6 -9 2.5 -22t-13.5 -19
l-282 -172q-11 -7 -24 -5t-19 13l-25 37q-8 9 -6 22.5t12 20.5z" />
    <glyph glyph-name="Acircumflex" unicode="&#xc2;" horiz-adv-x="1398" 
d="M1130 29l-149 366h-569l-148 -366q-13 -29 -43 -29h-129q-11 0 -16.5 9.5t-1.5 19.5l581 1390q10 27 41 27q27 0 37 -27l592 -1390q4 -10 -1.5 -19.5t-16.5 -9.5h-133q-31 0 -44 29zM694 1098l-225 -559h453zM723 1919l268 -199q10 -7 12 -20.5t-6 -22.5l-24 -37
q-6 -11 -19 -13t-24 5l-232 142l-231 -142q-11 -7 -24 -5t-21 13l-25 37q-6 9 -3.5 22.5t12.5 20.5l268 199q25 17 49 0z" />
    <glyph glyph-name="Atilde" unicode="&#xc3;" horiz-adv-x="1398" 
d="M1130 29l-149 366h-569l-148 -366q-13 -29 -43 -29h-129q-11 0 -16.5 9.5t-1.5 19.5l581 1390q10 27 41 27q27 0 37 -27l592 -1390q4 -10 -1.5 -19.5t-16.5 -9.5h-133q-31 0 -44 29zM694 1098l-225 -559h453zM946 1815l41 -23q11 -6 14.5 -18t-2.5 -23
q-74 -127 -200 -127q-46 0 -106.5 41t-106.5 41q-57 0 -97 -57q-18 -25 -45 -15l-34 17q-11 6 -16 18.5t-1 24.5q31 74 83.5 106.5t111.5 32.5q41 0 77.5 -20.5t70 -41t67.5 -20.5q56 0 98 53q8 9 21 13t24 -2z" />
    <glyph glyph-name="Adieresis" unicode="&#xc4;" horiz-adv-x="1398" 
d="M338 1726q0 45 30 76t74 31t75.5 -31.5t31.5 -75.5t-31 -74t-76 -30q-44 0 -74 30t-30 74zM848 1726q0 45 30 76t74 31t75.5 -31.5t31.5 -75.5t-31 -74t-76 -30q-44 0 -74 30t-30 74zM1130 29l-149 366h-569l-148 -366q-13 -29 -43 -29h-129q-11 0 -16.5 9.5t-1.5 19.5
l581 1390q10 27 41 27q27 0 37 -27l592 -1390q4 -10 -1.5 -19.5t-16.5 -9.5h-133q-31 0 -44 29zM694 1098l-225 -559h453z" />
    <glyph glyph-name="Aring" unicode="&#xc5;" horiz-adv-x="1398" 
d="M492 1819q0 86 61 147.5t147 61.5t146.5 -61.5t60.5 -147.5t-60.5 -146.5t-146.5 -60.5t-147 60.5t-61 146.5zM600 1819q0 -39 29.5 -69t70.5 -30q38 0 68.5 30.5t30.5 68.5q0 41 -30 70.5t-69 29.5q-41 0 -70.5 -29.5t-29.5 -70.5zM1130 29l-149 366h-569l-148 -366
q-13 -29 -43 -29h-129q-11 0 -16.5 9.5t-1.5 19.5l581 1390q10 27 41 27q27 0 37 -27l592 -1390q4 -10 -1.5 -19.5t-16.5 -9.5h-133q-31 0 -44 29zM694 1098l-225 -559h453z" />
    <glyph glyph-name="AE" unicode="&#xc6;" horiz-adv-x="1744" 
d="M1427 633h-559v-486h723q12 0 21.5 -9t9.5 -21v-86q0 -12 -9.5 -21.5t-21.5 -9.5h-866q-12 0 -21.5 9.5t-9.5 21.5v364h-280l-150 -366q-13 -29 -43 -29h-129q-11 0 -16.5 9.5t-1.5 19.5l583 1376q15 29 43 29h891q12 0 21.5 -9.5t9.5 -21.5v-86q0 -12 -9.5 -21.5
t-21.5 -9.5h-723v-506h559q12 0 21.5 -9t9.5 -21v-86q0 -12 -9.5 -21.5t-21.5 -9.5zM694 1077l-221 -538h221v538z" />
    <glyph glyph-name="Ccedilla" unicode="&#xc7;" horiz-adv-x="1470" 
d="M768 -156q-6 6 -6 15v127q-142 9 -255 61.5t-183 127.5t-117 172t-65.5 189.5t-18.5 186.5q0 67 10 135t34.5 141.5t61.5 138.5t94 124.5t128 102.5t168.5 68t211.5 25q160 0 278.5 -49.5t215.5 -142.5q9 -9 9 -22.5t-9 -22.5l-63 -64q-9 -7 -22.5 -7t-22.5 7
q-77 64 -181 108t-205 44q-96 0 -175.5 -25t-133 -65.5t-95 -95t-64.5 -108.5t-38 -112.5t-19.5 -101t-4.5 -78.5q0 -37 4.5 -79t19.5 -100.5t38 -112.5t64.5 -108.5t95 -94t133 -64.5t175.5 -25q202 0 390 146q11 7 23 6t20 -10q12 -16 63 -76q17 -24 -4 -45
q-194 -170 -463 -178v-58h27q84 -4 131 -55.5t47 -112.5q4 -99 -60 -154t-149 -55q-80 0 -141 35q-12 6 -15.5 19.5t2.5 23.5l13 29q6 12 18.5 15.5t22.5 -1.5q50 -20 90 -20q59 0 83.5 34t24.5 70q-2 35 -29 60.5t-83 25.5h-60q-8 0 -14 6z" />
    <glyph glyph-name="Egrave" unicode="&#xc8;" horiz-adv-x="1255" 
d="M938 633h-559v-486h723q12 0 21.5 -9t9.5 -21v-86q0 -12 -9.5 -21.5t-21.5 -9.5h-866q-12 0 -21.5 9.5t-9.5 21.5v1372q0 12 9.5 21.5t21.5 9.5h866q12 0 21.5 -9.5t9.5 -21.5v-86q0 -12 -9.5 -21.5t-21.5 -9.5h-723v-506h559q12 0 21.5 -9t9.5 -21v-86q0 -12 -9.5 -21.5
t-21.5 -9.5zM532 1919l269 -199q10 -7 12 -20.5t-6 -22.5l-25 -37q-6 -11 -19 -13t-24 5l-282 172q-10 6 -13.5 19t2.5 22l46 66q6 11 17.5 13t22.5 -5z" />
    <glyph glyph-name="Eacute" unicode="&#xc9;" horiz-adv-x="1255" 
d="M938 633h-559v-486h723q12 0 21.5 -9t9.5 -21v-86q0 -12 -9.5 -21.5t-21.5 -9.5h-866q-12 0 -21.5 9.5t-9.5 21.5v1372q0 12 9.5 21.5t21.5 9.5h866q12 0 21.5 -9.5t9.5 -21.5v-86q0 -12 -9.5 -21.5t-21.5 -9.5h-723v-506h559q12 0 21.5 -9t9.5 -21v-86q0 -12 -9.5 -21.5
t-21.5 -9.5zM455 1720l268 199q9 8 22 5t19 -13l45 -66q6 -9 3 -22t-13 -19l-283 -172q-11 -7 -24 -5t-21 13l-25 37q-6 9 -3.5 22.5t12.5 20.5z" />
    <glyph glyph-name="Ecircumflex" unicode="&#xca;" horiz-adv-x="1255" 
d="M938 633h-559v-486h723q12 0 21.5 -9t9.5 -21v-86q0 -12 -9.5 -21.5t-21.5 -9.5h-866q-12 0 -21.5 9.5t-9.5 21.5v1372q0 12 9.5 21.5t21.5 9.5h866q12 0 21.5 -9.5t9.5 -21.5v-86q0 -12 -9.5 -21.5t-21.5 -9.5h-723v-506h559q12 0 21.5 -9t9.5 -21v-86q0 -12 -9.5 -21.5
t-21.5 -9.5zM651 1919l269 -199q10 -7 12 -20.5t-6 -22.5l-25 -37q-6 -11 -19 -13t-24 5l-231 142l-232 -142q-11 -7 -24 -5t-21 13l-24 37q-6 9 -4 22.5t12 20.5l268 199q24 17 49 0z" />
    <glyph glyph-name="Edieresis" unicode="&#xcb;" horiz-adv-x="1255" 
d="M266 1726q0 44 30.5 75.5t74.5 31.5t75 -31.5t31 -75.5t-31 -74t-75 -30t-74.5 30t-30.5 74zM776 1726q0 44 30.5 75.5t74.5 31.5t75 -31.5t31 -75.5t-31 -74t-75 -30t-74.5 30t-30.5 74zM938 633h-559v-486h723q12 0 21.5 -9t9.5 -21v-86q0 -12 -9.5 -21.5t-21.5 -9.5
h-866q-12 0 -21.5 9.5t-9.5 21.5v1372q0 12 9.5 21.5t21.5 9.5h866q12 0 21.5 -9.5t9.5 -21.5v-86q0 -12 -9.5 -21.5t-21.5 -9.5h-723v-506h559q12 0 21.5 -9t9.5 -21v-86q0 -12 -9.5 -21.5t-21.5 -9.5z" />
    <glyph glyph-name="Igrave" unicode="&#xcc;" horiz-adv-x="477" 
d="M326 1403v-1372q0 -12 -9.5 -21.5t-21.5 -9.5h-113q-12 0 -21 9.5t-9 21.5v1372q0 12 9 21.5t21 9.5h113q12 0 21.5 -9.5t9.5 -21.5zM143 1919l269 -199q10 -7 12 -20.5t-6 -22.5l-25 -37q-6 -11 -19 -13t-24 5l-282 172q-10 6 -13.5 19t2.5 22l45 66q6 11 18 13t23 -5z
" />
    <glyph glyph-name="Iacute" unicode="&#xcd;" horiz-adv-x="477" 
d="M152 31v1372q0 12 9 21.5t21 9.5h113q12 0 21.5 -9.5t9.5 -21.5v-1372q0 -12 -9.5 -21.5t-21.5 -9.5h-113q-12 0 -21 9.5t-9 21.5zM66 1720l268 199q11 7 23 5t18 -13l45 -66q6 -9 3 -22t-13 -19l-283 -172q-11 -7 -24 -5t-19 13l-25 37q-8 9 -5.5 22.5t12.5 20.5z" />
    <glyph glyph-name="Icircumflex" unicode="&#xce;" horiz-adv-x="634" 
d="M403 1403v-1372q0 -12 -9 -21.5t-21 -9.5h-113q-12 0 -21.5 9.5t-9.5 21.5v1372q0 12 9.5 21.5t21.5 9.5h113q12 0 21 -9.5t9 -21.5zM342 1919l268 -199q10 -7 12 -20.5t-6 -22.5l-24 -37q-6 -11 -19 -13t-24 5l-232 142l-231 -142q-11 -7 -24 -5t-21 13l-25 37
q-6 9 -3.5 22.5t12.5 20.5l268 199q24 17 49 0z" />
    <glyph glyph-name="Idieresis" unicode="&#xcf;" horiz-adv-x="720" 
d="M446 1403v-1372q0 -12 -9 -21.5t-21 -9.5h-113q-12 0 -21.5 9.5t-9.5 21.5v1372q0 12 9.5 21.5t21.5 9.5h113q12 0 21 -9.5t9 -21.5zM4 1757q9 33 36.5 54.5t63.5 21.5q44 0 75.5 -31.5t31.5 -75.5t-31 -74t-76 -30q-36 0 -63.5 20.5t-36.5 53.5q-9 31 0 61zM510 1726
q0 45 30 76t74 31t75.5 -31.5t31.5 -75.5t-31 -74t-76 -30q-44 0 -74 30t-30 74z" />
    <glyph glyph-name="Eth" unicode="&#xd0;" horiz-adv-x="1507" 
d="M217 1434h459q114 0 211.5 -24t168.5 -65t128 -98.5t94 -120.5t61.5 -134.5t34.5 -138.5t10 -134q0 -98 -20.5 -193t-72 -192t-129.5 -169.5t-203.5 -118.5t-282.5 -46h-459q-12 0 -21.5 9.5t-9.5 21.5v614h-94q-12 0 -21.5 9.5t-9.5 21.5v63q0 12 9.5 21.5t21.5 9.5h94
v633q0 12 9.5 21.5t21.5 9.5zM360 770h355q12 0 21 -9.5t9 -21.5v-63q0 -12 -9 -21.5t-21 -9.5h-355v-498h316q96 0 175.5 24.5t133 63t95 91.5t64.5 105.5t38 110t19.5 99t4.5 78.5t-4.5 78.5t-19.5 98.5t-38 109t-64.5 105t-95 91.5t-133 62.5t-175.5 24h-316v-518z" />
    <glyph glyph-name="Ntilde" unicode="&#xd1;" horiz-adv-x="1562" 
d="M350 0h-114q-12 0 -21.5 9.5t-9.5 21.5v1384q0 12 9.5 21.5t21.5 9.5h2q31 0 51 -23l895 -1034v1014q0 12 9 21.5t21 9.5h113q12 0 21.5 -9.5t9.5 -21.5v-1387q0 -12 -9.5 -20t-21.5 -8q-30 0 -49 22l-897 1039v-1018q0 -12 -9.5 -21.5t-21.5 -9.5zM1028 1815l41 -23
q11 -6 14.5 -18t-2.5 -23q-74 -127 -200 -127q-46 0 -106.5 41t-106.5 41q-57 0 -97 -57q-18 -25 -45 -15l-34 17q-11 6 -16 18.5t-1 24.5q31 74 83.5 106.5t111.5 32.5q41 0 77.5 -20.5t70 -41t67.5 -20.5q56 0 98 53q8 9 21 13t24 -2z" />
    <glyph glyph-name="Ograve" unicode="&#xd2;" horiz-adv-x="1662" 
d="M831 1454q114 0 211.5 -25t168.5 -68t128.5 -102.5t94 -124.5t61 -138.5t35 -141.5t10.5 -135q0 -69 -10.5 -138t-35 -142.5t-61 -139t-94 -124t-128.5 -101t-168.5 -67.5t-211.5 -25t-211.5 25t-168.5 67.5t-128 101.5t-94 124t-61.5 138.5t-34.5 142.5t-10 138
q0 67 10 135t34.5 141.5t61.5 138.5t94 124.5t128 102.5t168.5 68t211.5 25zM831 139q95 0 174.5 25t133 64.5t95 93.5t64.5 107.5t38 111.5t19.5 100t4.5 78t-4.5 78t-19.5 99.5t-38 110t-64.5 106.5t-95 93t-133 63.5t-174.5 24.5q-96 0 -175.5 -24.5t-133 -63.5t-95 -93
t-64.5 -106.5t-38 -110t-19.5 -99.5t-4.5 -78t4.5 -78t19.5 -100t38 -111.5t64.5 -107.5t95 -93.5t133 -64.5t175.5 -25zM735 1919l269 -199q10 -7 12 -20.5t-6 -22.5l-25 -37q-6 -11 -19 -13t-24 5l-283 172q-10 6 -13 19t3 22l45 66q6 11 18 13t23 -5z" />
    <glyph glyph-name="Oacute" unicode="&#xd3;" horiz-adv-x="1662" 
d="M831 1454q114 0 211.5 -25t168.5 -68t128.5 -102.5t94 -124.5t61 -138.5t35 -141.5t10.5 -135q0 -69 -10.5 -138t-35 -142.5t-61 -139t-94 -124t-128.5 -101t-168.5 -67.5t-211.5 -25t-211.5 25t-168.5 67.5t-128 101.5t-94 124t-61.5 138.5t-34.5 142.5t-10 138
q0 67 10 135t34.5 141.5t61.5 138.5t94 124.5t128 102.5t168.5 68t211.5 25zM831 139q95 0 174.5 25t133 64.5t95 93.5t64.5 107.5t38 111.5t19.5 100t4.5 78t-4.5 78t-19.5 99.5t-38 110t-64.5 106.5t-95 93t-133 63.5t-174.5 24.5q-96 0 -175.5 -24.5t-133 -63.5t-95 -93
t-64.5 -106.5t-38 -110t-19.5 -99.5t-4.5 -78t4.5 -78t19.5 -100t38 -111.5t64.5 -107.5t95 -93.5t133 -64.5t175.5 -25zM657 1720l269 199q11 7 23 5t18 -13l45 -66q6 -9 2.5 -22t-13.5 -19l-282 -172q-11 -7 -24 -5t-19 13l-25 37q-8 9 -6 22.5t12 20.5z" />
    <glyph glyph-name="Ocircumflex" unicode="&#xd4;" horiz-adv-x="1662" 
d="M831 1454q114 0 211.5 -25t168.5 -68t128.5 -102.5t94 -124.5t61 -138.5t35 -141.5t10.5 -135q0 -69 -10.5 -138t-35 -142.5t-61 -139t-94 -124t-128.5 -101t-168.5 -67.5t-211.5 -25t-211.5 25t-168.5 67.5t-128 101.5t-94 124t-61.5 138.5t-34.5 142.5t-10 138
q0 67 10 135t34.5 141.5t61.5 138.5t94 124.5t128 102.5t168.5 68t211.5 25zM831 139q95 0 174.5 25t133 64.5t95 93.5t64.5 107.5t38 111.5t19.5 100t4.5 78t-4.5 78t-19.5 99.5t-38 110t-64.5 106.5t-95 93t-133 63.5t-174.5 24.5q-96 0 -175.5 -24.5t-133 -63.5t-95 -93
t-64.5 -106.5t-38 -110t-19.5 -99.5t-4.5 -78t4.5 -78t19.5 -100t38 -111.5t64.5 -107.5t95 -93.5t133 -64.5t175.5 -25zM846 1919l268 -199q10 -7 12 -20.5t-6 -22.5l-24 -37q-6 -11 -19 -13t-24 5l-232 142l-231 -142q-11 -7 -24 -5t-21 13l-25 37q-6 9 -4 22.5t12 20.5
l269 199q24 17 49 0z" />
    <glyph glyph-name="Otilde" unicode="&#xd5;" horiz-adv-x="1662" 
d="M831 1454q114 0 211.5 -25t168.5 -68t128.5 -102.5t94 -124.5t61 -138.5t35 -141.5t10.5 -135q0 -69 -10.5 -138t-35 -142.5t-61 -139t-94 -124t-128.5 -101t-168.5 -67.5t-211.5 -25t-211.5 25t-168.5 67.5t-128 101.5t-94 124t-61.5 138.5t-34.5 142.5t-10 138
q0 67 10 135t34.5 141.5t61.5 138.5t94 124.5t128 102.5t168.5 68t211.5 25zM831 139q95 0 174.5 25t133 64.5t95 93.5t64.5 107.5t38 111.5t19.5 100t4.5 78t-4.5 78t-19.5 99.5t-38 110t-64.5 106.5t-95 93t-133 63.5t-174.5 24.5q-96 0 -175.5 -24.5t-133 -63.5t-95 -93
t-64.5 -106.5t-38 -110t-19.5 -99.5t-4.5 -78t4.5 -78t19.5 -100t38 -111.5t64.5 -107.5t95 -93.5t133 -64.5t175.5 -25zM1079 1815l41 -23q11 -6 15 -18t-2 -23q-74 -127 -201 -127q-46 0 -106.5 41t-106.5 41q-56 0 -96 -57q-18 -25 -45 -15l-35 17q-11 6 -16 18.5
t-1 24.5q31 74 83.5 106.5t111.5 32.5q41 0 77.5 -20.5t70 -41t67.5 -20.5q56 0 98 53q8 9 21 13t24 -2z" />
    <glyph glyph-name="Odieresis" unicode="&#xd6;" horiz-adv-x="1662" 
d="M831 1454q114 0 211.5 -25t168.5 -68t128.5 -102.5t94 -124.5t61 -138.5t35 -141.5t10.5 -135q0 -69 -10.5 -138t-35 -142.5t-61 -139t-94 -124t-128.5 -101t-168.5 -67.5t-211.5 -25t-211.5 25t-168.5 67.5t-128 101.5t-94 124t-61.5 138.5t-34.5 142.5t-10 138
q0 67 10 135t34.5 141.5t61.5 138.5t94 124.5t128 102.5t168.5 68t211.5 25zM831 139q95 0 174.5 25t133 64.5t95 93.5t64.5 107.5t38 111.5t19.5 100t4.5 78t-4.5 78t-19.5 99.5t-38 110t-64.5 106.5t-95 93t-133 63.5t-174.5 24.5q-96 0 -175.5 -24.5t-133 -63.5t-95 -93
t-64.5 -106.5t-38 -110t-19.5 -99.5t-4.5 -78t4.5 -78t19.5 -100t38 -111.5t64.5 -107.5t95 -93.5t133 -64.5t175.5 -25zM471 1726q0 45 30 76t74 31t75.5 -31.5t31.5 -75.5t-31 -74t-76 -30q-44 0 -74 30t-30 74zM981 1726q0 45 30 76t74 31t75.5 -31.5t31.5 -75.5t-31 -74
t-76 -30q-44 0 -74 30t-30 74z" />
    <glyph glyph-name="multiply" unicode="&#xd7;" horiz-adv-x="1073" 
d="M311 709l224 -224l223 224q9 9 22.5 9.5t22.5 -7.5l41 -41q9 -8 9 -21t-9 -22l-223 -224l225 -225q9 -9 9 -22.5t-9 -22.5l-41 -41q-9 -9 -22.5 -9t-22.5 9l-225 225l-226 -225q-9 -9 -22 -9t-21 9l-41 41q-8 9 -7.5 22.5t9.5 22.5l224 225l-222 224q-9 9 -9 22.5t9 22.5
l37 37q9 9 22.5 9t22.5 -9z" />
    <glyph glyph-name="Oslash" unicode="&#xd8;" horiz-adv-x="1662" 
d="M1341 1255q103 -108 151 -251t48 -285q0 -69 -10.5 -138t-35 -142.5t-61 -139t-94 -124t-128.5 -101t-168.5 -67.5t-211.5 -25q-273 0 -446 137l-78 -94q-22 -22 -45 -2l-41 32q-9 9 -10 21.5t8 21.5l82 101q-92 106 -135 243t-43 277q0 67 10 135t34.5 141.5t61.5 138.5
t94 124.5t128 102.5t168.5 68t211.5 25q251 0 424 -123l78 92q9 11 21.5 12t21.5 -8l41 -32q11 -9 12 -21.5t-8 -23.5zM301 719q0 -84 25 -189t90 -196l729 866q-130 94 -314 94q-96 0 -175.5 -24.5t-133 -63.5t-95 -93t-64.5 -106.5t-38 -110t-19.5 -99.5t-4.5 -78z
M831 139q95 0 174.5 25t133 64.5t95 93.5t64.5 107.5t38 111.5t19.5 100t4.5 78q0 87 -29.5 198.5t-101.5 202.5l-733 -870q135 -111 335 -111z" />
    <glyph glyph-name="Ugrave" unicode="&#xd9;" horiz-adv-x="1474" 
d="M915 1677l-24 -37q-6 -11 -19 -13t-24 5l-283 172q-10 6 -13 19t3 22l45 66q6 11 18 13t23 -5l268 -199q10 -7 12 -20.5t-6 -22.5zM1145 1434h115q12 0 21 -9.5t9 -21.5v-862q0 -75 -17.5 -149.5t-59.5 -148.5t-104 -130.5t-158.5 -91.5t-215.5 -35q-118 0 -214 35
t-157.5 91.5t-103 130.5t-59 148.5t-17.5 149.5v862q0 12 9.5 21.5t21.5 9.5h111q12 0 21 -9.5t9 -21.5v-862q0 -38 10 -85.5t37 -106.5t67.5 -106t109.5 -79.5t155 -32.5q87 0 156 32.5t109.5 79.5t67.5 106t36.5 106.5t9.5 85.5v862q0 12 9.5 21.5t21.5 9.5z" />
    <glyph glyph-name="Uacute" unicode="&#xda;" horiz-adv-x="1474" 
d="M582 1640l-25 37q-8 9 -6 22.5t12 20.5l268 199q11 7 23 5t18 -13l46 -66q6 -9 2.5 -22t-13.5 -19l-282 -172q-11 -7 -24 -5t-19 13zM1145 1434h115q12 0 21 -9.5t9 -21.5v-862q0 -75 -17.5 -149.5t-59.5 -148.5t-104 -130.5t-158.5 -91.5t-215.5 -35q-118 0 -214 35
t-157.5 91.5t-103 130.5t-59 148.5t-17.5 149.5v862q0 12 9.5 21.5t21.5 9.5h111q12 0 21 -9.5t9 -21.5v-862q0 -38 10 -85.5t37 -106.5t67.5 -106t109.5 -79.5t155 -32.5q87 0 156 32.5t109.5 79.5t67.5 106t36.5 106.5t9.5 85.5v862q0 12 9.5 21.5t21.5 9.5z" />
    <glyph glyph-name="Ucircumflex" unicode="&#xdb;" horiz-adv-x="1474" 
d="M1145 1434h115q12 0 21 -9.5t9 -21.5v-862q0 -75 -17.5 -149.5t-59.5 -148.5t-104 -130.5t-158.5 -91.5t-215.5 -35q-118 0 -214 35t-157.5 91.5t-103 130.5t-59 148.5t-17.5 149.5v862q0 12 9.5 21.5t21.5 9.5h111q12 0 21 -9.5t9 -21.5v-862q0 -38 10 -85.5t37 -106.5
t67.5 -106t109.5 -79.5t155 -32.5q87 0 156 32.5t109.5 79.5t67.5 106t36.5 106.5t9.5 85.5v862q0 12 9.5 21.5t21.5 9.5zM737 1774l-231 -142q-11 -7 -24 -5t-21 13l-25 37q-6 9 -4 22.5t12 20.5l269 199q24 17 49 0l268 -199q10 -7 12 -20.5t-6 -22.5l-24 -37
q-6 -11 -19 -13t-24 5z" />
    <glyph glyph-name="Udieresis" unicode="&#xdc;" horiz-adv-x="1474" 
d="M377 1726q0 45 30 76t74 31t75.5 -31.5t31.5 -75.5t-31 -74t-76 -30q-44 0 -74 30t-30 74zM887 1726q0 45 30 76t74 31t75.5 -31.5t31.5 -75.5t-31 -74t-76 -30q-44 0 -74 30t-30 74zM1145 1434h115q12 0 21 -9.5t9 -21.5v-862q0 -75 -17.5 -149.5t-59.5 -148.5
t-104 -130.5t-158.5 -91.5t-215.5 -35q-118 0 -214 35t-157.5 91.5t-103 130.5t-59 148.5t-17.5 149.5v862q0 12 9.5 21.5t21.5 9.5h111q12 0 21 -9.5t9 -21.5v-862q0 -38 10 -85.5t37 -106.5t67.5 -106t109.5 -79.5t155 -32.5q87 0 156 32.5t109.5 79.5t67.5 106
t36.5 106.5t9.5 85.5v862q0 12 9.5 21.5t21.5 9.5z" />
    <glyph glyph-name="Yacute" unicode="&#xdd;" horiz-adv-x="1273" 
d="M723 651v-620q0 -12 -9.5 -21.5t-21.5 -9.5h-114q-12 0 -21.5 9.5t-9.5 21.5v618l-469 758q-6 9 -1.5 18t15.5 9h135q30 0 47 -27l361 -594l360 594q17 27 47 27h140q9 0 13.5 -9t0.5 -18zM463 1720l268 199q9 8 22 5t19 -13l45 -66q6 -9 3 -22t-13 -19l-283 -172
q-11 -7 -24 -5t-21 13l-24 37q-6 9 -4 22.5t12 20.5z" />
    <glyph glyph-name="Thorn" unicode="&#xde;" horiz-adv-x="1282" 
d="M653 195h-278v-164q0 -12 -9.5 -21.5t-21.5 -9.5h-108q-12 0 -21.5 9.5t-9.5 21.5v1372q0 12 9.5 21.5t21.5 9.5h108q12 0 21.5 -9.5t9.5 -21.5v-164h278q111 0 200.5 -34t145 -88t93 -124.5t52.5 -139t15 -136.5t-15 -136.5t-52.5 -139t-93 -124.5t-145 -88t-200.5 -34z
M375 1098v-762h262q84 0 150 29t104 71t62.5 96.5t33 99.5t8.5 85t-8.5 85t-33 99.5t-62.5 96.5t-104 71t-150 29h-262z" />
    <glyph glyph-name="germandbls" unicode="&#xdf;" horiz-adv-x="1310" 
d="M926 360q0 45 -21.5 88t-52 77t-61.5 66.5t-52.5 69.5t-21.5 72q0 33 17.5 64.5t43 59t51 57.5t43 71.5t17.5 89.5q0 8 -0.5 15.5t-5 32.5t-13 45.5t-27 47t-44 44.5t-67 30.5t-93.5 12.5q-31 0 -61.5 -5t-68 -21.5t-65 -43.5t-46.5 -75t-19 -111v-1160q0 -12 -9.5 -21
t-21.5 -9h-112q-12 0 -21.5 9t-9.5 21v1155q0 83 22 150t54.5 108.5t78.5 72t84 45t81.5 22.5t61 9t31.5 1q101 0 180.5 -27.5t125.5 -68.5t76 -94.5t40.5 -99t10.5 -87.5q0 -55 -15 -100.5t-36 -74.5t-42 -53.5t-36 -47.5t-15 -45q0 -33 20.5 -64.5t49.5 -61.5t58.5 -65
t50 -89.5t20.5 -119.5q0 -166 -128.5 -268.5t-373.5 -103.5q-12 0 -21.5 9t-9.5 21v74q0 12 9.5 21.5t21.5 9.5h12q86 0 149 20.5t96.5 57t49 77.5t15.5 90z" />
    <glyph glyph-name="agrave" unicode="&#xe0;" horiz-adv-x="1089" 
d="M449 1509l268 -198q10 -7 12 -20.5t-6 -22.5l-25 -37q-6 -11 -19 -13t-24 5l-282 172q-10 6 -13.5 19t2.5 22l46 65q6 11 18 13t23 -5zM236 858l-25 66q-6 12 -1 24t17 17q166 75 336 75q70 0 125.5 -13.5t93.5 -34.5t65 -55.5t42 -68t23.5 -80t11 -84.5t2.5 -88v-585
q0 -12 -9.5 -21.5t-21.5 -9.5h-29q-13 0 -24.5 8.5t-14.5 20.5l-30 104q-59 -77 -149 -114t-171 -37q-87 0 -153.5 23t-103.5 56t-60 76.5t-30 77.5t-7 66q0 92 31.5 159t88 104t123.5 53.5t148 16.5q130 0 240 -26v41q0 91 -15 148.5t-47.5 84.5t-70.5 34t-97 3
q-127 -16 -248 -59q-12 -5 -24 0.5t-16 17.5zM754 272v177q-114 28 -236 28q-239 0 -239 -178q0 -86 58 -131t146 -45q91 0 163 44t108 105z" />
    <glyph glyph-name="aacute" unicode="&#xe1;" horiz-adv-x="1089" 
d="M373 1311l268 198q9 8 22 5t19 -13l45 -65q6 -9 3 -22t-13 -19l-283 -172q-11 -7 -24 -5t-21 13l-24 37q-6 9 -4 22.5t12 20.5zM227 965q166 75 336 75q70 0 125.5 -13.5t93.5 -34.5t65 -55.5t42 -68t23.5 -80t11 -84.5t2.5 -88v-585q0 -12 -9.5 -21.5t-21.5 -9.5h-29
q-13 0 -24.5 8.5t-14.5 20.5l-30 104q-59 -77 -149 -114t-171 -37q-87 0 -153.5 23t-103.5 56t-60 76.5t-30 77.5t-7 66q0 92 31.5 159t88 104t123.5 53.5t148 16.5q130 0 240 -26v41q0 91 -15 148.5t-47.5 84.5t-70.5 34t-97 3q-127 -16 -248 -59q-12 -5 -24 0.5t-16 17.5
l-25 66q-6 12 -1 24t17 17zM754 272v177q-114 28 -236 28q-239 0 -239 -178q0 -86 58 -131t146 -45q91 0 163 44t108 105z" />
    <glyph glyph-name="acircumflex" unicode="&#xe2;" horiz-adv-x="1089" 
d="M569 1509l269 -198q10 -7 12 -20.5t-6 -22.5l-25 -37q-6 -11 -19 -13t-24 5l-231 141l-232 -141q-11 -7 -24 -5t-21 13l-24 37q-6 9 -4 22.5t12 20.5l268 198q25 17 49 0zM227 965q166 75 336 75q70 0 125.5 -13.5t93.5 -34.5t65 -55.5t42 -68t23.5 -80t11 -84.5t2.5 -88
v-585q0 -12 -9.5 -21.5t-21.5 -9.5h-29q-13 0 -24.5 8.5t-14.5 20.5l-30 104q-59 -77 -149 -114t-171 -37q-87 0 -153.5 23t-103.5 56t-60 76.5t-30 77.5t-7 66q0 92 31.5 159t88 104t123.5 53.5t148 16.5q130 0 240 -26v41q0 91 -15 148.5t-47.5 84.5t-70.5 34t-97 3
q-127 -16 -248 -59q-12 -5 -24 0.5t-16 17.5l-25 66q-6 12 -1 24t17 17zM754 272v177q-114 28 -236 28q-239 0 -239 -178q0 -86 58 -131t146 -45q91 0 163 44t108 105z" />
    <glyph glyph-name="atilde" unicode="&#xe3;" horiz-adv-x="1089" 
d="M793 1405l41 -23q11 -6 14.5 -18t-2.5 -23q-74 -127 -201 -127q-46 0 -106.5 41t-106.5 41q-56 0 -96 -57q-17 -24 -45 -14l-35 16q-11 6 -15.5 18.5t-0.5 24.5q59 139 194 139q41 0 77.5 -20.5t70 -41t67.5 -20.5q56 0 99 54q8 9 21 12.5t24 -2.5zM236 858l-25 66
q-6 12 -1 24t17 17q166 75 336 75q70 0 125.5 -13.5t93.5 -34.5t65 -55.5t42 -68t23.5 -80t11 -84.5t2.5 -88v-585q0 -12 -9.5 -21.5t-21.5 -9.5h-29q-13 0 -24.5 8.5t-14.5 20.5l-30 104q-59 -77 -149 -114t-171 -37q-87 0 -153.5 23t-103.5 56t-60 76.5t-30 77.5t-7 66
q0 92 31.5 159t88 104t123.5 53.5t148 16.5q130 0 240 -26v41q0 91 -15 148.5t-47.5 84.5t-70.5 34t-97 3q-127 -16 -248 -59q-12 -5 -24 0.5t-16 17.5zM754 272v177q-114 28 -236 28q-239 0 -239 -178q0 -86 58 -131t146 -45q91 0 163 44t108 105z" />
    <glyph glyph-name="adieresis" unicode="&#xe4;" horiz-adv-x="1089" 
d="M184 1317q0 44 30.5 75t74.5 31t75 -31t31 -75t-31 -74.5t-75 -30.5t-74.5 30.5t-30.5 74.5zM694 1317q0 44 30.5 75t74.5 31t75 -31t31 -75t-31 -74.5t-75 -30.5t-74.5 30.5t-30.5 74.5zM236 858l-25 66q-6 12 -1 24t17 17q166 75 336 75q70 0 125.5 -13.5t93.5 -34.5
t65 -55.5t42 -68t23.5 -80t11 -84.5t2.5 -88v-585q0 -12 -9.5 -21.5t-21.5 -9.5h-29q-13 0 -24.5 8.5t-14.5 20.5l-30 104q-59 -77 -149 -114t-171 -37q-87 0 -153.5 23t-103.5 56t-60 76.5t-30 77.5t-7 66q0 92 31.5 159t88 104t123.5 53.5t148 16.5q130 0 240 -26v41
q0 91 -15 148.5t-47.5 84.5t-70.5 34t-97 3q-127 -16 -248 -59q-12 -5 -24 0.5t-16 17.5zM754 272v177q-114 28 -236 28q-239 0 -239 -178q0 -86 58 -131t146 -45q91 0 163 44t108 105z" />
    <glyph glyph-name="aring" unicode="&#xe5;" horiz-adv-x="1089" 
d="M336 1409q0 86 61.5 147.5t147.5 61.5t146.5 -61.5t60.5 -147.5t-60.5 -146.5t-146.5 -60.5t-147.5 60.5t-61.5 146.5zM444 1409q0 -39 30 -68.5t71 -29.5q38 0 68 30t30 68q0 41 -29.5 70.5t-68.5 29.5q-41 0 -71 -29.5t-30 -70.5zM236 858l-25 66q-6 12 -1 24t17 17
q166 75 336 75q70 0 125.5 -13.5t93.5 -34.5t65 -55.5t42 -68t23.5 -80t11 -84.5t2.5 -88v-585q0 -12 -9.5 -21.5t-21.5 -9.5h-29q-13 0 -24.5 8.5t-14.5 20.5l-30 104q-59 -77 -149 -114t-171 -37q-87 0 -153.5 23t-103.5 56t-60 76.5t-30 77.5t-7 66q0 92 31.5 159t88 104
t123.5 53.5t148 16.5q130 0 240 -26v41q0 91 -15 148.5t-47.5 84.5t-70.5 34t-97 3q-127 -16 -248 -59q-12 -5 -24 0.5t-16 17.5zM754 272v177q-114 28 -236 28q-239 0 -239 -178q0 -86 58 -131t146 -45q91 0 163 44t108 105z" />
    <glyph glyph-name="ae" unicode="&#xe6;" horiz-adv-x="1718" 
d="M1626 612q0 -45 -6 -94q-1 -13 -11 -22t-24 -9h-708q2 -43 13 -88t37 -95t63 -88.5t96 -63.5t131 -25q159 0 288 98q10 8 23 7t20 -11l47 -59q7 -11 6 -24t-10 -21q-83 -70 -170.5 -101.5t-203.5 -31.5q-252 0 -388 163q-48 -66 -146 -115.5t-206 -49.5q-87 0 -153.5 23
t-103.5 56t-60 76.5t-30 77.5t-7 66q0 92 31.5 159t88 104t123.5 53.5t148 16.5q124 0 199 -16q8 64 32 137q-8 57 -26.5 92t-49 51t-63 20t-82.5 1q-127 -16 -248 -59q-12 -5 -24 0.5t-16 17.5l-25 66q-6 12 -1 24t17 17q166 75 336 75q213 0 299 -125q136 129 355 129
q195 0 302 -117t107 -315zM483 123q91 0 163 44t108 105q-34 80 -45 185q-110 20 -191 20q-239 0 -239 -178q0 -86 58 -131t146 -45zM1462 608q6 51 -3 98.5t-35 90.5t-80 70.5t-130 31.5q-80 0 -141.5 -26t-99 -71t-59 -91.5t-33.5 -102.5h581z" />
    <glyph glyph-name="ccedilla" unicode="&#xe7;" horiz-adv-x="1128" 
d="M571 -156q-6 6 -6 15v123q-101 8 -180.5 45.5t-127.5 91.5t-79.5 124.5t-43 138t-11.5 138.5q0 68 15 137.5t52 142t93 127.5t146.5 90.5t203.5 35.5q207 0 352 -142q8 -9 7.5 -22.5t-9.5 -20.5l-68 -63q-9 -9 -22.5 -9t-22.5 9q-111 88 -239 88q-140 0 -239 -100.5
t-99 -272.5q0 -74 22 -144t62.5 -126.5t106 -90.5t145.5 -34q146 0 248 92q9 9 22 9t21 -9l51 -59q9 -9 8 -22.5t-10 -22.5q-125 -122 -305 -133v-56h26q85 -4 131.5 -55.5t46.5 -112.5q0 -100 -61.5 -154.5t-147.5 -54.5q-80 0 -141 35q-12 6 -15 19.5t3 23.5l12 29
q6 12 18.5 15.5t22.5 -1.5q50 -20 90 -20q57 0 83 33t26 67q0 36 -26.5 63t-86.5 27h-59q-9 0 -15 6z" />
    <glyph glyph-name="egrave" unicode="&#xe8;" horiz-adv-x="1103" 
d="M731 1268l-24 -37q-6 -11 -19 -13t-24 5l-283 172q-10 6 -13 19t3 22l45 65q6 11 18 13t23 -5l268 -198q10 -7 12 -20.5t-6 -22.5zM1012 612q0 -45 -6 -94q-1 -13 -11 -22t-24 -9h-709q2 -43 13 -88t37 -95t63 -88.5t96 -63.5t131 -25q160 0 289 98q10 8 23 7t20 -11
l47 -59q7 -11 6 -24t-10 -21q-83 -70 -171 -101.5t-204 -31.5q-113 0 -203.5 34.5t-146.5 89t-93 126.5t-52 141.5t-15 140.5q0 69 15 138t52 140.5t93 126t146.5 89t203.5 34.5q195 0 302.5 -117t107.5 -315zM848 608q6 51 -3 98.5t-35 90.5t-80 70.5t-130 31.5
q-80 0 -141.5 -26t-99 -70.5t-59.5 -91.5t-34 -103h582z" />
    <glyph glyph-name="eacute" unicode="&#xe9;" horiz-adv-x="1103" 
d="M723 1395l-283 -172q-11 -7 -24 -5t-21 13l-24 37q-6 9 -4 22.5t12 20.5l268 198q9 8 22 5t19 -13l45 -65q6 -9 3 -22t-13 -19zM1012 612q0 -45 -6 -94q-1 -13 -11 -22t-24 -9h-709q2 -43 13 -88t37 -95t63 -88.5t96 -63.5t131 -25q160 0 289 98q10 8 23 7t20 -11l47 -59
q7 -11 6 -24t-10 -21q-83 -70 -171 -101.5t-204 -31.5q-113 0 -203.5 34.5t-146.5 89t-93 126.5t-52 141.5t-15 140.5q0 69 15 138t52 140.5t93 126t146.5 89t203.5 34.5q195 0 302.5 -117t107.5 -315zM848 608q6 51 -3 98.5t-35 90.5t-80 70.5t-130 31.5q-80 0 -141.5 -26
t-99 -70.5t-59.5 -91.5t-34 -103h582z" />
    <glyph glyph-name="ecircumflex" unicode="&#xea;" horiz-adv-x="1103" 
d="M588 1364l-232 -141q-11 -7 -24 -5t-21 13l-24 37q-6 9 -4 22.5t12 20.5l268 198q24 17 49 0l269 -198q10 -7 12 -20.5t-6 -22.5l-25 -37q-6 -11 -19 -13t-24 5zM1012 612q0 -45 -6 -94q-1 -13 -11 -22t-24 -9h-709q2 -43 13 -88t37 -95t63 -88.5t96 -63.5t131 -25
q160 0 289 98q10 8 23 7t20 -11l47 -59q7 -11 6 -24t-10 -21q-83 -70 -171 -101.5t-204 -31.5q-113 0 -203.5 34.5t-146.5 89t-93 126.5t-52 141.5t-15 140.5q0 69 15 138t52 140.5t93 126t146.5 89t203.5 34.5q195 0 302.5 -117t107.5 -315zM848 608q6 51 -3 98.5t-35 90.5
t-80 70.5t-130 31.5q-80 0 -141.5 -26t-99 -70.5t-59.5 -91.5t-34 -103h582z" />
    <glyph glyph-name="edieresis" unicode="&#xeb;" horiz-adv-x="1103" 
d="M233 1317q0 44 30.5 75t74.5 31t75 -31t31 -75t-31 -74.5t-75 -30.5t-74.5 30.5t-30.5 74.5zM743 1317q0 44 30.5 75t74.5 31t75 -31t31 -75t-31 -74.5t-75 -30.5t-74.5 30.5t-30.5 74.5zM1012 612q0 -45 -6 -94q-1 -13 -11 -22t-24 -9h-709q2 -43 13 -88t37 -95
t63 -88.5t96 -63.5t131 -25q160 0 289 98q10 8 23 7t20 -11l47 -59q7 -11 6 -24t-10 -21q-83 -70 -171 -101.5t-204 -31.5q-113 0 -203.5 34.5t-146.5 89t-93 126.5t-52 141.5t-15 140.5q0 69 15 138t52 140.5t93 126t146.5 89t203.5 34.5q195 0 302.5 -117t107.5 -315z
M848 608q6 51 -3 98.5t-35 90.5t-80 70.5t-130 31.5q-80 0 -141.5 -26t-99 -70.5t-59.5 -91.5t-34 -103h582z" />
    <glyph glyph-name="igrave" unicode="&#xec;" horiz-adv-x="477" 
d="M322 993v-964q0 -12 -9.5 -21.5t-21.5 -9.5h-109q-12 0 -21 9.5t-9 21.5v964q0 12 9 21.5t21 9.5h109q12 0 21.5 -9.5t9.5 -21.5zM143 1509l269 -198q10 -7 12 -20.5t-6 -22.5l-25 -37q-6 -11 -19 -13t-24 5l-282 172q-10 6 -13.5 19t2.5 22l45 65q6 11 18 13t23 -5z" />
    <glyph glyph-name="iacute" unicode="&#xed;" horiz-adv-x="477" 
d="M322 993v-964q0 -12 -9.5 -21.5t-21.5 -9.5h-109q-12 0 -21 9.5t-9 21.5v964q0 12 9 21.5t21 9.5h109q12 0 21.5 -9.5t9.5 -21.5zM66 1311l268 198q11 7 23 5t18 -13l45 -65q6 -9 3 -22t-13 -19l-283 -172q-11 -7 -24 -5t-19 13l-25 37q-8 9 -5.5 22.5t12.5 20.5z" />
    <glyph glyph-name="icircumflex" unicode="&#xee;" horiz-adv-x="634" 
d="M399 993v-964q0 -12 -9 -21.5t-21 -9.5h-109q-12 0 -21.5 9.5t-9.5 21.5v964q0 12 9.5 21.5t21.5 9.5h109q12 0 21 -9.5t9 -21.5zM342 1509l268 -198q10 -7 12 -20.5t-6 -22.5l-24 -37q-6 -11 -19 -13t-24 5l-232 141l-231 -141q-11 -7 -24 -5t-21 13l-25 37
q-6 9 -3.5 22.5t12.5 20.5l268 198q24 17 49 0z" />
    <glyph glyph-name="idieresis" unicode="&#xef;" horiz-adv-x="720" 
d="M272 29v964q0 12 9.5 21.5t21.5 9.5h109q12 0 21 -9.5t9 -21.5v-964q0 -12 -9 -21.5t-21 -9.5h-109q-12 0 -21.5 9.5t-9.5 21.5zM104 1423q44 0 75.5 -31t31.5 -75t-31.5 -74.5t-75.5 -30.5t-74 30.5t-30 74.5t30 75t74 31zM614 1423q44 0 75.5 -31t31.5 -75t-31.5 -74.5
t-75.5 -30.5t-74 30.5t-30 74.5t30 75t74 31z" />
    <glyph glyph-name="eth" unicode="&#xf0;" horiz-adv-x="1193" 
d="M629 1327l98 98q9 9 22.5 9.5t22.5 -7.5l47 -45q9 -8 9 -21t-9 -22l-90 -90q153 -135 246.5 -334t93.5 -460q0 -34 -5.5 -71.5t-20.5 -83.5t-38 -88t-60.5 -83t-84.5 -71.5t-114.5 -49.5t-147.5 -20q-109 -2 -195.5 31t-137 83.5t-83.5 114.5t-45 116.5t-12 96.5
q0 47 8.5 94t27 101.5t54.5 101t86 85.5t126.5 61t170.5 22q143 0 258 -82q-68 194 -225 336l-127 -127q-9 -8 -22.5 -7.5t-22.5 9.5l-45 45q-9 9 -9 22t9 21l116 117q-5 3 -40 26t-54 35q-10 6 -13 19.5t3 23.5l37 53q6 12 19.5 15.5t25.5 -2.5q55 -26 121 -72zM598 129
q74 0 134.5 28.5t98 75t58 103.5t20.5 117q-5 135 -83.5 219t-227.5 84q-76 0 -136 -26.5t-97 -71t-56.5 -99.5t-19.5 -115q0 -128 82 -221.5t227 -93.5z" />
    <glyph glyph-name="ntilde" unicode="&#xf1;" 
d="M334 731v-700q0 -12 -9.5 -21.5t-21.5 -9.5h-108q-12 0 -21.5 9.5t-9.5 21.5v962q0 12 9.5 21.5t21.5 9.5h26q30 0 41 -29l31 -98q135 143 336 143q79 0 142.5 -16t107.5 -43t76.5 -67.5t51.5 -83t30.5 -96.5t15.5 -101.5t4 -104.5v-497q0 -12 -9.5 -21.5t-21.5 -9.5
h-111q-12 0 -21 9.5t-9 21.5v495v41.5t-2.5 47t-6.5 53.5t-13 52t-21.5 52t-33.5 43.5t-47 37.5t-62.5 22.5t-80.5 9.5q-87 0 -169 -50.5t-115 -103.5zM838 1405l41 -23q11 -6 14.5 -18t-2.5 -23q-74 -127 -201 -127q-46 0 -106.5 41t-106.5 41q-56 0 -96 -57
q-17 -24 -45 -14l-35 16q-11 6 -15.5 18.5t-0.5 24.5q59 139 194 139q41 0 77.5 -20.5t70 -41t67.5 -20.5q56 0 99 54q8 9 21 12.5t24 -2.5z" />
    <glyph glyph-name="ograve" unicode="&#xf2;" horiz-adv-x="1265" 
d="M633 1040q113 0 203.5 -34.5t146.5 -89t93 -126t52 -140.5t15 -138q0 -71 -15 -140.5t-52 -140.5t-93 -125t-146.5 -88t-203.5 -34q-112 0 -202.5 34t-146.5 88t-93.5 125t-52.5 140.5t-15 140.5q0 69 15 138t52.5 140.5t93.5 126t146.5 89t202.5 34.5zM633 127
q62 0 113.5 16.5t86 42.5t61 61.5t41.5 71t24.5 74t12.5 66.5t3 53t-3 53t-12.5 66.5t-24.5 74t-41.5 71t-61 61.5t-86 42.5t-113.5 16.5q-71 0 -128 -21t-92.5 -57t-60.5 -76.5t-37 -86.5t-17 -80t-5 -64t5 -64t17 -80t37 -86.5t60.5 -76.5t92.5 -57t128 -21zM537 1509
l268 -198q10 -7 12 -20.5t-6 -22.5l-25 -37q-6 -11 -19 -13t-24 5l-282 172q-10 6 -13 19t3 22l45 65q6 11 18 13t23 -5z" />
    <glyph glyph-name="oacute" unicode="&#xf3;" horiz-adv-x="1265" 
d="M633 1040q113 0 203.5 -34.5t146.5 -89t93 -126t52 -140.5t15 -138q0 -71 -15 -140.5t-52 -140.5t-93 -125t-146.5 -88t-203.5 -34q-112 0 -202.5 34t-146.5 88t-93.5 125t-52.5 140.5t-15 140.5q0 69 15 138t52.5 140.5t93.5 126t146.5 89t202.5 34.5zM633 127
q62 0 113.5 16.5t86 42.5t61 61.5t41.5 71t24.5 74t12.5 66.5t3 53t-3 53t-12.5 66.5t-24.5 74t-41.5 71t-61 61.5t-86 42.5t-113.5 16.5q-71 0 -128 -21t-92.5 -57t-60.5 -76.5t-37 -86.5t-17 -80t-5 -64t5 -64t17 -80t37 -86.5t60.5 -76.5t92.5 -57t128 -21zM459 1311
l268 198q11 7 23 5t18 -13l45 -65q6 -9 3 -22t-13 -19l-283 -172q-11 -7 -24 -5t-19 13l-24 37q-8 9 -6 22.5t12 20.5z" />
    <glyph glyph-name="ocircumflex" unicode="&#xf4;" horiz-adv-x="1265" 
d="M633 1040q113 0 203.5 -34.5t146.5 -89t93 -126t52 -140.5t15 -138q0 -71 -15 -140.5t-52 -140.5t-93 -125t-146.5 -88t-203.5 -34q-112 0 -202.5 34t-146.5 88t-93.5 125t-52.5 140.5t-15 140.5q0 69 15 138t52.5 140.5t93.5 126t146.5 89t202.5 34.5zM633 127
q62 0 113.5 16.5t86 42.5t61 61.5t41.5 71t24.5 74t12.5 66.5t3 53t-3 53t-12.5 66.5t-24.5 74t-41.5 71t-61 61.5t-86 42.5t-113.5 16.5q-71 0 -128 -21t-92.5 -57t-60.5 -76.5t-37 -86.5t-17 -80t-5 -64t5 -64t17 -80t37 -86.5t60.5 -76.5t92.5 -57t128 -21zM657 1509
l269 -198q10 -7 12 -20.5t-6 -22.5l-25 -37q-6 -11 -19 -13t-24 5l-231 141l-232 -141q-11 -7 -24 -5t-21 13l-24 37q-6 9 -4 22.5t12 20.5l268 198q24 17 49 0z" />
    <glyph glyph-name="otilde" unicode="&#xf5;" horiz-adv-x="1265" 
d="M633 1040q113 0 203.5 -34.5t146.5 -89t93 -126t52 -140.5t15 -138q0 -71 -15 -140.5t-52 -140.5t-93 -125t-146.5 -88t-203.5 -34q-112 0 -202.5 34t-146.5 88t-93.5 125t-52.5 140.5t-15 140.5q0 69 15 138t52.5 140.5t93.5 126t146.5 89t202.5 34.5zM633 127
q62 0 113.5 16.5t86 42.5t61 61.5t41.5 71t24.5 74t12.5 66.5t3 53t-3 53t-12.5 66.5t-24.5 74t-41.5 71t-61 61.5t-86 42.5t-113.5 16.5q-71 0 -128 -21t-92.5 -57t-60.5 -76.5t-37 -86.5t-17 -80t-5 -64t5 -64t17 -80t37 -86.5t60.5 -76.5t92.5 -57t128 -21zM881 1405
l41 -23q11 -6 14.5 -18t-2.5 -23q-74 -127 -201 -127q-46 0 -106.5 41t-106.5 41q-56 0 -96 -57q-17 -24 -45 -14l-35 16q-11 6 -15.5 18.5t-0.5 24.5q59 139 194 139q41 0 77.5 -20.5t70 -41t67.5 -20.5q56 0 99 54q8 9 21 12.5t24 -2.5z" />
    <glyph glyph-name="odieresis" unicode="&#xf6;" horiz-adv-x="1265" 
d="M633 1040q113 0 203.5 -34.5t146.5 -89t93 -126t52 -140.5t15 -138q0 -71 -15 -140.5t-52 -140.5t-93 -125t-146.5 -88t-203.5 -34q-112 0 -202.5 34t-146.5 88t-93.5 125t-52.5 140.5t-15 140.5q0 69 15 138t52.5 140.5t93.5 126t146.5 89t202.5 34.5zM633 127
q62 0 113.5 16.5t86 42.5t61 61.5t41.5 71t24.5 74t12.5 66.5t3 53t-3 53t-12.5 66.5t-24.5 74t-41.5 71t-61 61.5t-86 42.5t-113.5 16.5q-71 0 -128 -21t-92.5 -57t-60.5 -76.5t-37 -86.5t-17 -80t-5 -64t5 -64t17 -80t37 -86.5t60.5 -76.5t92.5 -57t128 -21zM276 1317
q0 44 30.5 75t74.5 31t75 -31t31 -75t-31 -74.5t-75 -30.5t-74.5 30.5t-30.5 74.5zM786 1317q0 44 30.5 75t74.5 31t75 -31t31 -75t-31 -74.5t-75 -30.5t-74.5 30.5t-30.5 74.5z" />
    <glyph glyph-name="divide" unicode="&#xf7;" horiz-adv-x="946" 
d="M156 479h637q12 0 21 -9t9 -21v-93q0 -12 -9 -21t-21 -9h-637q-12 0 -21.5 9t-9.5 21v93q0 12 9.5 21t21.5 9zM371 156q8 34 35.5 54.5t66.5 20.5q45 0 77 -30t32 -76q0 -44 -32.5 -77.5t-76.5 -33.5q-38 0 -65.5 22.5t-36.5 57.5q-9 31 0 62zM367 709q0 47 29.5 77.5
t76.5 30.5q45 0 77 -31t32 -77q0 -44 -32.5 -77.5t-76.5 -33.5q-46 0 -76 33t-30 78z" />
    <glyph glyph-name="oslash" unicode="&#xf8;" horiz-adv-x="1265" 
d="M1006 891q70 -77 103.5 -178t33.5 -201q0 -71 -15 -140.5t-52 -140.5t-93 -125t-146.5 -88t-203.5 -34q-187 0 -314 92l-47 -58q-22 -22 -45 -2l-41 33q-22 23 -2 43l54 64q-115 145 -115 356q0 69 15 138t52.5 140.5t93.5 126t146.5 89t202.5 34.5q170 0 285 -75l49 59
q23 22 43 2l41 -33q11 -9 12 -21.5t-8 -21.5zM293 512q0 -129 55 -225l471 559q-77 51 -186 51q-71 0 -128 -21t-92.5 -57t-60.5 -76.5t-37 -86.5t-17 -80t-5 -64zM633 127q62 0 113.5 16.5t86 42.5t61 61.5t41.5 71t24.5 74t12.5 66.5t3 53q0 53 -17.5 125t-56.5 129
l-481 -569q87 -70 213 -70z" />
    <glyph glyph-name="ugrave" unicode="&#xf9;" 
d="M768 1268l-25 -37q-6 -11 -19 -13t-24 5l-282 172q-10 6 -13 19t3 22l45 65q6 11 18 13t23 -5l268 -198q10 -7 12 -20.5t-6 -22.5zM877 1024h108q12 0 21.5 -9.5t9.5 -21.5v-962q0 -12 -9.5 -21.5t-21.5 -9.5h-27q-29 0 -40 29l-31 98q-135 -143 -336 -143
q-79 0 -142.5 16t-107.5 43t-76.5 67.5t-51.5 83t-30.5 96.5t-15.5 101.5t-4 104.5v497q0 12 9.5 21.5t21.5 9.5h110q12 0 21.5 -9.5t9.5 -21.5v-495q0 -133 23 -200q55 -159 243 -159q87 0 168.5 50t116.5 104v700q0 12 9.5 21.5t21.5 9.5z" />
    <glyph glyph-name="uacute" unicode="&#xfa;" 
d="M434 1231l-24 37q-8 9 -6 22.5t12 20.5l268 198q11 7 23 5t18 -13l45 -65q6 -9 3 -22t-13 -19l-283 -172q-11 -7 -24 -5t-19 13zM877 1024h108q12 0 21.5 -9.5t9.5 -21.5v-962q0 -12 -9.5 -21.5t-21.5 -9.5h-27q-29 0 -40 29l-31 98q-135 -143 -336 -143q-79 0 -142.5 16
t-107.5 43t-76.5 67.5t-51.5 83t-30.5 96.5t-15.5 101.5t-4 104.5v497q0 12 9.5 21.5t21.5 9.5h110q12 0 21.5 -9.5t9.5 -21.5v-495q0 -133 23 -200q55 -159 243 -159q87 0 168.5 50t116.5 104v700q0 12 9.5 21.5t21.5 9.5z" />
    <glyph glyph-name="ucircumflex" unicode="&#xfb;" 
d="M846 293v700q0 12 9.5 21.5t21.5 9.5h108q12 0 21.5 -9.5t9.5 -21.5v-962q0 -12 -9.5 -21.5t-21.5 -9.5h-27q-29 0 -40 29l-31 98q-135 -143 -336 -143q-79 0 -142.5 16t-107.5 43t-76.5 67.5t-51.5 83t-30.5 96.5t-15.5 101.5t-4 104.5v497q0 12 9.5 21.5t21.5 9.5h110
q12 0 21.5 -9.5t9.5 -21.5v-495q0 -133 23 -200q55 -159 243 -159q87 0 168.5 50t116.5 104zM614 1509l269 -198q10 -7 12 -20.5t-6 -22.5l-25 -37q-6 -11 -19 -13t-24 5l-231 141l-232 -141q-11 -7 -24 -5t-21 13l-24 37q-6 9 -4 22.5t12 20.5l268 198q24 17 49 0z" />
    <glyph glyph-name="udieresis" unicode="&#xfc;" 
d="M229 1317q0 44 30.5 75t74.5 31t75 -31t31 -75t-31 -74.5t-75 -30.5t-74.5 30.5t-30.5 74.5zM739 1317q0 44 30.5 75t74.5 31t75 -31t31 -75t-31 -74.5t-75 -30.5t-74.5 30.5t-30.5 74.5zM846 293v700q0 12 9.5 21.5t21.5 9.5h108q12 0 21.5 -9.5t9.5 -21.5v-962
q0 -12 -9.5 -21.5t-21.5 -9.5h-27q-29 0 -40 29l-31 98q-135 -143 -336 -143q-79 0 -142.5 16t-107.5 43t-76.5 67.5t-51.5 83t-30.5 96.5t-15.5 101.5t-4 104.5v497q0 12 9.5 21.5t21.5 9.5h110q12 0 21.5 -9.5t9.5 -21.5v-495q0 -133 23 -200q55 -159 243 -159
q87 0 168.5 50t116.5 104z" />
    <glyph glyph-name="yacute" unicode="&#xfd;" horiz-adv-x="1157" 
d="M258 995l322 -776l311 776q15 29 43 29h131q11 0 16.5 -9.5t1.5 -19.5l-589 -1390q-13 -29 -43 -29h-119q-11 0 -17 9.5t-2 19.5l176 415l-415 975q-4 10 1.5 19.5t16.5 9.5h123q29 0 43 -29zM406 1311l268 198q9 8 22 5t19 -13l45 -65q6 -9 3 -22t-13 -19l-283 -172
q-11 -7 -24 -5t-21 13l-25 37q-6 9 -3.5 22.5t12.5 20.5z" />
    <glyph glyph-name="thorn" unicode="&#xfe;" horiz-adv-x="1251" 
d="M588 -18q-136 9 -254 71v-440q0 -12 -9.5 -21.5t-21.5 -9.5h-108q-12 0 -21.5 9.5t-9.5 21.5v1794q0 12 9.5 21.5t21.5 9.5h108q12 0 21.5 -9.5t9.5 -21.5v-440q139 71 284 71q112 0 202.5 -34.5t146.5 -89t93.5 -126t52.5 -140.5t15 -138q0 -67 -14 -134t-49.5 -137
t-88 -124.5t-137.5 -91t-190 -41.5h-61zM334 809v-598q47 -35 126.5 -61.5t139.5 -26.5q85 0 151.5 29.5t104 72.5t62 98.5t32.5 100.5t8 86t-8 86t-32.5 100.5t-62 98.5t-104 72.5t-151.5 29.5q-60 0 -139.5 -26.5t-126.5 -61.5z" />
    <glyph glyph-name="ydieresis" unicode="&#xff;" horiz-adv-x="1157" 
d="M219 1317q0 44 30.5 75t74.5 31t75 -31t31 -75t-31 -74.5t-75 -30.5t-74.5 30.5t-30.5 74.5zM729 1317q0 44 30.5 75t74.5 31t75 -31t31 -75t-31 -74.5t-75 -30.5t-74.5 30.5t-30.5 74.5zM258 995l322 -776l311 776q15 29 43 29h131q11 0 16.5 -9.5t1.5 -19.5l-589 -1390
q-13 -29 -43 -29h-119q-11 0 -17 9.5t-2 19.5l176 415l-415 975q-4 10 1.5 19.5t16.5 9.5h123q29 0 43 -29z" />
    <glyph glyph-name="Amacron" unicode="&#x100;" horiz-adv-x="1398" 
d="M1130 29l-149 366h-569l-148 -366q-13 -29 -43 -29h-129q-11 0 -16.5 9.5t-1.5 19.5l581 1390q10 27 41 27q27 0 37 -27l592 -1390q4 -10 -1.5 -19.5t-16.5 -9.5h-133q-31 0 -44 29zM694 1098l-225 -559h453zM422 1743h555q12 0 21.5 -9.5t9.5 -21.5v-51
q0 -12 -9.5 -21.5t-21.5 -9.5h-555q-12 0 -21.5 9.5t-9.5 21.5v51q0 12 9.5 21.5t21.5 9.5z" />
    <glyph glyph-name="amacron" unicode="&#x101;" horiz-adv-x="1089" 
d="M266 1333h555q12 0 21.5 -9t9.5 -21v-52q0 -12 -9.5 -21t-21.5 -9h-555q-12 0 -21 9t-9 21v52q0 12 9 21t21 9zM236 858l-25 66q-6 12 -1 24t17 17q166 75 336 75q70 0 125.5 -13.5t93.5 -34.5t65 -55.5t42 -68t23.5 -80t11 -84.5t2.5 -88v-585q0 -12 -9.5 -21.5
t-21.5 -9.5h-29q-13 0 -24.5 8.5t-14.5 20.5l-30 104q-59 -77 -149 -114t-171 -37q-87 0 -153.5 23t-103.5 56t-60 76.5t-30 77.5t-7 66q0 92 31.5 159t88 104t123.5 53.5t148 16.5q130 0 240 -26v41q0 91 -15 148.5t-47.5 84.5t-70.5 34t-97 3q-127 -16 -248 -59
q-12 -5 -24 0.5t-16 17.5zM754 272v177q-114 28 -236 28q-239 0 -239 -178q0 -86 58 -131t146 -45q91 0 163 44t108 105z" />
    <glyph glyph-name="Abreve" unicode="&#x102;" horiz-adv-x="1398" 
d="M1130 29l-149 366h-569l-148 -366q-13 -29 -43 -29h-129q-11 0 -16.5 9.5t-1.5 19.5l581 1390q10 27 41 27q27 0 37 -27l592 -1390q4 -10 -1.5 -19.5t-16.5 -9.5h-133q-31 0 -44 29zM694 1098l-225 -559h453zM893 1874l51 -14q12 -5 17.5 -16t1.5 -23q-79 -197 -265 -197
q-190 0 -264 195q-4 12 1.5 23t17.5 16l55 18q12 4 23 -1.5t16 -16.5q47 -111 151 -111q114 0 156 108q5 11 16.5 17t22.5 2z" />
    <glyph glyph-name="abreve" unicode="&#x103;" horiz-adv-x="1089" 
d="M739 1464l52 -14q12 -5 17 -16t1 -23q-79 -197 -264 -197q-190 0 -264 195q-4 12 1 23t17 16l55 18q12 4 23 -1.5t16 -16.5q46 -111 152 -111q112 0 155 109q5 11 16 16.5t23 1.5zM236 858l-25 66q-6 12 -1 24t17 17q166 75 336 75q70 0 125.5 -13.5t93.5 -34.5t65 -55.5
t42 -68t23.5 -80t11 -84.5t2.5 -88v-585q0 -12 -9.5 -21.5t-21.5 -9.5h-29q-13 0 -24.5 8.5t-14.5 20.5l-30 104q-59 -77 -149 -114t-171 -37q-87 0 -153.5 23t-103.5 56t-60 76.5t-30 77.5t-7 66q0 92 31.5 159t88 104t123.5 53.5t148 16.5q130 0 240 -26v41
q0 91 -15 148.5t-47.5 84.5t-70.5 34t-97 3q-127 -16 -248 -59q-12 -5 -24 0.5t-16 17.5zM754 272v177q-114 28 -236 28q-239 0 -239 -178q0 -86 58 -131t146 -45q91 0 163 44t108 105z" />
    <glyph glyph-name="Aogonek" unicode="&#x104;" horiz-adv-x="1398" 
d="M221 0h-129q-11 0 -16.5 9.5t-1.5 19.5l585 1392q11 25 35 25q26 0 37 -25l594 -1392q4 -10 -1.5 -19.5t-16.5 -9.5h-76v-12q0 -23 -35 -94t-35 -117q0 -123 131 -123q53 0 123 24q11 3 20 -3.5t9 -16.5v-41q0 -30 -29 -43q-80 -25 -139 -25q-102 0 -170 53.5t-68 159.5
q0 38 16.5 76.5t36 64t36 51t16.5 40.5v6l-166 395h-563l-150 -366q-13 -29 -43 -29zM694 1092l-221 -553h445z" />
    <glyph glyph-name="aogonek" unicode="&#x105;" horiz-adv-x="1089" 
d="M987 -346q53 0 123 24q11 3 20 -3.5t9 -16.5v-41q0 -30 -29 -43q-80 -25 -139 -25q-102 0 -170 53.5t-68 159.5q0 38 16 76.5t35.5 64t35.5 51t16 40.5l-39 139q-59 -77 -149 -114t-171 -37q-87 0 -153.5 23t-103.5 56t-60 76.5t-30 77.5t-7 66q0 72 21.5 129.5t58.5 95
t88 62.5t108 35.5t121 10.5q131 0 234 -32v47q0 53 -5.5 93.5t-14.5 69t-25.5 48.5t-33.5 31.5t-43 17.5t-49.5 8t-58.5 2q-86 0 -248 -57q-12 -5 -24 0.5t-16 17.5l-25 64q-6 12 -1 24.5t17 18.5q165 73 336 73q70 0 125.5 -13.5t93.5 -34.5t65 -55.5t42 -68t23.5 -80
t11 -84.5t2.5 -88v-628q0 -23 -35 -94t-35 -117q0 -123 131 -123zM754 272v177q-98 28 -205 28q-54 0 -99 -8.5t-85 -28t-63 -55.5t-23 -86q0 -86 58 -131t146 -45q91 0 163 44t108 105z" />
    <glyph glyph-name="Cacute" unicode="&#x106;" horiz-adv-x="1470" 
d="M1325 1221l-63 -64q-9 -7 -22.5 -7t-22.5 7q-77 64 -181 108t-205 44q-96 0 -175.5 -25t-133 -65.5t-95 -95t-64.5 -108.5t-38 -112.5t-19.5 -101t-4.5 -78.5q0 -37 4.5 -79t19.5 -100.5t38 -112.5t64.5 -108.5t95 -94t133 -64.5t175.5 -25q202 0 390 146q11 7 23 6
t20 -10q12 -16 63 -76q17 -24 -4 -45q-204 -178 -492 -178q-114 0 -211.5 25t-168.5 68t-128 102.5t-94 125t-61.5 139.5t-34.5 143t-10 138q0 67 10 135t34.5 141.5t61.5 138.5t94 124.5t128 102.5t168.5 68t211.5 25q160 0 278.5 -49.5t215.5 -142.5q9 -9 9 -22.5
t-9 -22.5zM631 1720l268 199q9 8 22 5t19 -13l45 -66q6 -9 3 -22t-13 -19l-283 -172q-11 -7 -24 -5t-21 13l-24 37q-6 9 -4 22.5t12 20.5z" />
    <glyph glyph-name="cacute" unicode="&#x107;" horiz-adv-x="1128" 
d="M983 868l-68 -63q-9 -9 -22.5 -9t-22.5 9q-111 88 -239 88q-140 0 -239 -100.5t-99 -272.5q0 -74 22 -144t62.5 -126.5t106 -90.5t145.5 -34q146 0 248 92q9 9 22 9t21 -9l51 -59q9 -9 8 -22.5t-10 -22.5q-146 -136 -340 -136q-117 0 -208 34.5t-146 89t-90.5 128.5
t-48.5 144.5t-13 146.5q0 68 15 137.5t52 142t93 127.5t146.5 90.5t203.5 35.5q207 0 352 -142q8 -9 7.5 -22.5t-9.5 -20.5zM426 1311l268 198q9 8 22 5t19 -13l45 -65q6 -9 3 -22t-13 -19l-283 -172q-11 -7 -24 -5t-21 13l-24 37q-6 9 -4 22.5t12 20.5z" />
    <glyph glyph-name="Ccircumflex" unicode="&#x108;" horiz-adv-x="1470" 
d="M1325 1221l-63 -64q-9 -7 -22.5 -7t-22.5 7q-77 64 -181 108t-205 44q-96 0 -175.5 -25t-133 -65.5t-95 -95t-64.5 -108.5t-38 -112.5t-19.5 -101t-4.5 -78.5q0 -37 4.5 -79t19.5 -100.5t38 -112.5t64.5 -108.5t95 -94t133 -64.5t175.5 -25q202 0 390 146q11 7 23 6
t20 -10q12 -16 63 -76q17 -24 -4 -45q-204 -178 -492 -178q-114 0 -211.5 25t-168.5 68t-128 102.5t-94 125t-61.5 139.5t-34.5 143t-10 138q0 67 10 135t34.5 141.5t61.5 138.5t94 124.5t128 102.5t168.5 68t211.5 25q160 0 278.5 -49.5t215.5 -142.5q9 -9 9 -22.5
t-9 -22.5zM852 1919l268 -199q10 -7 12 -20.5t-6 -22.5l-24 -37q-6 -11 -19 -13t-24 5l-232 142l-231 -142q-11 -7 -24 -5t-21 13l-25 37q-6 9 -3.5 22.5t12.5 20.5l268 199q24 17 49 0z" />
    <glyph glyph-name="ccircumflex" unicode="&#x109;" horiz-adv-x="1128" 
d="M997 868l-67 -63q-9 -9 -22.5 -9t-22.5 9q-111 88 -240 88q-140 0 -239 -100.5t-99 -272.5q0 -74 22 -144t62.5 -126.5t106 -90.5t145.5 -34q146 0 248 92q9 9 22 9t21 -9l51 -59q9 -9 8 -22.5t-10 -22.5q-146 -136 -340 -136q-117 0 -208 34.5t-146 89t-90.5 128.5
t-48.5 144.5t-13 146.5q0 68 15 137.5t52 142t93 127.5t146.5 90.5t203.5 35.5q207 0 352 -142q8 -9 7.5 -22.5t-9.5 -20.5zM637 1509l268 -198q10 -7 12 -20.5t-6 -22.5l-24 -37q-6 -11 -19 -13t-24 5l-232 141l-231 -141q-11 -7 -24 -5t-21 13l-25 37q-6 9 -4 22.5
t12 20.5l269 198q24 17 49 0z" />
    <glyph glyph-name="Cdotaccent" unicode="&#x10a;" horiz-adv-x="1470" 
d="M702 1726q0 44 30.5 75.5t74.5 31.5t75 -31.5t31 -75.5t-31 -74t-75 -30t-74.5 30t-30.5 74zM1325 1221l-63 -64q-9 -7 -22.5 -7t-22.5 7q-77 64 -181 108t-205 44q-96 0 -175.5 -25t-133 -65.5t-95 -95t-64.5 -108.5t-38 -112.5t-19.5 -101t-4.5 -78.5q0 -37 4.5 -79
t19.5 -100.5t38 -112.5t64.5 -108.5t95 -94t133 -64.5t175.5 -25q202 0 390 146q11 7 23 6t20 -10q12 -16 63 -76q17 -24 -4 -45q-204 -178 -492 -178q-114 0 -211.5 25t-168.5 68t-128 102.5t-94 125t-61.5 139.5t-34.5 143t-10 138q0 67 10 135t34.5 141.5t61.5 138.5
t94 124.5t128 102.5t168.5 68t211.5 25q160 0 278.5 -49.5t215.5 -142.5q9 -9 9 -22.5t-9 -22.5z" />
    <glyph glyph-name="cdotaccent" unicode="&#x10b;" horiz-adv-x="1128" 
d="M514 1317q0 44 30 75t74 31t75.5 -31t31.5 -75t-31.5 -74.5t-75.5 -30.5t-74 30.5t-30 74.5zM997 868l-67 -63q-9 -9 -22.5 -9t-22.5 9q-111 88 -240 88q-140 0 -239 -100.5t-99 -272.5q0 -74 22 -144t62.5 -126.5t106 -90.5t145.5 -34q146 0 248 92q9 9 22 9t21 -9
l51 -59q9 -9 8 -22.5t-10 -22.5q-146 -136 -340 -136q-117 0 -208 34.5t-146 89t-90.5 128.5t-48.5 144.5t-13 146.5q0 68 15 137.5t52 142t93 127.5t146.5 90.5t203.5 35.5q207 0 352 -142q8 -9 7.5 -22.5t-9.5 -20.5z" />
    <glyph glyph-name="Ccaron" unicode="&#x10c;" horiz-adv-x="1470" 
d="M1325 1221l-63 -64q-9 -7 -22.5 -7t-22.5 7q-77 64 -181 108t-205 44q-96 0 -175.5 -25t-133 -65.5t-95 -95t-64.5 -108.5t-38 -112.5t-19.5 -101t-4.5 -78.5q0 -37 4.5 -79t19.5 -100.5t38 -112.5t64.5 -108.5t95 -94t133 -64.5t175.5 -25q202 0 390 146q11 7 23 6
t20 -10q12 -16 63 -76q17 -24 -4 -45q-204 -178 -492 -178q-114 0 -211.5 25t-168.5 68t-128 102.5t-94 125t-61.5 139.5t-34.5 143t-10 138q0 67 10 135t34.5 141.5t61.5 138.5t94 124.5t128 102.5t168.5 68t211.5 25q160 0 278.5 -49.5t215.5 -142.5q9 -9 9 -22.5
t-9 -22.5zM1118 1833l-268 -199q-11 -8 -25 -8t-24 8l-269 199q-23 17 -8 43l25 37q8 11 21 13t24 -5l231 -141l232 141q11 7 24 5t19 -13l24 -37q8 -10 6 -23t-12 -20z" />
    <glyph glyph-name="ccaron" unicode="&#x10d;" horiz-adv-x="1128" 
d="M983 868l-68 -63q-9 -9 -22.5 -9t-22.5 9q-111 88 -239 88q-140 0 -239 -100.5t-99 -272.5q0 -74 22 -144t62.5 -126.5t106 -90.5t145.5 -34q146 0 248 92q9 9 22 9t21 -9l51 -59q9 -9 8 -22.5t-10 -22.5q-146 -136 -340 -136q-117 0 -208 34.5t-146 89t-90.5 128.5
t-48.5 144.5t-13 146.5q0 68 15 137.5t52 142t93 127.5t146.5 90.5t203.5 35.5q207 0 352 -142q8 -9 7.5 -22.5t-9.5 -20.5zM897 1423l-268 -198q-25 -17 -49 0l-269 198q-23 17 -8 43l25 37q8 11 21 13t24 -5l231 -141l232 141q11 7 24 5t19 -13l24 -37q8 -10 6 -23
t-12 -20z" />
    <glyph glyph-name="Dcaron" unicode="&#x10e;" horiz-adv-x="1525" 
d="M694 0h-458q-12 0 -21.5 9.5t-9.5 21.5v1372q0 12 9.5 21.5t21.5 9.5h458q114 0 211.5 -24t168.5 -65t128.5 -98.5t94 -120.5t61 -134.5t35 -138.5t10.5 -134q0 -98 -20.5 -193t-72 -192t-129.5 -169.5t-204 -118.5t-283 -46zM379 147h315q96 0 176 24.5t134.5 63
t96.5 91.5t66.5 106t40 110t20.5 99t5 78t-5 78t-20.5 98.5t-40 109t-66.5 105.5t-96.5 91.5t-134.5 62.5t-176 24h-315v-1141zM885 1833l-269 -199q-10 -8 -24 -8t-25 8l-268 199q-23 17 -8 43l24 37q8 11 21 13t24 -5l232 -141l231 141q11 7 24 5t19 -13l25 -37
q8 -10 6 -23t-12 -20z" />
    <glyph glyph-name="dcaron" unicode="&#x10f;" horiz-adv-x="1497" 
d="M1362 1436q70 0 102.5 -38.5t32.5 -94.5q0 -87 -45.5 -202t-103.5 -202q-6 -10 -19.5 -13.5t-25.5 1.5l-13 6q-11 6 -14.5 18t2.5 23q81 161 96 266q-50 -5 -89.5 26t-39.5 93q2 50 35 83.5t82 33.5zM918 967v440q0 12 9 21.5t21 9.5h109q12 0 21 -9.5t9 -21.5v-1376
q0 -12 -9 -21.5t-21 -9.5h-27q-30 0 -41 29q-32 92 -33 98q-70 -82 -153 -112.5t-180 -30.5q-109 0 -197 34t-143 88t-92.5 124.5t-52.5 140t-15 139.5q0 69 15 138t52.5 140.5t93.5 126t146.5 89t202.5 34.5q146 0 285 -71zM918 274v535q-47 35 -127 61.5t-140 26.5
q-85 0 -151.5 -29.5t-104 -72.5t-62 -98.5t-32.5 -100.5t-8 -86q0 -37 6.5 -78t28.5 -96t56.5 -97t99.5 -72t149 -30q92 0 169 42t116 95z" />
    <glyph glyph-name="Dcroat" unicode="&#x110;" horiz-adv-x="1525" 
d="M117 780h88v623q0 12 9.5 21.5t21.5 9.5h458q114 0 211.5 -24t168.5 -65t128.5 -98.5t94 -120.5t61 -134.5t35 -138.5t10.5 -134q0 -98 -20.5 -193t-72 -192t-129.5 -169.5t-204 -118.5t-283 -46h-458q-12 0 -21.5 9.5t-9.5 21.5v616h-88q-12 0 -21.5 9.5t-9.5 21.5v72
q0 12 9.5 21t21.5 9zM379 147h315q96 0 176 24.5t134.5 63t96.5 91.5t66.5 106t40 110t20.5 99t5 78t-5 78t-20.5 98.5t-40 109t-66.5 105.5t-96.5 91.5t-134.5 62.5t-176 24h-315v-508h377q12 0 21 -9t9 -21v-72q0 -12 -9 -21.5t-21 -9.5h-377v-500z" />
    <glyph glyph-name="dcroat" unicode="&#x111;" horiz-adv-x="1251" 
d="M1087 1335h78q12 0 21.5 -9t9.5 -21v-52q0 -12 -9.5 -21t-21.5 -9h-78v-1192q0 -12 -9 -21.5t-21 -9.5h-27q-30 0 -41 29l-33 98q-70 -82 -153 -112.5t-180 -30.5q-109 0 -197 34t-143 88t-92.5 124.5t-52.5 140t-15 139.5q0 69 15 138t52.5 140.5t93.5 126t146.5 89
t202.5 34.5q146 0 285 -71v256h-222q-12 0 -21 9t-9 21v52q0 12 9 21t21 9h222v68q0 12 9 21.5t21 9.5h109q12 0 21 -9.5t9 -21.5v-68zM633 137q92 0 169 42t116 95v535q-47 35 -127 61.5t-140 26.5q-85 0 -151.5 -29.5t-104 -72.5t-62 -98.5t-32.5 -100.5t-8 -86
q0 -37 6.5 -78t28.5 -96t56.5 -97t99.5 -72t149 -30z" />
    <glyph glyph-name="Emacron" unicode="&#x112;" horiz-adv-x="1255" 
d="M938 633h-559v-486h723q12 0 21.5 -9t9.5 -21v-86q0 -12 -9.5 -21.5t-21.5 -9.5h-866q-12 0 -21.5 9.5t-9.5 21.5v1372q0 12 9.5 21.5t21.5 9.5h866q12 0 21.5 -9.5t9.5 -21.5v-86q0 -12 -9.5 -21.5t-21.5 -9.5h-723v-506h559q12 0 21.5 -9t9.5 -21v-86q0 -12 -9.5 -21.5
t-21.5 -9.5zM408 1743h555q12 0 21 -9.5t9 -21.5v-51q0 -12 -9 -21.5t-21 -9.5h-555q-12 0 -21.5 9.5t-9.5 21.5v51q0 12 9.5 21.5t21.5 9.5z" />
    <glyph glyph-name="emacron" unicode="&#x113;" horiz-adv-x="1103" 
d="M911 1303v-52q0 -12 -9 -21t-21 -9h-555q-12 0 -21.5 9t-9.5 21v52q0 12 9.5 21t21.5 9h555q12 0 21 -9t9 -21zM1012 612q0 -45 -6 -94q-1 -13 -11 -22t-24 -9h-709q2 -43 13 -88t37 -95t63 -88.5t96 -63.5t131 -25q160 0 289 98q10 8 23 7t20 -11l47 -59q7 -11 6 -24
t-10 -21q-83 -70 -171 -101.5t-204 -31.5q-113 0 -203.5 34.5t-146.5 89t-93 126.5t-52 141.5t-15 140.5q0 69 15 138t52 140.5t93 126t146.5 89t203.5 34.5q195 0 302.5 -117t107.5 -315zM848 608q6 51 -3 98.5t-35 90.5t-80 70.5t-130 31.5q-80 0 -141.5 -26t-99 -70.5
t-59.5 -91.5t-34 -103h582z" />
    <glyph glyph-name="Ebreve" unicode="&#x114;" horiz-adv-x="1255" 
d="M938 633h-559v-486h723q12 0 21.5 -9t9.5 -21v-86q0 -12 -9.5 -21.5t-21.5 -9.5h-866q-12 0 -21.5 9.5t-9.5 21.5v1372q0 12 9.5 21.5t21.5 9.5h866q12 0 21.5 -9.5t9.5 -21.5v-86q0 -12 -9.5 -21.5t-21.5 -9.5h-723v-506h559q12 0 21.5 -9t9.5 -21v-86q0 -12 -9.5 -21.5
t-21.5 -9.5zM864 1874l51 -14q12 -5 17.5 -16t1.5 -23q-79 -197 -264 -197q-190 0 -264 195q-4 12 1 23t17 16l55 18q12 4 23 -1.5t16 -16.5q46 -111 152 -111q113 0 155 108q5 11 16.5 17t22.5 2z" />
    <glyph glyph-name="ebreve" unicode="&#x115;" horiz-adv-x="1103" 
d="M604 1214q-190 0 -264 195q-4 12 1 23t17 16l56 18q12 4 23 -1.5t16 -16.5q47 -111 151 -111q113 0 156 109q5 11 16 16.5t23 1.5l51 -14q12 -5 17 -16t1 -23q-79 -197 -264 -197zM1012 612q0 -45 -6 -94q-1 -13 -11 -22t-24 -9h-709q2 -43 13 -88t37 -95t63 -88.5
t96 -63.5t131 -25q160 0 289 98q10 8 23 7t20 -11l47 -59q7 -11 6 -24t-10 -21q-83 -70 -171 -101.5t-204 -31.5q-113 0 -203.5 34.5t-146.5 89t-93 126.5t-52 141.5t-15 140.5q0 69 15 138t52 140.5t93 126t146.5 89t203.5 34.5q195 0 302.5 -117t107.5 -315zM848 608
q6 51 -3 98.5t-35 90.5t-80 70.5t-130 31.5q-80 0 -141.5 -26t-99 -70.5t-59.5 -91.5t-34 -103h582z" />
    <glyph glyph-name="Edotaccent" unicode="&#x116;" horiz-adv-x="1255" 
d="M580 1726q0 45 30 76t74 31t75.5 -31.5t31.5 -75.5t-31 -74t-76 -30q-44 0 -74 30t-30 74zM938 633h-559v-486h723q12 0 21.5 -9t9.5 -21v-86q0 -12 -9.5 -21.5t-21.5 -9.5h-866q-12 0 -21.5 9.5t-9.5 21.5v1372q0 12 9.5 21.5t21.5 9.5h866q12 0 21.5 -9.5t9.5 -21.5
v-86q0 -12 -9.5 -21.5t-21.5 -9.5h-723v-506h559q12 0 21.5 -9t9.5 -21v-86q0 -12 -9.5 -21.5t-21.5 -9.5z" />
    <glyph glyph-name="edotaccent" unicode="&#x117;" horiz-adv-x="1103" 
d="M500 1317q0 44 30 75t74 31t75.5 -31t31.5 -75t-31.5 -74.5t-75.5 -30.5t-74 30.5t-30 74.5zM1012 612q0 -45 -6 -94q-1 -13 -11 -22t-24 -9h-709q2 -43 13 -88t37 -95t63 -88.5t96 -63.5t131 -25q160 0 289 98q10 8 23 7t20 -11l47 -59q7 -11 6 -24t-10 -21
q-83 -70 -171 -101.5t-204 -31.5q-113 0 -203.5 34.5t-146.5 89t-93 126.5t-52 141.5t-15 140.5q0 69 15 138t52 140.5t93 126t146.5 89t203.5 34.5q195 0 302.5 -117t107.5 -315zM848 608q6 51 -3 98.5t-35 90.5t-80 70.5t-130 31.5q-80 0 -141.5 -26t-99 -70.5
t-59.5 -91.5t-34 -103h582z" />
    <glyph glyph-name="Eogonek" unicode="&#x118;" horiz-adv-x="1255" 
d="M938 633h-559v-486h723q12 0 21.5 -9t9.5 -21v-129q0 -23 -35 -94t-35 -117q0 -123 131 -123q53 0 123 24q11 3 20 -3.5t9 -16.5v-41q0 -30 -29 -43q-80 -25 -139 -25q-102 0 -170 53.5t-68 159.5q0 38 16 76.5t36 64t36 51t16 40.5v6h-808q-12 0 -21.5 9.5t-9.5 21.5
v1372q0 12 9.5 21.5t21.5 9.5h866q12 0 21.5 -9.5t9.5 -21.5v-86q0 -12 -9.5 -21.5t-21.5 -9.5h-723v-506h559q12 0 21.5 -9t9.5 -21v-86q0 -12 -9.5 -21.5t-21.5 -9.5z" />
    <glyph glyph-name="eogonek" unicode="&#x119;" horiz-adv-x="1103" 
d="M934 221l47 -59q7 -11 6 -24t-10 -21q-78 -65 -143 -90v-39q0 -23 -35 -94t-35 -117q0 -123 131 -123q53 0 123 24q11 3 20 -3.5t9 -16.5v-41q0 -30 -29 -43q-80 -25 -139 -25q-102 0 -170 53.5t-68 159.5q0 38 16.5 76.5t35.5 64t35.5 51t16.5 40.5v4q-82 -14 -143 -14
q-113 0 -203.5 34.5t-146.5 89t-93 126.5t-52 141.5t-15 140.5q0 69 15 138t52 140.5t93 126t146.5 89t203.5 34.5q195 0 302.5 -117t107.5 -315q0 -45 -6 -94q-1 -13 -11 -22t-24 -9h-709q2 -43 13 -88t37 -95t63 -88.5t96 -63.5t131 -25q160 0 289 98q10 8 23 7t20 -11z
M600 899q-80 0 -141.5 -26t-99 -70.5t-59.5 -91.5t-34 -103h582q6 51 -3 98.5t-35 90.5t-80 70.5t-130 31.5z" />
    <glyph glyph-name="Ecaron" unicode="&#x11a;" horiz-adv-x="1255" 
d="M938 633h-559v-486h723q12 0 21.5 -9t9.5 -21v-86q0 -12 -9.5 -21.5t-21.5 -9.5h-866q-12 0 -21.5 9.5t-9.5 21.5v1372q0 12 9.5 21.5t21.5 9.5h866q12 0 21.5 -9.5t9.5 -21.5v-86q0 -12 -9.5 -21.5t-21.5 -9.5h-723v-506h559q12 0 21.5 -9t9.5 -21v-86q0 -12 -9.5 -21.5
t-21.5 -9.5zM954 1833l-268 -199q-10 -8 -24 -8t-25 8l-268 199q-10 7 -12.5 20t3.5 23l25 37q8 11 21 13t24 -5l232 -141l231 141q11 7 24 5t19 -13l25 -37q8 -10 5.5 -23t-12.5 -20z" />
    <glyph glyph-name="ecaron" unicode="&#x11b;" horiz-adv-x="1103" 
d="M877 1423l-269 -198q-25 -17 -49 0l-268 198q-23 17 -8 43l24 37q8 11 21 13t24 -5l232 -141l231 141q11 7 24 5t19 -13l25 -37q8 -10 6 -23t-12 -20zM1012 612q0 -45 -6 -94q-1 -13 -11 -22t-24 -9h-709q2 -43 13 -88t37 -95t63 -88.5t96 -63.5t131 -25q160 0 289 98
q10 8 23 7t20 -11l47 -59q7 -11 6 -24t-10 -21q-83 -70 -171 -101.5t-204 -31.5q-113 0 -203.5 34.5t-146.5 89t-93 126.5t-52 141.5t-15 140.5q0 69 15 138t52 140.5t93 126t146.5 89t203.5 34.5q195 0 302.5 -117t107.5 -315zM848 608q6 51 -3 98.5t-35 90.5t-80 70.5
t-130 31.5q-80 0 -141.5 -26t-99 -70.5t-59.5 -91.5t-34 -103h582z" />
    <glyph glyph-name="Gcircumflex" unicode="&#x11c;" horiz-adv-x="1462" 
d="M1163 526h-278q-12 0 -21.5 9.5t-9.5 21.5v86q0 12 9.5 21.5t21.5 9.5h424q12 0 21 -9.5t9 -21.5v-438q0 -32 -22 -51q-188 -172 -486 -172q-114 0 -211.5 25t-168.5 67.5t-128 101.5t-94 124t-61.5 138.5t-34.5 142.5t-10 138q0 67 10 135t34.5 141.5t61.5 138.5
t94 124.5t128 102.5t168.5 68t211.5 25q160 0 265.5 -39.5t195.5 -124.5q9 -9 10 -22.5t-8 -22.5l-65 -65q-7 -9 -20.5 -9.5t-22.5 7.5q-65 57 -158.5 92t-196.5 35q-96 0 -175.5 -25t-133.5 -65.5t-95.5 -95t-65 -108.5t-38 -112.5t-19.5 -101t-5 -78.5q0 -37 5 -79
t19.5 -100.5t38 -112.5t65 -108t95.5 -94t133.5 -65t175.5 -25q193 0 332 105v286zM831 1919l269 -199q10 -7 12 -20.5t-6 -22.5l-25 -37q-6 -11 -19 -13t-24 5l-231 142l-232 -142q-11 -7 -24 -5t-21 13l-24 37q-6 9 -4 22.5t12 20.5l268 199q24 17 49 0z" />
    <glyph glyph-name="gcircumflex" unicode="&#x11d;" horiz-adv-x="1132" 
d="M565 1364l-231 -141q-11 -7 -24 -5t-21 13l-25 37q-6 9 -4 22.5t12 20.5l269 198q25 17 49 0l268 -198q10 -7 12 -20.5t-6 -22.5l-24 -37q-6 -11 -19 -13t-24 5zM635 84q95 -2 165.5 -18t111 -41t64.5 -61t31 -71t5 -79q-2 -29 -13 -61.5t-41.5 -73.5t-75.5 -72.5
t-122.5 -53.5t-175.5 -22q-103 0 -185.5 19.5t-133 50.5t-83.5 71.5t-46 79.5t-13 78q4 136 153 211q-65 25 -94.5 76t-29.5 100q-4 69 33.5 119.5t105.5 69.5q-98 130 -98 266q0 49 11 97.5t38.5 98.5t69 87.5t108 61t149.5 23.5q123 0 219 -57l132 119q9 9 22.5 8
t22.5 -10l43 -43q9 -7 9.5 -20.5t-7.5 -22.5l-123 -131q59 -112 59 -211q0 -50 -11.5 -99t-39 -99t-69.5 -87.5t-108 -61.5t-149 -24q-85 0 -155 25q-71 7 -100 -26.5t-29 -80.5q0 -58 58.5 -95.5t127.5 -37.5q1 0 50 -1t114 -1zM569 907q-51 0 -90.5 -19.5t-60.5 -46.5
t-34.5 -62t-17.5 -60.5t-4 -46.5q0 -22 4 -47.5t17.5 -60t34.5 -61.5t60.5 -46t90.5 -19q50 0 89.5 19t60.5 46t35 61.5t18 60t4 47.5q0 21 -4 46.5t-18 60.5t-35 62t-60.5 46.5t-89.5 19.5zM860 -180q5 41 -14 67t-87 43t-190 17q-92 0 -153 -9t-91.5 -27t-41.5 -38.5
t-11 -50.5q0 -12 6 -28t26 -38t50.5 -39.5t86.5 -31t128 -15.5q76 0 133 13.5t86 32t46.5 42t21.5 37.5t4 25z" />
    <glyph glyph-name="Gbreve" unicode="&#x11e;" horiz-adv-x="1462" 
d="M1163 526h-278q-12 0 -21.5 9.5t-9.5 21.5v86q0 12 9.5 21.5t21.5 9.5h424q12 0 21 -9.5t9 -21.5v-438q0 -32 -22 -51q-188 -172 -486 -172q-114 0 -211.5 25t-168.5 67.5t-128 101.5t-94 124t-61.5 138.5t-34.5 142.5t-10 138q0 67 10 135t34.5 141.5t61.5 138.5
t94 124.5t128 102.5t168.5 68t211.5 25q160 0 265.5 -39.5t195.5 -124.5q9 -9 10 -22.5t-8 -22.5l-65 -65q-7 -9 -20.5 -9.5t-22.5 7.5q-65 57 -158.5 92t-196.5 35q-96 0 -175.5 -25t-133.5 -65.5t-95.5 -95t-65 -108.5t-38 -112.5t-19.5 -101t-5 -78.5q0 -37 5 -79
t19.5 -100.5t38 -112.5t65 -108t95.5 -94t133.5 -65t175.5 -25q193 0 332 105v286zM1014 1874l51 -14q12 -5 17 -16t1 -23q-79 -197 -264 -197q-190 0 -264 195q-4 12 1 23t17 16l56 18q12 4 23 -1.5t16 -16.5q47 -111 151 -111q114 0 156 108q5 11 16.5 17t22.5 2z" />
    <glyph glyph-name="gbreve" unicode="&#x11f;" horiz-adv-x="1132" 
d="M565 1214q-190 0 -264 195q-4 12 1 23t17 16l56 18q12 4 23 -1.5t16 -16.5q46 -111 151 -111q113 0 156 109q5 11 16 16.5t23 1.5l51 -14q12 -5 17 -16t1 -23q-79 -197 -264 -197zM635 82q95 -2 165.5 -18t111 -41t64.5 -61t31 -71t5 -79q-2 -29 -13 -61.5t-41.5 -73.5
t-75.5 -72.5t-122.5 -53.5t-175.5 -22q-103 0 -185.5 19.5t-133 50.5t-83.5 71.5t-46 79.5t-13 78q4 136 153 211q-65 25 -94.5 76t-29.5 102q-4 69 33.5 119.5t105.5 69.5q-98 130 -98 266q0 49 11 97.5t38.5 98.5t69 87.5t108 61t149.5 23.5q123 0 219 -57l132 119
q9 9 22.5 8t22.5 -10l43 -43q9 -7 9.5 -20.5t-7.5 -22.5l-123 -131q59 -112 59 -211q0 -50 -11.5 -99t-39 -99t-69.5 -87.5t-108 -61.5t-149 -24q-85 0 -155 25q-71 7 -100 -26.5t-29 -80.5q0 -59 58.5 -97t127.5 -38q1 0 50 -1t114 -1zM569 907q-51 0 -90.5 -19.5
t-60.5 -46.5t-34.5 -62t-17.5 -60.5t-4 -46.5q0 -22 4 -47.5t17.5 -60t34.5 -61.5t60.5 -46t90.5 -19q50 0 89.5 19t60.5 46t35 61.5t18 60t4 47.5q0 21 -4 46.5t-18 60.5t-35 62t-60.5 46.5t-89.5 19.5zM860 -182q5 41 -14 67t-87 43t-190 17q-92 0 -153 -9t-91.5 -27
t-41.5 -38.5t-11 -50.5q0 -12 6 -28t26 -38t50.5 -39.5t86.5 -31t128 -15.5q76 0 133 13.5t86 32t46.5 42t21.5 37.5t4 25z" />
    <glyph glyph-name="Gdotaccent" unicode="&#x120;" horiz-adv-x="1462" 
d="M713 1726q0 45 30 76t74 31t75.5 -31.5t31.5 -75.5t-31 -74t-76 -30q-44 0 -74 30t-30 74zM1163 526h-278q-12 0 -21.5 9.5t-9.5 21.5v86q0 12 9.5 21.5t21.5 9.5h424q12 0 21 -9.5t9 -21.5v-438q0 -32 -22 -51q-188 -172 -486 -172q-114 0 -211.5 25t-168.5 67.5
t-128 101.5t-94 124t-61.5 138.5t-34.5 142.5t-10 138q0 67 10 135t34.5 141.5t61.5 138.5t94 124.5t128 102.5t168.5 68t211.5 25q160 0 265.5 -39.5t195.5 -124.5q9 -9 10 -22.5t-8 -22.5l-65 -65q-7 -9 -20.5 -9.5t-22.5 7.5q-65 57 -158.5 92t-196.5 35
q-96 0 -175.5 -25t-133.5 -65.5t-95.5 -95t-65 -108.5t-38 -112.5t-19.5 -101t-5 -78.5q0 -37 5 -79t19.5 -100.5t38 -112.5t65 -108t95.5 -94t133.5 -65t175.5 -25q193 0 332 105v286z" />
    <glyph glyph-name="gdotaccent" unicode="&#x121;" horiz-adv-x="1132" 
d="M461 1317q0 44 30 75t74 31t75.5 -31t31.5 -75t-31.5 -74.5t-75.5 -30.5t-74 30.5t-30 74.5zM635 82q95 -2 165.5 -18t111 -41t64.5 -61t31 -71t5 -79q-2 -29 -13 -61.5t-41.5 -73.5t-75.5 -72.5t-122.5 -53.5t-175.5 -22q-103 0 -185.5 19.5t-133 50.5t-83.5 71.5
t-46 79.5t-13 78q4 136 153 211q-65 25 -94.5 76t-29.5 102q-4 69 33.5 119.5t105.5 69.5q-98 130 -98 266q0 49 11 97.5t38.5 98.5t69 87.5t108 61t149.5 23.5q123 0 219 -57l132 119q9 9 22.5 8t22.5 -10l43 -43q9 -7 9.5 -20.5t-7.5 -22.5l-123 -131q59 -112 59 -211
q0 -50 -11.5 -99t-39 -99t-69.5 -87.5t-108 -61.5t-149 -24q-85 0 -155 25q-71 7 -100 -26.5t-29 -80.5q0 -59 58.5 -97t127.5 -38q1 0 50 -1t114 -1zM569 907q-51 0 -90.5 -19.5t-60.5 -46.5t-34.5 -62t-17.5 -60.5t-4 -46.5q0 -22 4 -47.5t17.5 -60t34.5 -61.5t60.5 -46
t90.5 -19q50 0 89.5 19t60.5 46t35 61.5t18 60t4 47.5q0 21 -4 46.5t-18 60.5t-35 62t-60.5 46.5t-89.5 19.5zM860 -182q5 41 -14 67t-87 43t-190 17q-92 0 -153 -9t-91.5 -27t-41.5 -38.5t-11 -50.5q0 -12 6 -28t26 -38t50.5 -39.5t86.5 -31t128 -15.5q76 0 133 13.5t86 32
t46.5 42t21.5 37.5t4 25z" />
    <glyph glyph-name="Gcommaaccent" unicode="&#x122;" horiz-adv-x="1462" 
d="M1163 526h-278q-12 0 -21.5 9.5t-9.5 21.5v86q0 12 9.5 21.5t21.5 9.5h424q12 0 21 -9.5t9 -21.5v-438q0 -32 -22 -51q-188 -172 -486 -172q-114 0 -211.5 25t-168.5 67.5t-128 101.5t-94 124t-61.5 138.5t-34.5 142.5t-10 138q0 67 10 135t34.5 141.5t61.5 138.5
t94 124.5t128 102.5t168.5 68t211.5 25q160 0 265.5 -39.5t195.5 -124.5q9 -9 10 -22.5t-8 -22.5l-65 -65q-7 -9 -20.5 -9.5t-22.5 7.5q-65 57 -158.5 92t-196.5 35q-96 0 -175.5 -25t-133.5 -65.5t-95.5 -95t-65 -108.5t-38 -112.5t-19.5 -101t-5 -78.5q0 -37 5 -79
t19.5 -100.5t38 -112.5t65 -108t95.5 -94t133.5 -65t175.5 -25q193 0 332 105v286zM795 -682l-9 6q-12 4 -16.5 16.5t0.5 24.5q62 132 74 215q-50 -5 -89.5 26t-39.5 93q2 50 34.5 83.5t81.5 33.5q70 0 103 -38.5t33 -94.5q0 -131 -127 -351q-16 -25 -45 -14z" />
    <glyph glyph-name="gcommaaccent" unicode="&#x123;" horiz-adv-x="1132" 
d="M635 78q95 -2 165.5 -18t111 -41t64.5 -61t31 -71.5t5 -79.5q-2 -29 -13 -61.5t-41.5 -73t-75.5 -72t-122.5 -53.5t-175.5 -22q-103 0 -185.5 19.5t-133 50.5t-83.5 71.5t-46 79.5t-13 78q4 136 153 211q-45 17 -74.5 52t-39.5 67.5t-10 62.5q-4 69 33.5 119.5
t105.5 69.5q-98 130 -98 266q0 49 11 97.5t38.5 98.5t69 87.5t108 61t149.5 23.5q123 0 219 -57l132 119q9 9 22.5 8t22.5 -10l43 -43q9 -7 9.5 -20.5t-7.5 -22.5l-123 -131q59 -112 59 -211q0 -50 -11.5 -99t-39 -99t-69.5 -87.5t-108 -61.5t-149 -24q-85 0 -155 25
q-71 7 -100 -26.5t-29 -80.5q0 -58 59 -98.5t127 -40.5q1 0 50 -1t114 -1zM569 907q-51 0 -90.5 -19.5t-60.5 -46.5t-34.5 -62t-17.5 -60.5t-4 -46.5q0 -22 4 -47.5t17.5 -60t34.5 -61.5t60.5 -46t90.5 -19q50 0 89.5 19t60.5 46t35 61.5t18 60t4 47.5q0 21 -4 46.5
t-18 60.5t-35 62t-60.5 46.5t-89.5 19.5zM860 -186q5 41 -14 67t-87 43t-190 17q-92 0 -153 -9t-91.5 -27t-41.5 -38.5t-11 -50.5q0 -12 6 -28t26 -38t50.5 -39.5t86.5 -31t128 -15.5q76 0 133 13.5t86 32t46.5 42t21.5 37.5t4 25zM573 1194q-70 0 -102.5 38.5t-32.5 94.5
q0 86 45.5 201t102.5 203q7 10 21 13t24 -3l12 -6q12 -4 16 -16.5t-2 -22.5q-85 -169 -96 -266q50 5 89.5 -26t39.5 -93q-2 -50 -35 -83.5t-82 -33.5z" />
    <glyph glyph-name="Hcircumflex" unicode="&#x124;" horiz-adv-x="1562" 
d="M379 633v-602q0 -12 -9.5 -21.5t-21.5 -9.5h-112q-12 0 -21.5 9.5t-9.5 21.5v1372q0 12 9.5 21.5t21.5 9.5h112q12 0 21.5 -9.5t9.5 -21.5v-623h803v623q0 12 9 21.5t21 9.5h115q12 0 21.5 -9.5t9.5 -21.5v-1372q0 -12 -9.5 -21.5t-21.5 -9.5h-115q-12 0 -21 9.5t-9 21.5
v602h-803zM805 1919l268 -199q10 -7 12 -20.5t-6 -22.5l-24 -37q-6 -11 -19 -13t-24 5l-232 142l-231 -142q-11 -7 -24 -5t-21 13l-25 37q-6 9 -4 22.5t12 20.5l269 199q24 17 49 0z" />
    <glyph glyph-name="hcircumflex" unicode="&#x125;" 
d="M303 0h-108q-12 0 -21.5 9.5t-9.5 21.5v1372q0 12 9.5 21.5t21.5 9.5h108q12 0 21.5 -9.5t9.5 -21.5v-481q138 116 311 116q103 0 180 -32t120 -80.5t69.5 -119.5t34.5 -135.5t8 -142.5v-497q0 -12 -9.5 -21.5t-21.5 -9.5h-106q-12 0 -21.5 9.5t-9.5 21.5v497
q0 200 -66.5 285.5t-210.5 85.5q-86 0 -167 -43.5t-111 -99.5v-725q0 -12 -9.5 -21.5t-21.5 -9.5zM279 1933l268 -198q10 -7 12 -20.5t-6 -22.5l-25 -37q-6 -11 -19 -13t-24 5l-231 141l-231 -141q-11 -7 -24.5 -5t-21.5 13l-24 37q-6 9 -4 22.5t12 20.5l268 198q11 7 25 7
t25 -7z" />
    <glyph glyph-name="Hbar" unicode="&#x126;" horiz-adv-x="1558" 
d="M1446 1098h-90v-1067q0 -12 -9.5 -21.5t-21.5 -9.5h-115q-12 0 -21 9.5t-9 21.5v602h-803v-602q0 -12 -9.5 -21.5t-21.5 -9.5h-113q-12 0 -21 9.5t-9 21.5v1067h-90q-12 0 -21.5 9t-9.5 21v50q0 12 9.5 21t21.5 9h90v195q0 12 9 21.5t21 9.5h113q12 0 21.5 -9.5
t9.5 -21.5v-195h803v195q0 12 9 21.5t21 9.5h115q12 0 21.5 -9.5t9.5 -21.5v-195h90q12 0 21.5 -9t9.5 -21v-50q0 -12 -9.5 -21t-21.5 -9zM377 780h803v318h-803v-318z" />
    <glyph glyph-name="hbar" unicode="&#x127;" 
d="M72 1305h92v98q0 12 9.5 21.5t21.5 9.5h108q12 0 21.5 -9.5t9.5 -21.5v-98h227q12 0 21.5 -9.5t9.5 -21.5v-62q0 -12 -9.5 -21t-21.5 -9h-227v-260q138 116 311 116q103 0 180 -32t120 -80.5t69.5 -119.5t34.5 -135.5t8 -142.5v-497q0 -12 -9.5 -21.5t-21.5 -9.5h-106
q-12 0 -21.5 9.5t-9.5 21.5v497q0 200 -66.5 285.5t-210.5 85.5q-86 0 -167 -43.5t-111 -99.5v-725q0 -12 -9.5 -21.5t-21.5 -9.5h-108q-12 0 -21.5 9.5t-9.5 21.5v1151h-92q-12 0 -21.5 9t-9.5 21v62q0 12 9.5 21.5t21.5 9.5z" />
    <glyph glyph-name="Itilde" unicode="&#x128;" horiz-adv-x="630" 
d="M401 1403v-1372q0 -12 -9 -21.5t-21 -9.5h-113q-12 0 -21.5 9.5t-9.5 21.5v1372q0 12 9.5 21.5t21.5 9.5h113q12 0 21 -9.5t9 -21.5zM563 1815l41 -23q11 -6 14.5 -18t-2.5 -23q-74 -127 -200 -127q-46 0 -106.5 41t-106.5 41q-57 0 -97 -57q-18 -25 -45 -15l-34 17
q-11 6 -16 18.5t-1 24.5q31 74 83.5 106.5t111.5 32.5q41 0 77.5 -20.5t70 -41t67.5 -20.5q56 0 98 53q8 9 21 13t24 -2z" />
    <glyph glyph-name="itilde" unicode="&#x129;" horiz-adv-x="630" 
d="M397 993v-964q0 -12 -9 -21.5t-21 -9.5h-109q-12 0 -21.5 9.5t-9.5 21.5v964q0 12 9.5 21.5t21.5 9.5h109q12 0 21 -9.5t9 -21.5zM563 1405l41 -23q11 -6 14.5 -18t-2.5 -23q-74 -127 -200 -127q-46 0 -106.5 41t-106.5 41q-57 0 -97 -57q-17 -24 -45 -14l-34 16
q-11 6 -16 18.5t-1 24.5q31 74 83.5 106.5t111.5 32.5q41 0 77.5 -20.5t70 -41t67.5 -20.5q55 0 98 54q8 9 21 12.5t24 -2.5z" />
    <glyph glyph-name="Imacron" unicode="&#x12a;" horiz-adv-x="616" 
d="M395 1403v-1372q0 -12 -9 -21.5t-21 -9.5h-113q-12 0 -21.5 9.5t-9.5 21.5v1372q0 12 9.5 21.5t21.5 9.5h113q12 0 21 -9.5t9 -21.5zM31 1743h555q12 0 21 -9.5t9 -21.5v-51q0 -12 -9 -21.5t-21 -9.5h-555q-12 0 -21.5 9.5t-9.5 21.5v51q0 12 9.5 21.5t21.5 9.5z" />
    <glyph glyph-name="imacron" unicode="&#x12b;" horiz-adv-x="616" 
d="M391 993v-964q0 -12 -9.5 -21.5t-21.5 -9.5h-108q-12 0 -21.5 9.5t-9.5 21.5v964q0 12 9.5 21.5t21.5 9.5h108q12 0 21.5 -9.5t9.5 -21.5zM31 1333h555q12 0 21 -9t9 -21v-52q0 -12 -9 -21t-21 -9h-555q-12 0 -21.5 9t-9.5 21v52q0 12 9.5 21t21.5 9z" />
    <glyph glyph-name="Ibreve" unicode="&#x12c;" horiz-adv-x="548" 
d="M360 1403v-1372q0 -12 -9 -21.5t-21 -9.5h-113q-12 0 -21.5 9.5t-9.5 21.5v1372q0 12 9.5 21.5t21.5 9.5h113q12 0 21 -9.5t9 -21.5zM469 1874l51 -14q12 -5 17.5 -16t1.5 -23q-79 -197 -265 -197q-190 0 -264 195q-4 12 1.5 23t17.5 16l55 18q12 4 23 -1.5t16 -16.5
q46 -111 151 -111q114 0 156 108q5 11 16.5 17t22.5 2z" />
    <glyph glyph-name="ibreve" unicode="&#x12d;" horiz-adv-x="548" 
d="M356 993v-964q0 -12 -9 -21.5t-21 -9.5h-109q-12 0 -21.5 9.5t-9.5 21.5v964q0 12 9.5 21.5t21.5 9.5h109q12 0 21 -9.5t9 -21.5zM469 1464l51 -14q12 -5 17.5 -16t1.5 -23q-79 -197 -265 -197q-190 0 -264 195q-4 12 1.5 23t17.5 16l55 18q12 4 23 -1.5t16 -16.5
q46 -111 151 -111q113 0 156 109q5 11 16 16.5t23 1.5z" />
    <glyph glyph-name="Iogonek" unicode="&#x12e;" horiz-adv-x="569" 
d="M377 1403v-1432q0 -23 -35 -94t-35 -117q0 -122 131 -122q53 0 123 24q11 3 20 -3.5t9 -16.5v-41q0 -30 -29 -43q-80 -25 -139 -25q-102 0 -170 53.5t-68 159.5q0 38 16.5 76.5t36 63.5t36 50.5t16.5 40.5v23h-56q-12 0 -21 9.5t-9 21.5v1372q0 12 9 21.5t21 9.5h113
q12 0 21.5 -9.5t9.5 -21.5z" />
    <glyph glyph-name="iogonek" unicode="&#x12f;" horiz-adv-x="548" 
d="M356 993v-1005q0 -23 -34.5 -94t-34.5 -117q0 -123 131 -123q53 0 123 24q11 3 19.5 -3.5t8.5 -16.5v-41q0 -31 -28 -43q-80 -25 -140 -25q-102 0 -169.5 53.5t-67.5 159.5q0 38 16 76.5t36 64t36 51t16 40.5v4h-51q-12 0 -21.5 9.5t-9.5 21.5v964q0 12 9.5 21.5
t21.5 9.5h109q12 0 21 -9.5t9 -21.5zM168 1321q0 44 30 75t74 31t75.5 -31t31.5 -75t-31 -74t-76 -30q-44 0 -74 30t-30 74z" />
    <glyph glyph-name="Idotaccent" unicode="&#x130;" horiz-adv-x="579" 
d="M184 1726q0 44 30.5 75.5t74.5 31.5t75 -31.5t31 -75.5t-31 -74t-75 -30t-74.5 30t-30.5 74zM377 1403v-1372q0 -12 -9.5 -21.5t-21.5 -9.5h-113q-12 0 -21 9.5t-9 21.5v1372q0 12 9 21.5t21 9.5h113q12 0 21.5 -9.5t9.5 -21.5z" />
    <glyph glyph-name="dotlessi" unicode="&#x131;" horiz-adv-x="497" 
d="M334 993v-964q0 -12 -9.5 -21.5t-21.5 -9.5h-108q-12 0 -21.5 9.5t-9.5 21.5v964q0 12 9.5 21.5t21.5 9.5h108q12 0 21.5 -9.5t9.5 -21.5z" />
    <glyph glyph-name="IJ" unicode="&#x132;" horiz-adv-x="1734" 
d="M379 1403v-1372q0 -12 -9.5 -21.5t-21.5 -9.5h-112q-12 0 -21.5 9.5t-9.5 21.5v1372q0 12 9.5 21.5t21.5 9.5h112q12 0 21.5 -9.5t9.5 -21.5zM567 362l90 33q12 4 23 -1t16 -17q96 -242 328 -234q64 1 116.5 19t86 44.5t58 64.5t37 72.5t20 76.5t9 68t1.5 55v860
q0 12 9 21.5t21 9.5h117q12 0 21.5 -9.5t9.5 -21.5v-860q0 -52 -6.5 -103.5t-22.5 -107.5t-41.5 -104.5t-65.5 -93.5t-91 -76.5t-122.5 -50.5t-156.5 -19q-349 0 -475 336q-10 27 18 38z" />
    <glyph glyph-name="ij" unicode="&#x133;" horiz-adv-x="1028" 
d="M186 1321q0 44 30.5 75t74.5 31t75 -31t31 -75t-31 -74t-75 -30t-74.5 30t-30.5 74zM635 1317q0 44 30 75t74 31t75.5 -31t31.5 -75t-31.5 -74.5t-75.5 -30.5t-74 30.5t-30 74.5zM375 993v-964q0 -12 -9.5 -21.5t-21.5 -9.5h-108q-12 0 -21.5 9.5t-9.5 21.5v964
q0 12 9.5 21.5t21.5 9.5h108q12 0 21.5 -9.5t9.5 -21.5zM485 -424q-128 0 -235 68q-11 8 -13 20.5t5 24.5l39 59q6 11 19 14.5t24 -2.5q73 -36 147 -36q85 0 133.5 59t48.5 188v1022q0 12 9.5 21.5t21.5 9.5h111q12 0 21 -9.5t9 -21.5v-1022q0 -134 -41 -221
q-83 -173 -299 -174z" />
    <glyph glyph-name="Jcircumflex" unicode="&#x134;" horiz-adv-x="1236" 
d="M70 362l90 33q12 4 23 -1t16 -17q95 -242 327 -234q64 1 116.5 19t86 44.5t58 64.5t37 72.5t20 76.5t9 68t1.5 55v860q0 12 9.5 21.5t21.5 9.5h116q12 0 21.5 -9.5t9.5 -21.5v-860q0 -52 -6.5 -103.5t-22.5 -107.5t-41.5 -104.5t-65.5 -93.5t-91 -76.5t-122.5 -50.5
t-156.5 -19q-349 0 -475 336q-4 12 1.5 22.5t17.5 15.5zM967 1929l268 -198q10 -7 12 -20.5t-6 -22.5l-24 -37q-6 -11 -19 -13.5t-24 4.5l-232 142l-231 -142q-11 -7 -24 -4.5t-21 13.5l-25 37q-6 9 -4 22.5t12 20.5l269 198q25 17 49 0z" />
    <glyph glyph-name="jcircumflex" unicode="&#x135;" horiz-adv-x="518" 
d="M-37 -424q-111 8 -205 68q-11 8 -13 20.5t5 24.5l39 59q6 11 19 14.5t24 -2.5q73 -36 148 -36q85 0 133.5 59t48.5 188v1022q0 12 9.5 21.5t21.5 9.5h110q12 0 21.5 -9.5t9.5 -21.5v-1022v-4v-35.5t-5.5 -57.5t-15.5 -74.5t-33 -75t-54.5 -71t-83.5 -51.5t-117 -26h-62z
M285 1509l268 -198q10 -7 12 -20.5t-6 -22.5l-24 -37q-6 -11 -19 -13t-24 5l-232 141l-231 -141q-11 -7 -24 -5t-21 13l-25 37q-6 9 -4 22.5t12 20.5l269 198q25 17 49 0z" />
    <glyph glyph-name="Kcommaaccent" unicode="&#x136;" horiz-adv-x="1415" 
d="M348 0h-112q-12 0 -21.5 9.5t-9.5 21.5v1372q0 12 9.5 21.5t21.5 9.5h112q12 0 21.5 -9.5t9.5 -21.5v-639l676 649q25 21 53 21h160q14 0 14 -15q0 -12 -10 -22l-686 -652l723 -696q14 -11 14 -31q0 -8 -5.5 -13t-12.5 -5h-152q-30 0 -53 20l-721 703v-692
q0 -12 -9.5 -21.5t-21.5 -9.5zM635 -682l-8 6q-12 4 -17 16.5t0 24.5q62 132 74 215q-50 -5 -89.5 26t-39.5 93q2 50 35 83.5t82 33.5q70 0 102.5 -38.5t32.5 -94.5q0 -131 -127 -351q-16 -25 -45 -14z" />
    <glyph glyph-name="kcommaaccent" unicode="&#x137;" horiz-adv-x="1107" 
d="M336 510v-479q0 -12 -9.5 -21.5t-21.5 -9.5h-110q-12 0 -21.5 9.5t-9.5 21.5v1374q0 12 9.5 21.5t21.5 9.5h110q12 0 21.5 -9.5t9.5 -21.5v-860l457 456q23 23 53 23h147q8 0 11 -8t-3 -12l-481 -467l522 -517q6 -4 3 -12t-11 -8h-155q-31 0 -54 23zM483 -682l-8 6
q-12 4 -16.5 16.5t0.5 24.5q61 129 73 215q-50 -5 -89.5 26t-39.5 93q2 50 35 83.5t82 33.5q70 0 102.5 -38.5t32.5 -94.5q0 -131 -127 -351q-16 -25 -45 -14z" />
    <glyph glyph-name="kgreenlandic" unicode="&#x138;" horiz-adv-x="1058" 
d="M336 510v-479q0 -12 -9.5 -21.5t-21.5 -9.5h-110q-12 0 -21.5 9.5t-9.5 21.5v962q0 12 9.5 21.5t21.5 9.5h110q12 0 21.5 -9.5t9.5 -21.5v-448l457 456q23 23 53 23h147q8 0 11 -8t-3 -12l-481 -467l522 -517q6 -4 3 -12t-11 -8h-155q-31 0 -54 23z" />
    <glyph glyph-name="Lacute" unicode="&#x139;" horiz-adv-x="1064" 
d="M379 1403v-1256h532q12 0 21.5 -9t9.5 -21v-86q0 -12 -9.5 -21.5t-21.5 -9.5h-675q-12 0 -21.5 9.5t-9.5 21.5v1372q0 12 9.5 21.5t21.5 9.5h112q12 0 21.5 -9.5t9.5 -21.5zM264 1720l268 199q9 8 22 5t19 -13l45 -66q6 -9 3 -22t-13 -19l-282 -172q-11 -7 -24 -5t-21 13
l-25 37q-6 9 -4 22.5t12 20.5z" />
    <glyph glyph-name="lacute" unicode="&#x13a;" horiz-adv-x="538" 
d="M354 1407v-1376q0 -12 -9 -21.5t-21 -9.5h-109q-12 0 -21.5 9.5t-9.5 21.5v1376q0 12 9.5 21.5t21.5 9.5h109q12 0 21 -9.5t9 -21.5zM141 1733l269 198q9 8 22 5t19 -13l45 -65q6 -9 2.5 -22t-13.5 -19l-282 -172q-11 -7 -24 -5t-21 13l-25 37q-6 9 -4 22.5t12 20.5z" />
    <glyph glyph-name="Lcommaaccent" unicode="&#x13b;" horiz-adv-x="1064" 
d="M379 1403v-1256h532q12 0 21.5 -9t9.5 -21v-86q0 -12 -9.5 -21.5t-21.5 -9.5h-675q-12 0 -21.5 9.5t-9.5 21.5v1372q0 12 9.5 21.5t21.5 9.5h112q12 0 21.5 -9.5t9.5 -21.5zM520 -682l-8 6q-12 4 -16.5 16.5t0.5 24.5q61 129 73 215q-50 -5 -89.5 26t-39.5 93
q2 50 35 83.5t82 33.5q70 0 102.5 -38.5t32.5 -94.5q0 -131 -127 -351q-16 -25 -45 -14z" />
    <glyph glyph-name="lcommaaccent" unicode="&#x13c;" horiz-adv-x="538" 
d="M354 1407v-1376q0 -12 -9 -21.5t-21 -9.5h-109q-12 0 -21.5 9.5t-9.5 21.5v1376q0 12 9.5 21.5t21.5 9.5h109q12 0 21 -9.5t9 -21.5zM211 -682l-8 6q-12 4 -17 16.5t0 24.5q62 132 74 215q-50 -5 -89.5 26t-39.5 93q2 50 35 83.5t82 33.5q70 0 102.5 -38.5t32.5 -94.5
q0 -131 -127 -351q-16 -25 -45 -14z" />
    <glyph glyph-name="Lcaron" unicode="&#x13d;" horiz-adv-x="1064" 
d="M379 1403v-1256h532q12 0 21.5 -9t9.5 -21v-86q0 -12 -9.5 -21.5t-21.5 -9.5h-675q-12 0 -21.5 9.5t-9.5 21.5v1372q0 12 9.5 21.5t21.5 9.5h112q12 0 21.5 -9.5t9.5 -21.5zM623 891l-13 6q-11 6 -14.5 18t2.5 23q81 161 96 266q-50 -5 -89.5 26t-39.5 93q2 50 35 83.5
t82 33.5q70 0 102.5 -38.5t32.5 -94.5q0 -87 -45.5 -202t-103.5 -202q-6 -10 -19.5 -13.5t-25.5 1.5z" />
    <glyph glyph-name="lcaron" unicode="&#x13e;" horiz-adv-x="772" 
d="M354 1407v-1376q0 -12 -9 -21.5t-21 -9.5h-109q-12 0 -21.5 9.5t-9.5 21.5v1376q0 12 9.5 21.5t21.5 9.5h109q12 0 21 -9.5t9 -21.5zM573 893l-12 6q-11 6 -14.5 18t2.5 23q81 161 96 266q-50 -5 -89.5 26t-39.5 93q2 50 35 83.5t82 33.5q70 0 102.5 -38.5t32.5 -94.5
q0 -87 -46 -202t-104 -202q-6 -10 -19.5 -13.5t-25.5 1.5z" />
    <glyph glyph-name="Ldot" unicode="&#x13f;" horiz-adv-x="1064" 
d="M379 1403v-1256h532q12 0 21.5 -9t9.5 -21v-86q0 -12 -9.5 -21.5t-21.5 -9.5h-675q-12 0 -21.5 9.5t-9.5 21.5v1372q0 12 9.5 21.5t21.5 9.5h112q12 0 21.5 -9.5t9.5 -21.5zM563 645q0 49 33.5 83t83.5 34t85.5 -34t35.5 -83q0 -51 -35.5 -86t-85.5 -35q-49 0 -83 35
t-34 86z" />
    <glyph glyph-name="ldot" unicode="&#x140;" horiz-adv-x="798" 
d="M354 1407v-1376q0 -12 -9 -21.5t-21 -9.5h-109q-12 0 -21.5 9.5t-9.5 21.5v1376q0 12 9.5 21.5t21.5 9.5h109q12 0 21 -9.5t9 -21.5zM520 608q0 50 34 83.5t83 33.5q50 0 85.5 -34t35.5 -83q0 -51 -35.5 -86t-85.5 -35q-49 0 -83 35t-34 86z" />
    <glyph glyph-name="Lslash" unicode="&#x141;" horiz-adv-x="1105" 
d="M59 553l-22 39q-7 11 -4 23t14 18l197 115v655q0 12 9 21.5t21 9.5h115q12 0 21.5 -9.5t9.5 -21.5v-555l287 166q11 7 23 4t20 -14l22 -39q6 -10 3 -23t-13 -20l-342 -197v-578h532q12 0 21.5 -9t9.5 -21v-86q0 -12 -9.5 -21.5t-21.5 -9.5h-678q-12 0 -21 9.5t-9 21.5
v592l-142 -82q-11 -6 -23 -2.5t-20 14.5z" />
    <glyph glyph-name="lslash" unicode="&#x142;" horiz-adv-x="684" 
d="M623 930l24 -37q6 -10 3 -23t-13 -20l-217 -125v-692q0 -12 -9.5 -21.5t-21.5 -9.5h-115q-12 0 -21 9.5t-9 21.5v590l-142 -82q-11 -6 -23 -2.5t-20 14.5l-22 39q-7 11 -4 23t14 18l197 115v657q0 12 9 21.5t21 9.5h115q12 0 21.5 -9.5t9.5 -21.5v-557l160 92q11 7 24 4
t19 -14z" />
    <glyph glyph-name="Nacute" unicode="&#x143;" horiz-adv-x="1562" 
d="M350 0h-114q-12 0 -21.5 9.5t-9.5 21.5v1384q0 12 9.5 21.5t21.5 9.5h2q31 0 51 -23l895 -1034v1014q0 12 9 21.5t21 9.5h113q12 0 21.5 -9.5t9.5 -21.5v-1387q0 -12 -9.5 -20t-21.5 -8q-30 0 -49 22l-897 1039v-1018q0 -12 -9.5 -21.5t-21.5 -9.5zM608 1720l269 199
q9 8 22 5t19 -13l45 -66q6 -9 2.5 -22t-13.5 -19l-282 -172q-11 -7 -24 -5t-21 13l-25 37q-6 9 -4 22.5t12 20.5z" />
    <glyph glyph-name="nacute" unicode="&#x144;" 
d="M334 731v-700q0 -12 -9.5 -21.5t-21.5 -9.5h-108q-12 0 -21.5 9.5t-9.5 21.5v962q0 12 9.5 21.5t21.5 9.5h26q30 0 41 -29l31 -98q135 143 336 143q79 0 142.5 -16t107.5 -43t76.5 -67.5t51.5 -83t30.5 -96.5t15.5 -101.5t4 -104.5v-497q0 -12 -9.5 -21.5t-21.5 -9.5
h-111q-12 0 -21 9.5t-9 21.5v495v41.5t-2.5 47t-6.5 53.5t-13 52t-21.5 52t-33.5 43.5t-47 37.5t-62.5 22.5t-80.5 9.5q-87 0 -169 -50.5t-115 -103.5zM418 1311l268 198q9 8 22 5t19 -13l45 -65q6 -9 3 -22t-13 -19l-283 -172q-11 -7 -24 -5t-21 13l-24 37q-6 9 -4 22.5
t12 20.5z" />
    <glyph glyph-name="Ncommaaccent" unicode="&#x145;" horiz-adv-x="1562" 
d="M350 0h-114q-12 0 -21.5 9.5t-9.5 21.5v1384q0 12 9.5 21.5t21.5 9.5h2q31 0 51 -23l895 -1034v1014q0 12 9 21.5t21 9.5h113q12 0 21.5 -9.5t9.5 -21.5v-1387q0 -12 -9.5 -20t-21.5 -8q-30 0 -49 22l-897 1039v-1018q0 -12 -9.5 -21.5t-21.5 -9.5zM735 -682l-8 6
q-12 4 -16.5 16.5t0.5 24.5q61 129 73 215q-50 -5 -89.5 26t-39.5 93q2 50 35 83.5t82 33.5q70 0 102.5 -38.5t32.5 -94.5q0 -131 -127 -351q-16 -25 -45 -14z" />
    <glyph glyph-name="ncommaaccent" unicode="&#x146;" 
d="M334 731v-700q0 -12 -9.5 -21.5t-21.5 -9.5h-108q-12 0 -21.5 9.5t-9.5 21.5v962q0 12 9.5 21.5t21.5 9.5h26q30 0 41 -29l31 -98q135 143 336 143q79 0 142.5 -16t107.5 -43t76.5 -67.5t51.5 -83t30.5 -96.5t15.5 -101.5t4 -104.5v-497q0 -12 -9.5 -21.5t-21.5 -9.5
h-111q-12 0 -21 9.5t-9 21.5v495v41.5t-2.5 47t-6.5 53.5t-13 52t-21.5 52t-33.5 43.5t-47 37.5t-62.5 22.5t-80.5 9.5q-87 0 -169 -50.5t-115 -103.5zM545 -682l-8 6q-12 4 -17 16.5t0 24.5q62 132 74 215q-50 -5 -89.5 26t-39.5 93q2 50 35 83.5t82 33.5q70 0 102.5 -38.5
t32.5 -94.5q0 -131 -127 -351q-16 -25 -45 -14z" />
    <glyph glyph-name="Ncaron" unicode="&#x147;" horiz-adv-x="1562" 
d="M350 0h-114q-12 0 -21.5 9.5t-9.5 21.5v1384q0 12 9.5 21.5t21.5 9.5h2q31 0 51 -23l895 -1034v1014q0 12 9 21.5t21 9.5h113q12 0 21.5 -9.5t9.5 -21.5v-1387q0 -12 -9.5 -20t-21.5 -8q-30 0 -49 22l-897 1039v-1018q0 -12 -9.5 -21.5t-21.5 -9.5zM1073 1833l-268 -199
q-11 -8 -25 -8t-24 8l-269 199q-23 17 -8 43l25 37q8 11 21 13t24 -5l231 -141l232 141q11 7 24 5t19 -13l24 -37q8 -10 6 -23t-12 -20z" />
    <glyph glyph-name="ncaron" unicode="&#x148;" 
d="M334 731v-700q0 -12 -9.5 -21.5t-21.5 -9.5h-108q-12 0 -21.5 9.5t-9.5 21.5v962q0 12 9.5 21.5t21.5 9.5h26q30 0 41 -29l31 -98q135 143 336 143q79 0 142.5 -16t107.5 -43t76.5 -67.5t51.5 -83t30.5 -96.5t15.5 -101.5t4 -104.5v-497q0 -12 -9.5 -21.5t-21.5 -9.5
h-111q-12 0 -21 9.5t-9 21.5v495v41.5t-2.5 47t-6.5 53.5t-13 52t-21.5 52t-33.5 43.5t-47 37.5t-62.5 22.5t-80.5 9.5q-87 0 -169 -50.5t-115 -103.5zM883 1423l-269 -198q-24 -17 -49 0l-268 198q-23 17 -8 43l24 37q8 11 21 13t24 -5l232 -141l231 141q11 7 24 5t19 -13
l25 -37q8 -10 6 -23t-12 -20z" />
    <glyph glyph-name="napostrophe" unicode="&#x149;" horiz-adv-x="1380" 
d="M535 731v-700q0 -12 -9.5 -21.5t-21.5 -9.5h-109q-12 0 -21 9.5t-9 21.5v962q0 12 9 21.5t21 9.5h27q30 0 41 -29l31 -98q135 143 335 143q79 0 142.5 -16t107.5 -43t76.5 -67.5t51.5 -83t30.5 -96.5t15.5 -101.5t4 -104.5v-497q0 -12 -9 -21.5t-21 -9.5h-111
q-12 0 -21.5 9.5t-9.5 21.5v495q0 133 -23 200q-55 159 -243 159q-87 0 -169 -50.5t-115 -103.5zM102 1014l-8 6q-12 4 -16.5 16.5t0.5 24.5q62 132 74 215q-50 -5 -89.5 26t-39.5 93q2 50 34.5 83t81.5 33q70 0 102.5 -38.5t32.5 -94.5q0 -130 -127 -350q-16 -25 -45 -14z
" />
    <glyph glyph-name="Eng" unicode="&#x14a;" horiz-adv-x="1562" 
d="M1016 -457q-129 0 -236 68q-11 8 -13 20.5t5 24.5l39 59q6 11 19 15t24 -2q75 -37 147 -37q85 0 134 59.5t49 188.5v198l-803 903v-1009q0 -12 -9.5 -21.5t-21.5 -9.5h-114q-12 0 -21.5 9.5t-9.5 21.5v1386q0 12 9.5 21.5t21.5 9.5h4q31 0 51 -23l893 -1032v1010
q0 12 9 21.5t21 9.5h113q12 0 21.5 -9.5t9.5 -21.5l-2 -1464q0 -135 -41 -223q-83 -172 -299 -173z" />
    <glyph glyph-name="eng" unicode="&#x14b;" 
d="M717 -453q-129 0 -236 68q-11 8 -13 20.5t5 24.5l39 59q6 11 19 15t24 -2q75 -37 147 -37q85 0 134 59.5t49 188.5v583v41.5t-2.5 47t-6.5 53.5t-13 52t-21.5 52t-33.5 43.5t-47 37.5t-62.5 22.5t-80.5 9.5q-87 0 -169 -50.5t-115 -103.5v-700q0 -12 -9.5 -21.5
t-21.5 -9.5h-108q-12 0 -21.5 9.5t-9.5 21.5v962q0 12 9.5 21.5t21.5 9.5h26q30 0 41 -29l31 -98q135 143 336 143q79 0 142.5 -16t107.5 -43t76.5 -67.5t51.5 -83t30.5 -96.5t15.5 -101.5t4 -104.5v-585q0 -135 -41 -223q-82 -173 -299 -173z" />
    <glyph glyph-name="Omacron" unicode="&#x14c;" horiz-adv-x="1662" 
d="M831 1454q114 0 211.5 -25t168.5 -68t128.5 -102.5t94 -124.5t61 -138.5t35 -141.5t10.5 -135q0 -69 -10.5 -138t-35 -142.5t-61 -139t-94 -124t-128.5 -101t-168.5 -67.5t-211.5 -25t-211.5 25t-168.5 67.5t-128 101.5t-94 124t-61.5 138.5t-34.5 142.5t-10 138
q0 67 10 135t34.5 141.5t61.5 138.5t94 124.5t128 102.5t168.5 68t211.5 25zM831 139q95 0 174.5 25t133 64.5t95 93.5t64.5 107.5t38 111.5t19.5 100t4.5 78t-4.5 78t-19.5 99.5t-38 110t-64.5 106.5t-95 93t-133 63.5t-174.5 24.5q-96 0 -175.5 -24.5t-133 -63.5t-95 -93
t-64.5 -106.5t-38 -110t-19.5 -99.5t-4.5 -78t4.5 -78t19.5 -100t38 -111.5t64.5 -107.5t95 -93.5t133 -64.5t175.5 -25zM553 1749h555q12 0 21.5 -9.5t9.5 -21.5v-51q0 -12 -9.5 -21.5t-21.5 -9.5h-555q-12 0 -21.5 9.5t-9.5 21.5v51q0 12 9.5 21.5t21.5 9.5z" />
    <glyph glyph-name="omacron" unicode="&#x14d;" horiz-adv-x="1265" 
d="M633 1040q113 0 203.5 -34.5t146.5 -89t93 -126t52 -140.5t15 -138q0 -71 -15 -140.5t-52 -140.5t-93 -125t-146.5 -88t-203.5 -34q-112 0 -202.5 34t-146.5 88t-93.5 125t-52.5 140.5t-15 140.5q0 69 15 138t52.5 140.5t93.5 126t146.5 89t202.5 34.5zM633 127
q62 0 113.5 16.5t86 42.5t61 61.5t41.5 71t24.5 74t12.5 66.5t3 53t-3 53t-12.5 66.5t-24.5 74t-41.5 71t-61 61.5t-86 42.5t-113.5 16.5q-71 0 -128 -21t-92.5 -57t-60.5 -76.5t-37 -86.5t-17 -80t-5 -64t5 -64t17 -80t37 -86.5t60.5 -76.5t92.5 -57t128 -21zM354 1333h555
q12 0 21.5 -9t9.5 -21v-52q0 -12 -9.5 -21t-21.5 -9h-555q-12 0 -21 9t-9 21v52q0 12 9 21t21 9z" />
    <glyph glyph-name="Obreve" unicode="&#x14e;" horiz-adv-x="1662" 
d="M831 1454q114 0 211.5 -25t168.5 -68t128.5 -102.5t94 -124.5t61 -138.5t35 -141.5t10.5 -135q0 -69 -10.5 -138t-35 -142.5t-61 -139t-94 -124t-128.5 -101t-168.5 -67.5t-211.5 -25t-211.5 25t-168.5 67.5t-128 101.5t-94 124t-61.5 138.5t-34.5 142.5t-10 138
q0 67 10 135t34.5 141.5t61.5 138.5t94 124.5t128 102.5t168.5 68t211.5 25zM831 139q95 0 174.5 25t133 64.5t95 93.5t64.5 107.5t38 111.5t19.5 100t4.5 78t-4.5 78t-19.5 99.5t-38 110t-64.5 106.5t-95 93t-133 63.5t-174.5 24.5q-96 0 -175.5 -24.5t-133 -63.5t-95 -93
t-64.5 -106.5t-38 -110t-19.5 -99.5t-4.5 -78t4.5 -78t19.5 -100t38 -111.5t64.5 -107.5t95 -93.5t133 -64.5t175.5 -25zM1026 1874l51 -14q12 -5 17.5 -16t1.5 -23q-79 -197 -265 -197q-190 0 -264 195q-4 12 1.5 23t17.5 16l55 18q12 4 23 -1.5t16 -16.5q46 -111 151 -111
q114 0 156 108q5 11 16.5 17t22.5 2z" />
    <glyph glyph-name="obreve" unicode="&#x14f;" horiz-adv-x="1265" 
d="M633 1040q113 0 203.5 -34.5t146.5 -89t93 -126t52 -140.5t15 -138q0 -71 -15 -140.5t-52 -140.5t-93 -125t-146.5 -88t-203.5 -34q-112 0 -202.5 34t-146.5 88t-93.5 125t-52.5 140.5t-15 140.5q0 69 15 138t52.5 140.5t93.5 126t146.5 89t202.5 34.5zM633 127
q62 0 113.5 16.5t86 42.5t61 61.5t41.5 71t24.5 74t12.5 66.5t3 53t-3 53t-12.5 66.5t-24.5 74t-41.5 71t-61 61.5t-86 42.5t-113.5 16.5q-71 0 -128 -21t-92.5 -57t-60.5 -76.5t-37 -86.5t-17 -80t-5 -64t5 -64t17 -80t37 -86.5t60.5 -76.5t92.5 -57t128 -21zM836 1464
l51 -14q12 -5 17 -16t1 -23q-79 -197 -264 -197q-190 0 -264 195q-4 12 1 23t17 16l56 18q12 4 22.5 -1.5t15.5 -16.5q46 -111 152 -111q113 0 156 109q5 11 16 16.5t23 1.5z" />
    <glyph glyph-name="Ohungarumlaut" unicode="&#x150;" horiz-adv-x="1662" 
d="M831 1454q114 0 211.5 -25t168.5 -68t128.5 -102.5t94 -124.5t61 -138.5t35 -141.5t10.5 -135q0 -69 -10.5 -138t-35 -142.5t-61 -139t-94 -124t-128.5 -101t-168.5 -67.5t-211.5 -25t-211.5 25t-168.5 67.5t-128 101.5t-94 124t-61.5 138.5t-34.5 142.5t-10 138
q0 67 10 135t34.5 141.5t61.5 138.5t94 124.5t128 102.5t168.5 68t211.5 25zM831 139q95 0 174.5 25t133 64.5t95 93.5t64.5 107.5t38 111.5t19.5 100t4.5 78t-4.5 78t-19.5 99.5t-38 110t-64.5 106.5t-95 93t-133 63.5t-174.5 24.5q-96 0 -175.5 -24.5t-133 -63.5t-95 -93
t-64.5 -106.5t-38 -110t-19.5 -99.5t-4.5 -78t4.5 -78t19.5 -100t38 -111.5t64.5 -107.5t95 -93.5t133 -64.5t175.5 -25zM1155 1909l-108 -258q-13 -29 -43 -29h-56q-11 0 -18 9.5t-4 19.5l82 258q5 12 16.5 20t24.5 8h88q11 0 16.5 -9t1.5 -19zM801 1909l-109 -258
q-13 -29 -43 -29h-55q-11 0 -18.5 9.5t-4.5 19.5l82 258q11 28 41 28h88q11 0 17 -9t2 -19z" />
    <glyph glyph-name="ohungarumlaut" unicode="&#x151;" horiz-adv-x="1265" 
d="M633 1040q113 0 203.5 -34.5t146.5 -89t93 -126t52 -140.5t15 -138q0 -71 -15 -140.5t-52 -140.5t-93 -125t-146.5 -88t-203.5 -34q-112 0 -202.5 34t-146.5 88t-93.5 125t-52.5 140.5t-15 140.5q0 69 15 138t52.5 140.5t93.5 126t146.5 89t202.5 34.5zM633 127
q62 0 113.5 16.5t86 42.5t61 61.5t41.5 71t24.5 74t12.5 66.5t3 53t-3 53t-12.5 66.5t-24.5 74t-41.5 71t-61 61.5t-86 42.5t-113.5 16.5q-71 0 -128 -21t-92.5 -57t-60.5 -76.5t-37 -86.5t-17 -80t-5 -64t5 -64t17 -80t37 -86.5t60.5 -76.5t92.5 -57t128 -21zM975 1499
l-109 -258q-13 -29 -43 -29h-55q-11 0 -18.5 9.5t-4.5 19.5l82 258q11 29 41 29h88q11 0 17 -9.5t2 -19.5zM621 1499l-109 -258q-13 -29 -43 -29h-55q-11 0 -18.5 9.5t-4.5 19.5l82 258q11 29 41 29h88q11 0 17 -9.5t2 -19.5z" />
    <glyph glyph-name="OE" unicode="&#x152;" horiz-adv-x="2066" 
d="M1749 633h-559v-486h723q12 0 21.5 -9t9.5 -21v-86q0 -12 -9.5 -21.5t-21.5 -9.5h-897q-82 -18 -185 -18q-114 0 -211.5 25t-168.5 67.5t-128 101.5t-94 124t-61.5 138.5t-34.5 142.5t-10 138q0 67 10 135t34.5 141.5t61.5 138.5t94 124.5t128 102.5t168.5 68t211.5 25
q110 0 191 -20h891q12 0 21.5 -9.5t9.5 -21.5v-86q0 -12 -9.5 -21.5t-21.5 -9.5h-723v-506h559q12 0 21.5 -9t9.5 -21v-86q0 -12 -9.5 -21.5t-21.5 -9.5zM831 139q109 0 185 27v1100q-86 28 -185 28q-96 0 -175.5 -24.5t-133 -63.5t-95 -93t-64.5 -106.5t-38 -110
t-19.5 -99.5t-4.5 -78t4.5 -78t19.5 -100t38 -111.5t64.5 -107.5t95 -93.5t133 -64.5t175.5 -25z" />
    <glyph glyph-name="oe" unicode="&#x153;" horiz-adv-x="2017" 
d="M1894 612q0 -45 -6 -94q-1 -13 -11 -22t-24 -9h-710q0 -65 25 -130t68.5 -116.5t109 -83.5t139.5 -32q168 0 289 92q26 18 45 -4l43 -53q9 -9 8 -22t-10 -21q-83 -70 -171 -101.5t-204 -31.5q-151 0 -256 65t-170 168q-143 -233 -426 -233q-112 0 -202.5 34.5t-146.5 89
t-93.5 126t-52.5 140.5t-15 138t15 138t52.5 141t93.5 126.5t146.5 89.5t202.5 35q290 0 424 -231q57 109 162.5 173.5t265.5 64.5q194 0 301.5 -119t107.5 -318zM633 123q62 0 113.5 16.5t86 43t61 63t41.5 72t24.5 74.5t12.5 67t3 53t-3 53t-12.5 67t-24.5 74.5t-41.5 72
t-61 63t-86 43t-113.5 16.5q-71 0 -128 -21.5t-92.5 -58t-60.5 -78t-37 -88t-17 -80.5t-5 -63t5 -63t17 -80.5t37 -88t60.5 -78t92.5 -58t128 -21.5zM1720 608q3 39 1 79t-19 78.5t-44 68.5t-74.5 50t-108.5 23q-64 0 -117 -18.5t-89 -48t-64 -70.5t-43.5 -79.5t-26.5 -82.5
h585z" />
    <glyph glyph-name="Racute" unicode="&#x154;" horiz-adv-x="1343" 
d="M842 1804l-283 -172q-11 -7 -24 -5t-21 13l-25 37q-6 9 -3.5 22.5t12.5 20.5l268 199q9 8 22 5t19 -13l45 -66q6 -9 3 -22t-13 -19zM1221 993q0 -156 -98 -278t-236 -152q83 -179 252 -534q4 -10 -2 -19.5t-17 -9.5h-116q-33 0 -43 29l-248 520h-338v-518
q0 -12 -9.5 -21.5t-21.5 -9.5h-108q-12 0 -21.5 9.5t-9.5 21.5v1372q0 12 9.5 21.5t21.5 9.5h493q109 0 196.5 -29t141 -74.5t89.5 -105.5t50.5 -117.5t14.5 -114.5zM375 698h375q69 2 123.5 24.5t86 54.5t52 73.5t28 76t7.5 66.5q0 34 -7 69.5t-28.5 77t-54 73.5
t-88.5 53.5t-128 21.5h-366v-590z" />
    <glyph glyph-name="racute" unicode="&#x155;" horiz-adv-x="747" 
d="M700 1004l-14 -82q-3 -13 -14 -21t-23 -6q-6 0 -17.5 1t-17.5 1q-98 0 -176 -46t-104 -120v-700q0 -12 -9.5 -21.5t-21.5 -9.5h-108q-12 0 -21.5 9.5t-9.5 21.5v962q0 12 9.5 21.5t21.5 9.5h26q30 0 41 -29l31 -98q152 143 336 143q31 0 47 -2q12 -2 19.5 -12t4.5 -22z
M201 1311l268 198q9 8 22 5t19 -13l45 -65q6 -9 3 -22t-13 -19l-283 -172q-11 -7 -24 -5t-21 13l-24 37q-6 9 -4 22.5t12 20.5z" />
    <glyph glyph-name="Rcommaaccent" unicode="&#x156;" horiz-adv-x="1343" 
d="M375 549v-518q0 -12 -9.5 -21.5t-21.5 -9.5h-108q-12 0 -21.5 9.5t-9.5 21.5v1372q0 12 9.5 21.5t21.5 9.5h493q109 0 196.5 -29t141 -74.5t89.5 -105.5t50.5 -117.5t14.5 -114.5q0 -155 -97 -273.5t-237 -156.5q83 -179 252 -534q4 -10 -2 -19.5t-17 -9.5h-116
q-33 0 -43 29l-248 520h-338zM375 698h375q69 2 123.5 24.5t86 54.5t52 73.5t28 76t7.5 66.5q0 34 -7 69.5t-28.5 77t-54 73.5t-88.5 53.5t-128 21.5h-366v-590zM627 -682l-9 6q-12 4 -16.5 16.5t0.5 24.5q62 132 74 215q-50 -5 -89.5 26t-39.5 93q2 50 35 83.5t82 33.5
q70 0 102.5 -38.5t32.5 -94.5q0 -131 -127 -351q-16 -25 -45 -14z" />
    <glyph glyph-name="rcommaaccent" unicode="&#x157;" horiz-adv-x="747" 
d="M700 1004l-14 -82q-3 -13 -14 -21t-23 -6q-6 0 -17.5 1t-17.5 1q-98 0 -176 -46t-104 -120v-700q0 -12 -9.5 -21.5t-21.5 -9.5h-108q-12 0 -21.5 9.5t-9.5 21.5v962q0 12 9.5 21.5t21.5 9.5h26q30 0 41 -29l31 -98q152 143 336 143q31 0 47 -2q12 -2 19.5 -12t4.5 -22z
M188 -682l-8 6q-12 4 -16.5 16.5t0.5 24.5q62 132 74 215q-50 -5 -89.5 26t-39.5 93q2 50 34.5 83.5t81.5 33.5q70 0 102.5 -38.5t32.5 -94.5q0 -131 -127 -351q-16 -25 -45 -14z" />
    <glyph glyph-name="Rcaron" unicode="&#x158;" horiz-adv-x="1343" 
d="M375 549v-518q0 -12 -9.5 -21.5t-21.5 -9.5h-108q-12 0 -21.5 9.5t-9.5 21.5v1372q0 12 9.5 21.5t21.5 9.5h493q109 0 196.5 -29t141 -74.5t89.5 -105.5t50.5 -117.5t14.5 -114.5q0 -158 -98.5 -282t-235.5 -148q83 -179 252 -534q4 -10 -2 -19.5t-17 -9.5h-116
q-33 0 -43 29l-248 520h-338zM375 698h375q69 2 123.5 24.5t86 54.5t52 73.5t28 76t7.5 66.5q0 34 -7 69.5t-28.5 77t-54 73.5t-88.5 53.5t-128 21.5h-366v-590zM905 1833l-268 -199q-11 -8 -25 -8t-24 8l-269 199q-23 17 -8 43l25 37q8 11 21 13t24 -5l231 -141l232 141
q11 7 24 5t19 -13l24 -37q8 -10 6 -23t-12 -20z" />
    <glyph glyph-name="rcaron" unicode="&#x159;" horiz-adv-x="747" 
d="M700 1004l-14 -82q-3 -13 -14 -21t-23 -6q-6 0 -17.5 1t-17.5 1q-98 0 -176 -46t-104 -120v-700q0 -12 -9.5 -21.5t-21.5 -9.5h-108q-12 0 -21.5 9.5t-9.5 21.5v962q0 12 9.5 21.5t21.5 9.5h26q30 0 41 -29l31 -98q152 143 336 143q31 0 47 -2q12 -2 19.5 -12t4.5 -22z
M668 1423l-269 -198q-25 -17 -49 0l-268 198q-23 17 -8 43l24 37q8 11 21 13t24 -5l232 -141l231 141q11 7 24 5t19 -13l25 -37q8 -10 6 -23t-12 -20z" />
    <glyph glyph-name="Sacute" unicode="&#x15a;" horiz-adv-x="1255" 
d="M307 1100v-2q0 -57 28.5 -101t76 -72.5t109.5 -52t130.5 -44.5t137 -45t130.5 -58.5t109.5 -79.5t76 -114.5t28.5 -157.5q0 -167 -142 -281.5t-360 -114.5q-142 0 -251.5 27t-229.5 84q-11 6 -15 18.5t0 24.5q20 42 41 82q4 12 16.5 16.5t24.5 -0.5q214 -90 397 -90
q133 0 229 64t103 166q5 65 -18.5 114.5t-68.5 81t-105 56t-127.5 44.5t-136 41t-132 51t-113 69.5t-81 102t-35.5 142.5q-7 187 116 286t322 99q79 0 199 -21t252 -73q12 -4 17.5 -16.5t0.5 -24.5q-7 -19 -17.5 -50t-12.5 -38q-5 -12 -17 -17.5t-24 -1.5q-235 76 -392 76
q-72 0 -128.5 -17.5t-95.5 -62t-42 -110.5zM455 1720l268 199q9 8 22 5t19 -13l45 -66q6 -9 3 -22t-13 -19l-283 -172q-11 -7 -24 -5t-21 13l-25 37q-6 9 -3.5 22.5t12.5 20.5z" />
    <glyph glyph-name="sacute" unicode="&#x15b;" horiz-adv-x="989" 
d="M666 1395l-283 -172q-11 -7 -24 -5t-21 13l-25 37q-6 9 -3.5 22.5t12.5 20.5l268 198q9 8 22 5t19 -13l45 -65q6 -9 3 -22t-13 -19zM520 596q40 -13 68.5 -23t67.5 -27t66 -34t56.5 -42.5t47 -54t29 -67t11.5 -82.5q0 -126 -103.5 -204t-262.5 -78q-192 0 -350 82
q-11 6 -15 18.5t0 24.5q5 10 16.5 29.5t16.5 29.5q4 12 16.5 16.5t22.5 -0.5q144 -67 280 -67q85 0 144 40.5t59 106.5q0 29 -7.5 52t-26.5 42t-35.5 32t-49.5 27t-53.5 21l-61.5 21q-8 3 -12 4q-135 45 -189 78q-122 76 -122 217q1 133 90 207.5t234 74.5q164 0 327 -71
q12 -4 17 -16.5t0 -24.5q-18 -38 -31 -70q-6 -11 -18.5 -15.5t-24.5 -0.5q-145 57 -231 57q-195 0 -203 -133q0 -28 13 -52t30.5 -39.5t51.5 -31t60.5 -24.5t71.5 -23z" />
    <glyph glyph-name="Scircumflex" unicode="&#x15c;" horiz-adv-x="1255" 
d="M307 1100v-2q0 -57 28.5 -101t76 -72.5t109.5 -52t130.5 -44.5t137 -45t130.5 -58.5t109.5 -79.5t76 -114.5t28.5 -157.5q0 -167 -142 -281.5t-360 -114.5q-142 0 -251.5 27t-229.5 84q-11 6 -15 18.5t0 24.5q20 42 41 82q4 12 16.5 16.5t24.5 -0.5q214 -90 397 -90
q133 0 229 64t103 166q5 65 -18.5 114.5t-68.5 81t-105 56t-127.5 44.5t-136 41t-132 51t-113 69.5t-81 102t-35.5 142.5q-7 187 116 286t322 99q79 0 199 -21t252 -73q12 -4 17.5 -16.5t0.5 -24.5q-7 -19 -17.5 -50t-12.5 -38q-5 -12 -17 -17.5t-24 -1.5q-235 76 -392 76
q-72 0 -128.5 -17.5t-95.5 -62t-42 -110.5zM633 1919l268 -199q10 -7 12 -20.5t-6 -22.5l-24 -37q-6 -11 -19 -13t-24 5l-232 142l-231 -142q-11 -7 -24 -5t-21 13l-25 37q-6 9 -4 22.5t12 20.5l269 199q24 17 49 0z" />
    <glyph glyph-name="scircumflex" unicode="&#x15d;" horiz-adv-x="989" 
d="M496 1364l-232 -141q-11 -7 -24 -5t-21 13l-24 37q-6 9 -4 22.5t12 20.5l268 198q25 17 49 0l268 -198q10 -7 12.5 -20.5t-5.5 -22.5l-25 -37q-6 -11 -19 -13t-24 5zM520 596q40 -13 68.5 -23t67.5 -27t66 -34t56.5 -42.5t47 -54t29 -67t11.5 -82.5q0 -126 -103.5 -204
t-262.5 -78q-192 0 -350 82q-11 6 -15 18.5t0 24.5q5 10 16.5 29.5t16.5 29.5q4 12 16.5 16.5t22.5 -0.5q144 -67 280 -67q85 0 144 40.5t59 106.5q0 29 -7.5 52t-26.5 42t-35.5 32t-49.5 27t-53.5 21l-61.5 21q-8 3 -12 4q-135 45 -189 78q-122 76 -122 217q1 133 90 207.5
t234 74.5q164 0 327 -71q12 -4 17 -16.5t0 -24.5q-18 -38 -31 -70q-6 -11 -18.5 -15.5t-24.5 -0.5q-145 57 -231 57q-195 0 -203 -133q0 -28 13 -52t30.5 -39.5t51.5 -31t60.5 -24.5t71.5 -23z" />
    <glyph glyph-name="Scedilla" unicode="&#x15e;" horiz-adv-x="1255" 
d="M580 -150q-7 7 -7 15v115q-231 8 -423 108q-11 6 -15 18.5t0 24.5q20 42 41 82q4 12 16.5 16.5t24.5 -0.5q214 -90 397 -90q133 0 229 64t103 166q5 65 -18.5 114.5t-68.5 81t-105 56t-127.5 44.5t-136 41t-132 51t-113 69.5t-81 102t-35.5 142.5q-7 187 116 286t322 99
q79 0 199 -21t252 -73q12 -4 17.5 -16.5t0.5 -24.5q-7 -19 -17.5 -50t-12.5 -38q-5 -12 -17 -17.5t-24 -1.5q-235 76 -392 76q-72 0 -128.5 -17.5t-95.5 -62t-42 -110.5v-2q0 -57 28.5 -101t76 -72.5t109.5 -52t130.5 -44.5t137 -45t130.5 -58.5t109.5 -79.5t76 -114.5
t28.5 -157.5q0 -157 -129.5 -269t-331.5 -124v-50h26q85 -4 132 -55.5t47 -112.5q0 -100 -61.5 -154t-147.5 -54q-83 0 -142 34q-12 6 -15 19.5t3 23.5l12 29q6 12 18.5 15.5t22.5 -1.5q50 -20 90 -20q57 0 83 33t26 67q0 36 -26.5 63t-86.5 27h-59q-8 0 -14 6z" />
    <glyph glyph-name="scedilla" unicode="&#x15f;" horiz-adv-x="989" 
d="M449 -156q-7 7 -7 15v127q-154 8 -292 80q-11 6 -15 18.5t0 24.5q5 10 16.5 29.5t16.5 29.5q4 12 16.5 16.5t22.5 -0.5q144 -67 280 -67q85 0 144 40.5t59 106.5q0 29 -7.5 52t-26.5 42t-35.5 32t-49.5 27t-53.5 21l-61.5 21q-8 3 -12 4q-135 45 -189 78
q-122 76 -122 217q1 133 90 207.5t234 74.5q164 0 327 -71q12 -4 17 -16.5t0 -24.5q-18 -38 -31 -70q-6 -11 -18.5 -15.5t-24.5 -0.5q-145 57 -231 57q-195 0 -203 -133q0 -28 13 -52t30.5 -39.5t51.5 -31t60.5 -24.5t71.5 -23q40 -13 68.5 -23t67.5 -27t66 -34t56.5 -42.5
t47 -54t29 -67t11.5 -82.5q0 -118 -90.5 -193t-234.5 -87v-62h26q85 -4 131.5 -55.5t46.5 -112.5q0 -100 -61 -154.5t-147 -54.5q-81 0 -142 35q-12 6 -15 19.5t3 23.5l12 29q6 12 18.5 15.5t22.5 -1.5q50 -20 90 -20q57 0 83 33t26 67q0 36 -26.5 63t-86.5 27h-59
q-8 0 -14 6z" />
    <glyph glyph-name="Scaron" unicode="&#x160;" horiz-adv-x="1255" 
d="M307 1100v-2q0 -57 28.5 -101t76 -72.5t109.5 -52t130.5 -44.5t137 -45t130.5 -58.5t109.5 -79.5t76 -114.5t28.5 -157.5q0 -167 -142 -281.5t-360 -114.5q-142 0 -251.5 27t-229.5 84q-11 6 -15 18.5t0 24.5q20 42 41 82q4 12 16.5 16.5t24.5 -0.5q214 -90 397 -90
q133 0 229 64t103 166q5 65 -18.5 114.5t-68.5 81t-105 56t-127.5 44.5t-136 41t-132 51t-113 69.5t-81 102t-35.5 142.5q-7 187 116 286t322 99q79 0 199 -21t252 -73q12 -4 17.5 -16.5t0.5 -24.5q-7 -19 -17.5 -50t-12.5 -38q-5 -12 -17 -17.5t-24 -1.5q-235 76 -392 76
q-72 0 -128.5 -17.5t-95.5 -62t-42 -110.5zM920 1833l-269 -199q-11 -8 -25 -8t-24 8l-268 199q-23 17 -8 43l24 37q8 11 21 13t24 -5l232 -141l231 141q11 7 24 5t19 -13l25 -37q8 -10 6 -23t-12 -20z" />
    <glyph glyph-name="scaron" unicode="&#x161;" horiz-adv-x="989" 
d="M780 1423l-268 -198q-24 -17 -49 0l-268 198q-10 7 -12.5 20t3.5 23l25 37q8 11 21 13t24 -5l231 -141l232 141q11 7 24 5t19 -13l24 -37q8 -10 6 -23t-12 -20zM520 596q40 -13 68.5 -23t67.5 -27t66 -34t56.5 -42.5t47 -54t29 -67t11.5 -82.5q0 -126 -103.5 -204
t-262.5 -78q-192 0 -350 82q-11 6 -15 18.5t0 24.5q5 10 16.5 29.5t16.5 29.5q4 12 16.5 16.5t22.5 -0.5q144 -67 280 -67q85 0 144 40.5t59 106.5q0 29 -7.5 52t-26.5 42t-35.5 32t-49.5 27t-53.5 21l-61.5 21q-8 3 -12 4q-135 45 -189 78q-122 76 -122 217q1 133 90 207.5
t234 74.5q164 0 327 -71q12 -4 17 -16.5t0 -24.5q-18 -38 -31 -70q-6 -11 -18.5 -15.5t-24.5 -0.5q-145 57 -231 57q-195 0 -203 -133q0 -28 13 -52t30.5 -39.5t51.5 -31t60.5 -24.5t71.5 -23z" />
    <glyph glyph-name="Tcommaaccent" unicode="&#x162;" horiz-adv-x="1220" 
d="M520 31v1255h-397q-12 0 -21.5 9.5t-9.5 21.5v86q0 12 9.5 21.5t21.5 9.5h975q12 0 21 -9.5t9 -21.5v-86q0 -12 -9 -21.5t-21 -9.5h-402v-1255q0 -12 -9 -21.5t-21 -9.5h-115q-12 0 -21.5 9.5t-9.5 21.5zM565 -682l-8 6q-12 4 -16.5 16.5t0.5 24.5q61 129 73 215
q-50 -5 -89.5 26t-39.5 93q2 50 35 83.5t82 33.5q70 0 102.5 -38.5t32.5 -94.5q0 -131 -127 -351q-16 -25 -45 -14z" />
    <glyph glyph-name="tcommaaccent" unicode="&#x163;" horiz-adv-x="616" 
d="M152 889h-101q-12 0 -21.5 9.5t-9.5 21.5v73q0 12 9.5 21.5t21.5 9.5h101l14 174q0 12 10 21.5t23 9.5h94q12 0 21.5 -9.5t9.5 -21.5v-174h188q12 0 21.5 -9.5t9.5 -21.5v-73q0 -12 -9.5 -21.5t-21.5 -9.5h-188v-619q0 -35 4.5 -59.5t17 -47.5t40 -33.5t69.5 -6.5
q49 4 88 12q12 3 23 -3.5t14 -18.5l10 -54q3 -13 -4 -24.5t-21 -14.5q-101 -28 -209 -28q-53 0 -92.5 21.5t-60 50.5t-33 67.5t-15.5 63.5t-3 47v647zM262 -682l-8 6q-12 4 -16.5 16.5t0.5 24.5q61 129 73 215q-50 -5 -89.5 26t-39.5 93q2 50 35 83.5t82 33.5
q70 0 102.5 -38.5t32.5 -94.5q0 -131 -127 -351q-16 -25 -45 -14z" />
    <glyph glyph-name="Tcaron" unicode="&#x164;" horiz-adv-x="1220" 
d="M520 31v1255h-397q-12 0 -21.5 9.5t-9.5 21.5v86q0 12 9.5 21.5t21.5 9.5h975q12 0 21 -9.5t9 -21.5v-86q0 -12 -9 -21.5t-21 -9.5h-402v-1255q0 -12 -9 -21.5t-21 -9.5h-115q-12 0 -21.5 9.5t-9.5 21.5zM903 1833l-268 -199q-11 -8 -25 -8t-24 8l-269 199q-23 17 -8 43
l25 37q8 11 21 13t24 -5l231 -141l232 141q11 7 24 5t19 -13l24 -37q8 -10 6 -23t-12 -20z" />
    <glyph glyph-name="tcaron" unicode="&#x165;" horiz-adv-x="1056" 
d="M152 889h-101q-12 0 -21.5 9.5t-9.5 21.5v73q0 12 9.5 21.5t21.5 9.5h101l14 174q0 12 10 21.5t23 9.5h94q12 0 21.5 -9.5t9.5 -21.5v-174h188q12 0 21.5 -9.5t9.5 -21.5v-73q0 -12 -9.5 -21.5t-21.5 -9.5h-188v-619q0 -35 4.5 -59.5t17 -47.5t40 -33.5t69.5 -6.5
q49 4 88 12q12 3 23 -3.5t14 -18.5l10 -54q3 -13 -4 -24.5t-21 -14.5q-101 -28 -209 -28q-53 0 -92.5 21.5t-60 50.5t-33 67.5t-15.5 63.5t-3 47v647zM766 899l-12 6q-11 6 -15 18t2 23q82 164 97 266q-50 -5 -89.5 26t-39.5 93q2 50 34.5 83.5t81.5 33.5q70 0 103 -38.5
t33 -94.5q0 -87 -46 -202t-104 -202q-6 -10 -19.5 -13.5t-25.5 1.5z" />
    <glyph glyph-name="Tbar" unicode="&#x166;" horiz-adv-x="1220" 
d="M698 768h191q12 0 21.5 -9.5t9.5 -21.5v-47q0 -12 -9.5 -21.5t-21.5 -9.5h-191v-628q0 -12 -9 -21.5t-21 -9.5h-115q-12 0 -21.5 9.5t-9.5 21.5v628h-190q-12 0 -21.5 9.5t-9.5 21.5v47q0 12 9.5 21.5t21.5 9.5h190v518h-399q-12 0 -21.5 9.5t-9.5 21.5v86q0 12 9.5 21.5
t21.5 9.5h975q12 0 21 -9.5t9 -21.5v-86q0 -12 -9 -21.5t-21 -9.5h-400v-518z" />
    <glyph glyph-name="tbar" unicode="&#x167;" horiz-adv-x="616" 
d="M49 678h103v211h-101q-12 0 -21.5 9.5t-9.5 21.5v73q0 12 9.5 21.5t21.5 9.5h101l14 174q0 12 10 21.5t23 9.5h94q12 0 21.5 -9.5t9.5 -21.5v-174h188q12 0 21.5 -9.5t9.5 -21.5v-73q0 -12 -9.5 -21.5t-21.5 -9.5h-188v-211h188q12 0 21.5 -9.5t9.5 -21.5v-61
q0 -12 -9.5 -21.5t-21.5 -9.5h-188v-285q0 -35 4.5 -59.5t17 -47.5t40 -33.5t69.5 -6.5q49 4 88 12q12 3 23 -3.5t14 -18.5l10 -54q3 -13 -4 -24.5t-21 -14.5q-101 -28 -209 -28q-53 0 -92.5 21.5t-60 50.5t-33 67.5t-15.5 63.5t-3 47v313h-103q-12 0 -21.5 9.5t-9.5 21.5
v61q0 12 9.5 21.5t21.5 9.5z" />
    <glyph glyph-name="Utilde" unicode="&#x168;" horiz-adv-x="1474" 
d="M1145 1434h115q12 0 21 -9.5t9 -21.5v-862q0 -75 -17.5 -149.5t-59.5 -148.5t-104 -130.5t-158.5 -91.5t-215.5 -35q-118 0 -214 35t-157.5 91.5t-103 130.5t-59 148.5t-17.5 149.5v862q0 12 9.5 21.5t21.5 9.5h111q12 0 21 -9.5t9 -21.5v-862q0 -38 10 -85.5t37 -106.5
t67.5 -106t109.5 -79.5t155 -32.5q87 0 156 32.5t109.5 79.5t67.5 106t36.5 106.5t9.5 85.5v862q0 12 9.5 21.5t21.5 9.5zM625 1706q-57 0 -97 -57q-18 -25 -45 -15l-34 17q-11 6 -16 18.5t-1 24.5q31 74 83.5 106.5t111.5 32.5q41 0 77.5 -20.5t70 -41t67.5 -20.5
q56 0 98 53q8 9 21 13t24 -2l41 -23q11 -6 14.5 -18t-2.5 -23q-74 -127 -200 -127q-46 0 -106.5 41t-106.5 41z" />
    <glyph glyph-name="utilde" unicode="&#x169;" 
d="M846 293v700q0 12 9.5 21.5t21.5 9.5h108q12 0 21.5 -9.5t9.5 -21.5v-962q0 -12 -9.5 -21.5t-21.5 -9.5h-27q-29 0 -40 29l-31 98q-135 -143 -336 -143q-79 0 -142.5 16t-107.5 43t-76.5 67.5t-51.5 83t-30.5 96.5t-15.5 101.5t-4 104.5v497q0 12 9.5 21.5t21.5 9.5h110
q12 0 21.5 -9.5t9.5 -21.5v-495q0 -133 23 -200q55 -159 243 -159q87 0 168.5 50t116.5 104zM838 1405l41 -23q11 -6 14.5 -18t-2.5 -23q-74 -127 -201 -127q-46 0 -106.5 41t-106.5 41q-56 0 -96 -57q-17 -24 -45 -14l-35 16q-11 6 -15.5 18.5t-0.5 24.5q59 139 194 139
q41 0 77.5 -20.5t70 -41t67.5 -20.5q56 0 99 54q8 9 21 12.5t24 -2.5z" />
    <glyph glyph-name="Umacron" unicode="&#x16a;" horiz-adv-x="1474" 
d="M1044 1712v-51q0 -12 -9 -21.5t-21 -9.5h-555q-12 0 -21.5 9.5t-9.5 21.5v51q0 12 9.5 21.5t21.5 9.5h555q12 0 21 -9.5t9 -21.5zM1145 1434h115q12 0 21 -9.5t9 -21.5v-862q0 -75 -17.5 -149.5t-59.5 -148.5t-104 -130.5t-158.5 -91.5t-215.5 -35q-118 0 -214 35
t-157.5 91.5t-103 130.5t-59 148.5t-17.5 149.5v862q0 12 9.5 21.5t21.5 9.5h111q12 0 21 -9.5t9 -21.5v-862q0 -38 10 -85.5t37 -106.5t67.5 -106t109.5 -79.5t155 -32.5q87 0 156 32.5t109.5 79.5t67.5 106t36.5 106.5t9.5 85.5v862q0 12 9.5 21.5t21.5 9.5z" />
    <glyph glyph-name="umacron" unicode="&#x16b;" 
d="M846 293v700q0 12 9.5 21.5t21.5 9.5h108q12 0 21.5 -9.5t9.5 -21.5v-962q0 -12 -9.5 -21.5t-21.5 -9.5h-27q-29 0 -40 29l-31 98q-135 -143 -336 -143q-79 0 -142.5 16t-107.5 43t-76.5 67.5t-51.5 83t-30.5 96.5t-15.5 101.5t-4 104.5v497q0 12 9.5 21.5t21.5 9.5h110
q12 0 21.5 -9.5t9.5 -21.5v-495q0 -133 23 -200q55 -159 243 -159q87 0 168.5 50t116.5 104zM311 1333h555q12 0 21.5 -9t9.5 -21v-52q0 -12 -9.5 -21t-21.5 -9h-555q-12 0 -21 9t-9 21v52q0 12 9 21t21 9z" />
    <glyph glyph-name="Ubreve" unicode="&#x16c;" horiz-adv-x="1474" 
d="M737 1624q-190 0 -264 195q-4 12 1.5 23t17.5 16l55 18q12 4 23 -1.5t16 -16.5q46 -111 151 -111q114 0 156 108q5 11 16.5 17t22.5 2l51 -14q12 -5 17 -16t1 -23q-79 -197 -264 -197zM1145 1434h115q12 0 21 -9.5t9 -21.5v-862q0 -75 -17.5 -149.5t-59.5 -148.5
t-104 -130.5t-158.5 -91.5t-215.5 -35q-118 0 -214 35t-157.5 91.5t-103 130.5t-59 148.5t-17.5 149.5v862q0 12 9.5 21.5t21.5 9.5h111q12 0 21 -9.5t9 -21.5v-862q0 -38 10 -85.5t37 -106.5t67.5 -106t109.5 -79.5t155 -32.5q87 0 156 32.5t109.5 79.5t67.5 106
t36.5 106.5t9.5 85.5v862q0 12 9.5 21.5t21.5 9.5z" />
    <glyph glyph-name="ubreve" unicode="&#x16d;" 
d="M846 293v700q0 12 9.5 21.5t21.5 9.5h108q12 0 21.5 -9.5t9.5 -21.5v-962q0 -12 -9.5 -21.5t-21.5 -9.5h-27q-29 0 -40 29l-31 98q-135 -143 -336 -143q-79 0 -142.5 16t-107.5 43t-76.5 67.5t-51.5 83t-30.5 96.5t-15.5 101.5t-4 104.5v497q0 12 9.5 21.5t21.5 9.5h110
q12 0 21.5 -9.5t9.5 -21.5v-495q0 -133 23 -200q55 -159 243 -159q87 0 168.5 50t116.5 104zM768 1464l51 -14q12 -5 17.5 -16t1.5 -23q-79 -197 -265 -197q-190 0 -264 195q-4 12 1.5 23t17.5 16l55 18q12 4 23 -1.5t16 -16.5q47 -111 151 -111q113 0 156 109q5 11 16 16.5
t23 1.5z" />
    <glyph glyph-name="Uring" unicode="&#x16e;" horiz-adv-x="1474" 
d="M528 1819q0 86 61.5 147.5t147.5 61.5t146.5 -61.5t60.5 -147.5t-60.5 -146.5t-146.5 -60.5t-147.5 60.5t-61.5 146.5zM637 1819q0 -39 29.5 -69t70.5 -30q38 0 68.5 30.5t30.5 68.5q0 41 -30 70.5t-69 29.5q-41 0 -70.5 -29.5t-29.5 -70.5zM1145 1434h115q12 0 21 -9.5
t9 -21.5v-862q0 -75 -17.5 -149.5t-59.5 -148.5t-104 -130.5t-158.5 -91.5t-215.5 -35q-118 0 -214 35t-157.5 91.5t-103 130.5t-59 148.5t-17.5 149.5v862q0 12 9.5 21.5t21.5 9.5h111q12 0 21 -9.5t9 -21.5v-862q0 -38 10 -85.5t37 -106.5t67.5 -106t109.5 -79.5
t155 -32.5q87 0 156 32.5t109.5 79.5t67.5 106t36.5 106.5t9.5 85.5v862q0 12 9.5 21.5t21.5 9.5z" />
    <glyph glyph-name="uring" unicode="&#x16f;" 
d="M381 1409q0 86 61.5 147.5t147.5 61.5t146.5 -61.5t60.5 -147.5t-60.5 -146.5t-146.5 -60.5t-147.5 60.5t-61.5 146.5zM489 1409q0 -39 30 -68.5t71 -29.5q38 0 68 30t30 68q0 41 -29.5 70.5t-68.5 29.5q-41 0 -71 -29.5t-30 -70.5zM846 293v700q0 12 9.5 21.5t21.5 9.5
h108q12 0 21.5 -9.5t9.5 -21.5v-962q0 -12 -9.5 -21.5t-21.5 -9.5h-27q-29 0 -40 29l-31 98q-135 -143 -336 -143q-79 0 -142.5 16t-107.5 43t-76.5 67.5t-51.5 83t-30.5 96.5t-15.5 101.5t-4 104.5v497q0 12 9.5 21.5t21.5 9.5h110q12 0 21.5 -9.5t9.5 -21.5v-495
q0 -133 23 -200q55 -159 243 -159q87 0 168.5 50t116.5 104z" />
    <glyph glyph-name="Uhungarumlaut" unicode="&#x170;" horiz-adv-x="1474" 
d="M1047 1909l-109 -258q-13 -29 -43 -29h-55q-11 0 -18.5 9.5t-4.5 19.5l82 258q5 12 16.5 20t24.5 8h88q11 0 17 -9t2 -19zM1145 1434h115q12 0 21 -9.5t9 -21.5v-862q0 -75 -17.5 -149.5t-59.5 -148.5t-104 -130.5t-158.5 -91.5t-215.5 -35q-118 0 -214 35t-157.5 91.5
t-103 130.5t-59 148.5t-17.5 149.5v862q0 12 9.5 21.5t21.5 9.5h111q12 0 21 -9.5t9 -21.5v-862q0 -38 10 -85.5t37 -106.5t67.5 -106t109.5 -79.5t155 -32.5q87 0 156 32.5t109.5 79.5t67.5 106t36.5 106.5t9.5 85.5v862q0 12 9.5 21.5t21.5 9.5zM692 1909l-108 -258
q-13 -29 -43 -29h-56q-11 0 -18 9.5t-4 19.5l82 258q11 28 41 28h88q11 0 16.5 -9t1.5 -19z" />
    <glyph glyph-name="uhungarumlaut" unicode="&#x171;" 
d="M846 293v700q0 12 9.5 21.5t21.5 9.5h108q12 0 21.5 -9.5t9.5 -21.5v-962q0 -12 -9.5 -21.5t-21.5 -9.5h-27q-29 0 -40 29l-31 98q-135 -143 -336 -143q-79 0 -142.5 16t-107.5 43t-76.5 67.5t-51.5 83t-30.5 96.5t-15.5 101.5t-4 104.5v497q0 12 9.5 21.5t21.5 9.5h110
q12 0 21.5 -9.5t9.5 -21.5v-495q0 -133 23 -200q55 -159 243 -159q87 0 168.5 50t116.5 104zM881 1499l-109 -258q-13 -29 -43 -29h-55q-11 0 -18.5 9.5t-4.5 19.5l82 258q11 29 41 29h88q11 0 17 -9.5t2 -19.5zM526 1499l-108 -258q-13 -29 -43 -29h-56q-11 0 -18 9.5
t-4 19.5l82 258q11 29 41 29h88q11 0 16.5 -9.5t1.5 -19.5z" />
    <glyph glyph-name="Uogonek" unicode="&#x172;" horiz-adv-x="1474" 
d="M1290 541q0 -73 -17.5 -145.5t-52.5 -143t-98 -129.5t-145 -92v-43q0 -23 -35 -94t-35 -117q0 -123 131 -123q53 0 123 24q11 3 20 -3.5t9 -16.5v-41q0 -30 -29 -43q-80 -25 -139 -25q-102 0 -170 53.5t-68 159.5q0 38 16.5 76.5t36 64t36 51t16.5 40.5v8
q-82 -16 -154 -16q-118 0 -214 35t-157.5 91.5t-103 130.5t-59 148.5t-17.5 149.5v862q0 12 9.5 21.5t21.5 9.5h111q12 0 21 -9.5t9 -21.5v-862q0 -38 10 -85.5t37 -106.5t67.5 -106t109.5 -79.5t155 -32.5q87 0 156 32.5t109.5 79.5t67.5 106t36.5 106.5t9.5 85.5v862
q0 12 9.5 21.5t21.5 9.5h115q12 0 21 -9.5t9 -21.5v-862z" />
    <glyph glyph-name="uogonek" unicode="&#x173;" 
d="M846 293v700q0 12 9.5 21.5t21.5 9.5h108q12 0 21.5 -9.5t9.5 -21.5v-1005q0 -23 -35 -94t-35 -117q0 -123 131 -123q53 0 123 24q11 3 20 -3.5t9 -16.5v-41q0 -30 -29 -43q-80 -25 -139 -25q-102 0 -170 53.5t-68 159.5q0 48 26.5 96t52.5 83t26 53v6l-41 127
q-135 -143 -336 -143q-79 0 -142.5 16t-107.5 43t-76.5 67.5t-51.5 83t-30.5 96.5t-15.5 101.5t-4 104.5v497q0 12 9.5 21.5t21.5 9.5h110q12 0 21.5 -9.5t9.5 -21.5v-495q0 -133 23 -200q55 -159 243 -159q87 0 168.5 50t116.5 104z" />
    <glyph glyph-name="Wcircumflex" unicode="&#x174;" horiz-adv-x="2328" 
d="M2107 1434h129q11 0 17 -9.5t2 -19.5l-598 -1395q-6 -22 -33 -22q-25 0 -31 22l-430 1059l-434 -1061q-7 -20 -31 -20q-21 0 -28 20l-596 1397q-4 10 1.5 19.5t16.5 9.5h127q29 0 43 -29l438 -1063l422 1077q10 29 39 29q31 0 41 -29l422 -1077l440 1063q14 29 43 29z
M1188 1919l268 -199q10 -7 12 -20.5t-6 -22.5l-24 -37q-6 -11 -19 -13t-24 5l-232 142l-231 -142q-11 -7 -24 -5t-21 13l-25 37q-6 9 -4 22.5t12 20.5l269 199q24 17 49 0z" />
    <glyph glyph-name="wcircumflex" unicode="&#x175;" horiz-adv-x="1632" 
d="M1108 307l266 688q11 29 41 29h125q11 0 17 -9.5t2 -19.5l-410 -985q-13 -26 -43 -26t-39 28l-252 662l-252 -664q-10 -26 -39 -26t-39 26l-411 985q-4 10 1.5 19.5t16.5 9.5h125q30 0 41 -29l266 -688l258 717q3 9 13 16t20 7t20 -7t13 -16zM840 1509l268 -198
q10 -7 12 -20.5t-6 -22.5l-24 -37q-6 -11 -19 -13t-24 5l-232 141l-231 -141q-11 -7 -24 -5t-21 13l-25 37q-6 9 -4 22.5t12 20.5l269 198q25 17 49 0z" />
    <glyph glyph-name="Ycircumflex" unicode="&#x176;" horiz-adv-x="1273" 
d="M670 1919l268 -199q10 -7 12 -20.5t-6 -22.5l-24 -37q-6 -11 -19 -13t-24 5l-232 142l-231 -142q-11 -7 -24 -5t-21 13l-25 37q-6 9 -4 22.5t12 20.5l269 199q24 17 49 0zM723 651v-620q0 -12 -9.5 -21.5t-21.5 -9.5h-114q-12 0 -21.5 9.5t-9.5 21.5v618l-469 758
q-6 9 -1.5 18t15.5 9h135q30 0 47 -27l361 -594l360 594q17 27 47 27h140q9 0 13.5 -9t0.5 -18z" />
    <glyph glyph-name="ycircumflex" unicode="&#x177;" horiz-adv-x="1157" 
d="M258 995l322 -776l311 776q15 29 43 29h131q11 0 16.5 -9.5t1.5 -19.5l-589 -1390q-13 -29 -43 -29h-119q-11 0 -17 9.5t-2 19.5l176 415l-415 975q-4 10 1.5 19.5t16.5 9.5h123q29 0 43 -29zM602 1509l268 -198q10 -7 12.5 -20.5t-5.5 -22.5l-25 -37q-6 -11 -19 -13
t-24 5l-231 141l-232 -141q-11 -7 -24 -5t-21 13l-25 37q-6 9 -3.5 22.5t12.5 20.5l268 198q25 17 49 0z" />
    <glyph glyph-name="Ydieresis" unicode="&#x178;" horiz-adv-x="1273" 
d="M723 651v-620q0 -12 -9.5 -21.5t-21.5 -9.5h-114q-12 0 -21.5 9.5t-9.5 21.5v618l-469 758q-6 9 -1.5 18t15.5 9h135q30 0 47 -27l361 -594l360 594q17 27 47 27h140q9 0 13.5 -9t0.5 -18zM281 1757q9 33 36.5 54.5t63.5 21.5q44 0 75 -31.5t31 -75.5t-31 -74t-75 -30
q-36 0 -63.5 20.5t-36.5 53.5q-9 31 0 61zM786 1726q0 44 30.5 75.5t74.5 31.5t75 -31.5t31 -75.5t-31 -74t-75 -30t-74.5 30t-30.5 74z" />
    <glyph glyph-name="Zacute" unicode="&#x179;" horiz-adv-x="1292" 
d="M401 147h738q12 0 21 -9t9 -21v-86q0 -12 -9 -21.5t-21 -9.5h-961q-12 0 -20 8.5t-8 20.5q0 31 14 53l725 1206h-686q-12 0 -21.5 9.5t-9.5 21.5v84q0 12 9.5 21.5t21.5 9.5h919q10 0 17.5 -7t7.5 -18q0 -27 -12 -45zM473 1720l268 199q9 8 22 5t19 -13l45 -66
q6 -9 3 -22t-13 -19l-282 -172q-11 -7 -24.5 -5t-21.5 13l-24 37q-6 9 -4 22.5t12 20.5z" />
    <glyph glyph-name="zacute" unicode="&#x17a;" horiz-adv-x="976" 
d="M141 901v92q0 12 9.5 21.5t21.5 9.5h666q10 0 17 -7t7 -18q0 -22 -12 -43l-490 -802h482q12 0 21 -9.5t9 -21.5v-92q0 -12 -9 -21.5t-21 -9.5h-697q-10 0 -18 8t-8 19q0 29 14 49l475 794h-436q-12 0 -21.5 9.5t-9.5 21.5zM346 1311l268 198q9 8 22 5t19 -13l45 -65
q6 -9 3 -22t-13 -19l-282 -172q-11 -7 -24.5 -5t-21.5 13l-24 37q-6 9 -4 22.5t12 20.5z" />
    <glyph glyph-name="Zdotaccent" unicode="&#x17b;" horiz-adv-x="1292" 
d="M541 1726q0 45 30 76t74 31t75.5 -31.5t31.5 -75.5t-31 -74t-76 -30q-44 0 -74 30t-30 74zM401 147h738q12 0 21 -9t9 -21v-86q0 -12 -9 -21.5t-21 -9.5h-961q-12 0 -20 8.5t-8 20.5q0 31 14 53l725 1206h-686q-12 0 -21.5 9.5t-9.5 21.5v84q0 12 9.5 21.5t21.5 9.5h919
q10 0 17.5 -7t7.5 -18q0 -27 -12 -45z" />
    <glyph glyph-name="zdotaccent" unicode="&#x17c;" horiz-adv-x="976" 
d="M393 1317q0 44 30.5 75t74.5 31t75 -31t31 -75t-31 -74.5t-75 -30.5t-74.5 30.5t-30.5 74.5zM141 901v92q0 12 9.5 21.5t21.5 9.5h666q10 0 17 -7t7 -18q0 -22 -12 -43l-490 -802h482q12 0 21 -9.5t9 -21.5v-92q0 -12 -9 -21.5t-21 -9.5h-697q-10 0 -18 8t-8 19
q0 29 14 49l475 794h-436q-12 0 -21.5 9.5t-9.5 21.5z" />
    <glyph glyph-name="Zcaron" unicode="&#x17d;" horiz-adv-x="1292" 
d="M401 147h738q12 0 21 -9t9 -21v-86q0 -12 -9 -21.5t-21 -9.5h-955q-12 0 -21 9.5t-9 21.5v4q0 28 16 57l719 1196h-686q-12 0 -21.5 9.5t-9.5 21.5v84q0 12 9.5 21.5t21.5 9.5h903q12 0 21.5 -9.5t9.5 -21.5v-6q0 -31 -17 -58zM938 1833l-268 -199q-11 -8 -25 -8t-24 8
l-269 199q-23 17 -8 43l25 37q8 11 21 13t24 -5l231 -141l232 141q11 7 24 5t19 -13l24 -37q8 -10 6 -23t-12 -20z" />
    <glyph glyph-name="zcaron" unicode="&#x17e;" horiz-adv-x="976" 
d="M141 901v92q0 12 9.5 21.5t21.5 9.5h666q10 0 17 -7t7 -18q0 -22 -12 -43l-490 -802h482q12 0 21 -9.5t9 -21.5v-92q0 -12 -9 -21.5t-21 -9.5h-697q-10 0 -18 8t-8 19q0 29 14 49l475 794h-436q-12 0 -21.5 9.5t-9.5 21.5zM782 1423l-268 -198q-25 -17 -49 0l-268 198
q-10 7 -12.5 20t3.5 23l25 37q8 11 21 13t24 -5l231 -141l232 141q11 7 24 5t19 -13l24 -37q8 -10 6 -23t-12 -20z" />
    <glyph glyph-name="longs" unicode="&#x17f;" horiz-adv-x="722" 
d="M733 1374l-20 -67q-5 -12 -16 -17.5t-23 -1.5q-83 25 -156 25q-40 0 -73 -9.5t-62 -31t-45 -61.5t-16 -95v-1083q0 -12 -9.5 -21.5t-21.5 -9.5h-111q-12 0 -21 9.5t-9 21.5v858h-99q-12 0 -21.5 9.5t-9.5 21.5v71q0 12 9.5 21.5t21.5 9.5h99v100q0 161 98 244.5t250 83.5
q113 0 217 -39q12 -5 17 -16t1 -23z" />
    <glyph glyph-name="florin" unicode="&#x192;" horiz-adv-x="815" 
d="M-174 -362l27 67q4 12 16.5 17t24.5 2q70 -23 149 -23q83 0 134.5 40t62.5 136v1014h-101q-12 0 -21 9.5t-9 21.5v71q0 12 9 21.5t21 9.5h101v98q0 161 98 244.5t250 83.5q101 0 219 -43q12 -4 17.5 -16.5t0.5 -24.5l-28 -70q-4 -12 -15.5 -16.5t-23.5 0.5
q-82 29 -152 29q-83 0 -134 -38.5t-62 -140.5v-106h188q12 0 21.5 -9.5t9.5 -21.5v-71q0 -12 -9.5 -21.5t-21.5 -9.5h-188v-1006q0 -159 -98.5 -242t-250.5 -83q-113 0 -217 39q-12 3 -17.5 15t-0.5 24z" />
    <glyph glyph-name="Scommaaccent" unicode="&#x218;" horiz-adv-x="1255" 
d="M580 -678l-33 14q-11 6 -14.5 18t2.5 23q63 134 73 195q-47 4 -77.5 38.5t-30.5 82.5q0 51 33.5 86t84.5 35q69 0 102.5 -40t33.5 -96q0 -128 -131 -344q-7 -12 -20 -15t-23 3zM307 1100v-2q0 -57 28.5 -101t76 -72.5t109.5 -52t130.5 -44.5t137 -45t130.5 -58.5
t109.5 -79.5t76 -114.5t28.5 -157.5q0 -167 -142 -281.5t-360 -114.5q-142 0 -251.5 27t-229.5 84q-11 6 -15 18.5t0 24.5q20 42 41 82q4 12 16.5 16.5t24.5 -0.5q214 -90 397 -90q133 0 229 64t103 166q5 65 -18.5 114.5t-68.5 81t-105 56t-127.5 44.5t-136 41t-132 51
t-113 69.5t-81 102t-35.5 142.5q-7 187 116 286t322 99q79 0 199 -21t252 -73q12 -4 17.5 -16.5t0.5 -24.5q-7 -19 -17.5 -50t-12.5 -38q-5 -12 -17 -17.5t-24 -1.5q-235 76 -392 76q-72 0 -128.5 -17.5t-95.5 -62t-42 -110.5z" />
    <glyph glyph-name="scommaaccent" unicode="&#x219;" horiz-adv-x="989" 
d="M485 -184q70 0 103 -38.5t33 -94.5q0 -131 -127 -351q-16 -25 -45 -14l-9 6q-12 4 -16.5 16.5t0.5 24.5q62 132 74 215q-50 -5 -89.5 26t-39.5 93q2 50 34.5 83.5t81.5 33.5zM520 596q40 -13 68.5 -23t67.5 -27t66 -34t56.5 -42.5t47 -54t29 -67t11.5 -82.5
q0 -126 -103.5 -204t-262.5 -78q-192 0 -350 82q-11 6 -15 18.5t0 24.5q5 10 16.5 29.5t16.5 29.5q4 12 16.5 16.5t22.5 -0.5q144 -67 280 -67q85 0 144 40.5t59 106.5q0 29 -7.5 52t-26.5 42t-35.5 32t-49.5 27t-53.5 21l-61.5 21q-8 3 -12 4q-135 45 -189 78
q-122 76 -122 217q1 133 90 207.5t234 74.5q164 0 327 -71q12 -4 17 -16.5t0 -24.5q-18 -38 -31 -70q-6 -11 -18.5 -15.5t-24.5 -0.5q-145 57 -231 57q-195 0 -203 -133q0 -28 13 -52t30.5 -39.5t51.5 -31t60.5 -24.5t71.5 -23z" />
    <glyph glyph-name="circumflex" unicode="&#x2c6;" horiz-adv-x="1060" 
d="M567 1509l269 -198q10 -7 12 -20.5t-6 -22.5l-25 -37q-6 -11 -19 -13t-24 5l-231 141l-232 -141q-11 -7 -24 -5t-21 13l-24 37q-6 9 -4 22.5t12 20.5l268 198q24 17 49 0z" />
    <glyph glyph-name="caron" unicode="&#x2c7;" horiz-adv-x="1024" 
d="M836 1423l-269 -198q-25 -17 -49 0l-268 198q-23 17 -8 43l24 37q8 11 21 13t24 -5l232 -141l231 141q11 7 24 5t19 -13l25 -37q8 -10 6 -23t-12 -20z" />
    <glyph glyph-name="breve" unicode="&#x2d8;" horiz-adv-x="1040" 
d="M735 1464l51 -14q12 -5 17.5 -16t1.5 -23q-79 -197 -264 -197q-93 0 -160.5 49.5t-104.5 145.5q-4 12 1.5 23t17.5 16l55 18q12 4 23 -1.5t16 -16.5q46 -111 152 -111q112 0 155 109q5 11 16 16.5t23 1.5z" />
    <glyph glyph-name="dotaccent" unicode="&#x2d9;" horiz-adv-x="1185" 
d="M479 1317q0 44 30.5 75t74.5 31t75 -31t31 -75t-31 -74.5t-75 -30.5t-74.5 30.5t-30.5 74.5z" />
    <glyph glyph-name="ring" unicode="&#x2da;" horiz-adv-x="1071" 
d="M328 1409q0 86 61.5 147.5t147.5 61.5t146 -61t60 -148q0 -86 -60 -146.5t-146 -60.5t-147.5 60.5t-61.5 146.5zM436 1409q0 -39 30 -68.5t71 -29.5q38 0 68 30t30 68q0 41 -29.5 70.5t-68.5 29.5q-41 0 -71 -29.5t-30 -70.5z" />
    <glyph glyph-name="ogonek" unicode="&#x2db;" horiz-adv-x="1245" 
d="M627 59h26q12 0 21.5 -9t9.5 -21v-41q0 -23 -35 -94t-35 -117q0 -123 131 -123q53 0 123 24q11 3 20 -3.5t9 -16.5v-41q0 -30 -29 -43q-80 -25 -139 -25q-102 0 -169.5 53.5t-67.5 159.5q0 38 16 76.5t36 64t36 51t16 40.5v35q0 12 9.5 21t21.5 9z" />
    <glyph glyph-name="tilde" unicode="&#x2dc;" horiz-adv-x="1060" 
d="M788 1405l41 -23q11 -6 15 -18t-2 -23q-74 -127 -201 -127q-46 0 -106.5 41t-106.5 41q-56 0 -96 -57q-17 -24 -45 -14l-35 16q-11 6 -15.5 18.5t-0.5 24.5q59 139 194 139q41 0 77.5 -20.5t70 -41t67.5 -20.5q55 0 98 54q8 9 21 12.5t24 -2.5z" />
    <glyph glyph-name="hungarumlaut" unicode="&#x2dd;" horiz-adv-x="1085" 
d="M891 1499l-109 -258q-13 -29 -43 -29h-55q-11 0 -18 9.5t-4 19.5l81 258q11 29 41 29h88q11 0 17 -9.5t2 -19.5zM537 1499l-109 -258q-13 -29 -43 -29h-55q-11 0 -18.5 9.5t-4.5 19.5l82 258q11 29 41 29h88q11 0 17 -9.5t2 -19.5z" />
    <glyph glyph-name="Delta" unicode="&#x394;" horiz-adv-x="1490" 
d="M1337 0h-1183q-11 0 -17 9.5t-2 19.5l598 1386q3 7 12.5 7t12.5 -7l598 -1386q4 -10 -2 -19.5t-17 -9.5zM745 1036l-374 -889h749z" />
    <glyph glyph-name="Delta" unicode="&#x2206;" horiz-adv-x="1490" 
d="M1337 0h-1183q-11 0 -17 9.5t-2 19.5l598 1386q3 7 12.5 7t12.5 -7l598 -1386q4 -10 -2 -19.5t-17 -9.5zM745 1036l-374 -889h749z" />
    <glyph glyph-name="Omega" unicode="&#x3a9;" horiz-adv-x="1740" 
d="M1360 147h227q12 0 21.5 -9t9.5 -21v-86q0 -12 -9.5 -21.5t-21.5 -9.5h-450q-12 0 -21.5 9.5t-9.5 21.5v90q0 30 27 47q65 40 115 101t78 121t46 126.5t23.5 113t5.5 85.5q0 36 -5 78.5t-20 100.5t-38.5 112t-65 109t-95 95t-133.5 65t-176 25q-95 0 -174.5 -25t-133 -65
t-94.5 -95t-64 -108.5t-38 -112t-19.5 -101t-4.5 -78.5q0 -49 11 -112.5t37.5 -146t83 -161.5t134.5 -129q27 -17 27 -47v-88q0 -12 -9.5 -21.5t-21.5 -9.5h-448q-12 0 -21.5 9.5t-9.5 21.5v86q0 12 9.5 21t21.5 9h229q-116 128 -168.5 275.5t-52.5 292.5q0 67 10 135
t34.5 141.5t61.5 138.5t94 124.5t127.5 102.5t168 68t210.5 25q114 0 211.5 -25t168.5 -68t128.5 -102.5t94 -124.5t61 -138.5t35 -141.5t10.5 -135q0 -144 -52 -294t-165 -274z" />
    <glyph glyph-name="Omega" unicode="&#x2126;" horiz-adv-x="1740" 
d="M1360 147h227q12 0 21.5 -9t9.5 -21v-86q0 -12 -9.5 -21.5t-21.5 -9.5h-450q-12 0 -21.5 9.5t-9.5 21.5v90q0 30 27 47q65 40 115 101t78 121t46 126.5t23.5 113t5.5 85.5q0 36 -5 78.5t-20 100.5t-38.5 112t-65 109t-95 95t-133.5 65t-176 25q-95 0 -174.5 -25t-133 -65
t-94.5 -95t-64 -108.5t-38 -112t-19.5 -101t-4.5 -78.5q0 -49 11 -112.5t37.5 -146t83 -161.5t134.5 -129q27 -17 27 -47v-88q0 -12 -9.5 -21.5t-21.5 -9.5h-448q-12 0 -21.5 9.5t-9.5 21.5v86q0 12 9.5 21t21.5 9h229q-116 128 -168.5 275.5t-52.5 292.5q0 67 10 135
t34.5 141.5t61.5 138.5t94 124.5t127.5 102.5t168 68t210.5 25q114 0 211.5 -25t168.5 -68t128.5 -102.5t94 -124.5t61 -138.5t35 -141.5t10.5 -135q0 -144 -52 -294t-165 -274z" />
    <glyph glyph-name="pi" unicode="&#x3c0;" horiz-adv-x="1290" 
d="M948 -4q-53 0 -92.5 21.5t-60 51t-33.5 67.5t-16 63t-3 47l2 624h-315v-839q0 -12 -9.5 -21.5t-21.5 -9.5h-108q-12 0 -21.5 9.5t-9.5 21.5v839h-127q-12 0 -21.5 9.5t-9.5 21.5v92q0 12 9.5 21.5t21.5 9.5h997q12 0 21.5 -9.5t9.5 -21.5v-92q0 -12 -9.5 -21.5
t-21.5 -9.5h-215v-596q0 -35 4.5 -59.5t17.5 -47.5t40.5 -33.5t69.5 -6.5q49 4 88 12q12 3 22.5 -3.5t13.5 -18.5l11 -54q3 -13 -4 -24t-21 -14q-104 -29 -209 -29z" />
    <glyph glyph-name="endash" unicode="&#x2013;" horiz-adv-x="1126" 
d="M932 598h-737q-12 0 -21.5 9.5t-9.5 21.5v61q0 12 9.5 21.5t21.5 9.5h737q12 0 21.5 -9.5t9.5 -21.5v-61q0 -12 -9.5 -21.5t-21.5 -9.5z" />
    <glyph glyph-name="emdash" unicode="&#x2014;" horiz-adv-x="1376" 
d="M1182 598h-987q-12 0 -21.5 9.5t-9.5 21.5v61q0 12 9.5 21.5t21.5 9.5h987q12 0 21 -9.5t9 -21.5v-61q0 -12 -9 -21.5t-21 -9.5z" />
    <glyph glyph-name="quoteleft" unicode="&#x2018;" horiz-adv-x="499" 
d="M315 1452l13 -6q12 -4 16 -16.5t-2 -22.5q-85 -169 -96 -266q50 5 89.5 -26t39.5 -93q-2 -50 -35 -83.5t-82 -33.5q-70 0 -102.5 38.5t-32.5 94.5q0 86 45 201t102 203q7 10 21 13t24 -3z" />
    <glyph glyph-name="quoteright" unicode="&#x2019;" horiz-adv-x="499" 
d="M182 918l-12 6q-11 6 -14.5 18t2.5 23q81 161 96 266q-50 -5 -89.5 26t-39.5 93q2 50 35 83t82 33q70 0 102.5 -38.5t32.5 -94.5q0 -87 -46 -201.5t-104 -201.5q-6 -10 -19.5 -13.5t-25.5 1.5z" />
    <glyph glyph-name="quotesinglbase" unicode="&#x201a;" horiz-adv-x="581" 
d="M223 -326l-12 7q-11 6 -14.5 17.5t2.5 22.5q80 161 96 267q-51 -5 -90 25.5t-39 92.5q2 50 35 83.5t82 33.5q70 0 102.5 -38.5t32.5 -94.5q0 -87 -46 -201.5t-104 -201.5q-6 -10 -19.5 -14t-25.5 1z" />
    <glyph glyph-name="quotedblleft" unicode="&#x201c;" horiz-adv-x="851" 
d="M315 1452l13 -6q12 -4 16 -16.5t-2 -22.5q-85 -169 -96 -266q50 5 89.5 -26t39.5 -93q-2 -50 -35 -83.5t-82 -33.5q-70 0 -102.5 38.5t-32.5 94.5q0 86 45 201t102 203q7 10 21 13t24 -3zM668 1452l12 -6q12 -4 16 -16.5t-2 -22.5q-85 -169 -96 -266q50 5 89.5 -26
t39.5 -93q-2 -50 -35 -83.5t-82 -33.5q-70 0 -102.5 38.5t-32.5 94.5q0 86 45.5 201t102.5 203q7 10 21 13t24 -3z" />
    <glyph glyph-name="quotedblright" unicode="&#x201d;" horiz-adv-x="851" 
d="M535 918l-13 6q-11 6 -14.5 18t2.5 23q81 161 96 266q-50 -5 -89.5 26t-39.5 93q2 50 35 83t82 33q70 0 102.5 -38.5t32.5 -94.5q0 -87 -45.5 -201.5t-103.5 -201.5q-6 -10 -19.5 -13.5t-25.5 1.5zM182 918l-12 6q-11 6 -14.5 18t2.5 23q81 161 96 266q-50 -5 -89.5 26
t-39.5 93q2 50 35 83t82 33q70 0 102.5 -38.5t32.5 -94.5q0 -87 -46 -201.5t-104 -201.5q-6 -10 -19.5 -13.5t-25.5 1.5z" />
    <glyph glyph-name="quotedblbase" unicode="&#x201e;" horiz-adv-x="882" 
d="M223 -326l-12 7q-11 6 -14.5 17.5t2.5 22.5q80 161 96 267q-51 -5 -90 25.5t-39 92.5q2 50 35 83.5t82 33.5q70 0 102.5 -38.5t32.5 -94.5q0 -87 -46 -201.5t-104 -201.5q-6 -10 -19.5 -14t-25.5 1zM606 -326l-12 7q-11 6 -14.5 17.5t2.5 22.5q80 161 96 267
q-51 -5 -90 25.5t-39 92.5q2 50 35 83.5t82 33.5q70 0 102.5 -38.5t32.5 -94.5q0 -87 -46 -201.5t-104 -201.5q-6 -10 -19.5 -14t-25.5 1z" />
    <glyph glyph-name="dagger" unicode="&#x2020;" horiz-adv-x="1130" 
d="M645 877v-1174q0 -12 -9.5 -21.5t-21.5 -9.5h-98q-12 0 -21.5 9.5t-9.5 21.5v1174h-290q-12 0 -21.5 9t-9.5 21v86q0 12 9.5 21.5t21.5 9.5h290v383q0 12 9.5 21.5t21.5 9.5h98q12 0 21.5 -9.5t9.5 -21.5v-383h291q12 0 21.5 -9.5t9.5 -21.5v-86q0 -12 -9.5 -21t-21.5 -9
h-291z" />
    <glyph glyph-name="daggerdbl" unicode="&#x2021;" horiz-adv-x="1130" 
d="M645 88v-385q0 -12 -9.5 -21.5t-21.5 -9.5h-98q-12 0 -21.5 9.5t-9.5 21.5v385h-290q-12 0 -21.5 9.5t-9.5 21.5v86q0 12 9.5 21.5t21.5 9.5h290v641h-290q-12 0 -21.5 9t-9.5 21v86q0 12 9.5 21.5t21.5 9.5h290v383q0 12 9.5 21.5t21.5 9.5h98q12 0 21.5 -9.5t9.5 -21.5
v-383h291q12 0 21.5 -9.5t9.5 -21.5v-86q0 -12 -9.5 -21t-21.5 -9h-291v-641h291q12 0 21.5 -9.5t9.5 -21.5v-86q0 -12 -9.5 -21.5t-21.5 -9.5h-291z" />
    <glyph glyph-name="bullet" unicode="&#x2022;" horiz-adv-x="792" 
d="M391 362q-91 0 -159 68.5t-68 161.5q0 94 68 164.5t159 70.5q97 0 167.5 -70.5t70.5 -164.5t-70 -162t-168 -68z" />
    <glyph glyph-name="ellipsis" unicode="&#x2026;" horiz-adv-x="1320" 
d="M164 109q0 49 33.5 82.5t83.5 33.5t84 -33.5t34 -82.5q0 -50 -34.5 -84.5t-83.5 -34.5t-83 34.5t-34 84.5zM584 109q0 49 33 82.5t83 33.5t84.5 -33.5t34.5 -82.5t-34.5 -84t-84.5 -35q-49 0 -82.5 34.5t-33.5 84.5zM1004 109q0 49 33 82.5t83 33.5t84.5 -33.5
t34.5 -82.5t-34.5 -84t-84.5 -35q-49 0 -82.5 34.5t-33.5 84.5z" />
    <glyph glyph-name="perthousand" unicode="&#x2030;" horiz-adv-x="2244" 
d="M1032 1405l-444 -1376q-11 -29 -41 -29h-66q-9 0 -15.5 6t-6.5 14q0 7 2 9l448 1376q11 29 41 29h62q9 0 15.5 -6.5t6.5 -14.5q0 -2 -1 -4.5t-1 -3.5zM356 1442q81 0 142 -30t93 -78.5t47 -99t15 -101.5q0 -53 -15 -104t-47 -99t-92.5 -77.5t-142.5 -29.5
q-81 0 -141 29.5t-92 77.5t-47 99t-15 104q0 40 8.5 80.5t30 82.5t54 73.5t85 52t117.5 20.5zM356 928q44 0 78 16.5t52.5 39.5t30 53.5t15 53t3.5 42.5q0 21 -3.5 43.5t-15 52t-30 52t-52.5 38.5t-78 16q-55 0 -93 -22.5t-55 -58t-23.5 -65t-6.5 -56.5t6.5 -56.5
t23.5 -65.5t55 -59.5t93 -23.5zM1143 614q81 0 141.5 -30t93 -78.5t47.5 -99t15 -101.5q0 -42 -9 -83t-30.5 -82.5t-54.5 -72.5t-85.5 -51t-117.5 -20q-66 0 -118.5 20t-85 51t-54.5 73t-30.5 82.5t-8.5 82.5q0 51 15 101.5t47 99t93 78.5t142 30zM1143 100q54 0 92 23.5
t54.5 59.5t23 65.5t6.5 56.5q0 21 -3.5 43.5t-14.5 52.5t-29 52.5t-51.5 38.5t-77.5 16t-78 -16t-53 -39t-30.5 -52.5t-15 -52t-3.5 -43.5q0 -26 7 -56t24 -66t55.5 -59.5t93.5 -23.5zM1886 614q81 0 141.5 -30t93 -78.5t47.5 -99t15 -101.5q0 -42 -9 -83t-30.5 -82.5
t-54.5 -72.5t-85.5 -51t-117.5 -20q-66 0 -118.5 20t-85 51t-54.5 73t-30.5 82.5t-8.5 82.5q0 51 15 101.5t47 99t93 78.5t142 30zM1886 100q54 0 92 23.5t54.5 59.5t23 65.5t6.5 56.5q0 21 -3.5 43.5t-14.5 52.5t-29 52.5t-51.5 38.5t-77.5 16t-78 -16t-53 -39t-30.5 -52.5
t-15 -52t-3.5 -43.5q0 -26 7 -56t24 -66t55.5 -59.5t93.5 -23.5z" />
    <glyph glyph-name="guilsinglleft" unicode="&#x2039;" horiz-adv-x="546" 
d="M215 514l248 -295q9 -9 8 -22t-10 -21l-25 -24q-9 -8 -22.5 -7.5t-20.5 9.5l-325 342q-7 10 -7 18t7 18l325 345q7 9 20.5 9.5t22.5 -7.5l27 -27q9 -9 10 -21.5t-8 -21.5z" />
    <glyph glyph-name="guilsinglright" unicode="&#x203a;" horiz-adv-x="546" 
d="M84 219l248 295l-250 295q-20 21 2 43l27 27q9 8 22.5 7.5t20.5 -9.5l325 -345q6 -9 6 -18t-6 -18l-325 -342q-7 -9 -20.5 -9.5t-22.5 7.5l-25 24q-9 8 -10 21t8 22z" />
    <glyph glyph-name="fraction" unicode="&#x2044;" horiz-adv-x="108" 
d="M459 1407l-686 -1380q-13 -27 -45 -27h-64q-10 0 -15.5 9t-0.5 18l688 1380q14 27 45 27h61q10 0 16 -9t1 -18z" />
    <glyph glyph-name="zerosuperior" unicode="&#x2070;" horiz-adv-x="645" 
d="M322 1649q58 0 105 -22.5t75.5 -58t47.5 -82.5t26.5 -91.5t7.5 -89.5q0 -46 -7.5 -91.5t-26.5 -92t-48 -81.5t-75.5 -57t-104.5 -22q-71 0 -124 32.5t-81.5 86t-42 110t-13.5 115.5q0 57 13.5 113.5t42 110t81.5 87t124 33.5zM322 1051q49 0 83.5 29.5t49.5 75.5
t20.5 81.5t5.5 67.5t-5.5 67.5t-20.5 80.5t-49.5 74t-83.5 29q-39 0 -69.5 -20.5t-46.5 -49.5t-26 -66t-13 -64t-3 -51t3 -51t13 -65t26 -67t46.5 -50t69.5 -21z" />
    <glyph glyph-name="foursuperior" unicode="&#x2074;" horiz-adv-x="569" 
d="M436 1096v-101q0 -12 -9 -21t-21 -9h-44q-12 0 -21 9t-9 21v101h-262q-12 0 -20.5 8t-8.5 20q0 30 16 56l279 430q16 26 47 26h23q12 0 21 -9t9 -21v-418h62q12 0 21 -9.5t9 -21.5v-31q0 -12 -9 -21t-21 -9h-62zM332 1438l-162 -250h162v250z" />
    <glyph glyph-name="fivesuperior" unicode="&#x2075;" horiz-adv-x="559" 
d="M84 1075l20 19q19 19 46 0q57 -47 110 -47q63 0 99 40t36 95q0 57 -35 93t-100 36h-125q-12 0 -21.5 9t-9.5 21v265q0 12 9.5 21t21.5 9h281q12 0 21 -9t9 -21v-29q0 -12 -9 -21.5t-21 -9.5h-207v-145h51q67 0 116.5 -22t74.5 -57.5t36 -71.5t11 -74q0 -31 -11 -65.5
t-36 -71.5t-74.5 -61t-116.5 -24q-100 0 -178 78q-20 20 2 43z" />
    <glyph glyph-name="sixsuperior" unicode="&#x2076;" horiz-adv-x="593" 
d="M373 1626l10 -14q6 -10 3 -23.5t-13 -19.5q-127 -80 -172 -183q45 23 96 23q54 0 97 -16.5t67.5 -41t41 -57t22 -61t5.5 -55.5q0 -23 -6 -49.5t-22.5 -58t-41 -56.5t-67.5 -41.5t-96 -14.5q-54 2 -97 19.5t-68 42.5t-41 57t-22 59t-6 52q0 88 23.5 163.5t64.5 129.5
t84.5 91.5t94.5 65.5q11 6 23 2.5t20 -14.5zM297 1049q62 0 97.5 40t35.5 95q0 54 -35 94.5t-98 40.5t-98 -37t-37 -94q0 -55 36.5 -97t98.5 -42z" />
    <glyph glyph-name="sevensuperior" unicode="&#x2077;" horiz-adv-x="495" 
d="M41 1581v27q0 12 9.5 21t21.5 9h356q8 0 14.5 -6.5t6.5 -13.5q0 -21 -9 -39l-245 -584q-12 -28 -43 -28h-48q-11 0 -16.5 9t-1.5 19l227 555h-241q-12 0 -21.5 9.5t-9.5 21.5z" />
    <glyph glyph-name="eightsuperior" unicode="&#x2078;" horiz-adv-x="561" 
d="M61 1446q0 32 10 63t32.5 63.5t68.5 52.5t109 20t108.5 -20t68 -52.5t32.5 -63.5t10 -63q0 -97 -72 -148q72 -54 72 -149q0 -31 -10 -62t-32.5 -63t-68 -52t-108.5 -20q-51 0 -91 14t-63.5 34.5t-39 48t-21 52t-5.5 48.5q0 95 72 149q-72 51 -72 148zM281 1339
q51 0 85.5 28t34.5 79q0 54 -34.5 83.5t-85.5 29.5t-86 -29.5t-35 -83.5q0 -51 35 -79t86 -28zM281 1255q-52 0 -86.5 -26.5t-34.5 -79.5t35 -82t86 -29q50 0 85 29t35 82q0 54 -34 80t-86 26z" />
    <glyph glyph-name="ninesuperior" unicode="&#x2079;" horiz-adv-x="593" 
d="M221 979l-10 14q-6 10 -3 22.5t13 18.5q125 77 172 185q-45 -23 -94 -23q-68 0 -117.5 23.5t-73.5 61t-34.5 73.5t-10.5 71q0 23 5.5 49.5t22 58.5t41.5 57.5t68.5 42t98.5 14.5q65 -2 113.5 -27.5t72.5 -63t34.5 -72.5t10.5 -67q0 -87 -23.5 -162.5t-64 -130.5
t-84.5 -93.5t-94 -65.5q-10 -6 -23 -2t-20 16zM299 1556q-63 0 -99 -40t-36 -95t35.5 -95t99.5 -40q63 0 97 36.5t36 94.5q0 55 -35.5 97t-97.5 42z" />
    <glyph glyph-name="zeroinferior" unicode="&#x2080;" horiz-adv-x="645" 
d="M322 344q58 0 105 -22.5t75.5 -58t47.5 -82.5t26.5 -91.5t7.5 -89.5q0 -46 -7.5 -91.5t-26.5 -92t-48 -81.5t-75.5 -57t-104.5 -22q-71 0 -124 32.5t-81.5 86t-42 110t-13.5 115.5q0 57 13.5 113.5t42 110t81.5 87t124 33.5zM322 -254q49 0 83.5 29.5t49.5 75.5
t20.5 81.5t5.5 67.5q0 24 -3 51t-13 64.5t-26 66.5t-46.5 49.5t-70.5 20.5q-39 0 -69.5 -20.5t-46.5 -49.5t-26 -66.5t-13 -64.5t-3 -51t3 -51t13 -65t26 -67t46.5 -50t69.5 -21z" />
    <glyph glyph-name="oneinferior" unicode="&#x2081;" horiz-adv-x="405" 
d="M303 319v-620q0 -12 -9.5 -21.5t-21.5 -9.5h-43q-12 0 -21 9.5t-9 21.5v485l-88 -51q-11 -7 -24 -5t-21 13l-7 13q-8 10 -5.5 23t12.5 20l172 133q21 14 41 14q10 0 17 -7t7 -18z" />
    <glyph glyph-name="twoinferior" unicode="&#x2082;" horiz-adv-x="538" 
d="M88 203l-18 16q-8 9 -7.5 22.5t9.5 20.5q92 86 194 86q94 0 150.5 -50.5t56.5 -145.5q0 -43 -20 -82.5t-66 -104.5l-162 -203h201q12 0 21.5 -9t9.5 -21v-33q0 -12 -9.5 -21.5t-21.5 -9.5h-344q-8 0 -13.5 6t-5.5 13q0 21 13 34l235 306q18 23 31 43t19.5 32t10 24.5
t4 16.5t0.5 13l-1 8q0 40 -26 68t-81 28q-62 0 -137 -59q-9 -9 -22 -8t-21 10z" />
    <glyph glyph-name="threeinferior" unicode="&#x2083;" horiz-adv-x="526" 
d="M465 152q0 -87 -78 -152q78 -65 78 -147q0 -31 -10 -62t-32.5 -63t-68.5 -52t-110 -20q-103 0 -181 63q-9 8 -10 21t8 22l15 19q9 10 22 12t23 -6q73 -47 123 -47q51 0 87 29.5t36 83.5q0 53 -35.5 79.5t-87.5 26.5h-54q-12 0 -21 9.5t-9 21.5v22q0 12 9 21.5t21 9.5h54
q52 0 87.5 27.5t35.5 81.5q0 53 -36 81.5t-87 28.5q-54 0 -121 -43q-25 -14 -45 6l-12 15q-20 20 2 43q81 65 176 65q64 0 110 -20t68.5 -52t32.5 -62.5t10 -61.5z" />
    <glyph glyph-name="fourinferior" unicode="&#x2084;" horiz-adv-x="569" 
d="M436 -201v-100q0 -12 -9 -21.5t-21 -9.5h-44q-12 0 -21 9.5t-9 21.5v100h-262q-12 0 -20.5 8.5t-8.5 20.5q0 29 16 55l279 430q17 27 47 27h23q12 0 21 -9.5t9 -21.5v-418h62q12 0 21 -9t9 -21v-31q0 -12 -9 -21.5t-21 -9.5h-62zM332 141l-162 -250h162v250z" />
    <glyph glyph-name="fiveinferior" unicode="&#x2085;" horiz-adv-x="559" 
d="M84 -229l20 18q19 19 46 0q57 -47 110 -47q63 0 99 40t36 95q0 57 -35 93t-100 36h-125q-12 0 -21.5 9.5t-9.5 21.5v264q0 12 9.5 21.5t21.5 9.5h281q12 0 21 -9.5t9 -21.5v-29q0 -12 -9 -21t-21 -9h-207v-146h51q67 0 116.5 -22t74.5 -57.5t36 -71.5t11 -74
q0 -24 -6 -51t-23 -58t-42.5 -55t-69 -40.5t-97.5 -16.5q-100 0 -178 78q-20 20 2 43z" />
    <glyph glyph-name="sixinferior" unicode="&#x2086;" horiz-adv-x="593" 
d="M373 330l10 -15q6 -10 3 -23.5t-13 -19.5q-128 -81 -172 -182q45 23 96 23q54 0 97 -16.5t67.5 -41.5t41 -57.5t22 -61t5.5 -55.5q0 -22 -6 -48.5t-22.5 -58.5t-41 -57t-67.5 -41t-96 -14q-54 2 -97 19.5t-68 42.5t-41 56.5t-22 58.5t-6 52q0 88 23.5 163.5t64.5 130
t84.5 92t94.5 65.5q11 6 23 2.5t20 -14.5zM297 -248q62 0 97.5 40t35.5 95q0 54 -35 95t-98 41t-98 -37.5t-37 -94.5q0 -55 36.5 -97t98.5 -42z" />
    <glyph glyph-name="seveninferior" unicode="&#x2087;" horiz-adv-x="495" 
d="M41 283v26q0 12 9.5 21.5t21.5 9.5h342q12 0 20 -8.5t8 -20.5q0 -24 -10 -51l-237 -563q-13 -29 -43 -29h-48q-11 0 -16.5 9.5t-1.5 19.5l227 555h-241q-12 0 -21.5 9.5t-9.5 21.5z" />
    <glyph glyph-name="eightinferior" unicode="&#x2088;" horiz-adv-x="561" 
d="M61 147q0 32 10 63t32.5 63.5t68.5 52.5t109 20t108.5 -20t68 -52.5t32.5 -63.5t10 -63q0 -96 -72 -147q72 -54 72 -150q0 -31 -10 -61.5t-32.5 -62.5t-68 -52t-108.5 -20t-109 20t-68.5 52t-32.5 62.5t-10 61.5q0 96 72 150q-72 51 -72 147zM281 41q51 0 85.5 27.5
t34.5 78.5q0 54 -34.5 83.5t-85.5 29.5t-86 -29.5t-35 -83.5q0 -51 35 -78.5t86 -27.5zM281 -43q-52 0 -86.5 -26.5t-34.5 -80.5q0 -53 35 -81.5t86 -28.5t85.5 28.5t34.5 81.5q0 54 -34 80.5t-86 26.5z" />
    <glyph glyph-name="nineinferior" unicode="&#x2089;" horiz-adv-x="593" 
d="M221 -317l-10 14q-6 10 -3 22.5t13 18.5q125 78 172 184q-43 -22 -94 -22q-68 0 -117.5 23.5t-73.5 61t-34.5 73.5t-10.5 71q0 30 10.5 64t34.5 72.5t73.5 62.5t117.5 22q53 -2 95 -19.5t67 -42.5t41 -56.5t22 -58.5t6 -52q0 -87 -23.5 -163t-64 -131t-84.5 -93.5
t-94 -65.5q-11 -6 -23 -1.5t-20 16.5zM299 260q-63 0 -99 -40t-36 -95t35.5 -95t99.5 -40q63 0 97 36.5t36 94.5q0 55 -35.5 97t-97.5 42z" />
    <glyph glyph-name="Euro" unicode="&#x20ac;" horiz-adv-x="1120" 
d="M752 797h-424l-4 -72q0 -53 4 -80h334q11 0 17.5 -9.5t2.5 -19.5l-12 -45q-5 -12 -16.5 -20t-24.5 -8h-291q12 -63 29.5 -119t47 -112t67 -96.5t90.5 -65.5t116 -25q136 0 240 82q9 8 22.5 7.5t22.5 -9.5l43 -43q9 -7 9 -20t-9 -21q-148 -135 -328 -135q-94 0 -173 31.5
t-134.5 83.5t-98.5 125.5t-69 151t-41 165.5h-121q-12 0 -18.5 8.5t-3.5 19.5l14 45q3 12 14.5 20.5t24.5 8.5h76v152h-107q-12 0 -18.5 8.5t-3.5 19.5l14 45q3 12 14.5 20.5t24.5 8.5h90q20 109 57 202.5t97 176t153 130.5t209 48q188 0 324 -133q9 -9 9 -22.5t-9 -22.5
l-49 -49q-9 -7 -22.5 -7t-22.5 7q-102 86 -230 86q-63 0 -116.5 -25.5t-90 -65.5t-66 -97t-47 -111.5t-30.5 -116.5h446q11 0 18 -9.5t3 -19.5l-12 -45q-11 -28 -41 -28z" />
    <glyph glyph-name="afii61289" unicode="&#x2113;" horiz-adv-x="886" 
d="M41 643v76q0 12 9.5 21.5t21.5 9.5h92v358q0 83 22 146.5t54.5 100t77 59.5t82.5 30.5t77 7.5q87 0 155 -31t109.5 -83.5t62.5 -117t21 -135.5q0 -200 -144 -335.5t-347 -135.5v-233q0 -37 3 -67t14 -67.5t30 -62t54.5 -41t84.5 -14.5q67 4 152 47q11 6 24 2.5t19 -14.5
q6 -9 17.5 -27.5t17.5 -27.5q6 -10 3.5 -23.5t-12.5 -22.5q-93 -66 -217 -73q-70 -5 -127 9t-93.5 38.5t-64 61t-41.5 70.5t-22 74.5t-10 66t-2 50.5v252h-92q-12 0 -21.5 9.5t-9.5 21.5zM334 750h20q137 0 229 101t85 259q-4 100 -60.5 154.5t-132.5 48.5
q-63 -5 -102 -50.5t-39 -138.5v-374z" />
    <glyph glyph-name="trademark" unicode="&#x2122;" horiz-adv-x="1372" 
d="M1061 1311l-154 -367q-3 -10 -16 -10q-11 0 -14 10l-154 367l-109 -340q-11 -29 -41 -29h-38q-11 0 -18 9.5t-3 19.5l180 538q3 13 17 13q13 0 16 -13l166 -383l166 385q4 11 14 11t14 -11l183 -540q3 -10 -3.5 -19.5t-17.5 -9.5h-37q-30 0 -41 29zM258 1438h-135
q-12 0 -21.5 9t-9.5 21v21q0 12 9.5 21.5t21.5 9.5h362q12 0 21.5 -9.5t9.5 -21.5v-21q0 -12 -9.5 -21t-21.5 -9h-135v-465q0 -12 -9.5 -21.5t-21.5 -9.5h-30q-12 0 -21.5 9.5t-9.5 21.5v465z" />
    <glyph glyph-name="estimated" unicode="&#x212e;" horiz-adv-x="1671" 
d="M1323 270l27 -20q11 -9 12 -21.5t-8 -23.5q-98 -114 -219.5 -167.5t-298.5 -53.5q-114 0 -212 25t-169.5 67.5t-129 102t-95 125t-62 139.5t-35 143.5t-10.5 138.5q0 67 10.5 135.5t35 142.5t62 139.5t95 125t129 102.5t169.5 68.5t212 25.5q156 0 281 -47t203 -120.5
t130.5 -172t74 -193.5t23.5 -192q0 -12 -9 -21t-21 -9h-1131v-426q153 -211 449 -211q144 0 249 49.5t195 146.5q22 22 43 2zM836 1376q-292 0 -449 -209v-370h891v377q-145 202 -442 202z" />
    <glyph glyph-name="onethird" unicode="&#x2153;" horiz-adv-x="1212" 
d="M303 1411v-623q0 -12 -9.5 -21t-21.5 -9h-43q-12 0 -21 9t-9 21v484q-17 -9 -50.5 -31t-37.5 -24q-10 -6 -23.5 -3t-19.5 13l-11 14q-6 10 -3.5 24t12.5 21l174 133q18 15 41 15q9 0 15.5 -7t6.5 -16zM926 1407l-686 -1380q-14 -27 -45 -27h-64q-10 0 -15.5 9t-0.5 18
l688 1380q13 27 45 27h61q10 0 16 -9t1 -18zM1094 489q0 -86 -78 -151q78 -65 78 -148q0 -31 -10 -61.5t-33 -62.5t-69 -52t-110 -20q-102 0 -180 63q-9 8 -10 21t8 22l15 19q9 10 22 12t23 -6q73 -47 122 -47q51 0 87 29t36 83q0 53 -35.5 80t-87.5 27h-53q-12 0 -21.5 9.5
t-9.5 21.5v22q0 12 9.5 21.5t21.5 9.5h53q52 0 87.5 27t35.5 81q0 53 -36 82t-87 29q-53 0 -120 -43q-25 -14 -45 6l-13 15q-20 20 2 43q81 65 176 65q64 0 110 -20t69 -52t33 -63t10 -62z" />
    <glyph glyph-name="twothirds" unicode="&#x2154;" horiz-adv-x="1296" 
d="M336 1122q55 59 61 111q9 49 -14.5 86t-89.5 37q-61 0 -137 -60q-9 -9 -22 -8t-21 10l-19 17q-8 9 -7.5 22.5t9.5 20.5q92 86 195 86q97 0 155 -56t52 -157q-7 -67 -86 -170l-181 -203h220q12 0 21 -9.5t9 -21.5v-32q0 -12 -9 -21.5t-21 -9.5h-338q-12 0 -20.5 8.5
t-8.5 20.5q0 32 18 53zM1141 338q78 -65 78 -148q0 -31 -10 -61.5t-33 -62.5t-69 -52t-110 -20q-102 0 -180 63q-9 8 -10 21t8 22l14 19q9 10 22 12t23 -6q73 -47 123 -47q51 0 87 29t36 83q0 53 -35.5 80t-87.5 27h-53q-12 0 -21.5 9.5t-9.5 21.5v22q0 12 9.5 21.5
t21.5 9.5h53q52 0 87.5 27t35.5 81q0 53 -36 82t-87 29q-53 0 -120 -43q-10 -6 -23.5 -4.5t-22.5 10.5l-12 15q-9 9 -8 21.5t10 21.5q81 65 176 65q64 0 110 -20t69 -52t33 -63t10 -62q0 -86 -78 -151zM973 1434h61q10 0 16 -9t1 -18l-686 -1380q-6 -12 -19 -19.5t-27 -7.5
h-63q-10 0 -15.5 9t-0.5 18l688 1380q14 27 45 27z" />
    <glyph glyph-name="oneeighth" unicode="&#x215b;" horiz-adv-x="1198" 
d="M1044 336q72 -54 72 -150q0 -31 -10 -61.5t-32.5 -62.5t-68 -52t-108.5 -20t-108.5 20t-68 52t-32.5 62.5t-10 61.5q0 96 72 150q-72 51 -72 147q0 32 10 63t32.5 63.5t68 52.5t108.5 20t108.5 -20t68 -52.5t32.5 -63.5t10 -63q0 -96 -72 -147zM897 76q51 0 86 28.5
t35 81.5q0 54 -34.5 80.5t-86.5 26.5t-86.5 -26.5t-34.5 -80.5q0 -53 35 -81.5t86 -28.5zM897 377q51 0 86 27.5t35 78.5q0 54 -35 83.5t-86 29.5t-86 -29.5t-35 -83.5q0 -51 35 -78.5t86 -27.5zM199 788v484q-17 -9 -50.5 -31t-37.5 -24q-10 -6 -23.5 -3t-19.5 13l-11 14
q-6 10 -3.5 24t12.5 21l190 137q18 11 31 11q6 0 11 -5.5t5 -11.5v-629q0 -12 -9.5 -21t-21.5 -9h-43q-12 0 -21 9t-9 21zM848 1434h61q10 0 16 -9t1 -18l-686 -1380q-14 -27 -45 -27h-64q-10 0 -15.5 9t-0.5 18l688 1380q13 27 45 27z" />
    <glyph glyph-name="threeeighths" unicode="&#x215c;" horiz-adv-x="1183" 
d="M252 829q51 0 87 29.5t36 83.5q0 53 -35.5 80t-87.5 27h-53q-12 0 -21.5 9t-9.5 21v23q0 12 9.5 21.5t21.5 9.5h53q52 0 87.5 27t35.5 81q0 53 -36 82t-87 29q-54 0 -121 -43q-25 -14 -45 6l-12 14q-20 21 2 43q82 66 176 66q64 0 110 -20t68.5 -52t32.5 -63t10 -62
q0 -86 -78 -151q78 -65 78 -148q0 -31 -10 -62t-32.5 -63t-68.5 -52t-110 -20q-100 0 -180 64q-9 8 -10 21t8 22l14 18q21 24 45 7q75 -48 123 -48zM911 1434h62q10 0 15.5 -9t0.5 -18l-686 -1380q-13 -27 -45 -27h-63q-10 0 -16 9t-1 18l688 1380q14 27 45 27zM1063 336
q72 -54 72 -150q0 -31 -10 -61.5t-32.5 -62.5t-68.5 -52t-109 -20t-108.5 20t-68 52t-32.5 62.5t-10 61.5q0 96 72 150q-72 51 -72 147q0 32 10 63t32.5 63.5t68 52.5t108.5 20t109 -20t68.5 -52.5t32.5 -63.5t10 -63q0 -96 -72 -147zM915 76q51 0 86 28.5t35 81.5
q0 54 -34.5 80.5t-86.5 26.5t-86 -26.5t-34 -80.5q0 -53 34.5 -81.5t85.5 -28.5zM915 377q51 0 86 27.5t35 78.5q0 54 -35 83.5t-86 29.5t-85.5 -29.5t-34.5 -83.5q0 -51 34.5 -78.5t85.5 -27.5z" />
    <glyph glyph-name="fiveeighths" unicode="&#x215d;" horiz-adv-x="1220" 
d="M481 975q0 -24 -6 -51t-23 -58t-42.5 -55t-68.5 -40.5t-97 -16.5q-101 0 -178 77q-20 21 2 43l20 19q19 19 45 0q57 -47 111 -47q63 0 99 40t36 95q0 57 -35 93t-100 36h-125q-12 0 -21.5 9.5t-9.5 21.5v264q0 12 9.5 21.5t21.5 9.5h280q12 0 21.5 -9.5t9.5 -21.5v-29
q0 -12 -9.5 -21t-21.5 -9h-206v-146h51q67 0 116.5 -22t74 -57.5t35.5 -71.5t11 -74zM1067 336q72 -54 72 -150q0 -31 -10 -61.5t-32.5 -62.5t-68 -52t-108.5 -20t-109 20t-68.5 52t-32.5 62.5t-10 61.5q0 96 72 150q-72 51 -72 147q0 32 10 63t32.5 63.5t68.5 52.5t109 20
t108.5 -20t68 -52.5t32.5 -63.5t10 -63q0 -96 -72 -147zM920 76q51 0 85.5 28.5t34.5 81.5q0 54 -34 80.5t-86 26.5t-86.5 -26.5t-34.5 -80.5q0 -53 35 -81.5t86 -28.5zM920 377q51 0 85.5 27.5t34.5 78.5q0 54 -34.5 83.5t-85.5 29.5t-86 -29.5t-35 -83.5q0 -51 35 -78.5
t86 -27.5zM915 1434h62q10 0 15.5 -9t0.5 -18l-686 -1380q-13 -27 -45 -27h-63q-10 0 -16 9t-1 18l688 1380q14 27 45 27z" />
    </font>
</defs>
</svg>
