<?xml version="1.0" standalone="no"?>
<!DOCTYPE svg PUBLIC "-//W3C//DTD SVG 1.1//EN" "http://www.w3.org/Graphics/SVG/1.1/DTD/svg11.dtd" >
<svg xmlns="http://www.w3.org/2000/svg" xmlns:xlink="http://www.w3.org/1999/xlink" version="1.1">
<metadata>
Created by FontForge 20170731 at Sat Feb  5 18:00:03 2022
 By Aleksey,,,
Copyright (c) 2012 by Ahmet Altun. All rights reserved.
</metadata>
<defs>
<font id="HalisR-ExtraLight" horiz-adv-x="1236" >
  <font-face 
    font-family="Halis R ExtraLight"
    font-weight="200"
    font-stretch="normal"
    units-per-em="2048"
    panose-1="2 0 5 5 4 0 0 2 0 4"
    ascent="1638"
    descent="-410"
    x-height="1024"
    cap-height="1434"
    bbox="-349.286 -725 2300 1985"
    underline-thickness="102"
    underline-position="-368"
    unicode-range="U+0020-FB04"
  />
<missing-glyph horiz-adv-x="1003" 
d="M430 428q0 -25 19 -43t45 -18q25 0 42 18t17 43t-17 41t-42 16q-27 0 -45.5 -16.5t-18.5 -40.5zM537 547v57q0 22 23.5 54t51 61t51 73.5t23.5 88.5q0 79 -50 123.5t-128 44.5q-65 0 -112 -25t-101 -82l59 -57q38 40 67.5 58.5t65.5 19.5q30 2 50.5 -6t30 -23t13 -28.5
t3.5 -26.5q0 -32 -14.5 -61.5t-35 -53t-41 -46.5t-35 -51.5t-14.5 -58.5v-61h93zM942 1307v-1180q0 -11 -7 -18t-17 -7h-832q-10 0 -17.5 7t-7.5 18v1180q0 10 7 17t18 7h832q10 0 17 -6.5t7 -17.5z" />
    <glyph glyph-name="f_f" unicode="ff" horiz-adv-x="1179" 
d="M1192 1386l-6 -24q-7 -20 -33 -16q-74 22 -141 22q-51 0 -95 -12t-83.5 -38.5t-62.5 -76t-23 -117.5v-100h219q10 0 17 -7t7 -18v-12q0 -11 -6.5 -17.5t-17.5 -6.5h-219v-938q0 -11 -7 -18t-18 -7h-45q-10 0 -17.5 7t-7.5 18v938h-397v-938q0 -11 -7 -18t-18 -7h-45
q-10 0 -17 7t-7 18v938h-117q-11 0 -18 7t-7 17v12q0 11 7 18t18 7h117v109q0 95 47 167.5t121 109t159 36.5q143 0 248 -92q92 92 252 92q79 0 187 -31q10 -1 14.5 -10.5t1.5 -18.5zM653 1024v109q0 90 39 163q-91 70 -200 70q-101 0 -168.5 -60t-67.5 -176v-106h397z" />
    <glyph glyph-name="fi" unicode="fi" horiz-adv-x="952" 
d="M788 999v-974q0 -11 -7 -18t-17 -7h-47q-11 0 -18 7t-7 18v938h-436v-938q0 -11 -7 -18t-18 -7h-45q-10 0 -17 7t-7 18v938h-117q-11 0 -18 7t-7 17v12q0 11 7 18t18 7h117v109q0 153 95 233t241 80q78 0 186 -31q10 -1 14.5 -10.5t1.5 -18.5l-6 -24q-7 -20 -32 -16
q-74 22 -142 22q-51 0 -95 -12t-83.5 -38.5t-62.5 -76t-23 -117.5v-100h508q10 0 17 -7t7 -18z" />
    <glyph glyph-name="fl" unicode="fl" horiz-adv-x="956" 
d="M768 0h-45q-11 0 -18 7t-7 18v1235q-94 108 -209 108q-98 0 -165.5 -61t-67.5 -177v-106h244q10 0 17 -7t7 -18v-12q0 -11 -7 -17.5t-17 -6.5h-244v-938q0 -11 -7 -18t-18 -7h-45q-10 0 -17 7t-7 18v938h-117q-11 0 -18 7t-7 17v12q0 11 7 18t18 7h117v109
q0 105 45 176.5t116 102t164 30.5q56 0 119.5 -26.5t106.5 -72.5l16 66q7 25 31 25h8q10 0 17.5 -7t7.5 -18v-1384q0 -11 -7.5 -18t-17.5 -7z" />
    <glyph glyph-name="f_f_i" unicode="ffi" horiz-adv-x="1441" 
d="M1192 1386l-6 -24q-7 -20 -33 -16q-74 22 -141 22q-51 0 -95 -12t-83.5 -38.5t-62.5 -76t-23 -117.5v-100h505q11 0 18 -7t7 -18v-974q0 -11 -7 -18t-18 -7h-47q-10 0 -17 7t-7 18v938h-434v-938q0 -11 -7 -18t-18 -7h-45q-10 0 -17.5 7t-7.5 18v938h-397v-938
q0 -11 -7 -18t-18 -7h-45q-10 0 -17 7t-7 18v938h-117q-11 0 -18 7t-7 17v12q0 11 7 18t18 7h117v109q0 95 47 167.5t121 109t159 36.5q143 0 248 -92q92 92 252 92q79 0 187 -31q10 -1 14.5 -10.5t1.5 -18.5zM653 1024v109q0 90 39 163q-91 70 -200 70q-101 0 -168.5 -60
t-67.5 -176v-106h397z" />
    <glyph glyph-name="f_f_l" unicode="ffl" horiz-adv-x="1447" 
d="M1260 0h-46q-10 0 -17 7t-7 18v1235q-94 108 -209 108q-98 0 -165.5 -61t-67.5 -177v-106h243q11 0 18 -7t7 -18v-12q0 -10 -7 -17t-18 -7h-243v-938q0 -11 -7 -18t-18 -7h-45q-10 0 -17.5 7t-7.5 18v938h-397v-938q0 -11 -7 -18t-18 -7h-45q-10 0 -17 7t-7 18v938h-117
q-11 0 -18 7t-7 17v12q0 11 7 18t18 7h117v109q0 95 47 167.5t121 109t159 36.5q141 0 244 -90q92 86 246 86q56 0 119 -26.5t106 -72.5l17 66q7 25 30 25h9q10 0 17 -7t7 -18v-1384q0 -11 -7 -18t-17 -7zM653 1024v109q0 94 37 163q-91 70 -198 70q-101 0 -168.5 -60
t-67.5 -176v-106h397z" />
    <glyph glyph-name="f_h" unicode="fh" horiz-adv-x="1703" 
d="M793 1409v-516q141 147 378 147q102 0 177.5 -31.5t119 -80t70 -119.5t35 -136.5t8.5 -144.5v-503q0 -11 -7.5 -18t-17.5 -7h-45q-10 0 -17 7t-7 18v503q0 123 -23 209.5t-68 135t-102 69.5t-133 21q-97 0 -202 -46.5t-166 -130.5v-761q0 -11 -7.5 -18t-17.5 -7h-45
q-11 0 -18 7t-7 18v1235q-94 108 -209 108q-98 0 -165.5 -61t-67.5 -177v-106h244q10 0 17 -7t7 -18v-12q0 -11 -7 -17.5t-17 -6.5h-244v-938q0 -11 -7 -18t-18 -7h-45q-10 0 -17 7t-7 18v938h-117q-11 0 -18 7t-7 17v12q0 11 7 18t18 7h117v109q0 105 45 176.5t116 102
t164 30.5q56 0 119.5 -26.5t106.5 -72.5l16 66q7 25 31 25h8q10 0 17.5 -7t7.5 -18z" />
    <glyph glyph-name="f_j" unicode="fj" horiz-adv-x="954" 
d="M788 999v-1013v-4v-36.5t-6 -59t-16.5 -75t-35 -75t-58 -69t-88 -47t-123.5 -19.5q-114 0 -207 49q-9 4 -11.5 15t3.5 18l12 24q5 9 15.5 12.5t19.5 -0.5q81 -38 151 -38q113 0 180.5 73.5t67.5 231.5v977h-436v-938q0 -11 -7 -18t-18 -7h-45q-10 0 -17 7t-7 18v938h-117
q-11 0 -18 7t-7 17v12q0 11 7 18t18 7h117v109q0 153 95 233t241 80q78 0 186 -31q10 -1 14.5 -10.5t1.5 -18.5l-6 -24q-7 -20 -32 -16q-74 22 -142 22q-51 0 -95 -12t-83.5 -38.5t-62.5 -76t-23 -117.5v-100h508q10 0 17 -7t7 -18z" />
    <glyph glyph-name="f_k" unicode="fk" horiz-adv-x="1576" 
d="M793 1409v-858l548 457q19 16 43 16h78q11 0 11 -10q0 -9 -9 -15l-565 -467l612 -516q5 -5 5 -10q0 -6 -7 -6h-86q-24 0 -43 16l-587 494v-485q0 -11 -7.5 -18t-17.5 -7h-45q-11 0 -18 7t-7 18v1235q-94 108 -209 108q-98 0 -165.5 -61t-67.5 -177v-106h244q10 0 17 -7
t7 -18v-12q0 -11 -7 -17.5t-17 -6.5h-244v-938q0 -11 -7 -18t-18 -7h-45q-10 0 -17 7t-7 18v938h-117q-11 0 -18 7t-7 17v12q0 11 7 18t18 7h117v109q0 105 45 176.5t116 102t164 30.5q56 0 119.5 -26.5t106.5 -72.5l16 66q7 25 31 25h8q10 0 17.5 -7t7.5 -18z" />
    <glyph glyph-name="f_b" unicode="fb" horiz-adv-x="1779" 
d="M1147 1038q112 0 202.5 -34.5t146.5 -89t93.5 -126t52.5 -140.5t15 -138q0 -70 -15 -139.5t-52 -140t-92 -124.5t-143 -88t-196 -34q-91 0 -197 40.5t-184 133.5l-18 -133q0 -10 -8 -17.5t-19 -7.5h-10q-11 0 -18 7t-7 18v1235q-94 108 -209 108q-98 0 -165.5 -61
t-67.5 -177v-106h244q10 0 17 -7t7 -18v-12q0 -11 -7 -17.5t-17 -6.5h-244v-938q0 -11 -7 -18t-18 -7h-45q-10 0 -17 7t-7 18v938h-117q-11 0 -18 7t-7 17v12q0 11 7 18t18 7h117v109q0 105 45 176.5t116 102t164 30.5q56 0 119.5 -26.5t106.5 -72.5l16 66q7 25 31 25h8
q10 0 17.5 -7t7.5 -18v-477q173 106 354 106zM1147 70q73 0 134.5 18.5t103 47.5t74 69t51 80.5t30 84.5t15.5 77t4 63q0 39 -7 82t-23.5 96t-48.5 100t-77 86.5t-114.5 63t-155.5 23.5q-71 0 -178 -36t-162 -83v-598q50 -68 147 -121t207 -53z" />
    <glyph glyph-name="f_f_b" unicode="ffb" horiz-adv-x="2271" 
d="M1284 1409v-477q173 106 354 106q112 0 202.5 -34.5t146.5 -89t93.5 -126t52.5 -140.5t15 -138q0 -70 -15 -139t-52 -140t-92 -125t-142.5 -88t-195.5 -34q-91 0 -197 40.5t-184 133.5l-19 -133q0 -10 -7.5 -17.5t-18.5 -7.5h-11q-10 0 -17 7t-7 18v1235
q-94 108 -209 108q-98 0 -165.5 -61t-67.5 -177v-106h243q11 0 18 -7t7 -18v-12q0 -10 -7 -17t-18 -7h-243v-938q0 -11 -7 -18t-18 -7h-45q-10 0 -17.5 7t-7.5 18v938h-397v-938q0 -11 -7 -18t-18 -7h-45q-10 0 -17 7t-7 18v938h-117q-11 0 -18 7t-7 17v12q0 11 7 18t18 7
h117v109q0 95 47 167.5t121 109t159 36.5q141 0 244 -90q92 86 246 86q56 0 119 -26.5t106 -72.5l17 66q7 25 30 25h9q10 0 17 -7t7 -18zM1638 70q73 0 134.5 18.5t103 47.5t74 69t51 80.5t30 84.5t15.5 77t4 63q0 39 -7 82t-23.5 96t-48.5 100t-77 86.5t-114.5 63
t-155.5 23.5q-71 0 -178 -36t-162 -83v-598q50 -68 147 -121t207 -53zM653 1024v109q0 94 37 163q-91 70 -198 70q-101 0 -168.5 -60t-67.5 -176v-106h397z" />
    <glyph glyph-name="f_f_h" unicode="ffh" horiz-adv-x="2195" 
d="M1260 0h-46q-10 0 -17 7t-7 18v1235q-94 108 -209 108q-98 0 -165.5 -61t-67.5 -177v-106h243q11 0 18 -7t7 -18v-12q0 -10 -7 -17t-18 -7h-243v-938q0 -11 -7 -18t-18 -7h-45q-10 0 -17.5 7t-7.5 18v938h-397v-938q0 -11 -7 -18t-18 -7h-45q-10 0 -17 7t-7 18v938h-117
q-11 0 -18 7t-7 17v12q0 11 7 18t18 7h117v109q0 95 47 167.5t121 109t159 36.5q141 0 244 -90q92 86 246 86q56 0 119 -26.5t106 -72.5l17 66q7 25 30 25h9q10 0 17 -7t7 -18v-516q141 147 379 147q102 0 177.5 -31.5t119 -80t70 -119.5t35 -136.5t8.5 -144.5v-503
q0 -11 -7.5 -18t-17.5 -7h-45q-11 0 -18 7t-7 18v503q0 123 -23 209.5t-67.5 135t-101.5 69.5t-133 21q-97 0 -202.5 -46.5t-166.5 -130.5v-761q0 -11 -7 -18t-17 -7zM653 1024v109q0 94 37 163q-91 70 -198 70q-101 0 -168.5 -60t-67.5 -176v-106h397z" />
    <glyph glyph-name="f_f_j" unicode="ffj" horiz-adv-x="1443" 
d="M1192 1386l-6 -24q-7 -20 -33 -16q-74 22 -141 22q-51 0 -95 -12t-83.5 -38.5t-62.5 -76t-23 -117.5v-100h505q11 0 18 -7t7 -18v-1028q0 -280 -183 -358q-63 -27 -145 -27q-114 0 -207 49q-9 4 -11.5 15t3.5 18l13 25q5 9 15 12.5t19 -0.5q83 -39 152 -39
q113 0 180.5 73.5t67.5 231.5v992h-434v-938q0 -11 -7 -18t-18 -7h-45q-10 0 -17.5 7t-7.5 18v938h-397v-938q0 -11 -7 -18t-18 -7h-45q-10 0 -17 7t-7 18v938h-117q-11 0 -18 7t-7 17v12q0 11 7 18t18 7h117v109q0 95 47 167.5t121 109t159 36.5q143 0 248 -92
q92 92 252 92q79 0 187 -31q10 -1 14.5 -10.5t1.5 -18.5zM653 1024v109q0 90 39 163q-91 70 -200 70q-101 0 -168.5 -60t-67.5 -176v-106h397z" />
    <glyph glyph-name="f_f_k" unicode="ffk" horiz-adv-x="2068" 
d="M1214 0q-10 0 -17 7t-7 18v1235q-94 108 -209 108q-98 0 -165.5 -61t-67.5 -177v-106h243q11 0 18 -7t7 -18v-12q0 -10 -7 -17t-18 -7h-243v-938q0 -11 -7 -18t-18 -7h-45q-10 0 -17.5 7t-7.5 18v938h-397v-938q0 -11 -7 -18t-18 -7h-45q-10 0 -17 7t-7 18v938h-117
q-11 0 -18 7t-7 17v12q0 11 7 18t18 7h117v109q0 95 47 167.5t121 109t159 36.5q141 0 244 -90q92 86 246 86q56 0 119 -26.5t106 -72.5l17 66q7 25 30 25h9q10 0 17 -7t7 -18v-858l549 457q19 16 43 16h78q10 0 10 -10t-8 -15l-565 -467l612 -516q4 -4 4 -10t-6 -6h-86
q-24 0 -43 16l-588 494v-485q0 -11 -7 -18t-17 -7h-46zM653 1024v109q0 94 37 163q-91 70 -198 70q-101 0 -168.5 -60t-67.5 -176v-106h397z" />
    <glyph glyph-name=".notdef" horiz-adv-x="1003" 
d="M430 428q0 -25 19 -43t45 -18q25 0 42 18t17 43t-17 41t-42 16q-27 0 -45.5 -16.5t-18.5 -40.5zM537 547v57q0 22 23.5 54t51 61t51 73.5t23.5 88.5q0 79 -50 123.5t-128 44.5q-65 0 -112 -25t-101 -82l59 -57q38 40 67.5 58.5t65.5 19.5q30 2 50.5 -6t30 -23t13 -28.5
t3.5 -26.5q0 -32 -14.5 -61.5t-35 -53t-41 -46.5t-35 -51.5t-14.5 -58.5v-61h93zM942 1307v-1180q0 -11 -7 -18t-17 -7h-832q-10 0 -17.5 7t-7.5 18v1180q0 10 7 17t18 7h832q10 0 17 -6.5t7 -17.5z" />
    <glyph glyph-name=".null" horiz-adv-x="0" 
 />
    <glyph glyph-name="nonmarkingreturn" horiz-adv-x="682" 
 />
    <glyph glyph-name="space" unicode=" " horiz-adv-x="614" 
 />
    <glyph glyph-name="exclam" unicode="!" horiz-adv-x="546" 
d="M319 1409v-559l-26 -406q-4 -18 -21 -18q-16 0 -20 18l-27 406v559q0 11 7.5 18t17.5 7h45q10 0 17 -7t7 -18zM205 63q0 29 20 49.5t49 20.5t48.5 -20.5t19.5 -49.5t-19.5 -48t-48.5 -19t-49 19t-20 48z" />
    <glyph glyph-name="quotedbl" unicode="&#x22;" horiz-adv-x="509" 
d="M109 958l-25 451q-2 9 5 17t17 8h41q9 0 16.5 -8t6.5 -17l-23 -451q0 -8 -5.5 -13t-12.5 -5q-16 0 -20 18zM362 958l-24 451q-2 9 5 17t17 8h43q9 0 16.5 -8t6.5 -17l-25 -451q0 -8 -5.5 -13t-12.5 -5q-17 0 -21 18z" />
    <glyph glyph-name="numbersign" unicode="#" horiz-adv-x="1167" 
d="M1020 252h-176v-227q0 -11 -7 -18t-18 -7h-20q-11 0 -18 7t-7 18v227h-377v-227q0 -11 -7 -18t-17 -7h-23q-10 0 -17 7t-7 18v227h-179q-11 0 -17.5 7t-6.5 17v23q0 11 7 18t17 7h179v376h-179q-10 0 -17 7t-7 18v23q0 10 6.5 17t17.5 7h179v227q0 11 7 18t17 7h23
q10 0 17 -7t7 -18v-227h377v227q0 11 7 18t18 7h20q11 0 18 -7t7 -18v-227h176q10 0 17 -7t7 -17v-23q0 -11 -7 -18t-17 -7h-176v-376h176q10 0 17 -7t7 -18v-23q0 -10 -7 -17t-17 -7zM774 324v376h-377v-376h377z" />
    <glyph glyph-name="dollar" unicode="$" horiz-adv-x="1226" 
d="M608 -223h-20q-11 0 -18 7t-7 17v185q-122 4 -214.5 26.5t-190.5 67.5q-15 6 -15 22q0 7 2 11l15 26q11 15 24 15q7 0 11 -2q191 -74 368 -82v645q-46 14 -71.5 22.5t-69 24t-68.5 27.5t-60.5 32t-56.5 38.5t-45 45.5t-37 55.5t-21.5 64.5t-8.5 77q0 170 115.5 257
t304.5 87h18v168q0 10 7 17t18 7h20q11 0 18 -7t7 -17v-172q30 -2 105.5 -13.5t164 -36t88.5 -49.5q0 -8 -2 -10l-14 -35q-6 -16 -25 -16q-6 0 -8 2q-160 53 -309 70v-568q178 -61 238 -90q162 -78 209 -201q22 -58 22 -128q0 -101 -58 -187t-166 -139.5t-245 -56.5v-183
q0 -10 -7 -17t-18 -7zM1001 375q-4 57 -27 103t-54 76.5t-82.5 57.5t-95 43.5t-109.5 36.5v-622q104 5 185 39.5t132 103t51 162.5zM219 1114v-2q0 -52 19 -94.5t47.5 -72t77 -56t92.5 -43.5t108 -37v551h-12q-65 0 -120 -12t-103.5 -38.5t-77.5 -76.5t-31 -119z" />
    <glyph glyph-name="percent" unicode="%" horiz-adv-x="1458" 
d="M1100 610q81 0 141.5 -30t93 -78.5t47.5 -99t15 -101.5q0 -42 -9 -83t-30.5 -82.5t-54.5 -72.5t-85.5 -51t-117.5 -20q-66 0 -118.5 20t-85 51t-54.5 73t-30.5 82.5t-8.5 82.5q0 51 15 101.5t47 99t93 78.5t142 30zM356 1446q81 0 142 -30t93 -78.5t47 -99t15 -101.5
q0 -53 -15 -104t-47 -99t-92.5 -77.5t-142.5 -29.5q-81 0 -141 29.5t-92 77.5t-47 99t-15 104q0 40 8.5 80.5t30 82.5t54 73.5t85 52t117.5 20.5zM510 0h-35q-7 0 -12.5 5t-5.5 11q0 1 1 3.5t1 3.5l450 1390q3 9 13 16t20 7h31q7 0 11.5 -5.5t4.5 -11.5v-6l-446 -1390
q-11 -23 -33 -23zM1100 53q53 0 94 20t63 48t36 64.5t18 64t4 51.5q0 25 -4 52t-18 63.5t-36 64t-63 47t-94 19.5t-94.5 -19.5t-64 -47t-37 -63.5t-19 -64t-4.5 -52t4.5 -51.5t19 -64t37 -64.5t64 -48t94.5 -20zM356 889q53 0 94.5 20t63.5 48t36.5 64.5t18.5 64t4 51.5
q0 25 -4 52t-18.5 63t-36.5 63.5t-63.5 47t-94.5 19.5t-94.5 -19.5t-63.5 -47t-36.5 -63.5t-18.5 -63t-4 -52q0 -24 4 -51.5t18.5 -64t36.5 -64.5t63.5 -48t94.5 -20z" />
    <glyph glyph-name="ampersand" unicode="&#x26;" horiz-adv-x="1415" 
d="M350 1141q2 -47 20.5 -93.5t53.5 -91t64 -75.5t73 -72q63 40 105 72t82.5 75t60.5 93.5t20 109.5q0 96 -62 166t-177 70q-61 0 -107.5 -21.5t-71 -51t-39 -68t-18.5 -64.5t-4 -49zM256 373q0 -74 30.5 -137.5t80.5 -105t112.5 -64.5t128.5 -23q223 0 398 190l-463 478
q-57 -38 -91 -61.5t-76.5 -59t-65 -66t-38.5 -70t-16 -81.5zM909 1161q0 -65 -23.5 -123.5t-69 -110t-91.5 -90t-111 -83.5l435 -459q74 126 122 309q7 21 27 21h4l23 -7q20 -3 20 -24v-4q-37 -184 -141 -354l172 -177q6 -6 6 -16q0 -13 -8 -18l-25 -23q-6 -6 -16 -6
q-14 0 -19 8l-157 166q-177 -205 -447 -205q-98 0 -183 34t-142 90t-89 128t-32 148q0 55 19 106t47 90t73.5 79.5t85 68t94.5 61.5l-110 117q-58 69 -83.5 129t-25.5 137q0 56 20 110t59 99.5t103.5 73.5t145.5 28q78 0 140 -26.5t99.5 -70t57.5 -96.5t20 -110z" />
    <glyph glyph-name="quotesingle" unicode="'" horiz-adv-x="253" 
d="M109 958l-25 451q-2 9 5 17t17 8h41q9 0 16.5 -8t6.5 -17l-23 -451q0 -8 -5.5 -13t-12.5 -5q-16 0 -20 18z" />
    <glyph glyph-name="parenleft" unicode="(" horiz-adv-x="491" 
d="M61 606q0 523 304 1000q13 20 34 6l11 -6q9 -4 11 -15t-3 -20q-258 -499 -258 -963q0 -482 256 -979q6 -8 3 -17.5t-11 -14.5l-9 -7q-21 -10 -34 9q-304 473 -304 1007z" />
    <glyph glyph-name="parenright" unicode=")" horiz-adv-x="491" 
d="M430 606q0 -536 -303 -1007q-6 -9 -17 -11.5t-18 2.5l-8 7q-9 4 -12 14.5t2 17.5q258 494 258 979q0 464 -258 963q-6 9 -3.5 19.5t11.5 15.5l10 6q7 6 18 4.5t15 -10.5q305 -474 305 -1000z" />
    <glyph glyph-name="asterisk" unicode="*" horiz-adv-x="903" 
d="M487 1126l263 129q15 8 22 -6t-6 -24l-242 -162l242 -158q14 -10 4 -26q-7 -14 -25 -7l-258 129l-18 -290q0 -6 -5.5 -11.5t-12.5 -5.5q-6 0 -11.5 5.5t-7.5 11.5l-18 288l-256 -127q-17 -7 -27 7q-7 17 6 26l240 158l-240 162q-13 10 -6 24t23 6l260 -129l18 291
q4 17 19 17q6 0 11 -5.5t5 -11.5z" />
    <glyph glyph-name="plus" unicode="+" horiz-adv-x="1132" 
d="M604 707h340q10 0 17.5 -7.5t7.5 -17.5v-25q0 -10 -7 -17t-18 -7h-340v-340q0 -11 -7 -18t-17 -7h-25q-11 0 -18 7t-7 18v340h-342q-10 0 -17 6.5t-7 17.5v25q0 11 7 18t17 7h342v342q0 10 7 17t18 7h25q10 0 17 -6.5t7 -17.5v-342zM604 707h340q10 0 17.5 -7.5
t7.5 -17.5v-25q0 -10 -7 -17t-18 -7h-340v-340q0 -11 -7 -18t-17 -7h-25q-11 0 -18 7t-7 18v340h-342q-10 0 -17 6.5t-7 17.5v25q0 11 7 18t17 7h342v342q0 10 7 17t18 7h25q10 0 17 -6.5t7 -17.5v-342zM604 707h340q10 0 17.5 -7.5t7.5 -17.5v-25q0 -10 -7 -17t-18 -7h-340
v-340q0 -11 -7 -18t-17 -7h-25q-11 0 -18 7t-7 18v340h-342q-10 0 -17 6.5t-7 17.5v25q0 11 7 18t17 7h342v342q0 10 7 17t18 7h25q10 0 17 -6.5t7 -17.5v-342z" />
    <glyph glyph-name="comma" unicode="," horiz-adv-x="495" 
d="M188 -330q-15 7 -8 21q74 174 74 293q-40 -4 -65 18.5t-25 58.5q0 37 24 59.5t58 22.5t60 -24t26 -68q0 -166 -121 -375q-9 -13 -23 -6z" />
    <glyph glyph-name="hyphen" unicode="-" horiz-adv-x="884" 
d="M188 639h508q10 0 17.5 -7.5t7.5 -17.5v-41q0 -10 -7 -17t-18 -7h-508q-10 0 -17 6.5t-7 17.5v41q0 11 7 18t17 7z" />
    <glyph glyph-name="period" unicode="." horiz-adv-x="493" 
d="M164 59q0 35 24.5 59.5t59.5 24.5t58.5 -24.5t23.5 -59.5t-23.5 -58.5t-58.5 -23.5t-59.5 23.5t-24.5 58.5z" />
    <glyph glyph-name="slash" unicode="/" horiz-adv-x="669" 
d="M121 0h-35q-9 0 -14 7.5t-2 15.5l450 1390q3 9 13 16t20 7h31q9 0 14 -7.5t2 -15.5l-446 -1390q-12 -23 -33 -23z" />
    <glyph glyph-name="zero" unicode="0" horiz-adv-x="1310" 
d="M653 1401q118 0 212.5 -46t153.5 -118.5t98.5 -168t55 -189t15.5 -187.5q0 -68 -8 -135t-26.5 -137t-46.5 -132.5t-71.5 -118t-97 -95t-127 -63t-158.5 -23.5t-157.5 23.5t-126 63t-96 95t-70.5 118t-46 133t-26 137t-8 134.5q0 66 7.5 132.5t26 137t46.5 133.5
t70.5 119.5t96 97.5t126 65t157.5 24zM653 63q81 0 148 26.5t111.5 68.5t79 100.5t53 116t30.5 121t15.5 109t3.5 87.5q0 41 -3.5 87t-15.5 110t-30.5 121.5t-53 116.5t-79 101.5t-111.5 69.5t-148 27q-80 0 -146.5 -27t-110.5 -69.5t-78 -101.5t-53 -116.5t-31 -121.5
t-15.5 -110t-3.5 -87q0 -42 3.5 -87.5t15.5 -109t31 -121t53 -116t78 -100.5t110.5 -68.5t146.5 -26.5z" />
    <glyph glyph-name="one" unicode="1" horiz-adv-x="700" 
d="M100 1067l-4 4q-14 21 4 35l365 276q13 13 33 13q7 0 12.5 -5.5t5.5 -13.5v-1351q0 -11 -7 -18t-17 -7h-46q-10 0 -17 7t-7 18v1206l-287 -170q-22 -11 -35 6z" />
    <glyph glyph-name="two" unicode="2" horiz-adv-x="1001" 
d="M113 1206l-13 17q-7 8 -6.5 18t8.5 16q174 140 369 140q180 0 294 -99t114 -284q0 -51 -17.5 -107.5t-40.5 -100.5t-65.5 -103t-70 -93t-76.5 -92q-11 -13 -17 -20l-367 -420h604q11 0 18 -7t7 -18v-28q0 -11 -7 -18t-18 -7h-710q-11 0 -18 7t-7 18v4q0 23 17 43l376 432
l142 170q67 77 106 153t48.5 117t9.5 76q0 37 -7 73.5t-29 79t-56 74.5t-93.5 53t-136.5 21q-169 0 -324 -119q-8 -6 -18 -5t-16 9z" />
    <glyph glyph-name="three" unicode="3" horiz-adv-x="1011" 
d="M889 1026q0 -102 -64 -195t-176 -133q117 -35 178.5 -128t61.5 -203q0 -46 -11 -92.5t-41 -99.5t-77 -93.5t-126.5 -67t-180.5 -26.5q-190 0 -347 118q-18 14 -4 35l13 19q15 19 35 6q140 -96 303 -96q71 0 132 17.5t108.5 52t75.5 91.5t30 131q4 136 -98.5 222
t-247.5 86h-97q-10 0 -17 7t-7 17v21q0 11 7 17.5t17 6.5h97q144 -5 244 76t100 213q0 149 -96.5 222t-247.5 73q-159 0 -308 -102q-21 -14 -34 6l-15 18q-14 21 6 35q166 121 351 121q101 0 180.5 -26t126.5 -65t77 -91.5t41 -99t11 -93.5z" />
    <glyph glyph-name="four" unicode="4" horiz-adv-x="1060" 
d="M809 283v-258q0 -11 -7.5 -18t-17.5 -7h-45q-10 0 -17 7t-7 18v258h-635q-8 0 -13.5 5.5t-5.5 12.5q0 19 11 37l653 1028q13 20 37 20h22q11 0 18 -7t7 -17v-1004h166q11 0 17.5 -7t6.5 -17v-27q0 -11 -6.5 -17.5t-17.5 -6.5h-166zM715 1206l-539 -848h539v848z" />
    <glyph glyph-name="five" unicode="5" horiz-adv-x="1083" 
d="M139 154l21 22q6 7 17 7.5t18 -5.5q127 -108 290 -108q182 0 283.5 101t101.5 257q0 164 -104 252t-299 88h-242q-10 0 -17 7t-7 18v569q0 10 6.5 17t17.5 7h590q11 0 18 -7t7 -17v-29q0 -10 -7 -17t-18 -7h-518v-465h170q111 0 199 -26.5t142 -68.5t89.5 -98.5
t49.5 -111.5t14 -113q0 -46 -12.5 -99.5t-47 -115.5t-86 -110.5t-138 -81.5t-194.5 -33q-109 0 -188.5 33.5t-153.5 99.5q-7 6 -7.5 17t5.5 18z" />
    <glyph glyph-name="six" unicode="6" horiz-adv-x="1173" 
d="M686 1386l19 -24q13 -19 -7 -35q-175 -111 -287.5 -251t-164.5 -326q41 42 94.5 72t104 42.5t85 17.5t60.5 5q110 0 195 -31.5t135 -79.5t81 -113t41.5 -124.5t8.5 -120.5q0 -30 -5.5 -65t-20.5 -77.5t-37.5 -82t-59 -77.5t-83 -66t-112.5 -45t-143 -17q-105 0 -189 32
t-134.5 82t-84 115.5t-46.5 127t-13 122.5q-2 137 28.5 264.5t81.5 226.5t121.5 185t143 146.5t151.5 105.5q9 6 20 3t17 -12zM590 68q80 0 144.5 23.5t105 60t67.5 85t38 95.5t11 94q0 79 -21.5 146t-65 120t-115 83t-164.5 30q-92 0 -165 -28.5t-118.5 -77.5t-69.5 -112.5
t-24 -135.5q0 -65 22.5 -129.5t65.5 -122.5t118.5 -94.5t170.5 -36.5z" />
    <glyph glyph-name="seven" unicode="7" horiz-adv-x="942" 
d="M61 1333v27q0 10 7 17t18 7h748q10 0 17 -7t7 -17v-4q0 -24 -10 -47l-539 -1286q-10 -23 -35 -23h-55q-9 0 -13.5 8t-0.5 15l534 1286h-653q-11 0 -18 7t-7 17z" />
    <glyph glyph-name="eight" unicode="8" horiz-adv-x="1112" 
d="M123 1020q0 46 10.5 92.5t40.5 99.5t76 93.5t125.5 67t181.5 26.5q101 0 180 -26.5t125.5 -67t76 -93.5t40 -99.5t10.5 -92.5q0 -40 -10.5 -83.5t-33.5 -90.5t-67 -88.5t-102 -67.5q113 -46 163 -133t50 -186q0 -46 -10.5 -93t-40 -101t-75.5 -95t-125.5 -68.5
t-180.5 -27.5q-102 0 -181.5 26.5t-125.5 67t-76 93.5t-40.5 99.5t-10.5 92.5q0 38 11.5 82t35.5 92t69.5 89t104.5 62q-116 57 -168.5 146.5t-52.5 183.5zM557 729q94 0 169 28.5t124 96t49 166.5q0 77 -28 137.5t-76.5 96.5t-108.5 54.5t-129 18.5q-92 0 -167 -31
t-125 -102.5t-50 -173.5q0 -74 28.5 -131.5t77 -91.5t108.5 -51t128 -17zM557 653q-69 0 -128 -15.5t-108.5 -48t-77.5 -90t-28 -134.5q0 -149 99.5 -228.5t242.5 -79.5t242.5 82t99.5 232q0 77 -28 133.5t-77 88t-108 46t-129 14.5z" />
    <glyph glyph-name="nine" unicode="9" horiz-adv-x="1177" 
d="M489 0l-18 25q-6 9 -4 18t10 14q175 113 288 253.5t165 326.5q-39 -44 -93 -74t-106 -42t-85.5 -16.5t-59.5 -4.5q-110 0 -195 31.5t-135 79.5t-81 113t-41.5 124.5t-8.5 120.5q0 30 5.5 65t20.5 77.5t37.5 82t59 77.5t83 66t112.5 45t143 17q105 0 189 -32t134.5 -82
t84 -115.5t46.5 -127t13 -122.5q2 -138 -28.5 -265.5t-82 -226.5t-122 -185t-143.5 -146t-153 -105q-9 -6 -19 -3.5t-16 11.5zM586 1319q-80 0 -145 -23.5t-105.5 -60t-67.5 -85t-38 -95.5t-11 -94q0 -79 21.5 -146t64.5 -120t115 -83t166 -30q92 0 165 28.5t118.5 77.5
t69.5 112.5t24 135.5q0 65 -22.5 129.5t-65.5 122.5t-118.5 94.5t-170.5 36.5z" />
    <glyph glyph-name="colon" unicode=":" horiz-adv-x="493" 
d="M164 59q0 35 24.5 59.5t59.5 24.5t58.5 -24.5t23.5 -59.5t-23.5 -58.5t-58.5 -23.5t-59.5 23.5t-24.5 58.5zM164 942q0 35 24.5 59.5t59.5 24.5t58.5 -24.5t23.5 -59.5t-23.5 -58.5t-58.5 -23.5t-59.5 23.5t-24.5 58.5z" />
    <glyph glyph-name="semicolon" unicode=";" horiz-adv-x="493" 
d="M164 942q0 35 24.5 59.5t59.5 24.5t58.5 -24.5t23.5 -59.5t-23.5 -58.5t-58.5 -23.5t-59.5 23.5t-24.5 58.5zM188 -330q-15 7 -8 21q74 174 74 293q-40 -4 -65 18.5t-25 58.5q0 37 24 59.5t58 22.5t60 -24t26 -68q0 -166 -121 -375q-9 -13 -23 -6z" />
    <glyph glyph-name="less" unicode="&#x3c;" horiz-adv-x="827" 
d="M219 610l524 -342q8 -6 10.5 -16.5t-3.5 -18.5l-7 -10q-4 -9 -14.5 -11t-17.5 3l-643 385q-7 4 -7 10q0 8 7 8l645 388q7 5 18 2.5t17 -11.5l4 -6q13 -19 -7 -35z" />
    <glyph glyph-name="equal" unicode="=" horiz-adv-x="1028" 
d="M840 938h-652q-10 0 -17 7t-7 18v26q0 11 7 18t17 7h652q10 0 17 -7t7 -18v-26q0 -11 -7 -18t-17 -7zM840 416h-652q-10 0 -17 7t-7 17v27q0 11 7 18t17 7h652q10 0 17 -7t7 -18v-27q0 -10 -7 -17t-17 -7z" />
    <glyph glyph-name="greater" unicode="&#x3e;" horiz-adv-x="827" 
d="M84 268l524 342l-526 346q-20 14 -6 35l4 6q13 20 35 9l645 -388q6 0 6 -8q0 -7 -6 -10l-643 -385q-7 -5 -18 -3t-17 11l-6 10q-5 7 -3 18t11 17z" />
    <glyph glyph-name="question" unicode="?" horiz-adv-x="1085" 
d="M438 59q0 35 24.5 59.5t59.5 24.5t58.5 -24.5t23.5 -59.5t-23.5 -58.5t-58.5 -23.5t-59.5 23.5t-24.5 58.5zM557 502v-72q0 -10 -7 -17t-18 -7h-24q-11 0 -18 7t-7 17v72q0 52 25.5 104t64 93.5t84 91t84.5 94.5t66 105.5t29 123.5q2 114 -63 180t-206 72
q-105 0 -173.5 -31.5t-160.5 -113.5q-18 -14 -36 0l-15 16q-7 6 -7.5 16.5t5.5 16.5q91 91 180.5 131.5t210.5 40.5q155 0 253 -86.5t98 -241.5q0 -72 -36 -145.5t-88 -134t-105 -116.5t-92.5 -112.5t-43.5 -103.5z" />
    <glyph glyph-name="at" unicode="@" horiz-adv-x="2422" 
d="M1229 1520q243 0 445.5 -77.5t339 -214t211.5 -324t75 -404.5q0 -66 -6.5 -132t-22.5 -136.5t-40 -132.5t-62 -118t-85.5 -96.5t-113.5 -64t-143 -23.5q-42 0 -81 12t-75 37t-63 68.5t-39 101.5q-176 -168 -375 -168q-98 0 -180 30.5t-139 82t-97.5 120t-59 144.5
t-18.5 156q0 101 30 191t87.5 162.5t152.5 115.5t214 43q90 0 193.5 -38.5t189.5 -121.5l16 121q0 9 8 16t17 7t15.5 -7t6.5 -16v-770q0 -89 50 -148t163 -59q164 0 265.5 166.5t101.5 452.5q0 157 -42 299t-125.5 259.5t-200.5 204t-274.5 134t-340.5 47.5
q-306 0 -535.5 -135t-353 -381.5t-123.5 -571.5q0 -115 24.5 -227.5t81 -228t140 -215.5t210 -189.5t283.5 -150.5q15 -7 15 -21q0 -8 -2 -10l-11 -19q-6 -16 -24 -16q-6 0 -8 2q-256 102 -436.5 267t-271 369t-93.5 435q0 251 77 466t217.5 371.5t349.5 245.5t462 89z
M1548 113v514q-31 58 -147 125t-215 67q-78 0 -144 -24.5t-112 -66.5t-78.5 -98t-48 -118t-15.5 -127q0 -125 45.5 -226t139.5 -163t223 -62q111 0 211.5 55.5t140.5 123.5z" />
    <glyph glyph-name="A" unicode="A" horiz-adv-x="1347" 
d="M1165 23l-164 399h-657l-164 -399q-7 -23 -33 -23h-61q-9 0 -13.5 8t-0.5 15l579 1402q7 15 23 15q14 0 22 -15l580 -1402q4 -7 -0.5 -15t-13.5 -8h-62q-25 0 -35 23zM674 1231l-293 -723h586z" />
    <glyph glyph-name="B" unicode="B" horiz-adv-x="1329" 
d="M977 713q63 -25 110 -67t71.5 -89t36 -90t11.5 -82q0 -52 -14 -102.5t-49.5 -102.5t-88.5 -91.5t-138 -64t-191 -24.5h-496q-10 0 -17 7t-7 18v1384q0 11 7 18t17 7h496q106 0 191 -25t138 -64.5t88.5 -91.5t49.5 -103t14 -103q0 -40 -11.5 -84.5t-36 -92.5t-71.5 -90
t-110 -67zM299 756h473q78 2 140 22t99 50t61.5 69.5t34 76.5t9.5 75q0 59 -21 111.5t-63.5 97t-118 70.5t-174.5 26h-440v-598zM299 78h432q87 0 156 19t111 49.5t69.5 72t38 81.5t10.5 83q0 34 -9.5 70t-34 76.5t-61.5 72t-99 53t-140 23.5h-473v-600z" />
    <glyph glyph-name="C" unicode="C" horiz-adv-x="1439" 
d="M1300 1249l-22 -24q-6 -8 -16.5 -8.5t-18.5 6.5q-189 146 -414 143q-110 -2 -201 -30t-152.5 -72t-109.5 -104t-75 -119t-44 -123t-22.5 -111t-5.5 -88q0 -42 5.5 -89t22.5 -112t44 -124t75 -118.5t109.5 -103t152.5 -71t201 -27.5q226 0 412 137q20 13 37 -4l20 -29
q7 -8 6 -18.5t-10 -16.5q-202 -155 -465 -155q-157 0 -282.5 47t-203 121.5t-129 173.5t-71.5 195t-20 194q0 66 10 133t34.5 139.5t61 137.5t93.5 124t127.5 102t168 68t211.5 25q147 0 258 -41.5t211 -122.5q17 -17 2 -35z" />
    <glyph glyph-name="D" unicode="D" horiz-adv-x="1511" 
d="M680 0h-451q-10 0 -17 7t-7 18v1384q0 11 7 18t17 7h451q114 0 211.5 -24t168.5 -65t128.5 -98.5t94 -120.5t61 -134.5t35 -138.5t10.5 -134q0 -98 -20.5 -193t-72 -192t-129.5 -169.5t-204 -118.5t-283 -46zM299 78h381q110 0 201.5 27t154 70.5t111.5 102.5t77 118
t46 123t24 111.5t6 88.5t-6 88.5t-24 111t-46 122t-77 117t-111.5 101.5t-154 70t-201.5 27h-381v-1278z" />
    <glyph glyph-name="E" unicode="E" 
d="M205 25v1384q0 11 7 18t17 7h861q10 0 17 -7t7 -18v-29q0 -10 -7 -17t-17 -7h-791v-600h621q10 0 17 -7t7 -18v-29q0 -10 -7 -17t-17 -7h-621v-600h791q10 0 17 -7t7 -18v-28q0 -11 -7 -18t-17 -7h-861q-10 0 -17 7t-7 18z" />
    <glyph glyph-name="F" unicode="F" 
d="M920 678h-621v-653q0 -11 -7.5 -18t-17.5 -7h-45q-10 0 -17 7t-7 18v1384q0 11 7 18t17 7h861q10 0 17 -7t7 -18v-31q0 -22 -24 -22h-791v-598h621q10 0 17 -7t7 -18v-31q0 -10 -7 -17t-17 -7z" />
    <glyph glyph-name="G" unicode="G" horiz-adv-x="1439" 
d="M825 575v29q0 10 7.5 17.5t17.5 7.5h438q10 0 17.5 -7.5t7.5 -17.5v-430q0 -27 -21 -39q-199 -153 -463 -153q-157 0 -282.5 47t-203 121.5t-129 173.5t-71.5 195t-20 194q0 66 10 133t34.5 139.5t61 137.5t93.5 124t127.5 102t168 68t211.5 25q147 0 258 -41.5
t211 -122.5q17 -17 2 -35l-22 -24q-6 -8 -16.5 -8.5t-18.5 6.5q-189 146 -414 143q-110 -2 -201 -30t-152.5 -72t-109.5 -104t-75 -119t-44 -123t-22.5 -111t-5.5 -88q0 -42 5.5 -89t22.5 -112t44 -124t75 -118.5t109.5 -103t152.5 -71t201 -27.5q208 0 388 118v365h-367
q-11 0 -18 7t-7 17z" />
    <glyph glyph-name="H" unicode="H" horiz-adv-x="1544" 
d="M299 678v-653q0 -11 -7.5 -18t-17.5 -7h-45q-10 0 -17 7t-7 18v1384q0 11 7 18t17 7h45q10 0 17.5 -7t7.5 -18v-653h944v653q0 11 7.5 18t17.5 7h47q10 0 17 -7t7 -18v-1384q0 -11 -7 -18t-17 -7h-47q-10 0 -17.5 7t-7.5 18v653h-944z" />
    <glyph glyph-name="I" unicode="I" horiz-adv-x="503" 
d="M299 1409v-1384q0 -11 -7.5 -18t-17.5 -7h-45q-10 0 -17 7t-7 18v1384q0 11 7 18t17 7h45q10 0 17.5 -7t7.5 -18z" />
    <glyph glyph-name="J" unicode="J" horiz-adv-x="1202" 
d="M63 317l39 17q9 4 18.5 0.5t14.5 -12.5q47 -109 140 -177.5t231 -68.5q72 0 131 18t99 47t70.5 70t47.5 81.5t27.5 87t14 82t3.5 70.5v877q0 11 7.5 18t17.5 7h49q10 0 17 -7t7 -18v-877q0 -74 -12 -144t-46 -145t-87 -129.5t-142 -90t-204 -35.5q-330 0 -457 297
q-7 21 14 32z" />
    <glyph glyph-name="K" unicode="K" horiz-adv-x="1329" 
d="M274 0h-45q-10 0 -17 7t-7 18v1384q0 11 7 18t17 7h45q10 0 17.5 -7t7.5 -18v-649l752 657q20 17 43 17h67q5 0 9 -4t4 -9t-9 -18l-770 -664l836 -714q6 -6 6 -17q0 -8 -10 -8h-82q-24 0 -43 16l-803 701v-692q0 -11 -7.5 -18t-17.5 -7z" />
    <glyph glyph-name="L" unicode="L" horiz-adv-x="1040" 
d="M299 1409v-1331h594q11 0 18 -7t7 -18v-28q0 -11 -7 -18t-18 -7h-664q-10 0 -17 7t-7 18v1384q0 11 7 18t17 7h45q10 0 17.5 -7t7.5 -18z" />
    <glyph glyph-name="M" unicode="M" horiz-adv-x="2064" 
d="M1978 0h-55q-21 0 -33 23l-360 1179l-469 -1196q-11 -18 -29 -18q-21 0 -28 18l-469 1196l-363 -1179q-8 -23 -31 -23h-55q-9 0 -14 7.5t-2 15.5l434 1400q3 17 20 17q16 0 23 -15l485 -1251l486 1251q8 15 22 15q18 0 21 -17l434 -1400q3 -8 -2.5 -15.5t-14.5 -7.5z" />
    <glyph glyph-name="N" unicode="N" horiz-adv-x="1544" 
d="M205 25v1405q0 6 5 11t11 5q18 0 27 -12l997 -1227v1202q0 11 7.5 18t17.5 7h45q10 0 17 -7t7 -18v-1401q0 -8 -5.5 -13t-12.5 -5q-17 0 -31 14l-991 1219v-1198q0 -11 -7.5 -18t-17.5 -7h-45q-10 0 -17 7t-7 18z" />
    <glyph glyph-name="O" unicode="O" horiz-adv-x="1660" 
d="M829 -14q-114 0 -211 25t-168 67t-128 101t-93.5 124t-61 138t-34.5 141t-10 135q0 68 10 136.5t34.5 142t61 138.5t93.5 123.5t128 100.5t168 67t211 25t212 -25t169 -67t128 -100.5t94 -123.5t61.5 -138.5t34.5 -142t10 -136.5q0 -79 -15 -159t-46.5 -164t-87.5 -156
t-131.5 -129t-186 -90t-242.5 -33zM829 1370q-110 0 -202 -26.5t-153.5 -69.5t-109.5 -102t-75 -118t-44 -124.5t-22.5 -114.5t-5.5 -94q0 -43 4.5 -89t20.5 -112.5t41.5 -125.5t73 -120.5t109 -105.5t155.5 -72t208 -28q110 0 201.5 26.5t153.5 68.5t110 100.5t75.5 117.5
t45 124.5t23.5 115.5t6 96t-6 96.5t-23.5 116t-45 125t-75.5 118t-110 101.5t-153.5 69.5t-201.5 26.5z" />
    <glyph glyph-name="P" unicode="P" horiz-adv-x="1333" 
d="M299 569v-544q0 -11 -7.5 -18t-17.5 -7h-45q-10 0 -17 7t-7 18v1384q0 11 7 18t17 7h498q107 0 192.5 -28.5t138.5 -73t88.5 -103t49.5 -114.5t14 -111q0 -101 -39.5 -185t-104.5 -137.5t-145 -83t-163 -29.5h-459zM299 647h451q82 2 148 27.5t106 64t66.5 87t37 93
t10.5 85.5q0 44 -11 89.5t-38.5 93.5t-68 85t-105.5 60.5t-145 23.5h-451v-709z" />
    <glyph glyph-name="Q" unicode="Q" horiz-adv-x="1660" 
d="M805 -14q-151 3 -272 52.5t-196 124t-125 172.5t-69.5 192.5t-19.5 189.5q0 68 10 136.5t34.5 142t61 138.5t93.5 123.5t128 100.5t168 67t211 25t212 -25t169 -67t128 -100.5t94 -123.5t61.5 -138.5t34.5 -142t10 -136.5q0 -90 -19.5 -180.5t-60 -182t-114.5 -170.5
t-173 -127l322 -381q2 -2 2 -8q0 -10 -10 -10h-72q-26 0 -41 18l-295 344q-109 -34 -272 -34zM829 1362q-110 0 -201.5 -27.5t-153 -71t-109 -103t-74 -118.5t-43 -124t-22 -112t-5.5 -89q0 -41 5.5 -88t22 -111t43 -122.5t74 -118t109 -102.5t153 -70t201.5 -27t201 27
t152.5 70t108.5 102.5t74 118t43.5 122.5t22 111t5.5 88q0 42 -5.5 89t-22 112t-43.5 124t-74 118.5t-108.5 103t-152.5 71t-201 27.5z" />
    <glyph glyph-name="R" unicode="R" horiz-adv-x="1329" 
d="M299 569v-544q0 -11 -7.5 -18t-17.5 -7h-45q-10 0 -17 7t-7 18v1384q0 11 7 18t17 7h498q107 0 192.5 -28.5t138.5 -73t88.5 -103t49.5 -114.5t14 -111q0 -91 -33.5 -169.5t-89.5 -132t-125.5 -87t-144.5 -42.5l268 -550q3 -7 -1.5 -15t-12.5 -8h-49q-25 0 -35 23
l-266 546h-422zM299 647h440q83 2 150 26t109 61t70.5 85t40 94t11.5 91q0 54 -19.5 111t-60 113t-116 92t-174.5 36h-451v-709z" />
    <glyph glyph-name="S" unicode="S" horiz-adv-x="1226" 
d="M219 1114v-2q0 -53 21.5 -96.5t46.5 -70.5t83.5 -56t91.5 -41.5t112 -39.5q33 -11 49 -17q181 -61 247 -92q167 -82 212 -210q22 -60 20 -133q-5 -156 -141.5 -264t-348.5 -108q-142 0 -242 22t-212 74q-9 5 -13 14.5t0 18.5l15 26q15 23 35 13q206 -82 401 -82
q106 0 194 30t147 95t64 155q0 65 -22.5 116t-55 84t-89.5 62.5t-103.5 46.5t-120.5 41q-27 8 -41 13q-180 58 -252 96q-161 86 -187 230q-5 31 -5 63q0 170 115.5 257t304.5 87q205 0 432 -82q9 -3 12.5 -12.5t-0.5 -18.5l-14 -35q-11 -21 -33 -14q-228 76 -391 76
q-65 0 -120 -12t-103.5 -38.5t-77.5 -76.5t-31 -119z" />
    <glyph glyph-name="T" unicode="T" horiz-adv-x="1196" 
d="M547 25v1329h-430q-11 0 -18 7t-7 17v31q0 11 7 18t18 7h962q11 0 18 -7t7 -18v-31q0 -10 -7 -17t-18 -7h-436v-1329q0 -11 -7.5 -18t-17.5 -7h-47q-10 0 -17 7t-7 18z" />
    <glyph glyph-name="U" unicode="U" horiz-adv-x="1456" 
d="M725 70q86 0 157.5 25t118.5 66t81.5 90t53 102.5t27 97t8.5 79.5v879q0 11 7.5 18t17.5 7h51q11 0 18 -7t7 -18v-879q0 -74 -17.5 -147.5t-59.5 -146t-103 -127.5t-156 -89t-211 -34q-115 0 -209 34t-154.5 89t-101.5 127.5t-58.5 146t-17.5 147.5v879q0 11 7 18t18 7
h43q10 0 17 -7t7 -18v-879q0 -43 11.5 -97t44 -119.5t80.5 -118.5t129.5 -89t183.5 -36z" />
    <glyph glyph-name="V" unicode="V" horiz-adv-x="1347" 
d="M180 1411l494 -1225l491 1225q10 23 35 23h62q9 0 13.5 -8t0.5 -15l-580 -1409q-6 -16 -24 -16q-17 0 -23 16l-577 1409q-4 7 0.5 15t13.5 8h61q26 0 33 -23z" />
    <glyph glyph-name="W" unicode="W" horiz-adv-x="2369" 
d="M180 1411l494 -1227l487 1248q7 14 21 14q13 0 20 -14l494 -1248l491 1227q10 23 35 23h62q9 0 13.5 -8t0.5 -15l-578 -1409q-6 -16 -24 -16q-19 0 -25 16l-487 1229l-486 -1229q-6 -16 -24 -16q-19 0 -25 16l-577 1409q-4 7 0.5 15t13.5 8h61q26 0 33 -23z" />
    <glyph glyph-name="X" unicode="X" horiz-adv-x="1132" 
d="M565 635l-383 -615q-13 -20 -37 -20h-59q-7 0 -11 7t-1 13l440 697l-440 698q-3 6 1 13.5t11 7.5h57q23 0 37 -21l385 -616l387 616q14 21 37 21h58q7 0 11 -7.5t1 -13.5l-441 -698l441 -697q3 -6 -1 -13t-11 -7h-60q-24 0 -37 20z" />
    <glyph glyph-name="Y" unicode="Y" horiz-adv-x="1187" 
d="M543 25v632l-469 756q-3 6 1 13.5t11 7.5h57q23 0 37 -21l414 -676l414 676q14 21 36 21h58q7 0 11 -7.5t1 -13.5l-469 -758v-630q0 -11 -7 -18t-17 -7h-54q-10 0 -17 7t-7 18z" />
    <glyph glyph-name="Z" unicode="Z" horiz-adv-x="1257" 
d="M270 78h840q10 0 17.5 -7t7.5 -18v-28q0 -11 -7.5 -18t-17.5 -7h-944q-10 0 -17.5 7t-7.5 18v2q0 22 13 45l819 1282h-797q-10 0 -17 7t-7 17v31q0 11 7 18t17 7h916q9 0 15.5 -7t6.5 -16q0 -21 -12 -39z" />
    <glyph glyph-name="bracketleft" unicode="[" horiz-adv-x="448" 
d="M61 -389v1954q0 10 7 17t18 7h276q11 0 18 -7t7 -17v-13q0 -10 -7 -17t-18 -7h-204v-1880h204q10 0 17.5 -7t7.5 -18v-12q0 -11 -7.5 -18t-17.5 -7h-276q-10 0 -17.5 7t-7.5 18z" />
    <glyph glyph-name="backslash" unicode="\" horiz-adv-x="669" 
d="M584 0h-35q-10 0 -20 7t-13 16l-446 1390q-3 8 2 15.5t14 7.5h31q21 0 33 -23l450 -1390q3 -8 -2 -15.5t-14 -7.5z" />
    <glyph glyph-name="bracketright" unicode="]" horiz-adv-x="448" 
d="M387 1565v-1954q0 -11 -7.5 -18t-17.5 -7h-276q-10 0 -17.5 7t-7.5 18v12q0 11 7.5 18t17.5 7h205v1880h-205q-11 0 -18 7t-7 17v13q0 10 7 17t18 7h276q11 0 18 -7t7 -17z" />
    <glyph glyph-name="asciicircum" unicode="^" 
d="M219 874q-13 13 -2 31l389 522q4 7 12 7q10 0 13 -7l389 -522q11 -19 -4 -31q-6 -5 -14.5 -4t-12.5 7l-371 434l-370 -434q-11 -14 -29 -3z" />
    <glyph glyph-name="underscore" unicode="_" horiz-adv-x="843" 
d="M10 -33v2q0 11 7 18t18 7h774q11 0 18 -7t7 -18v-2q0 -10 -7 -17t-18 -7h-774q-11 0 -18 7t-7 17z" />
    <glyph glyph-name="grave" unicode="`" horiz-adv-x="1044" 
d="M614 1219q-13 -17 -30 -7l-260 154q-8 5 -10.5 15t3.5 18l15 24q16 20 35 7l243 -181q15 -11 4 -30z" />
    <glyph glyph-name="a" unicode="a" horiz-adv-x="1073" 
d="M229 915l-6 25q-3 9 1.5 18.5t13.5 14.5q147 67 297 67q73 0 131 -12.5t96.5 -33t66.5 -53.5t43 -65t24 -78t11 -83t2 -88v-602q0 -11 -7 -18t-17 -7h-8q-11 0 -19.5 7.5t-9.5 17.5l-19 133q-147 -174 -362 -174q-92 0 -159 24t-101.5 56.5t-54.5 79.5t-24.5 79t-4.5 68
q0 91 35 155.5t96.5 99t131 49.5t153.5 15q52 0 139.5 -9t136.5 -21v57q0 101 -19 167t-57.5 100t-84.5 46.5t-113 12.5q-113 0 -281 -62q-9 -3 -18.5 1t-12.5 13zM815 248v254q-121 33 -244 33q-57 0 -102 -4.5t-94 -20t-81.5 -41t-53.5 -70.5t-21 -106q0 -113 70.5 -173.5
t183.5 -60.5q101 0 202.5 60t139.5 129z" />
    <glyph glyph-name="b" unicode="b" horiz-adv-x="1245" 
d="M612 1038q112 0 202.5 -34.5t146.5 -89t93.5 -126t52.5 -140.5t15 -138q0 -70 -15 -139t-52 -140t-92 -125t-142.5 -88t-195.5 -34q-91 0 -197 40.5t-184 133.5l-19 -133q0 -10 -7.5 -17.5t-18.5 -7.5h-11q-10 0 -17 7t-7 18v1384q0 11 7 18t17 7h45q11 0 18 -7t7 -18
v-477q173 106 354 106zM612 70q73 0 134.5 18.5t103 47.5t74 69t51 80.5t30 84.5t15.5 77t4 63q0 39 -7 82t-23.5 96t-48.5 100t-77 86.5t-114.5 63t-155.5 23.5q-71 0 -178 -36t-162 -83v-598q50 -68 147 -121t207 -53z" />
    <glyph glyph-name="c" unicode="c" horiz-adv-x="1099" 
d="M961 891l-17 -21q-17 -17 -37 -4q-129 97 -276 97q-81 0 -154 -29.5t-130 -84t-90.5 -140.5t-33.5 -191q0 -219 110.5 -337t307.5 -118q130 0 264 91q21 14 35 -7l12 -14q13 -20 -4 -37q-68 -54 -137.5 -83t-167.5 -33q-116 -3 -208 28.5t-149.5 84t-95 125t-52.5 145.5
t-15 151q0 69 14 138t51 141t92.5 126.5t146.5 89.5t206 35q187 0 325 -118q7 -6 8 -17t-5 -18z" />
    <glyph glyph-name="d" unicode="d" horiz-adv-x="1245" 
d="M633 1038q181 0 354 -106v477q0 11 7.5 18t17.5 7h45q10 0 17 -7t7 -18v-1384q0 -11 -7 -18t-17 -7h-10q-11 0 -19.5 7.5t-9.5 17.5l-17 133q-78 -93 -183.5 -133.5t-196.5 -40.5q-108 0 -196 34t-143 88t-92 124.5t-52 140t-15 139.5q0 69 15 138t52.5 140.5t93.5 126
t146.5 89t202.5 34.5zM633 70q110 0 207 53t147 121v598q-55 47 -162 83t-178 36q-74 0 -136 -18t-104.5 -47t-75.5 -69t-52.5 -81t-32 -86t-17 -81t-4.5 -69q0 -44 7.5 -93t34 -113.5t68.5 -114t119.5 -84.5t178.5 -35z" />
    <glyph glyph-name="e" unicode="e" horiz-adv-x="1124" 
d="M1004 526h-783q0 -205 117 -334t305 -129q168 0 295 95q23 12 35 -6q10 -10 16 -19q6 -7 5.5 -17t-9.5 -16q-153 -118 -352 -118q-228 0 -369 148t-141 386q0 69 14 137.5t50.5 141.5t91.5 128t145 90.5t203 35.5q192 0 298.5 -113.5t106.5 -317.5q0 -7 -1 -30t-1 -37
q-4 -25 -26 -25zM625 967q-163 0 -270 -108.5t-128 -266.5h703q4 21 4 63q0 58 -14.5 108.5t-47.5 96.5t-96.5 74.5t-150.5 32.5z" />
    <glyph glyph-name="f" unicode="f" horiz-adv-x="688" 
d="M700 1386l-6 -24q-7 -20 -32 -16q-74 22 -142 22q-51 0 -95 -12t-83.5 -38.5t-62.5 -76t-23 -117.5v-100h219q11 0 18 -7t7 -18v-12q0 -10 -7 -17t-18 -7h-219v-938q0 -11 -7 -18t-18 -7h-45q-10 0 -17 7t-7 18v938h-117q-11 0 -18 7t-7 17v12q0 11 7 18t18 7h117v109
q0 153 95 233t241 80q78 0 186 -31q10 -1 14.5 -10.5t1.5 -18.5z" />
    <glyph glyph-name="g" unicode="g" horiz-adv-x="1107" 
d="M125 -158q11 56 67.5 106t163.5 64q-49 12 -86 37t-55.5 55.5t-27.5 57.5t-9 49q0 65 40.5 111.5t127.5 62.5q-53 33 -89 95t-48 114.5t-12 95.5q0 47 10.5 93.5t37 95.5t66.5 86t105 60.5t147 23.5q145 0 238 -70l145 125q6 6 17 6t20 -6l14 -17q9 -9 9 -16t-9 -16
l-143 -144q76 -106 76 -221q0 -48 -11 -95.5t-37.5 -96t-66 -85.5t-103 -60t-141.5 -23q-39 0 -84 8t-65 8q-41 0 -73 -12t-49 -28.5t-27.5 -36.5t-13.5 -32.5t-3 -19.5q0 -73 65.5 -119.5t170.5 -46.5q20 0 55 1t51 1q116 0 197 -18.5t123 -53.5t60.5 -74t20.5 -89
q0 -29 -8.5 -61t-37 -73.5t-73 -73t-125.5 -53.5t-186 -22q-103 0 -184 18.5t-129 47t-79 67t-42.5 75t-11.5 75.5q0 16 2 24zM563 406q64 0 114.5 22.5t78.5 55t46 74t23.5 73.5t5.5 59q0 26 -6 57.5t-24 72.5t-46.5 73.5t-79 55t-114.5 22.5q-65 0 -115 -24t-77 -58
t-44.5 -76t-22.5 -71.5t-5 -51.5q0 -28 5.5 -59.5t23 -73t45 -74t77.5 -55t115 -22.5zM211 -193q0 -66 50 -114t128 -71t172 -23q92 0 169 22.5t129 73.5t52 123q0 53 -28.5 85.5t-107 51t-214.5 18.5q-90 0 -155 -10t-101 -24.5t-57.5 -38t-28 -44t-8.5 -49.5z" />
    <glyph glyph-name="h" unicode="h" horiz-adv-x="1169" 
d="M233 0h-45q-10 0 -17 7t-7 18v1384q0 11 7 18t17 7h45q11 0 18 -7t7 -18v-516q141 147 379 147q102 0 177.5 -31.5t119 -80t70 -119.5t35 -136.5t8.5 -144.5v-503q0 -11 -7.5 -18t-17.5 -7h-45q-11 0 -18 7t-7 18v503q0 123 -23 209.5t-67.5 135t-101.5 69.5t-133 21
q-97 0 -202.5 -46.5t-166.5 -130.5v-761q0 -11 -7 -18t-18 -7z" />
    <glyph glyph-name="i" unicode="i" horiz-adv-x="471" 
d="M164 1280q0 31 19.5 52.5t49.5 21.5q31 0 52.5 -21.5t21.5 -52.5t-21.5 -51.5t-52.5 -20.5q-30 0 -49.5 20.5t-19.5 51.5zM283 999v-974q0 -11 -7.5 -18t-17.5 -7h-47q-11 0 -18 7t-7 18v974q0 11 7 18t18 7h47q10 0 17.5 -7t7.5 -18z" />
    <glyph glyph-name="j" unicode="j" horiz-adv-x="477" 
d="M168 1284q0 31 20.5 52.5t51.5 21.5t52 -21.5t21 -52.5t-21 -51.5t-52 -20.5t-51.5 20.5t-20.5 51.5zM-39 -440q-114 0 -207 49q-9 4 -11.5 15t3.5 18l12 24q5 9 15.5 12.5t19.5 -0.5q81 -38 152 -38q113 0 180.5 73.5t67.5 231.5v1054q0 11 7 18t17 7h47q10 0 17.5 -7
t7.5 -18v-1054q0 -280 -183 -358q-63 -27 -145 -27z" />
    <glyph glyph-name="k" unicode="k" horiz-adv-x="1034" 
d="M844 16l-588 494v-485q0 -11 -7 -18t-18 -7h-43q-10 0 -17 7t-7 18v1388q0 11 7 18t17 7h43q11 0 18 -7t7 -18v-862l549 457q19 16 43 16h82q10 0 10 -10t-8 -15l-565 -467l598 -505q8 -5 8 -17q0 -10 -10 -10h-76q-24 0 -43 16z" />
    <glyph glyph-name="l" unicode="l" horiz-adv-x="462" 
d="M279 1411v-1386q0 -11 -7.5 -18t-17.5 -7h-45q-11 0 -18 7t-7 18v1386q0 11 7 18t18 7h45q10 0 17.5 -7t7.5 -18z" />
    <glyph glyph-name="m" unicode="m" horiz-adv-x="1869" 
d="M258 752v-727q0 -11 -7 -18t-18 -7h-45q-10 0 -17 7t-7 18v974q0 11 7 18t17 7h11q22 0 26 -25l13 -145q91 98 192 142t193 44q248 0 342 -182q168 184 395 184q77 0 137.5 -16.5t100.5 -42t69 -68t44 -82t23.5 -97.5t10.5 -101t2 -105v-505q0 -11 -7.5 -18t-17.5 -7h-47
q-10 0 -17 7t-7 18v593q0 334 -301 334q-106 0 -210.5 -61.5t-148.5 -128.5q19 -97 19 -234v-503q0 -11 -7 -18t-18 -7h-47q-10 0 -17.5 7t-7.5 18v591q0 334 -301 334q-106 0 -208 -64.5t-146 -133.5z" />
    <glyph glyph-name="n" unicode="n" horiz-adv-x="1167" 
d="M258 770v-745q0 -11 -7 -18t-18 -7h-45q-10 0 -17 7t-7 18v974q0 11 7 18t17 7h5q10 0 18 -7t10 -18l21 -145q52 70 124.5 114t133.5 58t123 14q77 0 140 -16t106 -43t75.5 -67.5t51 -83t30 -96.5t15 -101.5t3.5 -104.5v-503q0 -11 -7 -18t-17 -7h-45q-11 0 -18 7t-7 18
v501q0 40 -1 66t-7.5 75.5t-18.5 83.5t-37 76t-60 67.5t-90 43.5t-124 18q-108 0 -209.5 -60t-144.5 -126z" />
    <glyph glyph-name="o" unicode="o" horiz-adv-x="1265" 
d="M633 1040q113 0 203.5 -34.5t146.5 -89t93 -126t52 -140.5t15 -138q0 -71 -15 -140.5t-52 -140.5t-93 -125t-146.5 -88t-203.5 -34t-203.5 34t-146.5 88t-93 125t-52 140.5t-15 140.5q0 69 15 138t52 140.5t93 126t146.5 89t203.5 34.5zM633 61q73 0 134.5 19t103.5 49
t74.5 71t51 82.5t30.5 86t16 78.5t4 63q0 44 -8.5 95t-35.5 117t-70 117.5t-121 87.5t-179 36q-73 0 -134.5 -19t-103 -49.5t-74 -72.5t-51 -84t-30 -87.5t-15.5 -79t-4 -63.5t4 -63.5t15.5 -78t30 -85.5t51 -82t74 -71t103 -48.5t134.5 -18.5z" />
    <glyph glyph-name="p" unicode="p" horiz-adv-x="1245" 
d="M588 -12q-172 7 -330 106v-477q0 -11 -7 -18t-18 -7h-45q-10 0 -17 7t-7 18v1384q0 11 7 18t17 7h11q11 0 18.5 -7.5t7.5 -17.5l19 -133q78 93 184 133.5t197 40.5q108 0 195.5 -34t142.5 -88t92 -125t52 -140t15 -139q0 -67 -14.5 -135t-50 -138.5t-89 -124.5
t-139 -90.5t-192.5 -39.5h-49zM612 956q-110 0 -207 -53t-147 -121v-598q54 -47 161 -82.5t179 -35.5q102 0 181 33.5t124 83t73.5 113.5t38 116t9.5 100q0 35 -6.5 75.5t-21.5 93t-45.5 99.5t-73.5 87.5t-111.5 64.5t-153.5 24z" />
    <glyph glyph-name="q" unicode="q" horiz-adv-x="1245" 
d="M608 -12q-107 3 -192.5 39.5t-139 90.5t-89 124.5t-50 138.5t-14.5 135q0 70 15 139.5t52 140t92 124.5t143 88t196 34q91 0 196.5 -40.5t183.5 -133.5l17 133q1 10 9.5 17.5t19.5 7.5h10q10 0 17 -7t7 -18v-1384q0 -11 -7 -18t-17 -7h-45q-10 0 -17.5 7t-7.5 18v477
q-161 -99 -330 -106h-49zM633 956q-101 0 -178.5 -35t-119.5 -84.5t-68.5 -114t-34 -113.5t-7.5 -93q0 -33 4.5 -69t17 -81t32 -86t52.5 -80.5t75.5 -68.5t104.5 -47t136 -18q72 0 179 35.5t161 82.5v598q-50 68 -147 121t-207 53z" />
    <glyph glyph-name="r" unicode="r" horiz-adv-x="735" 
d="M690 1012l-8 -33q-1 -10 -9.5 -16.5t-19.5 -6.5q-12 2 -41 2q-105 0 -208 -63t-146 -129v-741q0 -11 -7 -18t-18 -7h-45q-10 0 -17 7t-7 18v974q0 11 7 18t17 7h13q10 0 18 -7t10 -18l21 -141q169 182 373 182q33 0 47 -2q9 -2 15 -9.5t5 -16.5z" />
    <glyph glyph-name="s" unicode="s" horiz-adv-x="956" 
d="M219 784q0 -45 16.5 -77.5t61 -59t71 -37.5t98.5 -36q13 -5 19 -7q49 -16 72.5 -24.5t68 -27t67.5 -33t54.5 -40t47.5 -51.5t27.5 -63t11.5 -80q0 -119 -101.5 -195t-255.5 -76q-178 0 -330 76q-9 5 -12.5 15.5t0.5 19.5l15 25q11 22 32 12q150 -70 283 -70
q108 0 186 51.5t78 139.5q0 52 -20.5 91t-63.5 67t-81.5 44t-102.5 37q-39 12 -55.5 17t-52.5 17t-53.5 20.5t-46.5 23.5t-44 28.5t-34.5 33.5t-28.5 41t-16 48t-7 58q0 123 87 195.5t220 72.5q166 0 309 -57q9 -5 13 -14.5t0 -18.5l-9 -22q-11 -22 -32 -15q-139 48 -238 48
q-112 0 -179.5 -39.5t-74.5 -137.5z" />
    <glyph glyph-name="t" unicode="t" horiz-adv-x="575" 
d="M547 53l2 -12q3 -11 -3 -20.5t-16 -10.5q-77 -22 -145 -22q-98 0 -157.5 55t-65.5 176v742h-117q-11 0 -18 7t-7 17v14q0 11 7 18t18 7h119l16 184q0 10 8 17.5t19 7.5h24q11 0 18 -7.5t7 -17.5v-184h223q11 0 18 -7t7 -18v-14q0 -10 -7 -17t-18 -7h-223v-711
q0 -187 180 -187q27 0 80 11q24 3 31 -21z" />
    <glyph glyph-name="u" unicode="u" horiz-adv-x="1167" 
d="M909 254v745q0 11 7.5 18t17.5 7h45q11 0 18 -7t7 -18v-974q0 -11 -7 -18t-18 -7h-4q-11 0 -19.5 7.5t-9.5 17.5l-20 145q-52 -70 -124.5 -114t-133.5 -58t-123 -14q-77 0 -140 16t-106 43t-75.5 67.5t-51.5 83t-30 96.5t-15 101.5t-4 104.5v503q0 11 7 18t17 7h46
q10 0 17 -7t7 -18v-501q0 -40 1 -66t7.5 -75.5t18.5 -83.5t37 -76t60 -67.5t90 -43.5t124 -18q108 0 209.5 60t144.5 126z" />
    <glyph glyph-name="v" unicode="v" horiz-adv-x="1007" 
d="M186 1001l318 -845l317 845q3 9 13 16t20 7h68q9 0 13.5 -8t0.5 -15l-397 -995q-6 -22 -33 -22h-8q-27 0 -33 22l-395 995q-3 8 2 15.5t14 7.5h68q24 0 32 -23z" />
    <glyph glyph-name="w" unicode="w" horiz-adv-x="1677" 
d="M186 1001l318 -829l301 844q3 9 13 15.5t20 6.5h4q10 0 19.5 -6.5t12.5 -15.5l300 -844l317 829q3 9 13 16t20 7h67q9 0 14 -8t1 -15l-398 -991q-6 -22 -32 -22h-5q-26 0 -32 22l-299 836l-303 -836q-6 -22 -33 -22h-4q-27 0 -33 22l-397 991q-3 8 2 15.5t14 7.5h68
q24 0 32 -23z" />
    <glyph glyph-name="x" unicode="x" horiz-adv-x="884" 
d="M811 1004l-315 -494l315 -490q3 -6 -1 -13t-11 -7h-74q-24 0 -37 20l-246 404l-245 -404q-13 -20 -37 -20h-74q-7 0 -11 7t-1 13l313 490l-313 494q-3 6 1 13t11 7h72q24 0 37 -20l247 -408l248 408q13 20 37 20h72q7 0 11 -7t1 -13z" />
    <glyph glyph-name="y" unicode="y" horiz-adv-x="1120" 
d="M184 1001l377 -895l367 895q10 23 35 23h71q9 0 13.5 -7.5t1.5 -15.5l-600 -1415q-9 -22 -35 -22h-60q-9 0 -13.5 7.5t-0.5 14.5l168 398l-436 1017q-4 7 0.5 15t13.5 8h64q24 0 34 -23z" />
    <glyph glyph-name="z" unicode="z" horiz-adv-x="931" 
d="M131 971v28q0 11 7.5 18t17.5 7h645q20 0 20 -20q0 -18 -10 -35l-551 -891h555q11 0 18 -7t7 -18v-28q0 -11 -7 -18t-18 -7h-680q-7 0 -13.5 6t-6.5 14q0 21 10 41l541 885h-510q-10 0 -17.5 7t-7.5 18z" />
    <glyph glyph-name="braceleft" unicode="{" horiz-adv-x="552" 
d="M492 1575q0 -11 -7.5 -19.5t-17.5 -9.5q-158 -37 -158 -301v-450q0 -35 -6 -61.5t-23.5 -54t-53.5 -51t-91 -42.5q57 -17 94 -42t53.5 -55.5t21.5 -55t5 -56.5v-447q0 -64 11 -115t27 -82.5t38.5 -54.5t41.5 -33.5t40 -15.5q25 -7 25 -28q0 -10 -8 -17.5t-17 -5.5
q-28 4 -57 13t-67.5 32.5t-67.5 58t-49.5 94t-20.5 134.5v442q0 79 -36 133t-91 78q-17 7 -17 25q0 16 19 24q125 44 125 211v443q0 71 19.5 128.5t47.5 91t66.5 58.5t68 35t60.5 16q9 2 17 -4.5t8 -15.5z" />
    <glyph glyph-name="bar" unicode="|" horiz-adv-x="315" 
d="M168 -406h-21q-10 0 -17 7t-7 18v1946q0 11 6.5 17.5t17.5 6.5h21q11 0 18 -7t7 -17v-1946q0 -11 -7.5 -18t-17.5 -7z" />
    <glyph glyph-name="braceright" unicode="}" horiz-adv-x="552" 
d="M61 1575q0 9 8 15.5t17 4.5q31 -6 60.5 -16t68 -35t66.5 -58.5t47.5 -91t19.5 -128.5v-443q0 -167 125 -211q19 -8 19 -24t-17 -25q-55 -24 -91 -78t-36 -133v-442q0 -75 -20.5 -134.5t-49.5 -94t-67.5 -58t-67.5 -32.5t-57 -13q-10 -1 -17.5 5.5t-7.5 17.5q0 21 25 28
q21 5 40 15.5t41.5 33.5t38.5 54.5t27 82.5t11 115v447q0 32 5 56.5t21.5 55t53.5 55.5t94 42q-55 19 -91 42.5t-53.5 51t-23.5 54t-6 61.5v450q0 264 -158 301q-10 1 -17.5 9.5t-7.5 19.5z" />
    <glyph glyph-name="asciitilde" unicode="~" horiz-adv-x="1216" 
d="M154 535l-11 8q-20 14 -6 35q109 143 275 143q45 0 97 -21.5t92 -47t96 -47t110 -21.5q117 0 217 100q18 18 35 4l14 -12q20 -14 6 -35q-107 -154 -274 -154q-53 0 -109.5 22t-98 48t-95 48t-101.5 22q-116 0 -211 -90q-18 -14 -36 -2z" />
    <glyph glyph-name="exclamdown" unicode="&#xa1;" horiz-adv-x="546" 
d="M205 965q0 29 20 48t49 19t48.5 -19t19.5 -48t-19.5 -49.5t-48.5 -20.5t-49 20.5t-20 49.5zM319 178v-559q0 -11 -7 -18t-17 -7h-45q-10 0 -17.5 7t-7.5 18v559l27 406q4 18 20 18q17 0 21 -18z" />
    <glyph glyph-name="cent" unicode="&#xa2;" horiz-adv-x="1099" 
d="M631 -174h-21q-10 0 -17 7t-7 17v132q-104 5 -186 39.5t-133 87t-84.5 122.5t-46.5 139.5t-13 143.5q0 66 13 132t46.5 135.5t84.5 123t133 91.5t186 46v146q0 10 7 17t17 7h21q11 0 17.5 -7t6.5 -17v-144q177 -8 303 -118q7 -6 8 -17t-5 -18l-17 -21q-17 -17 -37 -4
q-118 85 -252 95v-898q65 4 131.5 29t118.5 62q23 11 35 -7l12 -14q13 -20 -4 -37q-64 -52 -132.5 -81t-160.5 -35v-130q0 -10 -6.5 -17t-17.5 -7zM223 518q0 -202 95.5 -318.5t267.5 -133.5v895q-156 -18 -259.5 -133.5t-103.5 -309.5z" />
    <glyph glyph-name="sterling" unicode="&#xa3;" horiz-adv-x="1191" 
d="M125 10l-14 10q-18 18 -5 37q80 107 175 138v534h-117q-10 0 -17.5 7.5t-7.5 17.5v12q0 10 7.5 17.5t17.5 7.5h117v342q0 104 46.5 176t120.5 104.5t168 32.5q78 0 187 -31q10 -1 14.5 -10.5t1.5 -18.5l-6 -24q-7 -20 -33 -16q-74 22 -141 22q-50 0 -93.5 -12t-82 -38.5
t-60.5 -76t-22 -117.5v-333h213q10 0 17 -7t7 -18v-12q0 -11 -7 -18t-17 -7h-213v-518h6q45 0 97 -21.5t92 -47t96 -47t110 -21.5q117 0 217 100q18 18 35 4l15 -12q20 -14 6 -35q-107 -154 -275 -154q-53 0 -109.5 22t-97.5 48t-94.5 48t-101.5 22q-107 0 -217 -105
q-6 -6 -16.5 -7t-18.5 5z" />
    <glyph glyph-name="currency" unicode="&#xa4;" horiz-adv-x="1288" 
d="M653 940q141 0 236 -74l205 205q8 8 18 8q8 0 16 -8l19 -18q8 -8 8 -17q0 -10 -8 -18l-205 -205q84 -107 84 -258q0 -137 -72 -244l193 -194q8 -8 8 -17q0 -10 -8 -18l-19 -19q-6 -6 -16 -6q-12 0 -18 6l-189 191q-94 -84 -252 -84q-163 0 -260 94l-200 -201
q-6 -6 -17 -6q-12 0 -18 6l-19 19q-6 6 -6 18q0 11 6 17l207 205q-65 102 -65 233q0 142 75 246l-217 217q-6 6 -6 18q0 11 6 17l19 18q8 8 18 8q9 0 17 -8l215 -213q95 82 245 82zM653 260q65 0 115.5 23.5t78 57t45 76.5t23 76t5.5 62q0 27 -5.5 59.5t-23 76t-45 77.5
t-78 58t-115.5 24t-115 -24t-77 -58t-44.5 -77.5t-22.5 -76t-5 -59.5q0 -29 5 -62t22.5 -76t44.5 -76.5t77 -57t115 -23.5z" />
    <glyph glyph-name="yen" unicode="&#xa5;" horiz-adv-x="1187" 
d="M543 227h-275q-10 0 -17 7t-7 18v27q0 11 7 17.5t17 6.5h275v291h-275q-10 0 -17 7t-7 17v27q0 11 7 18t17 7h267l-461 743q-3 6 1 13.5t11 7.5h57q23 0 37 -21l414 -676l414 676q14 21 36 21h58q7 0 11 -7.5t1 -13.5l-461 -743h267q10 0 17 -7t7 -18v-27q0 -10 -7 -17
t-17 -7h-275v-291h275q10 0 17 -6.5t7 -17.5v-27q0 -11 -7 -18t-17 -7h-275v-202q0 -11 -7 -18t-17 -7h-54q-10 0 -17 7t-7 18v202z" />
    <glyph glyph-name="brokenbar" unicode="&#xa6;" horiz-adv-x="313" 
d="M190 348v-731q0 -11 -7 -18t-17 -7h-19q-10 0 -17 7t-7 18v731q0 11 7 18t17 7h19q10 0 17 -7t7 -18zM190 1561v-732q0 -11 -7 -17.5t-17 -6.5h-19q-11 0 -17.5 6.5t-6.5 17.5v732q0 11 6.5 17.5t17.5 6.5h19q10 0 17 -6.5t7 -17.5z" />
    <glyph glyph-name="section" unicode="&#xa7;" horiz-adv-x="1099" 
d="M178 -311l8 12q13 19 35 8q173 -104 303 -104q111 0 198 65.5t87 182.5q0 52 -21 96.5t-70.5 87t-84.5 66t-109 68.5q-12 7 -18 11q-42 25 -55.5 33.5t-52 32.5t-53.5 35.5t-46 36t-44 40.5t-33.5 41.5t-29 47.5t-15.5 49.5t-7 56.5q0 153 197 299q-82 57 -131.5 131.5
t-49.5 157.5q0 53 23 107t66.5 100.5t117 76t164.5 29.5q143 0 287 -90q9 -6 10.5 -17t-4.5 -18l-10 -16q-4 -9 -15 -12t-20 2q-125 64 -236 73q-73 0 -130.5 -20.5t-91 -54.5t-51.5 -73t-20 -81q0 -84 73.5 -163.5t199.5 -141.5q61 -31 99 -51.5t89 -51.5t81.5 -59
t60.5 -63.5t43.5 -76t13.5 -85.5q0 -55 -39 -118.5t-81 -104.5t-87 -76q110 -84 151 -159.5t35 -158.5q-5 -87 -57 -158.5t-137.5 -112t-185.5 -40.5q-167 0 -351 125q-20 14 -6 35zM252 578q0 -57 30.5 -110t92.5 -103t130 -91t167 -92q27 24 40 37t38.5 42t39 53.5
t25.5 61t14 75.5q0 45 -19 85t-47.5 69.5t-70.5 57.5t-78 47t-81 41q-2 1 -3.5 1.5t-3.5 1.5l-4 2q-13 7 -39.5 20t-41.5 22t-29 19q-160 -117 -160 -239z" />
    <glyph glyph-name="dieresis" unicode="&#xa8;" horiz-adv-x="1171" 
d="M252 1280q0 31 20 52.5t50 21.5q31 0 52 -21.5t21 -52.5t-21 -51.5t-52 -20.5t-50.5 20.5t-19.5 51.5zM764 1280q0 31 20 52.5t50 21.5q31 0 52 -21.5t21 -52.5t-21 -51.5t-52 -20.5t-50.5 20.5t-19.5 51.5z" />
    <glyph glyph-name="copyright" unicode="&#xa9;" horiz-adv-x="1200" 
d="M600 1438q106 0 202 -41t165 -111t110 -166t41 -202q0 -140 -69 -259.5t-188.5 -189.5t-260.5 -70q-132 0 -250.5 67.5t-193 189.5t-74.5 268q0 131 67.5 249t188 191.5t262.5 73.5zM600 451q195 0 330 136t135 331t-135 330.5t-330 135.5t-330 -135.5t-135 -330.5
q0 -125 61.5 -232.5t169 -171t234.5 -63.5zM399 924q0 -100 60.5 -159.5t144.5 -59.5q79 0 146 40q16 10 26 -6q11 -15 -4 -26q-74 -54 -168 -54q-72 0 -126.5 27t-83.5 69.5t-42.5 85t-13.5 83.5q0 32 8 66.5t27.5 71t49 65t76.5 47t105 18.5q91 0 166 -55q6 -5 7 -14
t-5 -15q-4 -6 -13.5 -7.5t-15.5 3.5q-64 41 -139 41q-83 0 -144 -62t-61 -159z" />
    <glyph glyph-name="ordfeminine" unicode="&#xaa;" horiz-adv-x="786" 
d="M158 1362v6q-7 22 14 33q115 47 215 47q53 0 95.5 -9.5t71.5 -24t49.5 -39t32 -48.5t18 -58t8.5 -62t2 -66v-443q0 -8 -7 -14t-16 -6q-22 0 -25 20l-18 97q-109 -129 -262 -129q-68 0 -117.5 18t-75 42.5t-40.5 59t-18 58t-3 49.5q0 66 25.5 114t71 74t97 37.5
t113.5 11.5q97 0 199 -24v43q0 75 -13 124t-40 74t-60.5 34.5t-83.5 9.5q-79 0 -203 -43q-9 -3 -18 1t-12 13zM588 862v187q-84 24 -174 24q-42 0 -75 -3.5t-69 -14.5t-60.5 -30t-40 -52t-15.5 -78q0 -83 52 -128.5t134 -45.5q75 0 145.5 43.5t102.5 97.5z" />
    <glyph glyph-name="guillemotleft" unicode="&#xab;" horiz-adv-x="792" 
d="M156 516l274 -326q13 -17 -4 -34q-14 -14 -33 2l-327 348q-5 5 -5 10t5 10l327 348q20 16 33 0q18 -14 4 -32zM442 516l275 -326q13 -17 -4 -34q-14 -14 -33 2l-328 348q-4 4 -4 10t4 10l328 348q20 16 33 0q18 -14 4 -32z" />
    <glyph glyph-name="logicalnot" unicode="&#xac;" horiz-adv-x="1284" 
d="M1120 836v-517q0 -11 -7 -17.5t-17 -6.5h-99q-11 0 -17.5 6.5t-6.5 17.5v400h-785q-10 0 -17 6.5t-7 17.5v93q0 10 7 17t17 7h908q10 0 17 -7t7 -17z" />
    <glyph glyph-name="uni00AD" unicode="&#xad;" horiz-adv-x="819" 
d="M150 467h528q10 0 17 -7t7 -18v-24q0 -11 -7 -18t-17 -7h-528q-10 0 -17.5 7.5t-7.5 17.5v24q0 10 7.5 17.5t17.5 7.5z" />
    <glyph glyph-name="registered" unicode="&#xae;" horiz-adv-x="1200" 
d="M600 1438q106 0 202 -41t165 -111t110 -166t41 -202q0 -140 -69 -259.5t-188.5 -189.5t-260.5 -70q-132 0 -250.5 67.5t-193 189.5t-74.5 268q0 131 67.5 249t188 191.5t262.5 73.5zM602 451q195 0 329 136t134 331t-135 330.5t-330 135.5t-330 -135.5t-135 -330.5
q0 -123 62 -230.5t170 -172t235 -64.5zM485 846v-174q0 -11 -7 -18t-17 -7h-4q-11 0 -18 7.5t-7 17.5v493q0 11 7 18t18 7h178q52 0 90.5 -16t58.5 -42.5t29.5 -55t9.5 -58.5q0 -57 -38 -106.5t-99 -61.5l96 -180q4 -7 0 -15t-12 -8h-10q-25 0 -35 23l-90 176h-150zM485 893
h158q37 0 63 13.5t38.5 35t18 40.5t5.5 36q0 20 -5 39.5t-18 40.5t-40.5 34t-65.5 13h-154v-252z" />
    <glyph glyph-name="macron" unicode="&#xaf;" horiz-adv-x="1056" 
d="M256 1288h567q11 0 18 -7t7 -17v-27q0 -11 -7 -18t-18 -7h-567q-10 0 -17.5 7t-7.5 18v27q0 10 7 17t18 7z" />
    <glyph glyph-name="degree" unicode="&#xb0;" horiz-adv-x="675" 
d="M338 901q-116 0 -196.5 80.5t-80.5 196.5q0 115 80.5 195.5t196.5 80.5t196 -80t80 -196t-80.5 -196.5t-195.5 -80.5zM338 973q86 0 144.5 58.5t58.5 146.5q0 86 -58.5 144t-144.5 58q-88 0 -146.5 -58t-58.5 -144q0 -88 58.5 -146.5t146.5 -58.5z" />
    <glyph glyph-name="plusminus" unicode="&#xb1;" horiz-adv-x="1132" 
d="M188 156h756q10 0 17.5 -7t7.5 -18v-25q0 -10 -7 -17t-18 -7h-756q-10 0 -17 7t-7 17v25q0 11 7 18t17 7zM604 707h340q10 0 17.5 -7.5t7.5 -17.5v-25q0 -10 -7 -17t-18 -7h-340v-258q0 -11 -7 -18t-17 -7h-25q-11 0 -18 7t-7 18v258h-342q-10 0 -17 6.5t-7 17.5v25
q0 11 7 18t17 7h342v342q0 10 7 17t18 7h25q10 0 17 -6.5t7 -17.5v-342z" />
    <glyph glyph-name="twosuperior" unicode="&#xb2;" horiz-adv-x="514" 
d="M66 1542q-6 7 -5.5 18t7.5 17q96 74 186 74q89 0 144 -48t55 -137q0 -98 -136 -245l-165 -189h260q10 0 17 -7t7 -17v-2q0 -11 -7 -18t-17 -7h-344q-5 0 -9 4t-4 8q0 16 8 21l261 301q67 80 67 153q0 18 -5.5 37.5t-19 41.5t-43 36t-69.5 14q-75 0 -154 -57
q-8 -7 -18 -6.5t-16 8.5z" />
    <glyph glyph-name="threesuperior" unicode="&#xb3;" horiz-adv-x="499" 
d="M438 1470q0 -99 -94 -157q43 -26 68.5 -69.5t25.5 -88.5q0 -30 -9.5 -59t-31 -59.5t-65.5 -49t-105 -18.5q-91 0 -166 55q-9 6 -10.5 16t4.5 17l2 2q14 18 35 4q71 -43 135 -43t108 35.5t44 99.5q0 68 -43 100.5t-109 32.5h-45q-9 0 -15.5 7t-6.5 16q0 10 6.5 17t15.5 7
h45q64 0 108 36t44 99q0 68 -43 100t-109 32q-78 0 -143 -41q-7 -5 -17 -3t-14 9q-5 7 -3 16.5t9 13.5q67 53 168 56q61 2 105 -16t65.5 -49t31 -60t9.5 -58z" />
    <glyph glyph-name="acute" unicode="&#xb4;" horiz-adv-x="1044" 
d="M403 1214q-4 8 -2.5 17t7.5 14l243 180q20 13 35 -6l14 -24q6 -8 4 -18t-10 -15l-260 -154q-8 -4 -17 -2t-14 8z" />
    <glyph glyph-name="mu" unicode="&#xb5;" horiz-adv-x="1208" 
d="M164 -383v1382q0 11 7 18t17 7h56q10 0 17 -7t7 -18v-499q0 -142 21 -216q60 -214 307 -214q107 0 206 61t142 129v739q0 11 7 18t18 7h51q10 0 17 -7t7 -18v-974q0 -11 -7 -18t-17 -7h-10q-11 0 -19.5 7.5t-9.5 17.5l-27 145q-74 -100 -172 -142t-196 -42
q-114 0 -196 40.5t-122 108.5v-518q0 -11 -7 -18t-17 -7h-56q-10 0 -17 7t-7 18z" />
    <glyph glyph-name="mu" unicode="&#x3bc;" horiz-adv-x="1208" 
d="M164 -383v1382q0 11 7 18t17 7h56q10 0 17 -7t7 -18v-499q0 -142 21 -216q60 -214 307 -214q107 0 206 61t142 129v739q0 11 7 18t18 7h51q10 0 17 -7t7 -18v-974q0 -11 -7 -18t-17 -7h-10q-11 0 -19.5 7.5t-9.5 17.5l-27 145q-74 -100 -172 -142t-196 -42
q-114 0 -196 40.5t-122 108.5v-518q0 -11 -7 -18t-17 -7h-56q-10 0 -17 7t-7 18z" />
    <glyph glyph-name="paragraph" unicode="&#xb6;" horiz-adv-x="1347" 
d="M82 1018q0 54 12 108.5t41.5 111t74 99.5t115.5 70t160 27h674q11 0 18 -7t7 -18v-23q0 -10 -7 -17t-18 -7h-135v-1745q0 -11 -7 -18t-18 -7h-26q-11 0 -18 7t-7 18v1745h-311v-1745q0 -11 -7.5 -18t-17.5 -7h-26q-10 0 -17.5 7t-7.5 18v985h-76q-89 0 -160 27t-115.5 70
t-74 99.5t-41.5 111t-12 108.5z" />
    <glyph glyph-name="periodcentered" unicode="&#xb7;" horiz-adv-x="411" 
d="M123 604q0 35 24.5 59.5t59.5 24.5t58.5 -24.5t23.5 -59.5t-23.5 -58.5t-58.5 -23.5t-59.5 23.5t-24.5 58.5z" />
    <glyph glyph-name="cedilla" unicode="&#xb8;" horiz-adv-x="1134" 
d="M596 -152q-4 8 -4 13v151q0 11 7 18t17 7h19q10 0 17 -7t7 -18v-102h39q83 -4 127.5 -55t44.5 -113q0 -93 -59.5 -143t-142.5 -50q-65 0 -136 33q-9 3 -13 13.5t1 19.5l8 14q4 9 14 12.5t19 0.5q55 -21 98 -21q67 0 98 36t31 85q0 43 -33.5 72.5t-101.5 29.5h-45
q-4 0 -12 4z" />
    <glyph glyph-name="onesuperior" unicode="&#xb9;" horiz-adv-x="364" 
d="M53 1470q-12 16 2 27l164 141q15 11 27 11q16 0 16 -17v-626q0 -11 -7 -18t-17 -7h-15q-10 0 -17 7t-7 18v542l-117 -82q-18 -11 -29 4z" />
    <glyph glyph-name="ordmasculine" unicode="&#xba;" horiz-adv-x="774" 
d="M387 1446q68 0 122 -21t87.5 -53.5t56 -76t31 -85t8.5 -82.5q0 -43 -8.5 -84.5t-31 -84.5t-56 -75t-87.5 -52.5t-122 -20.5t-122 20.5t-87.5 52.5t-56 75t-31 84.5t-8.5 84.5q0 41 8.5 82.5t31 85t56 76t87.5 53.5t122 21zM387 864q58 0 102 21.5t68.5 51.5t39.5 69
t19.5 68t4.5 54t-4.5 53.5t-19.5 67t-39.5 68.5t-68.5 51t-102 21t-102 -21t-68 -51t-39 -68.5t-19.5 -67t-4.5 -53.5t4.5 -54t19.5 -68t39 -69t68 -51.5t102 -21.5zM145 612h482q11 0 17.5 -7t6.5 -17v-17q0 -11 -6.5 -17.5t-17.5 -6.5h-482q-11 0 -17.5 6.5t-6.5 17.5v17
q0 10 6.5 17t17.5 7z" />
    <glyph glyph-name="guillemotright" unicode="&#xbb;" horiz-adv-x="792" 
d="M362 190l275 326l-275 326q-13 16 3 32q15 15 34 0l328 -348q4 -4 4 -10t-4 -10l-328 -348q-18 -15 -34 -2q-15 19 -3 34zM76 190l274 326l-274 326q-13 17 2 32q16 16 35 0l327 -348q4 -4 4 -10t-4 -10l-327 -348q-19 -15 -35 -2q-15 18 -2 34z" />
    <glyph glyph-name="onequarter" unicode="&#xbc;" horiz-adv-x="983" 
d="M840 1411l-695 -1388q-10 -23 -34 -23h-21q-9 0 -13 7.5t-1 15.5l696 1388q10 23 35 23h18q8 0 13 -8t2 -15zM76 1266q-9 12 2 26l166 142q13 10 26 10q17 0 17 -17v-626q0 -11 -7.5 -18t-17.5 -7h-14q-10 0 -17.5 7t-7.5 18v542l-121 -79q-12 -9 -26 2zM834 127v-109
q0 -10 -7 -17t-18 -7h-14q-11 0 -18 7t-7 17v109h-297q-6 0 -11 5t-5 11q0 18 8 31l301 465q13 20 39 20h4q11 0 18 -7t7 -17v-457h71q11 0 18 -7t7 -17v-2q0 -10 -7 -17.5t-18 -7.5h-71zM770 549l-240 -371h240v371z" />
    <glyph glyph-name="onehalf" unicode="&#xbd;" horiz-adv-x="1081" 
d="M840 1411l-695 -1388q-10 -23 -34 -23h-21q-9 0 -13 7.5t-1 15.5l696 1388q10 23 35 23h18q8 0 13 -8t2 -15zM604 561q-6 7 -5.5 18t7.5 17q96 74 187 74q89 0 143.5 -47.5t54.5 -137.5q0 -99 -135 -245l-166 -189h260q11 0 18 -7t7 -17v-2q0 -11 -7.5 -18t-17.5 -7h-342
q-4 0 -8 4t-4 8q0 17 8 25l258 297q38 45 53 86.5t15 66.5q0 18 -5.5 37.5t-19 41.5t-43 36t-69.5 14q-75 0 -154 -57q-8 -7 -18.5 -6.5t-16.5 8.5zM76 1266q-9 13 2 24l166 144q13 10 26 10q17 0 17 -17v-626q0 -11 -7.5 -18t-17.5 -7h-14q-10 0 -17.5 7t-7.5 18v540
l-123 -79q-13 -7 -24 4z" />
    <glyph glyph-name="threequarters" unicode="&#xbe;" horiz-adv-x="1107" 
d="M938 1415l-694 -1388q-10 -23 -35 -23h-21q-9 0 -13 7.5t-1 15.5l696 1388q10 23 35 23h19q8 0 12.5 -8t1.5 -15zM932 131v-108q0 -11 -7 -18t-18 -7h-14q-11 0 -18 7t-7 18v108h-297q-6 0 -11 5t-5 11q0 18 8 31l301 465q14 21 39 21h4q11 0 18 -7t7 -18v-457h72
q10 0 17 -7t7 -17v-2q0 -11 -7 -18t-17 -7h-72zM868 553l-239 -371h239v371zM463 1270q0 -100 -94 -158q43 -26 68.5 -69.5t25.5 -88.5q0 -30 -9.5 -59t-31 -59.5t-65.5 -49t-105 -18.5q-91 0 -166 55q-9 6 -10.5 16t4.5 17l2 2q14 18 35 4q71 -43 135 -43t107.5 35.5
t43.5 99.5q0 68 -42.5 100.5t-108.5 32.5h-45q-9 0 -16 7t-7 16q0 10 7 17.5t16 7.5h45q63 0 107 36t44 99q0 67 -42.5 99t-108.5 32q-78 0 -143 -41q-7 -5 -17 -3t-14 9q-5 7 -3 17t9 14q66 52 168 55q61 2 105 -16t65.5 -48.5t31 -59.5t9.5 -58z" />
    <glyph glyph-name="questiondown" unicode="&#xbf;" horiz-adv-x="1085" 
d="M647 956q0 -35 -24.5 -59.5t-59.5 -24.5t-58.5 24.5t-23.5 59.5t23.5 58.5t58.5 23.5t59.5 -23.5t24.5 -58.5zM528 514v72q0 10 7 17t18 7h25q10 0 17 -7t7 -17v-72q0 -61 -36.5 -121.5t-88 -113t-103 -107.5t-88 -125t-36.5 -145q-2 -114 62.5 -180t205.5 -72
q105 0 173.5 31.5t160.5 113.5q8 6 19 6t18 -6l14 -16q7 -6 7.5 -17t-5.5 -18q-91 -90 -181 -130t-210 -40q-154 0 -252 86.5t-98 241.5q0 72 36 145.5t88 134t104.5 116.5t92 112.5t43.5 103.5z" />
    <glyph glyph-name="Agrave" unicode="&#xc0;" horiz-adv-x="1347" 
d="M1165 23l-164 399h-657l-164 -399q-7 -23 -33 -23h-61q-9 0 -13.5 8t-0.5 15l579 1402q7 15 23 15q14 0 22 -15l580 -1402q4 -7 -0.5 -15t-13.5 -8h-62q-25 0 -35 23zM674 1231l-293 -723h586zM823 1636q-5 -6 -13.5 -8t-16.5 2l-261 154q-8 5 -10 15t4 18l15 24
q15 19 34 6l244 -180q6 -5 7 -14t-3 -17z" />
    <glyph glyph-name="Aacute" unicode="&#xc1;" horiz-adv-x="1347" 
d="M1165 23l-164 399h-657l-164 -399q-7 -23 -33 -23h-61q-9 0 -13.5 8t-0.5 15l579 1402q7 15 23 15q14 0 22 -15l580 -1402q4 -7 -0.5 -15t-13.5 -8h-62q-25 0 -35 23zM674 1231l-293 -723h586zM524 1624q-4 8 -3 17t7 14l244 180q20 13 35 -6l14 -25q6 -8 4 -17.5
t-10 -14.5l-260 -154q-8 -4 -17 -2t-14 8z" />
    <glyph glyph-name="Acircumflex" unicode="&#xc2;" horiz-adv-x="1347" 
d="M1165 23l-164 399h-657l-164 -399q-7 -23 -33 -23h-61q-9 0 -13.5 8t-0.5 15l579 1402q7 15 23 15q14 0 22 -15l580 -1402q4 -7 -0.5 -15t-13.5 -8h-62q-25 0 -35 23zM674 1231l-293 -723h586zM406 1624q-4 8 -3 17t7 14l243 180q21 14 41 0l244 -180q6 -5 7 -14t-3 -17
q-5 -6 -14 -8t-17 2l-237 139l-238 -139q-8 -4 -16.5 -2t-13.5 8z" />
    <glyph glyph-name="Atilde" unicode="&#xc3;" horiz-adv-x="1347" 
d="M1165 23l-164 399h-657l-164 -399q-7 -23 -33 -23h-61q-9 0 -13.5 8t-0.5 15l579 1402q7 15 23 15q14 0 22 -15l580 -1402q4 -7 -0.5 -15t-13.5 -8h-62q-25 0 -35 23zM674 1231l-293 -723h586zM942 1757l8 -6q7 -4 10 -15t-2 -18q-66 -100 -172 -100q-38 0 -70.5 14
t-51 31t-48 31t-63.5 14q-63 0 -113 -70q-4 -9 -14.5 -12t-19.5 2l-7 4q-9 5 -12.5 14.5t0.5 18.5q59 115 170 115q33 0 65 -14.5t54 -31.5t52.5 -31.5t59.5 -14.5q72 0 119 61q6 8 16.5 10t18.5 -2z" />
    <glyph glyph-name="Adieresis" unicode="&#xc4;" horiz-adv-x="1347" 
d="M346 1690q0 31 20 52t50 21q31 0 52 -21t21 -52t-21 -51.5t-52 -20.5t-50.5 20.5t-19.5 51.5zM858 1690q0 31 20 52t50 21q31 0 52 -21t21 -52t-21 -51.5t-52 -20.5t-50.5 20.5t-19.5 51.5zM1165 23l-164 399h-657l-164 -399q-7 -23 -33 -23h-61q-9 0 -13.5 8t-0.5 15
l579 1402q7 15 23 15q14 0 22 -15l580 -1402q4 -7 -0.5 -15t-13.5 -8h-62q-25 0 -35 23zM674 1231l-293 -723h586z" />
    <glyph glyph-name="Aring" unicode="&#xc5;" horiz-adv-x="1347" 
d="M498 1800q0 78 53 131.5t131 53.5q75 0 128.5 -53.5t53.5 -131.5q0 -75 -53.5 -128.5t-128.5 -53.5q-78 0 -131 53t-53 129zM555 1800q0 -50 38 -87.5t89 -37.5q50 0 87.5 37.5t37.5 87.5q0 51 -37.5 89t-87.5 38q-52 0 -89.5 -36.5t-37.5 -90.5zM1165 23l-164 399h-657
l-164 -399q-7 -23 -33 -23h-61q-9 0 -13.5 8t-0.5 15l579 1402q7 15 23 15q14 0 22 -15l580 -1402q4 -7 -0.5 -15t-13.5 -8h-62q-25 0 -35 23zM674 1231l-293 -723h586z" />
    <glyph glyph-name="AE" unicode="&#xc6;" horiz-adv-x="1705" 
d="M674 25v397h-330l-164 -399q-7 -23 -33 -23h-61q-9 0 -13.5 8t-0.5 15l579 1388q10 23 35 23h873q10 0 17 -7t7 -18v-29q0 -10 -6.5 -17t-17.5 -7h-791v-600h621q10 0 17 -7t7 -18v-29q0 -10 -6.5 -17t-17.5 -7h-621v-600h791q10 0 17 -7t7 -18v-28q0 -11 -7 -18t-17 -7
h-861q-10 0 -17 7t-7 18zM674 1221l-293 -713h293v713z" />
    <glyph glyph-name="Ccedilla" unicode="&#xc7;" horiz-adv-x="1439" 
d="M786 -152q-4 8 -4 13v129q-106 5 -196.5 32t-156.5 69.5t-119 100.5t-87.5 121t-57.5 134t-32.5 138t-9.5 134q0 66 10 133t34.5 139.5t61 137.5t93.5 124t127.5 102t168 68t211.5 25q147 0 258 -41.5t211 -122.5q17 -17 2 -35l-22 -24q-6 -8 -16.5 -8.5t-18.5 6.5
q-189 146 -414 143q-110 -2 -201 -30t-152.5 -72t-109.5 -104t-75 -119t-44 -123t-22.5 -111t-5.5 -88q0 -42 5.5 -89t22.5 -112t44 -124t75 -118.5t109.5 -103t152.5 -71t201 -27.5q226 0 412 137q20 13 37 -4l20 -29q7 -8 6.5 -18.5t-8.5 -16.5q-188 -147 -446 -155v-78
h39q83 -4 127.5 -55t44.5 -113q0 -93 -60 -143t-143 -50q-64 0 -135 33q-9 3 -13 13.5t1 19.5l8 14q4 9 14 12.5t19 0.5q56 -21 98 -21q67 0 98 36t31 85q0 43 -33.5 72.5t-101.5 29.5h-45q-5 0 -13 4z" />
    <glyph glyph-name="Egrave" unicode="&#xc8;" 
d="M205 25v1384q0 11 7 18t17 7h861q10 0 17 -7t7 -18v-29q0 -10 -7 -17t-17 -7h-791v-600h621q10 0 17 -7t7 -18v-29q0 -10 -7 -17t-17 -7h-621v-600h791q10 0 17 -7t7 -18v-28q0 -11 -7 -18t-17 -7h-861q-10 0 -17 7t-7 18zM768 1628q-5 -6 -14 -8t-17 2l-260 154
q-8 5 -10 14.5t4 17.5l14 25q15 19 35 6l244 -180q6 -5 7 -14t-3 -17z" />
    <glyph glyph-name="Eacute" unicode="&#xc9;" 
d="M205 25v1384q0 11 7 18t17 7h861q10 0 17 -7t7 -18v-29q0 -10 -7 -17t-17 -7h-791v-600h621q10 0 17 -7t7 -18v-29q0 -10 -7 -17t-17 -7h-621v-600h791q10 0 17 -7t7 -18v-28q0 -11 -7 -18t-17 -7h-861q-10 0 -17 7t-7 18zM469 1624q-4 8 -3 17t7 14l244 180q20 13 35 -6
l14 -25q6 -8 4 -17.5t-10 -14.5l-260 -154q-8 -4 -17 -2t-14 8z" />
    <glyph glyph-name="Ecircumflex" unicode="&#xca;" 
d="M205 25v1384q0 11 7 18t17 7h861q10 0 17 -7t7 -18v-29q0 -10 -7 -17t-17 -7h-791v-600h621q10 0 17 -7t7 -18v-29q0 -10 -7 -17t-17 -7h-621v-600h791q10 0 17 -7t7 -18v-28q0 -11 -7 -18t-17 -7h-861q-10 0 -17 7t-7 18zM350 1624q-4 8 -3 17t7 14l244 180q20 14 41 0
l244 -180q6 -5 7 -14t-3 -17q-5 -6 -14 -8t-17 2l-238 139l-237 -139q-8 -4 -17 -2t-14 8z" />
    <glyph glyph-name="Edieresis" unicode="&#xcb;" 
d="M291 1690q0 31 19.5 52t49.5 21q31 0 52.5 -21t21.5 -52t-21.5 -51.5t-52.5 -20.5q-30 0 -49.5 20.5t-19.5 51.5zM803 1690q0 31 19.5 52t49.5 21q31 0 52.5 -21t21.5 -52t-21.5 -51.5t-52.5 -20.5q-30 0 -49.5 20.5t-19.5 51.5zM205 25v1384q0 11 7 18t17 7h861
q10 0 17 -7t7 -18v-29q0 -10 -7 -17t-17 -7h-791v-600h621q10 0 17 -7t7 -18v-29q0 -10 -7 -17t-17 -7h-621v-600h791q10 0 17 -7t7 -18v-28q0 -11 -7 -18t-17 -7h-861q-10 0 -17 7t-7 18z" />
    <glyph glyph-name="Igrave" unicode="&#xcc;" horiz-adv-x="405" 
d="M246 1409v-1384q0 -11 -7 -18t-18 -7h-45q-10 0 -17 7t-7 18v1384q0 11 7 18t17 7h45q11 0 18 -7t7 -18zM352 1628q-5 -6 -13.5 -8t-16.5 2l-261 154q-8 5 -10 14.5t4 17.5l15 25q15 19 34 6l244 -180q6 -5 7 -14t-3 -17z" />
    <glyph glyph-name="Iacute" unicode="&#xcd;" horiz-adv-x="405" 
d="M246 1409v-1384q0 -11 -7 -18t-18 -7h-45q-10 0 -17 7t-7 18v1384q0 11 7 18t17 7h45q11 0 18 -7t7 -18zM53 1624q-4 8 -3 17t7 14l244 180q20 13 35 -6l14 -25q6 -8 4 -17.5t-10 -14.5l-260 -154q-8 -4 -17 -2t-14 8z" />
    <glyph glyph-name="Icircumflex" unicode="&#xce;" horiz-adv-x="561" 
d="M324 1409v-1384q0 -11 -7 -18t-18 -7h-45q-10 0 -17.5 7t-7.5 18v1384q0 11 7.5 18t17.5 7h45q11 0 18 -7t7 -18zM12 1624q-4 8 -3 17t7 14l244 180q20 14 41 0l244 -180q6 -5 7 -14t-3 -17q-5 -6 -14 -8t-17 2l-237 139l-238 -139q-8 -4 -17 -2t-14 8z" />
    <glyph glyph-name="Idieresis" unicode="&#xcf;" horiz-adv-x="655" 
d="M0 1690q0 31 20 52t50 21q31 0 52 -21t21 -52t-21 -51.5t-52 -20.5t-50.5 20.5t-19.5 51.5zM512 1690q0 31 20 52t50 21q31 0 52 -21t21 -52t-21 -51.5t-52 -20.5t-50.5 20.5t-19.5 51.5zM371 1409v-1384q0 -11 -7.5 -18t-17.5 -7h-45q-11 0 -18 7t-7 18v1384q0 11 7 18
t18 7h45q10 0 17.5 -7t7.5 -18z" />
    <glyph glyph-name="Eth" unicode="&#xd0;" horiz-adv-x="1511" 
d="M115 770h90v639q0 11 7 18t17 7h451q114 0 211.5 -24t168.5 -65t128.5 -98.5t94 -120.5t61 -134.5t35 -138.5t10.5 -134q0 -98 -20.5 -193t-72 -192t-129.5 -169.5t-204 -118.5t-283 -46h-451q-10 0 -17 7t-7 18v671h-90q-11 0 -18 7t-7 18v24q0 11 7 18t18 7zM299 78
h381q110 0 201.5 27t154 70.5t111.5 102.5t77 118t46 123t24 111.5t6 88.5t-6 88.5t-24 111t-46 122t-77 117t-111.5 101.5t-154 70t-201.5 27h-381v-586h389q10 0 17.5 -7t7.5 -18v-24q0 -11 -7.5 -18t-17.5 -7h-389v-618z" />
    <glyph glyph-name="Ntilde" unicode="&#xd1;" horiz-adv-x="1544" 
d="M205 25v1405q0 6 5 11t11 5q18 0 27 -12l997 -1227v1202q0 11 7.5 18t17.5 7h45q10 0 17 -7t7 -18v-1401q0 -8 -5.5 -13t-12.5 -5q-17 0 -31 14l-991 1219v-1198q0 -11 -7.5 -18t-17.5 -7h-45q-10 0 -17 7t-7 18zM1040 1757l9 -6q7 -4 10 -15t-2 -18q-66 -100 -172 -100
q-38 0 -70.5 14t-51.5 31t-48.5 31t-63.5 14q-62 0 -112 -70q-4 -9 -15 -12t-20 2l-6 4q-9 5 -13 14.5t0 18.5q59 115 170 115q41 0 80.5 -23t77.5 -46t74 -23q72 0 119 61q6 8 16 10t18 -2z" />
    <glyph glyph-name="Ograve" unicode="&#xd2;" horiz-adv-x="1660" 
d="M829 -14q-114 0 -211 25t-168 67t-128 101t-93.5 124t-61 138t-34.5 141t-10 135q0 68 10 136.5t34.5 142t61 138.5t93.5 123.5t128 100.5t168 67t211 25t212 -25t169 -67t128 -100.5t94 -123.5t61.5 -138.5t34.5 -142t10 -136.5q0 -79 -15 -159t-46.5 -164t-87.5 -156
t-131.5 -129t-186 -90t-242.5 -33zM829 1370q-110 0 -202 -26.5t-153.5 -69.5t-109.5 -102t-75 -118t-44 -124.5t-22.5 -114.5t-5.5 -94q0 -43 4.5 -89t20.5 -112.5t41.5 -125.5t73 -120.5t109 -105.5t155.5 -72t208 -28q110 0 201.5 26.5t153.5 68.5t110 100.5t75.5 117.5
t45 124.5t23.5 115.5t6 96t-6 96.5t-23.5 116t-45 125t-75.5 118t-110 101.5t-153.5 69.5t-201.5 26.5zM979 1636q-5 -6 -14 -8t-17 2l-260 154q-8 5 -10 15t4 18l14 24q15 19 35 6l244 -180q6 -5 7 -14t-3 -17z" />
    <glyph glyph-name="Oacute" unicode="&#xd3;" horiz-adv-x="1660" 
d="M829 -14q-114 0 -211 25t-168 67t-128 101t-93.5 124t-61 138t-34.5 141t-10 135q0 68 10 136.5t34.5 142t61 138.5t93.5 123.5t128 100.5t168 67t211 25t212 -25t169 -67t128 -100.5t94 -123.5t61.5 -138.5t34.5 -142t10 -136.5q0 -79 -15 -159t-46.5 -164t-87.5 -156
t-131.5 -129t-186 -90t-242.5 -33zM829 1370q-110 0 -202 -26.5t-153.5 -69.5t-109.5 -102t-75 -118t-44 -124.5t-22.5 -114.5t-5.5 -94q0 -43 4.5 -89t20.5 -112.5t41.5 -125.5t73 -120.5t109 -105.5t155.5 -72t208 -28q110 0 201.5 26.5t153.5 68.5t110 100.5t75.5 117.5
t45 124.5t23.5 115.5t6 96t-6 96.5t-23.5 116t-45 125t-75.5 118t-110 101.5t-153.5 69.5t-201.5 26.5zM680 1636q-4 8 -3 17t7 14l244 180q20 13 35 -6l14 -24q6 -8 4 -18t-10 -15l-260 -154q-8 -4 -17 -2t-14 8z" />
    <glyph glyph-name="Ocircumflex" unicode="&#xd4;" horiz-adv-x="1660" 
d="M829 -14q-114 0 -211 25t-168 67t-128 101t-93.5 124t-61 138t-34.5 141t-10 135q0 68 10 136.5t34.5 142t61 138.5t93.5 123.5t128 100.5t168 67t211 25t212 -25t169 -67t128 -100.5t94 -123.5t61.5 -138.5t34.5 -142t10 -136.5q0 -79 -15 -159t-46.5 -164t-87.5 -156
t-131.5 -129t-186 -90t-242.5 -33zM829 1370q-110 0 -202 -26.5t-153.5 -69.5t-109.5 -102t-75 -118t-44 -124.5t-22.5 -114.5t-5.5 -94q0 -43 4.5 -89t20.5 -112.5t41.5 -125.5t73 -120.5t109 -105.5t155.5 -72t208 -28q110 0 201.5 26.5t153.5 68.5t110 100.5t75.5 117.5
t45 124.5t23.5 115.5t6 96t-6 96.5t-23.5 116t-45 125t-75.5 118t-110 101.5t-153.5 69.5t-201.5 26.5zM561 1624q-4 8 -3 17t7 14l244 180q21 14 41 0l244 -180q6 -5 7 -14t-3 -17q-5 -6 -14 -8t-17 2l-238 139l-237 -139q-8 -4 -17 -2t-14 8z" />
    <glyph glyph-name="Otilde" unicode="&#xd5;" horiz-adv-x="1660" 
d="M829 -14q-114 0 -211 25t-168 67t-128 101t-93.5 124t-61 138t-34.5 141t-10 135q0 68 10 136.5t34.5 142t61 138.5t93.5 123.5t128 100.5t168 67t211 25t212 -25t169 -67t128 -100.5t94 -123.5t61.5 -138.5t34.5 -142t10 -136.5q0 -79 -15 -159t-46.5 -164t-87.5 -156
t-131.5 -129t-186 -90t-242.5 -33zM829 1370q-110 0 -202 -26.5t-153.5 -69.5t-109.5 -102t-75 -118t-44 -124.5t-22.5 -114.5t-5.5 -94q0 -43 4.5 -89t20.5 -112.5t41.5 -125.5t73 -120.5t109 -105.5t155.5 -72t208 -28q110 0 201.5 26.5t153.5 68.5t110 100.5t75.5 117.5
t45 124.5t23.5 115.5t6 96t-6 96.5t-23.5 116t-45 125t-75.5 118t-110 101.5t-153.5 69.5t-201.5 26.5zM1098 1757l8 -6q7 -4 10 -15t-2 -18q-66 -100 -172 -100q-38 0 -70.5 14t-51 31t-48 31t-63.5 14q-63 0 -113 -70q-4 -9 -15 -12t-20 2l-6 4q-9 5 -12.5 14.5t0.5 18.5
q59 115 170 115q33 0 65 -14.5t54 -31.5t52.5 -31.5t59.5 -14.5q72 0 119 61q6 8 16.5 10t18.5 -2z" />
    <glyph glyph-name="Odieresis" unicode="&#xd6;" horiz-adv-x="1660" 
d="M829 -14q-114 0 -211 25t-168 67t-128 101t-93.5 124t-61 138t-34.5 141t-10 135q0 68 10 136.5t34.5 142t61 138.5t93.5 123.5t128 100.5t168 67t211 25t212 -25t169 -67t128 -100.5t94 -123.5t61.5 -138.5t34.5 -142t10 -136.5q0 -79 -15 -159t-46.5 -164t-87.5 -156
t-131.5 -129t-186 -90t-242.5 -33zM829 1370q-110 0 -202 -26.5t-153.5 -69.5t-109.5 -102t-75 -118t-44 -124.5t-22.5 -114.5t-5.5 -94q0 -43 4.5 -89t20.5 -112.5t41.5 -125.5t73 -120.5t109 -105.5t155.5 -72t208 -28q110 0 201.5 26.5t153.5 68.5t110 100.5t75.5 117.5
t45 124.5t23.5 115.5t6 96t-6 96.5t-23.5 116t-45 125t-75.5 118t-110 101.5t-153.5 69.5t-201.5 26.5zM502 1690q0 31 19.5 52t49.5 21q31 0 52.5 -21t21.5 -52t-21.5 -51.5t-52.5 -20.5q-30 0 -49.5 20.5t-19.5 51.5zM1014 1690q0 31 19.5 52t49.5 21q31 0 52.5 -21
t21.5 -52t-21.5 -51.5t-52.5 -20.5q-30 0 -49.5 20.5t-19.5 51.5z" />
    <glyph glyph-name="multiply" unicode="&#xd7;" horiz-adv-x="1032" 
d="M516 449l240 239q8 8 18.5 8t16.5 -8l18 -18q7 -6 7 -17t-7 -18l-240 -240l240 -239q7 -6 7 -17t-7 -18l-18 -19q-6 -6 -16.5 -6t-18.5 6l-240 242l-242 -244q-6 -6 -16 -6t-18 6l-19 19q-6 7 -6 18t6 17l244 241l-244 242q-6 7 -6 18t6 17l19 18q8 8 18 8t16 -8z" />
    <glyph glyph-name="Oslash" unicode="&#xd8;" horiz-adv-x="1660" 
d="M805 -14q-261 6 -428 143l-117 -139q-8 -8 -20 -8q-9 0 -15 6l-16 12q-8 5 -8 18q0 11 6 17l117 141q-103 108 -152 253t-49 288q0 68 10 136.5t34.5 142t61 138.5t93.5 123.5t128 100.5t168 67t211 25q276 0 451 -139l113 133q5 8 18 8q10 0 16 -6l17 -12q8 -8 8 -19
q0 -10 -6 -16l-113 -135q108 -108 156.5 -253t48.5 -294q0 -101 -21 -198t-74.5 -195.5t-134 -172t-210.5 -119.5t-293 -46zM829 68q110 0 201.5 26.5t153.5 68.5t110 100.5t75.5 117.5t45 124.5t23.5 115.5t6 96q0 68 -12 141t-52 169t-104 167l-844 -999
q150 -127 397 -127zM829 1370q-110 0 -202 -26.5t-153.5 -69.5t-109.5 -102t-75 -118t-44 -124.5t-22.5 -114.5t-5.5 -94q0 -47 6 -98t22 -118.5t51 -137t85 -125.5l844 1001q-154 127 -396 127z" />
    <glyph glyph-name="Ugrave" unicode="&#xd9;" horiz-adv-x="1456" 
d="M725 70q86 0 157.5 25t118.5 66t81.5 90t53 102.5t27 97t8.5 79.5v879q0 11 7.5 18t17.5 7h51q11 0 18 -7t7 -18v-879q0 -74 -17.5 -147.5t-59.5 -146t-103 -127.5t-156 -89t-211 -34q-115 0 -209 34t-154.5 89t-101.5 127.5t-58.5 146t-17.5 147.5v879q0 11 7 18t18 7
h43q10 0 17 -7t7 -18v-879q0 -43 11.5 -97t44 -119.5t80.5 -118.5t129.5 -89t183.5 -36zM877 1636q-7 -10 -21 -10q-2 0 -10 4l-260 154q-11 7 -11 20q0 8 5 13l14 24q7 10 20 10q7 0 15 -4l243 -180q9 -9 9 -18q0 -5 -4 -13z" />
    <glyph glyph-name="Uacute" unicode="&#xda;" horiz-adv-x="1456" 
d="M725 70q86 0 157.5 25t118.5 66t81.5 90t53 102.5t27 97t8.5 79.5v879q0 11 7.5 18t17.5 7h51q11 0 18 -7t7 -18v-879q0 -74 -17.5 -147.5t-59.5 -146t-103 -127.5t-156 -89t-211 -34q-115 0 -209 34t-154.5 89t-101.5 127.5t-58.5 146t-17.5 147.5v879q0 11 7 18t18 7
h43q10 0 17 -7t7 -18v-879q0 -43 11.5 -97t44 -119.5t80.5 -118.5t129.5 -89t183.5 -36zM580 1636q-5 10 -5 13q0 9 9 18l243 180q8 4 15 4q13 0 20 -10l15 -24q4 -4 4 -13q0 -13 -11 -20l-260 -154q-8 -4 -10 -4q-13 0 -20 10z" />
    <glyph glyph-name="Ucircumflex" unicode="&#xdb;" horiz-adv-x="1456" 
d="M725 70q86 0 157.5 25t118.5 66t81.5 90t53 102.5t27 97t8.5 79.5v879q0 11 7.5 18t17.5 7h51q11 0 18 -7t7 -18v-879q0 -74 -17.5 -147.5t-59.5 -146t-103 -127.5t-156 -89t-211 -34q-115 0 -209 34t-154.5 89t-101.5 127.5t-58.5 146t-17.5 147.5v879q0 11 7 18t18 7
h43q10 0 17 -7t7 -18v-879q0 -43 11.5 -97t44 -119.5t80.5 -118.5t129.5 -89t183.5 -36zM459 1624q-4 8 -4 12q0 14 8 19l244 180q9 6 20 6q12 0 21 -6l243 -180q8 -8 8 -19q0 -9 -7 -15.5t-17 -6.5q-2 0 -10 4l-238 139l-238 -139q-8 -4 -12 -4q-11 0 -18 10z" />
    <glyph glyph-name="Udieresis" unicode="&#xdc;" horiz-adv-x="1456" 
d="M399 1690q0 31 20 52t50 21q31 0 52.5 -21t21.5 -52t-21.5 -51.5t-52.5 -20.5t-50.5 20.5t-19.5 51.5zM911 1690q0 31 20 52t50 21q31 0 52.5 -21t21.5 -52t-21.5 -51.5t-52.5 -20.5t-50.5 20.5t-19.5 51.5zM725 70q86 0 157.5 25t118.5 66t81.5 90t53 102.5t27 97
t8.5 79.5v879q0 11 7.5 18t17.5 7h51q11 0 18 -7t7 -18v-879q0 -74 -17.5 -147.5t-59.5 -146t-103 -127.5t-156 -89t-211 -34q-115 0 -209 34t-154.5 89t-101.5 127.5t-58.5 146t-17.5 147.5v879q0 11 7 18t18 7h43q10 0 17 -7t7 -18v-879q0 -43 11.5 -97t44 -119.5
t80.5 -118.5t129.5 -89t183.5 -36z" />
    <glyph glyph-name="Yacute" unicode="&#xdd;" horiz-adv-x="1187" 
d="M543 25v632l-469 756q-3 6 1 13.5t11 7.5h57q23 0 37 -21l414 -676l414 676q14 21 36 21h58q7 0 11 -7.5t1 -13.5l-469 -758v-630q0 -11 -7 -18t-17 -7h-54q-10 0 -17 7t-7 18zM444 1624q-4 8 -2.5 17t7.5 14l243 180q20 13 35 -6l14 -25q6 -8 4 -17.5t-10 -14.5
l-260 -154q-8 -4 -17 -2t-14 8z" />
    <glyph glyph-name="Thorn" unicode="&#xde;" horiz-adv-x="1255" 
d="M637 205h-336v-180q0 -11 -7.5 -18t-17.5 -7h-47q-10 0 -17 7t-7 18v1384q0 11 7 18t17 7h47q10 0 17.5 -7t7.5 -18v-180h336q110 0 198 -33.5t142.5 -86t90.5 -122t50.5 -136.5t14.5 -134t-14.5 -134t-50.5 -136.5t-90.5 -122t-142.5 -86t-198 -33.5zM301 1159v-885h320
q100 0 177.5 33.5t121.5 83t72.5 113t38 115t9.5 98.5t-9.5 98.5t-38 115t-72.5 112.5t-121.5 82.5t-177.5 33.5h-320z" />
    <glyph glyph-name="germandbls" unicode="&#xdf;" horiz-adv-x="1300" 
d="M989 336q0 53 -21.5 100t-52.5 82t-62.5 66.5t-53 66.5t-21.5 70q0 33 26.5 75.5t58.5 80t58.5 96.5t26.5 121q0 9 -1 21.5t-7 43.5t-17 58.5t-34.5 60t-55.5 56t-84 39.5t-116 16q-39 0 -78 -6.5t-87 -28t-84 -55t-60.5 -95t-24.5 -141.5v-1182q0 -10 -7 -17t-18 -7h-45
q-11 0 -17.5 6.5t-6.5 17.5v1178q0 81 22 146t54 105.5t77 70.5t82.5 43.5t79.5 21.5t58.5 9t29.5 1q100 0 178 -26.5t123.5 -66t75 -91t39.5 -95t10 -85.5q0 -62 -17 -111.5t-41.5 -81t-49 -58t-41.5 -56t-17 -62.5q0 -34 17 -63t42 -49.5t55 -47.5t55 -55t42 -75t17 -105
q0 -155 -118 -248.5t-347 -102.5q-11 0 -18 7.5t-7 17.5v23q0 10 7 17t18 7q101 3 174 29.5t111.5 69.5t55.5 89.5t17 98.5z" />
    <glyph glyph-name="agrave" unicode="&#xe0;" horiz-adv-x="1073" 
d="M229 915l-6 25q-3 9 1.5 18.5t13.5 14.5q147 67 297 67q73 0 131 -12.5t96.5 -33t66.5 -53.5t43 -65t24 -78t11 -83t2 -88v-602q0 -11 -7 -18t-17 -7h-8q-11 0 -19.5 7.5t-9.5 17.5l-19 133q-147 -174 -362 -174q-92 0 -159 24t-101.5 56.5t-54.5 79.5t-24.5 79t-4.5 68
q0 91 35 155.5t96.5 99t131 49.5t153.5 15q52 0 139.5 -9t136.5 -21v57q0 101 -19 167t-57.5 100t-84.5 46.5t-113 12.5q-113 0 -281 -62q-9 -3 -18.5 1t-12.5 13zM815 248v254q-121 33 -244 33q-57 0 -102 -4.5t-94 -20t-81.5 -41t-53.5 -70.5t-21 -106q0 -113 70.5 -173.5
t183.5 -60.5q101 0 202.5 60t139.5 129zM686 1219q-5 -6 -14 -8.5t-17 1.5l-260 154q-8 5 -10 15t4 18l14 24q16 20 35 7l244 -181q15 -11 4 -30z" />
    <glyph glyph-name="aacute" unicode="&#xe1;" horiz-adv-x="1073" 
d="M229 915l-6 25q-3 9 1.5 18.5t13.5 14.5q147 67 297 67q73 0 131 -12.5t96.5 -33t66.5 -53.5t43 -65t24 -78t11 -83t2 -88v-602q0 -11 -7 -18t-17 -7h-8q-11 0 -19.5 7.5t-9.5 17.5l-19 133q-147 -174 -362 -174q-92 0 -159 24t-101.5 56.5t-54.5 79.5t-24.5 79t-4.5 68
q0 91 35 155.5t96.5 99t131 49.5t153.5 15q52 0 139.5 -9t136.5 -21v57q0 101 -19 167t-57.5 100t-84.5 46.5t-113 12.5q-113 0 -281 -62q-9 -3 -18.5 1t-12.5 13zM815 248v254q-121 33 -244 33q-57 0 -102 -4.5t-94 -20t-81.5 -41t-53.5 -70.5t-21 -106q0 -113 70.5 -173.5
t183.5 -60.5q101 0 202.5 60t139.5 129zM387 1214q-4 8 -3 17t7 14l244 180q20 13 35 -6l14 -24q6 -8 4 -18t-10 -15l-260 -154q-8 -4 -17 -2t-14 8z" />
    <glyph glyph-name="acircumflex" unicode="&#xe2;" horiz-adv-x="1073" 
d="M229 915l-6 25q-3 9 1.5 18.5t13.5 14.5q147 67 297 67q73 0 131 -12.5t96.5 -33t66.5 -53.5t43 -65t24 -78t11 -83t2 -88v-602q0 -11 -7 -18t-17 -7h-8q-11 0 -19.5 7.5t-9.5 17.5l-19 133q-147 -174 -362 -174q-92 0 -159 24t-101.5 56.5t-54.5 79.5t-24.5 79t-4.5 68
q0 91 35 155.5t96.5 99t131 49.5t153.5 15q52 0 139.5 -9t136.5 -21v57q0 101 -19 167t-57.5 100t-84.5 46.5t-113 12.5q-113 0 -281 -62q-9 -3 -18.5 1t-12.5 13zM815 248v254q-121 33 -244 33q-57 0 -102 -4.5t-94 -20t-81.5 -41t-53.5 -70.5t-21 -106q0 -113 70.5 -173.5
t183.5 -60.5q101 0 202.5 60t139.5 129zM268 1214q-4 8 -3 17t7 14l244 180q20 14 41 0l244 -180q6 -5 7 -14t-3 -17q-5 -6 -14 -8t-17 2l-237 140l-238 -140q-8 -4 -17 -2t-14 8z" />
    <glyph glyph-name="atilde" unicode="&#xe3;" horiz-adv-x="1073" 
d="M229 915l-6 25q-3 9 1.5 18.5t13.5 14.5q147 67 297 67q73 0 131 -12.5t96.5 -33t66.5 -53.5t43 -65t24 -78t11 -83t2 -88v-602q0 -11 -7 -18t-17 -7h-8q-11 0 -19.5 7.5t-9.5 17.5l-19 133q-147 -174 -362 -174q-92 0 -159 24t-101.5 56.5t-54.5 79.5t-24.5 79t-4.5 68
q0 91 35 155.5t96.5 99t131 49.5t153.5 15q52 0 139.5 -9t136.5 -21v57q0 101 -19 167t-57.5 100t-84.5 46.5t-113 12.5q-113 0 -281 -62q-9 -3 -18.5 1t-12.5 13zM815 248v254q-121 33 -244 33q-57 0 -102 -4.5t-94 -20t-81.5 -41t-53.5 -70.5t-21 -106q0 -113 70.5 -173.5
t183.5 -60.5q101 0 202.5 60t139.5 129zM805 1348l8 -7q7 -5 10 -15t-2 -17q-67 -101 -172 -101q-38 0 -70.5 14t-51 31t-48 31t-63.5 14q-64 0 -113 -69q-4 -9 -15 -12t-20 2l-6 4q-22 11 -12 32q59 115 170 115q33 0 65 -14.5t54 -31.5t52.5 -31.5t59.5 -14.5q72 0 119 61
q6 8 16.5 10.5t18.5 -1.5z" />
    <glyph glyph-name="adieresis" unicode="&#xe4;" horiz-adv-x="1073" 
d="M229 915l-6 25q-3 9 1.5 18.5t13.5 14.5q147 67 297 67q73 0 131 -12.5t96.5 -33t66.5 -53.5t43 -65t24 -78t11 -83t2 -88v-602q0 -11 -7 -18t-17 -7h-8q-11 0 -19.5 7.5t-9.5 17.5l-19 133q-147 -174 -362 -174q-92 0 -159 24t-101.5 56.5t-54.5 79.5t-24.5 79t-4.5 68
q0 91 35 155.5t96.5 99t131 49.5t153.5 15q52 0 139.5 -9t136.5 -21v57q0 101 -19 167t-57.5 100t-84.5 46.5t-113 12.5q-113 0 -281 -62q-9 -3 -18.5 1t-12.5 13zM815 248v254q-121 33 -244 33q-57 0 -102 -4.5t-94 -20t-81.5 -41t-53.5 -70.5t-21 -106q0 -113 70.5 -173.5
t183.5 -60.5q101 0 202.5 60t139.5 129zM213 1305q6 22 24 35.5t42 13.5q31 0 52 -21.5t21 -52.5t-21 -51.5t-52 -20.5q-53 0 -66 47q-9 25 0 50zM721 1280q0 31 20 52.5t50 21.5q31 0 52 -21.5t21 -52.5t-21 -51.5t-52 -20.5t-50.5 20.5t-19.5 51.5z" />
    <glyph glyph-name="aring" unicode="&#xe5;" horiz-adv-x="1073" 
d="M352 1391q0 78 53.5 131t131.5 53q75 0 128.5 -53.5t53.5 -130.5q0 -75 -53.5 -129t-128.5 -54q-77 0 -131 54t-54 129zM410 1391q0 -50 38 -87.5t89 -37.5q49 0 87 38t38 87q0 51 -37.5 89t-87.5 38q-52 0 -89.5 -36.5t-37.5 -90.5zM229 915l-6 25q-3 9 1.5 18.5
t13.5 14.5q147 67 297 67q73 0 131 -12.5t96.5 -33t66.5 -53.5t43 -65t24 -78t11 -83t2 -88v-602q0 -11 -7 -18t-17 -7h-8q-11 0 -19.5 7.5t-9.5 17.5l-19 133q-147 -174 -362 -174q-92 0 -159 24t-101.5 56.5t-54.5 79.5t-24.5 79t-4.5 68q0 91 35 155.5t96.5 99t131 49.5
t153.5 15q52 0 139.5 -9t136.5 -21v57q0 101 -19 167t-57.5 100t-84.5 46.5t-113 12.5q-113 0 -281 -62q-9 -3 -18.5 1t-12.5 13zM815 248v254q-121 33 -244 33q-57 0 -102 -4.5t-94 -20t-81.5 -41t-53.5 -70.5t-21 -106q0 -113 70.5 -173.5t183.5 -60.5q101 0 202.5 60
t139.5 129z" />
    <glyph glyph-name="ae" unicode="&#xe6;" horiz-adv-x="1712" 
d="M1591 526h-786q0 -205 118 -334t308 -129q168 0 295 95q8 4 16 4q11 0 26 -16.5t15 -28.5q0 -10 -10 -17q-153 -118 -352 -118q-257 0 -394 174q-146 -172 -360 -172q-92 0 -159 24t-101.5 56.5t-54.5 79.5t-24.5 79t-4.5 68q0 91 35 155.5t96.5 99t131 49.5t153.5 15
q66 0 176 -14q13 117 69 221q-28 83 -87.5 114.5t-155.5 31.5q-113 0 -281 -62q-2 -2 -8 -2q-20 0 -23 16l-6 25q-2 2 -2 8q0 37 118 64.5t196 27.5q237 0 317 -131q137 140 362 140q192 0 299 -113.5t107 -317.5v-18q1 -17 0.5 -25.5t-3 -22t-9.5 -20t-17 -6.5zM473 59
q90 0 175.5 47t135.5 111q-73 127 -73 299v6q-70 13 -140 13q-57 0 -102 -4.5t-94 -20t-81.5 -41t-53.5 -70.5t-21 -106q0 -113 70.5 -173.5t183.5 -60.5zM1212 967q-164 0 -272 -108.5t-129 -266.5h709q4 18 4 43q0 48 -7 90.5t-28 87t-54.5 76.5t-90.5 53.5t-132 24.5z
" />
    <glyph glyph-name="ccedilla" unicode="&#xe7;" horiz-adv-x="1099" 
d="M598 -152q-4 8 -4 13v121q-106 5 -189.5 39t-135.5 86t-85.5 122t-47 139.5t-13.5 145.5q0 69 14 138t51 141t92.5 126.5t146.5 89.5t206 35q187 0 325 -118q7 -6 8 -17t-5 -18l-17 -21q-17 -17 -37 -4q-129 97 -276 97q-81 0 -154 -29.5t-130 -84t-90.5 -140.5
t-33.5 -191q0 -219 110.5 -337t307.5 -118q130 0 264 91q21 14 35 -7l12 -14q6 -9 5 -20t-9 -17q-62 -52 -128.5 -80t-157.5 -34v-72h38q83 -4 127.5 -55t44.5 -113q0 -93 -59.5 -143t-142.5 -50q-64 0 -135 33q-9 3 -13 13.5t0 19.5l8 14q4 9 14 12.5t19 0.5q55 -21 99 -21
q67 0 98 36t31 85q0 43 -33.5 72.5t-102.5 29.5h-45q-4 0 -12 4z" />
    <glyph glyph-name="egrave" unicode="&#xe8;" horiz-adv-x="1124" 
d="M1004 526h-783q0 -205 117 -334t305 -129q168 0 295 95q8 4 16 4q11 0 26 -16.5t15 -28.5q0 -10 -10 -17q-153 -118 -352 -118q-228 0 -369 148t-141 386q0 69 14 137.5t50.5 141.5t91.5 128t145 90.5t203 35.5q192 0 298.5 -113.5t106.5 -317.5q0 -2 0.5 -18t0 -25
t-2.5 -22.5t-9 -20t-17 -6.5zM600 967q-153 -9 -253 -117t-120 -258h703q4 18 4 43q0 332 -334 332zM711 1227q-7 -10 -21 -10q-2 0 -10 4l-260 153q-10 7 -10 21q0 8 4 12l14 25q7 10 21 10q6 0 14 -4l244 -181q8 -8 8 -18q0 -4 -4 -12z" />
    <glyph glyph-name="eacute" unicode="&#xe9;" horiz-adv-x="1124" 
d="M1004 526h-783q0 -205 117 -334t305 -129q168 0 295 95q8 4 16 4q11 0 26 -16.5t15 -28.5q0 -10 -10 -17q-153 -118 -352 -118q-228 0 -369 148t-141 386q0 69 14 137.5t50.5 141.5t91.5 128t145 90.5t203 35.5q192 0 298.5 -113.5t106.5 -317.5q0 -2 0.5 -18t0 -25
t-2.5 -22.5t-9 -20t-17 -6.5zM600 967q-153 -9 -253 -117t-120 -258h703q4 18 4 43q0 332 -334 332zM467 1214q-4 8 -4 13q0 13 8 18l244 180q10 5 14 5q10 0 21 -11l14 -24q4 -8 4 -13q0 -13 -10 -20l-260 -154q-8 -4 -13 -4q-11 0 -18 10z" />
    <glyph glyph-name="ecircumflex" unicode="&#xea;" horiz-adv-x="1124" 
d="M1004 526h-783q0 -205 117 -334t305 -129q168 0 295 95q8 4 16 4q11 0 26 -16.5t15 -28.5q0 -10 -10 -17q-153 -118 -352 -118q-228 0 -369 148t-141 386q0 69 14 137.5t50.5 141.5t91.5 128t145 90.5t203 35.5q192 0 298.5 -113.5t106.5 -317.5q0 -2 0.5 -18t0 -25
t-2.5 -22.5t-9 -20t-17 -6.5zM600 967q-153 -9 -253 -117t-120 -258h703q4 18 4 43q0 332 -334 332zM344 1214q-4 8 -4 13q0 13 8 18l244 180q10 7 20 7t21 -7l244 -180q8 -8 8 -18q0 -9 -7.5 -16t-17.5 -7q-2 0 -10 4l-238 140l-237 -140q-8 -4 -13 -4q-11 0 -18 10z" />
    <glyph glyph-name="edieresis" unicode="&#xeb;" horiz-adv-x="1124" 
d="M299 1280q0 31 20 52.5t50 21.5q31 0 52 -21.5t21 -52.5t-21 -51.5t-52 -20.5t-50.5 20.5t-19.5 51.5zM811 1280q0 31 20 52.5t50 21.5q31 0 52 -21.5t21 -52.5t-21 -51.5t-52 -20.5t-50.5 20.5t-19.5 51.5zM1004 526h-783q0 -205 117 -334t305 -129q168 0 295 95
q8 4 16 4q11 0 26 -16.5t15 -28.5q0 -10 -10 -17q-153 -118 -352 -118q-228 0 -369 148t-141 386q0 69 14 137.5t50.5 141.5t91.5 128t145 90.5t203 35.5q192 0 298.5 -113.5t106.5 -317.5q0 -2 0.5 -18t0 -25t-2.5 -22.5t-9 -20t-17 -6.5zM625 967q-163 0 -270 -108.5
t-128 -266.5h703q4 18 4 43q0 320 -309 332z" />
    <glyph glyph-name="igrave" unicode="&#xec;" horiz-adv-x="405" 
d="M244 999v-976q0 -11 -7 -18t-18 -7h-43q-10 0 -17 7t-7 18v976q0 11 7 18t17 7h43q11 0 18 -7t7 -18zM352 1219q-13 -17 -30 -7l-261 154q-8 5 -10 15t4 18l15 24q15 19 34 7l244 -181q15 -11 4 -30z" />
    <glyph glyph-name="iacute" unicode="&#xed;" horiz-adv-x="405" 
d="M244 999v-976q0 -11 -7 -18t-18 -7h-43q-10 0 -17 7t-7 18v976q0 11 7 18t17 7h43q11 0 18 -7t7 -18zM53 1214q-4 8 -3 17t7 14l244 180q20 13 35 -6l14 -24q6 -8 4 -18t-10 -15l-260 -154q-8 -4 -17 -2t-14 8z" />
    <glyph glyph-name="icircumflex" unicode="&#xee;" horiz-adv-x="561" 
d="M322 999v-976q0 -11 -7 -18t-18 -7h-43q-10 0 -17.5 7t-7.5 18v976q0 11 7.5 18t17.5 7h43q11 0 18 -7t7 -18zM12 1214q-4 8 -3 17t7 14l244 180q20 14 41 0l244 -180q6 -5 7 -14t-3 -17q-5 -6 -14 -8t-17 2l-237 140l-238 -140q-8 -4 -17 -2t-14 8z" />
    <glyph glyph-name="idieresis" unicode="&#xef;" horiz-adv-x="655" 
d="M0 1280q0 31 20 52.5t50 21.5q31 0 52 -21.5t21 -52.5t-21 -51.5t-52 -20.5t-50.5 20.5t-19.5 51.5zM512 1280q0 31 20 52.5t50 21.5q31 0 52 -21.5t21 -52.5t-21 -51.5t-52 -20.5t-50.5 20.5t-19.5 51.5zM369 999v-976q0 -11 -7.5 -18t-17.5 -7h-43q-11 0 -18 7t-7 18
v976q0 11 7 18t18 7h43q10 0 17.5 -7t7.5 -18z" />
    <glyph glyph-name="eth" unicode="&#xf0;" horiz-adv-x="1185" 
d="M471 1413l18 25q13 19 35 8q83 -50 164 -125l141 141q6 8 16.5 8t16.5 -8l15 -12q6 -7 5 -18.5t-8 -18.5l-139 -139q144 -152 233 -359t85 -448q0 -61 -13 -122.5t-46.5 -127t-84 -115.5t-134.5 -82t-189 -32q-77 0 -143 17t-112.5 45t-83 66t-59 77.5t-37.5 82
t-20.5 77.5t-5.5 65q-2 61 8.5 120.5t41.5 124.5t81 113t135 79.5t195 31.5q26 0 60.5 -5t85 -17.5t104 -42.5t94.5 -72q-77 272 -256 462l-148 -145q-6 -6 -16 -5.5t-16 7.5l-13 10q-6 7 -6 18t6 17l146 146q-56 56 -150 118q-19 15 -6 35zM586 68q95 0 170.5 36.5
t118.5 94.5t65.5 122.5t22.5 129.5q0 72 -24 135.5t-69.5 112.5t-118.5 77.5t-165 28.5q-94 0 -166 -30t-115 -83t-64.5 -120t-21.5 -146q0 -47 11 -94t38 -95.5t67.5 -85t105.5 -60t145 -23.5z" />
    <glyph glyph-name="ntilde" unicode="&#xf1;" horiz-adv-x="1167" 
d="M299 770v-745q0 -11 -7.5 -18t-17.5 -7h-45q-10 0 -17 7t-7 18v974q0 11 7 18t17 7h4q11 0 19.5 -7.5t9.5 -17.5l21 -145q52 70 124.5 114t133.5 58t123 14q77 0 140 -16t106 -43t75.5 -67.5t51 -83t30 -96.5t15 -101.5t3.5 -104.5v-503q0 -11 -7 -18t-17 -7h-45
q-10 0 -17.5 7t-7.5 18v501q0 40 -1 66t-7.5 75.5t-18.5 83.5t-37 76t-60 67.5t-90 43.5t-124 18q-108 0 -209.5 -60t-144.5 -126zM852 1348l8 -7q8 -5 10 -15t-2 -17q-67 -101 -172 -101q-38 0 -70.5 14t-51 31t-48 31t-63.5 14q-64 0 -113 -69q-4 -9 -15 -12t-20 2l-6 4
q-22 11 -12 32q59 115 170 115q33 0 65 -14.5t54 -31.5t52.5 -31.5t59.5 -14.5q72 0 119 61q6 8 16.5 10.5t18.5 -1.5z" />
    <glyph glyph-name="ograve" unicode="&#xf2;" horiz-adv-x="1265" 
d="M633 1040q113 0 203.5 -34.5t146.5 -89t93 -126t52 -140.5t15 -138q0 -71 -15 -140.5t-52 -140.5t-93 -125t-146.5 -88t-203.5 -34t-203.5 34t-146.5 88t-93 125t-52 140.5t-15 140.5q0 69 15 138t52 140.5t93 126t146.5 89t203.5 34.5zM633 61q73 0 134.5 19t103.5 49
t74.5 71t51 82.5t30.5 86t16 78.5t4 63q0 44 -8.5 95t-35.5 117t-70 117.5t-121 87.5t-179 36q-73 0 -134.5 -19t-103 -49.5t-74 -72.5t-51 -84t-30 -87.5t-15.5 -79t-4 -63.5t4 -63.5t15.5 -78t30 -85.5t51 -82t74 -71t103 -48.5t134.5 -18.5zM782 1219q-13 -17 -30 -7
l-260 154q-8 5 -10.5 15t3.5 18l15 24q16 20 35 7l243 -181q15 -11 4 -30z" />
    <glyph glyph-name="oacute" unicode="&#xf3;" horiz-adv-x="1265" 
d="M633 1040q113 0 203.5 -34.5t146.5 -89t93 -126t52 -140.5t15 -138q0 -71 -15 -140.5t-52 -140.5t-93 -125t-146.5 -88t-203.5 -34t-203.5 34t-146.5 88t-93 125t-52 140.5t-15 140.5q0 69 15 138t52 140.5t93 126t146.5 89t203.5 34.5zM633 61q73 0 134.5 19t103.5 49
t74.5 71t51 82.5t30.5 86t16 78.5t4 63q0 44 -8.5 95t-35.5 117t-70 117.5t-121 87.5t-179 36q-73 0 -134.5 -19t-103 -49.5t-74 -72.5t-51 -84t-30 -87.5t-15.5 -79t-4 -63.5t4 -63.5t15.5 -78t30 -85.5t51 -82t74 -71t103 -48.5t134.5 -18.5zM483 1214q-4 8 -3 17t7 14
l244 180q20 13 35 -6l14 -24q6 -8 4 -18t-10 -15l-260 -154q-8 -4 -17 -2t-14 8z" />
    <glyph glyph-name="ocircumflex" unicode="&#xf4;" horiz-adv-x="1265" 
d="M633 1040q113 0 203.5 -34.5t146.5 -89t93 -126t52 -140.5t15 -138q0 -71 -15 -140.5t-52 -140.5t-93 -125t-146.5 -88t-203.5 -34t-203.5 34t-146.5 88t-93 125t-52 140.5t-15 140.5q0 69 15 138t52 140.5t93 126t146.5 89t203.5 34.5zM633 61q73 0 134.5 19t103.5 49
t74.5 71t51 82.5t30.5 86t16 78.5t4 63q0 44 -8.5 95t-35.5 117t-70 117.5t-121 87.5t-179 36q-73 0 -134.5 -19t-103 -49.5t-74 -72.5t-51 -84t-30 -87.5t-15.5 -79t-4 -63.5t4 -63.5t15.5 -78t30 -85.5t51 -82t74 -71t103 -48.5t134.5 -18.5zM365 1214q-4 8 -3 17t7 14
l243 180q20 14 41 0l244 -180q6 -5 7 -14t-3 -17q-5 -6 -14 -8t-17 2l-237 140l-238 -140q-8 -4 -16.5 -2t-13.5 8z" />
    <glyph glyph-name="otilde" unicode="&#xf5;" horiz-adv-x="1265" 
d="M633 1040q113 0 203.5 -34.5t146.5 -89t93 -126t52 -140.5t15 -138q0 -71 -15 -140.5t-52 -140.5t-93 -125t-146.5 -88t-203.5 -34t-203.5 34t-146.5 88t-93 125t-52 140.5t-15 140.5q0 69 15 138t52 140.5t93 126t146.5 89t203.5 34.5zM633 61q73 0 134.5 19t103.5 49
t74.5 71t51 82.5t30.5 86t16 78.5t4 63q0 44 -8.5 95t-35.5 117t-70 117.5t-121 87.5t-179 36q-73 0 -134.5 -19t-103 -49.5t-74 -72.5t-51 -84t-30 -87.5t-15.5 -79t-4 -63.5t4 -63.5t15.5 -78t30 -85.5t51 -82t74 -71t103 -48.5t134.5 -18.5zM901 1348l8 -7
q8 -5 10.5 -14.5t-1.5 -17.5q-67 -101 -173 -101q-38 0 -70.5 14t-51 31t-48 31t-63.5 14q-64 0 -113 -69q-4 -9 -14.5 -12t-19.5 2l-7 4q-22 11 -12 32q59 115 170 115q41 0 80.5 -23t77.5 -46t74 -23q71 0 118 61q6 8 16.5 10.5t18.5 -1.5z" />
    <glyph glyph-name="odieresis" unicode="&#xf6;" horiz-adv-x="1265" 
d="M633 1040q113 0 203.5 -34.5t146.5 -89t93 -126t52 -140.5t15 -138q0 -71 -15 -140.5t-52 -140.5t-93 -125t-146.5 -88t-203.5 -34t-203.5 34t-146.5 88t-93 125t-52 140.5t-15 140.5q0 69 15 138t52 140.5t93 126t146.5 89t203.5 34.5zM633 61q73 0 134.5 19t103.5 49
t74.5 71t51 82.5t30.5 86t16 78.5t4 63q0 44 -8.5 95t-35.5 117t-70 117.5t-121 87.5t-179 36q-73 0 -134.5 -19t-103 -49.5t-74 -72.5t-51 -84t-30 -87.5t-15.5 -79t-4 -63.5t4 -63.5t15.5 -78t30 -85.5t51 -82t74 -71t103 -48.5t134.5 -18.5zM305 1280q0 31 20 52.5
t50 21.5q31 0 52.5 -21.5t21.5 -52.5t-21.5 -51.5t-52.5 -20.5t-50.5 20.5t-19.5 51.5zM817 1280q0 31 20 52.5t50 21.5q31 0 52.5 -21.5t21.5 -52.5t-21.5 -51.5t-52.5 -20.5t-50.5 20.5t-19.5 51.5z" />
    <glyph glyph-name="divide" unicode="&#xf7;" horiz-adv-x="944" 
d="M147 432h650q11 0 17.5 -7t6.5 -17v-29q0 -11 -7 -18t-17 -7h-650q-10 0 -17 7t-7 18v29q0 10 6.5 17t17.5 7zM391 102q8 27 29.5 43.5t50.5 16.5q35 0 58.5 -24.5t23.5 -59.5t-23.5 -58.5t-58.5 -23.5q-29 0 -51 15.5t-29 41.5q-9 25 0 49zM387 705q0 35 24.5 59
t59.5 24t58.5 -24t23.5 -59t-23.5 -58.5t-58.5 -23.5t-59.5 23.5t-24.5 58.5z" />
    <glyph glyph-name="oslash" unicode="&#xf8;" horiz-adv-x="1265" 
d="M633 1040q193 0 325 -104l74 88q5 8 19 8q10 0 16 -6l16 -12q9 -9 9 -19q0 -9 -7 -16l-75 -90q133 -153 133 -377q0 -71 -15 -140.5t-52 -140.5t-93 -125t-146.5 -88t-203.5 -34q-187 0 -309 88l-78 -95q-8 -8 -21 -8q-8 0 -14 6l-16 13q-9 6 -9 18q0 10 7 17l77 94
q-77 79 -112 183t-35 212q0 69 15 138t52 140.5t93 126t146.5 89t203.5 34.5zM223 512q0 -43 7 -92t33.5 -117t68.5 -115l569 680q-109 95 -268 95q-100 0 -177.5 -36t-120 -87t-69.5 -117.5t-35 -116.5t-8 -94zM633 61q73 0 134 19t102.5 49t73.5 71.5t50.5 83t30.5 86.5
t16 78.5t4 63.5q0 64 -22.5 148.5t-73.5 154.5l-567 -676q98 -78 252 -78z" />
    <glyph glyph-name="ugrave" unicode="&#xf9;" horiz-adv-x="1130" 
d="M909 254v745q0 11 7.5 18t17.5 7h45q11 0 18 -7t7 -18v-974q0 -11 -7 -18t-18 -7h-4q-11 0 -19.5 7.5t-9.5 17.5l-20 145q-52 -70 -124.5 -114t-133.5 -58t-123 -14q-77 0 -140 16t-106 43t-75.5 67.5t-51.5 83t-30 96.5t-15 101.5t-4 104.5v503q0 11 7 18t17 7h46
q10 0 17 -7t7 -18v-501q0 -40 1 -66t7.5 -75.5t18.5 -83.5t37 -76t60 -67.5t90 -43.5t124 -18q108 0 209.5 60t144.5 126zM715 1219q-5 -6 -14 -8.5t-17 1.5l-260 154q-8 5 -10 15t4 18l14 24q16 20 35 7l244 -181q15 -11 4 -30z" />
    <glyph glyph-name="uacute" unicode="&#xfa;" horiz-adv-x="1130" 
d="M909 254v745q0 11 7.5 18t17.5 7h45q11 0 18 -7t7 -18v-974q0 -11 -7 -18t-18 -7h-4q-11 0 -19.5 7.5t-9.5 17.5l-20 145q-52 -70 -124.5 -114t-133.5 -58t-123 -14q-77 0 -140 16t-106 43t-75.5 67.5t-51.5 83t-30 96.5t-15 101.5t-4 104.5v503q0 11 7 18t17 7h46
q10 0 17 -7t7 -18v-501q0 -40 1 -66t7.5 -75.5t18.5 -83.5t37 -76t60 -67.5t90 -43.5t124 -18q108 0 209.5 60t144.5 126zM416 1214q-4 8 -3 17t7 14l244 180q19 13 34 -6l15 -24q6 -8 4 -18t-10 -15l-261 -154q-8 -4 -16.5 -2t-13.5 8z" />
    <glyph glyph-name="ucircumflex" unicode="&#xfb;" horiz-adv-x="1130" 
d="M909 254v745q0 11 7.5 18t17.5 7h45q11 0 18 -7t7 -18v-974q0 -11 -7 -18t-18 -7h-4q-11 0 -19.5 7.5t-9.5 17.5l-20 145q-52 -70 -124.5 -114t-133.5 -58t-123 -14q-77 0 -140 16t-106 43t-75.5 67.5t-51.5 83t-30 96.5t-15 101.5t-4 104.5v503q0 11 7 18t17 7h46
q10 0 17 -7t7 -18v-501q0 -40 1 -66t7.5 -75.5t18.5 -83.5t37 -76t60 -67.5t90 -43.5t124 -18q108 0 209.5 60t144.5 126zM297 1214q-4 8 -3 17t7 14l244 180q21 14 41 0l243 -180q6 -5 7.5 -14t-2.5 -17q-5 -6 -14 -8t-17 2l-238 140l-237 -140q-8 -4 -17 -2t-14 8z" />
    <glyph glyph-name="udieresis" unicode="&#xfc;" horiz-adv-x="1130" 
d="M242 1280q0 31 19.5 52.5t49.5 21.5q31 0 52.5 -21.5t21.5 -52.5t-21.5 -51.5t-52.5 -20.5q-30 0 -49.5 20.5t-19.5 51.5zM754 1280q0 31 19.5 52.5t49.5 21.5q31 0 52.5 -21.5t21.5 -52.5t-21.5 -51.5t-52.5 -20.5q-30 0 -49.5 20.5t-19.5 51.5zM909 254v745
q0 11 7.5 18t17.5 7h45q11 0 18 -7t7 -18v-974q0 -11 -7 -18t-18 -7h-4q-11 0 -19.5 7.5t-9.5 17.5l-20 145q-52 -70 -124.5 -114t-133.5 -58t-123 -14q-77 0 -140 16t-106 43t-75.5 67.5t-51.5 83t-30 96.5t-15 101.5t-4 104.5v503q0 11 7 18t17 7h46q10 0 17 -7t7 -18
v-501q0 -40 1 -66t7.5 -75.5t18.5 -83.5t37 -76t60 -67.5t90 -43.5t124 -18q108 0 209.5 60t144.5 126z" />
    <glyph glyph-name="yacute" unicode="&#xfd;" horiz-adv-x="1120" 
d="M184 1001l377 -895l367 895q10 23 35 23h71q9 0 13.5 -7.5t1.5 -15.5l-600 -1415q-9 -22 -35 -22h-60q-9 0 -13.5 7.5t-0.5 14.5l168 398l-436 1017q-4 7 0.5 15t13.5 8h64q24 0 34 -23zM410 1214q-4 8 -3 17t7 14l243 180q20 13 35 -6l15 -24q6 -8 3.5 -18t-10.5 -15
l-260 -154q-8 -4 -16.5 -2t-13.5 8z" />
    <glyph glyph-name="thorn" unicode="&#xfe;" horiz-adv-x="1245" 
d="M588 -18q-172 7 -330 106v-477q0 -11 -7 -18t-18 -7h-45q-10 0 -17 7t-7 18v1798q0 11 7 18t17 7h45q11 0 18 -7t7 -18v-477q173 106 354 106q112 0 202.5 -34.5t146.5 -89t93.5 -126t52.5 -140.5t15 -138q0 -67 -14.5 -135t-50 -138.5t-89 -124.5t-139 -90.5
t-192.5 -39.5h-49zM258 842v-664q55 -47 162 -83t178 -36q74 0 136.5 18t105.5 47t76.5 69t54 81t33.5 86t17.5 81t4.5 69t-4.5 69t-17.5 81t-33.5 86t-54 81t-76.5 69t-105.5 47t-136.5 18q-71 0 -178 -36t-162 -83z" />
    <glyph glyph-name="ydieresis" unicode="&#xff;" horiz-adv-x="1120" 
d="M184 1001l377 -895l367 895q10 23 35 23h71q9 0 13.5 -7.5t1.5 -15.5l-600 -1415q-9 -22 -35 -22h-60q-9 0 -13.5 7.5t-0.5 14.5l168 398l-436 1017q-4 7 0.5 15t13.5 8h64q24 0 34 -23zM238 1305q14 49 65 49q31 0 52.5 -21.5t21.5 -52.5t-21.5 -51.5t-52.5 -20.5
q-52 0 -65 47q-9 25 0 50zM745 1280q0 31 20 52.5t50 21.5q31 0 52.5 -21.5t21.5 -52.5t-21.5 -51.5t-52.5 -20.5t-50.5 20.5t-19.5 51.5z" />
    <glyph glyph-name="Amacron" unicode="&#x100;" horiz-adv-x="1347" 
d="M1165 23l-164 399h-657l-164 -399q-7 -23 -33 -23h-61q-9 0 -13.5 8t-0.5 15l579 1402q7 15 23 15q14 0 22 -15l580 -1402q4 -7 -0.5 -15t-13.5 -8h-62q-25 0 -35 23zM674 1231l-293 -723h586zM389 1698h567q10 0 17.5 -7t7.5 -18v-26q0 -11 -7.5 -18t-17.5 -7h-567
q-10 0 -17 7t-7 18v26q0 11 7 18t17 7z" />
    <glyph glyph-name="amacron" unicode="&#x101;" horiz-adv-x="1073" 
d="M229 915l-6 25q-3 9 1.5 18.5t13.5 14.5q147 67 297 67q73 0 131 -12.5t96.5 -33t66.5 -53.5t43 -65t24 -78t11 -83t2 -88v-602q0 -11 -7 -18t-17 -7h-8q-11 0 -19.5 7.5t-9.5 17.5l-19 133q-147 -174 -362 -174q-92 0 -159 24t-101.5 56.5t-54.5 79.5t-24.5 79t-4.5 68
q0 91 35 155.5t96.5 99t131 49.5t153.5 15q52 0 139.5 -9t136.5 -21v57q0 101 -19 167t-57.5 100t-84.5 46.5t-113 12.5q-113 0 -281 -62q-9 -3 -18.5 1t-12.5 13zM815 248v254q-121 33 -244 33q-57 0 -102 -4.5t-94 -20t-81.5 -41t-53.5 -70.5t-21 -106q0 -113 70.5 -173.5
t183.5 -60.5q101 0 202.5 60t139.5 129zM256 1288h567q11 0 18 -7t7 -17v-27q0 -11 -7 -18t-18 -7h-567q-10 0 -17.5 7t-7.5 18v27q0 10 7 17t18 7z" />
    <glyph glyph-name="Abreve" unicode="&#x102;" horiz-adv-x="1347" 
d="M1165 23l-164 399h-657l-164 -399q-7 -23 -33 -23h-61q-9 0 -13.5 8t-0.5 15l579 1402q7 15 23 15q14 0 22 -15l580 -1402q4 -7 -0.5 -15t-13.5 -8h-62q-25 0 -35 23zM674 1231l-293 -723h586zM901 1839l6 -2q9 -3 13.5 -12.5t1.5 -18.5q-73 -180 -248 -180
q-174 0 -250 180q-3 9 1 18.5t13 12.5h6q21 7 31 -14q53 -125 199 -125q66 0 117.5 31.5t78.5 95.5q3 9 12.5 13t18.5 1z" />
    <glyph glyph-name="abreve" unicode="&#x103;" horiz-adv-x="1073" 
d="M229 915l-6 25q-3 9 1.5 18.5t13.5 14.5q147 67 297 67q73 0 131 -12.5t96.5 -33t66.5 -53.5t43 -65t24 -78t11 -83t2 -88v-602q0 -11 -7 -18t-17 -7h-8q-11 0 -19.5 7.5t-9.5 17.5l-19 133q-147 -174 -362 -174q-92 0 -159 24t-101.5 56.5t-54.5 79.5t-24.5 79t-4.5 68
q0 91 35 155.5t96.5 99t131 49.5t153.5 15q52 0 139.5 -9t136.5 -21v57q0 101 -19 167t-57.5 100t-84.5 46.5t-113 12.5q-113 0 -281 -62q-9 -3 -18.5 1t-12.5 13zM815 248v254q-121 33 -244 33q-57 0 -102 -4.5t-94 -20t-81.5 -41t-53.5 -70.5t-21 -106q0 -113 70.5 -173.5
t183.5 -60.5q101 0 202.5 60t139.5 129zM770 1430l6 -3q9 -3 13.5 -12t1.5 -18q-73 -180 -248 -180q-174 0 -250 180q-3 9 1 18t13 12h6q21 7 31 -14q53 -125 199 -125q66 0 117.5 31.5t78.5 95.5q3 9 12.5 13.5t18.5 1.5z" />
    <glyph glyph-name="Aogonek" unicode="&#x104;" horiz-adv-x="1349" 
d="M1262 0h-27v-16q0 -26 -43 -105.5t-43 -124.5q0 -70 44.5 -101.5t111.5 -31.5q60 0 122 19q9 3 17 -2.5t8 -14.5v-18q0 -27 -22 -33q-74 -25 -138 -25q-102 0 -166.5 50.5t-64.5 154.5q0 45 28.5 93.5t56.5 86.5t28 58v14l-173 418h-657l-164 -399q-7 -23 -33 -23h-61
q-9 0 -14 7.5t-2 15.5l575 1404q11 19 27 19q17 0 28 -19l576 -1404q4 -7 -0.5 -15t-13.5 -8zM674 1241l-293 -733h586z" />
    <glyph glyph-name="aogonek" unicode="&#x105;" horiz-adv-x="1073" 
d="M229 915l-6 25q-3 9 1.5 18.5t13.5 14.5q147 67 297 67q73 0 131 -12.5t96.5 -33t66.5 -53.5t43 -65t24 -78t11 -83t2 -88v-643q0 -26 -43 -105.5t-43 -124.5q0 -70 44.5 -101.5t111.5 -31.5q61 0 123 19q9 3 16.5 -2.5t7.5 -14.5v-18q0 -27 -22 -33q-74 -25 -137 -25
q-102 0 -167 50.5t-65 154.5q0 45 29.5 93.5t58.5 86.5t29 58v10l-23 158q-147 -174 -362 -174q-92 0 -159 24t-101.5 56.5t-54.5 79.5t-24.5 79t-4.5 68q0 91 35 155.5t96.5 99t131 49.5t153.5 15q52 0 139.5 -9t136.5 -21v57q0 101 -19 167t-57.5 100t-84.5 46.5
t-113 12.5q-113 0 -281 -62q-9 -3 -18.5 1t-12.5 13zM815 248v254q-121 33 -244 33q-57 0 -102 -4.5t-94 -20t-81.5 -41t-53.5 -70.5t-21 -106q0 -113 70.5 -173.5t183.5 -60.5q101 0 202.5 60t139.5 129z" />
    <glyph glyph-name="Cacute" unicode="&#x106;" horiz-adv-x="1439" 
d="M1300 1249l-22 -24q-6 -8 -16.5 -8.5t-18.5 6.5q-189 146 -414 143q-110 -2 -201 -30t-152.5 -72t-109.5 -104t-75 -119t-44 -123t-22.5 -111t-5.5 -88q0 -42 5.5 -89t22.5 -112t44 -124t75 -118.5t109.5 -103t152.5 -71t201 -27.5q226 0 412 137q20 13 37 -4l20 -29
q7 -8 6 -18.5t-10 -16.5q-202 -155 -465 -155q-157 0 -282.5 47t-203 121.5t-129 173.5t-71.5 195t-20 194q0 66 10 133t34.5 139.5t61 137.5t93.5 124t127.5 102t168 68t211.5 25q147 0 258 -41.5t211 -122.5q17 -17 2 -35zM657 1624q-4 8 -2.5 17t7.5 14l243 180
q20 13 35 -6l14 -25q6 -8 4 -17.5t-10 -14.5l-260 -154q-8 -4 -17 -2t-14 8z" />
    <glyph glyph-name="cacute" unicode="&#x107;" horiz-adv-x="1099" 
d="M961 891l-17 -21q-17 -17 -37 -4q-129 97 -276 97q-81 0 -154 -29.5t-130 -84t-90.5 -140.5t-33.5 -191q0 -219 110.5 -337t307.5 -118q130 0 264 91q21 14 35 -7l12 -14q13 -20 -4 -37q-68 -54 -137.5 -83t-167.5 -33q-116 -3 -208 28.5t-149.5 84t-95 125t-52.5 145.5
t-15 151q0 69 14 138t51 141t92.5 126.5t146.5 89.5t206 35q187 0 325 -118q7 -6 8 -17t-5 -18zM473 1214q-4 8 -3 17t7 14l244 180q20 13 35 -6l14 -24q6 -8 4 -18t-10 -15l-260 -154q-8 -4 -17 -2t-14 8z" />
    <glyph glyph-name="Ccircumflex" unicode="&#x108;" horiz-adv-x="1439" 
d="M1300 1249l-22 -24q-6 -8 -16.5 -8.5t-18.5 6.5q-189 146 -414 143q-110 -2 -201 -30t-152.5 -72t-109.5 -104t-75 -119t-44 -123t-22.5 -111t-5.5 -88q0 -42 5.5 -89t22.5 -112t44 -124t75 -118.5t109.5 -103t152.5 -71t201 -27.5q226 0 412 137q20 13 37 -4l20 -29
q7 -8 6 -18.5t-10 -16.5q-202 -155 -465 -155q-157 0 -282.5 47t-203 121.5t-129 173.5t-71.5 195t-20 194q0 66 10 133t34.5 139.5t61 137.5t93.5 124t127.5 102t168 68t211.5 25q147 0 258 -41.5t211 -122.5q17 -17 2 -35zM532 1624q-4 8 -2.5 17t7.5 14l243 180
q20 14 41 0l244 -180q6 -5 7 -14t-3 -17q-5 -6 -14 -8t-17 2l-237 139l-238 -139q-8 -4 -17 -2t-14 8z" />
    <glyph glyph-name="ccircumflex" unicode="&#x109;" horiz-adv-x="1099" 
d="M961 891l-17 -21q-17 -17 -37 -4q-129 97 -276 97q-81 0 -154 -29.5t-130 -84t-90.5 -140.5t-33.5 -191q0 -219 110.5 -337t307.5 -118q130 0 264 91q21 14 35 -7l12 -14q13 -20 -4 -37q-68 -54 -137.5 -83t-167.5 -33q-116 -3 -208 28.5t-149.5 84t-95 125t-52.5 145.5
t-15 151q0 69 14 138t51 141t92.5 126.5t146.5 89.5t206 35q187 0 325 -118q7 -6 8 -17t-5 -18zM338 1217q-11 19 4 30l244 180q20 14 41 0l243 -180q15 -11 4 -30q-13 -17 -30 -7l-238 140l-237 -140q-8 -4 -17 -1.5t-14 8.5z" />
    <glyph glyph-name="Cdotaccent" unicode="&#x10a;" horiz-adv-x="1439" 
d="M745 1686q0 31 20 52t50 21q31 0 52.5 -21t21.5 -52t-21.5 -51.5t-52.5 -20.5t-50.5 20.5t-19.5 51.5zM1300 1249l-22 -24q-6 -8 -16.5 -8.5t-18.5 6.5q-189 146 -414 143q-110 -2 -201 -30t-152.5 -72t-109.5 -104t-75 -119t-44 -123t-22.5 -111t-5.5 -88q0 -42 5.5 -89
t22.5 -112t44 -124t75 -118.5t109.5 -103t152.5 -71t201 -27.5q226 0 412 137q20 13 37 -4l20 -29q7 -8 6 -18.5t-10 -16.5q-202 -155 -465 -155q-157 0 -282.5 47t-203 121.5t-129 173.5t-71.5 195t-20 194q0 66 10 133t34.5 139.5t61 137.5t93.5 124t127.5 102t168 68
t211.5 25q147 0 258 -41.5t211 -122.5q17 -17 2 -35z" />
    <glyph glyph-name="cdotaccent" unicode="&#x10b;" horiz-adv-x="1099" 
d="M535 1276q0 31 19.5 52.5t49.5 21.5q31 0 52.5 -21.5t21.5 -52.5t-21.5 -51.5t-52.5 -20.5q-30 0 -49.5 20.5t-19.5 51.5zM961 891l-17 -21q-17 -17 -37 -4q-129 97 -276 97q-81 0 -154 -29.5t-130 -84t-90.5 -140.5t-33.5 -191q0 -219 110.5 -337t307.5 -118
q130 0 264 91q21 14 35 -7l12 -14q13 -20 -4 -37q-68 -54 -137.5 -83t-167.5 -33q-116 -3 -208 28.5t-149.5 84t-95 125t-52.5 145.5t-15 151q0 69 14 138t51 141t92.5 126.5t146.5 89.5t206 35q187 0 325 -118q7 -6 8 -17t-5 -18z" />
    <glyph glyph-name="Ccaron" unicode="&#x10c;" horiz-adv-x="1439" 
d="M1300 1249l-22 -24q-6 -8 -16.5 -8.5t-18.5 6.5q-189 146 -414 143q-110 -2 -201 -30t-152.5 -72t-109.5 -104t-75 -119t-44 -123t-22.5 -111t-5.5 -88q0 -42 5.5 -89t22.5 -112t44 -124t75 -118.5t109.5 -103t152.5 -71t201 -27.5q226 0 412 137q20 13 37 -4l20 -29
q7 -8 6 -18.5t-10 -16.5q-202 -155 -465 -155q-157 0 -282.5 47t-203 121.5t-129 173.5t-71.5 195t-20 194q0 66 10 133t34.5 139.5t61 137.5t93.5 124t127.5 102t168 68t211.5 25q147 0 258 -41.5t211 -122.5q17 -17 2 -35zM541 1831q5 8 13.5 10t16.5 -2l238 -139l238 139
q8 4 16.5 2t13.5 -10q5 -6 3.5 -15.5t-7.5 -13.5l-244 -180q-21 -14 -41 0l-243 180q-6 4 -7.5 13.5t3.5 15.5z" />
    <glyph glyph-name="ccaron" unicode="&#x10d;" horiz-adv-x="1099" 
d="M961 891l-17 -21q-17 -17 -37 -4q-129 97 -276 97q-81 0 -154 -29.5t-130 -84t-90.5 -140.5t-33.5 -191q0 -219 110.5 -337t307.5 -118q130 0 264 91q21 14 35 -7l12 -14q13 -20 -4 -37q-68 -54 -137.5 -83t-167.5 -33q-116 -3 -208 28.5t-149.5 84t-95 125t-52.5 145.5
t-15 151q0 69 14 138t51 141t92.5 126.5t146.5 89.5t206 35q187 0 325 -118q7 -6 8 -17t-5 -18zM346 1421q5 8 14 10.5t17 -1.5l237 -140l238 140q8 4 17 1.5t14 -10.5q5 -6 3.5 -14.5t-7.5 -13.5l-244 -181q-21 -14 -41 0l-244 181q-6 4 -7 13t3 15z" />
    <glyph glyph-name="Dcaron" unicode="&#x10e;" horiz-adv-x="1511" 
d="M680 0h-451q-10 0 -17 7t-7 18v1384q0 11 7 18t17 7h451q114 0 211.5 -24t168.5 -65t128.5 -98.5t94 -120.5t61 -134.5t35 -138.5t10.5 -134q0 -98 -20.5 -193t-72 -192t-129.5 -169.5t-204 -118.5t-283 -46zM299 78h381q110 0 201.5 27t154 70.5t111.5 102.5t77 118
t46 123t24 111.5t6 88.5t-6 88.5t-24 111t-46 122t-77 117t-111.5 101.5t-154 70t-201.5 27h-381v-1278zM303 1831q5 8 14 10t17 -2l237 -139l238 139q8 4 17 2t14 -10q5 -6 3.5 -15.5t-7.5 -13.5l-244 -180q-21 -14 -41 0l-244 180q-6 4 -7.5 13.5t3.5 15.5z" />
    <glyph glyph-name="dcaron" unicode="&#x10f;" horiz-adv-x="1384" 
d="M633 1038q181 0 354 -106v477q0 11 7.5 18t17.5 7h45q10 0 17 -7t7 -18v-1384q0 -11 -7 -18t-17 -7h-10q-11 0 -19.5 7.5t-9.5 17.5l-17 133q-78 -93 -183.5 -133.5t-196.5 -40.5q-108 0 -196 34t-143 88t-92 124.5t-52 140t-15 139.5q0 69 15 138t52.5 140.5t93.5 126
t146.5 89t202.5 34.5zM633 70q110 0 207 53t147 121v598q-55 47 -162 83t-178 36q-74 0 -136 -18t-104.5 -47t-75.5 -69t-52.5 -81t-32 -86t-17 -81t-4.5 -69q0 -44 7.5 -93t34 -113.5t68.5 -114t119.5 -84.5t178.5 -35zM1239 991q-10 3 -10 15q0 4 2 6q74 174 74 293h-13
q-35 0 -56.5 22t-21.5 55q0 37 24 59.5t58 22.5t60 -24t26 -68q0 -167 -120 -375q-8 -8 -17 -8q-4 0 -6 2z" />
    <glyph glyph-name="Dcroat" unicode="&#x110;" horiz-adv-x="1511" 
d="M680 0h-451q-10 0 -17 7t-7 18v1384q0 11 7 18t17 7h451q114 0 211.5 -24t168.5 -65t128.5 -98.5t94 -120.5t61 -134.5t35 -138.5t10.5 -134q0 -98 -20.5 -193t-72 -192t-129.5 -169.5t-204 -118.5t-283 -46zM299 78h381q110 0 201.5 27t154 70.5t111.5 102.5t77 118
t46 123t24 111.5t6 88.5t-6 88.5t-24 111t-46 122t-77 117t-111.5 101.5t-154 70t-201.5 27h-381v-1278zM297 1698h567q10 0 17.5 -7t7.5 -18v-26q0 -11 -7.5 -18t-17.5 -7h-567q-11 0 -18 7t-7 18v26q0 11 7 18t18 7z" />
    <glyph glyph-name="dcroat" unicode="&#x111;" horiz-adv-x="1245" 
d="M1081 1296h115q11 0 18 -7t7 -17v-31q0 -10 -7 -17t-18 -7h-115v-1192q0 -11 -7 -18t-17 -7h-10q-11 0 -19.5 7.5t-9.5 17.5l-17 133q-78 -93 -183.5 -133.5t-196.5 -40.5q-108 0 -196 34t-143 88t-92 124.5t-52 140t-15 139.5q0 69 15 138t52.5 140.5t93.5 126t146.5 89
t202.5 34.5q181 0 354 -106v285h-299q-10 0 -17 6.5t-7 17.5v31q0 10 7 17t17 7h299v113q0 11 7.5 18t17.5 7h45q10 0 17 -7t7 -18v-113zM633 70q110 0 207 53t147 121v598q-55 47 -162 83t-178 36q-74 0 -136 -18t-104.5 -47t-75.5 -69t-52.5 -81t-32 -86t-17 -81t-4.5 -69
q0 -44 7.5 -93t34 -113.5t68.5 -114t119.5 -84.5t178.5 -35z" />
    <glyph glyph-name="Emacron" unicode="&#x112;" 
d="M205 25v1384q0 11 7 18t17 7h861q10 0 17 -7t7 -18v-29q0 -10 -7 -17t-17 -7h-791v-600h621q10 0 17 -7t7 -18v-29q0 -10 -7 -17t-17 -7h-621v-600h791q10 0 17 -7t7 -18v-28q0 -11 -7 -18t-17 -7h-861q-10 0 -17 7t-7 18zM334 1698h567q11 0 18 -7t7 -18v-26
q0 -11 -7 -18t-18 -7h-567q-10 0 -17.5 7t-7.5 18v26q0 11 7.5 18t17.5 7z" />
    <glyph glyph-name="emacron" unicode="&#x113;" horiz-adv-x="1124" 
d="M1004 526h-783q0 -205 117 -334t305 -129q168 0 295 95q8 4 16 4q11 0 26 -16.5t15 -28.5q0 -10 -10 -17q-153 -118 -352 -118q-228 0 -369 148t-141 386q0 69 14 137.5t50.5 141.5t91.5 128t145 90.5t203 35.5q192 0 298.5 -113.5t106.5 -317.5q0 -2 0.5 -18t0 -25
t-2.5 -22.5t-9 -20t-17 -6.5zM600 967q-153 -9 -253 -117t-120 -258h703q4 18 4 43q0 332 -334 332zM324 1288h567q11 0 17.5 -7t6.5 -17v-27q0 -11 -7 -18t-17 -7h-567q-10 0 -17.5 7t-7.5 18v27q0 10 7 17t18 7z" />
    <glyph glyph-name="Ebreve" unicode="&#x114;" 
d="M205 25v1384q0 11 7 18t17 7h861q10 0 17 -7t7 -18v-29q0 -10 -7 -17t-17 -7h-791v-600h621q10 0 17 -7t7 -18v-29q0 -10 -7 -17t-17 -7h-621v-600h791q10 0 17 -7t7 -18v-28q0 -11 -7 -18t-17 -7h-861q-10 0 -17 7t-7 18zM846 1839l6 -2q9 -3 13 -12.5t1 -18.5
q-73 -180 -248 -180q-173 0 -249 180q-3 9 1 18.5t13 12.5h6q21 7 31 -14q53 -125 198 -125q66 0 118 31.5t79 95.5q3 9 12.5 13t18.5 1z" />
    <glyph glyph-name="ebreve" unicode="&#x115;" horiz-adv-x="1124" 
d="M1004 526h-783q0 -205 117 -334t305 -129q168 0 295 95q8 4 16 4q11 0 26 -16.5t15 -28.5q0 -10 -10 -17q-153 -118 -352 -118q-228 0 -369 148t-141 386q0 69 14 137.5t50.5 141.5t91.5 128t145 90.5t203 35.5q192 0 298.5 -113.5t106.5 -317.5q0 -2 0.5 -18t0 -25
t-2.5 -22.5t-9 -20t-17 -6.5zM600 967q-153 -9 -253 -117t-120 -258h703q4 18 4 43q0 332 -334 332zM850 1430l6 -3q14 -6 14 -22v-8q-73 -180 -247 -180t-250 180q-2 2 -2 8q0 16 16 22h6h8q17 0 23 -14q53 -125 199 -125q66 0 117.5 31.5t78.5 95.5q3 15 23 15h8z" />
    <glyph glyph-name="Edotaccent" unicode="&#x116;" 
d="M547 1686q0 31 19.5 52t49.5 21q31 0 52.5 -21t21.5 -52t-21.5 -51.5t-52.5 -20.5q-30 0 -49.5 20.5t-19.5 51.5zM205 25v1384q0 11 7 18t17 7h861q10 0 17 -7t7 -18v-29q0 -10 -7 -17t-17 -7h-791v-600h621q10 0 17 -7t7 -18v-29q0 -10 -7 -17t-17 -7h-621v-600h791
q10 0 17 -7t7 -18v-28q0 -11 -7 -18t-17 -7h-861q-10 0 -17 7t-7 18z" />
    <glyph glyph-name="edotaccent" unicode="&#x117;" horiz-adv-x="1124" 
d="M545 1276q0 31 20.5 52.5t50.5 21.5q31 0 52.5 -21.5t21.5 -52.5t-21.5 -51.5t-52.5 -20.5t-51 20.5t-20 51.5zM1004 526h-783q0 -205 117 -334t305 -129q168 0 295 95q8 4 16 4q11 0 26 -16.5t15 -28.5q0 -10 -10 -17q-153 -118 -352 -118q-228 0 -369 148t-141 386
q0 69 14 137.5t50.5 141.5t91.5 128t145 90.5t203 35.5q192 0 298.5 -113.5t106.5 -317.5q0 -2 0.5 -18t0 -25t-2.5 -22.5t-9 -20t-17 -6.5zM600 967q-153 -9 -253 -117t-120 -258h703q4 18 4 43q0 332 -334 332z" />
    <glyph glyph-name="Eogonek" unicode="&#x118;" 
d="M205 25v1384q0 11 7 18t17 7h861q10 0 17 -7t7 -18v-29q0 -10 -7 -17t-17 -7h-791v-600h621q10 0 17 -7t7 -18v-29q0 -10 -7 -17t-17 -7h-621v-600h791q10 0 17 -7t7 -18v-69q0 -26 -43 -105.5t-43 -124.5q0 -70 44.5 -101.5t111.5 -31.5q61 0 123 19q9 3 16.5 -2.5
t7.5 -14.5v-18q0 -27 -22 -33q-74 -25 -138 -25q-102 0 -166.5 50.5t-64.5 154.5q0 35 17.5 73.5t39 65.5t39 55t17.5 44v10h-824q-10 0 -17 7t-7 18z" />
    <glyph glyph-name="eogonek" unicode="&#x119;" horiz-adv-x="1124" 
d="M1004 526h-783q0 -205 117 -334t305 -129q168 0 295 95q23 12 35 -6q10 -10 16 -19q15 -19 -2 -33q-55 -43 -110 -67v-49q0 -26 -43 -105.5t-43 -124.5q0 -70 44 -101.5t111 -31.5q61 0 123 19q9 3 17 -2.5t8 -14.5v-18q0 -26 -23 -33q-74 -25 -137 -25q-102 0 -167 50.5
t-65 154.5q0 35 17.5 73.5t39 65.5t39 55t17.5 44v18q-79 -26 -182 -26q-228 0 -369 148t-141 386q0 69 14 137.5t50.5 141.5t91.5 128t145 90.5t203 35.5q192 0 298.5 -113.5t106.5 -317.5q0 -7 -1 -30t-1 -37q-4 -25 -26 -25zM625 967q-163 0 -270 -108.5t-128 -266.5h703
q4 21 4 63q0 58 -14.5 108.5t-47.5 96.5t-96.5 74.5t-150.5 32.5z" />
    <glyph glyph-name="Ecaron" unicode="&#x11a;" 
d="M205 25v1384q0 11 7 18t17 7h861q10 0 17 -7t7 -18v-29q0 -10 -7 -17t-17 -7h-791v-600h621q10 0 17 -7t7 -18v-29q0 -10 -7 -17t-17 -7h-621v-600h791q10 0 17 -7t7 -18v-28q0 -11 -7 -18t-17 -7h-861q-10 0 -17 7t-7 18zM350 1831q5 8 14 10t17 -2l237 -139l238 139
q8 4 17 2t14 -10q5 -6 3.5 -15.5t-7.5 -13.5l-244 -180q-21 -14 -41 0l-244 180q-6 4 -7.5 13.5t3.5 15.5z" />
    <glyph glyph-name="ecaron" unicode="&#x11b;" horiz-adv-x="1124" 
d="M1004 526h-783q0 -205 117 -334t305 -129q168 0 295 95q8 4 16 4q11 0 26 -16.5t15 -28.5q0 -10 -10 -17q-153 -118 -352 -118q-228 0 -369 148t-141 386q0 69 14 137.5t50.5 141.5t91.5 128t145 90.5t203 35.5q192 0 298.5 -113.5t106.5 -317.5q0 -2 0.5 -18t0 -25
t-2.5 -22.5t-9 -20t-17 -6.5zM600 967q-153 -9 -253 -117t-120 -258h703q4 18 4 43q0 332 -334 332zM350 1421q7 11 21 11q6 0 10 -2l237 -140l238 140q2 2 10 2q10 0 17.5 -6.5t7.5 -16.5q0 -8 -8 -16l-244 -181q-9 -6 -21 -6q-11 0 -20 6l-244 181q-8 5 -8 16q0 4 4 12z
" />
    <glyph glyph-name="Gcircumflex" unicode="&#x11c;" horiz-adv-x="1439" 
d="M825 575v29q0 10 7.5 17.5t17.5 7.5h438q10 0 17.5 -7.5t7.5 -17.5v-430q0 -27 -21 -39q-199 -153 -463 -153q-157 0 -282.5 47t-203 121.5t-129 173.5t-71.5 195t-20 194q0 66 10 133t34.5 139.5t61 137.5t93.5 124t127.5 102t168 68t211.5 25q147 0 258 -41.5
t211 -122.5q17 -17 2 -35l-22 -24q-6 -8 -16.5 -8.5t-18.5 6.5q-189 146 -414 143q-110 -2 -201 -30t-152.5 -72t-109.5 -104t-75 -119t-44 -123t-22.5 -111t-5.5 -88q0 -42 5.5 -89t22.5 -112t44 -124t75 -118.5t109.5 -103t152.5 -71t201 -27.5q208 0 388 118v365h-367
q-11 0 -18 7t-7 17zM520 1624q-4 8 -3 17t7 14l244 180q20 14 41 0l244 -180q6 -5 7 -14t-3 -17q-5 -6 -14 -8t-17 2l-238 139l-237 -139q-8 -4 -17 -2t-14 8z" />
    <glyph glyph-name="gcircumflex" unicode="&#x11d;" horiz-adv-x="1107" 
d="M125 -158q11 56 67.5 106t163.5 64q-49 12 -86 37t-55.5 55.5t-27.5 57.5t-9 49q0 65 40.5 111.5t127.5 62.5q-53 33 -89 95t-48 114.5t-12 95.5q0 47 10.5 93.5t37 95.5t66.5 86t105 60.5t147 23.5q145 0 238 -70l145 125q6 6 17 6t20 -6l14 -17q9 -9 9 -16t-9 -16
l-143 -144q76 -106 76 -221q0 -48 -11 -95.5t-37.5 -96t-66 -85.5t-103 -60t-141.5 -23q-39 0 -84 8t-65 8q-41 0 -73 -12t-49 -28.5t-27.5 -36.5t-13.5 -32.5t-3 -19.5q0 -73 65.5 -119.5t170.5 -46.5q20 0 55 1t51 1q116 0 197 -18.5t123 -53.5t60.5 -74t20.5 -89
q0 -29 -8.5 -61t-37 -73.5t-73 -73t-125.5 -53.5t-186 -22q-103 0 -184 18.5t-129 47t-79 67t-42.5 75t-11.5 75.5q0 16 2 24zM563 406q64 0 114.5 22.5t78.5 55t46 74t23.5 73.5t5.5 59q0 26 -6 57.5t-24 72.5t-46.5 73.5t-79 55t-114.5 22.5q-65 0 -115 -24t-77 -58
t-44.5 -76t-22.5 -71.5t-5 -51.5q0 -28 5.5 -59.5t23 -73t45 -74t77.5 -55t115 -22.5zM211 -193q0 -66 50 -114t128 -71t172 -23q92 0 169 22.5t129 73.5t52 123q0 53 -28.5 85.5t-107 51t-214.5 18.5q-90 0 -155 -10t-101 -24.5t-57.5 -38t-28 -44t-8.5 -49.5zM285 1214
q-4 8 -4 13q0 13 8 18l243 180q10 7 21 7q9 0 20 -7l244 -180q8 -8 8 -18q0 -9 -7 -16t-17 -7q-2 0 -10 4l-238 140l-238 -140q-8 -4 -12 -4q-11 0 -18 10z" />
    <glyph glyph-name="Gbreve" unicode="&#x11e;" horiz-adv-x="1439" 
d="M825 575v29q0 10 7.5 17.5t17.5 7.5h438q10 0 17.5 -7.5t7.5 -17.5v-430q0 -27 -21 -39q-199 -153 -463 -153q-157 0 -282.5 47t-203 121.5t-129 173.5t-71.5 195t-20 194q0 66 10 133t34.5 139.5t61 137.5t93.5 124t127.5 102t168 68t211.5 25q147 0 258 -41.5
t211 -122.5q17 -17 2 -35l-22 -24q-6 -8 -16.5 -8.5t-18.5 6.5q-189 146 -414 143q-110 -2 -201 -30t-152.5 -72t-109.5 -104t-75 -119t-44 -123t-22.5 -111t-5.5 -88q0 -42 5.5 -89t22.5 -112t44 -124t75 -118.5t109.5 -103t152.5 -71t201 -27.5q208 0 388 118v365h-367
q-11 0 -18 7t-7 17zM1032 1839l6 -2q9 -3 13.5 -12.5t1.5 -18.5q-73 -180 -248 -180q-174 0 -250 180q-3 9 1 18.5t13 12.5h6q21 7 31 -14q53 -125 199 -125q66 0 117.5 31.5t78.5 95.5q3 9 12.5 13t18.5 1z" />
    <glyph glyph-name="gbreve" unicode="&#x11f;" horiz-adv-x="1107" 
d="M125 -158q11 56 67.5 106t163.5 64q-49 12 -86 37t-55.5 55.5t-27.5 57.5t-9 49q0 65 40.5 111.5t127.5 62.5q-53 33 -89 95t-48 114.5t-12 95.5q0 47 10.5 93.5t37 95.5t66.5 86t105 60.5t147 23.5q145 0 238 -70l145 125q6 6 17 6t20 -6l14 -17q9 -9 9 -16t-9 -16
l-143 -144q76 -106 76 -221q0 -48 -11 -95.5t-37.5 -96t-66 -85.5t-103 -60t-141.5 -23q-39 0 -84 8t-65 8q-41 0 -73 -12t-49 -28.5t-27.5 -36.5t-13.5 -32.5t-3 -19.5q0 -73 65.5 -119.5t170.5 -46.5q20 0 55 1t51 1q116 0 197 -18.5t123 -53.5t60.5 -74t20.5 -89
q0 -29 -8.5 -61t-37 -73.5t-73 -73t-125.5 -53.5t-186 -22q-103 0 -184 18.5t-129 47t-79 67t-42.5 75t-11.5 75.5q0 16 2 24zM563 406q64 0 114.5 22.5t78.5 55t46 74t23.5 73.5t5.5 59q0 26 -6 57.5t-24 72.5t-46.5 73.5t-79 55t-114.5 22.5q-65 0 -115 -24t-77 -58
t-44.5 -76t-22.5 -71.5t-5 -51.5q0 -28 5.5 -59.5t23 -73t45 -74t77.5 -55t115 -22.5zM211 -193q0 -66 50 -114t128 -71t172 -23q92 0 169 22.5t129 73.5t52 123q0 53 -28.5 85.5t-107 51t-214.5 18.5q-90 0 -155 -10t-101 -24.5t-57.5 -38t-28 -44t-8.5 -49.5zM782 1425
l6 -2q15 -6 15 -22v-8q-73 -181 -248 -181q-174 0 -250 181q-2 2 -2 8q0 16 16 22h7h8q16 0 22 -14q53 -125 199 -125q66 0 118 31.5t79 95.5q3 14 22 14h8z" />
    <glyph glyph-name="Gdotaccent" unicode="&#x120;" horiz-adv-x="1439" 
d="M748 1686q0 31 19.5 52t49.5 21q31 0 52.5 -21t21.5 -52t-21.5 -51.5t-52.5 -20.5q-30 0 -49.5 20.5t-19.5 51.5zM825 575v29q0 10 7.5 17.5t17.5 7.5h438q10 0 17.5 -7.5t7.5 -17.5v-430q0 -27 -21 -39q-199 -153 -463 -153q-157 0 -282.5 47t-203 121.5t-129 173.5
t-71.5 195t-20 194q0 66 10 133t34.5 139.5t61 137.5t93.5 124t127.5 102t168 68t211.5 25q147 0 258 -41.5t211 -122.5q17 -17 2 -35l-22 -24q-6 -8 -16.5 -8.5t-18.5 6.5q-189 146 -414 143q-110 -2 -201 -30t-152.5 -72t-109.5 -104t-75 -119t-44 -123t-22.5 -111
t-5.5 -88q0 -42 5.5 -89t22.5 -112t44 -124t75 -118.5t109.5 -103t152.5 -71t201 -27.5q208 0 388 118v365h-367q-11 0 -18 7t-7 17z" />
    <glyph glyph-name="gdotaccent" unicode="&#x121;" horiz-adv-x="1107" 
d="M483 1276q0 31 20 52.5t50 21.5q31 0 52.5 -21.5t21.5 -52.5t-21.5 -51.5t-52.5 -20.5t-50.5 20.5t-19.5 51.5zM125 -158q11 56 67.5 106t163.5 64q-49 12 -86 37t-55.5 55.5t-27.5 57.5t-9 49q0 65 40.5 111.5t127.5 62.5q-53 33 -89 95t-48 114.5t-12 95.5
q0 47 10.5 93.5t37 95.5t66.5 86t105 60.5t147 23.5q145 0 238 -70l145 125q6 6 17 6t20 -6l14 -17q9 -9 9 -16t-9 -16l-143 -144q76 -106 76 -221q0 -48 -11 -95.5t-37.5 -96t-66 -85.5t-103 -60t-141.5 -23q-39 0 -84 8t-65 8q-41 0 -73 -12t-49 -28.5t-27.5 -36.5
t-13.5 -32.5t-3 -19.5q0 -73 65.5 -119.5t170.5 -46.5q20 0 55 1t51 1q116 0 197 -18.5t123 -53.5t60.5 -74t20.5 -89q0 -29 -8.5 -61t-37 -73.5t-73 -73t-125.5 -53.5t-186 -22q-103 0 -184 18.5t-129 47t-79 67t-42.5 75t-11.5 75.5q0 16 2 24zM563 406q64 0 114.5 22.5
t78.5 55t46 74t23.5 73.5t5.5 59q0 26 -6 57.5t-24 72.5t-46.5 73.5t-79 55t-114.5 22.5q-65 0 -115 -24t-77 -58t-44.5 -76t-22.5 -71.5t-5 -51.5q0 -28 5.5 -59.5t23 -73t45 -74t77.5 -55t115 -22.5zM211 -193q0 -66 50 -114t128 -71t172 -23q92 0 169 22.5t129 73.5
t52 123q0 53 -28.5 85.5t-107 51t-214.5 18.5q-90 0 -155 -10t-101 -24.5t-57.5 -38t-28 -44t-8.5 -49.5z" />
    <glyph glyph-name="Gcommaaccent" unicode="&#x122;" horiz-adv-x="1439" 
d="M825 575v29q0 10 7.5 17.5t17.5 7.5h438q10 0 17.5 -7.5t7.5 -17.5v-430q0 -27 -21 -39q-199 -153 -463 -153q-157 0 -282.5 47t-203 121.5t-129 173.5t-71.5 195t-20 194q0 66 10 133t34.5 139.5t61 137.5t93.5 124t127.5 102t168 68t211.5 25q147 0 258 -41.5
t211 -122.5q17 -17 2 -35l-22 -24q-6 -8 -16.5 -8.5t-18.5 6.5q-189 146 -414 143q-110 -2 -201 -30t-152.5 -72t-109.5 -104t-75 -119t-44 -123t-22.5 -111t-5.5 -88q0 -42 5.5 -89t22.5 -112t44 -124t75 -118.5t109.5 -103t152.5 -71t201 -27.5q208 0 388 118v365h-367
q-11 0 -18 7t-7 17zM770 -627q-14 7 -10 23q65 153 65 260q-40 -4 -65 19t-25 59q0 37 24 59.5t58 22.5q33 0 59.5 -25.5t26.5 -66.5q0 -152 -106 -338q-7 -17 -27 -13z" />
    <glyph glyph-name="gcommaaccent" unicode="&#x123;" horiz-adv-x="1107" 
d="M125 -158q11 56 67.5 106t163.5 64q-49 12 -86 37t-55.5 55.5t-27.5 57.5t-9 49q0 65 40.5 111.5t127.5 62.5q-53 33 -89 95t-48 114.5t-12 95.5q0 47 10.5 93.5t37 95.5t66.5 86t105 60.5t147 23.5q145 0 238 -70l145 125q6 6 17 6t20 -6l14 -17q9 -9 9 -16t-9 -16
l-143 -144q76 -106 76 -221q0 -48 -11 -95.5t-37.5 -96t-66 -85.5t-103 -60t-141.5 -23q-39 0 -84 8t-65 8q-41 0 -73 -12t-49 -28.5t-27.5 -36.5t-13.5 -32.5t-3 -19.5q0 -73 65.5 -119.5t170.5 -46.5q20 0 55 1t51 1q116 0 197 -18.5t123 -53.5t60.5 -74t20.5 -89
q0 -29 -8.5 -61t-37 -73.5t-73 -73t-125.5 -53.5t-186 -22q-103 0 -184 18.5t-129 47t-79 67t-42.5 75t-11.5 75.5q0 16 2 24zM563 406q64 0 114.5 22.5t78.5 55t46 74t23.5 73.5t5.5 59q0 26 -6 57.5t-24 72.5t-46.5 73.5t-79 55t-114.5 22.5q-65 0 -115 -24t-77 -58
t-44.5 -76t-22.5 -71.5t-5 -51.5q0 -28 5.5 -59.5t23 -73t45 -74t77.5 -55t115 -22.5zM211 -193q0 -66 50 -114t128 -71t172 -23q92 0 169 22.5t129 73.5t52 123q0 53 -28.5 85.5t-107 51t-214.5 18.5q-90 0 -155 -10t-101 -24.5t-57.5 -38t-28 -44t-8.5 -49.5zM606 1638
q10 -7 10 -14q0 -1 -1 -3t-1 -3q-59 -150 -59 -258h12q35 0 56.5 -22.5t21.5 -55.5q0 -37 -24 -59.5t-58 -22.5q-33 0 -59.5 25.5t-26.5 66.5q0 142 107 340q3 8 14 8q6 0 8 -2z" />
    <glyph glyph-name="Hcircumflex" unicode="&#x124;" horiz-adv-x="1544" 
d="M299 678v-653q0 -11 -7.5 -18t-17.5 -7h-45q-10 0 -17 7t-7 18v1384q0 11 7 18t17 7h45q10 0 17.5 -7t7.5 -18v-653h944v653q0 11 7.5 18t17.5 7h47q10 0 17 -7t7 -18v-1384q0 -11 -7 -18t-17 -7h-47q-10 0 -17.5 7t-7.5 18v653h-944zM504 1624q-4 8 -3 17t7 14l244 180
q20 14 41 0l243 -180q6 -5 7 -14t-3 -17q-5 -6 -13.5 -8t-16.5 2l-238 139l-237 -139q-8 -4 -17 -2t-14 8z" />
    <glyph glyph-name="hcircumflex" unicode="&#x125;" horiz-adv-x="1169" 
d="M231 0h-43q-10 0 -17 7t-7 18v1384q0 11 7 18t17 7h43q11 0 18 -7t7 -18v-516q72 75 171.5 111t209.5 36q102 0 177.5 -31.5t119 -80t70 -119.5t35 -136.5t8.5 -144.5v-503q0 -11 -7.5 -18t-17.5 -7h-45q-11 0 -18 7t-7 18v503q0 123 -23 209.5t-67.5 135t-101.5 69.5
t-133 21q-98 0 -204 -46.5t-167 -130.5v-761q0 -11 -7 -18t-18 -7zM-31 1634q-4 8 -3 17t7 14l244 180q21 14 41 0l244 -180q6 -5 7 -14t-3 -17q-5 -6 -14 -8t-17 2l-237 139l-238 -139q-8 -4 -17 -2t-14 8z" />
    <glyph glyph-name="Hbar" unicode="&#x126;" horiz-adv-x="1562" 
d="M299 678v-653q0 -11 -7.5 -18t-17.5 -7h-45q-10 0 -17 7t-7 18v995h-92q-11 0 -18 7t-7 17v27q0 11 7 18t18 7h92v313q0 11 7 18t17 7h45q10 0 17.5 -7t7.5 -18v-313h944v313q0 11 7.5 18t17.5 7h47q10 0 17 -7t7 -18v-313h125q10 0 17.5 -7t7.5 -18v-27q0 -10 -7 -17
t-18 -7h-125v-995q0 -11 -7 -18t-17 -7h-47q-10 0 -17.5 7t-7.5 18v653h-944zM299 756h944v264h-944v-264z" />
    <glyph glyph-name="hbar" unicode="&#x127;" horiz-adv-x="1179" 
d="M233 0h-45q-10 0 -17 7t-7 18v1179h-98q-10 0 -17.5 7t-7.5 18v31q0 10 7 17t18 7h98v125q0 11 7 18t17 7h45q11 0 18 -7t7 -18v-125h309q11 0 18 -7t7 -17v-31q0 -11 -7 -18t-18 -7h-309v-311q141 147 379 147q102 0 177.5 -31.5t119 -80t70 -119.5t35 -136.5
t8.5 -144.5v-503q0 -11 -7.5 -18t-17.5 -7h-45q-11 0 -18 7t-7 18v503q0 123 -23 209.5t-67.5 135t-101.5 69.5t-133 21q-97 0 -202.5 -46.5t-166.5 -130.5v-761q0 -11 -7 -18t-18 -7z" />
    <glyph glyph-name="Itilde" unicode="&#x128;" horiz-adv-x="579" 
d="M338 1409v-1384q0 -11 -7 -18t-18 -7h-45q-10 0 -17 7t-7 18v1384q0 11 7 18t17 7h45q11 0 18 -7t7 -18zM559 1757l8 -6q7 -4 10 -15t-2 -18q-66 -100 -172 -100q-38 0 -70.5 14t-51 31t-48 31t-63.5 14q-63 0 -113 -70q-4 -9 -14.5 -12t-19.5 2l-7 4q-9 5 -12.5 14.5
t0.5 18.5q59 115 170 115q41 0 80.5 -23t77.5 -46t74 -23q71 0 118 61q6 8 16.5 10t18.5 -2z" />
    <glyph glyph-name="itilde" unicode="&#x129;" horiz-adv-x="579" 
d="M334 999v-976q0 -11 -7 -18t-18 -7h-43q-10 0 -17 7t-7 18v976q0 11 7 18t17 7h43q11 0 18 -7t7 -18zM559 1348l8 -7q7 -5 10 -15t-2 -17q-67 -101 -172 -101q-38 0 -70.5 14t-51 31t-48 31t-63.5 14q-64 0 -113 -69q-4 -9 -14.5 -12t-19.5 2l-7 4q-22 11 -12 32
q59 115 170 115q41 0 80.5 -23t77.5 -46t74 -23q71 0 118 61q6 8 16.5 10.5t18.5 -1.5z" />
    <glyph glyph-name="Imacron" unicode="&#x12a;" horiz-adv-x="616" 
d="M354 1409v-1384q0 -11 -7 -18t-17 -7h-45q-11 0 -18 7t-7 18v1384q0 11 7 18t18 7h45q10 0 17 -7t7 -18zM25 1698h567q10 0 17 -7t7 -18v-26q0 -11 -7 -18t-17 -7h-567q-11 0 -18 7t-7 18v26q0 11 7 18t18 7z" />
    <glyph glyph-name="imacron" unicode="&#x12b;" horiz-adv-x="616" 
d="M350 999v-976q0 -11 -7 -18t-17 -7h-43q-11 0 -18 7t-7 18v976q0 11 7 18t18 7h43q10 0 17 -7t7 -18zM25 1288h567q10 0 17 -7t7 -17v-27q0 -11 -7 -18t-17 -7h-567q-11 0 -18 7t-7 18v27q0 10 7 17t18 7z" />
    <glyph glyph-name="Ibreve" unicode="&#x12c;" horiz-adv-x="501" 
d="M297 1409v-1384q0 -11 -7.5 -18t-17.5 -7h-45q-10 0 -17 7t-7 18v1384q0 11 7 18t17 7h45q10 0 17.5 -7t7.5 -18zM479 1839l6 -2q9 -3 13.5 -12.5t1.5 -18.5q-73 -180 -248 -180q-174 0 -250 180q-3 9 1 18.5t13 12.5h7q20 7 30 -14q53 -125 199 -125q66 0 118 31.5
t79 95.5q3 9 12 13t18 1z" />
    <glyph glyph-name="ibreve" unicode="&#x12d;" horiz-adv-x="501" 
d="M293 999v-976q0 -11 -7.5 -18t-17.5 -7h-43q-10 0 -17 7t-7 18v976q0 11 7 18t17 7h43q10 0 17.5 -7t7.5 -18zM479 1430l6 -3q9 -3 13.5 -12t1.5 -18q-73 -180 -248 -180q-174 0 -250 180q-3 9 1 18t13 12h7q20 7 30 -14q53 -125 199 -125q66 0 118 31.5t79 95.5
q3 9 12 13.5t18 1.5z" />
    <glyph glyph-name="Iogonek" unicode="&#x12e;" horiz-adv-x="503" 
d="M299 1409v-1425q0 -26 -43 -105.5t-43 -124.5q0 -70 44.5 -101.5t111.5 -31.5q61 0 123 19q9 3 16.5 -2.5t7.5 -14.5v-18q0 -27 -22 -33q-74 -25 -138 -25q-102 0 -166.5 50.5t-64.5 154.5q0 45 28.5 93.5t56.5 86.5t28 58v10h-9q-10 0 -17 7t-7 18v1384q0 11 7 18t17 7
h45q10 0 17.5 -7t7.5 -18z" />
    <glyph glyph-name="iogonek" unicode="&#x12f;" horiz-adv-x="471" 
d="M164 1280q0 31 19.5 52.5t49.5 21.5q31 0 52.5 -21.5t21.5 -52.5t-21.5 -51.5t-52.5 -20.5q-30 0 -49.5 20.5t-19.5 51.5zM283 999v-1015q0 -26 -43 -105.5t-43 -124.5q0 -70 44 -101.5t111 -31.5q61 0 123 19q9 3 17 -2.5t8 -14.5v-18q0 -26 -23 -33q-74 -25 -137 -25
q-102 0 -166.5 50.5t-64.5 154.5q0 45 28 93.5t56 86.5t28 58v10h-10q-11 0 -18 7t-7 18v974q0 11 7 18t18 7h47q10 0 17.5 -7t7.5 -18z" />
    <glyph glyph-name="Idotaccent" unicode="&#x130;" horiz-adv-x="503" 
d="M180 1686q0 31 20 52t50 21q31 0 52.5 -21t21.5 -52t-21.5 -51.5t-52.5 -20.5t-50.5 20.5t-19.5 51.5zM299 1409v-1384q0 -11 -7.5 -18t-17.5 -7h-45q-10 0 -17 7t-7 18v1384q0 11 7 18t17 7h45q10 0 17.5 -7t7.5 -18z" />
    <glyph glyph-name="dotlessi" unicode="&#x131;" horiz-adv-x="419" 
d="M256 999v-976q0 -11 -7 -18t-18 -7h-43q-10 0 -17 7t-7 18v976q0 11 7 18t17 7h43q11 0 18 -7t7 -18z" />
    <glyph glyph-name="IJ" unicode="&#x132;" horiz-adv-x="1607" 
d="M469 317l39 17q9 4 18.5 0.5t14.5 -12.5q47 -109 139.5 -177.5t230.5 -68.5q72 0 131.5 18t99 47t70.5 69.5t48 81.5t27.5 87.5t14 82t3.5 70.5v877q0 11 7 18t17 7h49q10 0 17.5 -7t7.5 -18v-877q0 -74 -12.5 -144t-46.5 -145t-87 -129.5t-142 -90t-204 -35.5
q-329 0 -456 297q-7 21 14 32zM299 1409v-1384q0 -11 -7.5 -18t-17.5 -7h-45q-10 0 -17 7t-7 18v1384q0 11 7 18t17 7h45q10 0 17.5 -7t7.5 -18z" />
    <glyph glyph-name="ij" unicode="&#x133;" horiz-adv-x="907" 
d="M248 1280q0 31 19.5 52.5t49.5 21.5q31 0 52.5 -21.5t21.5 -52.5t-21.5 -51.5t-52.5 -20.5q-30 0 -49.5 20.5t-19.5 51.5zM598 1284q0 31 20.5 52.5t51.5 21.5t52 -21.5t21 -52.5t-21 -51.5t-52 -20.5t-51.5 20.5t-20.5 51.5zM367 999v-974q0 -11 -7.5 -18t-17.5 -7h-47
q-11 0 -18 7t-7 18v974q0 11 7 18t18 7h47q10 0 17.5 -7t7.5 -18zM391 -440q-114 0 -207 49q-9 4 -11.5 15t3.5 18l12 24q5 9 15.5 12.5t19.5 -0.5q81 -38 152 -38q113 0 180.5 73.5t67.5 231.5v1054q0 11 7 18t17 7h47q10 0 17.5 -7t7.5 -18v-1054q0 -280 -183 -358
q-63 -27 -145 -27z" />
    <glyph glyph-name="Jcircumflex" unicode="&#x134;" horiz-adv-x="1202" 
d="M45 258l39 16q9 4 18.5 0.5t14.5 -12.5q47 -109 139.5 -177.5t230.5 -68.5q72 0 131.5 18t99 47t70.5 70t48 82t27.5 87.5t14 82t3.5 70.5v877q0 10 6.5 17t17.5 7h49q11 0 18 -7t7 -17v-877q0 -74 -12.5 -144.5t-46.5 -145t-87 -129.5t-142 -90.5t-204 -35.5
q-329 0 -456 297q-7 22 14 33zM649 1565q-11 19 4 30l244 181q21 14 41 0l244 -181q15 -11 4 -30q-5 -6 -14 -8t-17 2l-237 139l-238 -139q-8 -4 -17 -2t-14 8z" />
    <glyph glyph-name="jcircumflex" unicode="&#x135;" horiz-adv-x="477" 
d="M-63 -440q-98 5 -183 49q-9 4 -11.5 15t3.5 18l12 24q5 9 15.5 12.5t19.5 -0.5q81 -38 152 -38q113 0 180.5 73.5t67.5 231.5v1054q0 11 7 18t17 7h47q10 0 17.5 -7t7.5 -18v-1054v-4v-35.5t-5.5 -56.5t-15.5 -73t-32.5 -73.5t-53.5 -69t-81.5 -49.5t-114.5 -24h-49z
M-29 1214q-4 8 -3 17t7 14l244 180q21 14 41 0l244 -180q6 -5 7 -14t-3 -17q-5 -6 -14 -8t-17 2l-237 140l-238 -140q-8 -4 -17 -2t-14 8z" />
    <glyph glyph-name="Kcommaaccent" unicode="&#x136;" horiz-adv-x="1298" 
d="M274 0h-45q-10 0 -17 7t-7 18v1384q0 11 7 18t17 7h45q10 0 17.5 -7t7.5 -18v-649l752 657q20 17 43 17h67q5 0 9 -4t4 -9t-9 -18l-762 -664l828 -714q6 -6 6 -17q0 -8 -10 -8h-82q-24 0 -43 16l-803 701v-692q0 -11 -7.5 -18t-17.5 -7zM553 -625q-6 3 -8.5 10t0.5 13
q59 150 59 258q-40 -4 -65 19t-25 59q0 37 24 59.5t58 22.5q33 0 59.5 -25.5t26.5 -66.5q0 -142 -107 -340q-8 -16 -22 -9z" />
    <glyph glyph-name="kcommaaccent" unicode="&#x137;" horiz-adv-x="1034" 
d="M844 16l-588 494v-485q0 -11 -7 -18t-18 -7h-43q-10 0 -17 7t-7 18v1388q0 11 7 18t17 7h43q11 0 18 -7t7 -18v-862l549 457q19 16 43 16h82q10 0 10 -10t-8 -15l-565 -467l598 -505q8 -5 8 -17q0 -10 -10 -10h-76q-24 0 -43 16zM442 -625q-6 3 -8.5 10t0.5 13
q60 152 60 258q-40 -4 -65.5 19t-25.5 59q0 37 24 59.5t58 22.5q33 0 59.5 -25.5t26.5 -66.5q0 -143 -106 -340q-8 -16 -23 -9z" />
    <glyph glyph-name="kgreenlandic" unicode="&#x138;" horiz-adv-x="1024" 
d="M844 16l-588 494v-485q0 -11 -7 -18t-18 -7h-43q-10 0 -17 7t-7 18v974q0 11 7 18t17 7h43q11 0 18 -7t7 -18v-448l549 457q19 16 43 16h82q10 0 10 -10t-8 -15l-565 -467l598 -505q8 -5 8 -17q0 -10 -10 -10h-76q-24 0 -43 16z" />
    <glyph glyph-name="Lacute" unicode="&#x139;" horiz-adv-x="1040" 
d="M301 1409v-1331h592q11 0 18 -7t7 -18v-28q0 -11 -7 -18t-18 -7h-664q-10 0 -17 7t-7 18v1384q0 11 7 18t17 7h47q10 0 17.5 -7t7.5 -18zM229 1624q-4 8 -3 17t7 14l244 180q20 13 35 -6l14 -25q6 -8 4 -17.5t-10 -14.5l-260 -154q-8 -4 -17 -2t-14 8z" />
    <glyph glyph-name="lacute" unicode="&#x13a;" horiz-adv-x="405" 
d="M250 1436v-1436h-94v1436h94zM66 1622l-25 35l281 207l43 -66z" />
    <glyph glyph-name="Lcommaaccent" unicode="&#x13b;" horiz-adv-x="1040" 
d="M301 1409v-1331h592q11 0 18 -7t7 -18v-28q0 -11 -7 -18t-18 -7h-664q-10 0 -17 7t-7 18v1384q0 11 7 18t17 7h47q10 0 17.5 -7t7.5 -18zM475 -625q-6 3 -8.5 10t0.5 13q59 150 59 258q-40 -4 -65 19t-25 59q0 37 24 59.5t58 22.5q33 0 59.5 -25.5t26.5 -66.5
q0 -143 -106 -340q-8 -16 -23 -9z" />
    <glyph glyph-name="lcommaaccent" unicode="&#x13c;" horiz-adv-x="462" 
d="M279 1411v-1386q0 -11 -7.5 -18t-17.5 -7h-45q-11 0 -18 7t-7 18v1386q0 11 7 18t18 7h45q10 0 17.5 -7t7.5 -18zM190 -625q-6 3 -8.5 10t0.5 13q60 152 60 258q-40 -4 -65 19t-25 59q0 37 23.5 59.5t57.5 22.5q33 0 59.5 -25.5t26.5 -66.5q0 -143 -106 -340
q-8 -16 -23 -9z" />
    <glyph glyph-name="Lcaron" unicode="&#x13d;" horiz-adv-x="1040" 
d="M301 1409v-1331h592q11 0 18 -7t7 -18v-28q0 -11 -7 -18t-18 -7h-664q-10 0 -17 7t-7 18v1384q0 11 7 18t17 7h47q10 0 17.5 -7t7.5 -18zM506 989q-15 7 -8 21q73 172 73 293q-40 -4 -65 18.5t-25 58.5q0 37 24 59.5t58 22.5t60 -24t26 -68q0 -166 -121 -375
q-8 -13 -22 -6z" />
    <glyph glyph-name="lcaron" unicode="&#x13e;" horiz-adv-x="571" 
d="M281 1411v-1386q0 -11 -7.5 -18t-17.5 -7h-43q-11 0 -18 7t-7 18v1386q0 11 7 18t18 7h43q10 0 17.5 -7t7.5 -18zM424 987q-15 7 -8 21q73 172 73 292q-40 -4 -65 19t-25 59q0 37 24 59.5t58 22.5t60 -24t26 -68q0 -166 -121 -375q-8 -13 -22 -6z" />
    <glyph glyph-name="Ldot" unicode="&#x13f;" horiz-adv-x="1040" 
d="M498 684q8 27 29.5 43t50.5 16q35 0 58 -24t23 -60q0 -35 -23 -58t-58 -23q-29 0 -51 15.5t-29 41.5q-9 25 0 49zM301 1409v-1331h592q11 0 18 -7t7 -18v-28q0 -11 -7 -18t-18 -7h-664q-10 0 -17 7t-7 18v1384q0 11 7 18t17 7h47q10 0 17.5 -7t7.5 -18z" />
    <glyph glyph-name="ldot" unicode="&#x140;" horiz-adv-x="645" 
d="M432 684q8 27 29.5 43t50.5 16q35 0 58.5 -24.5t23.5 -59.5t-23.5 -58t-58.5 -23q-29 0 -51 15.5t-29 41.5q-9 25 0 49zM281 1411v-1386q0 -11 -7.5 -18t-17.5 -7h-43q-11 0 -18 7t-7 18v1386q0 11 7 18t18 7h43q10 0 17.5 -7t7.5 -18z" />
    <glyph glyph-name="Lslash" unicode="&#x141;" horiz-adv-x="1024" 
d="M285 1409v-643l417 242q7 5 18 1.5t15 -12.5l6 -12q5 -7 2 -18t-10 -15l-448 -258v-616h592q10 0 17 -7t7 -18v-28q0 -11 -7 -18t-17 -7h-664q-11 0 -18 7t-7 18v614l-114 -66q-7 -5 -18 -2.5t-17 11.5l-6 10q-5 7 -2 18t10 15l147 84v700q0 11 7 18t18 7h47
q10 0 17.5 -7t7.5 -18z" />
    <glyph glyph-name="lslash" unicode="&#x142;" horiz-adv-x="655" 
d="M41 629l143 82v700q0 11 7 18t18 7h45q10 0 17.5 -7t7.5 -18v-645l301 174q20 12 34 -8l7 -12q6 -8 3.5 -18t-10.5 -15l-335 -195v-667q0 -11 -7.5 -18t-17.5 -7h-45q-11 0 -18 7t-7 18v614l-110 -64q-7 -5 -18 -2.5t-15 11.5l-8 12q-5 7 -2 18t10 15z" />
    <glyph glyph-name="Nacute" unicode="&#x143;" horiz-adv-x="1544" 
d="M205 25v1405q0 6 5 11t11 5q18 0 27 -12l997 -1227v1202q0 11 7.5 18t17.5 7h45q10 0 17 -7t7 -18v-1401q0 -8 -5.5 -13t-12.5 -5q-17 0 -31 14l-991 1219v-1198q0 -11 -7.5 -18t-17.5 -7h-45q-10 0 -17 7t-7 18zM623 1624q-4 8 -3 17t7 14l243 180q20 13 35 -6l15 -25
q6 -8 3.5 -17.5t-10.5 -14.5l-260 -154q-8 -4 -16.5 -2t-13.5 8z" />
    <glyph glyph-name="nacute" unicode="&#x144;" horiz-adv-x="1167" 
d="M264 770v-745q0 -11 -7 -18t-17 -7h-52q-10 0 -17 7t-7 18v974q0 11 7 18t17 7h11q10 0 18 -7t10 -18l21 -145q52 70 123 114t130.5 58t121.5 14q77 0 140 -16t106 -43t75.5 -67.5t51 -83t30 -96.5t15 -101.5t3.5 -104.5v-503q0 -11 -7 -18t-17 -7h-55q-11 0 -18 7t-7 18
v501q0 142 -21 216q-60 214 -307 214q-107 0 -206 -59.5t-142 -126.5zM434 1214q-4 8 -3 17t7 14l244 180q20 13 35 -6l14 -24q6 -8 4 -18t-10 -15l-260 -154q-8 -4 -17 -2t-14 8z" />
    <glyph glyph-name="Ncommaaccent" unicode="&#x145;" horiz-adv-x="1544" 
d="M205 25v1405q0 6 5 11t11 5q18 0 27 -12l997 -1227v1202q0 11 7.5 18t17.5 7h45q10 0 17 -7t7 -18v-1401q0 -8 -5.5 -13t-12.5 -5q-17 0 -31 14l-991 1219v-1198q0 -11 -7.5 -18t-17.5 -7h-45q-10 0 -17 7t-7 18zM727 -625q-6 3 -8.5 10t0.5 13q59 150 59 258
q-40 -4 -65 19t-25 59q0 37 24 59.5t58 22.5q33 0 59.5 -25.5t26.5 -66.5q0 -143 -106 -340q-8 -16 -23 -9z" />
    <glyph glyph-name="ncommaaccent" unicode="&#x146;" horiz-adv-x="1167" 
d="M264 770v-745q0 -11 -7 -18t-17 -7h-52q-10 0 -17 7t-7 18v974q0 11 7 18t17 7h11q10 0 18 -7t10 -18l21 -145q52 70 123 114t130.5 58t121.5 14q77 0 140 -16t106 -43t75.5 -67.5t51 -83t30 -96.5t15 -101.5t3.5 -104.5v-503q0 -11 -7 -18t-17 -7h-55q-11 0 -18 7t-7 18
v501q0 142 -21 216q-60 214 -307 214q-107 0 -206 -59.5t-142 -126.5zM539 -625q-16 8 -9 23q60 152 60 258q-40 -4 -65 19t-25 59q0 37 24 59.5t58 22.5q33 0 59.5 -25.5t26.5 -66.5q0 -142 -107 -340q-8 -16 -22 -9z" />
    <glyph glyph-name="Ncaron" unicode="&#x147;" horiz-adv-x="1544" 
d="M205 25v1405q0 6 5 11t11 5q18 0 27 -12l997 -1227v1202q0 11 7.5 18t17.5 7h45q10 0 17 -7t7 -18v-1401q0 -8 -5.5 -13t-12.5 -5q-17 0 -31 14l-991 1219v-1198q0 -11 -7.5 -18t-17.5 -7h-45q-10 0 -17 7t-7 18zM504 1831q5 8 14 10t17 -2l237 -139l238 139q8 4 16.5 2
t13.5 -10q5 -6 3.5 -15.5t-7.5 -13.5l-243 -180q-21 -14 -41 0l-244 180q-6 4 -7.5 13.5t3.5 15.5z" />
    <glyph glyph-name="ncaron" unicode="&#x148;" horiz-adv-x="1167" 
d="M264 770v-745q0 -11 -7 -18t-17 -7h-52q-10 0 -17 7t-7 18v974q0 11 7 18t17 7h11q10 0 18 -7t10 -18l21 -145q52 70 123 114t130.5 58t121.5 14q77 0 140 -16t106 -43t75.5 -67.5t51 -83t30 -96.5t15 -101.5t3.5 -104.5v-503q0 -11 -7 -18t-17 -7h-55q-11 0 -18 7t-7 18
v501q0 142 -21 216q-60 214 -307 214q-107 0 -206 -59.5t-142 -126.5zM315 1421q5 8 14 10.5t17 -1.5l238 -140l237 140q8 4 17 1.5t14 -10.5q4 -6 3 -14.5t-7 -13.5l-244 -181q-20 -14 -41 0l-244 181q-6 4 -7.5 13t3.5 15z" />
    <glyph glyph-name="napostrophe" unicode="&#x149;" horiz-adv-x="1261" 
d="M358 770v-745q0 -11 -7 -18t-17 -7h-51q-11 0 -18 7t-7 18v974q0 11 7 18t18 7h10q11 0 19.5 -7.5t9.5 -17.5l20 -145q52 70 123 114t130.5 58t121.5 14q77 0 140 -16t106 -43t75.5 -67.5t51.5 -83t30 -96.5t15 -101.5t4 -104.5v-503q0 -11 -7.5 -18t-17.5 -7h-55
q-11 0 -18 7t-7 18v501v10q0 32 -0.5 50.5t-3 56.5t-8 63t-17 60.5t-27 59.5t-41 50.5t-57 42.5t-76 26.5t-97.5 10.5q-107 0 -206.5 -59.5t-142.5 -126.5zM59 1077q-6 3 -8.5 10t0.5 13q60 152 60 258q-40 -4 -65.5 19t-25.5 59q0 37 24 59.5t58 22.5q33 0 59.5 -26
t26.5 -67q0 -143 -106 -340q-3 -6 -10 -8.5t-13 0.5z" />
    <glyph glyph-name="Eng" unicode="&#x14a;" horiz-adv-x="1544" 
d="M1012 -477q-66 0 -142.5 21.5t-76.5 47.5q0 9 4 13l12 24q7 15 25 15q6 0 10 -2q83 -39 151 -39q113 0 180.5 73.5t67.5 231.5v153l-944 1162v-1198q0 -11 -7.5 -18t-17.5 -7h-45q-10 0 -17 7t-7 18v1405q0 6 5 11t11 5q18 0 27 -12l995 -1225q0 799 2 1200q0 11 7.5 18
t17.5 7h45q10 0 17 -7t7 -18v-1501q0 -274 -176 -355q-65 -30 -151 -30z" />
    <glyph glyph-name="eng" unicode="&#x14b;" horiz-adv-x="1167" 
d="M711 -479q-66 0 -142.5 21.5t-76.5 47.5q0 9 4 13l12 24q8 15 24 15q7 0 11 -2q83 -39 151 -39q113 0 180.5 73.5t67.5 231.5l-2 620q0 142 -21 216q-60 214 -307 214q-107 0 -206 -59.5t-142 -126.5v-745q0 -11 -7 -18t-17 -7h-52q-10 0 -17 7t-7 18v974q0 11 7 18t17 7
h11q10 0 18 -7t10 -18l21 -145q52 70 123 114t130.5 58t121.5 14q77 0 140 -16t106 -43t75.5 -67.5t51 -83t30 -96.5t15 -101.5t3.5 -104.5l-2 -622v-3v-25.5t-3 -40.5t-8 -53.5t-16.5 -58t-27 -60.5t-41.5 -55t-58 -46.5t-77.5 -30.5t-99.5 -12z" />
    <glyph glyph-name="Omacron" unicode="&#x14c;" horiz-adv-x="1660" 
d="M829 -14q-114 0 -211 25t-168 67t-128 101t-93.5 124t-61 138t-34.5 141t-10 135q0 68 10 136.5t34.5 142t61 138.5t93.5 123.5t128 100.5t168 67t211 25t212 -25t169 -67t128 -100.5t94 -123.5t61.5 -138.5t34.5 -142t10 -136.5q0 -79 -15 -159t-46.5 -164t-87.5 -156
t-131.5 -129t-186 -90t-242.5 -33zM829 1370q-110 0 -202 -26.5t-153.5 -69.5t-109.5 -102t-75 -118t-44 -124.5t-22.5 -114.5t-5.5 -94q0 -43 4.5 -89t20.5 -112.5t41.5 -125.5t73 -120.5t109 -105.5t155.5 -72t208 -28q110 0 201.5 26.5t153.5 68.5t110 100.5t75.5 117.5
t45 124.5t23.5 115.5t6 96t-6 96.5t-23.5 116t-45 125t-75.5 118t-110 101.5t-153.5 69.5t-201.5 26.5zM547 1698h567q10 0 17.5 -7t7.5 -18v-26q0 -11 -7.5 -18t-17.5 -7h-567q-11 0 -18 7t-7 18v26q0 11 7 18t18 7z" />
    <glyph glyph-name="omacron" unicode="&#x14d;" horiz-adv-x="1265" 
d="M633 1040q113 0 203.5 -34.5t146.5 -89t93 -126t52 -140.5t15 -138q0 -71 -15 -140.5t-52 -140.5t-93 -125t-146.5 -88t-203.5 -34t-203.5 34t-146.5 88t-93 125t-52 140.5t-15 140.5q0 69 15 138t52 140.5t93 126t146.5 89t203.5 34.5zM633 61q73 0 134.5 19t103.5 49
t74.5 71t51 82.5t30.5 86t16 78.5t4 63q0 44 -8.5 95t-35.5 117t-70 117.5t-121 87.5t-179 36q-73 0 -134.5 -19t-103 -49.5t-74 -72.5t-51 -84t-30 -87.5t-15.5 -79t-4 -63.5t4 -63.5t15.5 -78t30 -85.5t51 -82t74 -71t103 -48.5t134.5 -18.5zM348 1288h567q11 0 18 -7
t7 -17v-27q0 -11 -7 -18t-18 -7h-567q-10 0 -17 7t-7 18v27q0 10 7 17t17 7z" />
    <glyph glyph-name="Obreve" unicode="&#x14e;" horiz-adv-x="1660" 
d="M829 -14q-114 0 -211 25t-168 67t-128 101t-93.5 124t-61 138t-34.5 141t-10 135q0 68 10 136.5t34.5 142t61 138.5t93.5 123.5t128 100.5t168 67t211 25t212 -25t169 -67t128 -100.5t94 -123.5t61.5 -138.5t34.5 -142t10 -136.5q0 -79 -15 -159t-46.5 -164t-87.5 -156
t-131.5 -129t-186 -90t-242.5 -33zM829 1370q-110 0 -202 -26.5t-153.5 -69.5t-109.5 -102t-75 -118t-44 -124.5t-22.5 -114.5t-5.5 -94q0 -43 4.5 -89t20.5 -112.5t41.5 -125.5t73 -120.5t109 -105.5t155.5 -72t208 -28q110 0 201.5 26.5t153.5 68.5t110 100.5t75.5 117.5
t45 124.5t23.5 115.5t6 96t-6 96.5t-23.5 116t-45 125t-75.5 118t-110 101.5t-153.5 69.5t-201.5 26.5zM1059 1839l6 -2q9 -3 13 -12.5t1 -18.5q-73 -180 -248 -180q-173 0 -249 180q-3 9 1 18.5t13 12.5h6q21 7 31 -14q53 -125 198 -125q66 0 118 31.5t79 95.5q3 9 12.5 13
t18.5 1z" />
    <glyph glyph-name="obreve" unicode="&#x14f;" horiz-adv-x="1265" 
d="M633 1040q113 0 203.5 -34.5t146.5 -89t93 -126t52 -140.5t15 -138q0 -71 -15 -140.5t-52 -140.5t-93 -125t-146.5 -88t-203.5 -34t-203.5 34t-146.5 88t-93 125t-52 140.5t-15 140.5q0 69 15 138t52 140.5t93 126t146.5 89t203.5 34.5zM633 61q73 0 134.5 19t103.5 49
t74.5 71t51 82.5t30.5 86t16 78.5t4 63q0 44 -8.5 95t-35.5 117t-70 117.5t-121 87.5t-179 36q-73 0 -134.5 -19t-103 -49.5t-74 -72.5t-51 -84t-30 -87.5t-15.5 -79t-4 -63.5t4 -63.5t15.5 -78t30 -85.5t51 -82t74 -71t103 -48.5t134.5 -18.5zM860 1430l6 -3q15 -6 15 -22
v-8q-73 -180 -248 -180q-174 0 -250 180q-2 2 -2 8q0 16 16 22h6h9q16 0 22 -14q53 -125 199 -125q66 0 117.5 31.5t78.5 95.5q3 15 23 15h8z" />
    <glyph glyph-name="Ohungarumlaut" unicode="&#x150;" horiz-adv-x="1660" 
d="M805 -14q-151 3 -272 52.5t-196 124t-125 172.5t-69.5 192.5t-19.5 189.5q0 68 10 136.5t34.5 142t61 138.5t93.5 123.5t128 100.5t168 67t211 25t212 -25t169 -67t128 -100.5t94 -123.5t61.5 -138.5t34.5 -142t10 -136.5q0 -101 -21 -198t-74.5 -195.5t-134 -172
t-210.5 -119.5t-293 -46zM805 1370q-106 -3 -193.5 -31t-147 -71.5t-105.5 -102t-72 -116.5t-42.5 -122.5t-22 -113t-5.5 -92.5q0 -43 4.5 -89t20.5 -112.5t41.5 -125.5t73 -120.5t109 -105.5t155.5 -72t208 -28q110 0 201.5 26.5t153.5 68.5t110 100.5t75.5 117.5t45 124.5
t23.5 115.5t6 96q0 49 -6 100.5t-24 117.5t-47 124.5t-79 117t-114.5 100t-159.5 67.5t-209 26zM733 1915l-110 -270q-7 -23 -33 -23q-17 0 -17 18v5l86 270q3 9 13 15.5t20 6.5h27q6 0 11 -5t5 -11q0 -4 -2 -6zM1081 1915l-110 -270q-7 -23 -33 -23q-16 0 -16 18v5l86 270
q3 9 12.5 15.5t19.5 6.5h27q6 0 11 -5t5 -11q0 -4 -2 -6z" />
    <glyph glyph-name="ohungarumlaut" unicode="&#x151;" horiz-adv-x="1265" 
d="M633 1040q113 0 203.5 -34.5t146.5 -89t93 -126t52 -140.5t15 -138q0 -71 -15 -140.5t-52 -140.5t-93 -125t-146.5 -88t-203.5 -34t-203.5 34t-146.5 88t-93 125t-52 140.5t-15 140.5q0 69 15 138t52 140.5t93 126t146.5 89t203.5 34.5zM633 61q73 0 134.5 19t103.5 49
t74.5 71t51 82.5t30.5 86t16 78.5t4 63q0 44 -8.5 95t-35.5 117t-70 117.5t-121 87.5t-179 36q-73 0 -134.5 -19t-103 -49.5t-74 -72.5t-51 -84t-30 -87.5t-15.5 -79t-4 -63.5t4 -63.5t15.5 -78t30 -85.5t51 -82t74 -71t103 -48.5t134.5 -18.5zM537 1505l-111 -270
q-7 -23 -33 -23q-16 0 -16 19v4l86 270q3 9 13 16t20 7h26q6 0 11.5 -5.5t5.5 -11.5q0 -4 -2 -6zM885 1505l-111 -270q-7 -23 -33 -23q-16 0 -16 19v4l86 270q3 9 13 16t20 7h26q6 0 11.5 -5.5t5.5 -11.5q0 -4 -2 -6z" />
    <glyph glyph-name="OE" unicode="&#x152;" horiz-adv-x="2019" 
d="M805 -14q-151 3 -272 52.5t-196 124t-125 172.5t-69.5 192.5t-19.5 189.5q0 68 10 136.5t34.5 142t61 138.5t93.5 123.5t128 100.5t168 67t211 25q89 0 177 -16h866q10 0 17 -7t7 -18v-29q0 -10 -7 -17t-17 -7h-791v-600h621q10 0 17 -7t7 -18v-29q0 -10 -7 -17t-17 -7
h-621v-600h791q10 0 17 -7t7 -18v-28q0 -11 -7 -18t-17 -7h-879q-100 -14 -188 -14zM829 68q92 0 158 14v1272q-82 16 -158 16q-110 0 -202 -26.5t-153.5 -69.5t-109.5 -102t-75 -118t-44 -124.5t-22.5 -114.5t-5.5 -94q0 -43 4.5 -89t20.5 -112.5t41.5 -125.5t73 -120.5
t109 -105.5t155.5 -72t208 -28z" />
    <glyph glyph-name="oe" unicode="&#x153;" horiz-adv-x="2045" 
d="M1925 526h-782v-20q5 -198 121.5 -320.5t300.5 -122.5q168 0 295 95q22 11 34 -6q13 -13 17 -19q6 -7 5.5 -17t-9.5 -16q-153 -118 -353 -118q-162 0 -280.5 74.5t-179.5 209.5q-26 -60 -64.5 -109t-94 -89t-132.5 -62t-170 -22q-113 0 -203.5 34t-146.5 88t-93 125
t-52 140.5t-15 140.5q0 69 15 138t52 140.5t93 126t146.5 89t203.5 34.5q176 0 290 -78t169 -202q124 289 456 289q192 0 299 -113.5t107 -317.5q0 -7 -1 -30t-1 -37q-4 -25 -27 -25zM633 61q73 0 134 19t102.5 49t73.5 71.5t50.5 83t30.5 86.5t16 78.5t4 63.5v18
q-2 46 -12 96t-39 112.5t-71.5 110.5t-117.5 81t-171 33q-100 0 -177.5 -36t-120 -87t-69.5 -117.5t-35 -116.5t-8 -94t8 -94t35 -116.5t69.5 -117.5t120 -87t177.5 -36zM1546 967q-163 0 -269.5 -108.5t-127.5 -266.5h702q4 21 4 63q0 58 -14.5 108.5t-47.5 96.5
t-96.5 74.5t-150.5 32.5z" />
    <glyph glyph-name="Racute" unicode="&#x154;" horiz-adv-x="1329" 
d="M299 569v-544q0 -11 -7.5 -18t-17.5 -7h-45q-10 0 -17 7t-7 18v1384q0 11 7 18t17 7h498q107 0 192.5 -28.5t138.5 -73t88.5 -103t49.5 -114.5t14 -111q0 -91 -33.5 -169.5t-89.5 -132t-125.5 -87t-144.5 -42.5l268 -550q3 -7 -1.5 -15t-12.5 -8h-49q-25 0 -35 23
l-266 546h-422zM299 647h440q83 2 150 26t109 61t70.5 85t40 94t11.5 91q0 54 -19.5 111t-60 113t-116 92t-174.5 36h-451v-709zM514 1624q-4 8 -3 17t7 14l244 180q20 13 35 -6l14 -25q6 -8 4 -17.5t-10 -14.5l-260 -154q-8 -4 -17 -2t-14 8z" />
    <glyph glyph-name="racute" unicode="&#x155;" horiz-adv-x="735" 
d="M690 1012l-8 -33q-1 -10 -9.5 -16.5t-19.5 -6.5q-12 2 -41 2q-105 0 -208 -63t-146 -129v-741q0 -11 -7 -18t-18 -7h-45q-10 0 -17 7t-7 18v974q0 11 7 18t17 7h13q10 0 18 -7t10 -18l21 -141q169 182 373 182q33 0 47 -2q9 -2 15 -9.5t5 -16.5zM223 1214q-4 8 -3 17
t7 14l244 180q20 13 35 -6l14 -24q6 -8 4 -18t-10 -15l-260 -154q-8 -4 -17 -2t-14 8z" />
    <glyph glyph-name="Rcommaaccent" unicode="&#x156;" horiz-adv-x="1329" 
d="M299 569v-544q0 -11 -7.5 -18t-17.5 -7h-45q-10 0 -17 7t-7 18v1384q0 11 7 18t17 7h498q107 0 192.5 -28.5t138.5 -73t88.5 -103t49.5 -114.5t14 -111q0 -91 -33.5 -169.5t-89.5 -132t-125.5 -87t-144.5 -42.5l268 -550q3 -7 -1.5 -15t-12.5 -8h-49q-25 0 -35 23
l-266 546h-422zM299 647h440q83 2 150 26t109 61t70.5 85t40 94t11.5 91q0 54 -19.5 111t-60 113t-116 92t-174.5 36h-451v-709zM569 -625q-6 3 -8.5 10t0.5 13q60 152 60 258q-40 -4 -65.5 19t-25.5 59q0 37 24 59.5t58 22.5q33 0 59.5 -25.5t26.5 -66.5q0 -143 -106 -340
q-8 -16 -23 -9z" />
    <glyph glyph-name="rcommaaccent" unicode="&#x157;" horiz-adv-x="735" 
d="M690 1012l-8 -33q-1 -10 -9.5 -16.5t-19.5 -6.5q-12 2 -41 2q-105 0 -208 -63t-146 -129v-741q0 -11 -7 -18t-18 -7h-45q-10 0 -17 7t-7 18v974q0 11 7 18t17 7h13q10 0 18 -7t10 -18l21 -141q169 182 373 182q33 0 47 -2q9 -2 15 -9.5t5 -16.5zM180 -625q-6 3 -8.5 10
t0.5 13q59 150 59 258q-40 -4 -65 19t-25 59q0 37 24 59.5t58 22.5q33 0 59.5 -25.5t26.5 -66.5q0 -143 -106 -340q-8 -16 -23 -9z" />
    <glyph glyph-name="Rcaron" unicode="&#x158;" horiz-adv-x="1329" 
d="M299 569v-544q0 -11 -7.5 -18t-17.5 -7h-45q-10 0 -17 7t-7 18v1384q0 11 7 18t17 7h498q107 0 192.5 -28.5t138.5 -73t88.5 -103t49.5 -114.5t14 -111q0 -91 -33.5 -169.5t-89.5 -132t-125.5 -87t-144.5 -42.5l268 -550q3 -7 -1.5 -15t-12.5 -8h-49q-25 0 -35 23
l-266 546h-422zM299 647h440q83 2 150 26t109 61t70.5 85t40 94t11.5 91q0 54 -19.5 111t-60 113t-116 92t-174.5 36h-451v-709zM326 1831q5 8 13.5 10t16.5 -2l238 -139l237 139q8 4 17 2t14 -10q5 -6 3.5 -15.5t-7.5 -13.5l-244 -180q-20 -14 -41 0l-243 180
q-6 4 -7.5 13.5t3.5 15.5z" />
    <glyph glyph-name="rcaron" unicode="&#x159;" horiz-adv-x="735" 
d="M690 1012l-8 -33q-1 -10 -9.5 -16.5t-19.5 -6.5q-12 2 -41 2q-105 0 -208 -63t-146 -129v-741q0 -11 -7 -18t-18 -7h-45q-10 0 -17 7t-7 18v974q0 11 7 18t17 7h13q10 0 18 -7t10 -18l21 -141q169 182 373 182q33 0 47 -2q9 -2 15 -9.5t5 -16.5zM104 1421q5 8 14 10.5
t17 -1.5l238 -140l237 140q8 4 17 1.5t14 -10.5q5 -6 3.5 -14.5t-7.5 -13.5l-244 -181q-21 -14 -41 0l-243 181q-6 5 -7.5 13.5t2.5 14.5z" />
    <glyph glyph-name="Sacute" unicode="&#x15a;" horiz-adv-x="1226" 
d="M219 1114v-2q0 -53 21.5 -96.5t46.5 -70.5t83.5 -56t91.5 -41.5t112 -39.5q33 -11 49 -17q181 -61 247 -92q167 -82 212 -210q22 -60 20 -133q-5 -156 -141.5 -264t-348.5 -108q-142 0 -242 22t-212 74q-9 5 -13 14.5t0 18.5l15 26q15 23 35 13q206 -82 401 -82
q106 0 194 30t147 95t64 155q0 65 -22.5 116t-55 84t-89.5 62.5t-103.5 46.5t-120.5 41q-27 8 -41 13q-180 58 -252 96q-161 86 -187 230q-5 31 -5 63q0 170 115.5 257t304.5 87q205 0 432 -82q9 -3 12.5 -12.5t-0.5 -18.5l-14 -35q-11 -21 -33 -14q-228 76 -391 76
q-65 0 -120 -12t-103.5 -38.5t-77.5 -76.5t-31 -119zM463 1624q-4 8 -3 17t7 14l244 180q19 13 34 -6l15 -25q6 -8 4 -17.5t-10 -14.5l-260 -154q-8 -4 -17 -2t-14 8z" />
    <glyph glyph-name="sacute" unicode="&#x15b;" horiz-adv-x="956" 
d="M219 784q0 -50 26.5 -88t69.5 -60.5t98.5 -44.5t113 -38.5t113 -43t98.5 -58t69.5 -84t26.5 -119.5q0 -119 -101.5 -195t-255.5 -76q-98 0 -221 29.5t-123 71.5q0 6 2 10l15 25q7 14 22 14q6 0 10 -2q150 -70 283 -70q108 0 186 51.5t78 139.5q0 64 -33.5 110t-87 72
t-118 46.5t-129 43t-118 51.5t-87 80.5t-33.5 122.5q0 123 87 195.5t220 72.5q166 0 309 -57q15 -7 15 -22q0 -9 -2 -11l-9 -22q-7 -17 -24 -17q-6 0 -8 2q-139 48 -238 48q-112 0 -179.5 -39.5t-74.5 -137.5zM334 1214q-4 8 -4 13q0 13 8 18l244 180q10 5 14 5q9 0 20 -11
l15 -24q4 -8 4 -13q0 -13 -10 -20l-260 -154q-8 -4 -13 -4q-11 0 -18 10z" />
    <glyph glyph-name="Scircumflex" unicode="&#x15c;" horiz-adv-x="1226" 
d="M219 1114v-2q0 -53 21.5 -96.5t46.5 -70.5t83.5 -56t91.5 -41.5t112 -39.5q33 -11 49 -17q181 -61 247 -92q167 -82 212 -210q22 -60 20 -133q-5 -156 -141.5 -264t-348.5 -108q-142 0 -242 22t-212 74q-9 5 -13 14.5t0 18.5l15 26q15 23 35 13q206 -82 401 -82
q106 0 194 30t147 95t64 155q0 65 -22.5 116t-55 84t-89.5 62.5t-103.5 46.5t-120.5 41q-27 8 -41 13q-180 58 -252 96q-161 86 -187 230q-5 31 -5 63q0 170 115.5 257t304.5 87q205 0 432 -82q9 -3 12.5 -12.5t-0.5 -18.5l-14 -35q-11 -21 -33 -14q-228 76 -391 76
q-65 0 -120 -12t-103.5 -38.5t-77.5 -76.5t-31 -119zM309 1624q-4 8 -3 17t7 14l244 180q21 14 41 0l244 -180q6 -5 7 -14t-3 -17q-5 -6 -14 -8t-17 2l-237 139l-238 -139q-8 -4 -17 -2t-14 8z" />
    <glyph glyph-name="scircumflex" unicode="&#x15d;" horiz-adv-x="956" 
d="M219 784q0 -50 26.5 -88t69.5 -60.5t98.5 -44.5t113 -38.5t113 -43t98.5 -58t69.5 -84t26.5 -119.5q0 -119 -101.5 -195t-255.5 -76q-98 0 -221 29.5t-123 71.5q0 6 2 10l15 25q7 14 22 14q6 0 10 -2q150 -70 283 -70q108 0 186 51.5t78 139.5q0 64 -33.5 110t-87 72
t-118 46.5t-129 43t-118 51.5t-87 80.5t-33.5 122.5q0 123 87 195.5t220 72.5q166 0 309 -57q15 -7 15 -22q0 -9 -2 -11l-9 -22q-7 -17 -24 -17q-6 0 -8 2q-139 48 -238 48q-112 0 -179.5 -39.5t-74.5 -137.5zM215 1214q-4 8 -4 13q0 13 8 18l244 180q10 7 20 7q11 0 21 -7
l244 -180q8 -8 8 -18q0 -9 -7.5 -16t-17.5 -7q-2 0 -10 4l-238 140l-237 -140q-8 -4 -13 -4q-11 0 -18 10z" />
    <glyph glyph-name="Scedilla" unicode="&#x15e;" horiz-adv-x="1226" 
d="M563 -152q-4 8 -4 13v125q-121 4 -210.5 26t-190.5 68q-9 5 -13 14.5t0 18.5l15 26q15 23 35 13q206 -82 401 -82q106 0 194 30t147 95t64 155q0 65 -22.5 116t-55 84t-89.5 62.5t-103.5 46.5t-120.5 41q-27 8 -41 13q-180 58 -252 96q-161 86 -187 230q-5 31 -5 63
q0 170 115.5 257t304.5 87q205 0 432 -82q9 -3 12.5 -12.5t-0.5 -18.5l-14 -35q-11 -21 -33 -14q-228 76 -391 76q-65 0 -120 -12t-103.5 -38.5t-77.5 -76.5t-31 -119v-2q0 -53 21.5 -96.5t46.5 -70.5t83.5 -56t91.5 -41.5t112 -39.5q33 -11 49 -17q181 -61 247 -92
q167 -82 212 -210q22 -60 20 -133q-5 -154 -136.5 -261t-338.5 -111v-74h39q83 -4 127.5 -55t44.5 -113q0 -93 -60 -143t-143 -50q-64 0 -135 33q-9 3 -13 13.5t0 19.5l9 14q10 20 32 13q56 -21 99 -21q67 0 98 36t31 85q0 43 -33.5 72.5t-101.5 29.5h-46q-4 0 -12 4z" />
    <glyph glyph-name="scedilla" unicode="&#x15f;" horiz-adv-x="956" 
d="M426 -152q-4 8 -4 13v119q-147 8 -277 73q-8 5 -11 15.5t1 19.5l15 25q11 22 32 12q150 -70 283 -70q108 0 186 51.5t78 139.5q0 52 -20.5 91t-63.5 67t-81.5 44t-102.5 37q-39 12 -55.5 17t-52.5 17t-53.5 20.5t-46.5 23.5t-44 28.5t-34.5 33.5t-28.5 41t-16 48t-7 58
q0 123 87 195.5t220 72.5q166 0 309 -57q9 -5 13 -14.5t0 -18.5l-9 -22q-11 -22 -32 -15q-139 48 -238 48q-112 0 -179.5 -39.5t-74.5 -137.5q0 -45 16.5 -77.5t61 -59t71 -37.5t98.5 -36q13 -5 19 -7q49 -16 72.5 -24.5t68 -27t67.5 -33t54.5 -40t47.5 -51.5t27.5 -63
t11.5 -80q0 -117 -98 -191.5t-247 -79.5v-67h39q83 -4 127.5 -55t44.5 -113q0 -93 -59.5 -143t-142.5 -50q-65 0 -136 33q-9 3 -13 13.5t1 19.5l8 14q4 9 14 12.5t19 0.5q55 -21 98 -21q67 0 98 36t31 85q0 43 -33.5 72.5t-101.5 29.5h-45q-4 0 -12 4z" />
    <glyph glyph-name="Scaron" unicode="&#x160;" horiz-adv-x="1226" 
d="M219 1114v-2q0 -53 21.5 -96.5t46.5 -70.5t83.5 -56t91.5 -41.5t112 -39.5q33 -11 49 -17q181 -61 247 -92q167 -82 212 -210q22 -60 20 -133q-5 -156 -141.5 -264t-348.5 -108q-142 0 -242 22t-212 74q-9 5 -13 14.5t0 18.5l15 26q15 23 35 13q206 -82 401 -82
q106 0 194 30t147 95t64 155q0 65 -22.5 116t-55 84t-89.5 62.5t-103.5 46.5t-120.5 41q-27 8 -41 13q-180 58 -252 96q-161 86 -187 230q-5 31 -5 63q0 170 115.5 257t304.5 87q205 0 432 -82q9 -3 12.5 -12.5t-0.5 -18.5l-14 -35q-11 -21 -33 -14q-228 76 -391 76
q-65 0 -120 -12t-103.5 -38.5t-77.5 -76.5t-31 -119zM322 1831q5 8 13.5 10t16.5 -2l238 -139l237 139q8 4 17 2t14 -10q5 -6 3.5 -15.5t-7.5 -13.5l-244 -180q-21 -14 -41 0l-243 180q-6 4 -7.5 13.5t3.5 15.5z" />
    <glyph glyph-name="scaron" unicode="&#x161;" horiz-adv-x="956" 
d="M219 784q0 -50 26.5 -88t69.5 -60.5t98.5 -44.5t113 -38.5t113 -43t98.5 -58t69.5 -84t26.5 -119.5q0 -119 -101.5 -195t-255.5 -76q-98 0 -221 29.5t-123 71.5q0 6 2 10l15 25q7 14 22 14q6 0 10 -2q150 -70 283 -70q108 0 186 51.5t78 139.5q0 64 -33.5 110t-87 72
t-118 46.5t-129 43t-118 51.5t-87 80.5t-33.5 122.5q0 123 87 195.5t220 72.5q166 0 309 -57q15 -7 15 -22q0 -9 -2 -11l-9 -22q-7 -17 -24 -17q-6 0 -8 2q-139 48 -238 48q-112 0 -179.5 -39.5t-74.5 -137.5zM211 1421q7 11 20 11q7 0 11 -2l237 -140l238 140q2 2 10 2
q10 0 17.5 -6.5t7.5 -16.5q0 -7 -9 -16l-243 -181q-9 -6 -21 -6q-11 0 -20 6l-244 181q-8 5 -8 16q0 4 4 12z" />
    <glyph glyph-name="Tcommaaccent" unicode="&#x162;" horiz-adv-x="1196" 
d="M547 25v1329h-430q-11 0 -18 7t-7 17v31q0 11 7 18t18 7h962q11 0 18 -7t7 -18v-31q0 -10 -7 -17t-18 -7h-436v-1329q0 -11 -7.5 -18t-17.5 -7h-47q-10 0 -17 7t-7 18zM553 -625q-6 3 -8.5 10t0.5 13q59 150 59 258q-40 -4 -65 19t-25 59q0 37 24 59.5t58 22.5
q33 0 59.5 -25.5t26.5 -66.5q0 -142 -107 -340q-8 -16 -22 -9z" />
    <glyph glyph-name="tcommaaccent" unicode="&#x163;" horiz-adv-x="575" 
d="M162 961h-117q-11 0 -18 7t-7 17v14q0 11 7 18t18 7h119l16 184q0 10 8 17.5t19 7.5h24q11 0 18 -7.5t7 -17.5v-184h223q11 0 18 -7t7 -18v-14q0 -10 -7 -17t-18 -7h-223v-711q0 -187 180 -187q27 0 80 11q24 3 31 -21l2 -12q3 -11 -3 -20.5t-16 -10.5q-77 -22 -145 -22
q-98 0 -157.5 55t-65.5 176v742zM242 -625q-16 8 -9 23q60 152 60 258q-40 -4 -65 19t-25 59q0 37 24 59.5t58 22.5q33 0 59.5 -25.5t26.5 -66.5q0 -142 -107 -340q-8 -16 -22 -9z" />
    <glyph glyph-name="Tcaron" unicode="&#x164;" horiz-adv-x="1196" 
d="M547 25v1329h-430q-11 0 -18 7t-7 17v31q0 11 7 18t18 7h962q11 0 18 -7t7 -18v-31q0 -10 -7 -17t-18 -7h-436v-1329q0 -11 -7.5 -18t-17.5 -7h-47q-10 0 -17 7t-7 18zM330 1831q5 8 13.5 10t16.5 -2l238 -139l238 139q8 4 16.5 2t13.5 -10q5 -6 3.5 -15.5t-7.5 -13.5
l-244 -180q-20 -13 -40 0l-244 180q-6 4 -7.5 13.5t3.5 15.5z" />
    <glyph glyph-name="tcaron" unicode="&#x165;" horiz-adv-x="989" 
d="M162 961h-117q-11 0 -18 7t-7 17v14q0 11 7 18t18 7h119l16 184q0 10 8 17.5t19 7.5h24q11 0 18 -7.5t7 -17.5v-184h223q11 0 18 -7t7 -18v-14q0 -10 -7 -17t-18 -7h-223v-711q0 -187 180 -187q27 0 80 11q24 3 31 -21l2 -12q3 -11 -3 -20.5t-16 -10.5q-77 -22 -145 -22
q-98 0 -157.5 55t-65.5 176v742zM723 991q-15 7 -8 21q73 172 73 293q-40 -4 -65 18.5t-25 58.5q0 37 24 59.5t58 22.5t60 -24t26 -68q0 -166 -121 -375q-9 -13 -22 -6z" />
    <glyph glyph-name="Tbar" unicode="&#x166;" horiz-adv-x="1196" 
d="M872 676h-229v-651q0 -11 -7.5 -18t-17.5 -7h-47q-10 0 -17 7t-7 18v651h-228q-11 0 -17.5 7t-6.5 17v23q0 11 7 18t17 7h228v606h-430q-11 0 -18 7t-7 17v31q0 11 7 18t18 7h962q11 0 18 -7t7 -18v-31q0 -10 -7 -17t-18 -7h-436v-606h229q10 0 17.5 -7t7.5 -18v-23
q0 -10 -7 -17t-18 -7z" />
    <glyph glyph-name="tbar" unicode="&#x167;" horiz-adv-x="581" 
d="M45 643h123v318h-117q-11 0 -17.5 6.5t-6.5 17.5v14q0 11 7 18t17 7h119l16 184q0 10 8 17.5t19 7.5h25q10 0 17 -7t7 -18v-184h223q11 0 18 -7t7 -18v-14q0 -10 -7 -17t-18 -7h-223v-318h221q11 0 18 -7.5t7 -17.5v-26q0 -10 -7 -17.5t-18 -7.5h-221v-317
q0 -187 180 -187q27 0 80 11q24 3 31 -21l2 -12q3 -11 -2.5 -20.5t-15.5 -10.5q-77 -22 -146 -22q-98 0 -157.5 55t-65.5 176v348h-123q-11 0 -18 7.5t-7 17.5v26q0 10 7 17.5t18 7.5z" />
    <glyph glyph-name="Utilde" unicode="&#x168;" horiz-adv-x="1456" 
d="M725 70q86 0 157.5 25t118.5 66t81.5 90t53 102.5t27 97t8.5 79.5v879q0 11 7.5 18t17.5 7h51q11 0 18 -7t7 -18v-879q0 -74 -17.5 -147.5t-59.5 -146t-103 -127.5t-156 -89t-211 -34q-115 0 -209 34t-154.5 89t-101.5 127.5t-58.5 146t-17.5 147.5v879q0 11 7 18t18 7
h43q10 0 17 -7t7 -18v-879q0 -43 11.5 -97t44 -119.5t80.5 -118.5t129.5 -89t183.5 -36zM995 1757l9 -6q10 -7 10 -22q0 -9 -2 -11q-66 -100 -172 -100q-38 0 -70.5 14t-51.5 31t-48.5 31t-63.5 14q-62 0 -112 -70q-7 -14 -23 -14q-4 0 -12 4l-6 4q-15 6 -15 23q0 6 2 10
q59 115 170 115q41 0 80.5 -23t77.5 -46t74 -23q72 0 119 61q10 10 22 10q8 0 12 -2z" />
    <glyph glyph-name="utilde" unicode="&#x169;" horiz-adv-x="1130" 
d="M909 254v745q0 11 7.5 18t17.5 7h45q11 0 18 -7t7 -18v-974q0 -11 -7 -18t-18 -7h-4q-11 0 -19.5 7.5t-9.5 17.5l-20 145q-52 -70 -124.5 -114t-133.5 -58t-123 -14q-77 0 -140 16t-106 43t-75.5 67.5t-51.5 83t-30 96.5t-15 101.5t-4 104.5v503q0 11 7 18t17 7h46
q10 0 17 -7t7 -18v-501q0 -40 1 -66t7.5 -75.5t18.5 -83.5t37 -76t60 -67.5t90 -43.5t124 -18q108 0 209.5 60t144.5 126zM834 1348l8 -7q8 -5 10 -15t-2 -17q-67 -101 -172 -101q-38 0 -70.5 14t-51.5 31t-48.5 31t-63.5 14q-63 0 -112 -69q-4 -9 -15 -12t-20 2l-6 4
q-22 11 -12 32q59 115 170 115q33 0 65 -14.5t54 -31.5t52.5 -31.5t59.5 -14.5q72 0 119 61q6 8 16.5 10.5t18.5 -1.5z" />
    <glyph glyph-name="Umacron" unicode="&#x16a;" horiz-adv-x="1456" 
d="M725 70q86 0 157.5 25t118.5 66t81.5 90t53 102.5t27 97t8.5 79.5v879q0 11 7.5 18t17.5 7h51q11 0 18 -7t7 -18v-879q0 -74 -17.5 -147.5t-59.5 -146t-103 -127.5t-156 -89t-211 -34q-115 0 -209 34t-154.5 89t-101.5 127.5t-58.5 146t-17.5 147.5v879q0 11 7 18t18 7
h43q10 0 17 -7t7 -18v-879q0 -43 11.5 -97t44 -119.5t80.5 -118.5t129.5 -89t183.5 -36zM444 1698h568q10 0 17 -7t7 -18v-26q0 -11 -7 -18t-17 -7h-568q-10 0 -17 7t-7 18v26q0 11 7 18t17 7z" />
    <glyph glyph-name="umacron" unicode="&#x16b;" horiz-adv-x="1130" 
d="M909 254v745q0 11 7.5 18t17.5 7h45q11 0 18 -7t7 -18v-974q0 -11 -7 -18t-18 -7h-4q-11 0 -19.5 7.5t-9.5 17.5l-20 145q-52 -70 -124.5 -114t-133.5 -58t-123 -14q-77 0 -140 16t-106 43t-75.5 67.5t-51.5 83t-30 96.5t-15 101.5t-4 104.5v503q0 11 7 18t17 7h46
q10 0 17 -7t7 -18v-501q0 -40 1 -66t7.5 -75.5t18.5 -83.5t37 -76t60 -67.5t90 -43.5t124 -18q108 0 209.5 60t144.5 126zM281 1288h567q10 0 17 -7t7 -17v-27q0 -11 -7 -18t-17 -7h-567q-11 0 -18 7t-7 18v27q0 10 7 17t18 7z" />
    <glyph glyph-name="Ubreve" unicode="&#x16c;" horiz-adv-x="1456" 
d="M725 70q86 0 157.5 25t118.5 66t81.5 90t53 102.5t27 97t8.5 79.5v879q0 11 7.5 18t17.5 7h51q11 0 18 -7t7 -18v-879q0 -74 -17.5 -147.5t-59.5 -146t-103 -127.5t-156 -89t-211 -34q-115 0 -209 34t-154.5 89t-101.5 127.5t-58.5 146t-17.5 147.5v879q0 11 7 18t18 7
h43q10 0 17 -7t7 -18v-879q0 -43 11.5 -97t44 -119.5t80.5 -118.5t129.5 -89t183.5 -36zM956 1839l7 -2q14 -6 14 -22v-9q-73 -180 -248 -180q-174 0 -250 180q-2 2 -2 9q0 15 17 22h6h8q16 0 22 -14q53 -125 199 -125q66 0 118 31.5t79 95.5q3 14 22 14h8z" />
    <glyph glyph-name="ubreve" unicode="&#x16d;" horiz-adv-x="1130" 
d="M909 254v745q0 11 7.5 18t17.5 7h45q11 0 18 -7t7 -18v-974q0 -11 -7 -18t-18 -7h-4q-11 0 -19.5 7.5t-9.5 17.5l-20 145q-52 -70 -124.5 -114t-133.5 -58t-123 -14q-77 0 -140 16t-106 43t-75.5 67.5t-51.5 83t-30 96.5t-15 101.5t-4 104.5v503q0 11 7 18t17 7h46
q10 0 17 -7t7 -18v-501q0 -40 1 -66t7.5 -75.5t18.5 -83.5t37 -76t60 -67.5t90 -43.5t124 -18q108 0 209.5 60t144.5 126zM793 1430l6 -3q9 -3 13 -12t1 -18q-73 -180 -248 -180q-174 0 -250 180q-3 9 1.5 18t13.5 12h6q21 7 31 -14q53 -125 198 -125q66 0 118 31.5t79 95.5
q3 9 12.5 13.5t18.5 1.5z" />
    <glyph glyph-name="Uring" unicode="&#x16e;" horiz-adv-x="1456" 
d="M545 1800q0 78 53 131.5t131 53.5q75 0 128.5 -53.5t53.5 -131.5q0 -75 -53.5 -128.5t-128.5 -53.5q-77 0 -130.5 53t-53.5 129zM602 1800q0 -50 38 -87.5t89 -37.5q49 0 87 37.5t38 87.5q0 51 -37.5 89t-87.5 38q-52 0 -89.5 -36.5t-37.5 -90.5zM725 70q86 0 157.5 25
t118.5 66t81.5 90t53 102.5t27 97t8.5 79.5v879q0 11 7.5 18t17.5 7h51q11 0 18 -7t7 -18v-879q0 -74 -17.5 -147.5t-59.5 -146t-103 -127.5t-156 -89t-211 -34q-115 0 -209 34t-154.5 89t-101.5 127.5t-58.5 146t-17.5 147.5v879q0 11 7 18t18 7h43q10 0 17 -7t7 -18v-879
q0 -43 11.5 -97t44 -119.5t80.5 -118.5t129.5 -89t183.5 -36z" />
    <glyph glyph-name="uring" unicode="&#x16f;" horiz-adv-x="1130" 
d="M381 1391q0 78 53 131t131 53q76 0 129.5 -53.5t53.5 -130.5q0 -75 -54 -129t-129 -54q-77 0 -130.5 53.5t-53.5 129.5zM438 1391q0 -50 38 -87.5t89 -37.5q49 0 87 38t38 87q0 51 -37.5 89t-87.5 38q-52 0 -89.5 -36.5t-37.5 -90.5zM909 254v745q0 11 7.5 18t17.5 7h45
q11 0 18 -7t7 -18v-974q0 -11 -7 -18t-18 -7h-4q-11 0 -19.5 7.5t-9.5 17.5l-20 145q-52 -70 -124.5 -114t-133.5 -58t-123 -14q-77 0 -140 16t-106 43t-75.5 67.5t-51.5 83t-30 96.5t-15 101.5t-4 104.5v503q0 11 7 18t17 7h46q10 0 17 -7t7 -18v-501q0 -40 1 -66
t7.5 -75.5t18.5 -83.5t37 -76t60 -67.5t90 -43.5t124 -18q108 0 209.5 60t144.5 126z" />
    <glyph glyph-name="Uhungarumlaut" unicode="&#x170;" horiz-adv-x="1456" 
d="M725 70q86 0 157.5 25t118.5 66t81.5 90t53 102.5t27 97t8.5 79.5v879q0 11 7.5 18t17.5 7h51q11 0 18 -7t7 -18v-879q0 -74 -17.5 -147.5t-59.5 -146t-103 -127.5t-156 -89t-211 -34q-115 0 -209 34t-154.5 89t-101.5 127.5t-58.5 146t-17.5 147.5v879q0 11 7 18t18 7
h43q10 0 17 -7t7 -18v-879q0 -43 11.5 -97t44 -119.5t80.5 -118.5t129.5 -89t183.5 -36zM631 1915l-111 -270q-7 -23 -33 -23q-16 0 -16 18v5l86 270q3 9 13 15.5t20 6.5h26q6 0 11.5 -5t5.5 -11q0 -4 -2 -6zM979 1915l-111 -270q-7 -23 -32 -23q-17 0 -17 18v5l86 270
q3 9 12.5 15.5t20.5 6.5h27q6 0 11 -5t5 -11q0 -4 -2 -6z" />
    <glyph glyph-name="uhungarumlaut" unicode="&#x171;" horiz-adv-x="1130" 
d="M909 254v745q0 11 7.5 18t17.5 7h45q11 0 18 -7t7 -18v-974q0 -11 -7 -18t-18 -7h-4q-11 0 -19.5 7.5t-9.5 17.5l-20 145q-52 -70 -124.5 -114t-133.5 -58t-123 -14q-77 0 -140 16t-106 43t-75.5 67.5t-51.5 83t-30 96.5t-15 101.5t-4 104.5v503q0 11 7 18t17 7h46
q10 0 17 -7t7 -18v-501q0 -40 1 -66t7.5 -75.5t18.5 -83.5t37 -76t60 -67.5t90 -43.5t124 -18q108 0 209.5 60t144.5 126zM469 1505l-111 -270q-7 -23 -32 -23q-8 0 -13 7t-4 16l86 270q3 9 13 16t20 7h27q9 0 13.5 -8t0.5 -15zM817 1505l-110 -270q-7 -23 -33 -23
q-8 0 -13 7t-4 16l86 270q3 9 13 16t20 7h27q9 0 13.5 -8t0.5 -15z" />
    <glyph glyph-name="Uogonek" unicode="&#x172;" horiz-adv-x="1456" 
d="M725 70q86 0 157.5 25t118.5 66t81.5 90t53 102.5t27 97t8.5 79.5v879q0 11 7.5 18t17.5 7h51q11 0 18 -7t7 -18v-879q0 -70 -16.5 -139.5t-50.5 -137t-92.5 -125.5t-135.5 -93v-51q0 -26 -43 -105.5t-43 -124.5q0 -70 44.5 -101.5t111.5 -31.5q60 0 122 19q9 3 17 -2.5
t8 -14.5v-18q0 -26 -23 -33q-74 -25 -137 -25q-102 0 -166.5 50.5t-64.5 154.5q0 45 28 93.5t56 86.5t28 58v22q-93 -26 -190 -26q-115 0 -209 34t-154.5 89t-101.5 127.5t-58.5 146t-17.5 147.5v879q0 11 7 18t18 7h43q10 0 17 -7t7 -18v-879q0 -43 11.5 -97t44 -119.5
t80.5 -118.5t129.5 -89t183.5 -36z" />
    <glyph glyph-name="uogonek" unicode="&#x173;" horiz-adv-x="1130" 
d="M909 254v745q0 11 7.5 18t17.5 7h45q11 0 18 -7t7 -18v-1028q0 -26 -43 -105t-43 -124q0 -70 44 -101.5t111 -31.5q65 0 123 18q9 3 17 -2t8 -14v-19q0 -25 -23 -32q-74 -25 -137 -25q-102 0 -167 50.5t-65 154.5q0 35 18.5 73.5t41 65t41 54.5t18.5 44v37l-22 156
q-52 -70 -124.5 -114t-133.5 -58t-123 -14q-77 0 -140 16t-106 43t-75.5 67.5t-51.5 83t-30 96.5t-15 101.5t-4 104.5v503q0 11 7 18t17 7h46q10 0 17 -7t7 -18v-501q0 -40 1 -66t7.5 -75.5t18.5 -83.5t37 -76t60 -67.5t90 -43.5t124 -18q108 0 209.5 60t144.5 126z" />
    <glyph glyph-name="Wcircumflex" unicode="&#x174;" horiz-adv-x="2369" 
d="M180 1411l494 -1227l487 1248q7 14 21 14q13 0 20 -14l494 -1248l491 1227q10 23 35 23h62q9 0 13.5 -8t0.5 -15l-578 -1409q-6 -16 -24 -16q-19 0 -25 16l-487 1229l-486 -1229q-6 -16 -24 -16q-19 0 -25 16l-577 1409q-4 7 0.5 15t13.5 8h61q26 0 33 -23zM915 1624
q-4 8 -2.5 17t7.5 14l243 180q21 14 41 0l244 -180q6 -5 7 -14t-3 -17q-5 -6 -14 -8t-17 2l-237 139l-238 -139q-8 -4 -17 -2t-14 8z" />
    <glyph glyph-name="wcircumflex" unicode="&#x175;" horiz-adv-x="1677" 
d="M186 1001l318 -829l301 844q3 9 13 15.5t20 6.5h4q10 0 19.5 -6.5t12.5 -15.5l300 -844l317 829q3 9 13 16t20 7h67q9 0 14 -8t1 -15l-398 -991q-6 -22 -32 -22h-5q-26 0 -32 22l-299 836l-303 -836q-6 -22 -33 -22h-4q-27 0 -33 22l-397 991q-3 8 2 15.5t14 7.5h68
q24 0 32 -23zM569 1214q-4 8 -3 17t7 14l244 180q20 14 41 0l244 -180q6 -5 7 -14t-3 -17q-5 -6 -14 -8t-17 2l-237 140l-238 -140q-8 -4 -17 -2t-14 8z" />
    <glyph glyph-name="Ycircumflex" unicode="&#x176;" horiz-adv-x="1187" 
d="M543 25v632l-469 756q-3 6 1 13.5t11 7.5h57q23 0 37 -21l414 -676l414 676q14 21 36 21h58q7 0 11 -7.5t1 -13.5l-469 -758v-630q0 -11 -7 -18t-17 -7h-54q-10 0 -17 7t-7 18zM326 1624q-4 8 -3 17t7 14l243 180q21 14 41 0l244 -180q6 -5 7 -14t-3 -17q-5 -6 -14 -8
t-17 2l-237 139l-238 -139q-8 -4 -16.5 -2t-13.5 8z" />
    <glyph glyph-name="ycircumflex" unicode="&#x177;" horiz-adv-x="1120" 
d="M184 1001l377 -895l367 895q10 23 35 23h71q9 0 13.5 -7.5t1.5 -15.5l-600 -1415q-9 -22 -35 -22h-60q-9 0 -13.5 7.5t-0.5 14.5l168 398l-436 1017q-4 7 0.5 15t13.5 8h64q24 0 34 -23zM291 1214q-4 8 -3 17t7 14l244 180q21 14 41 0l243 -180q6 -5 7 -14t-3 -17
q-5 -6 -13.5 -8t-16.5 2l-238 140l-237 -140q-8 -4 -17 -2t-14 8z" />
    <glyph glyph-name="Ydieresis" unicode="&#x178;" horiz-adv-x="1187" 
d="M543 25v632l-469 756q-3 6 1 13.5t11 7.5h57q23 0 37 -21l414 -676l414 676q14 21 36 21h58q7 0 11 -7.5t1 -13.5l-469 -758v-630q0 -11 -7 -18t-17 -7h-54q-10 0 -17 7t-7 18zM270 1714q6 22 24 35.5t42 13.5q31 0 52.5 -21t21.5 -52t-21.5 -51.5t-52.5 -20.5
q-53 0 -66 47q-9 25 0 49zM778 1690q0 31 20 52t50 21q31 0 52.5 -21t21.5 -52t-21.5 -51.5t-52.5 -20.5t-50.5 20.5t-19.5 51.5z" />
    <glyph glyph-name="Zacute" unicode="&#x179;" horiz-adv-x="1257" 
d="M270 78h840q10 0 17.5 -7t7.5 -18v-28q0 -11 -7.5 -18t-17.5 -7h-944q-10 0 -17.5 7t-7.5 18v2q0 22 13 45l819 1282h-797q-10 0 -17 7t-7 17v31q0 11 7 18t17 7h916q9 0 15.5 -7t6.5 -16q0 -21 -12 -39zM479 1624q-4 8 -3 17t7 14l244 180q20 13 35 -6l14 -25
q6 -8 4 -17.5t-10 -14.5l-260 -154q-8 -4 -17 -2t-14 8z" />
    <glyph glyph-name="zacute" unicode="&#x17a;" horiz-adv-x="931" 
d="M131 971v28q0 11 7.5 18t17.5 7h645q20 0 20 -20q0 -18 -10 -35l-551 -891h555q11 0 18 -7t7 -18v-28q0 -11 -7 -18t-18 -7h-680q-7 0 -13.5 6t-6.5 14q0 21 10 41l541 885h-510q-10 0 -17.5 7t-7.5 18zM317 1212q-4 8 -2.5 17t7.5 14l243 180q20 13 35 -6l14 -24
q6 -8 4 -18t-10 -15l-260 -154q-8 -4 -17 -2t-14 8z" />
    <glyph glyph-name="Zdotaccent" unicode="&#x17b;" horiz-adv-x="1257" 
d="M557 1686q0 31 20 52t50 21q31 0 52 -21t21 -52t-21 -51.5t-52 -20.5t-50.5 20.5t-19.5 51.5zM270 78h840q10 0 17.5 -7t7.5 -18v-28q0 -11 -7.5 -18t-17.5 -7h-944q-10 0 -17.5 7t-7.5 18v2q0 22 13 45l819 1282h-797q-10 0 -17 7t-7 17v31q0 11 7 18t17 7h916
q9 0 15.5 -7t6.5 -16q0 -21 -12 -39z" />
    <glyph glyph-name="zdotaccent" unicode="&#x17c;" horiz-adv-x="931" 
d="M399 1276q0 31 20 52.5t50 21.5q31 0 52.5 -21.5t21.5 -52.5t-21.5 -51.5t-52.5 -20.5t-50.5 20.5t-19.5 51.5zM131 971v28q0 11 7.5 18t17.5 7h645q20 0 20 -20q0 -18 -10 -35l-551 -891h555q11 0 18 -7t7 -18v-28q0 -11 -7 -18t-18 -7h-680q-7 0 -13.5 6t-6.5 14
q0 21 10 41l541 885h-510q-10 0 -17.5 7t-7.5 18z" />
    <glyph glyph-name="Zcaron" unicode="&#x17d;" horiz-adv-x="1257" 
d="M270 78h840q10 0 17.5 -7t7.5 -18v-28q0 -11 -7.5 -18t-17.5 -7h-932q-10 0 -17 7t-7 18v20q0 24 12 45l807 1264h-797q-10 0 -17 7t-7 17v31q0 11 7 18t17 7h899q11 0 18 -7t7 -18v-16q0 -27 -15 -45zM360 1831q5 8 14 10t17 -2l238 -139l237 139q8 4 17 2t14 -10
q5 -6 3.5 -15.5t-7.5 -13.5l-244 -180q-21 -14 -41 0l-243 180q-6 5 -7.5 14t2.5 15z" />
    <glyph glyph-name="zcaron" unicode="&#x17e;" horiz-adv-x="931" 
d="M131 971v28q0 11 7.5 18t17.5 7h632q10 0 17.5 -7t7.5 -18v-2q0 -27 -12 -45l-541 -874h555q11 0 18 -7t7 -18v-28q0 -11 -7 -18t-18 -7h-676q-9 0 -15.5 7t-6.5 16q0 22 12 40l537 883h-510q-10 0 -17.5 7t-7.5 18zM203 1421q5 8 13.5 10.5t16.5 -1.5l238 -140l238 140
q8 4 16.5 1.5t13.5 -10.5q5 -6 3.5 -14.5t-7.5 -13.5l-243 -181q-20 -14 -41 0l-244 181q-6 4 -7.5 13t3.5 15z" />
    <glyph glyph-name="longs" unicode="&#x17f;" horiz-adv-x="688" 
d="M700 1386l-6 -24q-7 -20 -32 -16q-74 22 -142 22q-51 0 -95 -12t-83.5 -38.5t-62.5 -76t-23 -117.5v-1099q0 -11 -7 -18t-18 -7h-45q-10 0 -17 7t-7 18v938h-117q-11 0 -18 7t-7 17v12q0 11 7 18t18 7h117v109q0 153 95 233t241 80q78 0 186 -31q10 -1 14.5 -10.5
t1.5 -18.5z" />
    <glyph glyph-name="florin" unicode="&#x192;" horiz-adv-x="688" 
d="M-274 -399l6 24q3 9 12 13.5t18 1.5q86 -21 144 -21q50 0 93.5 12t82 38.5t60.5 76t22 117.5v1100h-117q-11 0 -17.5 6.5t-6.5 17.5v12q0 11 7 18t17 7h117v109q0 153 95 233t241 80q78 0 186 -31q10 -1 14.5 -10.5t1.5 -18.5l-6 -24q-7 -20 -32 -16q-74 22 -142 22
q-51 0 -95 -12t-83.5 -38.5t-62.5 -76t-23 -117.5v-100h219q11 0 18 -7t7 -18v-12q0 -10 -7 -17t-18 -7h-219v-1108q0 -154 -93 -234t-237 -80q-74 0 -188 31q-9 1 -13 10.5t-1 18.5z" />
    <glyph glyph-name="Scommaaccent" unicode="&#x218;" horiz-adv-x="1226" 
d="M551 -625q-6 3 -8.5 10t0.5 13q59 150 59 258q-40 -4 -65 19t-25 59q0 37 24 59.5t58 22.5q33 0 59.5 -25.5t26.5 -66.5q0 -142 -107 -340q-8 -16 -22 -9zM219 1114v-2q0 -53 21.5 -96.5t46.5 -70.5t83.5 -56t91.5 -41.5t112 -39.5q33 -11 49 -17q181 -61 247 -92
q167 -82 212 -210q22 -60 20 -133q-5 -156 -141.5 -264t-348.5 -108q-142 0 -242 22t-212 74q-9 5 -13 14.5t0 18.5l15 26q15 23 35 13q206 -82 401 -82q106 0 194 30t147 95t64 155q0 65 -22.5 116t-55 84t-89.5 62.5t-103.5 46.5t-120.5 41q-27 8 -41 13q-180 58 -252 96
q-161 86 -187 230q-5 31 -5 63q0 170 115.5 257t304.5 87q205 0 432 -82q9 -3 12.5 -12.5t-0.5 -18.5l-14 -35q-11 -21 -33 -14q-228 76 -391 76q-65 0 -120 -12t-103.5 -38.5t-77.5 -76.5t-31 -119z" />
    <glyph glyph-name="scommaaccent" unicode="&#x219;" horiz-adv-x="956" 
d="M219 784q0 -50 26.5 -88t69.5 -60.5t98.5 -44.5t113 -38.5t113 -43t98.5 -58t69.5 -84t26.5 -119.5q0 -119 -101.5 -195t-255.5 -76q-98 0 -221 29.5t-123 71.5q0 6 2 10l15 25q7 14 22 14q6 0 10 -2q150 -70 283 -70q108 0 186 51.5t78 139.5q0 64 -33.5 110t-87 72
t-118 46.5t-129 43t-118 51.5t-87 80.5t-33.5 122.5q0 123 87 195.5t220 72.5q166 0 309 -57q15 -7 15 -22q0 -9 -2 -11l-9 -22q-7 -17 -24 -17q-6 0 -8 2q-139 48 -238 48q-112 0 -179.5 -39.5t-74.5 -137.5zM432 -625q-10 3 -10 17q0 4 2 6q59 150 59 258h-12
q-35 0 -56.5 22.5t-21.5 55.5q0 37 24 59.5t58 22.5q33 0 59.5 -25.5t26.5 -66.5q0 -143 -106 -340q-7 -11 -17 -11q-4 0 -6 2z" />
    <glyph glyph-name="circumflex" unicode="&#x2c6;" horiz-adv-x="1060" 
d="M272 1214q-4 8 -3 17t7 14l244 180q20 14 41 0l244 -180q6 -5 7 -14t-3 -17q-5 -6 -14 -8t-17 2l-237 140l-238 -140q-8 -4 -17 -2t-14 8z" />
    <glyph glyph-name="caron" unicode="&#x2c7;" horiz-adv-x="1024" 
d="M272 1421q5 8 14 10.5t17 -1.5l238 -140l237 140q8 4 17 1.5t14 -10.5q5 -6 3.5 -14.5t-7.5 -13.5l-244 -181q-21 -14 -41 0l-244 181q-6 4 -7 13t3 15z" />
    <glyph glyph-name="breve" unicode="&#x2d8;" horiz-adv-x="1040" 
d="M776 1430l6 -3q9 -3 13.5 -12t1.5 -18q-73 -180 -248 -180q-174 0 -250 180q-3 9 1 18t13 12h6q21 7 31 -14q53 -125 199 -125q66 0 117.5 31.5t78.5 95.5q3 9 12.5 13.5t18.5 1.5z" />
    <glyph glyph-name="dotaccent" unicode="&#x2d9;" horiz-adv-x="1185" 
d="M516 1276q0 31 20 52.5t50 21.5q31 0 52 -21.5t21 -52.5t-21 -51.5t-52 -20.5t-50.5 20.5t-19.5 51.5z" />
    <glyph glyph-name="ring" unicode="&#x2da;" horiz-adv-x="1071" 
d="M352 1391q0 78 53.5 131t131.5 53q75 0 128.5 -53.5t53.5 -130.5q0 -75 -53.5 -129t-128.5 -54q-77 0 -131 54t-54 129zM410 1391q0 -50 38 -87.5t89 -37.5q49 0 87 38t38 87q0 51 -37.5 89t-87.5 38q-52 0 -89.5 -36.5t-37.5 -90.5z" />
    <glyph glyph-name="ogonek" unicode="&#x2db;" horiz-adv-x="1245" 
d="M653 70h13q10 0 17 -7t7 -18v-61q0 -26 -43 -105.5t-43 -124.5q0 -70 44.5 -101.5t111.5 -31.5q61 0 123 19q9 3 16.5 -2.5t7.5 -14.5v-18q0 -27 -22 -33q-74 -25 -137 -25q-102 0 -167 50.5t-65 154.5q0 35 17.5 73.5t39 65.5t39 55t17.5 44v55q0 11 7 18t17 7z" />
    <glyph glyph-name="tilde" unicode="&#x2dc;" horiz-adv-x="1060" 
d="M823 1348l8 -7q8 -5 10.5 -14.5t-1.5 -17.5q-67 -101 -172 -101q-38 0 -70.5 14t-51.5 31t-48.5 31t-63.5 14q-63 0 -112 -69q-4 -9 -15 -12t-20 2l-6 4q-23 12 -13 32q59 115 170 115q41 0 80.5 -23t77.5 -46t74 -23q71 0 118 61q6 8 16.5 10.5t18.5 -1.5z" />
    <glyph glyph-name="hungarumlaut" unicode="&#x2dd;" horiz-adv-x="1085" 
d="M455 1505l-111 -270q-7 -23 -33 -23q-8 0 -12.5 7t-3.5 16l86 270q3 9 13 16t20 7h26q9 0 14 -8t1 -15zM803 1505l-111 -270q-7 -23 -33 -23q-8 0 -12.5 7t-3.5 16l86 270q3 9 13 16t20 7h26q9 0 14 -8t1 -15z" />
    <glyph glyph-name="Delta" unicode="&#x394;" horiz-adv-x="1435" 
d="M1288 0h-1141q-9 0 -14 7.5t-2 15.5l576 1411q0 6 8 6q7 0 10 -6l578 -1411q4 -7 -1 -15t-14 -8zM717 1221l-461 -1151h924z" />
    <glyph glyph-name="Delta" unicode="&#x2206;" horiz-adv-x="1435" 
d="M1288 0h-1141q-9 0 -14 7.5t-2 15.5l576 1411q0 6 8 6q7 0 10 -6l578 -1411q4 -7 -1 -15t-14 -8zM717 1221l-461 -1151h924z" />
    <glyph glyph-name="Omega" unicode="&#x3a9;" horiz-adv-x="1744" 
d="M1266 68h331q11 0 18 -7t7 -18v-18q0 -11 -7 -18t-18 -7h-405q-10 0 -17.5 7t-7.5 18v38q0 23 21 37q85 57 147.5 146t92.5 180.5t43.5 163.5t13.5 125q0 40 -6 88t-23.5 114t-45 127.5t-76 123.5t-110.5 107.5t-153.5 74t-200.5 28.5t-201 -28.5t-154 -73.5t-110 -107
t-75.5 -123t-44.5 -127t-23 -114.5t-6 -89.5q0 -42 7 -95t27.5 -125.5t52.5 -140t87 -137t125 -117.5q20 -13 20 -37v-38q0 -11 -7 -18t-17 -7h-404q-10 0 -17 7t-7 18v18q0 11 7 18t17 7h326q-84 70 -147 158.5t-96.5 176t-49.5 165t-16 147.5q0 67 10 135t34.5 141.5
t61.5 138.5t94 124.5t127.5 102.5t168 68t210.5 25t210 -25t168 -68t128 -102.5t94 -125t61.5 -138.5t35 -141t10.5 -135q0 -69 -18 -150.5t-53.5 -169.5t-97.5 -175.5t-142 -151.5z" />
    <glyph glyph-name="Omega" unicode="&#x2126;" horiz-adv-x="1744" 
d="M1266 68h331q11 0 18 -7t7 -18v-18q0 -11 -7 -18t-18 -7h-405q-10 0 -17.5 7t-7.5 18v38q0 23 21 37q85 57 147.5 146t92.5 180.5t43.5 163.5t13.5 125q0 40 -6 88t-23.5 114t-45 127.5t-76 123.5t-110.5 107.5t-153.5 74t-200.5 28.5t-201 -28.5t-154 -73.5t-110 -107
t-75.5 -123t-44.5 -127t-23 -114.5t-6 -89.5q0 -42 7 -95t27.5 -125.5t52.5 -140t87 -137t125 -117.5q20 -13 20 -37v-38q0 -11 -7 -18t-17 -7h-404q-10 0 -17 7t-7 18v18q0 11 7 18t17 7h326q-84 70 -147 158.5t-96.5 176t-49.5 165t-16 147.5q0 67 10 135t34.5 141.5
t61.5 138.5t94 124.5t127.5 102.5t168 68t210.5 25t210 -25t168 -68t128 -102.5t94 -125t61.5 -138.5t35 -141t10.5 -135q0 -69 -18 -150.5t-53.5 -169.5t-97.5 -175.5t-142 -151.5z" />
    <glyph glyph-name="pi" unicode="&#x3c0;" horiz-adv-x="1359" 
d="M1024 -4q-211 0 -219 229l-2 723h-434v-923q0 -11 -7.5 -18t-17.5 -7h-45q-11 0 -18 7t-7 18v923h-147q-11 0 -18 7t-7 18v26q0 11 7 18t18 7h960q11 0 18 -7t7 -18v-26q0 -11 -7 -18t-18 -7h-190v-692q0 -94 37.5 -140t138.5 -46q26 0 80 12q9 3 18 -3.5t11 -15.5
q0 -3 1 -8.5t1 -7.5q2 -11 -4 -20.5t-15 -10.5q-70 -20 -141 -20z" />
    <glyph glyph-name="endash" unicode="&#x2013;" horiz-adv-x="1126" 
d="M938 625h-750q-10 0 -17 6.5t-7 17.5v19q0 10 7 17t17 7h750q11 0 18 -7t7 -17v-19q0 -10 -7 -17t-18 -7z" />
    <glyph glyph-name="emdash" unicode="&#x2014;" horiz-adv-x="1376" 
d="M1186 625h-998q-10 0 -17 6.5t-7 17.5v19q0 10 7 17t17 7h998q10 0 17 -7t7 -17v-19q0 -11 -7 -17.5t-17 -6.5z" />
    <glyph glyph-name="quoteleft" unicode="&#x2018;" horiz-adv-x="413" 
d="M266 1458q14 -7 8 -20q-73 -177 -73 -293q40 4 65 -19t25 -59q0 -37 -24 -59.5t-58 -22.5t-60 24t-26 68q0 86 34.5 185.5t86.5 187.5q8 15 22 8z" />
    <glyph glyph-name="quoteright" unicode="&#x2019;" horiz-adv-x="413" 
d="M147 991q-15 7 -8 21q74 174 74 293q-40 -4 -65 18.5t-25 58.5q0 37 24 59.5t58 22.5t60 -24t26 -68q0 -166 -121 -375q-9 -13 -23 -6z" />
    <glyph glyph-name="quotesinglbase" unicode="&#x201a;" horiz-adv-x="495" 
d="M188 -330q-15 7 -8 21q74 174 74 293q-40 -4 -65 18.5t-25 58.5q0 37 24 59.5t58 22.5t60 -24t26 -68q0 -166 -121 -375q-9 -13 -23 -6z" />
    <glyph glyph-name="quotedblleft" unicode="&#x201c;" horiz-adv-x="667" 
d="M266 1458q14 -7 8 -20q-73 -177 -73 -293q40 4 65 -19t25 -59q0 -37 -24 -59.5t-58 -22.5t-60 24t-26 68q0 86 34.5 185.5t86.5 187.5q8 15 22 8zM520 1458q14 -7 8 -20q-73 -177 -73 -293q40 4 65 -19t25 -59q0 -37 -24 -59.5t-58 -22.5t-60 24t-26 68q0 86 34.5 185.5
t86.5 187.5q8 15 22 8z" />
    <glyph glyph-name="quotedblright" unicode="&#x201d;" horiz-adv-x="667" 
d="M401 991q-15 7 -8 21q74 174 74 293q-40 -4 -65 18.5t-25 58.5q0 37 24 59.5t58 22.5t60 -24t26 -68q0 -166 -121 -375q-9 -13 -23 -6zM147 991q-15 7 -8 21q74 174 74 293q-40 -4 -65 18.5t-25 58.5q0 37 24 59.5t58 22.5t60 -24t26 -68q0 -166 -121 -375q-9 -13 -23 -6
z" />
    <glyph glyph-name="quotedblbase" unicode="&#x201e;" horiz-adv-x="675" 
d="M188 -330q-15 7 -8 21q74 174 74 293q-40 -4 -65 18.5t-25 58.5q0 37 24 59.5t58 22.5t60 -24t26 -68q0 -166 -121 -375q-9 -13 -23 -6zM451 -330q-16 8 -9 21q74 174 74 293q-40 -4 -65 18.5t-25 58.5q0 37 24 59.5t58 22.5t60 -24t26 -68q0 -166 -121 -375
q-9 -13 -22 -6z" />
    <glyph glyph-name="dagger" unicode="&#x2020;" horiz-adv-x="1120" 
d="M606 944v-1249q0 -11 -7 -18t-17 -7h-43q-11 0 -18 7t-7 18v1249h-326q-10 0 -17 7t-7 18v30q0 11 7 18t17 7h326v389q0 11 7 18t18 7h43q10 0 17 -7t7 -18v-389h326q10 0 17 -7t7 -18v-30q0 -11 -7 -18t-17 -7h-326z" />
    <glyph glyph-name="daggerdbl" unicode="&#x2021;" horiz-adv-x="1120" 
d="M606 84v-389q0 -11 -7 -18t-17 -7h-43q-11 0 -18 7t-7 18v389h-326q-10 0 -17 7t-7 18v32q0 11 7 18t17 7h326v778h-326q-10 0 -17 7t-7 18v30q0 11 7 18t17 7h326v389q0 11 7 18t18 7h43q10 0 17 -7t7 -18v-389h326q10 0 17 -7t7 -18v-30q0 -11 -7 -18t-17 -7h-326v-778
h326q10 0 17 -7t7 -18v-32q0 -11 -7 -18t-17 -7h-326z" />
    <glyph glyph-name="bullet" unicode="&#x2022;" horiz-adv-x="741" 
d="M369 432q-66 0 -115 48.5t-49 113.5q0 68 49 118t115 50q69 0 118.5 -50t49.5 -118q0 -66 -49.5 -114t-118.5 -48z" />
    <glyph glyph-name="ellipsis" unicode="&#x2026;" horiz-adv-x="989" 
d="M164 59q0 35 24.5 59.5t59.5 24.5t58.5 -24.5t23.5 -59.5t-23.5 -58.5t-58.5 -23.5t-59.5 23.5t-24.5 58.5zM453 59q0 35 24.5 59.5t59.5 24.5t58 -24t23 -60q0 -35 -23 -58.5t-58 -23.5t-59.5 23.5t-24.5 58.5zM741 59q0 35 24.5 59.5t59.5 24.5t58.5 -24.5t23.5 -59.5
t-23.5 -58.5t-58.5 -23.5t-59.5 23.5t-24.5 58.5z" />
    <glyph glyph-name="perthousand" unicode="&#x2030;" horiz-adv-x="2195" 
d="M1100 610q81 0 141.5 -30t93 -78.5t47.5 -99t15 -101.5q0 -42 -9 -83t-30.5 -82.5t-54.5 -72.5t-85.5 -51t-117.5 -20q-66 0 -118.5 20t-85 51t-54.5 73t-30.5 82.5t-8.5 82.5q0 51 15 101.5t47 99t93 78.5t142 30zM356 1446q81 0 142 -30t93 -78.5t47 -99t15 -101.5
q0 -53 -15 -104t-47 -99t-92.5 -77.5t-142.5 -29.5q-81 0 -141 29.5t-92 77.5t-47 99t-15 104q0 40 8.5 80.5t30 82.5t54 73.5t85 52t117.5 20.5zM510 0h-35q-7 0 -12.5 5t-5.5 11q0 1 1 3.5t1 3.5l450 1390q3 9 13 16t20 7h31q7 0 11.5 -5.5t4.5 -11.5v-6l-446 -1390
q-11 -23 -33 -23zM1100 53q53 0 94 20t63 48t36 64.5t18 64t4 51.5q0 25 -4 52t-18 63.5t-36 64t-63 47t-94 19.5t-94.5 -19.5t-64 -47t-37 -63.5t-19 -64t-4.5 -52t4.5 -51.5t19 -64t37 -64.5t64 -48t94.5 -20zM356 889q53 0 94.5 20t63.5 48t36.5 64.5t18.5 64t4 51.5
q0 25 -4 52t-18.5 63t-36.5 63.5t-63.5 47t-94.5 19.5t-94.5 -19.5t-63.5 -47t-36.5 -63.5t-18.5 -63t-4 -52q0 -24 4 -51.5t18.5 -64t36.5 -64.5t63.5 -48t94.5 -20zM1837 610q81 0 141.5 -30t93 -78.5t47.5 -99t15 -101.5q0 -42 -9 -83t-30.5 -82.5t-54.5 -72.5t-85.5 -51
t-117.5 -20q-66 0 -118.5 20t-85 51t-54.5 73t-30.5 82.5t-8.5 82.5q0 51 15 101.5t47 99t93 78.5t142 30zM1837 53q53 0 94 20t63 48t36 64.5t18 64t4 51.5q0 25 -4 52t-18 63.5t-36 64t-63 47t-94 19.5t-94.5 -19.5t-64 -47t-37 -63.5t-19 -64t-4.5 -52t4.5 -51.5t19 -64
t37 -64.5t64 -48t94.5 -20z" />
    <glyph glyph-name="guilsinglleft" unicode="&#x2039;" horiz-adv-x="505" 
d="M156 516l274 -326q13 -17 -4 -34q-14 -14 -33 2l-327 348q-5 5 -5 10t5 10l327 348q20 16 33 0q18 -14 4 -32z" />
    <glyph glyph-name="guilsinglright" unicode="&#x203a;" horiz-adv-x="505" 
d="M76 190l274 326l-274 326q-13 17 2 32q16 16 35 0l327 -348q4 -4 4 -10t-4 -10l-327 -348q-19 -15 -35 -2q-15 18 -2 34z" />
    <glyph glyph-name="fraction" unicode="&#x2044;" horiz-adv-x="69" 
d="M416 1411l-695 -1388q-10 -23 -34 -23h-21q-9 0 -13 7.5t-1 15.5l696 1388q10 23 35 23h18q8 0 13 -8t2 -15z" />
    <glyph glyph-name="zerosuperior" unicode="&#x2070;" horiz-adv-x="636" 
d="M319 1649q71 0 123.5 -32.5t80 -85.5t40 -108t12.5 -112q0 -46 -7.5 -91t-26 -91t-46.5 -80.5t-73.5 -56t-102.5 -21.5q-70 0 -122.5 32t-81 84.5t-41.5 108.5t-13 115q0 44 7.5 88.5t26.5 90.5t47.5 80.5t74 56.5t102.5 22zM319 1024q49 0 86 23t57 55.5t32.5 75t16 74
t3.5 59.5t-3.5 59t-16 73.5t-32.5 75t-57 55.5t-86 23t-86 -23t-56.5 -55.5t-31.5 -75.5t-15 -73.5t-3 -58.5q0 -29 3 -59.5t15 -73.5t31.5 -75.5t56.5 -55.5t86 -23z" />
    <glyph glyph-name="foursuperior" unicode="&#x2074;" horiz-adv-x="555" 
d="M418 1112v-108q0 -10 -7 -17.5t-18 -7.5h-14q-11 0 -18 7.5t-7 17.5v108h-297q-6 0 -11 5t-5 11q0 18 8 31l301 465q14 21 39 21h4q11 0 18 -7.5t7 -17.5v-457h71q11 0 18 -7t7 -17v-2q0 -11 -7 -18t-18 -7h-71zM354 1534l-239 -371h239v371z" />
    <glyph glyph-name="fivesuperior" unicode="&#x2075;" horiz-adv-x="534" 
d="M78 1063q6 8 16.5 9t18.5 -5q64 -49 129 -49q80 0 123 48.5t43 119.5q0 67 -42.5 112t-123.5 45h-119q-11 0 -18 7.5t-7 17.5v246q0 10 7 17t18 7h268q11 0 18 -7t7 -17q0 -9 -7.5 -16t-17.5 -7h-229v-196h80q65 0 113 -21t72 -55.5t35 -69t11 -69.5q0 -31 -11 -64.5
t-35.5 -69t-72.5 -58.5t-112 -23q-96 0 -164 65q-8 6 -8 16.5t8 16.5z" />
    <glyph glyph-name="sixsuperior" unicode="&#x2076;" horiz-adv-x="577" 
d="M352 1638q4 -8 4 -12q0 -13 -10 -20q-135 -83 -205 -240q60 45 140 45q55 0 98 -15.5t68 -39t41.5 -54.5t22 -58t5.5 -54q0 -20 -5.5 -44.5t-21.5 -55t-40 -55t-66.5 -41.5t-95.5 -17q-50 0 -90.5 16.5t-65 42t-41 58.5t-23 63.5t-6.5 59.5q0 78 22.5 148.5t61.5 123.5
t81.5 91.5t90.5 66.5q8 4 13 4q12 0 22 -13zM287 1028q81 0 124.5 48.5t43.5 117.5t-43.5 117.5t-124.5 48.5t-122.5 -45t-41.5 -115q0 -64 44 -118t120 -54z" />
    <glyph glyph-name="sevensuperior" unicode="&#x2077;" horiz-adv-x="479" 
d="M350 1591h-287q-9 0 -15.5 7t-6.5 16q0 10 6.5 17t15.5 7h347q6 0 11 -5t5 -11q0 -19 -6 -31l-250 -587q-10 -23 -35 -23h-14q-9 0 -14 8t-1 15z" />
    <glyph glyph-name="eightsuperior" unicode="&#x2078;" horiz-adv-x="546" 
d="M61 1470q0 22 5.5 44.5t20 48t37.5 45t61 32.5t87 13t88 -13t61.5 -32.5t37.5 -45t20.5 -48t5.5 -44.5q0 -105 -90 -159q44 -27 67 -71.5t23 -84.5q0 -23 -5.5 -45.5t-20.5 -48.5t-37.5 -45t-61.5 -32t-88 -13q-60 0 -104 18.5t-66 48.5t-31.5 59t-9.5 58q0 39 23.5 85
t69.5 73q-49 27 -71 69.5t-22 87.5zM272 1335q67 0 111.5 33.5t44.5 101.5t-44.5 103t-111.5 35q-65 0 -108 -35t-43 -103t43 -101.5t108 -33.5zM272 1288q-66 0 -108.5 -32.5t-42.5 -100.5t43 -103.5t108 -35.5q66 0 111 35.5t45 103.5t-44.5 100.5t-111.5 32.5z" />
    <glyph glyph-name="ninesuperior" unicode="&#x2079;" horiz-adv-x="577" 
d="M229 985q-14 21 7 35q69 48 120 113.5t80 136.5q-69 -51 -145 -51q-65 0 -113 23t-72 59.5t-34.5 71.5t-10.5 69q0 25 11 57t34.5 68.5t72 61t112.5 24.5q63 0 109.5 -24t70 -63t34.5 -77t11 -76q0 -78 -22.5 -149t-60.5 -124.5t-80 -93t-89 -67.5q-20 -13 -35 6z
M291 1604q-80 0 -124 -49.5t-44 -116.5q0 -71 43 -119.5t125 -48.5q81 0 122.5 45t41.5 117q0 64 -44 118t-120 54z" />
    <glyph glyph-name="zeroinferior" unicode="&#x2080;" horiz-adv-x="636" 
d="M319 338q71 0 123.5 -32.5t80 -85.5t40 -108t12.5 -112q0 -46 -7.5 -91t-26 -91t-46.5 -80.5t-73.5 -56t-102.5 -21.5q-70 0 -122.5 32t-81 84.5t-41.5 108.5t-13 115q0 44 7.5 88.5t26.5 90.5t47.5 80.5t74 56.5t102.5 22zM319 -287q49 0 86 23t57 55.5t32.5 75t16 74
t3.5 59.5q0 22 -2.5 47t-9.5 59.5t-21.5 65t-34.5 57t-53 42.5t-74 16q-49 0 -86 -23.5t-56.5 -56t-31.5 -75.5t-15 -73.5t-3 -58.5q0 -29 3 -59.5t15 -73.5t31.5 -75.5t56.5 -55.5t86 -23z" />
    <glyph glyph-name="oneinferior" unicode="&#x2081;" horiz-adv-x="364" 
d="M51 160q-9 13 2 24l166 144q13 10 27 10q16 0 16 -16v-627q0 -11 -7 -18t-17 -7h-15q-10 0 -17 7t-7 18v536l-123 -75q-14 -7 -25 4z" />
    <glyph glyph-name="twoinferior" unicode="&#x2082;" horiz-adv-x="514" 
d="M78 242q-13 20 4 34q84 64 172 64q90 0 144.5 -47.5t54.5 -136.5q0 -99 -136 -246l-165 -189h260q10 0 17 -6.5t7 -17.5v-2q0 -11 -7 -18t-17 -7h-334q-6 0 -11.5 5.5t-5.5 11.5q0 13 11 28l252 289q67 80 67 154q0 18 -5.5 37.5t-19 41.5t-43 36t-69.5 14
q-73 0 -143 -49q-8 -6 -17.5 -5t-15.5 9z" />
    <glyph glyph-name="threeinferior" unicode="&#x2083;" horiz-adv-x="499" 
d="M438 160q0 -100 -94 -158q43 -26 68.5 -69.5t25.5 -88.5q0 -30 -9.5 -59t-31 -59.5t-65.5 -49t-105 -18.5q-91 0 -166 55q-9 6 -10.5 16t4.5 17l2 2q14 18 35 4q71 -43 135 -43t108 35.5t44 99.5q0 68 -43 100.5t-109 32.5h-45q-9 0 -15.5 7t-6.5 16q0 10 6.5 17.5
t15.5 7.5h45q64 0 108 36t44 99q0 67 -43 99t-109 32q-78 0 -143 -41q-7 -5 -17 -3t-14 9q-5 7 -3 17t9 14q66 52 168 55q61 2 105 -16t65.5 -48.5t31 -59.5t9.5 -58z" />
    <glyph glyph-name="fourinferior" unicode="&#x2084;" horiz-adv-x="555" 
d="M418 -199v-108q0 -11 -7 -18t-18 -7h-14q-11 0 -18 7t-7 18v108h-297q-6 0 -11 5.5t-5 11.5q0 17 8 30q48 75 148 228.5t153 236.5q14 21 39 21h4q11 0 18 -7t7 -18v-456h71q11 0 18 -7.5t7 -17.5v-2q0 -10 -7 -17.5t-18 -7.5h-71zM354 223l-239 -370h239v370z" />
    <glyph glyph-name="fiveinferior" unicode="&#x2085;" horiz-adv-x="534" 
d="M78 -248q6 8 16.5 9t18.5 -5q64 -49 129 -49q80 0 123 48.5t43 119.5q0 67 -42.5 112.5t-123.5 45.5h-119q-11 0 -18 7t-7 17v246q0 11 7 18t18 7h268q11 0 18 -7t7 -18q0 -9 -7.5 -15.5t-17.5 -6.5h-229v-197h80q65 0 113 -21t72 -55.5t35 -69t11 -69.5q0 -31 -11 -64.5
t-35.5 -69t-72.5 -58.5t-112 -23q-96 0 -164 65q-8 6 -8 16.5t8 16.5z" />
    <glyph glyph-name="sixinferior" unicode="&#x2086;" horiz-adv-x="577" 
d="M352 328q4 -8 4 -13q0 -13 -10 -20q-135 -83 -205 -240q60 45 140 45q55 0 98 -15.5t68 -39t41.5 -54.5t22 -58t5.5 -54q0 -20 -5.5 -44.5t-21.5 -55t-40 -55t-66.5 -41.5t-95.5 -17q-50 0 -90.5 16.5t-65 42t-41 58.5t-23 63.5t-6.5 59.5q0 78 22.5 148.5t61.5 123.5
t81.5 91.5t90.5 66.5q8 4 13 4q13 0 22 -12zM287 -283q81 0 124.5 48.5t43.5 117.5t-43.5 117.5t-124.5 48.5t-122.5 -45t-41.5 -115q0 -64 44 -118t120 -54z" />
    <glyph glyph-name="seveninferior" unicode="&#x2087;" horiz-adv-x="479" 
d="M350 281h-287q-9 0 -15.5 6.5t-6.5 15.5q0 10 6.5 17.5t15.5 7.5h347q6 0 11 -5.5t5 -11.5q0 -18 -6 -30l-250 -588q-10 -23 -35 -23h-14q-9 0 -14 8t-1 15z" />
    <glyph glyph-name="eightinferior" unicode="&#x2088;" horiz-adv-x="546" 
d="M61 160q0 28 9.5 57t31.5 58.5t66 48t104 18.5q49 0 88 -13t61.5 -32t37.5 -44.5t20.5 -48t5.5 -44.5q0 -106 -90 -160q44 -27 67 -71.5t23 -84.5q0 -23 -5.5 -45.5t-20.5 -48.5t-37.5 -45t-61.5 -32t-88 -13q-60 0 -104 18.5t-66 48.5t-31.5 59t-9.5 58q0 39 23.5 85
t69.5 73q-49 27 -71 70t-22 88zM272 25q67 0 111.5 33.5t44.5 101.5t-44.5 102.5t-111.5 34.5q-65 0 -108 -34.5t-43 -102.5t43 -101.5t108 -33.5zM272 -23q-66 0 -108.5 -32.5t-42.5 -100.5t43 -103.5t108 -35.5q66 0 111 35.5t45 103.5t-44.5 100.5t-111.5 32.5z" />
    <glyph glyph-name="nineinferior" unicode="&#x2089;" horiz-adv-x="577" 
d="M229 -326q-14 21 7 35q69 48 120 113.5t80 136.5q-69 -51 -145 -51q-65 0 -113 23t-72 59.5t-34.5 71.5t-10.5 69q0 25 11 57t34.5 68.5t72 61t112.5 24.5q63 0 109.5 -24t70 -63t34.5 -77t11 -76q0 -78 -22.5 -149t-60.5 -124.5t-80 -93t-89 -67.5q-20 -13 -35 6z
M291 293q-80 0 -124 -49.5t-44 -116.5q0 -71 43 -119.5t125 -48.5q81 0 122.5 45t41.5 117q0 64 -44 118t-120 54z" />
    <glyph glyph-name="Euro" unicode="&#x20ac;" horiz-adv-x="1069" 
d="M72 649h63q-2 27 -2 86q0 41 2 72h-88q-9 0 -14 7t-2 15l6 19q3 9 13 15.5t20 6.5h73q13 90 39 171.5t69.5 158t100 132t136.5 89t174 33.5q173 0 303 -108q7 -6 7.5 -17t-5.5 -18l-17 -15q-6 -7 -17 -7.5t-18 5.5q-108 82 -253 82q-77 0 -141.5 -29.5t-109 -77.5
t-78.5 -115.5t-54.5 -136.5t-32.5 -147h530q9 0 14 -7.5t1 -14.5l-7 -19q-9 -22 -34 -22h-510q-9 -65 -9 -76q0 -55 2 -82h418q9 0 14 -7.5t1 -14.5l-7 -19q-9 -22 -34 -22h-383q13 -100 42.5 -187.5t78.5 -164t126 -121.5t173 -45q137 0 264 88q21 14 35 -6l12 -15
q13 -20 -4 -37q-143 -110 -307 -110q-94 0 -174 33t-137.5 89.5t-101.5 133.5t-70 162.5t-38 179.5h-96q-9 0 -13.5 7.5t-0.5 14.5l6 19q9 22 35 22z" />
    <glyph glyph-name="afii61289" unicode="&#x2113;" horiz-adv-x="866" 
d="M41 666v16q0 10 7.5 17.5t17.5 7.5h108v430q0 80 21 141t52.5 95.5t73.5 56.5t78 29t72 7q83 0 149 -30.5t105.5 -81.5t59.5 -113t20 -131q0 -100 -37.5 -187.5t-104.5 -151.5t-168 -99t-221 -29v-272q0 -46 4 -84t18.5 -84.5t39.5 -77.5t71 -51t109 -17q73 4 160 47
q22 11 33 -10l8 -12q11 -23 -10 -37q-81 -47 -187 -55q-67 -5 -121.5 8t-90 37t-61.5 59.5t-39.5 69t-21.5 73t-10 63.5t-2 48v293h-108q-10 0 -17.5 7.5t-7.5 17.5zM274 707l52 2q83 0 155.5 27.5t128 80t85.5 136.5t24 188q-4 118 -78.5 189.5t-173.5 66.5
q-86 -5 -139.5 -63.5t-53.5 -180.5v-446z" />
    <glyph glyph-name="trademark" unicode="&#x2122;" horiz-adv-x="1372" 
d="M1075 1364l-164 -391q-3 -10 -16 -10t-16 12l-158 389l-123 -389q-8 -23 -31 -23h-24q-9 0 -14.5 7.5t-2.5 15.5l174 528q3 10 15 10q13 0 16 -10l168 -407l166 405q3 12 16 12q14 0 17 -12l174 -526q3 -8 -2.5 -15.5t-14.5 -7.5h-26q-21 0 -33 23zM92 1485v10q0 11 7 18
t18 7h360q11 0 18 -7t7 -18v-10q0 -11 -7 -18t-18 -7h-145v-483q0 -11 -7 -18t-18 -7h-20q-11 0 -18 7t-7 18v483h-145q-11 0 -18 7t-7 18z" />
    <glyph glyph-name="estimated" unicode="&#x212e;" horiz-adv-x="1679" 
d="M1343 209q7 -6 8 -15.5t-5 -15.5q-94 -106 -213 -155.5t-293 -49.5q-158 0 -284.5 48t-205.5 124.5t-132 177t-74 199t-21 197.5q0 97 21 194t73.5 197.5t131.5 176.5t206 124.5t285 48.5q127 0 234.5 -31t182.5 -85.5t131.5 -123t91 -150t52.5 -159t22 -157.5
q1 -10 -5 -17.5t-17 -7.5h-1188v-485q69 -96 200.5 -160t295.5 -64q155 0 268.5 47.5t206.5 141.5q16 16 28 0zM840 1409q-335 0 -496 -215v-420h983v426q-156 209 -487 209z" />
    <glyph glyph-name="onethird" unicode="&#x2153;" horiz-adv-x="1089" 
d="M840 1411l-695 -1388q-10 -23 -34 -23h-21q-9 0 -13 7.5t-1 15.5l696 1388q10 23 35 23h18q8 0 13 -8t2 -15zM76 1264q-9 15 4 28l164 142q13 10 26 10q17 0 17 -17v-626q0 -11 -7.5 -18t-17.5 -7h-14q-10 0 -17.5 7t-7.5 18v538l-123 -79q-13 -10 -24 4zM997 489
q0 -99 -94 -157q43 -26 68.5 -69.5t25.5 -88.5q0 -30 -9.5 -59t-31 -59.5t-65.5 -49t-105 -18.5q-90 0 -165 55q-9 6 -11 16t4 17l2 2q14 18 35 4q71 -43 135 -43t108 35.5t44 99.5q0 68 -43 100.5t-109 32.5h-45q-9 0 -15.5 7t-6.5 16q0 10 6.5 17t15.5 7h45q64 0 108 36
t44 99q0 67 -43 99.5t-109 32.5q-78 0 -143 -41q-7 -5 -17 -3t-14 9q-5 7 -3 16.5t9 13.5q67 53 168 56q61 2 105 -16t65.5 -49t31 -60t9.5 -58z" />
    <glyph glyph-name="twothirds" unicode="&#x2154;" horiz-adv-x="1187" 
d="M956 1411l-694 -1388q-10 -23 -35 -23h-20q-7 0 -12 5t-5 11q0 4 3 7l696 1388q10 23 35 23h18q6 0 10 -5.5t4 -11.5v-6zM1114 489q0 -99 -94 -157q43 -26 68.5 -69.5t25.5 -88.5q0 -30 -9.5 -59t-31 -59.5t-65.5 -49t-105 -18.5q-55 0 -116.5 25t-61.5 48q0 9 6 15l2 2
q5 8 19 8q10 0 16 -4q71 -43 135 -43t108 35.5t44 99.5q0 68 -43 100.5t-109 32.5h-45q-9 0 -15.5 7t-6.5 16q0 10 6.5 17t15.5 7h45q64 0 108 36t44 99q0 67 -43 99.5t-109 32.5q-78 0 -143 -41q-10 -5 -12 -5q-9 0 -16 7t-7 16q0 26 60 50t118 24q61 0 105 -18t65.5 -47.5
t31 -58.5t9.5 -59zM66 1337q-7 7 -7 17q0 12 9 18q96 74 186 74t144.5 -47.5t54.5 -136.5q0 -99 -136 -246l-165 -189h260q10 0 17 -6.5t7 -17.5v-2q0 -11 -7 -18t-17 -7h-328q-7 0 -12.5 5.5t-5.5 13.5q0 17 12 32l246 283q67 80 67 154q0 18 -5.5 37.5t-19 41.5t-43 36
t-69.5 14q-74 0 -154 -58q-6 -6 -16 -6q-13 0 -18 8z" />
    <glyph glyph-name="oneeighth" unicode="&#x215b;" horiz-adv-x="1085" 
d="M840 1411l-695 -1388q-10 -23 -34 -23h-21q-16 0 -16 16q0 5 2 7l696 1388q10 23 35 23h18q6 0 10.5 -5.5t4.5 -11.5v-6zM76 1266q-4 4 -4 10q0 9 8 14l172 146q8 8 22 8q5 0 9 -4t4 -8v-631q0 -11 -7.5 -18t-17.5 -7h-14q-10 0 -17.5 7t-7.5 18v538l-123 -77l-10 -5
q-8 0 -14 9zM584 514q3 27 15.5 53t35.5 50.5t64 39.5t94 15q49 0 88 -13t61.5 -32.5t37.5 -45t20.5 -48t5.5 -44.5q0 -105 -91 -159q44 -27 67.5 -72t23.5 -84q0 -23 -5.5 -45.5t-20.5 -48.5t-37.5 -45t-61.5 -32t-88 -13q-60 0 -104 18.5t-66 48.5t-31.5 59t-9.5 58
q0 39 23 85t69 73q-92 50 -92 157q0 17 2 25zM793 354q67 0 111 33.5t44 101.5t-44.5 103t-110.5 35q-65 0 -108.5 -35t-43.5 -103t43.5 -101.5t108.5 -33.5zM793 307q-66 0 -109 -32.5t-43 -100.5t43.5 -103.5t108.5 -35.5q66 0 110.5 35.5t44.5 103.5t-44 100.5t-111 32.5
z" />
    <glyph glyph-name="threeeighths" unicode="&#x215c;" horiz-adv-x="1150" 
d="M909 1411l-694 -1388q-10 -23 -35 -23h-20q-7 0 -12 5t-5 11q0 5 2 7l697 1388q10 23 35 23h18q6 0 10 -5.5t4 -11.5v-6zM653 514q3 27 15.5 53t35.5 50.5t64 39.5t94 15q49 0 88 -13t61.5 -32.5t37.5 -45t20.5 -48t5.5 -44.5q0 -105 -90 -159q44 -27 67 -71.5t23 -84.5
q0 -23 -5.5 -45.5t-20.5 -48.5t-37.5 -45t-61.5 -32t-88 -13q-60 0 -104 18.5t-66 48.5t-31.5 59t-9.5 58q0 39 23 85t69 73q-92 50 -92 157q0 17 2 25zM862 354q67 0 111.5 33.5t44.5 101.5t-44.5 103t-111.5 35q-65 0 -108 -35t-43 -103t43 -101.5t108 -33.5zM838 305
q-57 -5 -92 -37.5t-35 -93.5q0 -68 43 -103.5t108 -35.5q66 0 111 35.5t45 103.5t-44.5 100.5t-111.5 32.5q-4 0 -12 -1t-12 -1zM438 1266q0 -100 -94 -158q43 -26 68.5 -69.5t25.5 -88.5q0 -30 -9.5 -59t-31 -59.5t-65.5 -49t-105 -18.5q-54 0 -116 25.5t-62 48.5q0 8 6 14
l2 2q5 8 19 8q10 0 16 -4q71 -43 135 -43t108 35.5t44 99.5q0 68 -43 100.5t-109 32.5h-45q-9 0 -15.5 7t-6.5 16q0 10 6.5 17t15.5 7h45q63 0 107.5 36.5t44.5 99.5q0 67 -43 99t-109 32q-78 0 -143 -41q-8 -4 -12 -4q-9 0 -16 6.5t-7 15.5q0 26 60 50t118 24q61 0 105 -18
t65.5 -47.5t31 -58t9.5 -58.5z" />
    <glyph glyph-name="fiveeighths" unicode="&#x215d;" horiz-adv-x="1183" 
d="M952 1411l-694 -1388q-10 -23 -35 -23h-20q-7 0 -12 5t-5 11q0 5 2 7l697 1388q10 23 35 23h18q6 0 10 -5.5t4 -11.5v-6zM690 514q3 27 15.5 53t35.5 50.5t64 39.5t94 15q49 0 88 -13t61.5 -32.5t37.5 -45t20.5 -48t5.5 -44.5q0 -105 -90 -159q44 -27 67 -71.5t23 -84.5
q0 -23 -5.5 -45.5t-20.5 -48.5t-37.5 -45t-61.5 -32t-88 -13q-60 0 -104 18.5t-66 48.5t-31.5 59t-9.5 58q0 39 23 85t69 73q-92 50 -92 157q0 17 2 25zM899 354q67 0 111.5 33.5t44.5 101.5t-44.5 103t-111.5 35q-65 0 -108 -35t-43 -103t43 -101.5t108 -33.5zM874 305
q-56 -5 -91 -37.5t-35 -93.5q0 -68 43 -103.5t108 -35.5q66 0 111 35.5t45 103.5t-44.5 100.5t-111.5 32.5q-4 0 -12.5 -1t-12.5 -1zM78 858q5 8 20 8q11 0 15 -4q64 -49 129 -49q80 0 123 48.5t43 119.5q0 67 -42.5 112.5t-123.5 45.5h-119q-11 0 -18 7t-7 17v246
q0 11 7 18t18 7h268q11 0 18 -7t7 -18q0 -9 -7.5 -16t-17.5 -7h-229v-196h80q65 0 113 -21t72 -55.5t35 -69t11 -69.5q0 -31 -11 -64.5t-35.5 -69t-72.5 -58.5t-112 -23q-49 0 -110.5 25t-61.5 57q0 11 8 16z" />
    <glyph glyph-name="seveneighths" unicode="&#x215e;" horiz-adv-x="1085" 
d="M582 514q3 27 15.5 53t35.5 50.5t64 39.5t94 15q49 0 88 -13t61.5 -32.5t37.5 -45t20.5 -48t5.5 -44.5q0 -105 -91 -159q44 -27 67.5 -72t23.5 -84q0 -23 -5.5 -45.5t-20.5 -48.5t-37.5 -45t-61.5 -32t-88 -13q-60 0 -104 18.5t-66 48.5t-31.5 59t-9.5 58q0 39 23 85
t69 73q-92 50 -92 157q0 17 2 25zM844 1411l-694 -1388q-10 -23 -35 -23h-21q-16 0 -16 16q0 5 2 7l696 1388q10 23 35 23h18q15 0 15 -23zM791 307q-62 0 -107 -34.5t-45 -98.5q0 -68 43.5 -103.5t108.5 -35.5q66 0 110.5 35.5t44.5 103.5t-44 100.5t-111 32.5zM791 354
q67 0 111 33.5t44 101.5t-44.5 103t-110.5 35q-65 0 -108.5 -35t-43.5 -103t43.5 -101.5t108.5 -33.5zM397 1386h-286q-9 0 -16 7t-7 16q0 10 7 17.5t16 7.5h346q6 0 11 -5.5t5 -11.5q0 -19 -6 -31l-250 -587q-10 -23 -35 -23h-14q-16 0 -16 15q0 6 2 8z" />
    <glyph glyph-name="arrowleft" unicode="&#x2190;" 
d="M1090 504h-793l387 -420q6 -7 5.5 -18t-7.5 -17l-14 -16q-8 -6 -19 -6t-18 6l-492 491q-6 8 -6 18.5t6 16.5l492 496q7 7 18.5 7.5t18.5 -5.5l14 -17q7 -6 7.5 -16.5t-5.5 -17.5l-385 -418h791q10 0 17 -7t7 -18v-35q0 -10 -7 -17t-17 -7z" />
    <glyph glyph-name="arrowup" unicode="&#x2191;" horiz-adv-x="1302" 
d="M610 74v792l-420 -387q-7 -6 -17.5 -5.5t-16.5 7.5l-17 15q-6 7 -6 17.5t6 16.5l492 492q7 8 18 8t17 -8l495 -492q7 -6 7.5 -16.5t-5.5 -17.5l-16 -15q-6 -7 -17 -7.5t-18 5.5l-418 385v-790q0 -11 -7 -18t-17 -7h-35q-11 0 -18 7.5t-7 17.5z" />
    <glyph glyph-name="arrowright" unicode="&#x2192;" 
d="M940 504h-793q-11 0 -17.5 7t-6.5 17v35q0 11 7 18t17 7h791l-385 418q-6 7 -5.5 17.5t7.5 16.5l14 17q7 6 18 5.5t17 -7.5l492 -496q8 -6 8 -16.5t-8 -18.5l-492 -491q-6 -6 -17 -6t-18 6l-14 16q-7 6 -7.5 17t5.5 18z" />
    <glyph glyph-name="arrowdown" unicode="&#x2193;" horiz-adv-x="1302" 
d="M610 223v793q0 10 7 17t18 7h35q10 0 17 -7t7 -17v-791l418 385q7 6 18 5.5t17 -7.5l16 -14q6 -7 5.5 -18.5t-7.5 -18.5l-495 -491q-6 -6 -17 -6t-18 6l-492 491q-6 7 -6 18t6 19l17 14q6 7 16.5 7.5t17.5 -5.5z" />
    <glyph glyph-name="partialdiff" unicode="&#x2202;" horiz-adv-x="1177" 
d="M471 1413l18 25q13 19 35 8q98 -58 189.5 -149.5t170 -214.5t125 -283.5t44.5 -331.5q0 -61 -13 -122.5t-46.5 -127t-84 -115.5t-134.5 -82t-189 -32q-77 0 -143 17t-112.5 45t-83 66t-59 77.5t-37.5 82t-20.5 77.5t-5.5 65q-2 61 8.5 120.5t41.5 124.5t81 113t135 79.5
t195 31.5q26 0 60.5 -5t85 -17.5t104 -42.5t94.5 -72q-55 194 -170.5 356.5t-282.5 273.5q-8 5 -10 14.5t4 18.5zM586 68q95 0 170.5 36.5t118.5 94.5t65.5 122.5t22.5 129.5q0 72 -24 135.5t-69.5 112.5t-118.5 77.5t-165 28.5q-94 0 -166 -30t-115 -83t-64.5 -120
t-21.5 -146q0 -47 11 -94t38 -95.5t67.5 -85t105.5 -60t145 -23.5z" />
    <glyph glyph-name="product" unicode="&#x220f;" horiz-adv-x="1261" 
d="M995 1356v-1331q0 -11 -7 -18t-17 -7h-43q-10 0 -17.5 7t-7.5 18v1331h-543v-1331q0 -11 -7 -18t-17 -7h-43q-11 0 -18 7t-7 18v1331h-151q-11 0 -18 7t-7 17v29q0 11 7 18t18 7h1028q10 0 17 -7t7 -18v-29q0 -10 -6.5 -17t-17.5 -7h-150z" />
    <glyph glyph-name="summation" unicode="&#x2211;" horiz-adv-x="976" 
d="M653 696l-450 -618h688q10 0 17 -7t7 -18v-28q0 -11 -7 -18t-17 -7h-785q-9 0 -15.5 7t-6.5 16q0 26 14 43l465 651l-465 645q-14 20 -14 45v2q0 11 7 18t18 7h782q10 0 17 -7t7 -18v-29q0 -10 -6.5 -17t-17.5 -7h-684l446 -619q14 -21 0 -41z" />
    <glyph glyph-name="minus" unicode="&#x2212;" horiz-adv-x="1140" 
d="M178 829h799q11 0 17.5 -6.5t6.5 -17.5v-25q0 -10 -6.5 -17t-17.5 -7h-799q-10 0 -17 7t-7 17v25q0 11 7 17.5t17 6.5z" />
    <glyph glyph-name="radical" unicode="&#x221a;" horiz-adv-x="1333" 
d="M508 172l520 1239q10 23 35 23h184q11 0 18 -7t7 -18v-29q0 -10 -7 -17t-18 -7h-147l-586 -1358q-3 -6 -10 -6q-8 0 -8 6l-424 1003q-4 7 0.5 15t13.5 8h43q25 0 35 -23z" />
    <glyph glyph-name="infinity" unicode="&#x221e;" horiz-adv-x="1376" 
d="M426 338q-68 0 -120 24t-82 65t-45 89t-15 102q0 51 15 99.5t45 90t82.5 66.5t119.5 25q81 0 154 -49.5t108 -142.5q107 192 262 192q68 0 120 -25t82 -66.5t45 -90.5t15 -103q0 -51 -15 -98.5t-45 -88t-82 -65t-120 -24.5q-83 0 -142.5 45t-119.5 139
q-57 -100 -115 -142t-147 -42zM940 412q88 0 144.5 60.5t56.5 141.5q0 87 -55 143t-146 56q-69 0 -125.5 -53.5t-93.5 -145.5q83 -202 219 -202zM438 410q71 0 130 59.5t85 148.5q-31 92 -86 147.5t-129 55.5q-91 0 -145.5 -55.5t-54.5 -147.5q0 -97 54 -152.5t146 -55.5z
" />
    <glyph glyph-name="integral" unicode="&#x222b;" horiz-adv-x="901" 
d="M694 1475q114 0 205 -50q9 -4 12 -14.5t-2 -19.5l-12 -25q-16 -20 -35 -10q-83 39 -151 39q-112 0 -177 -73t-65 -232v-1143v-4q1 -20 0.5 -37.5t-6 -59t-16.5 -74.5t-35 -74.5t-57 -69t-87.5 -47t-122.5 -19.5q-113 0 -206 49q-9 5 -12 15t3 18l13 24q5 9 15 13t19 0
q83 -39 152 -39q112 0 178 73t66 232v1143q0 78 6 117q33 198 194 250q54 18 121 18z" />
    <glyph glyph-name="approxequal" unicode="&#x2248;" horiz-adv-x="1124" 
d="M193 717l-9 8q-20 14 -6 35q97 123 230 123q37 0 79 -19t74.5 -42.5t77 -42.5t86.5 -19q81 0 170 86q6 8 17 9t20 -5l8 -6q20 -14 6 -35q-99 -127 -223 -127q-44 0 -90.5 19.5t-79.5 43t-75 43t-79 19.5q-42 0 -78 -19.5t-90 -68.5q-16 -16 -38 -2zM190 326l-8 4
q-18 18 -4 35q102 124 230 124q49 0 103 -30t108.5 -60t105.5 -30q85 0 170 88q17 17 37 4l8 -8q20 -14 6 -35q-97 -127 -223 -127q-42 0 -88 19t-80 42.5t-77 42.5t-79 19q-78 0 -172 -88q-21 -16 -37 0z" />
    <glyph glyph-name="notequal" unicode="&#x2260;" horiz-adv-x="1028" 
d="M840 268h-402l-80 -248q-11 -22 -32 -22h-27q-9 0 -14 7t-2 15l79 248h-174q-10 0 -17 7t-7 18v26q0 11 7 18t17 7h199l117 358h-316q-10 0 -17 7t-7 18v27q0 10 7 17t17 7h340l70 221q3 9 13 16t20 7h26q9 0 14.5 -7.5t2.5 -15.5l-70 -221h236q10 0 17 -7t7 -17v-27
q0 -11 -7 -18t-17 -7h-260l-117 -358h377q10 0 17 -7t7 -18v-26q0 -11 -7 -18t-17 -7z" />
    <glyph glyph-name="lessequal" unicode="&#x2264;" horiz-adv-x="851" 
d="M197 682l546 -344q8 -5 10.5 -15t-3.5 -18l-7 -10q-4 -9 -14.5 -11t-17.5 3l-633 364q-17 10 -17 29q0 21 17 31l635 366q7 5 18 3t17 -11l4 -6q6 -9 3.5 -18.5t-10.5 -14.5zM86 102h680q11 0 18 -7t7 -17v-27q0 -10 -7 -17t-18 -7h-680q-11 0 -18 7t-7 17v27q0 10 7 17
t18 7z" />
    <glyph glyph-name="greaterequal" unicode="&#x2265;" horiz-adv-x="851" 
d="M109 338l546 344l-549 348q-8 5 -10 14.5t4 18.5l4 6q6 9 17 11t18 -3l635 -366q17 -10 17 -31q0 -19 -17 -29l-633 -364q-7 -5 -17.5 -3t-14.5 11l-7 10q-6 8 -3.5 18t10.5 15zM86 102h680q11 0 18 -7t7 -17v-27q0 -10 -7 -17t-18 -7h-680q-11 0 -18 7t-7 17v27
q0 10 7 17t18 7z" />
    <glyph glyph-name="lozenge" unicode="&#x25ca;" horiz-adv-x="1310" 
d="M137 725l504 700q5 7 15 7t14 -7l504 -700q14 -21 0 -41l-504 -698q-4 -8 -14 -8t-15 8l-504 698q-14 20 0 41zM655 1305l-419 -600l419 -601l418 601z" />
    <glyph glyph-name="CR" horiz-adv-x="512" 
 />
    <glyph glyph-name="zero.oldstyle" horiz-adv-x="1161" 
d="M580 1044q86 0 157.5 -25t120 -68t84.5 -97t56.5 -116.5t30 -120.5t9.5 -115q0 -67 -11.5 -132.5t-43.5 -137.5t-81 -126t-132.5 -89t-189.5 -35q-77 0 -141.5 19t-110.5 50.5t-82.5 75.5t-59 91.5t-37 100.5t-20.5 100.5t-6 94.5q0 45 6 91.5t20.5 99.5t37 100.5t59 92
t82.5 76.5t111 51t141 19zM580 51q71 0 129 20.5t95 51.5t64.5 75.5t41.5 85t22 87.5t10 75t2 56q0 27 -2 55t-10 77t-22 91.5t-41.5 90t-64.5 80.5t-95 55t-129 22q-72 0 -130 -21t-95 -53t-64 -78.5t-40.5 -87t-21 -89t-9 -75.5t-1.5 -55t1.5 -55t9 -76.5t21 -90
t40.5 -87.5t64 -79t95 -53.5t130 -21.5z" />
    <glyph glyph-name="one.oldstyle" horiz-adv-x="880" 
d="M76 713v2q-14 21 4 35l352 270q17 14 41 14q9 0 16 -6.5t7 -15.5v-934h237q11 0 18 -7t7 -18v-28q0 -11 -7 -18t-18 -7h-604q-11 0 -18 7t-7 18v28q0 11 7 18t18 7h277v813l-295 -186q-22 -11 -35 8z" />
    <glyph glyph-name="two.oldstyle" horiz-adv-x="821" 
d="M123 877l-12 14q-13 20 4 37q135 110 282 110q134 0 217.5 -67t83.5 -203q0 -71 -31.5 -136.5t-99.5 -146.5l-342 -405h426q11 0 18 -7t7 -18v-30q0 -11 -7 -18t-18 -7h-536q-9 0 -16 7t-7 16q0 24 14 38l404 484q44 50 69 103.5t29 76t4 37.5q0 201 -215 201
q-115 0 -241 -91q-8 -6 -17.5 -4.5t-15.5 9.5z" />
    <glyph glyph-name="three.oldstyle" horiz-adv-x="919" 
d="M797 700q0 -76 -47.5 -168t-141.5 -141q53 -25 92 -65.5t59 -85t29 -83.5t9 -73q0 -41 -10 -83.5t-37 -90.5t-68.5 -84.5t-112 -61t-159.5 -24.5q-165 0 -308 108q-9 6 -10.5 16t4.5 17l10 15q17 17 37 4q128 -90 265 -90q127 0 214 70.5t87 203.5q0 90 -43 154t-109 93
t-147 29h-107q-10 0 -17 7t-7 18v14q0 11 7 18t17 7h107q126 0 214.5 72t88.5 204q0 133 -88 204t-215 71q-121 0 -269 -90q-21 -14 -35 6l-8 10q-14 21 6 35q137 100 306 100q89 0 159 -23.5t112 -59t69 -82.5t37 -88.5t10 -82.5z" />
    <glyph glyph-name="four.oldstyle" horiz-adv-x="1030" 
d="M760 41v-258q0 -11 -7 -18t-18 -7h-41q-10 0 -17 7t-7 18v258h-584q-10 0 -17.5 7.5t-7.5 17.5v12q0 24 15 45l575 881q13 20 39 20h45q11 0 18 -7t7 -18v-880h184q10 0 17.5 -7.5t7.5 -17.5v-28q0 -10 -7.5 -17.5t-17.5 -7.5h-184zM670 889l-508 -770h508v770z" />
    <glyph glyph-name="five.oldstyle" horiz-adv-x="991" 
d="M139 -102l11 10q17 17 36 2q114 -96 258 -96q157 0 248.5 90t91.5 229q0 165 -93.5 245.5t-260.5 80.5h-217q-11 0 -18 7t-7 17v516q0 11 7 18t18 7h563q10 0 17.5 -7t7.5 -18v-20q0 -11 -7.5 -18t-17.5 -7h-493v-424h159q99 0 176 -24.5t123 -63.5t75.5 -93.5
t40.5 -107.5t11 -112q0 -42 -11 -89t-41.5 -101.5t-76 -97.5t-123 -72t-174.5 -29q-166 0 -301 125q-7 6 -7.5 16.5t5.5 16.5z" />
    <glyph glyph-name="six.oldstyle" horiz-adv-x="1083" 
d="M657 1278l13 -16q6 -8 5 -17.5t-9 -15.5q-162 -105 -265.5 -241.5t-169.5 -342.5q56 74 140 110t170 36q98 0 174.5 -28.5t121.5 -72t74 -101t39.5 -108.5t10.5 -102q0 -40 -11 -87t-41 -102.5t-74.5 -99.5t-121 -74t-172.5 -30q-98 0 -175.5 34t-121.5 82.5t-73 110.5
t-38.5 111t-9.5 90q0 153 41 290t114 243.5t157.5 187t187.5 147.5q20 13 34 -4zM541 57q156 0 240.5 95.5t84.5 230.5q0 64 -20 122.5t-58.5 106.5t-102 76.5t-144.5 28.5q-157 0 -241.5 -95.5t-84.5 -232.5q0 -64 21 -122.5t60 -105.5t103 -75.5t142 -28.5z" />
    </font>
</defs>
</svg>
