<?xml version="1.0" standalone="no"?>
<!DOCTYPE svg PUBLIC "-//W3C//DTD SVG 1.1//EN" "http://www.w3.org/Graphics/SVG/1.1/DTD/svg11.dtd" >
<svg xmlns="http://www.w3.org/2000/svg" xmlns:xlink="http://www.w3.org/1999/xlink" version="1.1">
<metadata>
Created by FontForge 20170731 at Sat Feb  5 18:00:04 2022
 By Aleksey,,,
Copyright (c) 2013 by Ahmet Altun. All rights reserved.
</metadata>
<defs>
<font id="HalisR-Regular" horiz-adv-x="1253" >
  <font-face 
    font-family="Halis R Regular"
    font-weight="400"
    font-stretch="normal"
    units-per-em="2048"
    panose-1="2 0 5 5 4 0 0 2 0 4"
    ascent="1638"
    descent="-410"
    x-height="1024"
    cap-height="1434"
    bbox="-367.273 -682 2281 2028"
    underline-thickness="102"
    underline-position="-368"
    unicode-range="U+0020-FB04"
  />
<missing-glyph horiz-adv-x="1003" 
d="M430 428q0 -25 19 -43t45 -18q25 0 42 18t17 43t-17 41t-42 16q-27 0 -45.5 -16.5t-18.5 -40.5zM537 547v57q0 22 23.5 54t51 61t51 73.5t23.5 88.5q0 79 -50 123.5t-128 44.5q-65 0 -112 -25t-101 -82l59 -57q38 40 67.5 58.5t65.5 19.5q30 1 50.5 -7t30 -22.5t13 -27.5
t3.5 -27q0 -32 -14.5 -61.5t-35 -53t-41 -46.5t-35 -51.5t-14.5 -58.5v-61h93zM942 1300v-1167q0 -12 -9.5 -21.5t-21.5 -9.5h-819q-12 0 -21.5 9.5t-9.5 21.5v1167q0 12 9.5 21.5t21.5 9.5h819q12 0 21.5 -9.5t9.5 -21.5z" />
    <glyph glyph-name="f_f" unicode="ff" horiz-adv-x="1318" 
d="M1329 1362l-33 -98q-5 -12 -16 -17.5t-23 -1.5q-92 29 -161 29q-72 0 -120 -39.5t-48 -128.5v-82h180q12 0 21.5 -9.5t9.5 -21.5v-106q0 -12 -9.5 -21.5t-21.5 -9.5h-180v-823q0 -12 -9.5 -21.5t-21.5 -9.5h-143q-12 0 -21.5 9.5t-9.5 21.5v823h-373v-823
q0 -12 -9.5 -21.5t-21.5 -9.5h-143q-12 0 -21.5 9.5t-9.5 21.5v823h-94q-12 0 -21.5 9.5t-9.5 21.5v106q0 12 9.5 21.5t21.5 9.5h94v90q0 108 53 186t134.5 114t179.5 36q173 0 297 -100q98 98 268 98q124 0 234 -45q12 -4 17.5 -16.5t0.5 -24.5zM723 1024v90q0 42 6 76
q-37 34 -93.5 55t-113.5 21q-74 0 -123 -39.5t-49 -120.5v-82h373z" />
    <glyph glyph-name="fi" unicode="fi" horiz-adv-x="1089" 
d="M926 993v-962q0 -12 -9.5 -21.5t-21.5 -9.5h-143q-12 0 -21.5 9.5t-9.5 21.5v825h-371v-823q0 -12 -9.5 -21.5t-21.5 -9.5h-143q-12 0 -21.5 9.5t-9.5 21.5v823h-94q-12 0 -21.5 9.5t-9.5 21.5v106q0 12 9.5 21.5t21.5 9.5h94v90q0 110 49.5 187.5t127.5 112t178 34.5
q123 0 233 -45q12 -5 17.5 -17t1.5 -24l-33 -98q-5 -12 -16 -17.5t-23 -1.5q-92 29 -162 29q-72 0 -120 -39.5t-48 -128.5v-82h545q12 0 21.5 -9.5t9.5 -21.5z" />
    <glyph glyph-name="fl" unicode="fl" horiz-adv-x="1087" 
d="M350 1104v-80h215q12 0 21.5 -9.5t9.5 -21.5v-106q0 -12 -9.5 -21.5t-21.5 -9.5h-215v-825q0 -12 -9.5 -21.5t-21.5 -9.5h-143q-12 0 -21.5 9.5t-9.5 21.5v825h-94q-12 0 -21.5 9.5t-9.5 21.5v106q0 12 9.5 21.5t21.5 9.5h94v88q0 108 53 186t134.5 114t179.5 36
q33 0 70.5 -6t91.5 -31t90 -65l22 59q11 29 41 29h66q12 0 21.5 -9.5t9.5 -21.5v-1374q0 -12 -9.5 -21.5t-21.5 -9.5h-143q-12 0 -21.5 9.5t-9.5 21.5v1145q-30 41 -82.5 64.5t-108.5 23.5q-71 0 -121 -39t-57 -119z" />
    <glyph glyph-name="f_f_i" unicode="ffi" horiz-adv-x="1667" 
d="M1503 993v-962q0 -12 -9 -21.5t-21 -9.5h-144q-12 0 -21.5 9.5t-9.5 21.5v825h-370v-823q0 -12 -9.5 -21.5t-21.5 -9.5h-143q-12 0 -21.5 9.5t-9.5 21.5v823h-373v-823q0 -12 -9.5 -21.5t-21.5 -9.5h-143q-12 0 -21.5 9.5t-9.5 21.5v823h-94q-12 0 -21.5 9.5t-9.5 21.5
v106q0 12 9.5 21.5t21.5 9.5h94v90q0 108 53 186t134.5 114t179.5 36q173 0 297 -100q98 98 268 98q124 0 234 -45q12 -4 17.5 -16.5t0.5 -24.5l-33 -98q-5 -12 -16 -17.5t-23 -1.5q-92 29 -161 29q-72 0 -120 -39.5t-48 -128.5v-82h545q12 0 21 -9.5t9 -21.5zM723 1024v90
q0 42 6 76q-37 34 -93.5 55t-113.5 21q-74 0 -123 -39.5t-49 -120.5v-82h373z" />
    <glyph glyph-name="f_f_l" unicode="ffl" horiz-adv-x="1656" 
d="M920 1104v-80h215q12 0 21 -9.5t9 -21.5v-106q0 -12 -9 -21.5t-21 -9.5h-215v-825q0 -12 -9.5 -21.5t-21.5 -9.5h-144q-12 0 -21 9.5t-9 21.5v825h-365v-823q0 -12 -9.5 -21.5t-21.5 -9.5h-143q-12 0 -21.5 9.5t-9.5 21.5v823h-94q-12 0 -21.5 9.5t-9.5 21.5v106
q0 12 9.5 21.5t21.5 9.5h94v90q0 108 53 186t134.5 114t179.5 36q170 0 295 -98v-4q106 100 274 100q33 0 70.5 -6t91.5 -31t90 -65l23 59q11 29 41 29h65q12 0 21.5 -9.5t9.5 -21.5v-1374q0 -12 -9.5 -21.5t-21.5 -9.5h-143q-12 0 -21.5 9.5t-9.5 21.5v1145
q-30 41 -82 64.5t-108 23.5q-71 0 -121 -39t-57 -119zM715 1112q0 49 8 82q-37 32 -92 52t-109 20q-74 0 -123 -39.5t-49 -120.5v-82h365v88z" />
    <glyph glyph-name="f_h" unicode="fh" horiz-adv-x="1740" 
d="M350 1104v-80h215q12 0 21.5 -9.5t9.5 -21.5v-106q0 -12 -9.5 -21.5t-21.5 -9.5h-215v-825q0 -12 -9.5 -21.5t-21.5 -9.5h-143q-12 0 -21.5 9.5t-9.5 21.5v825h-94q-12 0 -21.5 9.5t-9.5 21.5v106q0 12 9.5 21.5t21.5 9.5h94v88q0 108 53 186t134.5 114t179.5 36
q33 0 70.5 -6t91.5 -31t90 -65l22 59q11 29 41 29h66q12 0 21.5 -9.5t9.5 -21.5v-451q44 38 118.5 63t143.5 25q79 0 143.5 -16t109 -43t77.5 -67.5t52 -83t30.5 -96.5t15.5 -101.5t4 -104.5v-497q0 -12 -9.5 -21.5t-21.5 -9.5h-141q-12 0 -21.5 9.5t-9.5 21.5v497
q-1 10 -1 36.5t-1 48t-6 53.5t-13.5 57t-26 52t-42 46t-63 32.5t-86.5 16.5q-88 6 -156 -33.5t-96 -95.5v-710q0 -12 -9.5 -21.5t-21.5 -9.5h-143q-12 0 -21.5 9.5t-9.5 21.5v1143q-30 41 -82.5 64.5t-108.5 23.5q-71 0 -121 -39t-57 -119z" />
    <glyph glyph-name="f_j" unicode="fj" horiz-adv-x="1091" 
d="M420 -184q77 -41 145 -41q72 0 114 53t42 166v862h-371v-823q0 -12 -9.5 -21.5t-21.5 -9.5h-143q-12 0 -21.5 9.5t-9.5 21.5v823h-94q-12 0 -21.5 9.5t-9.5 21.5v106q0 12 9.5 21.5t21.5 9.5h94v90q0 110 49.5 187.5t127.5 112t178 34.5q123 0 233 -45q12 -5 17.5 -17
t1.5 -24l-33 -98q-5 -12 -16 -17.5t-23 -1.5q-92 29 -162 29q-72 0 -120 -39.5t-48 -128.5v-82h545q12 0 21.5 -9.5t9.5 -21.5v-999q0 -100 -18 -165q-56 -196 -247 -230q-39 -7 -81 -7q-140 0 -252 80q-10 7 -12 21t6 26l55 84q6 11 19 15t24 -2z" />
    <glyph glyph-name="f_k" unicode="fk" horiz-adv-x="1685" 
d="M924 457v-426q0 -12 -9.5 -21.5t-21.5 -9.5h-143q-12 0 -21.5 9.5t-9.5 21.5v1143q-30 41 -82.5 64.5t-108.5 23.5q-71 0 -121 -39t-57 -119v-82h215q12 0 21.5 -9.5t9.5 -21.5v-106q0 -12 -9.5 -21.5t-21.5 -9.5h-215v-823q0 -12 -9.5 -21.5t-21.5 -9.5h-143
q-12 0 -21.5 9.5t-9.5 21.5v823h-94q-12 0 -21.5 9.5t-9.5 21.5v106q0 12 9.5 21.5t21.5 9.5h94v90q0 108 53 186t134.5 114t179.5 36q33 0 70.5 -6t91.5 -31t90 -65l22 59q11 29 41 29h66q12 0 21.5 -9.5t9.5 -21.5v-807l395 405q23 23 53 23h205q5 0 8 -6q3 -3 -2 -8
l-485 -478l520 -512q6 -6 4 -14q-3 -6 -10 -6h-209q-30 0 -53 23z" />
    <glyph glyph-name="f_b" unicode="fb" horiz-adv-x="1808" 
d="M350 1104v-82h215q12 0 21.5 -9.5t9.5 -21.5v-106q0 -12 -9.5 -21.5t-21.5 -9.5h-215v-823q0 -12 -9.5 -21.5t-21.5 -9.5h-143q-12 0 -21.5 9.5t-9.5 21.5v823h-94q-12 0 -21.5 9.5t-9.5 21.5v106q0 12 9.5 21.5t21.5 9.5h94v90q0 108 53 186t134.5 114t179.5 36
q33 0 70.5 -6t91.5 -31t90 -65l22 59q11 29 41 29h66q12 0 21.5 -9.5t9.5 -21.5v-418q107 55 252 55q113 0 203.5 -34.5t146.5 -89t93 -126t52 -140.5t15 -138q0 -70 -15 -139.5t-52 -140.5t-92 -125.5t-143 -88.5t-198 -34q-183 0 -309 120l-25 -75q-11 -29 -41 -29h-61
q-12 0 -21.5 9.5t-9.5 21.5v1143q-30 41 -82.5 64.5t-108.5 23.5q-71 0 -121 -39t-57 -119zM1176 154q55 0 101 15.5t77 39.5t55 57.5t37.5 66.5t22 69t11.5 62t3 48q0 37 -7.5 78.5t-29.5 93t-56 91.5t-94 67.5t-137 27.5q-62 0 -127 -19t-108 -52v-508q82 -137 252 -137z
" />
    <glyph glyph-name="f_f_b" unicode="ffb" horiz-adv-x="2377" 
d="M1745 1040q113 0 203.5 -34.5t146.5 -89t93 -126t52 -140.5t15 -138q0 -70 -15 -139.5t-52 -140.5t-92 -125.5t-143 -88.5t-198 -34q-183 0 -309 120l-25 -75q-11 -29 -41 -29h-61q-12 0 -21.5 9.5t-9.5 21.5v1143q-30 41 -82 64.5t-108 23.5q-71 0 -121 -39t-57 -119
v-80h215q12 0 21 -9.5t9 -21.5v-106q0 -12 -9 -21.5t-21 -9.5h-215v-825q0 -12 -9.5 -21.5t-21.5 -9.5h-144q-12 0 -21 9.5t-9 21.5v825h-365v-823q0 -12 -9.5 -21.5t-21.5 -9.5h-143q-12 0 -21.5 9.5t-9.5 21.5v823h-94q-12 0 -21.5 9.5t-9.5 21.5v106q0 12 9.5 21.5
t21.5 9.5h94v90q0 108 53 186t134.5 114t179.5 36q173 0 295 -102q106 100 274 100q33 0 70.5 -6t91.5 -31t90 -65l23 59q11 29 41 29h65q12 0 21.5 -9.5t9.5 -21.5v-418q107 55 252 55zM715 1112q0 49 8 82q-37 32 -92 52t-109 20q-74 0 -123 -39.5t-49 -120.5v-82h365v88z
M1745 154q55 0 101 15.5t77 39.5t55 57.5t37.5 66.5t22 69t11.5 62t3 48q0 37 -7 78.5t-29 93t-56 91.5t-94 67.5t-137 27.5q-62 0 -127.5 -19t-108.5 -52v-508q82 -137 252 -137z" />
    <glyph glyph-name="f_f_h" unicode="ffh" horiz-adv-x="2310" 
d="M1755 1040q79 0 143.5 -16t109 -43t77.5 -67.5t52 -83t30.5 -96.5t15.5 -101.5t4 -104.5v-497q0 -12 -9 -21.5t-21 -9.5h-142q-12 0 -21 9.5t-9 21.5v497q-1 9 -1.5 36t-1 48.5t-5.5 53.5t-13.5 57t-26.5 52t-42.5 46t-63 32.5t-86.5 16.5q-88 6 -156 -33.5t-96 -95.5
v-710q0 -12 -9.5 -21.5t-21.5 -9.5h-143q-12 0 -21.5 9.5t-9.5 21.5v1143q-30 41 -82 64.5t-108 23.5q-71 0 -121 -39t-57 -119v-80h215q12 0 21 -9.5t9 -21.5v-106q0 -12 -9 -21.5t-21 -9.5h-215v-825q0 -12 -9.5 -21.5t-21.5 -9.5h-144q-12 0 -21 9.5t-9 21.5v825h-365
v-823q0 -12 -9.5 -21.5t-21.5 -9.5h-143q-12 0 -21.5 9.5t-9.5 21.5v823h-94q-12 0 -21.5 9.5t-9.5 21.5v106q0 12 9.5 21.5t21.5 9.5h94v90q0 108 53 186t134.5 114t179.5 36q173 0 297 -100q109 98 272 98q33 0 70.5 -6t91.5 -31t90 -65l23 59q11 29 41 29h65
q12 0 21.5 -9.5t9.5 -21.5v-451q44 38 118.5 63t143.5 25zM715 1112q0 49 8 82q-37 32 -92 52t-109 20q-74 0 -123 -39.5t-49 -120.5v-82h365v88z" />
    <glyph glyph-name="f_f_j" unicode="ffj" horiz-adv-x="1669" 
d="M1503 993v-999q0 -100 -18 -165q-56 -196 -247 -230q-38 -7 -81 -7q-140 0 -252 80q-10 7 -12 21t6 26l55 84q6 11 19 15t24 -2q77 -41 146 -41q72 0 113.5 53t41.5 166v862h-370v-823q0 -12 -9.5 -21.5t-21.5 -9.5h-143q-12 0 -21.5 9.5t-9.5 21.5v823h-373v-823
q0 -12 -9.5 -21.5t-21.5 -9.5h-143q-12 0 -21.5 9.5t-9.5 21.5v823h-94q-12 0 -21.5 9.5t-9.5 21.5v106q0 12 9.5 21.5t21.5 9.5h94v90q0 108 53 186t134.5 114t179.5 36q173 0 297 -100q98 98 268 98q124 0 234 -45q12 -4 17.5 -16.5t0.5 -24.5l-33 -98q-5 -12 -16 -17.5
t-23 -1.5q-92 29 -161 29q-72 0 -120 -39.5t-48 -128.5v-82h545q12 0 21 -9.5t9 -21.5zM723 1024v90q0 42 6 76q-37 34 -93.5 55t-113.5 21q-74 0 -123 -39.5t-49 -120.5v-82h373z" />
    <glyph glyph-name="f_f_k" unicode="ffk" horiz-adv-x="2254" 
d="M1493 457v-426q0 -12 -9.5 -21.5t-21.5 -9.5h-143q-12 0 -21.5 9.5t-9.5 21.5v1143q-30 41 -82 64.5t-108 23.5q-71 0 -121 -39t-57 -119v-80h215q12 0 21 -9.5t9 -21.5v-106q0 -12 -9 -21.5t-21 -9.5h-215v-825q0 -12 -9.5 -21.5t-21.5 -9.5h-144q-12 0 -21 9.5t-9 21.5
v825h-365v-823q0 -12 -9.5 -21.5t-21.5 -9.5h-143q-12 0 -21.5 9.5t-9.5 21.5v823h-94q-12 0 -21.5 9.5t-9.5 21.5v106q0 12 9.5 21.5t21.5 9.5h94v90q0 108 53 186t134.5 114t179.5 36q173 0 297 -100q109 98 272 98q33 0 70.5 -6t91.5 -31t90 -65l23 59q11 29 41 29h65
q12 0 21.5 -9.5t9.5 -21.5v-807l395 405q23 23 54 23h204q5 0 8 -6q3 -3 -2 -8l-485 -478l520 -512q7 -6 4 -14q-3 -6 -10 -6h-209q-30 0 -53 23zM715 1112q0 49 8 82q-37 32 -92 52t-109 20q-74 0 -123 -39.5t-49 -120.5v-82h365v88z" />
    <glyph glyph-name=".notdef" horiz-adv-x="1003" 
d="M430 428q0 -25 19 -43t45 -18q25 0 42 18t17 43t-17 41t-42 16q-27 0 -45.5 -16.5t-18.5 -40.5zM537 547v57q0 22 23.5 54t51 61t51 73.5t23.5 88.5q0 79 -50 123.5t-128 44.5q-65 0 -112 -25t-101 -82l59 -57q38 40 67.5 58.5t65.5 19.5q30 1 50.5 -7t30 -22.5t13 -27.5
t3.5 -27q0 -32 -14.5 -61.5t-35 -53t-41 -46.5t-35 -51.5t-14.5 -58.5v-61h93zM942 1300v-1167q0 -12 -9.5 -21.5t-21.5 -9.5h-819q-12 0 -21.5 9.5t-9.5 21.5v1167q0 12 9.5 21.5t21.5 9.5h819q12 0 21.5 -9.5t9.5 -21.5z" />
    <glyph glyph-name=".null" horiz-adv-x="0" 
 />
    <glyph glyph-name="nonmarkingreturn" horiz-adv-x="682" 
 />
    <glyph glyph-name="space" unicode=" " horiz-adv-x="614" 
 />
    <glyph glyph-name="exclam" unicode="!" horiz-adv-x="653" 
d="M428 1401v-545l-37 -397q0 -13 -10.5 -23t-24.5 -10h-63q-14 0 -24.5 10t-10.5 23l-35 397v545q0 13 9.5 23t23.5 10h139q13 0 23 -10t10 -23zM205 115q0 53 34.5 87t86.5 34t87.5 -34.5t35.5 -86.5q0 -51 -36 -87t-87 -36q-52 0 -86.5 35.5t-34.5 87.5z" />
    <glyph glyph-name="quotedbl" unicode="&#x22;" horiz-adv-x="694" 
d="M287 1401l-35 -430q-2 -14 -12 -23.5t-23 -9.5h-63q-14 0 -24.5 10t-10.5 23l-35 430q0 14 9 23.5t22 9.5h141q13 0 22 -9.5t9 -23.5zM610 1401l-35 -430q-2 -14 -11.5 -23.5t-22.5 -9.5h-64q-14 0 -24.5 10t-10.5 23l-34 430q0 14 8.5 23.5t21.5 9.5h142q13 0 21.5 -9.5
t8.5 -23.5z" />
    <glyph glyph-name="numbersign" unicode="#" horiz-adv-x="1171" 
d="M156 795h147v196q0 13 9.5 23t23.5 10h88q14 0 23.5 -10t9.5 -23v-196h256v196q0 14 9.5 23.5t22.5 9.5h89q13 0 22.5 -9.5t9.5 -23.5v-196h150q14 0 23.5 -9.5t9.5 -23.5v-88q0 -14 -9.5 -23.5t-23.5 -9.5h-150v-256h150q14 0 23.5 -9.5t9.5 -23.5v-88q0 -14 -9.5 -23.5
t-23.5 -9.5h-150v-198q0 -14 -9.5 -23.5t-22.5 -9.5h-89q-13 0 -22.5 9.5t-9.5 23.5v198h-256v-198q0 -13 -9.5 -23t-23.5 -10h-88q-14 0 -23.5 10t-9.5 23v198h-147q-14 0 -23.5 9.5t-9.5 23.5v88q0 14 9.5 23.5t23.5 9.5h147v256h-147q-14 0 -23.5 9.5t-9.5 23.5v88
q0 14 9.5 23.5t23.5 9.5zM457 641v-256h256v256h-256z" />
    <glyph glyph-name="dollar" unicode="$" horiz-adv-x="1271" 
d="M135 1094q10 165 129 262t303 100v100q0 14 9.5 23.5t23.5 9.5h76q14 0 23.5 -9.5t9.5 -23.5v-108q151 -21 327 -96q13 -6 18.5 -19.5t0.5 -25.5l-49 -113q-4 -13 -17 -18t-26 0q-151 57 -254 73v-432q55 -18 92 -31.5t87.5 -36.5t84 -46t69.5 -57t57.5 -72t35.5 -89.5
t14 -111.5q0 -158 -123 -264t-317 -121v-172q0 -14 -9.5 -23.5t-23.5 -9.5h-76q-14 0 -23.5 9.5t-9.5 23.5v170q-230 14 -415 110q-12 6 -16.5 18.5t1.5 24.5l51 107q6 11 18.5 15.5t24.5 -1.5q162 -77 336 -88v479q-51 14 -87.5 26t-83.5 30.5t-80 38t-68 48.5t-57 61.5
t-38 77t-20 95.5q0 43 2 66zM932 408q-10 76 -65 119t-158 79v-430q86 18 147 61.5t74 104.5q6 22 2 66zM340 1077q0 -78 58.5 -126.5t168.5 -86.5v389q-103 -8 -162 -47.5t-65 -128.5z" />
    <glyph glyph-name="percent" unicode="%" horiz-adv-x="1591" 
d="M672 1120q0 -43 -8.5 -84.5t-31 -84.5t-56 -75t-87.5 -52.5t-122 -20.5q-84 0 -146.5 30t-95.5 79.5t-48.5 101.5t-15.5 106q0 53 15.5 105t48.5 101.5t95.5 80.5t146.5 31q68 0 122 -21t87.5 -53.5t56 -76t31 -85t8.5 -82.5zM367 944q46 0 78 20t46 51.5t19.5 56.5
t5.5 48q0 17 -2.5 36.5t-12 45t-25 45t-44 33.5t-65.5 14q-46 0 -78.5 -20t-47 -50.5t-20.5 -56t-6 -47.5q0 -23 6 -48.5t20.5 -56.5t47 -51t78.5 -20zM1225 631q68 0 122 -21t87.5 -53.5t56 -76t31 -85t8.5 -82.5q0 -43 -8.5 -84.5t-31 -84.5t-56 -75t-87.5 -52.5
t-122 -20.5t-122 20.5t-87.5 52.5t-56 75t-31 84.5t-8.5 84.5q0 41 8.5 82.5t31 85t56 76t87.5 53.5t122 21zM1225 137q46 0 78 20t46 51.5t19.5 56.5t5.5 48q0 17 -2.5 36.5t-12 45t-25 45t-44 33.5t-65.5 14q-46 0 -78.5 -20t-47 -50.5t-20.5 -56t-6 -47.5q0 -23 6 -48.5
t20.5 -56.5t47 -51t78.5 -20zM979 1434h100q12 0 19 -10t4 -21l-447 -1372q-4 -13 -16.5 -22t-26.5 -9h-100q-12 0 -19.5 10.5t-3.5 20.5l447 1372q10 31 43 31z" />
    <glyph glyph-name="ampersand" unicode="&#x26;" horiz-adv-x="1431" 
d="M1130 289l156 -166q9 -11 8 -24t-10 -21l-90 -78q-10 -8 -24 -7t-23 11l-133 139q-169 -166 -412 -157q-190 6 -313 126.5t-123 280.5q-1 72 19 131.5t59 105.5t79.5 78.5t98.5 67.5l-51 55q-61 66 -88 133t-27 152q0 61 22 118.5t64 105.5t111.5 77t156.5 29
q81 0 146.5 -28t105.5 -74.5t61 -103.5t21 -118q0 -203 -237 -379l286 -309q50 103 80 236q3 14 14.5 21.5t24.5 4.5l107 -20q13 -3 21.5 -14t6.5 -25q-30 -195 -117 -348zM600 1280q-39 0 -69.5 -15t-47 -37t-26 -47.5t-11.5 -45.5t0 -33q0 -46 29.5 -96t108.5 -132
q82 53 127 110t45 136q0 65 -41 112.5t-115 47.5zM618 166q156 0 269 113l-334 356q-87 -59 -137 -114t-51 -118q-3 -105 73.5 -171t179.5 -66z" />
    <glyph glyph-name="quotesingle" unicode="'" horiz-adv-x="370" 
d="M287 1401l-35 -430q-2 -14 -12 -23.5t-23 -9.5h-63q-14 0 -24.5 10t-10.5 23l-35 430q0 14 9 23.5t22 9.5h141q13 0 22 -9.5t9 -23.5z" />
    <glyph glyph-name="parenleft" unicode="(" horiz-adv-x="579" 
d="M61 594q0 504 306 954q8 11 21 13t24 -5l77 -49q12 -6 16 -19.5t-3 -25.5q-232 -432 -232 -866q0 -449 232 -881q7 -12 3 -25.5t-16 -21.5l-77 -49q-10 -6 -24 -3t-21 13q-306 450 -306 965z" />
    <glyph glyph-name="parenright" unicode=")" horiz-adv-x="579" 
d="M518 594q0 -517 -305 -965q-7 -10 -21 -13t-26 3l-78 49q-11 8 -14 21.5t4 25.5q231 430 231 881q0 436 -231 866q-7 12 -4 25.5t14 19.5l78 49q12 7 25.5 5t21.5 -13q305 -448 305 -954z" />
    <glyph glyph-name="asterisk" unicode="*" horiz-adv-x="964" 
d="M643 1057l172 -109q10 -7 13 -21t-3 -26l-34 -61q-8 -12 -21 -16.5t-25 1.5l-182 93l-10 -203q-2 -14 -12 -23.5t-23 -9.5h-72q-13 0 -22.5 9.5t-11.5 23.5l-11 203l-182 -93q-12 -6 -25.5 -1.5t-19.5 16.5l-35 61q-7 12 -3.5 25.5t14.5 21.5l169 109l-169 110
q-11 8 -14.5 21.5t3.5 25.5l35 62q6 12 19.5 16t25.5 -2l182 -94l11 205q2 14 11.5 23.5t22.5 9.5h72q13 0 23 -9.5t12 -23.5l10 -205l182 94q12 6 25.5 2t20.5 -16l34 -62q6 -12 3 -26t-13 -21z" />
    <glyph glyph-name="plus" unicode="+" horiz-adv-x="1132" 
d="M197 768h292v293q0 13 9.5 23t23.5 10h88q14 0 23.5 -10t9.5 -23v-293h293q14 0 23.5 -10t9.5 -23v-88q0 -13 -9.5 -23t-23.5 -10h-293v-292q0 -14 -9.5 -23.5t-23.5 -9.5h-88q-14 0 -23.5 9.5t-9.5 23.5v292h-292q-13 0 -23 10t-10 23v88q0 13 10 23t23 10z" />
    <glyph glyph-name="comma" unicode="," horiz-adv-x="610" 
d="M248 -317l-47 22q-11 6 -15 18t2 23q82 156 97 242q-52 4 -86.5 43t-34.5 92q0 57 38 95t95 38q77 0 113 -43.5t36 -106.5q0 -146 -153 -409q-17 -24 -45 -14z" />
    <glyph glyph-name="hyphen" unicode="-" horiz-adv-x="884" 
d="M195 676h495q12 0 21.5 -9.5t9.5 -21.5v-108q0 -12 -9.5 -21.5t-21.5 -9.5h-495q-12 0 -21.5 9.5t-9.5 21.5v108q0 12 9.5 21.5t21.5 9.5z" />
    <glyph glyph-name="period" unicode="." horiz-adv-x="595" 
d="M164 125q0 57 38 95t95 38q56 0 95.5 -38.5t39.5 -94.5q0 -55 -40 -95t-95 -40q-56 0 -94.5 39.5t-38.5 95.5z" />
    <glyph glyph-name="slash" unicode="/" horiz-adv-x="755" 
d="M684 1405l-446 -1376q-11 -29 -41 -29h-105q-11 0 -17.5 9.5t-2.5 19.5l446 1376q11 29 41 29h105q11 0 17.5 -9.5t2.5 -19.5z" />
    <glyph glyph-name="zero" unicode="0" horiz-adv-x="1306" 
d="M653 1393q117 0 211 -46t152.5 -118t97.5 -167t54.5 -186.5t15.5 -183.5q0 -94 -15.5 -186.5t-54.5 -187.5t-97.5 -166.5t-152.5 -116.5t-211 -45q-98 0 -180.5 31t-139 85.5t-98.5 123.5t-65.5 149.5t-35 157.5t-11.5 155q0 92 15.5 183.5t54 186.5t97 167t152.5 118
t211 46zM653 158q59 0 109 23t83 59.5t59 86t40.5 99t23.5 103t12 92t3 71.5t-3 71.5t-12 92t-23.5 102.5t-40.5 99t-59 86t-83 59t-109 23t-109 -23t-83 -59t-58.5 -86t-40 -99t-23.5 -102.5t-12 -92t-3 -71.5t3 -71.5t12 -92t23.5 -103t40 -99t58.5 -86t83 -59.5t109 -23z
" />
    <glyph glyph-name="one" unicode="1" horiz-adv-x="792" 
d="M608 1366v-1335q0 -12 -9 -21.5t-21 -9.5h-144q-12 0 -21.5 9.5t-9.5 21.5v1046l-206 -125q-11 -7 -24 -4.5t-21 13.5l-52 75q-8 10 -6 23t12 20l359 297q24 21 55 21h58q12 0 21 -9.5t9 -21.5z" />
    <glyph glyph-name="two" unicode="2" horiz-adv-x="1073" 
d="M186 1092l-75 75q-9 9 -9 22.5t9 22.5q188 191 419 191q96 0 175 -27.5t137 -80t86 -135.5t20 -189q-6 -71 -54 -162.5t-116 -177.5l-358 -447h459q12 0 21 -9t9 -21v-123q0 -12 -9 -21.5t-21 -9.5h-740q-12 0 -21 9.5t-9 21.5v14q0 31 18 55l504 645q110 131 121 234
q4 33 4 68t-15 68.5t-39 59.5t-68 42t-102 16q-148 0 -303 -143q-9 -8 -22.5 -7.5t-20.5 9.5z" />
    <glyph glyph-name="three" unicode="3" horiz-adv-x="1056" 
d="M780 690q81 -59 117.5 -145.5t36.5 -169.5q0 -48 -11 -97t-42.5 -104t-79.5 -97t-129 -69.5t-185 -27.5q-128 0 -218 40.5t-165 106.5q-9 8 -10 21t8 22l66 80q9 9 21.5 9.5t21.5 -7.5q60 -46 135.5 -77.5t140.5 -31.5q106 0 180 60.5t74 171.5q0 112 -74 172.5
t-180 60.5h-137q-12 0 -21.5 9.5t-9.5 21.5v102q0 12 9.5 21.5t21.5 9.5h137q106 0 180 61t74 173q0 111 -74 171t-180 60q-65 0 -140.5 -31.5t-135.5 -77.5q-9 -8 -21.5 -7.5t-21.5 9.5l-66 80q-20 20 2 43q76 66 165.5 107t217.5 41q104 0 185 -27.5t129 -69.5t79.5 -97
t42.5 -104t11 -97q0 -84 -36.5 -170.5t-117.5 -145.5z" />
    <glyph glyph-name="four" unicode="4" horiz-adv-x="1148" 
d="M866 285v-254q0 -12 -9 -21.5t-21 -9.5h-148q-12 0 -21.5 9.5t-9.5 21.5v254h-565q-12 0 -21.5 9t-9.5 21v50q0 26 17 57l606 934q16 26 47 26h105q12 0 21 -9t9 -21v-891h191q12 0 21 -9.5t9 -21.5v-115q0 -12 -9 -21t-21 -9h-191zM657 999l-344 -538h344v538z" />
    <glyph glyph-name="five" unicode="5" horiz-adv-x="1126" 
d="M145 201l82 78q21 17 43 -5q108 -116 252 -116q130 0 206.5 84.5t76.5 197.5q0 112 -76.5 195.5t-208.5 83.5h-282q-12 0 -21.5 9.5t-9.5 21.5v602q0 12 9.5 21t21.5 9h628q12 0 21.5 -9t9.5 -21v-115q0 -12 -9.5 -21.5t-21.5 -9.5h-454v-321h108q112 0 199.5 -30.5
t139.5 -77.5t86 -110t46.5 -121t12.5 -118q0 -48 -13 -101.5t-47.5 -116t-86.5 -111.5t-139.5 -82t-197.5 -33q-234 0 -379 172q-17 24 4 45z" />
    <glyph glyph-name="six" unicode="6" horiz-adv-x="1196" 
d="M737 1391l60 -86q6 -9 2.5 -22t-13.5 -19q-165 -101 -267 -220t-142 -229q31 31 99.5 54.5t121.5 23.5q111 0 198 -32t138 -80t83.5 -112.5t44 -121t11.5 -113.5q0 -38 -9 -81t-28.5 -95t-56 -98.5t-86.5 -86t-126.5 -62.5t-168.5 -23q-110 0 -196.5 35.5t-137 88
t-83.5 119t-44.5 122t-11.5 104.5q-1 150 33 283t87.5 230t131.5 182.5t153 142t164 108.5q10 6 23.5 3t19.5 -15zM598 164q129 0 202.5 84t73.5 198q0 113 -72.5 196t-203.5 83q-129 0 -200 -81t-74 -198q0 -114 72.5 -198t201.5 -84z" />
    <glyph glyph-name="seven" unicode="7" horiz-adv-x="964" 
d="M61 1237v115q0 12 9.5 21t21.5 9h752q12 0 21 -9t9 -21v-23q0 -32 -12 -59l-504 -1241q-13 -29 -43 -29h-147q-11 0 -16.5 9.5t-1.5 19.5l477 1177h-535q-12 0 -21.5 9.5t-9.5 21.5z" />
    <glyph glyph-name="eight" unicode="8" horiz-adv-x="1138" 
d="M862 690q81 -59 117.5 -145.5t36.5 -169.5q0 -48 -11 -97t-42.5 -104t-79.5 -97t-129 -69.5t-185 -27.5t-185 27.5t-129 69.5t-79 97t-42 104t-11 97q0 83 36.5 169.5t116.5 145.5q-80 59 -116.5 146t-36.5 170q0 48 11 97t42 104t79 97t129 69.5t185 27.5t185 -27.5
t129 -69.5t79.5 -97t42.5 -104t11 -97q0 -84 -36.5 -170.5t-117.5 -145.5zM569 143q106 0 180 60.5t74 171.5q0 112 -74 172.5t-180 60.5t-180 -60.5t-74 -172.5q0 -111 74 -171.5t180 -60.5zM569 772q106 0 180 61t74 173q0 111 -74 171t-180 60t-180 -60t-74 -171
q0 -112 74 -173t180 -61z" />
    <glyph glyph-name="nine" unicode="9" horiz-adv-x="1196" 
d="M459 -8l-60 86q-6 11 -3 23t14 20q164 101 266.5 220t142.5 228q-31 -31 -99.5 -54t-121.5 -23q-111 0 -198 32t-138 80t-83.5 112t-44 120.5t-11.5 113.5q0 38 9 81t28.5 95.5t56 99t86.5 86t126.5 62.5t168.5 23q110 0 196.5 -35.5t137 -88t83.5 -119t44.5 -122
t11.5 -104.5q1 -150 -33 -283t-87.5 -230t-131.5 -182.5t-153 -142t-164 -108.5q-10 -6 -23.5 -3t-19.5 13zM598 1221q-129 0 -202.5 -84.5t-73.5 -198.5q0 -113 72.5 -196t203.5 -83q129 0 200 81t74 198q0 73 -29.5 136t-93.5 105t-151 42z" />
    <glyph glyph-name="colon" unicode=":" horiz-adv-x="595" 
d="M164 125q0 57 38 95t95 38q56 0 95.5 -38.5t39.5 -94.5q0 -55 -40 -95t-95 -40q-56 0 -94.5 39.5t-38.5 95.5zM164 897q0 57 38 95t95 38q56 0 95.5 -38.5t39.5 -94.5q0 -55 -40 -95t-95 -40q-56 0 -94.5 39.5t-38.5 95.5z" />
    <glyph glyph-name="semicolon" unicode=";" horiz-adv-x="610" 
d="M164 895q0 57 38 95t95 38q56 0 95.5 -38.5t39.5 -94.5q0 -55 -40 -95t-95 -40q-56 0 -94.5 39.5t-38.5 95.5zM248 -317l-47 22q-11 6 -15 18t2 23q82 156 97 242q-52 4 -86.5 43t-34.5 92q0 57 38 95t95 38q77 0 113 -43.5t36 -106.5q0 -146 -153 -409q-17 -24 -45 -14z
" />
    <glyph glyph-name="less" unicode="&#x3c;" horiz-adv-x="878" 
d="M791 887l-433 -275l433 -278q11 -6 14 -19t-4 -24l-51 -88q-6 -11 -18 -14t-23 4l-623 372q-25 14 -25 43q0 31 25 45l623 375q10 6 22.5 3t18.5 -13l51 -88q7 -11 4 -24t-14 -19z" />
    <glyph glyph-name="equal" unicode="=" horiz-adv-x="1028" 
d="M834 891h-639q-12 0 -21.5 9.5t-9.5 21.5v92q0 12 9.5 21t21.5 9h639q12 0 21 -9t9 -21v-92q0 -12 -9 -21.5t-21 -9.5zM834 403h-639q-12 0 -21.5 9.5t-9.5 21.5v92q0 12 9.5 21.5t21.5 9.5h639q12 0 21 -9.5t9 -21.5v-92q0 -12 -9 -21.5t-21 -9.5z" />
    <glyph glyph-name="greater" unicode="&#x3e;" horiz-adv-x="878" 
d="M520 612l-432 275q-11 6 -14.5 19t2.5 24l51 88q7 10 20 13t23 -3l623 -375q24 -14 24 -45q0 -29 -24 -43l-623 -372q-11 -7 -23 -4t-20 14l-51 88q-6 11 -2.5 24t14.5 19z" />
    <glyph glyph-name="question" unicode="?" horiz-adv-x="1124" 
d="M440 115q0 52 36 86.5t89 34.5q52 0 87.5 -34.5t35.5 -86.5q0 -51 -36 -87t-87 -36q-52 0 -88.5 36t-36.5 87zM657 547l-4 -88q-2 -12 -11 -21.5t-21 -9.5h-121q-12 0 -21.5 9.5t-9.5 21.5v92q0 62 29.5 119.5t71.5 104.5t83.5 94.5t71 108t29.5 126.5q0 28 -7.5 54.5
t-26.5 56t-60.5 46.5t-100.5 15q-69 -3 -125.5 -36t-128.5 -103q-9 -7 -22.5 -7t-22.5 7l-74 73q-9 9 -10 22.5t8 22.5q99 102 193.5 148.5t220.5 46.5q160 0 261.5 -90.5t101.5 -253.5q0 -73 -31.5 -145.5t-76 -128.5t-89 -106t-76 -96.5t-31.5 -82.5z" />
    <glyph glyph-name="at" unicode="@" horiz-adv-x="2324" 
d="M1178 1473q232 0 425.5 -74t324 -203.5t202.5 -308t72 -385.5q0 -95 -15.5 -187.5t-53.5 -183.5t-94 -159.5t-143.5 -111t-195.5 -42.5q-88 0 -151 41t-89 118l-4 3q-127 -121 -309 -121q-110 0 -198 34t-143 88.5t-92 125.5t-52 140.5t-15 139.5t15 139t52 140t92 125
t143 88t198 34q183 0 309 -120l23 75q11 29 41 29h63q12 0 21.5 -9.5t9.5 -21.5v-739q2 -63 26.5 -99t92.5 -36q117 0 192.5 143.5t75.5 358.5q0 169 -56 313.5t-160 251.5t-262 168t-352 61q-262 0 -455 -114t-294 -323t-98 -489q1 -100 24 -197t74 -196t127 -183.5
t190 -159t256 -124.5q11 -5 16 -16t1 -23l-49 -112q-5 -12 -17 -17.5t-24 -1.5q-389 138 -591.5 409t-205.5 621q-2 237 71.5 442t208.5 352.5t334.5 232t438.5 84.5zM1409 166v440q-82 137 -252 137q-55 0 -101 -15.5t-77 -39.5t-55 -57.5t-37.5 -66.5t-22 -69t-11.5 -62
t-3 -48q0 -27 4.5 -58.5t15.5 -74t34 -80.5t55 -71t83.5 -52.5t114.5 -19.5q170 0 252 137z" />
    <glyph glyph-name="A" unicode="A" horiz-adv-x="1413" 
d="M1110 31l-139 348h-529l-139 -348q-13 -29 -43 -29h-168q-11 0 -16.5 9.5t-1.5 19.5l592 1390q14 27 41 27q28 0 38 -27l594 -1390q4 -10 -1.5 -19.5t-16.5 -9.5h-168q-30 0 -43 29zM707 1034l-191 -473h381z" />
    <glyph glyph-name="B" unicode="B" horiz-adv-x="1355" 
d="M1059 717q83 -42 128.5 -135.5t45.5 -175.5q0 -54 -14.5 -107.5t-51 -108.5t-91 -96.5t-143 -67.5t-198.5 -26h-499q-12 0 -21.5 9.5t-9.5 21.5v1372q0 12 9.5 21.5t21.5 9.5h499q110 0 198.5 -26.5t143 -68t91 -96.5t51 -109t14.5 -108q0 -88 -44 -172t-130 -137z
M756 184q64 0 114 18t77 44t44 58.5t22 57t5 44.5q0 28 -5 53t-21.5 54t-43 50t-74 35.5t-110.5 15.5h-352v-430h344zM764 801q62 1 110 18.5t74.5 41.5t43 56t21.5 58t5 51q0 20 -5 44.5t-22 58t-44 59.5t-77 44.5t-114 18.5h-344v-450h352z" />
    <glyph glyph-name="C" unicode="C" horiz-adv-x="1484" 
d="M1339 1202l-92 -92q-9 -8 -21.5 -7.5t-21.5 9.5q-68 66 -169 111t-204 45q-89 0 -163 -23.5t-124 -61t-89 -88.5t-60.5 -102t-35.5 -105.5t-18.5 -94.5t-4.5 -74t4.5 -73.5t18.5 -94.5t35.5 -105.5t60.5 -101t89 -88t124 -61t163 -23.5q200 0 383 152q9 8 21.5 6.5
t19.5 -11.5l84 -104q7 -11 6 -24.5t-10 -22.5q-202 -186 -504 -186q-114 0 -211.5 25t-168.5 67.5t-128 101.5t-94 124t-61.5 138.5t-34.5 142.5t-10 138q0 67 10 135t34.5 141.5t61.5 138.5t94 124.5t128 102.5t168.5 68t211.5 25q166 0 288.5 -53.5t221.5 -155.5
q9 -9 8 -22t-10 -21z" />
    <glyph glyph-name="D" unicode="D" horiz-adv-x="1531" 
d="M700 0h-464q-12 0 -21.5 9.5t-9.5 21.5v1372q0 12 9.5 21.5t21.5 9.5h464q114 0 211.5 -24t168.5 -65t128.5 -98.5t94 -120.5t61 -134.5t35 -138.5t10.5 -134q0 -98 -20.5 -193t-72 -192t-129.5 -169.5t-204 -118.5t-283 -46zM414 184h286q89 0 163 23t124 59t88.5 85.5
t60.5 99t35.5 103t18 92.5t4.5 73t-4.5 73t-18 92t-35.5 102t-60.5 98.5t-88.5 85.5t-124 58.5t-163 22.5h-286v-1067z" />
    <glyph glyph-name="E" unicode="E" horiz-adv-x="1269" 
d="M956 614h-542v-430h702q12 0 21.5 -9t9.5 -21v-123q0 -12 -9.5 -21.5t-21.5 -9.5h-880q-12 0 -21.5 9.5t-9.5 21.5v1372q0 12 9.5 21.5t21.5 9.5h880q12 0 21.5 -9.5t9.5 -21.5v-123q0 -12 -9.5 -21.5t-21.5 -9.5h-702v-450h542q12 0 21.5 -9.5t9.5 -21.5v-123
q0 -12 -9.5 -21.5t-21.5 -9.5z" />
    <glyph glyph-name="F" unicode="F" horiz-adv-x="1269" 
d="M956 614h-542v-583q0 -12 -9.5 -21.5t-21.5 -9.5h-147q-12 0 -21.5 9.5t-9.5 21.5v1372q0 12 9.5 21.5t21.5 9.5h880q12 0 21.5 -9.5t9.5 -21.5v-123q0 -12 -9.5 -21.5t-21.5 -9.5h-702v-450h542q12 0 21.5 -9.5t9.5 -21.5v-123q0 -12 -9.5 -21.5t-21.5 -9.5z" />
    <glyph glyph-name="G" unicode="G" horiz-adv-x="1468" 
d="M1135 512h-271q-12 0 -21 9.5t-9 21.5v123q0 12 9 21t21 9h451q12 0 21.5 -9t9.5 -21v-453q0 -31 -23 -51q-196 -180 -492 -180q-114 0 -211.5 25t-168.5 67.5t-128 101.5t-94 124t-61.5 138.5t-34.5 142.5t-10 138q0 67 10 135t34.5 141.5t61.5 138.5t94 124.5
t128 102.5t168.5 68t211.5 25q166 0 276 -43t202 -137q9 -9 8.5 -22.5t-8.5 -22.5l-90 -90q-7 -9 -20.5 -9.5t-22.5 7.5q-61 56 -154 93.5t-191 37.5q-89 0 -163 -23.5t-124 -61t-89 -88.5t-60.5 -102t-35.5 -105.5t-18.5 -94.5t-4.5 -74t4.5 -73.5t18.5 -94.5t35.5 -105.5
t60.5 -101t89 -88t124 -61t163 -23.5q179 0 304 92v248z" />
    <glyph glyph-name="H" unicode="H" horiz-adv-x="1570" 
d="M416 614v-583q0 -12 -9.5 -21.5t-21.5 -9.5h-149q-12 0 -21.5 9.5t-9.5 21.5v1372q0 12 9.5 21.5t21.5 9.5h149q12 0 21.5 -9.5t9.5 -21.5v-604h739v604q0 12 9.5 21.5t21.5 9.5h149q12 0 21.5 -9.5t9.5 -21.5v-1372q0 -12 -9.5 -21.5t-21.5 -9.5h-149q-12 0 -21.5 9.5
t-9.5 21.5v583h-739z" />
    <glyph glyph-name="I" unicode="I" horiz-adv-x="620" 
d="M416 1403v-1372q0 -12 -9.5 -21.5t-21.5 -9.5h-149q-12 0 -21.5 9.5t-9.5 21.5v1372q0 12 9.5 21.5t21.5 9.5h149q12 0 21.5 -9.5t9.5 -21.5z" />
    <glyph glyph-name="J" unicode="J" 
d="M70 383l125 47q12 4 22.5 -1.5t15.5 -16.5q19 -52 43 -91.5t60 -73t86.5 -51t114.5 -16.5q59 1 106.5 17.5t78 41t53 59.5t34 66.5t18 70t8 62.5t1.5 50v856q0 12 9 21.5t21 9.5h152q12 0 21.5 -9.5t9.5 -21.5v-856q0 -76 -13 -147.5t-48.5 -148.5t-91 -133.5t-148 -93
t-211.5 -36.5q-108 0 -191.5 27t-140 77.5t-93 111t-63.5 140.5q-3 12 3 23.5t18 15.5z" />
    <glyph glyph-name="K" unicode="K" horiz-adv-x="1427" 
d="M385 0h-149q-12 0 -21.5 9.5t-9.5 21.5v1372q0 12 9.5 21.5t21.5 9.5h149q12 0 21.5 -9.5t9.5 -21.5v-590l608 598q23 23 53 23h193q7 0 12.5 -5.5t5.5 -13.5q0 -17 -12 -29l-660 -647l709 -702q10 -10 10 -25q0 -12 -14 -12h-201q-30 0 -53 23l-651 649v-641
q0 -12 -9.5 -21.5t-21.5 -9.5z" />
    <glyph glyph-name="L" unicode="L" horiz-adv-x="1085" 
d="M416 1403v-1219h516q12 0 21.5 -9t9.5 -21v-123q0 -12 -9.5 -21.5t-21.5 -9.5h-696q-12 0 -21.5 9.5t-9.5 21.5v1372q0 12 9.5 21.5t21.5 9.5h149q12 0 21.5 -9.5t9.5 -21.5z" />
    <glyph glyph-name="M" unicode="M" horiz-adv-x="2068" 
d="M997 6l-401 932l-297 -909q-11 -29 -41 -29h-166q-11 0 -17.5 9.5t-2.5 19.5l469 1401q7 20 26 20q24 0 31 -20l436 -1024l436 1024q7 20 29 20t29 -20l469 -1401q4 -10 -3 -19.5t-18 -9.5h-166q-30 0 -41 29l-296 909l-402 -932q-10 -24 -37 -24t-37 24z" />
    <glyph glyph-name="N" unicode="N" horiz-adv-x="1570" 
d="M1155 475v928q0 12 9.5 21.5t21.5 9.5h149q12 0 21.5 -9.5t9.5 -21.5v-1395q0 -8 -5 -13t-13 -5q-20 0 -31 14l-899 965l-2 -938q0 -12 -9.5 -21.5t-21.5 -9.5h-149q-12 0 -21.5 9.5t-9.5 21.5v1396q0 9 5 15t13 6q19 0 33 -14z" />
    <glyph glyph-name="O" unicode="O" horiz-adv-x="1662" 
d="M831 1454q114 0 211.5 -25t168.5 -68t128.5 -102.5t94 -124.5t61 -138.5t35 -141.5t10.5 -135q0 -69 -10.5 -138t-35 -142.5t-61 -139t-94 -124t-128.5 -101t-168.5 -67.5t-211.5 -25t-211.5 25t-168.5 67.5t-128 101.5t-94 124t-61.5 138.5t-34.5 142.5t-10 138
q0 67 10 135t34.5 141.5t61.5 138.5t94 124.5t128 102.5t168.5 68t211.5 25zM831 168q89 0 163 23.5t124 61.5t88.5 89t60.5 102t35.5 106t18 95t4.5 74t-4.5 74t-18 94.5t-35.5 105.5t-60.5 102t-88.5 88.5t-124 61t-163 23.5t-163 -23.5t-124 -61t-89 -88.5t-60.5 -102
t-35.5 -105.5t-18.5 -94.5t-4.5 -74t4.5 -74t18.5 -95t35.5 -106t60.5 -102t89 -89t124 -61.5t163 -23.5z" />
    <glyph glyph-name="P" unicode="P" horiz-adv-x="1359" 
d="M416 532v-501q0 -12 -9.5 -21.5t-21.5 -9.5h-149q-12 0 -21.5 9.5t-9.5 21.5v1372q0 12 9.5 21.5t21.5 9.5h503q110 0 198.5 -29.5t143 -76t91 -107.5t51 -119.5t14.5 -116.5q0 -98 -41.5 -184.5t-108 -144.5t-150.5 -91t-169 -33h-352zM758 719q62 1 111.5 21.5t78 49.5
t47 66.5t25 69t6.5 59.5q0 31 -6.5 63.5t-25.5 70t-48.5 66t-80 47.5t-115.5 19h-334v-532h342z" />
    <glyph glyph-name="Q" unicode="Q" horiz-adv-x="1652" 
d="M1227 84l313 -375q6 -6 4.5 -15t-12.5 -9h-189q-32 0 -51 22l-256 297q-96 -22 -205 -22q-114 0 -211.5 25t-168.5 67.5t-128 101.5t-94 124t-61.5 138.5t-34.5 142.5t-10 138q0 67 10 135t34.5 141.5t61.5 138.5t94 124.5t128 102.5t168.5 68t211.5 25t211.5 -25
t168.5 -68t128.5 -102.5t94 -124.5t61 -138.5t35 -141.5t10.5 -135q0 -85 -16.5 -170.5t-52 -172t-98 -163.5t-146.5 -129zM831 168q89 0 163 23.5t124 61.5t88.5 89t60.5 102t35.5 106t18 95t4.5 74t-4.5 74t-18 94.5t-35.5 105.5t-60.5 102t-88.5 88.5t-124 61t-163 23.5
t-163 -23.5t-124 -61t-89 -88.5t-60.5 -102t-35.5 -105.5t-18.5 -94.5t-4.5 -74t4.5 -74t18.5 -95t35.5 -106t60.5 -102t89 -89t124 -61.5t163 -23.5z" />
    <glyph glyph-name="R" unicode="R" horiz-adv-x="1355" 
d="M412 532v-501q0 -12 -9.5 -21.5t-21.5 -9.5h-145q-12 0 -21.5 9.5t-9.5 21.5v1372q0 12 9.5 21.5t21.5 9.5h499q110 0 198.5 -29.5t143 -76t91 -107.5t51 -119.5t14.5 -116.5q0 -153 -91.5 -267t-228.5 -161l250 -528q4 -10 -1.5 -19.5t-16.5 -9.5h-164q-33 0 -43 29
l-238 503h-288zM754 719q62 1 111.5 21.5t78 49.5t47 66.5t25 69t6.5 59.5q0 31 -6.5 63.5t-26 70t-49 66t-80 47.5t-115.5 19h-333v-532h342z" />
    <glyph glyph-name="S" unicode="S" horiz-adv-x="1273" 
d="M346 1077q0 -53 27.5 -92.5t74 -65t107 -46.5t127.5 -40.5t133.5 -42.5t127 -58t107 -81t74 -117t27.5 -161q0 -165 -145.5 -277t-362.5 -112q-146 0 -261 27t-232 85q-11 6 -15 18.5t0 22.5l53 111q6 12 18.5 16.5t24.5 -0.5q203 -94 396 -94q125 0 215 57t90 148
q0 62 -27.5 108.5t-73.5 76t-105.5 52t-125.5 41t-132.5 38.5t-126 50.5t-105.5 70.5t-73.5 103.5t-27.5 145.5q0 183 124 289t323 106q234 0 462 -102q12 -4 17 -16.5t0 -24.5l-53 -117q-4 -12 -16.5 -17.5t-24.5 -0.5q-83 32 -180.5 57t-157.5 25q-62 0 -108 -7.5
t-86 -26.5t-62.5 -56.5t-26.5 -92.5z" />
    <glyph glyph-name="T" unicode="T" horiz-adv-x="1230" 
d="M508 31v1218h-385q-12 0 -21.5 9.5t-9.5 21.5v123q0 12 9.5 21.5t21.5 9.5h985q12 0 21.5 -9.5t9.5 -21.5v-123q0 -12 -9.5 -21.5t-21.5 -9.5h-389v-1218q0 -12 -9.5 -21.5t-21.5 -9.5h-149q-12 0 -21.5 9.5t-9.5 21.5z" />
    <glyph glyph-name="U" unicode="U" horiz-adv-x="1484" 
d="M741 168q79 0 142.5 30t100.5 73.5t61.5 98t33 97.5t8.5 78v858q0 12 9.5 21.5t21.5 9.5h152q12 0 21 -9.5t9 -21.5v-858q0 -75 -18 -150t-60.5 -149.5t-104.5 -131.5t-159.5 -92.5t-216.5 -35.5t-216 35.5t-159 92.5t-104.5 132t-60 149.5t-17.5 149.5v858
q0 12 9.5 21.5t21.5 9.5h147q12 0 21.5 -9.5t9.5 -21.5v-858q0 -34 9 -77.5t33.5 -98t62 -98t101 -73.5t142.5 -30z" />
    <glyph glyph-name="V" unicode="V" horiz-adv-x="1413" 
d="M707 401l403 1004q14 29 43 29h168q11 0 16.5 -9.5t1.5 -19.5l-594 -1391q-10 -26 -38 -26t-41 26l-592 1391q-4 10 1.5 19.5t16.5 9.5h168q28 0 43 -29z" />
    <glyph glyph-name="W" unicode="W" horiz-adv-x="2263" 
d="M1130 1452q26 0 37 -25l387 -985l404 963q14 29 43 29h168q11 0 16.5 -9.5t1.5 -19.5l-600 -1399q-6 -22 -33 -22q-24 0 -30 22l-394 977l-393 -977q-6 -22 -32 -22q-24 0 -33 22l-598 1399q-4 10 1.5 19.5t16.5 9.5h168q28 0 43 -29l404 -963l387 985q11 25 36 25z" />
    <glyph glyph-name="X" unicode="X" horiz-adv-x="1265" 
d="M991 1434h183q9 0 13.5 -9t0.5 -18l-440 -688l440 -692q4 -9 -0.5 -18t-13.5 -9h-179q-30 0 -47 27l-315 510l-316 -510q-17 -27 -47 -27h-178q-10 0 -14.5 9t0.5 18l440 692l-440 688q-5 9 -0.5 18t14.5 9h182q31 0 48 -27l311 -506l311 506q17 27 47 27z" />
    <glyph glyph-name="Y" unicode="Y" horiz-adv-x="1302" 
d="M756 649v-618q0 -12 -9.5 -21.5t-21.5 -9.5h-150q-12 0 -21 9.5t-9 21.5v614l-467 762q-6 9 -1.5 18t15.5 9h174q30 0 47 -27l336 -571l338 571q17 27 47 27h176q9 0 15 -9t0 -18z" />
    <glyph glyph-name="Z" unicode="Z" horiz-adv-x="1308" 
d="M451 184h704q12 0 21.5 -9t9.5 -21v-123q0 -12 -9.5 -21.5t-21.5 -9.5h-985q-9 0 -17 8t-8 17q0 26 13 49l694 1177h-645q-12 0 -21.5 9.5t-9.5 21.5v121q0 12 9.5 21.5t21.5 9.5h936q9 0 15.5 -7t6.5 -16q0 -22 -12 -43z" />
    <glyph glyph-name="bracketleft" unicode="[" horiz-adv-x="507" 
d="M61 -379v1938q0 12 9.5 21t21.5 9h324q12 0 21 -9t9 -21v-93q0 -12 -9 -21t-21 -9h-152v-1692h152q12 0 21 -9.5t9 -21.5v-92q0 -12 -9 -21.5t-21 -9.5h-324q-12 0 -21.5 9.5t-9.5 21.5z" />
    <glyph glyph-name="backslash" unicode="\" horiz-adv-x="755" 
d="M518 29l-446 1376q-4 10 2.5 19.5t17.5 9.5h105q30 0 41 -29l446 -1376q4 -10 -2.5 -19.5t-17.5 -9.5h-105q-30 0 -41 29z" />
    <glyph glyph-name="bracketright" unicode="]" horiz-adv-x="507" 
d="M446 1561v-1938q0 -12 -9 -21.5t-21 -9.5h-324q-12 0 -21.5 9.5t-9.5 21.5v92q0 12 9.5 21.5t21.5 9.5h152v1692h-152q-12 0 -21.5 9t-9.5 21v93q0 12 9.5 21t21.5 9h324q12 0 21 -9t9 -21z" />
    <glyph glyph-name="asciicircum" unicode="^" horiz-adv-x="1286" 
d="M666 1450l397 -502q17 -24 -4 -45l-60 -53q-9 -9 -22 -8t-21 10l-313 356l-313 -356q-22 -22 -43 -2l-60 53q-21 21 -4 45l398 502q6 12 22 12q17 0 23 -12z" />
    <glyph glyph-name="underscore" unicode="_" horiz-adv-x="843" 
d="M10 -104v67q0 12 9.5 21.5t21.5 9.5h762q12 0 21.5 -9.5t9.5 -21.5v-67q0 -12 -9.5 -21.5t-21.5 -9.5h-762q-12 0 -21.5 9.5t-9.5 21.5z" />
    <glyph glyph-name="grave" unicode="`" horiz-adv-x="1044" 
d="M344 1532l266 -199q10 -7 12 -20.5t-4 -22.5l-40 -59q-6 -11 -19 -13t-24 5l-283 174q-10 6 -13 19t3 22l59 88q8 9 20 11t23 -5z" />
    <glyph glyph-name="a" unicode="a" horiz-adv-x="1097" 
d="M516 1038q81 5 145.5 -5.5t107.5 -30.5t74.5 -55t48.5 -69.5t27 -83.5t12.5 -89t2.5 -93v-581q0 -12 -9.5 -21.5t-21.5 -9.5h-61q-13 0 -24.5 8.5t-14.5 20.5l-25 77q-60 -60 -140.5 -92t-154.5 -32q-88 0 -156 23.5t-105.5 57.5t-61 79t-30.5 80.5t-7 68.5
q0 73 21.5 129t56 91t86.5 58.5t103 33.5t115.5 12t114.5 -1t109 -10v23q0 78 -11.5 126t-38.5 73t-61 33.5t-90 8.5q-40 0 -112.5 -15t-136.5 -38q-12 -5 -24.5 -0.5t-16.5 16.5l-35 84q-6 12 -1.5 24.5t15.5 18.5q148 71 299 80zM729 289v157q-416 50 -416 -139
q0 -78 50.5 -121t125.5 -43q80 0 144 45.5t96 100.5z" />
    <glyph glyph-name="b" unicode="b" 
d="M621 1040q113 0 203.5 -34.5t146 -89t93 -126t52 -140.5t14.5 -138q0 -58 -11 -115.5t-33.5 -118.5t-62.5 -112.5t-93 -93t-130 -65t-169 -23.5q-183 0 -309 120l-25 -75q-11 -29 -41 -29h-61q-12 0 -21.5 9.5t-9.5 21.5v1372q0 12 9.5 21.5t21.5 9.5h143q12 0 21.5 -9.5
t9.5 -21.5v-418q107 55 252 55zM621 154q55 0 101 15.5t77 39.5t55 57.5t37.5 66.5t22 69t11.5 62t3 48q0 37 -7.5 78.5t-29.5 93t-56 91.5t-94 67.5t-137 27.5q-62 0 -127 -19t-108 -52v-508q82 -137 252 -137z" />
    <glyph glyph-name="c" unicode="c" horiz-adv-x="1142" 
d="M997 852l-92 -84q-9 -9 -22.5 -8.5t-22.5 8.5q-103 90 -229 90q-127 0 -215 -90.5t-88 -247.5q0 -67 19.5 -130t56 -114.5t95 -82.5t130.5 -31q131 0 237 96q9 9 22.5 9t20.5 -9l76 -86q9 -9 8.5 -22.5t-10.5 -22.5q-150 -147 -354 -147q-117 0 -208 34.5t-146 88
t-90.5 127t-48.5 144t-13 146.5q0 69 15 138t52 141.5t93 127t146.5 89.5t203.5 35q217 0 366 -156q9 -9 8 -22t-10 -21z" />
    <glyph glyph-name="d" unicode="d" 
d="M915 1434h144q12 0 21.5 -9.5t9.5 -21.5v-1372q0 -12 -9.5 -21.5t-21.5 -9.5h-62q-30 0 -41 29l-24 75q-126 -120 -309 -120q-110 0 -198 34t-143 88.5t-92 125.5t-52 140.5t-15 139.5q0 69 15 138t52 140.5t93 126t146.5 89t203.5 34.5q145 0 252 -55v418q0 12 9 21.5
t21 9.5zM885 291v508q-43 33 -108.5 52t-127.5 19q-77 0 -137 -27.5t-94 -67.5t-56 -91.5t-29 -93t-7 -78.5q0 -22 3 -48t11.5 -62t22 -69t37.5 -66.5t55 -57.5t77 -39.5t101 -15.5q170 0 252 137z" />
    <glyph glyph-name="e" unicode="e" horiz-adv-x="1110" 
d="M926 260l67 -82q9 -9 8 -22t-10 -21q-85 -75 -178 -111t-211 -36q-113 0 -203.5 34.5t-146.5 89t-93 126.5t-52 141.5t-15 140.5q0 57 11 114.5t33.5 118t63.5 113t95 94t133 65.5t174 24q223 0 331.5 -150.5t74.5 -396.5q-1 -13 -11 -22t-24 -9h-676q5 -39 15 -76
t33 -80.5t54.5 -75.5t84.5 -53.5t118 -21.5q159 0 281 98q9 8 21.5 7.5t21.5 -9.5zM602 879q-57 0 -104 -16t-78 -41t-55.5 -60.5t-37.5 -68.5t-22 -70h516q6 42 -1.5 84t-31 80.5t-71.5 63.5t-115 28z" />
    <glyph glyph-name="f" unicode="f" horiz-adv-x="741" 
d="M752 1362l-33 -98q-5 -12 -16 -17.5t-23 -1.5q-92 29 -162 29q-72 0 -120 -39.5t-48 -128.5v-82h180q12 0 21.5 -9.5t9.5 -21.5v-106q0 -12 -9.5 -21.5t-21.5 -9.5h-180v-823q0 -12 -9.5 -21.5t-21.5 -9.5h-143q-12 0 -21.5 9.5t-9.5 21.5v823h-94q-12 0 -21.5 9.5
t-9.5 21.5v106q0 12 9.5 21.5t21.5 9.5h94v90q0 110 49.5 187.5t127.5 112t178 34.5q123 0 233 -45q12 -5 17.5 -17t1.5 -24z" />
    <glyph glyph-name="g" unicode="g" horiz-adv-x="1144" 
d="M635 135q96 -1 167 -18t112.5 -42.5t66 -63t32 -74.5t5.5 -82q-1 -29 -13 -63t-43 -75.5t-77 -74.5t-124 -55.5t-175 -22.5q-104 0 -186.5 20t-133 51.5t-84 73.5t-46.5 82t-13 80q4 156 141 213q-53 20 -82.5 59t-31.5 86q-3 74 29 126t91 67q-80 108 -80 244
q0 49 11 98t39 100t70 89t109.5 62.5t151.5 24.5q122 0 209 -51l127 117q9 8 22.5 7.5t22.5 -9.5l68 -68q9 -7 9.5 -20.5t-7.5 -22.5l-121 -127q53 -100 53 -200q0 -50 -11.5 -100t-40 -101t-70.5 -89t-109.5 -62.5t-151.5 -24.5q-89 0 -153 24q-48 6 -73.5 -18.5
t-25.5 -63.5q0 -47 45 -70.5t113 -23.5q23 0 80 -1t78 -1zM571 870q-44 0 -77.5 -16.5t-52 -40t-30 -54t-15 -52.5t-3.5 -41q0 -25 7 -54.5t24 -66t55 -60.5t92 -24q44 0 77.5 16.5t52 40.5t30.5 54t15.5 52.5t3.5 41.5q0 25 -7 54.5t-24 65.5t-55.5 60t-92.5 24zM831 -137
q3 33 -14 53t-77 33.5t-169 13.5q-83 0 -136 -6.5t-80.5 -20.5t-37.5 -30.5t-10 -42.5q0 -11 5.5 -24t23 -31t45 -32.5t77 -25.5t113.5 -12q70 0 122.5 12.5t77.5 28.5t40 36.5t17.5 31t2.5 16.5z" />
    <glyph glyph-name="h" unicode="h" horiz-adv-x="1185" 
d="M338 0h-143q-12 0 -21.5 9.5t-9.5 21.5v1372q0 12 9.5 21.5t21.5 9.5h143q12 0 21.5 -9.5t9.5 -21.5v-451q44 38 118.5 63t143.5 25q79 0 143.5 -16t109 -43t77.5 -67.5t52 -83t30.5 -96.5t15.5 -101.5t4 -104.5v-497q0 -12 -9.5 -21.5t-21.5 -9.5h-141q-12 0 -21.5 9.5
t-9.5 21.5v497q-1 10 -1 36.5t-1 48t-6 53.5t-13.5 57t-26 52t-42 46t-63 32.5t-86.5 16.5q-88 6 -156 -33.5t-96 -95.5v-710q0 -12 -9.5 -21.5t-21.5 -9.5z" />
    <glyph glyph-name="i" unicode="i" horiz-adv-x="571" 
d="M164 1335q0 52 34.5 87.5t86.5 35.5q51 0 87 -36t36 -87q0 -52 -35.5 -86.5t-87.5 -34.5q-53 0 -87 34t-34 87zM387 993v-964q0 -12 -9.5 -21.5t-21.5 -9.5h-143q-12 0 -21.5 9.5t-9.5 21.5v964q0 12 9.5 21.5t21.5 9.5h143q12 0 21.5 -9.5t9.5 -21.5z" />
    <glyph glyph-name="j" unicode="j" horiz-adv-x="538" 
d="M131 1335q0 52 34.5 87.5t86.5 35.5q51 0 87 -36t36 -87q0 -52 -35.5 -86.5t-87.5 -34.5t-86.5 34t-34.5 87zM-152 -184q77 -41 146 -41q72 0 114 53t42 166v999q0 12 9 21.5t21 9.5h144q12 0 21 -9.5t9 -21.5v-999q0 -100 -18 -165q-56 -196 -247 -230q-38 -7 -81 -7
q-140 0 -252 80q-10 7 -12 21t6 26l55 84q6 11 19 15t24 -2z" />
    <glyph glyph-name="k" unicode="k" horiz-adv-x="1130" 
d="M369 457v-426q0 -12 -9.5 -21.5t-21.5 -9.5h-143q-12 0 -21.5 9.5t-9.5 21.5v1372q0 12 9.5 21.5t21.5 9.5h143q12 0 21.5 -9.5t9.5 -21.5v-807l395 405q23 23 53 23h205q5 0 8 -6q3 -3 -2 -8l-485 -478l520 -512q7 -6 4 -14q-3 -6 -10 -6h-209q-30 0 -53 23z" />
    <glyph glyph-name="l" unicode="l" horiz-adv-x="573" 
d="M389 1403v-1372q0 -12 -9.5 -21.5t-21.5 -9.5h-143q-12 0 -21.5 9.5t-9.5 21.5v1372q0 12 9.5 21.5t21.5 9.5h143q12 0 21.5 -9.5t9.5 -21.5z" />
    <glyph glyph-name="m" unicode="m" horiz-adv-x="1798" 
d="M369 733v-702q0 -12 -9.5 -21.5t-21.5 -9.5h-143q-12 0 -21.5 9.5t-9.5 21.5v962q0 12 9.5 21.5t21.5 9.5h61q30 0 41 -29l25 -75q126 120 309 120q232 0 323 -135l15 15q126 120 309 120q62 0 114 -10t90 -26.5t68 -43.5t50 -54t34.5 -66t22 -72t12 -79t5.5 -79.5
t1 -81.5v-497q0 -12 -9 -21.5t-21 -9.5h-142q-12 0 -21 9.5t-9 21.5v497q1 19 -1 51t-2 68.5t-12.5 74.5t-32 69.5t-60 53t-97.5 25.5q-164 10 -252 -137q12 -79 12 -205v-497q0 -12 -9.5 -21.5t-21.5 -9.5h-141q-12 0 -21.5 9.5t-9.5 21.5v497q-2 17 0 42.5t-0.5 56.5
t-6.5 63t-18 63t-35 56t-58 41.5t-86 19.5q-164 10 -252 -137z" />
    <glyph glyph-name="n" unicode="n" horiz-adv-x="1185" 
d="M369 733v-702q0 -12 -9.5 -21.5t-21.5 -9.5h-143q-12 0 -21.5 9.5t-9.5 21.5v962q0 12 9.5 21.5t21.5 9.5h61q30 0 41 -29l25 -75q126 120 309 120q79 0 143.5 -16t109 -43t77.5 -67.5t52 -83t30.5 -96.5t15.5 -101.5t4 -104.5v-497q0 -12 -9.5 -21.5t-21.5 -9.5h-145
q-12 0 -21.5 9.5t-9.5 21.5v497q-1 8 -1.5 43t-3 59.5t-9.5 63t-23 66t-40 54t-64.5 40.5t-93.5 14q-85 0 -152 -40t-100 -95z" />
    <glyph glyph-name="o" unicode="o" horiz-adv-x="1265" 
d="M633 1040q113 0 203.5 -34.5t146.5 -89t93 -126t52 -140.5t15 -138q0 -71 -15 -140.5t-52 -140.5t-93 -125t-146.5 -88t-203.5 -34t-203.5 34t-146.5 88t-93 125t-52 140.5t-15 140.5q0 69 15 138t52 140.5t93 126t146.5 89t203.5 34.5zM633 154q55 0 101 15.5t77 39.5
t55 57.5t37.5 66.5t22 69t11.5 62t3 48t-3 48t-11.5 62t-22 69t-37.5 66.5t-55 57.5t-77 39.5t-101 15.5t-101 -15.5t-77 -39.5t-55 -57.5t-37.5 -66.5t-22 -69t-11.5 -62t-3 -48t3 -48t11.5 -62t22 -69t37.5 -66.5t55 -57.5t77 -39.5t101 -15.5z" />
    <glyph glyph-name="p" unicode="p" 
d="M590 -16q-124 6 -221 55v-418q0 -12 -9.5 -21.5t-21.5 -9.5h-143q-12 0 -21.5 9.5t-9.5 21.5v1372q0 12 9.5 21.5t21.5 9.5h61q30 0 41 -29l25 -75q126 120 309 120q92 0 169 -23.5t130 -65t93 -93t62.5 -112.5t33.5 -118.5t11 -115.5q0 -67 -14 -134t-49 -137.5
t-87.5 -124.5t-137.5 -90.5t-191 -41.5h-61zM621 870q-170 0 -252 -137v-508q43 -33 108 -52t127 -19q77 0 137 27.5t94 67.5t56 91.5t29.5 93t7.5 78.5q0 22 -3 48t-11.5 62t-22 69t-37.5 66.5t-55 57.5t-77 39.5t-101 15.5z" />
    <glyph glyph-name="q" unicode="q" 
d="M602 -16q-106 5 -191 41.5t-137.5 90.5t-87.5 124.5t-49 137.5t-14 134q0 70 15 139.5t52 140.5t92 125.5t143 88.5t198 34q183 0 309 -120l24 75q11 29 41 29h62q12 0 21.5 -9.5t9.5 -21.5v-1372q0 -12 -9.5 -21.5t-21.5 -9.5h-144q-12 0 -21 9.5t-9 21.5v418
q-97 -49 -221 -55h-62zM633 870q-55 0 -101 -15.5t-77 -39.5t-55 -57.5t-37.5 -66.5t-22 -69t-11.5 -62t-3 -48q0 -37 7 -78.5t29 -93t56 -91.5t94 -67.5t137 -27.5q62 0 127.5 19t108.5 52v508q-82 137 -252 137z" />
    <glyph glyph-name="r" unicode="r" horiz-adv-x="749" 
d="M723 999l-21 -116q-3 -12 -13.5 -19.5t-22.5 -5.5q-16 2 -50 2q-88 0 -156.5 -38t-90.5 -99v-692q0 -12 -9.5 -21.5t-21.5 -9.5h-143q-12 0 -21.5 9.5t-9.5 21.5v962q0 12 9.5 21.5t21.5 9.5h61q30 0 41 -29l25 -75q126 120 309 120q23 0 67 -6q12 -2 20 -12.5t5 -22.5z
" />
    <glyph glyph-name="s" unicode="s" horiz-adv-x="1007" 
d="M334 756q0 -38 30.5 -65.5t79 -45.5t107 -36t117.5 -43t107.5 -59.5t79 -93.5t30.5 -137q0 -130 -105.5 -211t-267.5 -81q-107 0 -191.5 21t-170.5 67q-11 6 -15 18.5t0 24.5l47 94q4 12 16.5 16t22.5 -2q145 -69 279 -69q73 0 123.5 33t50.5 87q0 46 -29.5 78t-77 51.5
t-104.5 36.5t-114.5 39.5t-104.5 53.5t-76 85.5t-29 129.5q1 136 92.5 214t239.5 78q175 0 340 -77q12 -6 16.5 -18.5t-0.5 -24.5l-47 -99q-4 -12 -16.5 -16.5t-24.5 0.5q-142 57 -231 57q-169 0 -174 -106z" />
    <glyph glyph-name="t" unicode="t" horiz-adv-x="641" 
d="M147 854h-96q-12 0 -21.5 9.5t-9.5 21.5v108q0 12 9.5 21.5t21.5 9.5h96l17 172q2 12 12 21.5t23 9.5h123q12 0 21 -9.5t9 -21.5v-172h180q12 0 21.5 -9.5t9.5 -21.5v-108q0 -12 -9.5 -21.5t-21.5 -9.5h-180v-573q0 -62 21 -95t84 -28q33 3 102 18q12 2 23 -5t14 -19
l18 -91q3 -14 -4 -24.5t-20 -13.5q-110 -31 -225 -31q-56 0 -98.5 20.5t-64.5 49t-35.5 66.5t-16.5 65t-3 53v608z" />
    <glyph glyph-name="u" unicode="u" horiz-adv-x="1185" 
d="M817 291v702q0 12 9.5 21.5t21.5 9.5h143q12 0 21.5 -9.5t9.5 -21.5v-962q0 -12 -9.5 -21.5t-21.5 -9.5h-61q-30 0 -41 29l-25 75q-126 -120 -309 -120q-79 0 -143.5 16t-109 43t-77.5 67.5t-52 83t-30.5 96.5t-15.5 101.5t-4 104.5v497q0 12 9.5 21.5t21.5 9.5h145
q12 0 21.5 -9.5t9.5 -21.5v-497q1 -8 1.5 -43t3 -59.5t9.5 -63t23 -66t40 -54t64.5 -40.5t93.5 -14q85 0 152 40t100 95z" />
    <glyph glyph-name="v" unicode="v" horiz-adv-x="1046" 
d="M973 995l-420 -991q-9 -22 -35 -22t-35 22l-409 991q-4 10 1.5 19.5t16.5 9.5h158q30 0 41 -29l231 -594l232 594q14 29 43 29h157q11 0 17 -9.5t2 -19.5z" />
    <glyph glyph-name="w" unicode="w" horiz-adv-x="1576" 
d="M788 1036q29 0 43 -28l232 -564l231 551q14 29 43 29h158q11 0 16.5 -9.5t1.5 -19.5l-415 -989q-9 -18 -29 -18q-21 0 -27 18l-254 598l-253 -598q-9 -18 -29 -18q-21 0 -27 18l-416 989q-4 10 2 19.5t17 9.5h158q28 0 43 -29l231 -551l231 564q14 28 43 28z" />
    <glyph glyph-name="x" unicode="x" horiz-adv-x="1009" 
d="M735 1024h183q9 0 13.5 -9t0.5 -18l-311 -485l311 -485q4 -9 -0.5 -18t-13.5 -9h-183q-30 0 -47 27l-184 301l-182 -301q-17 -27 -48 -27h-182q-10 0 -14.5 9t0.5 18l311 485l-311 485q-5 9 -0.5 18t14.5 9h182q31 0 48 -27l182 -303l184 303q17 27 47 27z" />
    <glyph glyph-name="y" unicode="y" horiz-adv-x="1177" 
d="M297 995l293 -710l284 710q14 29 44 29h167q11 0 17 -9.5t2 -19.5l-582 -1374q-13 -29 -43 -29h-155q-11 0 -17 9.5t-2 19.5l176 420l-407 954q-4 10 1.5 19.5t16.5 9.5h162q28 0 43 -29z" />
    <glyph glyph-name="z" unicode="z" horiz-adv-x="1015" 
d="M154 866v127q0 12 9 21.5t21 9.5h693q10 0 18 -8t8 -19q0 -27 -14 -47l-459 -762h436q12 0 21.5 -9t9.5 -21v-127q0 -12 -9.5 -21.5t-21.5 -9.5h-714q-12 0 -21.5 9.5t-9.5 21.5v2q0 28 16 57l441 746h-394q-12 0 -21 9t-9 21z" />
    <glyph glyph-name="braceleft" unicode="{" horiz-adv-x="618" 
d="M510 1589h16q12 0 21.5 -9t9.5 -21v-93q0 -12 -9.5 -21t-21.5 -9h-8q-10 0 -21 -2t-30.5 -14.5t-34 -34t-26 -65.5t-11.5 -103v-437q0 -67 -37.5 -114t-91.5 -68v-10q52 -16 90.5 -69t38.5 -122v-432q0 -59 11.5 -103t26 -65.5t34 -34t30.5 -14.5t21 -2h8q12 0 21.5 -9.5
t9.5 -21.5v-92q0 -12 -9.5 -21.5t-21.5 -9.5h-16q-7 0 -22 1.5t-46.5 9.5t-62.5 21.5t-65.5 40.5t-60.5 63t-43 93t-17 126v432q0 61 -30 96.5t-71 44.5q-13 3 -22 12.5t-9 20.5v72q0 24 31 32q41 9 71 45t30 97v436q0 69 17 126t43 93t60.5 63t65.5 40t62.5 21t46 9.5
t22.5 1.5z" />
    <glyph glyph-name="bar" unicode="|" horiz-adv-x="387" 
d="M233 -410h-79q-12 0 -21.5 9.5t-9.5 21.5v1931q0 12 9.5 21.5t21.5 9.5h79q12 0 21.5 -9.5t9.5 -21.5v-1931q0 -12 -9.5 -21.5t-21.5 -9.5z" />
    <glyph glyph-name="braceright" unicode="}" horiz-adv-x="618" 
d="M109 1589q8 0 22.5 -1.5t46 -9.5t62.5 -21t65.5 -40t60.5 -63t43 -93t17 -126v-436q0 -61 30 -97t70 -45q31 -8 31 -32v-72q0 -11 -9 -20.5t-22 -12.5q-40 -9 -70 -44.5t-30 -96.5v-432q0 -69 -17 -126t-43 -93t-60.5 -63t-65.5 -40.5t-62.5 -21.5t-46.5 -9.5t-22 -1.5
h-17q-12 0 -21.5 9.5t-9.5 21.5v92q0 12 9.5 21.5t21.5 9.5h8q10 0 21 2t30.5 14.5t34 34t26 65.5t11.5 103v432q0 69 38.5 122t90.5 69v10q-54 21 -91.5 68t-37.5 114v437q0 59 -11.5 103t-26 65.5t-34 34t-30.5 14.5t-21 2h-8q-12 0 -21.5 9t-9.5 21v93q0 12 9.5 21
t21.5 9h17z" />
    <glyph glyph-name="asciitilde" unicode="~" horiz-adv-x="1257" 
d="M225 473l-78 53q-11 8 -13 21t5 24q124 193 320 193q46 0 95.5 -20t85 -43.5t82.5 -43.5t89 -20q90 0 184 108q8 10 20 11.5t21 -6.5l76 -62q9 -9 11.5 -22.5t-3.5 -24.5q-123 -197 -311 -197q-50 0 -103 20.5t-90 45t-83 45t-84 20.5q-98 0 -181 -94q-17 -23 -43 -8z
" />
    <glyph glyph-name="exclamdown" unicode="&#xa1;" horiz-adv-x="653" 
d="M428 184v-546q0 -12 -9.5 -21.5t-21.5 -9.5h-143q-12 0 -21.5 9.5t-9.5 21.5v546l35 400q0 12 10 21t23 9h67q12 0 22.5 -9t10.5 -21zM205 926q0 52 34.5 87.5t86.5 35.5q51 0 87 -36t36 -87q0 -52 -35.5 -86.5t-87.5 -34.5t-86.5 34.5t-34.5 86.5z" />
    <glyph glyph-name="cent" unicode="&#xa2;" horiz-adv-x="1142" 
d="M668 -217h-80q-12 0 -21.5 9.5t-9.5 21.5v170q-100 10 -177.5 48t-125 91.5t-78 123.5t-42 136t-11.5 137q0 64 12.5 128.5t44.5 132.5t79.5 122t124.5 93.5t173 50.5v143q0 12 9.5 21.5t21.5 9.5h80q12 0 21 -9.5t9 -21.5v-143q168 -16 301 -152q8 -9 7.5 -22.5
t-9.5 -20.5l-92 -84q-9 -9 -22.5 -8.5t-22.5 8.5q-80 75 -162 90v-688q99 22 168 88q9 9 22.5 9t20.5 -9l76 -86q9 -9 8 -22.5t-10 -22.5q-124 -124 -285 -143v-170q0 -12 -9 -21.5t-21 -9.5zM328 520q0 -79 25 -150.5t78 -126.5t126 -73v686q-100 -28 -164.5 -116.5
t-64.5 -219.5z" />
    <glyph glyph-name="sterling" unicode="&#xa3;" horiz-adv-x="1226" 
d="M195 8l-78 53q-11 8 -13 21t5 24q65 98 143 144v420h-94q-12 0 -21.5 9t-9.5 21v107q0 12 9.5 21.5t21.5 9.5h94v276q0 164 100 249t254 85q120 0 230 -45q12 -4 17.5 -16.5t0.5 -24.5l-35 -96q-5 -12 -16 -17.5t-23 -1.5q-106 29 -166 29q-149 0 -157 -150v-288h305
q12 0 21.5 -9.5t9.5 -21.5v-107q0 -12 -9.5 -21t-21.5 -9h-305v-373q41 -5 86 -26t78 -42.5t76.5 -39t82.5 -17.5q90 0 185 109q8 9 20 11t21 -7l75 -62q9 -9 12 -22.5t-3 -24.5q-122 -196 -312 -196q-50 0 -103 20.5t-90 45t-83 45t-84 20.5q-97 0 -180 -95q-17 -23 -43 -8
z" />
    <glyph glyph-name="currency" unicode="&#xa4;" horiz-adv-x="1333" 
d="M1073 553q0 -131 -57 -234l172 -172q9 -9 9 -22.5t-9 -22.5l-55 -55q-9 -9 -23 -9t-23 9l-163 164q-100 -80 -258 -80q-155 0 -256 78l-164 -164q-9 -8 -22.5 -7.5t-22.5 9.5l-56 55q-9 9 -9 22.5t9 22.5l172 170q-59 104 -59 236q0 144 70 254l-183 182q-9 9 -9 22.5
t9 22.5l56 56q9 9 22.5 9t22.5 -9l180 -181q95 66 240 66q143 0 241 -68l180 183q9 9 23 9t23 -9l55 -56q9 -9 9 -22.5t-9 -22.5l-184 -184q69 -108 69 -252zM666 324q41 0 74 12.5t53.5 34.5t35 46t21 51.5t9.5 47.5t3 37t-3 37t-9.5 47.5t-21 51.5t-35 46t-53.5 34.5
t-74 12.5q-49 0 -86.5 -18.5t-57.5 -45t-33 -60.5t-16.5 -59t-3.5 -46t3.5 -46t16.5 -59t33 -60.5t57.5 -45t86.5 -18.5z" />
    <glyph glyph-name="yen" unicode="&#xa5;" horiz-adv-x="1288" 
d="M963 145h-213v-114q0 -12 -9.5 -21.5t-21.5 -9.5h-150q-12 0 -21 9.5t-9 21.5v114h-215q-12 0 -21.5 9.5t-9.5 21.5v92q0 12 9.5 21.5t21.5 9.5h215v195h-215q-12 0 -21.5 9t-9.5 21v92q0 12 9.5 21.5t21.5 9.5h213l-469 758q-7 7 -7 18t11 11h188q30 0 47 -27l336 -555
l338 555q17 27 47 27h189q10 0 10 -11q0 -12 -6 -18l-471 -756v-2h213q12 0 21 -9.5t9 -21.5v-92q0 -12 -9 -21t-21 -9h-213v-195h213q12 0 21 -9.5t9 -21.5v-92q0 -12 -9 -21.5t-21 -9.5z" />
    <glyph glyph-name="brokenbar" unicode="&#xa6;" horiz-adv-x="387" 
d="M264 342v-719q0 -12 -9.5 -21.5t-21.5 -9.5h-79q-12 0 -21.5 9.5t-9.5 21.5v719q0 12 9.5 21.5t21.5 9.5h79q12 0 21.5 -9.5t9.5 -21.5zM264 1554v-718q0 -12 -9.5 -21.5t-21.5 -9.5h-79q-12 0 -21.5 9.5t-9.5 21.5v718q0 12 9.5 21.5t21.5 9.5h79q12 0 21.5 -9.5
t9.5 -21.5z" />
    <glyph glyph-name="section" unicode="&#xa7;" horiz-adv-x="1179" 
d="M182 -217l74 92q7 10 20 12t23 -6q146 -104 270 -110q72 -3 132 37t69 110q7 78 -54 136.5t-204 127.5q-149 66 -237 167.5t-82 238.5q3 84 48 148.5t95 99.5q-132 137 -127 280q3 61 29 119t74.5 109t130 80.5t184.5 25.5q157 -7 321 -119q10 -7 12 -20.5t-6 -22.5
l-67 -100q-6 -11 -19 -13t-24 5q-133 75 -228 80q-97 3 -146.5 -40.5t-53.5 -101.5q0 -62 55 -119.5t156 -105.5q69 -32 121 -61t106 -68.5t87.5 -81t54 -95.5t18.5 -114q-4 -139 -156 -260q139 -151 135 -299q-6 -157 -130 -251.5t-296 -82.5q-208 15 -381 158q-9 8 -10 21
t6 24zM391 592q-1 -20 4.5 -40t13.5 -36.5t25.5 -35.5t30.5 -31.5t38.5 -30t39 -26.5t43.5 -25t40 -21l40 -20l34 -17q91 71 95 162q1 30 -16.5 60t-42.5 52t-64 46t-69 38.5t-71 34t-57 27.5q-19 -16 -27 -23.5t-25 -27.5t-24.5 -41t-7.5 -45z" />
    <glyph glyph-name="dieresis" unicode="&#xa8;" horiz-adv-x="1185" 
d="M223 1333q0 52 34.5 87.5t86.5 35.5q51 0 87 -36t36 -87q0 -52 -35.5 -86.5t-87.5 -34.5t-86.5 34t-34.5 87zM713 1333q0 52 34.5 87.5t86.5 35.5q51 0 86.5 -36t35.5 -87q0 -52 -35.5 -86.5t-86.5 -34.5q-52 0 -86.5 34t-34.5 87z" />
    <glyph glyph-name="copyright" unicode="&#xa9;" horiz-adv-x="1200" 
d="M600 1444q215 0 366.5 -151.5t151.5 -366.5t-151.5 -366.5t-366.5 -151.5q-98 0 -192 40t-166 108t-116 166t-44 208q0 131 67.5 249t188 191.5t262.5 73.5zM600 512q172 0 293 121t121 293t-121 293.5t-293 121.5t-293 -121.5t-121 -293.5t121 -293t293 -121zM451 924
q0 74 43 118.5t104 44.5q60 0 117 -40q10 -8 24 -7.5t23 9.5l41 34q9 9 10 21.5t-8 21.5q-84 84 -207 84q-76 0 -135 -29t-91 -74t-47.5 -92t-15.5 -91t15.5 -91t47.5 -92.5t91 -74.5t135 -29q123 0 207 84q9 9 8 21.5t-10 21.5l-41 35q-9 9 -23 9.5t-24 -7.5
q-58 -41 -117 -41q-61 0 -104 45t-43 119z" />
    <glyph glyph-name="ordfeminine" unicode="&#xaa;" horiz-adv-x="813" 
d="M377 1454q61 3 109.5 -5t81 -22.5t55.5 -40.5t36 -52t20 -63t9 -66.5t2 -69.5v-428q0 -12 -9.5 -21.5t-21.5 -9.5h-30q-13 0 -24.5 8.5t-14.5 20.5l-17 51q-44 -45 -104.5 -69.5t-116.5 -24.5q-66 0 -117 17.5t-79 43t-45.5 59t-23 60t-5.5 51.5q0 65 23 113t63 75
t87 39.5t103 12.5q79 0 179 -31v41q0 61 -9.5 98t-31.5 54t-45 21.5t-64 4.5q-70 0 -178 -41q-13 -3 -25 1.5t-16 16.5l-23 56q-5 12 -0.5 24.5t15.5 18.5q105 51 217 57zM537 891v92q-89 29 -166 29q-59 0 -102.5 -29t-43.5 -78q0 -55 38.5 -89t94.5 -34q59 0 108 34.5
t71 74.5z" />
    <glyph glyph-name="guillemotleft" unicode="&#xab;" horiz-adv-x="968" 
d="M256 514l242 -287q20 -21 -2 -43l-54 -47q-9 -9 -22 -8t-21 10l-325 342q-13 16 -13 33q0 18 13 31l325 344q8 9 21 10t22 -8l54 -47q22 -22 2 -43zM645 514l242 -287q9 -9 8 -21.5t-10 -21.5l-54 -47q-9 -9 -22 -8t-21 10l-325 342q-12 15 -12 33q0 19 12 31l325 344
q8 9 21 10t22 -8l54 -47q9 -9 10 -21.5t-8 -21.5z" />
    <glyph glyph-name="logicalnot" unicode="&#xac;" horiz-adv-x="1284" 
d="M1120 829v-571q0 -12 -9 -21.5t-21 -9.5h-279q-12 0 -21.5 9.5t-9.5 21.5v270h-585q-12 0 -21.5 9.5t-9.5 21.5v270q0 12 9.5 21.5t21.5 9.5h895q12 0 21 -9.5t9 -21.5z" />
    <glyph glyph-name="uni00AD" unicode="&#xad;" horiz-adv-x="823" 
d="M154 479h516q12 0 21 -9t9 -21v-93q0 -12 -9 -21t-21 -9h-516q-12 0 -21.5 9t-9.5 21v93q0 12 9.5 21t21.5 9z" />
    <glyph glyph-name="registered" unicode="&#xae;" horiz-adv-x="1200" 
d="M600 1446q215 0 366.5 -151.5t151.5 -366.5t-151.5 -366.5t-366.5 -151.5q-98 0 -192 40t-166 108t-116 166t-44 208q0 131 67.5 249t188 191.5t262.5 73.5zM600 514q172 0 293 121t121 293t-121 293.5t-293 121.5t-293 -121.5t-121 -293.5t121 -293t293 -121zM514 842
v-158q0 -12 -9.5 -21.5t-21.5 -9.5h-45q-12 0 -21 9.5t-9 21.5v506q0 12 9 21.5t21 9.5h189q57 0 99.5 -18t64.5 -47.5t32.5 -60.5t10.5 -63q0 -58 -33 -104.5t-84 -69.5l90 -178q5 -9 -0.5 -18t-15.5 -9h-54q-31 0 -45 27l-82 162h-96zM635 942q49 1 68.5 30t19.5 60
q0 20 -6 38t-28 35t-58 17h-117v-180h121z" />
    <glyph glyph-name="macron" unicode="&#xaf;" horiz-adv-x="1056" 
d="M262 1364h555q12 0 21.5 -9.5t9.5 -21.5v-82q0 -12 -9.5 -21t-21.5 -9h-555q-12 0 -21.5 9t-9.5 21v82q0 12 9.5 21.5t21.5 9.5z" />
    <glyph glyph-name="degree" unicode="&#xb0;" horiz-adv-x="675" 
d="M338 901q-116 0 -196.5 80.5t-80.5 196.5q0 115 80.5 195.5t196.5 80.5q114 0 195 -80.5t81 -195.5t-81 -196t-195 -81zM338 1040q51 0 91 42t40 96q0 51 -40 91t-91 40q-54 0 -95.5 -40t-41.5 -91q0 -54 41.5 -96t95.5 -42z" />
    <glyph glyph-name="plusminus" unicode="&#xb1;" horiz-adv-x="1132" 
d="M195 236h743q12 0 21.5 -9.5t9.5 -21.5v-92q0 -12 -9.5 -21.5t-21.5 -9.5h-743q-12 0 -21.5 9.5t-9.5 21.5v92q0 12 9.5 21.5t21.5 9.5zM643 1063v-295h295q12 0 21.5 -9.5t9.5 -21.5v-92q0 -12 -9.5 -21.5t-21.5 -9.5h-295v-211q0 -12 -9.5 -21t-21.5 -9h-92
q-12 0 -21.5 9t-9.5 21v211h-294q-12 0 -21.5 9.5t-9.5 21.5v92q0 12 9.5 21.5t21.5 9.5h294v295q0 12 9.5 21.5t21.5 9.5h92q12 0 21.5 -9.5t9.5 -21.5z" />
    <glyph glyph-name="twosuperior" unicode="&#xb2;" horiz-adv-x="577" 
d="M121 1464l-33 33q-8 9 -8.5 22.5t8.5 22.5q97 90 203 90q95 0 150 -56t55 -138q0 -87 -80 -183l-150 -176h183q12 0 21 -9t9 -21v-54q0 -12 -9 -21t-21 -9h-363q-9 0 -17 7.5t-8 16.5q0 23 17 47l246 293q53 65 53 117q0 32 -19.5 55t-64.5 23q-55 0 -127 -62
q-9 -9 -22.5 -8t-22.5 10z" />
    <glyph glyph-name="threesuperior" unicode="&#xb3;" horiz-adv-x="528" 
d="M467 1438q0 -92 -66 -150q34 -28 50 -69.5t16 -77.5q0 -31 -10 -62.5t-33 -63t-69 -51.5t-109 -20q-101 0 -183 70q-9 8 -10 21t8 22l25 26q7 9 20.5 9.5t22.5 -7.5q60 -43 117 -43q46 0 78 25.5t32 73.5t-32 74t-78 26h-58q-12 0 -21 9.5t-9 21.5v35q0 12 9 21t21 9h58
q46 0 78 26.5t32 74.5q0 47 -32 72.5t-78 25.5q-56 0 -115 -45q-10 -6 -24 -5.5t-21 9.5l-25 27q-8 9 -7.5 21.5t9.5 21.5q86 69 183 69q63 0 109 -20t69 -51.5t33 -62.5t10 -62z" />
    <glyph glyph-name="acute" unicode="&#xb4;" horiz-adv-x="1044" 
d="M434 1333l266 199q9 7 22 5t19 -11l60 -88q8 -9 5 -22t-13 -19l-283 -174q-11 -7 -24 -5t-19 13l-41 59q-6 9 -4 22.5t12 20.5z" />
    <glyph glyph-name="mu" unicode="&#xb5;" horiz-adv-x="1226" 
d="M369 55v-432q0 -12 -9.5 -21.5t-21.5 -9.5h-143q-12 0 -21.5 9.5t-9.5 21.5v1370q0 12 9.5 21.5t21.5 9.5h143q12 0 21.5 -9.5t9.5 -21.5v-497q1 -6 1.5 -46.5t3 -70.5t16 -73.5t37 -72.5t69.5 -51.5t110 -23.5q85 -1 152 38.5t100 94.5v702q0 12 9.5 21.5t21.5 9.5h143
q12 0 21.5 -9.5t9.5 -21.5v-962q0 -12 -9.5 -21.5t-21.5 -9.5h-61q-30 0 -41 29l-25 75q-126 -120 -299 -120q-164 0 -237 71z" />
    <glyph glyph-name="mu" unicode="&#x3bc;" horiz-adv-x="1226" 
d="M369 55v-432q0 -12 -9.5 -21.5t-21.5 -9.5h-143q-12 0 -21.5 9.5t-9.5 21.5v1370q0 12 9.5 21.5t21.5 9.5h143q12 0 21.5 -9.5t9.5 -21.5v-497q1 -6 1.5 -46.5t3 -70.5t16 -73.5t37 -72.5t69.5 -51.5t110 -23.5q85 -1 152 38.5t100 94.5v702q0 12 9.5 21.5t21.5 9.5h143
q12 0 21.5 -9.5t9.5 -21.5v-962q0 -12 -9.5 -21.5t-21.5 -9.5h-61q-30 0 -41 29l-25 75q-126 -120 -299 -120q-164 0 -237 71z" />
    <glyph glyph-name="paragraph" unicode="&#xb6;" horiz-adv-x="1341" 
d="M82 1012q0 55 12 110t42 112.5t75 101t118 71t163 27.5h655q12 0 21.5 -9.5t9.5 -21.5v-80q0 -12 -9.5 -21.5t-21.5 -9.5h-113v-1669q0 -12 -9 -21.5t-21 -9.5h-80q-12 0 -21.5 9.5t-9.5 21.5v1669h-221v-1669q0 -12 -9.5 -21.5t-21.5 -9.5h-80q-12 0 -21.5 9.5
t-9.5 21.5v967h-38q-90 0 -163 27.5t-118 71t-75 101t-42 112.5t-12 110z" />
    <glyph glyph-name="periodcentered" unicode="&#xb7;" horiz-adv-x="514" 
d="M123 612q0 57 38 95t95 38q56 0 95.5 -38.5t39.5 -94.5t-39.5 -95.5t-95.5 -39.5t-94.5 39.5t-38.5 95.5z" />
    <glyph glyph-name="cedilla" unicode="&#xb8;" horiz-adv-x="1134" 
d="M614 -147h-2q-17 0 -34 10q-15 11 -15 28v148q0 12 9.5 21.5t21.5 9.5h61q12 0 21.5 -9.5t9.5 -21.5v-92h12q98 -4 146 -65t43 -132q-7 -98 -73 -150t-155 -49q-86 3 -149 43q-10 7 -13 21.5t3 24.5l28 49q6 10 18.5 13.5t22.5 -1.5q53 -23 90 -23q33 0 58.5 21.5
t30.5 50.5q5 43 -27 73.5t-107 29.5z" />
    <glyph glyph-name="onesuperior" unicode="&#xb9;" horiz-adv-x="411" 
d="M319 1608v-607q0 -12 -9 -21t-21 -9h-64q-12 0 -21 9t-9 21v441l-72 -41q-11 -7 -24 -4t-19 14l-23 35q-7 11 -4.5 24t13.5 21l182 129q21 14 45 14q11 0 18.5 -8t7.5 -18z" />
    <glyph glyph-name="ordmasculine" unicode="&#xba;" horiz-adv-x="774" 
d="M387 1446q68 0 122 -21t87.5 -53.5t56 -76t31 -85t8.5 -82.5q0 -43 -8.5 -84.5t-31 -84.5t-56 -75t-87.5 -52.5t-122 -20.5t-122 20.5t-87.5 52.5t-56 75t-31 84.5t-8.5 84.5q0 41 8.5 82.5t31 85t56 76t87.5 53.5t122 21zM387 934q41 0 72.5 16t48.5 38.5t28 51.5
t14 49.5t3 38.5q0 23 -6 50.5t-22 62.5t-51.5 57.5t-86.5 22.5t-86.5 -22.5t-51.5 -57.5t-22 -62.5t-6 -50.5q0 -18 3 -38.5t14 -49.5t28 -51.5t48.5 -38.5t72.5 -16zM152 612h469q12 0 21 -9t9 -21v-58q0 -12 -9 -21t-21 -9h-469q-12 0 -21.5 9t-9.5 21v58q0 12 9.5 21
t21.5 9zM152 612h469q12 0 21 -9t9 -21v-58q0 -12 -9 -21t-21 -9h-469q-12 0 -21.5 9t-9.5 21v58q0 12 9.5 21t21.5 9z" />
    <glyph glyph-name="guillemotright" unicode="&#xbb;" horiz-adv-x="968" 
d="M471 227l242 287l-242 287q-9 9 -8 21.5t10 21.5l53 47q9 9 22 8t21 -10l326 -344q12 -12 12 -31q0 -18 -12 -33l-326 -342q-8 -9 -21 -10t-22 8l-53 47q-9 9 -10 21.5t8 21.5zM82 227l242 287l-242 287q-20 21 2 43l53 47q9 9 22 8t21 -10l326 -344q12 -12 12 -31
q0 -18 -12 -33l-326 -342q-8 -9 -21 -10t-22 8l-53 47q-22 22 -2 43z" />
    <glyph glyph-name="onequarter" unicode="&#xbc;" horiz-adv-x="1130" 
d="M332 1409v-608q0 -12 -9.5 -21.5t-21.5 -9.5h-63q-12 0 -21.5 9.5t-9.5 21.5v440l-72 -41q-11 -7 -24 -4t-19 14l-22 35q-7 11 -5 24t13 21l184 129q21 15 45 15q11 0 18 -7t7 -18zM948 131v-98q0 -12 -9 -21.5t-21 -9.5h-64q-12 0 -21.5 9.5t-9.5 21.5v98h-241
q-12 0 -21.5 9.5t-9.5 21.5v10q0 28 16 57l264 408q17 27 48 27h39q12 0 21 -9.5t9 -21.5v-387h70q12 0 21.5 -9.5t9.5 -21.5v-53q0 -12 -9.5 -21.5t-21.5 -9.5h-70zM823 418l-110 -172h110v172zM973 1407l-686 -1380q-13 -27 -45 -27h-88q-10 0 -16 9t-1 18l688 1380
q13 27 45 27h86q10 0 16 -9t1 -18z" />
    <glyph glyph-name="onehalf" unicode="&#xbd;" horiz-adv-x="1210" 
d="M330 1409v-608q0 -12 -9.5 -21.5t-21.5 -9.5h-63q-12 0 -21.5 9.5t-9.5 21.5v440l-72 -41q-11 -7 -24 -4t-19 14l-22 35q-7 11 -5 24t13 21l184 129q21 15 45 15q11 0 18 -7t7 -18zM973 1407l-686 -1380q-13 -27 -45 -27h-88q-10 0 -16 9t-1 18l688 1380q13 27 45 27h86
q10 0 16 -9t1 -18zM754 498l-33 32q-8 9 -8.5 22.5t8.5 22.5q98 91 203 91q94 0 149 -56.5t55 -138.5q0 -87 -79 -182l-150 -176h182q12 0 21.5 -9.5t9.5 -21.5v-53q0 -12 -9.5 -21.5t-21.5 -9.5h-362q-9 0 -17 8t-8 17q0 23 17 47l245 292q54 66 54 117q0 32 -19.5 55
t-64.5 23q-57 0 -127 -61q-9 -9 -22.5 -8t-22.5 10z" />
    <glyph glyph-name="threequarters" unicode="&#xbe;" horiz-adv-x="1204" 
d="M1022 131v-98q0 -12 -9.5 -21.5t-21.5 -9.5h-63q-12 0 -21.5 9.5t-9.5 21.5v98h-242q-12 0 -21 9.5t-9 21.5v10q0 28 16 57l264 408q17 27 47 27h39q12 0 21.5 -9.5t9.5 -21.5v-387h70q12 0 21 -9.5t9 -21.5v-53q0 -12 -9 -21.5t-21 -9.5h-70zM897 418l-111 -172h111v172
zM1047 1407l-687 -1380q-14 -27 -45 -27h-88q-10 0 -15.5 9t-0.5 18l688 1380q13 27 45 27h86q10 0 16 -9t1 -18zM475 1249q0 -92 -65 -149q33 -28 49 -69.5t16 -78.5q0 -24 -5.5 -49t-21 -52t-39.5 -47.5t-64 -34t-91 -13.5q-101 0 -182 69q-9 8 -10 21t8 22l24 27
q7 9 20.5 9.5t22.5 -7.5q60 -43 117 -43q47 0 79 25t32 73t-32.5 74.5t-78.5 26.5h-57q-12 0 -21.5 9t-9.5 21v35q0 12 9.5 21.5t21.5 9.5h57q46 0 78.5 26t32.5 74q0 47 -32.5 73t-78.5 26q-56 0 -115 -45q-10 -6 -24 -5.5t-21 9.5l-24 26q-8 9 -7.5 21.5t9.5 21.5
q87 70 182 70q63 0 109 -20t69 -52t33 -63t10 -62z" />
    <glyph glyph-name="questiondown" unicode="&#xbf;" horiz-adv-x="1124" 
d="M467 496l6 88q0 12 10.5 21t22.5 9h119q12 0 21 -9t9 -21v-92q0 -62 -29.5 -119.5t-71 -104.5t-83 -94.5t-71 -108t-29.5 -126.5q0 -21 4 -42t16.5 -46.5t32.5 -43.5t56.5 -30t84.5 -10q69 3 125.5 35.5t128.5 101.5q9 9 22.5 9t22.5 -9l74 -74q9 -7 9.5 -20.5
t-7.5 -22.5q-98 -103 -192.5 -149t-221.5 -46q-160 0 -261 91t-101 254q0 73 31 145.5t76 128.5t89.5 106t75.5 96.5t31 82.5zM684 928q0 -52 -36 -86.5t-89 -34.5q-52 0 -87.5 34.5t-35.5 86.5q0 51 36 87t87 36q52 0 88.5 -36t36.5 -87z" />
    <glyph glyph-name="Agrave" unicode="&#xc0;" horiz-adv-x="1413" 
d="M1110 31l-139 348h-529l-139 -348q-13 -29 -43 -29h-168q-11 0 -16.5 9.5t-1.5 19.5l592 1390q14 27 41 27q28 0 38 -27l594 -1390q4 -10 -1.5 -19.5t-16.5 -9.5h-168q-30 0 -43 29zM707 1034l-191 -473h381zM621 1942l266 -199q10 -7 12 -20.5t-4 -22.5l-41 -60
q-6 -11 -19 -13t-24 5l-283 174q-10 6 -13 19t3 22l60 88q8 9 20 11.5t23 -4.5z" />
    <glyph glyph-name="Aacute" unicode="&#xc1;" horiz-adv-x="1413" 
d="M1110 31l-139 348h-529l-139 -348q-13 -29 -43 -29h-168q-11 0 -16.5 9.5t-1.5 19.5l592 1390q14 27 41 27q28 0 38 -27l594 -1390q4 -10 -1.5 -19.5t-16.5 -9.5h-168q-30 0 -43 29zM707 1034l-191 -473h381zM526 1743l267 199q11 7 23 4.5t20 -11.5l59 -88q6 -9 3 -22
t-13 -19l-283 -174q-11 -7 -24 -5t-19 13l-41 60q-6 9 -4 22.5t12 20.5z" />
    <glyph glyph-name="Acircumflex" unicode="&#xc2;" horiz-adv-x="1413" 
d="M1110 31l-139 348h-529l-139 -348q-13 -29 -43 -29h-168q-11 0 -16.5 9.5t-1.5 19.5l592 1390q14 27 41 27q28 0 38 -27l594 -1390q4 -10 -1.5 -19.5t-16.5 -9.5h-168q-30 0 -43 29zM707 1034l-191 -473h381zM416 1741l266 198q24 17 49 0l266 -198q10 -7 12.5 -20.5
t-3.5 -22.5l-41 -60q-6 -11 -19 -13t-24 5l-215 131l-215 -131q-11 -7 -24 -5t-19 13l-41 60q-6 9 -4 22.5t12 20.5z" />
    <glyph glyph-name="Atilde" unicode="&#xc3;" horiz-adv-x="1413" 
d="M1110 31l-139 348h-529l-139 -348q-13 -29 -43 -29h-168q-11 0 -16.5 9.5t-1.5 19.5l592 1390q14 27 41 27q28 0 38 -27l594 -1390q4 -10 -1.5 -19.5t-16.5 -9.5h-168q-30 0 -43 29zM707 1034l-191 -473h381zM940 1829l64 -33q11 -6 14.5 -18.5t-2.5 -24.5
q-74 -141 -213 -141q-46 0 -106.5 40t-100.5 40q-54 0 -90 -60q-6 -11 -18.5 -14.5t-24.5 2.5l-53 25q-11 6 -16 18.5t-1 24.5q58 155 205 155q43 0 80 -20t68.5 -40t60.5 -20q51 0 90 54q8 11 20 14.5t23 -2.5z" />
    <glyph glyph-name="Adieresis" unicode="&#xc4;" horiz-adv-x="1413" 
d="M340 1743q0 52 34.5 87.5t86.5 35.5q51 0 87 -36t36 -87q0 -52 -35.5 -86.5t-87.5 -34.5q-53 0 -87 34t-34 87zM829 1743q0 52 34.5 87.5t86.5 35.5q51 0 87 -36t36 -87q0 -52 -35.5 -86.5t-87.5 -34.5t-86.5 34t-34.5 87zM1110 31l-139 348h-529l-139 -348
q-13 -29 -43 -29h-168q-11 0 -16.5 9.5t-1.5 19.5l592 1390q14 27 41 27q28 0 38 -27l594 -1390q4 -10 -1.5 -19.5t-16.5 -9.5h-168q-30 0 -43 29zM707 1034l-191 -473h381z" />
    <glyph glyph-name="Aring" unicode="&#xc5;" horiz-adv-x="1413" 
d="M498 1819q0 86 61.5 147.5t147.5 61.5t146 -61t60 -148q0 -86 -60 -146.5t-146 -60.5t-147.5 60.5t-61.5 146.5zM623 1819q0 -32 25 -57t59 -25q32 0 56.5 25t24.5 57q0 34 -24.5 59t-56.5 25q-34 0 -59 -25t-25 -59zM1110 31l-139 348h-529l-139 -348q-13 -29 -43 -29
h-168q-11 0 -16.5 9.5t-1.5 19.5l592 1390q14 27 41 27q28 0 38 -27l594 -1390q4 -10 -1.5 -19.5t-16.5 -9.5h-168q-30 0 -43 29zM707 1034l-191 -473h381z" />
    <glyph glyph-name="AE" unicode="&#xc6;" horiz-adv-x="1771" 
d="M1460 614h-522v-430h680q12 0 21.5 -9t9.5 -21v-123q0 -12 -9.5 -21.5t-21.5 -9.5h-860q-12 0 -21.5 9.5t-9.5 21.5v348h-278l-150 -350q-13 -29 -43 -29h-164q-11 0 -16.5 9.5t-1.5 19.5l588 1376q13 29 43 29h913q12 0 21.5 -9.5t9.5 -21.5v-121q0 -12 -9.5 -21.5
t-21.5 -9.5h-680v-452h522q12 0 21.5 -9.5t9.5 -21.5v-123q0 -12 -9.5 -21.5t-21.5 -9.5zM520 563h207v541z" />
    <glyph glyph-name="Ccedilla" unicode="&#xc7;" horiz-adv-x="1484" 
d="M819 -147h-2q-18 0 -35 10q-14 11 -14 28v93q-143 9 -257 61t-185 126.5t-118 171t-66 189.5t-19 187q0 67 10 135t34.5 141.5t61.5 138.5t94 124.5t128 102.5t168.5 68t211.5 25q166 0 288.5 -53.5t221.5 -155.5q9 -9 8 -22t-10 -21l-92 -92q-9 -8 -21.5 -7.5t-21.5 9.5
q-68 66 -169 111t-204 45q-89 0 -163 -23.5t-124 -61t-89 -88.5t-60.5 -102t-35.5 -105.5t-18.5 -94.5t-4.5 -74t4.5 -73.5t18.5 -94.5t35.5 -105.5t60.5 -101t89 -88t124 -61t163 -23.5q200 0 383 152q9 8 21.5 6.5t19.5 -11.5l84 -104q7 -11 6 -24.5t-10 -22.5
q-185 -167 -444 -184v-37h12q98 -4 146 -65t43 -132q-7 -98 -73 -150t-155 -49q-86 3 -149 43q-10 7 -13 21.5t3 24.5l28 49q6 10 18.5 13.5t22.5 -1.5q53 -23 90 -23q33 0 58 21.5t30 50.5q5 43 -26.5 73.5t-106.5 29.5z" />
    <glyph glyph-name="Egrave" unicode="&#xc8;" horiz-adv-x="1269" 
d="M956 614h-542v-430h702q12 0 21.5 -9t9.5 -21v-123q0 -12 -9.5 -21.5t-21.5 -9.5h-880q-12 0 -21.5 9.5t-9.5 21.5v1372q0 12 9.5 21.5t21.5 9.5h880q12 0 21.5 -9.5t9.5 -21.5v-123q0 -12 -9.5 -21.5t-21.5 -9.5h-702v-450h542q12 0 21.5 -9.5t9.5 -21.5v-123
q0 -12 -9.5 -21.5t-21.5 -9.5zM547 1942l266 -199q10 -7 12 -20.5t-4 -22.5l-41 -60q-6 -11 -19 -13t-24 5l-282 174q-10 6 -13.5 19t2.5 22l60 88q8 9 20 11.5t23 -4.5z" />
    <glyph glyph-name="Eacute" unicode="&#xc9;" horiz-adv-x="1269" 
d="M956 614h-542v-430h702q12 0 21.5 -9t9.5 -21v-123q0 -12 -9.5 -21.5t-21.5 -9.5h-880q-12 0 -21.5 9.5t-9.5 21.5v1372q0 12 9.5 21.5t21.5 9.5h880q12 0 21.5 -9.5t9.5 -21.5v-123q0 -12 -9.5 -21.5t-21.5 -9.5h-702v-450h542q12 0 21.5 -9.5t9.5 -21.5v-123
q0 -12 -9.5 -21.5t-21.5 -9.5zM453 1743l266 199q9 7 22 4.5t19 -11.5l59 -88q8 -9 5 -22t-13 -19l-283 -174q-11 -7 -24 -5t-19 13l-41 60q-6 9 -3.5 22.5t12.5 20.5z" />
    <glyph glyph-name="Ecircumflex" unicode="&#xca;" horiz-adv-x="1269" 
d="M956 614h-542v-430h702q12 0 21.5 -9t9.5 -21v-123q0 -12 -9.5 -21.5t-21.5 -9.5h-880q-12 0 -21.5 9.5t-9.5 21.5v1372q0 12 9.5 21.5t21.5 9.5h880q12 0 21.5 -9.5t9.5 -21.5v-123q0 -12 -9.5 -21.5t-21.5 -9.5h-702v-450h542q12 0 21.5 -9.5t9.5 -21.5v-123
q0 -12 -9.5 -21.5t-21.5 -9.5zM342 1741l266 198q24 17 49 0l267 -198q10 -7 12 -20.5t-4 -22.5l-41 -60q-6 -11 -19 -13t-24 5l-215 131l-215 -131q-11 -7 -24 -5t-19 13l-41 60q-6 9 -4 22.5t12 20.5z" />
    <glyph glyph-name="Edieresis" unicode="&#xcb;" horiz-adv-x="1269" 
d="M299 1743q0 52 34.5 87.5t86.5 35.5q51 0 87 -36t36 -87q0 -52 -35.5 -86.5t-87.5 -34.5t-86.5 34t-34.5 87zM788 1743q0 52 34.5 87.5t86.5 35.5q51 0 87 -36t36 -87q0 -52 -35.5 -86.5t-87.5 -34.5q-53 0 -87 34t-34 87zM956 614h-542v-430h702q12 0 21.5 -9t9.5 -21
v-123q0 -12 -9.5 -21.5t-21.5 -9.5h-880q-12 0 -21.5 9.5t-9.5 21.5v1372q0 12 9.5 21.5t21.5 9.5h880q12 0 21.5 -9.5t9.5 -21.5v-123q0 -12 -9.5 -21.5t-21.5 -9.5h-702v-450h542q12 0 21.5 -9.5t9.5 -21.5v-123q0 -12 -9.5 -21.5t-21.5 -9.5z" />
    <glyph glyph-name="Igrave" unicode="&#xcc;" horiz-adv-x="491" 
d="M350 1403v-1372q0 -12 -9.5 -21.5t-21.5 -9.5h-149q-12 0 -21.5 9.5t-9.5 21.5v1372q0 12 9.5 21.5t21.5 9.5h149q12 0 21.5 -9.5t9.5 -21.5zM160 1942l266 -199q10 -7 12 -20.5t-4 -22.5l-41 -60q-6 -11 -19 -13t-24 5l-282 174q-10 6 -13.5 19t2.5 22l60 88
q8 9 20 11.5t23 -4.5z" />
    <glyph glyph-name="Iacute" unicode="&#xcd;" horiz-adv-x="491" 
d="M350 1403v-1372q0 -12 -9.5 -21.5t-21.5 -9.5h-149q-12 0 -21.5 9.5t-9.5 21.5v1372q0 12 9.5 21.5t21.5 9.5h149q12 0 21.5 -9.5t9.5 -21.5zM66 1743l266 199q9 7 22 4.5t19 -11.5l59 -88q8 -9 5 -22t-13 -19l-283 -174q-11 -7 -24 -5t-19 13l-41 60q-6 9 -3.5 22.5
t12.5 20.5z" />
    <glyph glyph-name="Icircumflex" unicode="&#xce;" horiz-adv-x="630" 
d="M420 1403v-1372q0 -12 -9.5 -21.5t-21.5 -9.5h-149q-12 0 -21.5 9.5t-9.5 21.5v1372q0 12 9.5 21.5t21.5 9.5h149q12 0 21.5 -9.5t9.5 -21.5zM25 1741l266 198q25 17 49 0l266 -198q10 -7 12 -20.5t-4 -22.5l-41 -60q-6 -11 -19 -13t-24 5l-215 131l-215 -131
q-11 -7 -24 -5t-19 13l-41 60q-6 9 -3.5 22.5t12.5 20.5z" />
    <glyph glyph-name="Idieresis" unicode="&#xcf;" horiz-adv-x="733" 
d="M471 1403v-1372q0 -12 -9.5 -21.5t-21.5 -9.5h-149q-12 0 -21.5 9.5t-9.5 21.5v1372q0 12 9.5 21.5t21.5 9.5h149q12 0 21.5 -9.5t9.5 -21.5zM4 1774q9 40 41 66t76 26q51 0 87 -36t36 -87q0 -52 -35.5 -86.5t-87.5 -34.5q-44 0 -76 25t-41 65q-9 31 0 62zM489 1743
q0 52 34.5 87.5t86.5 35.5q51 0 87 -36t36 -87q0 -52 -35.5 -86.5t-87.5 -34.5t-86.5 34t-34.5 87z" />
    <glyph glyph-name="Eth" unicode="&#xd0;" horiz-adv-x="1505" 
d="M207 1434h467q114 0 211.5 -24t168.5 -65t128 -98.5t94 -120.5t61.5 -134.5t34.5 -138.5t10 -134q0 -98 -20.5 -193t-72 -192t-129.5 -169.5t-203.5 -118.5t-282.5 -46h-467q-12 0 -21.5 9.5t-9.5 21.5v600h-84q-12 0 -21.5 9.5t-9.5 21.5v92q0 12 9.5 21t21.5 9h84v619
q0 12 9.5 21.5t21.5 9.5zM387 784h344q12 0 21.5 -9t9.5 -21v-92q0 -12 -9.5 -21.5t-21.5 -9.5h-344v-447h287q89 0 163 23t124 59t88.5 85.5t60 99t35 103t18 92.5t4.5 73t-4.5 73t-18 92t-35 102t-60 98.5t-88.5 85.5t-124 58.5t-163 22.5h-287v-467z" />
    <glyph glyph-name="Ntilde" unicode="&#xd1;" horiz-adv-x="1570" 
d="M1155 475v928q0 12 9.5 21.5t21.5 9.5h149q12 0 21.5 -9.5t9.5 -21.5v-1395q0 -8 -5 -13t-13 -5q-20 0 -31 14l-899 965l-2 -938q0 -12 -9.5 -21.5t-21.5 -9.5h-149q-12 0 -21.5 9.5t-9.5 21.5v1396q0 9 5 15t13 6q19 0 33 -14zM1018 1829l63 -33q11 -6 15 -18.5
t-2 -24.5q-74 -141 -213 -141q-46 0 -106.5 40t-100.5 40q-54 0 -90 -60q-6 -11 -18.5 -14.5t-24.5 2.5l-54 25q-11 6 -15.5 18.5t-0.5 24.5q58 155 205 155q43 0 80 -20t68.5 -40t60.5 -20q51 0 90 54q8 11 20 14.5t23 -2.5z" />
    <glyph glyph-name="Ograve" unicode="&#xd2;" horiz-adv-x="1662" 
d="M831 1454q114 0 211.5 -25t168.5 -68t128.5 -102.5t94 -124.5t61 -138.5t35 -141.5t10.5 -135q0 -69 -10.5 -138t-35 -142.5t-61 -139t-94 -124t-128.5 -101t-168.5 -67.5t-211.5 -25t-211.5 25t-168.5 67.5t-128 101.5t-94 124t-61.5 138.5t-34.5 142.5t-10 138
q0 67 10 135t34.5 141.5t61.5 138.5t94 124.5t128 102.5t168.5 68t211.5 25zM831 168q89 0 163 23.5t124 61.5t88.5 89t60.5 102t35.5 106t18 95t4.5 74t-4.5 74t-18 94.5t-35.5 105.5t-60.5 102t-88.5 88.5t-124 61t-163 23.5t-163 -23.5t-124 -61t-89 -88.5t-60.5 -102
t-35.5 -105.5t-18.5 -94.5t-4.5 -74t4.5 -74t18.5 -95t35.5 -106t60.5 -102t89 -89t124 -61.5t163 -23.5zM745 1942l267 -199q10 -7 12 -20.5t-4 -22.5l-41 -60q-6 -11 -19 -13t-24 5l-283 174q-10 6 -13 19t3 22l59 88q8 9 20 11.5t23 -4.5z" />
    <glyph glyph-name="Oacute" unicode="&#xd3;" horiz-adv-x="1662" 
d="M831 1454q114 0 211.5 -25t168.5 -68t128.5 -102.5t94 -124.5t61 -138.5t35 -141.5t10.5 -135q0 -69 -10.5 -138t-35 -142.5t-61 -139t-94 -124t-128.5 -101t-168.5 -67.5t-211.5 -25t-211.5 25t-168.5 67.5t-128 101.5t-94 124t-61.5 138.5t-34.5 142.5t-10 138
q0 67 10 135t34.5 141.5t61.5 138.5t94 124.5t128 102.5t168.5 68t211.5 25zM831 168q89 0 163 23.5t124 61.5t88.5 89t60.5 102t35.5 106t18 95t4.5 74t-4.5 74t-18 94.5t-35.5 105.5t-60.5 102t-88.5 88.5t-124 61t-163 23.5t-163 -23.5t-124 -61t-89 -88.5t-60.5 -102
t-35.5 -105.5t-18.5 -94.5t-4.5 -74t4.5 -74t18.5 -95t35.5 -106t60.5 -102t89 -89t124 -61.5t163 -23.5zM918 1942q11 7 23 4.5t20 -11.5l59 -88q6 -9 3 -22t-13 -19l-283 -174q-11 -7 -24 -5t-19 13l-41 60q-6 9 -4 22.5t12 20.5z" />
    <glyph glyph-name="Ocircumflex" unicode="&#xd4;" horiz-adv-x="1662" 
d="M831 1454q114 0 211.5 -25t168.5 -68t128.5 -102.5t94 -124.5t61 -138.5t35 -141.5t10.5 -135q0 -69 -10.5 -138t-35 -142.5t-61 -139t-94 -124t-128.5 -101t-168.5 -67.5t-211.5 -25t-211.5 25t-168.5 67.5t-128 101.5t-94 124t-61.5 138.5t-34.5 142.5t-10 138
q0 67 10 135t34.5 141.5t61.5 138.5t94 124.5t128 102.5t168.5 68t211.5 25zM831 168q89 0 163 23.5t124 61.5t88.5 89t60.5 102t35.5 106t18 95t4.5 74t-4.5 74t-18 94.5t-35.5 105.5t-60.5 102t-88.5 88.5t-124 61t-163 23.5t-163 -23.5t-124 -61t-89 -88.5t-60.5 -102
t-35.5 -105.5t-18.5 -94.5t-4.5 -74t4.5 -74t18.5 -95t35.5 -106t60.5 -102t89 -89t124 -61.5t163 -23.5zM541 1741l266 198q25 17 49 0l266 -198q10 -7 12 -20.5t-4 -22.5l-40 -60q-6 -11 -19 -13t-24 5l-216 131l-215 -131q-11 -7 -24 -5t-19 13l-41 60q-6 9 -3.5 22.5
t12.5 20.5z" />
    <glyph glyph-name="Otilde" unicode="&#xd5;" horiz-adv-x="1662" 
d="M831 1454q114 0 211.5 -25t168.5 -68t128.5 -102.5t94 -124.5t61 -138.5t35 -141.5t10.5 -135q0 -69 -10.5 -138t-35 -142.5t-61 -139t-94 -124t-128.5 -101t-168.5 -67.5t-211.5 -25t-211.5 25t-168.5 67.5t-128 101.5t-94 124t-61.5 138.5t-34.5 142.5t-10 138
q0 67 10 135t34.5 141.5t61.5 138.5t94 124.5t128 102.5t168.5 68t211.5 25zM831 168q89 0 163 23.5t124 61.5t88.5 89t60.5 102t35.5 106t18 95t4.5 74t-4.5 74t-18 94.5t-35.5 105.5t-60.5 102t-88.5 88.5t-124 61t-163 23.5t-163 -23.5t-124 -61t-89 -88.5t-60.5 -102
t-35.5 -105.5t-18.5 -94.5t-4.5 -74t4.5 -74t18.5 -95t35.5 -106t60.5 -102t89 -89t124 -61.5t163 -23.5zM1065 1829l63 -33q11 -6 15 -18.5t-2 -24.5q-74 -141 -213 -141q-46 0 -106.5 40t-100.5 40q-54 0 -90 -60q-6 -11 -18.5 -14.5t-24.5 2.5l-53 25q-11 6 -16 18.5
t-1 24.5q58 155 205 155q43 0 80 -20t68.5 -40t60.5 -20q51 0 90 54q8 11 20 14.5t23 -2.5z" />
    <glyph glyph-name="Odieresis" unicode="&#xd6;" horiz-adv-x="1662" 
d="M831 1454q114 0 211.5 -25t168.5 -68t128.5 -102.5t94 -124.5t61 -138.5t35 -141.5t10.5 -135q0 -69 -10.5 -138t-35 -142.5t-61 -139t-94 -124t-128.5 -101t-168.5 -67.5t-211.5 -25t-211.5 25t-168.5 67.5t-128 101.5t-94 124t-61.5 138.5t-34.5 142.5t-10 138
q0 67 10 135t34.5 141.5t61.5 138.5t94 124.5t128 102.5t168.5 68t211.5 25zM831 168q89 0 163 23.5t124 61.5t88.5 89t60.5 102t35.5 106t18 95t4.5 74t-4.5 74t-18 94.5t-35.5 105.5t-60.5 102t-88.5 88.5t-124 61t-163 23.5t-163 -23.5t-124 -61t-89 -88.5t-60.5 -102
t-35.5 -105.5t-18.5 -94.5t-4.5 -74t4.5 -74t18.5 -95t35.5 -106t60.5 -102t89 -89t124 -61.5t163 -23.5zM465 1743q0 52 34.5 87.5t86.5 35.5q51 0 87 -36t36 -87q0 -52 -35.5 -86.5t-87.5 -34.5t-86.5 34t-34.5 87zM954 1743q0 52 34.5 87.5t86.5 35.5q51 0 87 -36t36 -87
q0 -52 -35.5 -86.5t-87.5 -34.5q-53 0 -87 34t-34 87z" />
    <glyph glyph-name="multiply" unicode="&#xd7;" horiz-adv-x="1087" 
d="M227 195l207 206l-207 209q-9 9 -9 22.5t9 22.5l64 64q9 9 22.5 9t22.5 -9l207 -207l209 207q9 9 22.5 9t22.5 -9l63 -64q9 -9 9 -22.5t-9 -22.5l-207 -209l207 -206q9 -9 9 -22.5t-9 -22.5l-63 -64q-9 -9 -22.5 -9t-22.5 9l-209 207l-207 -207q-9 -9 -22.5 -9t-22.5 9
l-64 64q-9 9 -9 22.5t9 22.5z" />
    <glyph glyph-name="Oslash" unicode="&#xd8;" horiz-adv-x="1662" 
d="M1348 1249q99 -107 145.5 -248.5t46.5 -281.5q0 -69 -10.5 -138t-35 -142.5t-61 -139t-94 -124t-128.5 -101t-168.5 -67.5t-211.5 -25q-266 0 -440 131l-82 -101q-22 -22 -45 -2l-61 49q-9 9 -10 21.5t8 21.5l90 109q-87 106 -127.5 240.5t-40.5 267.5q0 67 10 135
t34.5 141.5t61.5 138.5t94 124.5t128 102.5t168.5 68t211.5 25q243 0 408 -113l113 134q9 11 21.5 12t21.5 -8l61 -49q11 -9 12 -22t-8 -24zM336 719q0 -73 21 -166.5t73 -175.5l680 811q-119 80 -279 80q-89 0 -163 -23.5t-124 -61t-89 -88.5t-60.5 -102t-35.5 -105.5
t-18.5 -94.5t-4.5 -74zM831 168q89 0 163 23.5t124 61.5t88.5 89t60.5 102t35.5 106t18 95t4.5 74q0 77 -26 179.5t-89 188.5l-688 -819q125 -100 309 -100z" />
    <glyph glyph-name="Ugrave" unicode="&#xd9;" horiz-adv-x="1484" 
d="M635 1942l266 -199q10 -7 12 -20.5t-4 -22.5l-41 -60q-6 -11 -19 -13t-24 5l-282 174q-10 6 -13.5 19t2.5 22l60 88q8 9 20 11.5t23 -4.5zM741 168q79 0 142.5 30t100.5 73.5t61.5 98t33 97.5t8.5 78v858q0 12 9.5 21.5t21.5 9.5h152q12 0 21 -9.5t9 -21.5v-858
q0 -75 -18 -150t-60.5 -149.5t-104.5 -131.5t-159.5 -92.5t-216.5 -35.5t-216 35.5t-159 92.5t-104.5 132t-60 149.5t-17.5 149.5v858q0 12 9.5 21.5t21.5 9.5h147q12 0 21.5 -9.5t9.5 -21.5v-858q0 -34 9 -77.5t33.5 -98t62 -98t101 -73.5t142.5 -30z" />
    <glyph glyph-name="Uacute" unicode="&#xda;" horiz-adv-x="1484" 
d="M561 1743l266 199q9 7 22 4.5t19 -11.5l60 -88q8 -9 5 -22t-13 -19l-283 -174q-11 -7 -24 -5t-19 13l-41 60q-6 9 -4 22.5t12 20.5zM741 168q79 0 142.5 30t100.5 73.5t61.5 98t33 97.5t8.5 78v858q0 12 9.5 21.5t21.5 9.5h152q12 0 21 -9.5t9 -21.5v-858q0 -75 -18 -150
t-60.5 -149.5t-104.5 -131.5t-159.5 -92.5t-216.5 -35.5t-216 35.5t-159 92.5t-104.5 132t-60 149.5t-17.5 149.5v858q0 12 9.5 21.5t21.5 9.5h147q12 0 21.5 -9.5t9.5 -21.5v-858q0 -34 9 -77.5t33.5 -98t62 -98t101 -73.5t142.5 -30z" />
    <glyph glyph-name="Ucircumflex" unicode="&#xdb;" horiz-adv-x="1484" 
d="M741 1761l-215 -131q-11 -7 -24 -5t-19 13l-41 60q-6 9 -3.5 22.5t12.5 20.5l266 198q24 17 49 0l266 -198q10 -7 12 -20.5t-4 -22.5l-41 -60q-6 -11 -19 -13t-24 5zM1118 1434h152q12 0 21 -9.5t9 -21.5v-858q0 -75 -18 -150t-60.5 -149.5t-104.5 -131.5t-159.5 -92.5
t-216.5 -35.5t-216 35.5t-159 92.5t-104.5 132t-60 149.5t-17.5 149.5v858q0 12 9.5 21.5t21.5 9.5h147q12 0 21.5 -9.5t9.5 -21.5v-858q0 -34 9 -77.5t33.5 -98t62 -98t101 -73.5t142.5 -30t142.5 30t100.5 73.5t61.5 98t33 97.5t8.5 78v858q0 12 9.5 21.5t21.5 9.5z" />
    <glyph glyph-name="Udieresis" unicode="&#xdc;" horiz-adv-x="1484" 
d="M375 1743q0 52 34.5 87.5t86.5 35.5q51 0 86.5 -36t35.5 -87q0 -52 -35.5 -86.5t-86.5 -34.5q-52 0 -86.5 34t-34.5 87zM864 1743q0 52 34.5 87.5t86.5 35.5q51 0 87 -36t36 -87q0 -52 -35.5 -86.5t-87.5 -34.5q-53 0 -87 34t-34 87zM1118 1434h152q12 0 21 -9.5t9 -21.5
v-858q0 -75 -18 -150t-60.5 -149.5t-104.5 -131.5t-159.5 -92.5t-216.5 -35.5t-216 35.5t-159 92.5t-104.5 132t-60 149.5t-17.5 149.5v858q0 12 9.5 21.5t21.5 9.5h147q12 0 21.5 -9.5t9.5 -21.5v-858q0 -34 9 -77.5t33.5 -98t62 -98t101 -73.5t142.5 -30t142.5 30
t100.5 73.5t61.5 98t33 97.5t8.5 78v858q0 12 9.5 21.5t21.5 9.5z" />
    <glyph glyph-name="Yacute" unicode="&#xdd;" horiz-adv-x="1302" 
d="M756 649v-618q0 -12 -9.5 -21.5t-21.5 -9.5h-150q-12 0 -21 9.5t-9 21.5v614l-467 762q-6 9 -1.5 18t15.5 9h174q30 0 47 -27l336 -555l338 555q17 27 47 27h176q9 0 15 -9t0 -18zM471 1743l266 199q9 7 22 4.5t19 -11.5l60 -88q7 -9 4.5 -22t-13.5 -19l-282 -174
q-11 -7 -24 -5t-19 13l-41 60q-6 9 -4 22.5t12 20.5z" />
    <glyph glyph-name="Thorn" unicode="&#xde;" horiz-adv-x="1294" 
d="M662 182h-252v-151q0 -12 -9.5 -21.5t-21.5 -9.5h-143q-12 0 -21.5 9.5t-9.5 21.5v1372q0 12 9.5 21.5t21.5 9.5h143q12 0 21.5 -9.5t9.5 -21.5v-164h252q113 0 203.5 -34.5t146 -89t93 -126t52 -140.5t14.5 -138q0 -57 -11 -114.5t-33.5 -118t-63 -113t-94.5 -94
t-133 -65.5t-174 -24zM410 1071v-719h235q77 0 137 27.5t94 68t56 92t29.5 93t7.5 78.5t-7.5 78.5t-29.5 93t-56 91.5t-94 67.5t-137 27.5z" />
    <glyph glyph-name="germandbls" unicode="&#xdf;" horiz-adv-x="1318" 
d="M897 387q-5 40 -30 80t-55.5 72.5t-59.5 65t-45 69.5t-9 74q5 29 24.5 58.5t43 54.5t46 52.5t37 63.5t13.5 76q0 8 -0.5 21.5t-11.5 47.5t-31.5 60t-66 47.5t-109.5 21.5q-27 0 -54 -4.5t-59.5 -19.5t-57 -38.5t-41 -65.5t-17.5 -97v-1139q0 -12 -9.5 -21t-21.5 -9h-147
q-12 0 -21.5 9t-9.5 21v1135q0 84 22.5 151.5t55.5 109.5t80 73t85.5 45.5t82.5 22.5t61 9t31 1q102 0 182 -28t126.5 -70t76.5 -96t40.5 -100t10.5 -89q0 -54 -14 -99t-34 -74.5t-40 -53t-34 -44.5t-15 -39q-1 -27 17 -54t44 -54t53.5 -58.5t49 -80.5t26.5 -107
q11 -181 -121 -294t-391 -113h-10q-12 0 -21.5 9t-9.5 21v111q0 12 9.5 21.5t21.5 9.5h31q81 0 139 20.5t87.5 55.5t41 74t8.5 85z" />
    <glyph glyph-name="agrave" unicode="&#xe0;" horiz-adv-x="1097" 
d="M737 1290l-41 -59q-6 -11 -19 -13t-24 5l-282 174q-10 6 -13.5 19t2.5 22l60 88q8 9 20 11t23 -5l266 -199q10 -7 12 -20.5t-4 -22.5zM516 1038q81 5 145.5 -5.5t107.5 -30.5t74.5 -55t48.5 -69.5t27 -83.5t12.5 -89t2.5 -93v-581q0 -12 -9.5 -21.5t-21.5 -9.5h-61
q-13 0 -24.5 8.5t-14.5 20.5l-25 77q-60 -60 -140.5 -92t-154.5 -32q-88 0 -156 23.5t-105.5 57.5t-61 79t-30.5 80.5t-7 68.5q0 73 21.5 129t56 91t86.5 58.5t103 33.5t115.5 12t114.5 -1t109 -10v23q0 78 -11.5 126t-38.5 73t-61 33.5t-90 8.5q-40 0 -112.5 -15
t-136.5 -38q-12 -5 -24.5 -0.5t-16.5 16.5l-35 84q-6 12 -1.5 24.5t15.5 18.5q148 71 299 80zM729 289v157q-416 50 -416 -139q0 -78 50.5 -121t125.5 -43q80 0 144 45.5t96 100.5z" />
    <glyph glyph-name="aacute" unicode="&#xe1;" horiz-adv-x="1097" 
d="M516 1038q81 5 145.5 -5.5t107.5 -30.5t74.5 -55t48.5 -69.5t27 -83.5t12.5 -89t2.5 -93v-581q0 -12 -9.5 -21.5t-21.5 -9.5h-61q-13 0 -24.5 8.5t-14.5 20.5l-25 77q-60 -60 -140.5 -92t-154.5 -32q-88 0 -156 23.5t-105.5 57.5t-61 79t-30.5 80.5t-7 68.5
q0 73 21.5 129t56 91t86.5 58.5t103 33.5t115.5 12t114.5 -1t109 -10v23q0 78 -11.5 126t-38.5 73t-61 33.5t-90 8.5q-40 0 -112.5 -15t-136.5 -38q-12 -5 -24.5 -0.5t-16.5 16.5l-35 84q-6 12 -1.5 24.5t15.5 18.5q148 71 299 80zM729 289v157q-416 50 -416 -139
q0 -78 50.5 -121t125.5 -43q80 0 144 45.5t96 100.5zM727 1397l-283 -174q-11 -7 -24 -5t-19 13l-41 59q-6 9 -3.5 22.5t12.5 20.5l266 199q9 7 22 5t19 -11l59 -88q8 -9 5 -22t-13 -19z" />
    <glyph glyph-name="acircumflex" unicode="&#xe2;" horiz-adv-x="1097" 
d="M549 1352l-215 -131q-11 -7 -24 -5t-19 13l-41 59q-6 9 -4 22.5t12 20.5l266 199q10 8 24 8t25 -8l267 -199q10 -7 12 -20.5t-4 -22.5l-41 -59q-6 -11 -19 -13t-24 5zM516 1038q81 5 145.5 -5.5t107.5 -30.5t74.5 -55t48.5 -69.5t27 -83.5t12.5 -89t2.5 -93v-581
q0 -12 -9.5 -21.5t-21.5 -9.5h-61q-13 0 -24.5 8.5t-14.5 20.5l-25 77q-60 -60 -140.5 -92t-154.5 -32q-88 0 -156 23.5t-105.5 57.5t-61 79t-30.5 80.5t-7 68.5q0 73 21.5 129t56 91t86.5 58.5t103 33.5t115.5 12t114.5 -1t109 -10v23q0 78 -11.5 126t-38.5 73t-61 33.5
t-90 8.5q-40 0 -112.5 -15t-136.5 -38q-12 -5 -24.5 -0.5t-16.5 16.5l-35 84q-6 12 -1.5 24.5t15.5 18.5q148 71 299 80zM729 289v157q-416 50 -416 -139q0 -78 50.5 -121t125.5 -43q80 0 144 45.5t96 100.5z" />
    <glyph glyph-name="atilde" unicode="&#xe3;" horiz-adv-x="1097" 
d="M438 1282q-27 0 -48 -12t-42 -47q-6 -11 -18.5 -15t-24.5 2l-53 25q-11 6 -15.5 18.5t-0.5 24.5q31 84 85.5 120t118.5 36q43 0 80 -20t68.5 -40t60.5 -20q52 0 90 53q8 11 20 14.5t23 -2.5l64 -33q11 -6 14.5 -18.5t-2.5 -24.5q-74 -141 -213 -141q-46 0 -106.5 40
t-100.5 40zM516 1038q81 5 145.5 -5.5t107.5 -30.5t74.5 -55t48.5 -69.5t27 -83.5t12.5 -89t2.5 -93v-581q0 -12 -9.5 -21.5t-21.5 -9.5h-61q-13 0 -24.5 8.5t-14.5 20.5l-25 77q-60 -60 -140.5 -92t-154.5 -32q-88 0 -156 23.5t-105.5 57.5t-61 79t-30.5 80.5t-7 68.5
q0 73 21.5 129t56 91t86.5 58.5t103 33.5t115.5 12t114.5 -1t109 -10v23q0 78 -11.5 126t-38.5 73t-61 33.5t-90 8.5q-40 0 -112.5 -15t-136.5 -38q-12 -5 -24.5 -0.5t-16.5 16.5l-35 84q-6 12 -1.5 24.5t15.5 18.5q148 71 299 80zM729 289v157q-416 50 -416 -139
q0 -78 50.5 -121t125.5 -43q80 0 144 45.5t96 100.5z" />
    <glyph glyph-name="adieresis" unicode="&#xe4;" horiz-adv-x="1097" 
d="M182 1333q0 52 34.5 87.5t86.5 35.5q51 0 87 -36t36 -87q0 -52 -35.5 -86.5t-87.5 -34.5q-53 0 -87 34t-34 87zM672 1333q0 52 34.5 87.5t86.5 35.5q51 0 86.5 -36t35.5 -87q0 -52 -35.5 -86.5t-86.5 -34.5q-53 0 -87 34t-34 87zM516 1038q81 5 145.5 -5.5t107.5 -30.5
t74.5 -55t48.5 -69.5t27 -83.5t12.5 -89t2.5 -93v-581q0 -12 -9.5 -21.5t-21.5 -9.5h-61q-13 0 -24.5 8.5t-14.5 20.5l-25 77q-60 -60 -140.5 -92t-154.5 -32q-88 0 -156 23.5t-105.5 57.5t-61 79t-30.5 80.5t-7 68.5q0 73 21.5 129t56 91t86.5 58.5t103 33.5t115.5 12
t114.5 -1t109 -10v23q0 78 -11.5 126t-38.5 73t-61 33.5t-90 8.5q-40 0 -112.5 -15t-136.5 -38q-12 -5 -24.5 -0.5t-16.5 16.5l-35 84q-6 12 -1.5 24.5t15.5 18.5q148 71 299 80zM729 289v157q-416 50 -416 -139q0 -78 50.5 -121t125.5 -43q80 0 144 45.5t96 100.5z" />
    <glyph glyph-name="aring" unicode="&#xe5;" horiz-adv-x="1097" 
d="M340 1409q0 86 61.5 147.5t147.5 61.5t146.5 -61.5t60.5 -147.5t-60.5 -146.5t-146.5 -60.5t-147.5 60.5t-61.5 146.5zM465 1409q0 -32 25 -57t59 -25q32 0 57 25t25 57q0 34 -25 59t-57 25q-34 0 -59 -25t-25 -59zM516 1038q81 5 145.5 -5.5t107.5 -30.5t74.5 -55
t48.5 -69.5t27 -83.5t12.5 -89t2.5 -93v-581q0 -12 -9.5 -21.5t-21.5 -9.5h-61q-13 0 -24.5 8.5t-14.5 20.5l-25 77q-60 -60 -140.5 -92t-154.5 -32q-88 0 -156 23.5t-105.5 57.5t-61 79t-30.5 80.5t-7 68.5q0 73 21.5 129t56 91t86.5 58.5t103 33.5t115.5 12t114.5 -1
t109 -10v23q0 78 -11.5 126t-38.5 73t-61 33.5t-90 8.5q-40 0 -112.5 -15t-136.5 -38q-12 -5 -24.5 -0.5t-16.5 16.5l-35 84q-6 12 -1.5 24.5t15.5 18.5q148 71 299 80zM729 289v157q-416 50 -416 -139q0 -78 50.5 -121t125.5 -43q80 0 144 45.5t96 100.5z" />
    <glyph glyph-name="ae" unicode="&#xe6;" horiz-adv-x="1705" 
d="M1198 164q159 0 281 98q9 8 21.5 7.5t21.5 -9.5l67 -82q9 -9 8 -22t-10 -21q-85 -75 -178 -111t-211 -36q-243 0 -381 155q-6 -6 -19.5 -18.5t-19.5 -18.5q-60 -60 -140.5 -92t-154.5 -32q-88 0 -156 23.5t-105.5 57.5t-61 79t-30.5 80.5t-7 68.5q0 375 571 315
q4 44 27 117q-13 88 -56.5 116.5t-136.5 28.5q-40 0 -112.5 -15t-136.5 -38q-12 -5 -24.5 -0.5t-16.5 16.5l-35 84q-6 12 -1.5 24.5t15.5 18.5q148 71 299 80q245 14 340 -106q134 117 342 117q223 0 331.5 -150.5t74.5 -396.5q-1 -13 -11 -22t-24 -9h-676q5 -39 15 -76
t33 -80.5t54.5 -75.5t84.5 -53.5t118 -21.5zM1198 879q-57 0 -104 -16t-78 -41t-55.5 -60.5t-37.5 -68.5t-22 -70h516q6 42 -1.5 84t-31 80.5t-71.5 63.5t-115 28zM489 143q80 0 144 45.5t96 100.5q-27 71 -37 162q-38 4 -72.5 6t-81 1t-83.5 -10t-70.5 -25t-52.5 -45.5
t-19 -70.5q0 -78 50.5 -121t125.5 -43z" />
    <glyph glyph-name="ccedilla" unicode="&#xe7;" horiz-adv-x="1142" 
d="M608 -147h-2q-18 0 -35 10q-14 11 -14 28v93q-100 10 -177.5 48t-125 91.5t-78 123.5t-42 136t-11.5 137q0 69 15 138t52 141.5t93 127t146.5 89.5t203.5 35q217 0 366 -156q9 -9 8 -22t-10 -21l-92 -84q-9 -9 -22.5 -8.5t-22.5 8.5q-98 90 -227 90q-126 0 -215.5 -90.5
t-89.5 -247.5q0 -67 19.5 -130t56 -114.5t95 -82.5t130.5 -31q131 0 237 96q9 9 22.5 9t20.5 -9l76 -86q9 -9 8.5 -22.5t-10.5 -22.5q-136 -132 -303 -145v-35h12q98 -4 146 -65t43 -132q-7 -98 -73 -150t-155 -49q-86 3 -149 43q-10 7 -13 21.5t3 24.5l28 49
q6 10 18.5 13.5t22.5 -1.5q53 -23 90 -23q33 0 58 21.5t30 50.5q5 43 -26.5 73.5t-106.5 29.5z" />
    <glyph glyph-name="egrave" unicode="&#xe8;" horiz-adv-x="1110" 
d="M602 164q159 0 281 98q9 8 21.5 7.5t21.5 -9.5l67 -82q9 -9 8 -22t-10 -21q-85 -75 -178 -111t-211 -36q-113 0 -203.5 34.5t-146.5 89t-93 126.5t-52 141.5t-15 140.5q0 57 11 114.5t33.5 118t63.5 113t95 94t133 65.5t174 24q223 0 331.5 -150.5t74.5 -396.5
q-1 -13 -11 -22t-24 -9h-676q5 -39 15 -76t33 -80.5t54.5 -75.5t84.5 -53.5t118 -21.5zM602 879q-57 0 -104 -16t-78 -41t-55.5 -60.5t-37.5 -68.5t-22 -70h516q6 42 -1.5 84t-31 80.5t-71.5 63.5t-115 28zM743 1290l-41 -59q-6 -11 -19 -13t-24 5l-282 174q-10 6 -13 19
t3 22l59 88q8 9 20 11t23 -5l266 -199q10 -7 12 -20.5t-4 -22.5z" />
    <glyph glyph-name="eacute" unicode="&#xe9;" horiz-adv-x="1110" 
d="M602 164q159 0 281 98q9 8 21.5 7.5t21.5 -9.5l67 -82q9 -9 8 -22t-10 -21q-85 -75 -178 -111t-211 -36q-113 0 -203.5 34.5t-146.5 89t-93 126.5t-52 141.5t-15 140.5q0 57 11 114.5t33.5 118t63.5 113t95 94t133 65.5t174 24q223 0 331.5 -150.5t74.5 -396.5
q-1 -13 -11 -22t-24 -9h-676q5 -39 15 -76t33 -80.5t54.5 -75.5t84.5 -53.5t118 -21.5zM602 879q-57 0 -104 -16t-78 -41t-55.5 -60.5t-37.5 -68.5t-22 -70h516q6 42 -1.5 84t-31 80.5t-71.5 63.5t-115 28zM408 1231l-41 59q-6 9 -4 22.5t12 20.5l266 199q11 7 23 5t20 -11
l59 -88q6 -9 3 -22t-13 -19l-282 -174q-11 -7 -24 -5t-19 13z" />
    <glyph glyph-name="ecircumflex" unicode="&#xea;" horiz-adv-x="1110" 
d="M602 164q159 0 281 98q9 8 21.5 7.5t21.5 -9.5l67 -82q9 -9 8 -22t-10 -21q-85 -75 -178 -111t-211 -36q-113 0 -203.5 34.5t-146.5 89t-93 126.5t-52 141.5t-15 140.5q0 57 11 114.5t33.5 118t63.5 113t95 94t133 65.5t174 24q223 0 331.5 -150.5t74.5 -396.5
q-1 -13 -11 -22t-24 -9h-676q5 -39 15 -76t33 -80.5t54.5 -75.5t84.5 -53.5t118 -21.5zM602 879q-57 0 -104 -16t-78 -41t-55.5 -60.5t-37.5 -68.5t-22 -70h516q6 42 -1.5 84t-31 80.5t-71.5 63.5t-115 28zM588 1352l-215 -131q-11 -7 -24 -5t-19 13l-41 59q-6 9 -4 22.5
t12 20.5l266 199q10 8 24 8t25 -8l267 -199q10 -7 12 -20.5t-4 -22.5l-41 -59q-6 -11 -19 -13t-24 5z" />
    <glyph glyph-name="edieresis" unicode="&#xeb;" horiz-adv-x="1110" 
d="M223 1333q0 52 34.5 87.5t86.5 35.5q51 0 87 -36t36 -87q0 -52 -35.5 -86.5t-87.5 -34.5t-86.5 34t-34.5 87zM713 1333q0 52 34.5 87.5t86.5 35.5q51 0 86.5 -36t35.5 -87q0 -52 -35.5 -86.5t-86.5 -34.5q-52 0 -86.5 34t-34.5 87zM602 164q159 0 281 98q9 8 21.5 7.5
t21.5 -9.5l67 -82q9 -9 8 -22t-10 -21q-85 -75 -178 -111t-211 -36q-113 0 -203.5 34.5t-146.5 89t-93 126.5t-52 141.5t-15 140.5q0 57 11 114.5t33.5 118t63.5 113t95 94t133 65.5t174 24q223 0 331.5 -150.5t74.5 -396.5q-1 -13 -11 -22t-24 -9h-676q5 -39 15 -76
t33 -80.5t54.5 -75.5t84.5 -53.5t118 -21.5zM602 879q-57 0 -104 -16t-78 -41t-55.5 -60.5t-37.5 -68.5t-22 -70h516q6 42 -1.5 84t-31 80.5t-71.5 63.5t-115 28z" />
    <glyph glyph-name="igrave" unicode="&#xec;" horiz-adv-x="491" 
d="M346 993v-964q0 -12 -9.5 -21.5t-21.5 -9.5h-143q-12 0 -21.5 9.5t-9.5 21.5v964q0 12 9.5 21.5t21.5 9.5h143q12 0 21.5 -9.5t9.5 -21.5zM160 1532l266 -199q10 -7 12 -20.5t-4 -22.5l-41 -59q-6 -11 -19 -13t-24 5l-282 174q-10 6 -13.5 19t2.5 22l60 88q8 9 20 11
t23 -5z" />
    <glyph glyph-name="iacute" unicode="&#xed;" horiz-adv-x="491" 
d="M346 995v-964q0 -12 -9.5 -21.5t-21.5 -9.5h-143q-12 0 -21.5 9.5t-9.5 21.5v964q0 12 9.5 21.5t21.5 9.5h143q12 0 21.5 -9.5t9.5 -21.5zM66 1333l266 199q9 7 22 5t19 -11l59 -88q8 -9 5 -22t-13 -19l-283 -174q-11 -7 -24 -5t-19 13l-41 59q-6 9 -3.5 22.5t12.5 20.5z
" />
    <glyph glyph-name="icircumflex" unicode="&#xee;" horiz-adv-x="630" 
d="M412 993v-962q0 -12 -9.5 -21.5t-21.5 -9.5h-143q-12 0 -21.5 9.5t-9.5 21.5v962q0 12 9.5 21.5t21.5 9.5h143q12 0 21.5 -9.5t9.5 -21.5zM25 1331l266 199q11 8 25 8t24 -8l266 -199q10 -7 12 -20.5t-4 -22.5l-41 -59q-6 -11 -19 -13t-24 5l-215 131l-215 -131
q-11 -7 -24 -5t-19 13l-41 59q-6 9 -3.5 22.5t12.5 20.5z" />
    <glyph glyph-name="idieresis" unicode="&#xef;" horiz-adv-x="733" 
d="M467 993v-962q0 -12 -9.5 -21.5t-21.5 -9.5h-143q-12 0 -21.5 9.5t-9.5 21.5v962q0 12 9.5 21.5t21.5 9.5h143q12 0 21.5 -9.5t9.5 -21.5zM494 1364q9 40 40.5 66t75.5 26q51 0 87 -36t36 -87q0 -52 -35.5 -86.5t-87.5 -34.5q-44 0 -75.5 25.5t-40.5 65.5q-9 31 0 61z
M0 1333q0 52 34.5 87.5t86.5 35.5q51 0 87 -36t36 -87q0 -52 -35.5 -86.5t-87.5 -34.5q-53 0 -87 34t-34 87z" />
    <glyph glyph-name="eth" unicode="&#xf0;" horiz-adv-x="1196" 
d="M647 1102l-84 -84q-9 -8 -22.5 -7.5t-22.5 9.5l-63 63q-9 9 -9 22t9 21l82 82q-74 55 -127 90q-10 6 -13.5 19t2.5 22l60 86q6 12 19.5 15.5t23.5 -2.5q77 -45 157 -107l97 96q9 9 22.5 9t22.5 -9l63 -63q9 -9 9 -22.5t-9 -22.5l-90 -90q305 -312 297 -795
q0 -33 -6 -69.5t-21.5 -81t-38 -85t-60.5 -79.5t-85 -67.5t-114.5 -46t-147.5 -17.5q-92 0 -168.5 23t-126.5 62.5t-86.5 86t-56 98.5t-28.5 95t-9 81q0 57 11.5 113.5t44 121t83.5 112.5t138 80t198 32q53 0 121.5 -23.5t99.5 -54.5q-59 163 -172 287zM598 164
q129 0 201.5 84t72.5 198q-3 117 -74 198t-200 81q-131 0 -203.5 -83t-72.5 -196q0 -114 73.5 -198t202.5 -84z" />
    <glyph glyph-name="ntilde" unicode="&#xf1;" horiz-adv-x="1185" 
d="M369 733v-702q0 -12 -9.5 -21.5t-21.5 -9.5h-143q-12 0 -21.5 9.5t-9.5 21.5v962q0 12 9.5 21.5t21.5 9.5h61q30 0 41 -29l25 -75q126 120 309 120q79 0 143.5 -16t109 -43t77.5 -67.5t52 -83t30.5 -96.5t15.5 -101.5t4 -104.5v-497q0 -12 -9.5 -21.5t-21.5 -9.5h-145
q-12 0 -21.5 9.5t-9.5 21.5v497q-1 8 -1.5 43t-3 59.5t-9.5 63t-23 66t-40 54t-64.5 40.5t-93.5 14q-85 0 -152 -40t-100 -95zM825 1419l64 -33q11 -6 14.5 -18.5t-2.5 -24.5q-74 -141 -213 -141q-46 0 -106.5 40t-100.5 40q-27 0 -48 -12t-42 -47q-6 -11 -18.5 -15t-24.5 2
l-53 25q-11 6 -15.5 18.5t-0.5 24.5q31 84 85.5 120t118.5 36q43 0 80 -20t68.5 -40t60.5 -20q52 0 90 53q8 11 20 14.5t23 -2.5z" />
    <glyph glyph-name="ograve" unicode="&#xf2;" horiz-adv-x="1265" 
d="M633 1040q113 0 203.5 -34.5t146.5 -89t93 -126t52 -140.5t15 -138q0 -71 -15 -140.5t-52 -140.5t-93 -125t-146.5 -88t-203.5 -34t-203.5 34t-146.5 88t-93 125t-52 140.5t-15 140.5q0 69 15 138t52 140.5t93 126t146.5 89t203.5 34.5zM633 154q55 0 101 15.5t77 39.5
t55 57.5t37.5 66.5t22 69t11.5 62t3 48t-3 48t-11.5 62t-22 69t-37.5 66.5t-55 57.5t-77 39.5t-101 15.5t-101 -15.5t-77 -39.5t-55 -57.5t-37.5 -66.5t-22 -69t-11.5 -62t-3 -48t3 -48t11.5 -62t22 -69t37.5 -66.5t55 -57.5t77 -39.5t101 -15.5zM786 1290l-41 -59
q-6 -11 -19 -13t-24 5l-282 174q-10 6 -13 19t3 22l59 88q8 9 20 11t23 -5l266 -199q10 -7 12 -20.5t-4 -22.5z" />
    <glyph glyph-name="oacute" unicode="&#xf3;" horiz-adv-x="1265" 
d="M633 1040q113 0 203.5 -34.5t146.5 -89t93 -126t52 -140.5t15 -138q0 -71 -15 -140.5t-52 -140.5t-93 -125t-146.5 -88t-203.5 -34t-203.5 34t-146.5 88t-93 125t-52 140.5t-15 140.5q0 69 15 138t52 140.5t93 126t146.5 89t203.5 34.5zM633 154q55 0 101 15.5t77 39.5
t55 57.5t37.5 66.5t22 69t11.5 62t3 48t-3 48t-11.5 62t-22 69t-37.5 66.5t-55 57.5t-77 39.5t-101 15.5t-101 -15.5t-77 -39.5t-55 -57.5t-37.5 -66.5t-22 -69t-11.5 -62t-3 -48t3 -48t11.5 -62t22 -69t37.5 -66.5t55 -57.5t77 -39.5t101 -15.5zM451 1231l-41 59
q-6 9 -4 22.5t12 20.5l266 199q11 7 23 5t20 -11l59 -88q6 -9 3 -22t-13 -19l-282 -174q-11 -7 -24 -5t-19 13z" />
    <glyph glyph-name="ocircumflex" unicode="&#xf4;" horiz-adv-x="1265" 
d="M633 1040q113 0 203.5 -34.5t146.5 -89t93 -126t52 -140.5t15 -138q0 -71 -15 -140.5t-52 -140.5t-93 -125t-146.5 -88t-203.5 -34t-203.5 34t-146.5 88t-93 125t-52 140.5t-15 140.5q0 69 15 138t52 140.5t93 126t146.5 89t203.5 34.5zM633 154q55 0 101 15.5t77 39.5
t55 57.5t37.5 66.5t22 69t11.5 62t3 48t-3 48t-11.5 62t-22 69t-37.5 66.5t-55 57.5t-77 39.5t-101 15.5t-101 -15.5t-77 -39.5t-55 -57.5t-37.5 -66.5t-22 -69t-11.5 -62t-3 -48t3 -48t11.5 -62t22 -69t37.5 -66.5t55 -57.5t77 -39.5t101 -15.5zM633 1352l-215 -131
q-11 -7 -24 -5t-19 13l-41 59q-6 9 -4 22.5t12 20.5l266 199q10 8 24 8t25 -8l267 -199q10 -7 12 -20.5t-4 -22.5l-41 -59q-6 -11 -19 -13t-24 5z" />
    <glyph glyph-name="otilde" unicode="&#xf5;" horiz-adv-x="1265" 
d="M522 1282q-27 0 -48 -12t-42 -47q-6 -11 -18.5 -15t-24.5 2l-53 25q-11 6 -16 18.5t-1 24.5q31 84 86 120t119 36q43 0 80 -20t68.5 -40t60.5 -20q52 0 90 53q8 11 20 14.5t23 -2.5l64 -33q11 -6 14.5 -18.5t-2.5 -24.5q-74 -141 -213 -141q-46 0 -106.5 40t-100.5 40z
M633 1040q113 0 203.5 -34.5t146.5 -89t93 -126t52 -140.5t15 -138q0 -71 -15 -140.5t-52 -140.5t-93 -125t-146.5 -88t-203.5 -34t-203.5 34t-146.5 88t-93 125t-52 140.5t-15 140.5q0 69 15 138t52 140.5t93 126t146.5 89t203.5 34.5zM633 154q55 0 101 15.5t77 39.5
t55 57.5t37.5 66.5t22 69t11.5 62t3 48t-3 48t-11.5 62t-22 69t-37.5 66.5t-55 57.5t-77 39.5t-101 15.5t-101 -15.5t-77 -39.5t-55 -57.5t-37.5 -66.5t-22 -69t-11.5 -62t-3 -48t3 -48t11.5 -62t22 -69t37.5 -66.5t55 -57.5t77 -39.5t101 -15.5z" />
    <glyph glyph-name="odieresis" unicode="&#xf6;" horiz-adv-x="1265" 
d="M633 1040q113 0 203.5 -34.5t146.5 -89t93 -126t52 -140.5t15 -138q0 -71 -15 -140.5t-52 -140.5t-93 -125t-146.5 -88t-203.5 -34t-203.5 34t-146.5 88t-93 125t-52 140.5t-15 140.5q0 69 15 138t52 140.5t93 126t146.5 89t203.5 34.5zM633 154q55 0 101 15.5t77 39.5
t55 57.5t37.5 66.5t22 69t11.5 62t3 48t-3 48t-11.5 62t-22 69t-37.5 66.5t-55 57.5t-77 39.5t-101 15.5t-101 -15.5t-77 -39.5t-55 -57.5t-37.5 -66.5t-22 -69t-11.5 -62t-3 -48t3 -48t11.5 -62t22 -69t37.5 -66.5t55 -57.5t77 -39.5t101 -15.5zM266 1333q0 52 34.5 87.5
t86.5 35.5q51 0 87 -36t36 -87q0 -52 -35.5 -86.5t-87.5 -34.5q-53 0 -87 34t-34 87zM756 1333q0 52 34.5 87.5t86.5 35.5q51 0 86.5 -36t35.5 -87q0 -52 -35.5 -86.5t-86.5 -34.5q-53 0 -87 34t-34 87z" />
    <glyph glyph-name="divide" unicode="&#xf7;" horiz-adv-x="944" 
d="M154 479h637q12 0 21 -9t9 -21v-93q0 -12 -9 -21t-21 -9h-637q-12 0 -21.5 9t-9.5 21v93q0 12 9.5 21t21.5 9zM369 156q9 34 36.5 54.5t65.5 20.5q45 0 77 -30.5t32 -75.5q0 -44 -32.5 -77.5t-76.5 -33.5q-37 0 -65 22.5t-37 57.5q-9 31 0 62zM365 709q0 46 30 77t76 31
q45 0 77 -31.5t32 -76.5q0 -44 -32.5 -77.5t-76.5 -33.5q-45 0 -75.5 33t-30.5 78z" />
    <glyph glyph-name="oslash" unicode="&#xf8;" horiz-adv-x="1265" 
d="M1012 885q67 -76 99 -176t32 -197q0 -71 -15 -140.5t-52 -140.5t-93 -125t-146.5 -88t-203.5 -34q-182 0 -305 86l-64 -78q-22 -22 -45 -2l-61 49q-22 23 -2 43l71 86q-104 142 -104 344q0 69 15 138t52 140.5t93 126t146.5 89t203.5 34.5q156 0 270 -65l92 110
q9 11 21.5 12.5t21.5 -7.5l62 -50q11 -9 12 -21.5t-8 -23.5zM326 512q0 -95 36 -182l422 501q-64 39 -151 39q-55 0 -101 -15.5t-77 -39.5t-55 -57.5t-37.5 -66.5t-22 -69t-11.5 -62t-3 -48zM633 154q55 0 101 15.5t77 39.5t55 57.5t37.5 66.5t22 69t11.5 62t3 48
q0 122 -57 219l-434 -518q72 -59 184 -59z" />
    <glyph glyph-name="ugrave" unicode="&#xf9;" horiz-adv-x="1185" 
d="M817 291v702q0 12 9.5 21.5t21.5 9.5h143q12 0 21.5 -9.5t9.5 -21.5v-962q0 -12 -9.5 -21.5t-21.5 -9.5h-61q-30 0 -41 29l-25 75q-126 -120 -309 -120q-79 0 -143.5 16t-109 43t-77.5 67.5t-52 83t-30.5 96.5t-15.5 101.5t-4 104.5v497q0 12 9.5 21.5t21.5 9.5h145
q12 0 21.5 -9.5t9.5 -21.5v-497q1 -8 1.5 -43t3 -59.5t9.5 -63t23 -66t40 -54t64.5 -40.5t93.5 -14q85 0 152 40t100 95zM473 1532l266 -199q10 -7 12.5 -20.5t-3.5 -22.5l-41 -59q-6 -11 -19 -13t-24 5l-283 174q-10 6 -13 19t3 22l59 88q8 9 20 11t23 -5z" />
    <glyph glyph-name="uacute" unicode="&#xfa;" horiz-adv-x="1185" 
d="M817 291v702q0 12 9.5 21.5t21.5 9.5h143q12 0 21.5 -9.5t9.5 -21.5v-962q0 -12 -9.5 -21.5t-21.5 -9.5h-61q-30 0 -41 29l-25 75q-126 -120 -309 -120q-79 0 -143.5 16t-109 43t-77.5 67.5t-52 83t-30.5 96.5t-15.5 101.5t-4 104.5v497q0 12 9.5 21.5t21.5 9.5h145
q12 0 21.5 -9.5t9.5 -21.5v-497q1 -8 1.5 -43t3 -59.5t9.5 -63t23 -66t40 -54t64.5 -40.5t93.5 -14q85 0 152 40t100 95zM403 1333l267 199q11 7 23 5t20 -11l59 -88q6 -9 3 -22t-13 -19l-283 -174q-11 -7 -24 -5t-19 13l-41 59q-6 9 -4 22.5t12 20.5z" />
    <glyph glyph-name="ucircumflex" unicode="&#xfb;" horiz-adv-x="1185" 
d="M817 291v702q0 12 9.5 21.5t21.5 9.5h143q12 0 21.5 -9.5t9.5 -21.5v-962q0 -12 -9.5 -21.5t-21.5 -9.5h-61q-30 0 -41 29l-25 75q-126 -120 -309 -120q-79 0 -143.5 16t-109 43t-77.5 67.5t-52 83t-30.5 96.5t-15.5 101.5t-4 104.5v497q0 12 9.5 21.5t21.5 9.5h145
q12 0 21.5 -9.5t9.5 -21.5v-497q1 -8 1.5 -43t3 -59.5t9.5 -63t23 -66t40 -54t64.5 -40.5t93.5 -14q85 0 152 40t100 95zM301 1331l266 199q11 8 25 8t24 -8l267 -199q10 -7 12 -20.5t-4 -22.5l-41 -59q-6 -11 -19 -13t-24 5l-215 131l-215 -131q-11 -7 -24 -5t-19 13
l-41 59q-6 9 -4 22.5t12 20.5z" />
    <glyph glyph-name="udieresis" unicode="&#xfc;" horiz-adv-x="1185" 
d="M817 291v733h205v-1024h-123l-35 104q-126 -120 -309 -120q-79 0 -143.5 16t-109 43t-77.5 67.5t-52 83t-30.5 96.5t-15.5 101.5t-4 104.5v528h207v-528q1 -8 1.5 -43t3 -59.5t9.5 -63t23 -66t40 -54t64.5 -40.5t93.5 -14q85 0 152 40t100 95zM207 1333q0 52 34.5 87.5
t86.5 35.5q51 0 87 -36t36 -87q0 -52 -35.5 -86.5t-87.5 -34.5t-86.5 34t-34.5 87zM696 1333q0 52 34.5 87.5t86.5 35.5q51 0 87 -36t36 -87q0 -52 -35.5 -86.5t-87.5 -34.5q-53 0 -87 34t-34 87z" />
    <glyph glyph-name="yacute" unicode="&#xfd;" horiz-adv-x="1177" 
d="M297 995l293 -710l284 710q14 29 44 29h167q11 0 17 -9.5t2 -19.5l-582 -1374q-13 -29 -43 -29h-155q-11 0 -17 9.5t-2 19.5l176 420l-407 954q-4 10 1.5 19.5t16.5 9.5h162q28 0 43 -29zM410 1333l266 199q9 7 22 5t19 -11l59 -88q8 -9 5 -22t-13 -19l-283 -174
q-11 -7 -24 -5t-19 13l-41 59q-6 9 -3.5 22.5t12.5 20.5z" />
    <glyph glyph-name="thorn" unicode="&#xfe;" 
d="M590 -16q-124 6 -221 55v-418q0 -12 -9.5 -21.5t-21.5 -9.5h-143q-12 0 -21.5 9.5t-9.5 21.5v1782q0 12 9.5 21.5t21.5 9.5h143q12 0 21.5 -9.5t9.5 -21.5v-418q107 55 252 55q113 0 203.5 -34.5t146 -89t93 -126t52 -140.5t14.5 -138q0 -67 -14 -134t-49 -137.5
t-87.5 -124.5t-137.5 -90.5t-191 -41.5h-61zM369 799v-574q43 -33 108 -52t127 -19q77 0 137 27.5t94 67.5t56 91.5t29.5 93t7.5 78.5t-7.5 78.5t-29.5 93t-56 91.5t-94 67.5t-137 27.5q-62 0 -127 -19t-108 -52z" />
    <glyph glyph-name="ydieresis" unicode="&#xff;" horiz-adv-x="1159" 
d="M287 995l293 -710l284 710q14 29 43 29h178q5 0 9 -4t4 -8q0 -9 -4 -21l-582 -1370q-13 -29 -43 -29h-168q-10 0 -10 11q0 10 4 22l176 416l-405 950q-5 15 -5 21q0 12 11 12h172q28 0 43 -29zM231 1364q9 40 41 66t76 26q51 0 87 -36t36 -87q0 -52 -35.5 -86.5
t-87.5 -34.5q-44 0 -76 25.5t-41 65.5q-9 31 0 61zM717 1333q0 52 34.5 87.5t86.5 35.5q51 0 87 -36t36 -87q0 -52 -35.5 -86.5t-87.5 -34.5t-86.5 34t-34.5 87z" />
    <glyph glyph-name="Amacron" unicode="&#x100;" horiz-adv-x="1413" 
d="M1110 31l-139 348h-529l-139 -348q-13 -29 -43 -29h-168q-11 0 -16.5 9.5t-1.5 19.5l592 1390q14 27 41 27q28 0 38 -27l594 -1390q4 -10 -1.5 -19.5t-16.5 -9.5h-168q-30 0 -43 29zM707 1034l-191 -473h381zM434 1774h555q12 0 21.5 -9.5t9.5 -21.5v-82
q0 -12 -9.5 -21.5t-21.5 -9.5h-555q-12 0 -21.5 9.5t-9.5 21.5v82q0 12 9.5 21.5t21.5 9.5z" />
    <glyph glyph-name="amacron" unicode="&#x101;" horiz-adv-x="1097" 
d="M856 1333v-82q0 -12 -9.5 -21t-21.5 -9h-555q-12 0 -21 9t-9 21v82q0 12 9 21.5t21 9.5h555q12 0 21.5 -9.5t9.5 -21.5zM516 1038q81 5 145.5 -5.5t107.5 -30.5t74.5 -55t48.5 -69.5t27 -83.5t12.5 -89t2.5 -93v-581q0 -12 -9.5 -21.5t-21.5 -9.5h-61q-13 0 -24.5 8.5
t-14.5 20.5l-25 77q-60 -60 -140.5 -92t-154.5 -32q-88 0 -156 23.5t-105.5 57.5t-61 79t-30.5 80.5t-7 68.5q0 73 21.5 129t56 91t86.5 58.5t103 33.5t115.5 12t114.5 -1t109 -10v23q0 76 -13 124.5t-41.5 72t-61.5 31t-85 7.5q-40 0 -112.5 -15t-136.5 -38
q-12 -5 -24.5 -0.5t-16.5 16.5l-35 90q-6 12 -1.5 24.5t15.5 18.5q148 71 299 80zM729 289v157q-416 50 -416 -139q0 -78 50.5 -121t125.5 -43q80 0 144 45.5t96 100.5z" />
    <glyph glyph-name="Abreve" unicode="&#x102;" horiz-adv-x="1423" 
d="M1110 31l-139 348h-529l-139 -348q-13 -29 -43 -29h-168q-11 0 -16.5 9.5t-1.5 19.5l592 1390q14 27 41 27q28 0 38 -27l594 -1390q4 -10 -1.5 -19.5t-16.5 -9.5h-168q-30 0 -43 29zM707 1034l-191 -473h381zM883 1896l82 -24q12 -3 17.5 -14.5t2.5 -22.5
q-34 -98 -108 -155.5t-168 -57.5t-168.5 57t-106.5 156q-4 12 2.5 23t18.5 14l80 24q10 3 20.5 -3t15.5 -17q19 -52 55.5 -80.5t82.5 -28.5q47 0 83.5 28t53.5 79q4 12 15 18.5t22 3.5z" />
    <glyph glyph-name="abreve" unicode="&#x103;" horiz-adv-x="1097" 
d="M516 1038q81 5 145.5 -5.5t107.5 -30.5t74.5 -55t48.5 -69.5t27 -83.5t12.5 -89t2.5 -93v-581q0 -12 -9.5 -21.5t-21.5 -9.5h-61q-13 0 -24.5 8.5t-14.5 20.5l-25 77q-60 -60 -140.5 -92t-154.5 -32q-88 0 -156 23.5t-105.5 57.5t-61 79t-30.5 80.5t-7 68.5
q0 73 21.5 129t56 91t86.5 58.5t103 33.5t115.5 12t114.5 -1t109 -10v23q0 78 -11.5 126t-38.5 73t-61 33.5t-90 8.5q-40 0 -112.5 -15t-136.5 -38q-12 -5 -24.5 -0.5t-16.5 16.5l-35 84q-6 12 -1.5 24.5t15.5 18.5q148 71 299 80zM729 289v157q-416 50 -416 -139
q0 -78 50.5 -121t125.5 -43q80 0 144 45.5t96 100.5zM549 1212q-94 0 -168.5 57t-106.5 156q-4 12 2.5 23t18.5 14l80 25q10 3 21 -3.5t16 -17.5q19 -52 55 -80t82 -28q48 0 84 27.5t53 78.5q5 12 16 19t21 4l82 -25q12 -3 17.5 -14.5t2.5 -22.5q-34 -98 -108 -155.5
t-168 -57.5z" />
    <glyph glyph-name="Aogonek" unicode="&#x104;" horiz-adv-x="1384" 
d="M1122 2l-159 379h-514l-146 -352q-13 -29 -43 -29h-168q-11 0 -16.5 9.5t-1.5 19.5l596 1396q11 25 35 25q25 0 36 -25l598 -1396q4 -10 -1.5 -19.5t-16.5 -9.5h-70v-2q0 -21 -35.5 -90.5t-35.5 -112.5q0 -53 30.5 -82.5t87.5 -29.5q55 0 113 22q11 3 20 -3.5t9 -16.5
v-70q0 -30 -29 -43q-80 -25 -139 -25q-102 0 -170 55t-68 162q0 46 21.5 94.5t44.5 86.5t24 55q-2 0 -2 2zM707 1026l-183 -463h363z" />
    <glyph glyph-name="aogonek" unicode="&#x105;" horiz-adv-x="1097" 
d="M981 -317q55 0 113 22q10 3 19 -3t9 -17v-70q0 -31 -28 -43q-80 -25 -140 -25q-102 0 -169.5 55t-67.5 162q0 47 22.5 97t45 87.5t22.5 55.5l-29 102q-60 -60 -140.5 -92t-154.5 -32q-88 0 -156 23.5t-105.5 57.5t-61 79t-30.5 80.5t-7 68.5q0 87 30.5 150.5t83.5 99.5
t116.5 52.5t138.5 16.5q98 0 237 -41v56q0 65 -9.5 109.5t-24.5 69.5t-43 38t-54.5 16.5t-69.5 3.5q-39 0 -109.5 -16t-135.5 -41q-12 -5 -24.5 -0.5t-16.5 16.5l-39 94q-6 12 -1.5 24.5t15.5 18.5q148 71 299 80q81 5 145.5 -5.5t107.5 -30.5t74.5 -55t48.5 -69.5t27 -83.5
t12.5 -89t2.5 -93v-614q0 -21 -36 -90.5t-36 -112.5q0 -53 31 -82.5t88 -29.5zM729 289v123q-49 14 -68 19.5t-62 11.5t-91 6q-79 0 -137 -38.5t-58 -103.5q0 -74 51.5 -119t124.5 -45q80 0 144 45.5t96 100.5z" />
    <glyph glyph-name="Cacute" unicode="&#x106;" horiz-adv-x="1484" 
d="M1339 1202l-92 -92q-9 -8 -21.5 -7.5t-21.5 9.5q-68 66 -169 111t-204 45q-89 0 -163 -23.5t-124 -61t-89 -88.5t-60.5 -102t-35.5 -105.5t-18.5 -94.5t-4.5 -74t4.5 -73.5t18.5 -94.5t35.5 -105.5t60.5 -101t89 -88t124 -61t163 -23.5q200 0 383 152q9 8 21.5 6.5
t19.5 -11.5l84 -104q7 -11 6 -24.5t-10 -22.5q-202 -186 -504 -186q-114 0 -211.5 25t-168.5 67.5t-128 101.5t-94 124t-61.5 138.5t-34.5 142.5t-10 138q0 67 10 135t34.5 141.5t61.5 138.5t94 124.5t128 102.5t168.5 68t211.5 25q166 0 288.5 -53.5t221.5 -155.5
q9 -9 8 -22t-10 -21zM557 1743l266 199q9 7 22 4.5t19 -11.5l60 -88q7 -9 4.5 -22t-13.5 -19l-282 -174q-11 -7 -24 -5t-19 13l-41 60q-6 9 -4 22.5t12 20.5z" />
    <glyph glyph-name="cacute" unicode="&#x107;" horiz-adv-x="1142" 
d="M997 852l-92 -84q-9 -9 -22.5 -8.5t-22.5 8.5q-103 90 -229 90q-127 0 -215 -90.5t-88 -247.5q0 -67 19.5 -130t56 -114.5t95 -82.5t130.5 -31q131 0 237 96q9 9 22.5 9t20.5 -9l76 -86q9 -9 8.5 -22.5t-10.5 -22.5q-150 -147 -354 -147q-117 0 -208 34.5t-146 88
t-90.5 127t-48.5 144t-13 146.5q0 69 15 138t52 141.5t93 127t146.5 89.5t203.5 35q217 0 366 -156q9 -9 8 -22t-10 -21zM387 1333l266 199q9 7 22 5t19 -11l60 -88q7 -9 4.5 -22t-13.5 -19l-282 -174q-11 -7 -24 -5t-19 13l-41 59q-6 9 -4 22.5t12 20.5z" />
    <glyph glyph-name="Ccircumflex" unicode="&#x108;" horiz-adv-x="1484" 
d="M1339 1202l-92 -92q-9 -8 -21.5 -7.5t-21.5 9.5q-68 66 -169 111t-204 45q-89 0 -163 -23.5t-124 -61t-89 -88.5t-60.5 -102t-35.5 -105.5t-18.5 -94.5t-4.5 -74t4.5 -73.5t18.5 -94.5t35.5 -105.5t60.5 -101t89 -88t124 -61t163 -23.5q200 0 383 152q9 8 21.5 6.5
t19.5 -11.5l84 -104q7 -11 6 -24t-10 -21q-213 -190 -504 -190q-114 0 -211.5 25t-168.5 67.5t-128 102t-94 125t-61.5 139t-34.5 142.5t-10 138q0 67 10 135t34.5 141.5t61.5 138.5t94 124.5t128 102.5t168.5 68t211.5 25q166 0 288.5 -53.5t221.5 -155.5q9 -9 8 -22
t-10 -21zM545 1741l266 198q24 17 49 0l266 -198q10 -7 12.5 -20.5t-3.5 -22.5l-41 -60q-6 -11 -19 -13t-24 5l-215 131l-215 -131q-11 -7 -24 -5t-19 13l-41 60q-6 9 -4 22.5t12 20.5z" />
    <glyph glyph-name="ccircumflex" unicode="&#x109;" horiz-adv-x="1146" 
d="M1001 852l-92 -84q-9 -9 -22.5 -8.5t-22.5 8.5q-106 98 -227 98q-125 0 -215 -94t-90 -252q0 -67 19.5 -130t56 -114.5t95 -82.5t130.5 -31q131 0 237 96q9 9 22.5 9t20.5 -9l76 -86q9 -9 8.5 -22.5t-10.5 -22.5q-145 -142 -354 -147q-116 -3 -208 31.5t-147.5 90
t-91.5 130.5t-49.5 145.5t-13.5 142.5q0 69 15 138t53 141.5t94.5 127t147.5 89.5t204 35q218 0 367 -156q9 -9 7.5 -22t-10.5 -21zM332 1331l266 199q10 8 24 8t25 -8l266 -199q10 -7 12.5 -20.5t-3.5 -22.5l-41 -59q-6 -11 -19 -13t-24 5l-215 131l-215 -131
q-11 -7 -24 -5t-19 13l-41 59q-6 9 -4 22.5t12 20.5z" />
    <glyph glyph-name="Cdotaccent" unicode="&#x10a;" horiz-adv-x="1484" 
d="M713 1745q0 52 34.5 87.5t86.5 35.5q51 0 86.5 -36t35.5 -87q0 -52 -35.5 -86.5t-86.5 -34.5q-52 0 -86.5 34t-34.5 87zM1339 1202l-92 -92q-9 -8 -21.5 -7.5t-21.5 9.5q-68 66 -169 111t-204 45q-89 0 -163 -23.5t-124 -61t-89 -88.5t-60.5 -102t-35.5 -105.5
t-18.5 -94.5t-4.5 -74t4.5 -73.5t18.5 -94.5t35.5 -105.5t60.5 -101t89 -88t124 -61t163 -23.5q200 0 383 152q9 8 21.5 6.5t19.5 -11.5l84 -104q7 -11 6 -24t-10 -21q-213 -190 -504 -190q-114 0 -211.5 25t-168.5 67.5t-128 102t-94 125t-61.5 139t-34.5 142.5t-10 138
q0 67 10 135t34.5 141.5t61.5 138.5t94 124.5t128 102.5t168.5 68t211.5 25q166 0 288.5 -53.5t221.5 -155.5q9 -9 8 -22t-10 -21z" />
    <glyph glyph-name="cdotaccent" unicode="&#x10b;" horiz-adv-x="1142" 
d="M508 1335q0 52 34.5 87.5t86.5 35.5q51 0 87 -36t36 -87q0 -52 -35.5 -86.5t-87.5 -34.5q-53 0 -87 34t-34 87zM1001 852l-92 -84q-9 -9 -22.5 -8.5t-22.5 8.5q-106 98 -227 98q-125 0 -215 -94t-90 -252q0 -67 19.5 -130t56 -114.5t95 -82.5t130.5 -31q131 0 237 96
q9 9 22.5 9t20.5 -9l76 -86q9 -9 8.5 -22.5t-10.5 -22.5q-145 -142 -354 -147q-116 -3 -208 31.5t-147.5 90t-91.5 130.5t-49.5 145.5t-13.5 142.5q0 69 15 138t53 141.5t94.5 127t147.5 89.5t204 35q218 0 367 -156q9 -9 7.5 -22t-10.5 -21z" />
    <glyph glyph-name="Ccaron" unicode="&#x10c;" horiz-adv-x="1484" 
d="M1339 1202l-92 -92q-9 -8 -21.5 -7.5t-21.5 9.5q-68 66 -169 111t-204 45q-89 0 -163 -23.5t-124 -61t-89 -88.5t-60.5 -102t-35.5 -105.5t-18.5 -94.5t-4.5 -74t4.5 -73.5t18.5 -94.5t35.5 -105.5t60.5 -101t89 -88t124 -61t163 -23.5q200 0 383 152q9 8 21.5 6.5
t19.5 -11.5l84 -104q7 -11 6 -24.5t-10 -22.5q-202 -186 -504 -186q-114 0 -211.5 25t-168.5 67.5t-128 101.5t-94 124t-61.5 138.5t-34.5 142.5t-10 138q0 67 10 135t34.5 141.5t61.5 138.5t94 124.5t128 102.5t168.5 68t211.5 25q166 0 288.5 -53.5t221.5 -155.5
q9 -9 8 -22t-10 -21zM813 1632l-266 199q-23 17 -8 43l41 59q6 10 19 13t24 -4l215 -132l215 132q11 7 24 4t19 -13l41 -59q6 -10 3.5 -23t-12.5 -20l-266 -199q-10 -8 -24 -8t-25 8z" />
    <glyph glyph-name="ccaron" unicode="&#x10d;" horiz-adv-x="1142" 
d="M997 852l-92 -84q-9 -9 -22.5 -8.5t-22.5 8.5q-103 90 -229 90q-127 0 -215 -90.5t-88 -247.5q0 -67 19.5 -130t56 -114.5t95 -82.5t130.5 -31q131 0 237 96q9 9 22.5 9t20.5 -9l76 -86q9 -9 8.5 -22.5t-10.5 -22.5q-150 -147 -354 -147q-117 0 -208 34.5t-146 88
t-90.5 127t-48.5 144t-13 146.5q0 69 15 138t52 141.5t93 127t146.5 89.5t203.5 35q217 0 366 -156q9 -9 8 -22t-10 -21zM606 1223l-266 198q-23 17 -8 43l41 60q6 9 19 12t24 -4l215 -131l215 131q11 7 24 4t19 -12l41 -60q15 -26 -8 -43l-267 -198q-25 -17 -49 0z" />
    <glyph glyph-name="Dcaron" unicode="&#x10e;" horiz-adv-x="1531" 
d="M700 0h-464q-12 0 -21.5 9.5t-9.5 21.5v1372q0 12 9.5 21.5t21.5 9.5h464q114 0 211.5 -24t168.5 -65t128.5 -98.5t94 -120.5t61 -134.5t35 -138.5t10.5 -134q0 -98 -20.5 -193t-72 -192t-129.5 -169.5t-204 -118.5t-283 -46zM414 184h286q89 0 163 23t124 59t88.5 85.5
t60.5 99t35.5 103t18 92.5t4.5 73t-4.5 73t-18 92t-35.5 102t-60.5 98.5t-88.5 85.5t-124 58.5t-163 22.5h-286v-1067zM578 1632l-267 199q-23 17 -8 43l41 59q6 10 19 13t24 -4l215 -132l215 132q11 7 24 4t19 -13l41 -59q15 -26 -8 -43l-266 -199q-11 -8 -25 -8t-24 8z
" />
    <glyph glyph-name="dcaron" unicode="&#x10f;" horiz-adv-x="1566" 
d="M1397 1466q77 0 113 -43t36 -106q0 -147 -153 -410q-17 -24 -45 -14l-48 22q-11 6 -14.5 18t2.5 23q80 153 96 242q-52 4 -86 43t-34 92q0 57 38 95t95 38zM885 985v418q0 12 9 21.5t21 9.5h144q12 0 21.5 -9.5t9.5 -21.5v-1372q0 -12 -9.5 -21.5t-21.5 -9.5h-62
q-30 0 -41 29l-24 75q-126 -120 -309 -120q-110 0 -198 34t-143 88.5t-92 125.5t-52 140.5t-15 139.5q0 69 15 138t52 140.5t93 126t146.5 89t203.5 34.5q145 0 252 -55zM885 291v508q-43 33 -108.5 52t-127.5 19q-77 0 -137 -27.5t-94 -67.5t-56 -91.5t-29 -93t-7 -78.5
q0 -22 3 -48t11.5 -62t22 -69t37.5 -66.5t55 -57.5t77 -39.5t101 -15.5q170 0 252 137z" />
    <glyph glyph-name="Dcroat" unicode="&#x110;" horiz-adv-x="1484" 
d="M186 1434h467q114 0 211.5 -24t168.5 -65t128.5 -98.5t94 -120.5t61 -134.5t35 -138.5t10.5 -134q0 -98 -20.5 -193t-72 -192t-129.5 -169.5t-204 -118.5t-283 -46h-467q-12 0 -21 9.5t-9 21.5v600h-84q-12 0 -21.5 9.5t-9.5 21.5v92q0 12 9.5 21t21.5 9h84v619
q0 12 9 21.5t21 9.5zM367 784h344q12 0 21 -9t9 -21v-92q0 -12 -9 -21.5t-21 -9.5h-344v-447h286q89 0 163 23t124 59t88.5 85.5t60.5 99t35.5 103t18 92.5t4.5 73t-4.5 73t-18 92t-35.5 102t-60.5 98.5t-88.5 85.5t-124 58.5t-163 22.5h-286v-467z" />
    <glyph glyph-name="dcroat" unicode="&#x111;" horiz-adv-x="1226" 
d="M1090 1348h86q12 0 21 -9.5t9 -21.5v-70q0 -12 -9 -21t-21 -9h-86v-1186q0 -12 -9.5 -21.5t-21.5 -9.5h-62q-30 0 -41 29l-24 75q-126 -120 -309 -120q-110 0 -198 34t-143 88.5t-92 125.5t-52 140.5t-15 139.5q0 69 15 138t52 140.5t93 126t146.5 89t203.5 34.5
q145 0 252 -55v232h-187q-12 0 -21 9t-9 21v70q0 12 9 21.5t21 9.5h187v55q0 12 9 21.5t21 9.5h144q12 0 21.5 -9.5t9.5 -21.5v-55zM633 154q170 0 252 137v508q-43 33 -108.5 52t-127.5 19q-77 0 -137 -27.5t-94 -67.5t-56 -91.5t-29 -93t-7 -78.5q0 -22 3 -48t11.5 -62
t22 -69t37.5 -66.5t55 -57.5t77 -39.5t101 -15.5z" />
    <glyph glyph-name="Emacron" unicode="&#x112;" horiz-adv-x="1269" 
d="M956 614h-542v-430h702q12 0 21.5 -9t9.5 -21v-123q0 -12 -9.5 -21.5t-21.5 -9.5h-880q-12 0 -21.5 9.5t-9.5 21.5v1372q0 12 9.5 21.5t21.5 9.5h880q12 0 21.5 -9.5t9.5 -21.5v-123q0 -12 -9.5 -21.5t-21.5 -9.5h-702v-450h542q12 0 21.5 -9.5t9.5 -21.5v-123
q0 -12 -9.5 -21.5t-21.5 -9.5zM356 1774h555q12 0 21.5 -9.5t9.5 -21.5v-82q0 -12 -9.5 -21.5t-21.5 -9.5h-555q-12 0 -21 9.5t-9 21.5v82q0 12 9 21.5t21 9.5z" />
    <glyph glyph-name="emacron" unicode="&#x113;" horiz-adv-x="1110" 
d="M926 260l67 -82q9 -9 8 -22t-10 -21q-85 -75 -178 -111t-211 -36q-113 0 -203.5 34.5t-146.5 89t-93 126.5t-52 141.5t-15 140.5q0 57 11 114.5t33.5 118t63.5 113t95 94t133 65.5t174 24q223 0 331.5 -150.5t74.5 -396.5q-1 -13 -11 -22t-24 -9h-676q5 -39 15 -76
t33 -80.5t54.5 -75.5t84.5 -53.5t118 -21.5q159 0 281 98q9 8 21.5 7.5t21.5 -9.5zM571 877q-62 -5 -110.5 -30t-79 -63.5t-48.5 -77t-28 -83.5h516q6 40 -1 79t-26.5 76t-61 64t-99.5 35q-31 3 -62 0zM319 1364h555q12 0 21.5 -9.5t9.5 -21.5v-82q0 -12 -9.5 -21t-21.5 -9
h-555q-12 0 -21 9t-9 21v82q0 12 9 21.5t21 9.5z" />
    <glyph glyph-name="Ebreve" unicode="&#x114;" horiz-adv-x="1269" 
d="M956 614h-542v-430h702q12 0 21.5 -9t9.5 -21v-123q0 -12 -9.5 -21.5t-21.5 -9.5h-880q-12 0 -21.5 9.5t-9.5 21.5v1372q0 12 9.5 21.5t21.5 9.5h880q12 0 21.5 -9.5t9.5 -21.5v-123q0 -12 -9.5 -21.5t-21.5 -9.5h-702v-450h542q12 0 21.5 -9.5t9.5 -21.5v-123
q0 -12 -9.5 -21.5t-21.5 -9.5zM807 1896l82 -24q12 -3 17.5 -14.5t2.5 -22.5q-34 -98 -108 -155.5t-168 -57.5t-168.5 57t-106.5 156q-4 12 2.5 23t18.5 14l80 24q10 3 21 -3t16 -17q19 -52 55 -80.5t82 -28.5q47 0 83.5 28t53.5 79q4 12 15 18.5t22 3.5z" />
    <glyph glyph-name="ebreve" unicode="&#x115;" horiz-adv-x="1110" 
d="M602 164q159 0 281 98q9 8 21.5 7.5t21.5 -9.5l67 -82q9 -9 8 -22t-10 -21q-85 -75 -178 -111t-211 -36q-113 0 -203.5 34.5t-146.5 89t-93 126.5t-52 141.5t-15 140.5q0 57 11 114.5t33.5 118t63.5 113t95 94t133 65.5t174 24q223 0 331.5 -150.5t74.5 -396.5
q-1 -13 -11 -22t-24 -9h-676q5 -39 15 -76t33 -80.5t54.5 -75.5t84.5 -53.5t118 -21.5zM602 879q-57 0 -104 -16t-78 -41t-55.5 -60.5t-37.5 -68.5t-22 -70h516q6 42 -1.5 84t-31 80.5t-71.5 63.5t-115 28zM555 1212q-94 0 -168 57t-106 156q-4 12 2 23t18 14l80 25
q10 3 21 -3.5t16 -17.5q19 -52 55 -80t82 -28q48 0 84 27.5t53 78.5q5 12 16 19t21 4l82 -25q12 -3 17.5 -14.5t2.5 -22.5q-34 -98 -108 -155.5t-168 -57.5z" />
    <glyph glyph-name="Edotaccent" unicode="&#x116;" horiz-adv-x="1269" 
d="M512 1745q0 52 34.5 87.5t86.5 35.5q51 0 87 -36t36 -87q0 -52 -35.5 -86.5t-87.5 -34.5q-53 0 -87 34t-34 87zM956 614h-542v-430h702q12 0 21.5 -9t9.5 -21v-123q0 -12 -9.5 -21.5t-21.5 -9.5h-880q-12 0 -21.5 9.5t-9.5 21.5v1372q0 12 9.5 21.5t21.5 9.5h880
q12 0 21.5 -9.5t9.5 -21.5v-123q0 -12 -9.5 -21.5t-21.5 -9.5h-702v-450h542q12 0 21.5 -9.5t9.5 -21.5v-123q0 -12 -9.5 -21.5t-21.5 -9.5z" />
    <glyph glyph-name="edotaccent" unicode="&#x117;" horiz-adv-x="1110" 
d="M492 1335q0 52 34 87.5t86 35.5q51 0 87 -36t36 -87q0 -52 -35.5 -86.5t-87.5 -34.5t-86 34t-34 87zM602 164q159 0 281 98q9 8 21.5 7.5t21.5 -9.5l67 -82q9 -9 8 -22t-10 -21q-85 -75 -178 -111t-211 -36q-113 0 -203.5 34.5t-146.5 89t-93 126.5t-52 141.5t-15 140.5
q0 57 11 114.5t33.5 118t63.5 113t95 94t133 65.5t174 24q223 0 331.5 -150.5t74.5 -396.5q-1 -13 -11 -22t-24 -9h-676q5 -39 15 -76t33 -80.5t54.5 -75.5t84.5 -53.5t118 -21.5zM602 879q-57 0 -104 -16t-78 -41t-55.5 -60.5t-37.5 -68.5t-22 -70h516q6 42 -1.5 84
t-31 80.5t-71.5 63.5t-115 28z" />
    <glyph glyph-name="Eogonek" unicode="&#x118;" horiz-adv-x="1294" 
d="M956 614h-542v-430h702q12 0 21.5 -9t9.5 -21v-156q0 -21 -36 -90.5t-36 -112.5q0 -53 31 -82.5t88 -29.5q55 0 113 22q11 3 19.5 -3t8.5 -17v-70q0 -31 -28 -43q-80 -25 -140 -25q-102 0 -169.5 55t-67.5 162q0 46 21.5 94.5t44.5 86.5t24 55h-784q-12 0 -21.5 9.5
t-9.5 21.5v1372q0 12 9.5 21.5t21.5 9.5h880q12 0 21.5 -9.5t9.5 -21.5v-123q0 -12 -9.5 -21.5t-21.5 -9.5h-702v-450h542q12 0 21.5 -9.5t9.5 -21.5v-123q0 -12 -9.5 -21.5t-21.5 -9.5z" />
    <glyph glyph-name="eogonek" unicode="&#x119;" horiz-adv-x="1073" 
d="M926 260l67 -82q9 -9 8 -22t-10 -21q-64 -58 -127 -90v-47q0 -21 -35.5 -90.5t-35.5 -112.5q0 -53 30.5 -82.5t87.5 -29.5q55 0 113 22q11 3 20 -3.5t9 -16.5v-70q0 -30 -29 -43q-80 -25 -139 -25q-102 0 -170 55t-68 162q0 46 21.5 95t44.5 86.5t24 54.5
q-65 -12 -135 -12q-113 0 -203.5 34.5t-146.5 89t-93 126.5t-52 141.5t-15 140.5q0 57 11 114.5t33.5 118t63.5 113t95 94t133 65.5t174 24q223 0 331.5 -150.5t74.5 -396.5q-1 -13 -11 -22t-24 -9h-676q5 -39 15 -76t33 -80.5t54.5 -75.5t84.5 -53.5t118 -21.5
q159 0 281 98q9 8 21.5 7.5t21.5 -9.5zM602 879q-57 0 -104 -16t-78 -41t-55.5 -60.5t-37.5 -68.5t-22 -70h516q6 42 -1.5 84t-31 80.5t-71.5 63.5t-115 28z" />
    <glyph glyph-name="Ecaron" unicode="&#x11a;" horiz-adv-x="1269" 
d="M956 614h-542v-430h702q12 0 21.5 -9t9.5 -21v-123q0 -12 -9.5 -21.5t-21.5 -9.5h-880q-12 0 -21.5 9.5t-9.5 21.5v1372q0 12 9.5 21.5t21.5 9.5h880q12 0 21.5 -9.5t9.5 -21.5v-123q0 -12 -9.5 -21.5t-21.5 -9.5h-702v-450h542q12 0 21.5 -9.5t9.5 -21.5v-123
q0 -12 -9.5 -21.5t-21.5 -9.5zM608 1632l-266 199q-23 17 -8 43l41 59q6 10 19 13t24 -4l215 -132l215 132q11 7 24 4t19 -13l41 -59q15 -26 -8 -43l-267 -199q-11 -8 -25 -8t-24 8z" />
    <glyph glyph-name="ecaron" unicode="&#x11b;" horiz-adv-x="1110" 
d="M870 1421l-266 -198q-24 -17 -49 0l-266 198q-23 17 -8 43l41 60q6 9 19 12t24 -4l215 -131l215 131q11 7 24 4t19 -12l41 -60q6 -10 3.5 -23t-12.5 -20zM602 164q159 0 281 98q9 8 21.5 7.5t21.5 -9.5l67 -82q9 -9 8 -22t-10 -21q-85 -75 -178 -111t-211 -36
q-113 0 -203.5 34.5t-146.5 89t-93 126.5t-52 141.5t-15 140.5q0 57 11 114.5t33.5 118t63.5 113t95 94t133 65.5t174 24q223 0 331.5 -150.5t74.5 -396.5q-1 -13 -11 -22t-24 -9h-676q5 -39 15 -76t33 -80.5t54.5 -75.5t84.5 -53.5t118 -21.5zM602 879q-57 0 -104 -16
t-78 -41t-55.5 -60.5t-37.5 -68.5t-22 -70h516q6 42 -1.5 84t-31 80.5t-71.5 63.5t-115 28z" />
    <glyph glyph-name="Gcircumflex" unicode="&#x11c;" horiz-adv-x="1470" 
d="M1135 512h-271q-12 0 -21 9.5t-9 21.5v123q0 12 9 21t21 9h451q12 0 21.5 -9t9.5 -21v-453q0 -31 -23 -51q-196 -180 -492 -180q-114 0 -211.5 25t-168.5 67.5t-128 101.5t-94 124t-61.5 138.5t-34.5 142.5t-10 138q0 67 10 135t34.5 141.5t61.5 138.5t94 124.5
t128 102.5t168.5 68t211.5 25q166 0 276 -43t202 -137q9 -9 8.5 -22.5t-8.5 -22.5l-90 -90q-7 -9 -20.5 -9.5t-22.5 7.5q-61 56 -154 93.5t-191 37.5q-89 0 -163 -23.5t-124 -61t-89 -88.5t-60.5 -102t-35.5 -105.5t-18.5 -94.5t-4.5 -74t4.5 -73.5t18.5 -94.5t35.5 -105.5
t60.5 -101t89 -88t124 -61t163 -23.5q179 0 304 92v248zM539 1741l266 198q25 17 49 0l266 -198q10 -7 12 -20.5t-4 -22.5l-41 -60q-6 -11 -19 -13t-24 5l-215 131l-215 -131q-11 -7 -24 -5t-19 13l-41 60q-6 9 -3.5 22.5t12.5 20.5z" />
    <glyph glyph-name="gcircumflex" unicode="&#x11d;" horiz-adv-x="1157" 
d="M635 135q96 -1 167 -18t112.5 -42.5t66 -63t32 -74.5t5.5 -82q-1 -29 -13 -63t-43 -75.5t-77 -74.5t-124 -55.5t-175 -22.5q-104 0 -186.5 20t-133 51.5t-84 73.5t-46.5 82t-13 80q4 156 141 213q-53 20 -82.5 59t-31.5 86q-3 74 29 126t91 67q-80 108 -80 244
q0 49 11 98t39 100t70 89t109.5 62.5t151.5 24.5q122 0 209 -51l127 117q9 8 22.5 7.5t22.5 -9.5l68 -68q9 -7 9.5 -20.5t-7.5 -22.5l-121 -127q53 -100 53 -200q0 -50 -11.5 -100t-40 -101t-70.5 -89t-109.5 -62.5t-151.5 -24.5q-89 0 -153 24q-48 6 -73.5 -18.5
t-25.5 -63.5q0 -47 45 -70.5t113 -23.5q23 0 80 -1t78 -1zM571 870q-44 0 -77.5 -16.5t-52 -40t-30 -54t-15 -52.5t-3.5 -41q0 -25 7 -54.5t24 -66t55 -60.5t92 -24q44 0 77.5 16.5t52 40.5t30.5 54t15.5 52.5t3.5 41.5q0 25 -7 54.5t-24 65.5t-55.5 60t-92.5 24zM831 -137
q3 33 -14 53t-77 33.5t-169 13.5q-83 0 -136 -6.5t-80.5 -20.5t-37.5 -30.5t-10 -42.5q0 -11 5.5 -24t23 -31t45 -32.5t77 -25.5t113.5 -12q70 0 122.5 12.5t77.5 28.5t40 36.5t17.5 31t2.5 16.5zM578 1352l-216 -131q-11 -7 -24 -5t-19 13l-40 59q-6 9 -4 22.5t12 20.5
l266 199q11 8 25 8t24 -8l266 -199q10 -7 12.5 -20.5t-3.5 -22.5l-41 -59q-6 -11 -19 -13t-24 5z" />
    <glyph glyph-name="Gbreve" unicode="&#x11e;" horiz-adv-x="1468" 
d="M1135 512h-271q-12 0 -21 9.5t-9 21.5v123q0 12 9 21t21 9h451q12 0 21.5 -9t9.5 -21v-453q0 -31 -23 -51q-196 -180 -492 -180q-114 0 -211.5 25t-168.5 67.5t-128 101.5t-94 124t-61.5 138.5t-34.5 142.5t-10 138q0 67 10 135t34.5 141.5t61.5 138.5t94 124.5
t128 102.5t168.5 68t211.5 25q166 0 276 -43t202 -137q9 -9 8.5 -22.5t-8.5 -22.5l-90 -90q-7 -9 -20.5 -9.5t-22.5 7.5q-61 56 -154 93.5t-191 37.5q-89 0 -163 -23.5t-124 -61t-89 -88.5t-60.5 -102t-35.5 -105.5t-18.5 -94.5t-4.5 -74t4.5 -73.5t18.5 -94.5t35.5 -105.5
t60.5 -101t89 -88t124 -61t163 -23.5q179 0 304 92v248zM997 1896l82 -24q12 -3 18 -14.5t3 -22.5q-34 -98 -108.5 -155.5t-168.5 -57.5t-168 57t-106 156q-4 12 2 23t18 14l80 24q10 3 21 -3t16 -17q19 -52 55 -80.5t82 -28.5q48 0 84.5 28t53.5 79q5 12 15.5 18.5
t20.5 3.5z" />
    <glyph glyph-name="gbreve" unicode="&#x11f;" horiz-adv-x="1165" 
d="M578 1212q-94 0 -168.5 57t-106.5 156q-4 12 2.5 23t18.5 14l79 25q10 3 21 -3.5t16 -17.5q19 -52 55.5 -80t82.5 -28q48 0 84 27.5t53 78.5q5 12 16 19t21 4l82 -25q12 -3 17.5 -14.5t2.5 -22.5q-34 -98 -108 -155.5t-168 -57.5zM635 135q96 -1 167 -18t112.5 -42.5
t66 -63t32 -74.5t5.5 -82q-1 -29 -13 -63t-43 -75.5t-77 -74.5t-124 -55.5t-175 -22.5q-104 0 -186.5 20t-133 51.5t-84 73.5t-46.5 82t-13 80q4 156 141 213q-53 20 -82.5 59t-31.5 86q-3 74 29 126t91 67q-80 108 -80 244q0 49 11 98t39 100t70 89t109.5 62.5t151.5 24.5
q122 0 209 -51l127 117q9 8 22.5 7.5t22.5 -9.5l68 -68q9 -7 9.5 -20.5t-7.5 -22.5l-121 -127q53 -100 53 -200q0 -50 -11.5 -100t-40 -101t-70.5 -89t-109.5 -62.5t-151.5 -24.5q-89 0 -153 24q-48 6 -73.5 -18.5t-25.5 -63.5q0 -47 45 -70.5t113 -23.5q23 0 80 -1t78 -1z
M571 870q-44 0 -77.5 -16.5t-52 -40t-30 -54t-15 -52.5t-3.5 -41q0 -25 7 -54.5t24 -66t55 -60.5t92 -24q44 0 77.5 16.5t52 40.5t30.5 54t15.5 52.5t3.5 41.5q0 25 -7 54.5t-24 65.5t-55.5 60t-92.5 24zM831 -137q3 33 -14 53t-77 33.5t-169 13.5q-83 0 -136 -6.5
t-80.5 -20.5t-37.5 -30.5t-10 -42.5q0 -11 5.5 -24t23 -31t45 -32.5t77 -25.5t113.5 -12q70 0 122.5 12.5t77.5 28.5t40 36.5t17.5 31t2.5 16.5z" />
    <glyph glyph-name="Gdotaccent" unicode="&#x120;" horiz-adv-x="1468" 
d="M711 1743q0 52 34 87.5t86 35.5q51 0 87 -36t36 -87q0 -52 -35.5 -86.5t-87.5 -34.5t-86 34t-34 87zM1135 512h-271q-12 0 -21 9.5t-9 21.5v123q0 12 9 21t21 9h451q12 0 21.5 -9t9.5 -21v-453q0 -31 -23 -51q-196 -180 -492 -180q-114 0 -211.5 25t-168.5 67.5
t-128 101.5t-94 124t-61.5 138.5t-34.5 142.5t-10 138q0 67 10 135t34.5 141.5t61.5 138.5t94 124.5t128 102.5t168.5 68t211.5 25q166 0 276 -43t202 -137q9 -9 8.5 -22.5t-8.5 -22.5l-90 -90q-7 -9 -20.5 -9.5t-22.5 7.5q-61 56 -154 93.5t-191 37.5q-89 0 -163 -23.5
t-124 -61t-89 -88.5t-60.5 -102t-35.5 -105.5t-18.5 -94.5t-4.5 -74t4.5 -73.5t18.5 -94.5t35.5 -105.5t60.5 -101t89 -88t124 -61t163 -23.5q179 0 304 92v248z" />
    <glyph glyph-name="gdotaccent" unicode="&#x121;" horiz-adv-x="1157" 
d="M457 1335q0 52 34.5 87.5t86.5 35.5q51 0 86.5 -36t35.5 -87q0 -52 -35.5 -86.5t-86.5 -34.5q-52 0 -86.5 34t-34.5 87zM635 135q96 -1 167 -18t112.5 -42.5t66 -63t32 -74.5t5.5 -82q-1 -29 -13 -63t-43 -75.5t-77 -74.5t-124 -55.5t-175 -22.5q-104 0 -186.5 20
t-133 51.5t-84 73.5t-46.5 82t-13 80q4 156 141 213q-53 20 -82.5 59t-31.5 86q-3 74 29 126t91 67q-80 108 -80 244q0 49 11 98t39 100t70 89t109.5 62.5t151.5 24.5q122 0 209 -51l127 117q9 8 22.5 7.5t22.5 -9.5l68 -68q9 -7 9.5 -20.5t-7.5 -22.5l-121 -127
q53 -100 53 -200q0 -50 -11.5 -100t-40 -101t-70.5 -89t-109.5 -62.5t-151.5 -24.5q-89 0 -153 24q-48 6 -73.5 -18.5t-25.5 -63.5q0 -47 45 -70.5t113 -23.5q23 0 80 -1t78 -1zM571 870q-44 0 -77.5 -16.5t-52 -40t-30 -54t-15 -52.5t-3.5 -41q0 -25 7 -54.5t24 -66
t55 -60.5t92 -24q44 0 77.5 16.5t52 40.5t30.5 54t15.5 52.5t3.5 41.5q0 25 -7 54.5t-24 65.5t-55.5 60t-92.5 24zM831 -137q3 33 -14 53t-77 33.5t-169 13.5q-83 0 -136 -6.5t-80.5 -20.5t-37.5 -30.5t-10 -42.5q0 -11 5.5 -24t23 -31t45 -32.5t77 -25.5t113.5 -12
q70 0 122.5 12.5t77.5 28.5t40 36.5t17.5 31t2.5 16.5z" />
    <glyph glyph-name="Gcommaaccent" unicode="&#x122;" horiz-adv-x="1470" 
d="M1135 512h-271q-12 0 -21 9.5t-9 21.5v123q0 12 9 21t21 9h451q12 0 21.5 -9t9.5 -21v-453q0 -31 -23 -51q-196 -180 -492 -180q-114 0 -211.5 25t-168.5 67.5t-128 101.5t-94 124t-61.5 138.5t-34.5 142.5t-10 138q0 67 10 135t34.5 141.5t61.5 138.5t94 124.5
t128 102.5t168.5 68t211.5 25q166 0 276 -43t202 -137q9 -9 8.5 -22.5t-8.5 -22.5l-90 -90q-7 -9 -20.5 -9.5t-22.5 7.5q-61 56 -154 93.5t-191 37.5q-89 0 -163 -23.5t-124 -61t-89 -88.5t-60.5 -102t-35.5 -105.5t-18.5 -94.5t-4.5 -74t4.5 -73.5t18.5 -94.5t35.5 -105.5
t60.5 -101t89 -88t124 -61t163 -23.5q179 0 304 92v248zM799 -678l-33 14q-11 6 -14.5 18t2.5 23q62 132 73 195q-46 3 -77 38.5t-31 82.5q0 51 34 86t85 35q69 0 102 -40t33 -96q0 -128 -131 -344q-7 -12 -20 -15t-23 3z" />
    <glyph glyph-name="gcommaaccent" unicode="&#x123;" horiz-adv-x="1157" 
d="M586 1196q-77 0 -113.5 43.5t-36.5 106.5q0 144 154 409q8 11 20 14.5t23 -2.5l47 -22q12 -4 16 -16.5t-2 -22.5q-85 -167 -96 -242q52 -4 86.5 -43t34.5 -92q0 -57 -38 -95t-95 -38zM635 135q96 -1 167 -18t112.5 -42.5t66 -63t32 -74.5t5.5 -82q-1 -29 -13 -63
t-43 -75.5t-77 -74.5t-124 -55.5t-175 -22.5q-104 0 -186.5 20t-133 51.5t-84 73.5t-46.5 82t-13 80q4 156 141 213q-53 20 -82.5 59t-31.5 86q-3 74 29 126t91 67q-80 108 -80 244q0 49 11 98t39 100t70 89t109.5 62.5t151.5 24.5q122 0 209 -51l127 117q9 8 22.5 7.5
t22.5 -9.5l68 -68q9 -7 9.5 -20.5t-7.5 -22.5l-121 -127q53 -100 53 -200q0 -50 -11.5 -100t-40 -101t-70.5 -89t-109.5 -62.5t-151.5 -24.5q-89 0 -153 24q-48 6 -73.5 -18.5t-25.5 -63.5q0 -47 45 -70.5t113 -23.5q23 0 80 -1t78 -1zM571 870q-44 0 -77.5 -16.5t-52 -40
t-30 -54t-15 -52.5t-3.5 -41q0 -25 7 -54.5t24 -66t55 -60.5t92 -24q44 0 77.5 16.5t52 40.5t30.5 54t15.5 52.5t3.5 41.5q0 25 -7 54.5t-24 65.5t-55.5 60t-92.5 24zM831 -137q3 33 -14 53t-77 33.5t-169 13.5q-83 0 -136 -6.5t-80.5 -20.5t-37.5 -30.5t-10 -42.5
q0 -11 5.5 -24t23 -31t45 -32.5t77 -25.5t113.5 -12q70 0 122.5 12.5t77.5 28.5t40 36.5t17.5 31t2.5 16.5z" />
    <glyph glyph-name="Hcircumflex" unicode="&#x124;" horiz-adv-x="1570" 
d="M416 614v-583q0 -12 -9.5 -21.5t-21.5 -9.5h-149q-12 0 -21.5 9.5t-9.5 21.5v1372q0 12 9.5 21.5t21.5 9.5h149q12 0 21.5 -9.5t9.5 -21.5v-604h739v604q0 12 9.5 21.5t21.5 9.5h149q12 0 21.5 -9.5t9.5 -21.5v-1372q0 -12 -9.5 -21.5t-21.5 -9.5h-149q-12 0 -21.5 9.5
t-9.5 21.5v583h-739zM483 1741l267 198q25 17 49 0l266 -198q10 -7 12 -20.5t-4 -22.5l-41 -60q-6 -11 -19 -13t-24 5l-215 131l-215 -131q-11 -7 -24 -5t-19 13l-41 60q-6 9 -4 22.5t12 20.5z" />
    <glyph glyph-name="hcircumflex" unicode="&#x125;" horiz-adv-x="1185" 
d="M338 0h-143q-12 0 -21.5 9.5t-9.5 21.5v1372q0 12 9.5 21.5t21.5 9.5h143q12 0 21.5 -9.5t9.5 -21.5v-451q44 38 118.5 63t143.5 25q79 0 143.5 -16t109 -43t77.5 -67.5t52 -83t30.5 -96.5t15.5 -101.5t4 -104.5v-497q0 -12 -9.5 -21.5t-21.5 -9.5h-141q-12 0 -21.5 9.5
t-9.5 21.5v497q-1 10 -1 36.5t-1 48t-6 53.5t-13.5 57t-26 52t-42 46t-63 32.5t-86.5 16.5q-88 6 -156 -33.5t-96 -95.5v-710q0 -12 -9.5 -21.5t-21.5 -9.5zM-8 1741l266 198q24 17 49 0l266 -198q10 -7 12.5 -20.5t-3.5 -22.5l-41 -60q-6 -11 -19 -13t-24 5l-215 131
l-215 -131q-11 -7 -24 -5t-19 13l-41 60q-6 9 -4 22.5t12 20.5z" />
    <glyph glyph-name="Hbar" unicode="&#x126;" horiz-adv-x="1558" 
d="M199 1079h-86q-12 0 -21.5 9.5t-9.5 21.5v84q0 12 9.5 21.5t21.5 9.5h86v178q0 12 9 21.5t21 9.5h150q12 0 21.5 -9.5t9.5 -21.5v-178h739v178q0 12 9.5 21.5t21.5 9.5h149q12 0 21.5 -9.5t9.5 -21.5v-178h86q12 0 21.5 -9.5t9.5 -21.5v-84q0 -12 -9.5 -21.5t-21.5 -9.5
h-86v-1048q0 -12 -9.5 -21.5t-21.5 -9.5h-149q-12 0 -21.5 9.5t-9.5 21.5v583h-739v-583q0 -12 -9.5 -21.5t-21.5 -9.5h-150q-12 0 -21 9.5t-9 21.5v1048zM410 799h739v280h-739v-280z" />
    <glyph glyph-name="hbar" unicode="&#x127;" horiz-adv-x="1169" 
d="M147 1145h-96q-12 0 -21.5 9.5t-9.5 21.5v81q0 12 9.5 21.5t21.5 9.5h96v115q0 12 9.5 21.5t21.5 9.5h144q12 0 21 -9.5t9 -21.5v-115h246q12 0 21.5 -9.5t9.5 -21.5v-81q0 -12 -9.5 -21.5t-21.5 -9.5h-246v-193q44 38 118.5 63t143.5 25q79 0 143.5 -16t109 -43
t77.5 -67.5t52.5 -83t31 -96.5t15.5 -101.5t4 -104.5v-497q0 -12 -9.5 -21.5t-21.5 -9.5h-142q-12 0 -21 9.5t-9 21.5v497q-1 9 -1.5 36t-1 48.5t-5.5 53.5t-13.5 57t-26.5 52t-42.5 46t-63 32.5t-86.5 16.5q-88 6 -156 -33.5t-96 -95.5v-710q0 -12 -9 -21.5t-21 -9.5h-144
q-12 0 -21.5 9.5t-9.5 21.5v1114z" />
    <glyph glyph-name="Itilde" unicode="&#x128;" horiz-adv-x="647" 
d="M428 1403v-1372q0 -12 -9.5 -21.5t-21.5 -9.5h-149q-12 0 -21.5 9.5t-9.5 21.5v1372q0 12 9.5 21.5t21.5 9.5h149q12 0 21.5 -9.5t9.5 -21.5zM557 1829l64 -33q11 -6 14.5 -18.5t-2.5 -24.5q-74 -141 -213 -141q-46 0 -106.5 40t-100.5 40q-54 0 -90 -60
q-6 -11 -18.5 -14.5t-24.5 2.5l-53 25q-11 6 -16 18.5t-1 24.5q58 155 205 155q43 0 80 -20t68.5 -40t60.5 -20q51 0 90 54q8 11 20 14.5t23 -2.5z" />
    <glyph glyph-name="itilde" unicode="&#x129;" horiz-adv-x="647" 
d="M426 993v-962q0 -12 -9.5 -21.5t-21.5 -9.5h-143q-12 0 -21.5 9.5t-9.5 21.5v962q0 12 9.5 21.5t21.5 9.5h143q12 0 21.5 -9.5t9.5 -21.5zM557 1419l64 -33q11 -6 14.5 -18.5t-2.5 -24.5q-74 -141 -213 -141q-46 0 -106.5 40t-100.5 40q-27 0 -48 -12t-42 -47
q-6 -11 -18.5 -15t-24.5 2l-53 25q-11 6 -16 18.5t-1 24.5q31 84 86 120t119 36q43 0 80 -20t68.5 -40t60.5 -20q52 0 90 53q8 11 20 14.5t23 -2.5z" />
    <glyph glyph-name="Imacron" unicode="&#x12a;" horiz-adv-x="616" 
d="M414 1403v-1372q0 -12 -9.5 -21.5t-21.5 -9.5h-150q-12 0 -21 9.5t-9 21.5v1372q0 12 9 21.5t21 9.5h150q12 0 21.5 -9.5t9.5 -21.5zM31 1774h555q12 0 21 -9.5t9 -21.5v-82q0 -12 -9 -21.5t-21 -9.5h-555q-12 0 -21.5 9.5t-9.5 21.5v82q0 12 9.5 21.5t21.5 9.5z" />
    <glyph glyph-name="imacron" unicode="&#x12b;" horiz-adv-x="616" 
d="M410 993v-962q0 -12 -9.5 -21.5t-21.5 -9.5h-143q-12 0 -21.5 9.5t-9.5 21.5v962q0 12 9.5 21.5t21.5 9.5h143q12 0 21.5 -9.5t9.5 -21.5zM31 1364h555q12 0 21 -9.5t9 -21.5v-82q0 -12 -9 -21t-21 -9h-555q-12 0 -21.5 9t-9.5 21v82q0 12 9.5 21.5t21.5 9.5z" />
    <glyph glyph-name="Ibreve" unicode="&#x12c;" horiz-adv-x="567" 
d="M389 1403v-1372q0 -12 -9.5 -21.5t-21.5 -9.5h-149q-12 0 -21.5 9.5t-9.5 21.5v1372q0 12 9.5 21.5t21.5 9.5h149q12 0 21.5 -9.5t9.5 -21.5zM457 1896l82 -24q12 -3 17.5 -14.5t2.5 -22.5q-34 -98 -108 -155.5t-168 -57.5t-168.5 57t-106.5 156q-4 12 2.5 23t18.5 14
l80 24q10 3 20.5 -3t15.5 -17q19 -52 55.5 -80.5t82.5 -28.5q47 0 83.5 28t53.5 79q4 12 15 18.5t22 3.5z" />
    <glyph glyph-name="ibreve" unicode="&#x12d;" horiz-adv-x="567" 
d="M385 993v-962q0 -12 -9.5 -21.5t-21.5 -9.5h-143q-12 0 -21.5 9.5t-9.5 21.5v962q0 12 9.5 21.5t21.5 9.5h143q12 0 21.5 -9.5t9.5 -21.5zM457 1487l82 -25q12 -3 17.5 -14.5t2.5 -22.5q-34 -98 -108 -155.5t-168 -57.5t-168.5 57t-106.5 156q-4 12 2.5 23t18.5 14l80 25
q10 3 20.5 -3.5t15.5 -17.5q19 -52 55.5 -80t82.5 -28q48 0 84 27.5t53 78.5q5 12 16 19t21 4z" />
    <glyph glyph-name="Iogonek" unicode="&#x12e;" horiz-adv-x="569" 
d="M401 1403v-1405q0 -21 -35.5 -90.5t-35.5 -112.5q0 -53 31 -82.5t88 -29.5q54 0 112 22q11 3 20 -3.5t9 -16.5v-70q0 -30 -29 -43q-80 -25 -139 -25q-102 0 -170 55t-68 162q0 46 21.5 94.5t44.5 86.5t24 55h-53q-12 0 -21.5 9.5t-9.5 21.5v1372q0 12 9.5 21.5t21.5 9.5
h150q12 0 21 -9.5t9 -21.5z" />
    <glyph glyph-name="iogonek" unicode="&#x12f;" horiz-adv-x="555" 
d="M387 993v-993q0 -21 -36 -91.5t-36 -113.5q0 -53 31 -82.5t88 -29.5q55 0 113 22q11 3 19.5 -3t8.5 -17v-70q0 -31 -28 -43q-80 -25 -139 -25q-102 0 -170 55t-68 162q0 46 21.5 94.5t44.5 86.5t24 55h-47q-12 0 -21.5 9.5t-9.5 21.5v962q0 12 9.5 21.5t21.5 9.5h143
q12 0 21.5 -9.5t9.5 -21.5zM164 1335q0 52 34.5 87.5t86.5 35.5q51 0 87 -36t36 -87q0 -52 -35.5 -86.5t-87.5 -34.5q-53 0 -87 34t-34 87z" />
    <glyph glyph-name="Idotaccent" unicode="&#x130;" horiz-adv-x="612" 
d="M412 1403v-1372q0 -12 -9.5 -21.5t-21.5 -9.5h-150q-12 0 -21 9.5t-9 21.5v1372q0 12 9 21.5t21 9.5h150q12 0 21.5 -9.5t9.5 -21.5zM184 1735q0 52 34.5 87.5t86.5 35.5q51 0 87 -36t36 -87q0 -52 -35.5 -86.5t-87.5 -34.5q-53 0 -87 34t-34 87z" />
    <glyph glyph-name="dotlessi" unicode="&#x131;" horiz-adv-x="532" 
d="M369 993v-962q0 -12 -9.5 -21.5t-21.5 -9.5h-143q-12 0 -21.5 9.5t-9.5 21.5v962q0 12 9.5 21.5t21.5 9.5h143q12 0 21.5 -9.5t9.5 -21.5z" />
    <glyph glyph-name="IJ" unicode="&#x132;" horiz-adv-x="1779" 
d="M416 1403v-1372q0 -12 -9.5 -21.5t-21.5 -9.5h-149q-12 0 -21.5 9.5t-9.5 21.5v1372q0 12 9.5 21.5t21.5 9.5h149q12 0 21.5 -9.5t9.5 -21.5zM596 383l133 49q12 4 23 -1.5t16 -16.5q19 -52 41.5 -91.5t56.5 -74.5t84 -53.5t113 -18.5q59 0 106.5 16t78 40.5t53 60.5
t34 68t18 71.5t8 64t1.5 50.5v856q0 12 9.5 21.5t21.5 9.5h151q12 0 21.5 -9.5t9.5 -21.5v-856q0 -76 -13 -147.5t-48.5 -148.5t-91 -133.5t-148 -93t-211.5 -36.5q-108 0 -191.5 27t-140 77.5t-93 111t-63.5 140.5q-3 12 3 23.5t18 15.5z" />
    <glyph glyph-name="ij" unicode="&#x133;" horiz-adv-x="1101" 
d="M387 993v-964q0 -12 -9.5 -21.5t-21.5 -9.5h-143q-12 0 -21.5 9.5t-9.5 21.5v964q0 12 9.5 21.5t21.5 9.5h143q12 0 21.5 -9.5t9.5 -21.5zM168 1366q9 40 41 66t76 26q51 0 87 -36t36 -87q0 -52 -35.5 -86.5t-87.5 -34.5q-44 0 -76 25.5t-41 65.5q-9 31 0 61zM412 -184
q77 -41 145 -41q72 0 114 53t42 166v999q0 12 9 21.5t21 9.5h144q12 0 21.5 -9.5t9.5 -21.5v-999v-4q1 -21 0.5 -39t-6.5 -61t-17.5 -78t-37 -78t-61 -72.5t-94 -49.5t-131.5 -20q-140 0 -252 80q-10 7 -12 21t6 26l56 84q6 11 19 15t24 -2zM694 1335q0 52 34.5 87.5
t86.5 35.5q51 0 87 -36t36 -87q0 -52 -35.5 -86.5t-87.5 -34.5q-53 0 -87 34t-34 87z" />
    <glyph glyph-name="Jcircumflex" unicode="&#x134;" 
d="M70 383l133 49q12 4 23 -1.5t16 -16.5q19 -52 41.5 -91.5t56.5 -74.5t84 -53.5t113 -18.5q59 0 106.5 16t78 40.5t53 60.5t34 68t18 71.5t8 64t1.5 50.5v856q0 12 9 21.5t21 9.5h152q12 0 21.5 -9.5t9.5 -21.5v-856q0 -76 -13 -147.5t-48.5 -148.5t-91 -133.5t-148 -93
t-211.5 -36.5q-108 0 -191.5 27t-140 77.5t-93 111t-63.5 140.5q-3 12 3 23.5t18 15.5zM647 1741l266 198q10 7 25 7t25 -7l266 -198q10 -7 12 -20.5t-4 -22.5l-41 -60q-6 -11 -19 -13t-24 5l-215 131l-215 -131q-11 -7 -24 -5t-19 13l-41 60q-6 9 -4 22.5t12 20.5z" />
    <glyph glyph-name="jcircumflex" unicode="&#x135;" horiz-adv-x="589" 
d="M-152 -184q77 -41 146 -41q72 0 114 53t42 166v999q0 12 9 21.5t21 9.5h144q12 0 21 -9.5t9 -21.5v-999q0 -100 -18 -165q-56 -196 -247 -230q-38 -7 -81 -7q-140 0 -252 80q-10 7 -12 21t6 26l55 84q6 11 19 15t24 -2zM-16 1331l266 199q11 8 25 8t24 -8l266 -199
q10 -7 12 -20.5t-4 -22.5l-41 -59q-6 -11 -19 -13t-24 5l-215 131l-215 -131q-11 -7 -24 -5t-19 13l-41 59q-6 9 -3.5 22.5t12.5 20.5z" />
    <glyph glyph-name="Kcommaaccent" unicode="&#x136;" horiz-adv-x="1427" 
d="M385 0h-149q-12 0 -21.5 9.5t-9.5 21.5v1372q0 12 9.5 21.5t21.5 9.5h149q12 0 21.5 -9.5t9.5 -21.5v-590l608 598q23 23 53 23h193q7 0 12.5 -5.5t5.5 -13.5q0 -17 -12 -29l-660 -647l709 -702q10 -10 10 -25q0 -12 -14 -12h-201q-30 0 -53 23l-651 649v-641
q0 -12 -9.5 -21.5t-21.5 -9.5zM635 -678l-33 14q-11 6 -14.5 18t2.5 23q64 135 74 195q-46 3 -77.5 38.5t-31.5 82.5q0 51 34 86t85 35q69 0 102 -40t33 -96q0 -128 -131 -344q-7 -12 -20 -15t-23 3z" />
    <glyph glyph-name="kcommaaccent" unicode="&#x137;" horiz-adv-x="1130" 
d="M369 457v-426q0 -12 -9.5 -21.5t-21.5 -9.5h-143q-12 0 -21.5 9.5t-9.5 21.5v1372q0 12 9.5 21.5t21.5 9.5h143q12 0 21.5 -9.5t9.5 -21.5v-807l395 405q23 23 53 23h205q5 0 8 -6q3 -3 -2 -8l-485 -478l520 -512q7 -6 4 -14q-3 -6 -10 -6h-209q-30 0 -53 23zM489 -678
l-32 14q-11 6 -15 18t2 23q64 135 74 195q-46 3 -77 38.5t-31 82.5q0 51 33.5 86t84.5 35q69 0 102.5 -40t33.5 -96q0 -126 -132 -344q-7 -12 -20 -15t-23 3z" />
    <glyph glyph-name="kgreenlandic" unicode="&#x138;" horiz-adv-x="1130" 
d="M369 457v-426q0 -12 -9.5 -21.5t-21.5 -9.5h-143q-12 0 -21.5 9.5t-9.5 21.5v964q0 12 9.5 21.5t21.5 9.5h143q12 0 21.5 -9.5t9.5 -21.5v-399l395 405q23 23 53 23h205q5 0 8 -6q3 -3 -2 -8l-485 -478l520 -512q7 -6 4 -14q-3 -6 -10 -6h-209q-30 0 -53 23z" />
    <glyph glyph-name="Lacute" unicode="&#x139;" horiz-adv-x="1085" 
d="M416 1403v-1219h516q12 0 21.5 -9t9.5 -21v-123q0 -12 -9.5 -21.5t-21.5 -9.5h-696q-12 0 -21.5 9.5t-9.5 21.5v1372q0 12 9.5 21.5t21.5 9.5h149q12 0 21.5 -9.5t9.5 -21.5zM362 1743l267 199q9 7 22 4.5t19 -11.5l59 -88q8 -9 5 -22t-13 -19l-283 -174q-11 -7 -24 -5
t-19 13l-41 60q-6 9 -4 22.5t12 20.5z" />
    <glyph glyph-name="lacute" unicode="&#x13a;" horiz-adv-x="532" 
d="M369 1403v-1372q0 -12 -9.5 -21.5t-21.5 -9.5h-143q-12 0 -21.5 9.5t-9.5 21.5v1372q0 12 9.5 21.5t21.5 9.5h143q12 0 21.5 -9.5t9.5 -21.5zM86 1731l266 198q9 7 22 5t19 -11l60 -88q7 -9 4.5 -22t-13.5 -19l-282 -174q-11 -7 -24 -5t-19 13l-41 60q-6 9 -4 22.5
t12 20.5z" />
    <glyph glyph-name="Lcommaaccent" unicode="&#x13b;" horiz-adv-x="1085" 
d="M416 1403v-1219h516q12 0 21.5 -9t9.5 -21v-123q0 -12 -9.5 -21.5t-21.5 -9.5h-696q-12 0 -21.5 9.5t-9.5 21.5v1372q0 12 9.5 21.5t21.5 9.5h149q12 0 21.5 -9.5t9.5 -21.5zM532 -678l-32 14q-11 6 -15 18t2 23q64 135 74 195q-46 3 -77 38.5t-31 82.5q0 51 33.5 86
t84.5 35q69 0 102.5 -40t33.5 -96q0 -126 -132 -344q-7 -12 -20 -15t-23 3z" />
    <glyph glyph-name="lcommaaccent" unicode="&#x13c;" horiz-adv-x="499" 
d="M352 1403v-1372q0 -12 -9 -21.5t-21 -9.5h-144q-12 0 -21.5 9.5t-9.5 21.5v1372q0 12 9.5 21.5t21.5 9.5h144q12 0 21 -9.5t9 -21.5zM203 -678l-33 14q-11 6 -14.5 18t2.5 23q62 132 73 195q-46 3 -77 38.5t-31 82.5q0 51 34 86t85 35q69 0 102 -40t33 -96
q0 -128 -131 -344q-7 -12 -20 -15t-23 3z" />
    <glyph glyph-name="Lcaron" unicode="&#x13d;" horiz-adv-x="1085" 
d="M416 1403v-1219h516q12 0 21.5 -9t9.5 -21v-123q0 -12 -9.5 -21.5t-21.5 -9.5h-696q-12 0 -21.5 9.5t-9.5 21.5v1372q0 12 9.5 21.5t21.5 9.5h149q12 0 21.5 -9.5t9.5 -21.5zM709 897l-47 23q-11 6 -15 18t2 23q81 154 96 241q-52 4 -86 43t-34 92q0 57 38 95t95 38
q77 0 113 -43t36 -106q0 -147 -153 -410q-17 -24 -45 -14z" />
    <glyph glyph-name="lcaron" unicode="&#x13e;" horiz-adv-x="847" 
d="M369 1403v-1372q0 -12 -9.5 -21.5t-21.5 -9.5h-143q-12 0 -21.5 9.5t-9.5 21.5v1372q0 12 9.5 21.5t21.5 9.5h143q12 0 21.5 -9.5t9.5 -21.5zM649 874l-47 23q-11 6 -14.5 18t2.5 23q80 153 96 242q-52 4 -86.5 43t-34.5 92q0 57 38 95t95 38q77 0 113.5 -43.5
t36.5 -106.5q0 -144 -154 -409q-18 -25 -45 -15z" />
    <glyph glyph-name="Ldot" unicode="&#x13f;" horiz-adv-x="1085" 
d="M416 1403v-1219h516q12 0 21.5 -9t9.5 -21v-123q0 -12 -9.5 -21.5t-21.5 -9.5h-696q-12 0 -21.5 9.5t-9.5 21.5v1372q0 12 9.5 21.5t21.5 9.5h149q12 0 21.5 -9.5t9.5 -21.5zM662 684q0 -56 38.5 -95.5t94.5 -39.5q55 0 95 39.5t40 95.5t-39.5 94.5t-95.5 38.5
q-57 0 -95 -38t-38 -95z" />
    <glyph glyph-name="ldot" unicode="&#x140;" horiz-adv-x="917" 
d="M389 1403v-1372q0 -12 -9.5 -21.5t-21.5 -9.5h-143q-12 0 -21.5 9.5t-9.5 21.5v1372q0 12 9.5 21.5t21.5 9.5h143q12 0 21.5 -9.5t9.5 -21.5zM588 668q0 -56 38.5 -96t94.5 -40q55 0 95 40t40 96t-39.5 94.5t-95.5 38.5q-57 0 -95 -38t-38 -95z" />
    <glyph glyph-name="Lslash" unicode="&#x141;" horiz-adv-x="1097" 
d="M76 524l-39 68q-7 11 -4 23t14 18l170 98v672q0 12 9.5 21.5t21.5 9.5h149q12 0 21.5 -9.5t9.5 -21.5v-549l279 160q11 7 23 4t20 -14l38 -68q7 -11 4 -23t-14 -20l-350 -203v-506h516q12 0 21.5 -9t9.5 -21v-123q0 -12 -9.5 -21.5t-21.5 -9.5h-696q-12 0 -21.5 9.5
t-9.5 21.5v538l-98 -57q-11 -6 -23 -2.5t-20 14.5z" />
    <glyph glyph-name="lslash" unicode="&#x142;" horiz-adv-x="712" 
d="M76 524l-39 68q-7 11 -4 23t14 18l170 98v672q0 12 9.5 21.5t21.5 9.5h149q12 0 21.5 -9.5t9.5 -21.5v-549l166 94q11 7 23 4t20 -14l39 -68q7 -11 4 -23t-14 -20l-238 -137v-657q0 -12 -9.5 -21.5t-21.5 -9.5h-149q-12 0 -21.5 9.5t-9.5 21.5v536l-98 -57
q-11 -6 -23 -2.5t-20 14.5z" />
    <glyph glyph-name="Nacute" unicode="&#x143;" horiz-adv-x="1570" 
d="M1155 475v928q0 12 9.5 21.5t21.5 9.5h149q12 0 21.5 -9.5t9.5 -21.5v-1395q0 -8 -5 -13t-13 -5q-20 0 -31 14l-899 965l-2 -938q0 -12 -9.5 -21.5t-21.5 -9.5h-149q-12 0 -21.5 9.5t-9.5 21.5v1396q0 9 5 15t13 6q19 0 33 -14zM604 1743l266 199q9 7 22 4.5t19 -11.5
l60 -88q8 -9 5 -22t-13 -19l-283 -174q-11 -7 -24 -5t-19 13l-41 60q-6 9 -4 22.5t12 20.5z" />
    <glyph glyph-name="nacute" unicode="&#x144;" horiz-adv-x="1185" 
d="M369 733v-702q0 -12 -9.5 -21.5t-21.5 -9.5h-143q-12 0 -21.5 9.5t-9.5 21.5v962q0 12 9.5 21.5t21.5 9.5h61q30 0 41 -29l25 -75q126 120 309 120q79 0 143.5 -16t109 -43t77.5 -67.5t52 -83t30.5 -96.5t15.5 -101.5t4 -104.5v-497q0 -12 -9.5 -21.5t-21.5 -9.5h-145
q-12 0 -21.5 9.5t-9.5 21.5v497q-1 8 -1.5 43t-3 59.5t-9.5 63t-23 66t-40 54t-64.5 40.5t-93.5 14q-85 0 -152 -40t-100 -95zM412 1333l266 199q9 7 22 5t19 -11l59 -88q8 -9 5 -22t-13 -19l-283 -174q-11 -7 -24 -5t-19 13l-41 59q-6 9 -3.5 22.5t12.5 20.5z" />
    <glyph glyph-name="Ncommaaccent" unicode="&#x145;" horiz-adv-x="1570" 
d="M1155 475v928q0 12 9.5 21.5t21.5 9.5h149q12 0 21.5 -9.5t9.5 -21.5v-1395q0 -8 -5 -13t-13 -5q-20 0 -31 14l-899 965l-2 -938q0 -12 -9.5 -21.5t-21.5 -9.5h-149q-12 0 -21.5 9.5t-9.5 21.5v1396q0 9 5 15t13 6q19 0 33 -14zM737 -678l-32 14q-11 6 -15 18t2 23
q64 135 74 195q-46 3 -77.5 38.5t-31.5 82.5q0 51 34 86t85 35q69 0 102 -40t33 -96q0 -128 -131 -344q-7 -12 -20 -15t-23 3z" />
    <glyph glyph-name="ncommaaccent" unicode="&#x146;" horiz-adv-x="1185" 
d="M369 733v-702q0 -12 -9.5 -21.5t-21.5 -9.5h-143q-12 0 -21.5 9.5t-9.5 21.5v962q0 12 9.5 21.5t21.5 9.5h61q30 0 41 -29l25 -75q126 120 309 120q79 0 143.5 -16t109 -43t77.5 -67.5t52 -83t30.5 -96.5t15.5 -101.5t4 -104.5v-497q0 -12 -9.5 -21.5t-21.5 -9.5h-145
q-12 0 -21.5 9.5t-9.5 21.5v497q-1 8 -1.5 43t-3 59.5t-9.5 63t-23 66t-40 54t-64.5 40.5t-93.5 14q-85 0 -152 -40t-100 -95zM545 -678l-33 14q-11 6 -14.5 18t2.5 23q62 132 73 195q-46 3 -77 38.5t-31 82.5q0 51 34 86t85 35q69 0 102 -40t33 -96q0 -128 -131 -344
q-7 -12 -20 -15t-23 3z" />
    <glyph glyph-name="Ncaron" unicode="&#x147;" horiz-adv-x="1570" 
d="M1155 475v928q0 12 9.5 21.5t21.5 9.5h149q12 0 21.5 -9.5t9.5 -21.5v-1395q0 -8 -5 -13t-13 -5q-20 0 -31 14l-899 965l-2 -938q0 -12 -9.5 -21.5t-21.5 -9.5h-149q-12 0 -21.5 9.5t-9.5 21.5v1396q0 9 5 15t13 6q19 0 33 -14zM760 1632l-266 199q-10 7 -12.5 20t3.5 23
l41 59q6 10 19 13t24 -4l215 -132l215 132q11 7 24 4t19 -13l41 -59q15 -26 -8 -43l-266 -199q-11 -8 -24.5 -8t-24.5 8z" />
    <glyph glyph-name="ncaron" unicode="&#x148;" horiz-adv-x="1185" 
d="M369 733v-702q0 -12 -9.5 -21.5t-21.5 -9.5h-143q-12 0 -21.5 9.5t-9.5 21.5v962q0 12 9.5 21.5t21.5 9.5h61q30 0 41 -29l25 -75q126 120 309 120q79 0 143.5 -16t109 -43t77.5 -67.5t52 -83t30.5 -96.5t15.5 -101.5t4 -104.5v-497q0 -12 -9.5 -21.5t-21.5 -9.5h-145
q-12 0 -21.5 9.5t-9.5 21.5v497q-1 8 -1.5 43t-3 59.5t-9.5 63t-23 66t-40 54t-64.5 40.5t-93.5 14q-85 0 -152 -40t-100 -95zM567 1223l-266 198q-23 17 -8 43l41 60q6 9 19 12t24 -4l215 -131l215 131q11 7 24 4t19 -12l41 -60q15 -26 -8 -43l-267 -198q-24 -17 -49 0z
" />
    <glyph glyph-name="napostrophe" unicode="&#x149;" horiz-adv-x="1376" 
d="M559 733v-702q0 -12 -9.5 -21.5t-21.5 -9.5h-143q-12 0 -21.5 9.5t-9.5 21.5v962q0 12 9.5 21.5t21.5 9.5h61q30 0 41 -29l25 -75q126 120 309 120q79 0 143.5 -16t109 -43t77.5 -67.5t52 -83t30.5 -96.5t15.5 -101.5t4 -104.5v-497q0 -12 -9 -21.5t-21 -9.5h-146
q-12 0 -21 9.5t-9 21.5v497q-1 9 -1.5 37t-1.5 49.5t-6.5 55t-14.5 58.5t-26.5 52.5t-41.5 45.5t-61 30t-83 12q-85 0 -152 -40t-100 -95zM100 1026l-32 14q-11 6 -15 18t2 23q64 135 74 195q-46 3 -77.5 38.5t-31.5 82.5q0 51 34 86t85 35q69 0 102 -40t33 -96
q0 -128 -131 -344q-7 -12 -20 -15t-23 3z" />
    <glyph glyph-name="Eng" unicode="&#x14a;" horiz-adv-x="1572" 
d="M1155 485v918q0 12 9.5 21.5t21.5 9.5h149q12 0 21.5 -9.5t9.5 -21.5v-1436q0 -282 -184 -368q-71 -33 -166 -33q-140 0 -252 80q-10 7 -12 21t6 26l55 84q6 11 19 14.5t24 -2.5q77 -41 145 -41q72 0 113 53t41 166v215l-737 805h-2v-956q0 -12 -9.5 -21.5t-21.5 -9.5
h-149q-12 0 -21.5 9.5t-9.5 21.5v1403q0 10 7.5 18t16.5 8q28 0 43 -18z" />
    <glyph glyph-name="eng" unicode="&#x14b;" horiz-adv-x="1185" 
d="M555 -209q77 -41 145 -41q72 0 114 53t42 166v559q-1 8 -1.5 43t-3 59.5t-9.5 63t-23 66t-40 54t-64.5 40.5t-93.5 14q-85 0 -152 -40t-100 -95v-702q0 -12 -9.5 -21.5t-21.5 -9.5h-143q-12 0 -21.5 9.5t-9.5 21.5v962q0 12 9.5 21.5t21.5 9.5h61q30 0 41 -29l25 -75
q126 120 309 120q79 0 143.5 -16t109 -43t77.5 -67.5t52 -83t30.5 -96.5t15.5 -101.5t4 -104.5l-2 -559q0 -100 -19 -166q-55 -195 -248 -229q-38 -6 -79 -6q-140 0 -252 80q-10 7 -12 21t6 26l55 84q6 11 19 14.5t24 -2.5z" />
    <glyph glyph-name="Omacron" unicode="&#x14c;" horiz-adv-x="1662" 
d="M831 1454q114 0 211.5 -25t168.5 -68t128.5 -102.5t94 -124.5t61 -138.5t35 -141.5t10.5 -135q0 -69 -10.5 -138t-35 -142.5t-61 -139t-94 -124t-128.5 -101t-168.5 -67.5t-211.5 -25t-211.5 25t-168.5 67.5t-128 101.5t-94 124t-61.5 138.5t-34.5 142.5t-10 138
q0 67 10 135t34.5 141.5t61.5 138.5t94 124.5t128 102.5t168.5 68t211.5 25zM831 168q89 0 163 23.5t124 61.5t88.5 89t60.5 102t35.5 106t18 95t4.5 74t-4.5 74t-18 94.5t-35.5 105.5t-60.5 102t-88.5 88.5t-124 61t-163 23.5t-163 -23.5t-124 -61t-89 -88.5t-60.5 -102
t-35.5 -105.5t-18.5 -94.5t-4.5 -74t4.5 -74t18.5 -95t35.5 -106t60.5 -102t89 -89t124 -61.5t163 -23.5zM553 1774h555q12 0 21.5 -9.5t9.5 -21.5v-82q0 -12 -9.5 -21.5t-21.5 -9.5h-555q-12 0 -21.5 9.5t-9.5 21.5v82q0 12 9.5 21.5t21.5 9.5z" />
    <glyph glyph-name="omacron" unicode="&#x14d;" horiz-adv-x="1265" 
d="M633 1040q113 0 203.5 -34.5t146.5 -89t93 -126t52 -140.5t15 -138q0 -71 -15 -140.5t-52 -140.5t-93 -125t-146.5 -88t-203.5 -34t-203.5 34t-146.5 88t-93 125t-52 140.5t-15 140.5q0 69 15 138t52 140.5t93 126t146.5 89t203.5 34.5zM633 154q55 0 101 15.5t77 39.5
t55 57.5t37.5 66.5t22 69t11.5 62t3 48t-3 48t-11.5 62t-22 69t-37.5 66.5t-55 57.5t-77 39.5t-101 15.5t-101 -15.5t-77 -39.5t-55 -57.5t-37.5 -66.5t-22 -69t-11.5 -62t-3 -48t3 -48t11.5 -62t22 -69t37.5 -66.5t55 -57.5t77 -39.5t101 -15.5zM354 1364h555
q12 0 21.5 -9.5t9.5 -21.5v-82q0 -12 -9.5 -21t-21.5 -9h-555q-12 0 -21 9t-9 21v82q0 12 9 21.5t21 9.5z" />
    <glyph glyph-name="Obreve" unicode="&#x14e;" horiz-adv-x="1662" 
d="M831 1454q114 0 211.5 -25t168.5 -68t128.5 -102.5t94 -124.5t61 -138.5t35 -141.5t10.5 -135q0 -69 -10.5 -138t-35 -142.5t-61 -139t-94 -124t-128.5 -101t-168.5 -67.5t-211.5 -25t-211.5 25t-168.5 67.5t-128 101.5t-94 124t-61.5 138.5t-34.5 142.5t-10 138
q0 67 10 135t34.5 141.5t61.5 138.5t94 124.5t128 102.5t168.5 68t211.5 25zM831 168q89 0 163 23.5t124 61.5t88.5 89t60.5 102t35.5 106t18 95t4.5 74t-4.5 74t-18 94.5t-35.5 105.5t-60.5 102t-88.5 88.5t-124 61t-163 23.5t-163 -23.5t-124 -61t-89 -88.5t-60.5 -102
t-35.5 -105.5t-18.5 -94.5t-4.5 -74t4.5 -74t18.5 -95t35.5 -106t60.5 -102t89 -89t124 -61.5t163 -23.5zM1004 1896l81 -24q12 -3 18 -14.5t3 -22.5q-34 -98 -108.5 -155.5t-168.5 -57.5t-168 57t-106 156q-4 12 2 23t18 14l80 24q10 3 21 -3t16 -17q19 -52 55 -80.5
t82 -28.5q48 0 84.5 28t53.5 79q4 12 15 18.5t22 3.5z" />
    <glyph glyph-name="obreve" unicode="&#x14f;" horiz-adv-x="1265" 
d="M633 1040q113 0 203.5 -34.5t146.5 -89t93 -126t52 -140.5t15 -138q0 -71 -15 -140.5t-52 -140.5t-93 -125t-146.5 -88t-203.5 -34t-203.5 34t-146.5 88t-93 125t-52 140.5t-15 140.5q0 69 15 138t52 140.5t93 126t146.5 89t203.5 34.5zM633 154q55 0 101 15.5t77 39.5
t55 57.5t37.5 66.5t22 69t11.5 62t3 48t-3 48t-11.5 62t-22 69t-37.5 66.5t-55 57.5t-77 39.5t-101 15.5t-101 -15.5t-77 -39.5t-55 -57.5t-37.5 -66.5t-22 -69t-11.5 -62t-3 -48t3 -48t11.5 -62t22 -69t37.5 -66.5t55 -57.5t77 -39.5t101 -15.5zM805 1487l82 -25
q12 -3 17.5 -14.5t2.5 -22.5q-34 -98 -108 -155.5t-168 -57.5t-168.5 57t-106.5 156q-4 12 2.5 23t18.5 14l80 25q10 3 21 -3.5t16 -17.5q19 -52 55 -80t82 -28q48 0 84 27.5t53 78.5q5 12 16 19t21 4z" />
    <glyph glyph-name="Ohungarumlaut" unicode="&#x150;" horiz-adv-x="1662" 
d="M831 1454q114 0 211.5 -25t168.5 -68t128.5 -102.5t94 -124.5t61 -138.5t35 -141.5t10.5 -135q0 -69 -10.5 -138t-35 -142.5t-61 -139t-94 -124t-128.5 -101t-168.5 -67.5t-211.5 -25t-211.5 25t-168.5 67.5t-128 101.5t-94 124t-61.5 138.5t-34.5 142.5t-10 138
q0 67 10 135t34.5 141.5t61.5 138.5t94 124.5t128 102.5t168.5 68t211.5 25zM831 168q89 0 163 23.5t124 61.5t88.5 89t60.5 102t35.5 106t18 95t4.5 74t-4.5 74t-18 94.5t-35.5 105.5t-60.5 102t-88.5 88.5t-124 61t-163 23.5t-163 -23.5t-124 -61t-89 -88.5t-60.5 -102
t-35.5 -105.5t-18.5 -94.5t-4.5 -74t4.5 -74t18.5 -95t35.5 -106t60.5 -102t89 -89t124 -61.5t163 -23.5zM1165 1909l-108 -258q-13 -29 -43 -29h-78q-11 0 -18.5 9.5t-4.5 19.5l82 258q5 12 16.5 20t24.5 8h111q11 0 16.5 -9t1.5 -19zM811 1909l-109 -258q-13 -29 -43 -29
h-77q-11 0 -18.5 9.5t-4.5 19.5l82 258q11 28 41 28h111q11 0 16.5 -9t1.5 -19z" />
    <glyph glyph-name="ohungarumlaut" unicode="&#x151;" horiz-adv-x="1265" 
d="M633 1040q113 0 203.5 -34.5t146.5 -89t93 -126t52 -140.5t15 -138q0 -71 -15 -140.5t-52 -140.5t-93 -125t-146.5 -88t-203.5 -34t-203.5 34t-146.5 88t-93 125t-52 140.5t-15 140.5q0 69 15 138t52 140.5t93 126t146.5 89t203.5 34.5zM633 154q55 0 101 15.5t77 39.5
t55 57.5t37.5 66.5t22 69t11.5 62t3 48t-3 48t-11.5 62t-22 69t-37.5 66.5t-55 57.5t-77 39.5t-101 15.5t-101 -15.5t-77 -39.5t-55 -57.5t-37.5 -66.5t-22 -69t-11.5 -62t-3 -48t3 -48t11.5 -62t22 -69t37.5 -66.5t55 -57.5t77 -39.5t101 -15.5zM977 1507l-109 -258
q-12 -28 -43 -28h-77q-11 0 -18.5 9t-4.5 19l82 258q11 29 41 29h110q11 0 17 -9.5t2 -19.5zM623 1507l-109 -258q-12 -28 -43 -28h-78q-11 0 -18 9t-4 19l82 258q11 29 41 29h110q11 0 17 -9.5t2 -19.5z" />
    <glyph glyph-name="OE" unicode="&#x152;" horiz-adv-x="2037" 
d="M1202 1249v-450h520q12 0 21.5 -9.5t9.5 -21.5v-123q0 -12 -9.5 -21.5t-21.5 -9.5h-520v-430h682q12 0 21.5 -9t9.5 -21v-123q0 -12 -9.5 -21.5t-21.5 -9.5h-868q-86 -18 -185 -18q-114 0 -211.5 25t-168.5 67.5t-128 101.5t-94 124t-61.5 138.5t-34.5 142.5t-10 138
q0 67 10 135t34.5 141t61.5 138t94 124.5t128 102t168.5 67.5t211.5 25q101 0 183 -18h870q12 0 21.5 -9.5t9.5 -21.5v-123q0 -12 -9.5 -21.5t-21.5 -9.5h-682zM831 168q93 0 160 20v1055q-77 23 -160 23q-89 0 -163 -23.5t-124 -61t-89 -88t-60.5 -101t-35.5 -105.5
t-18.5 -94.5t-4.5 -73.5t4.5 -74t18.5 -95t35.5 -106t60.5 -102t89 -89t124 -61.5t163 -23.5z" />
    <glyph glyph-name="oe" unicode="&#x153;" horiz-adv-x="1953" 
d="M1446 164q158 0 280 98q9 8 21.5 7.5t21.5 -9.5l68 -82q9 -9 8 -22t-10 -21q-85 -75 -178 -111t-211 -36q-271 0 -406 184q-135 -188 -407 -188q-113 0 -203.5 34t-146.5 88t-93 125t-52 140.5t-15 140.5q0 69 15 138t52 140.5t93 126t146.5 89t203.5 34.5
q266 0 403 -186q137 195 410 195q223 0 331 -150.5t74 -396.5q-2 -14 -11.5 -22.5t-22.5 -8.5h-676q5 -39 15 -76t33 -80.5t54.5 -75.5t84.5 -53.5t118 -21.5zM1440 879q-57 0 -104 -16t-78 -41t-55.5 -60.5t-37.5 -68.5t-22 -70h516q6 42 -1.5 84t-31 80.5t-71.5 63.5
t-115 28zM633 154q55 0 101 15.5t77 39.5t55 57.5t37.5 66.5t22 69t11.5 62t3 48t-3 48t-11.5 62t-22 69t-37.5 66.5t-55 57.5t-77 39.5t-101 15.5t-101 -15.5t-77 -39.5t-55 -57.5t-37.5 -66.5t-22 -69t-11.5 -62t-3 -48t3 -48t11.5 -62t22 -69t37.5 -66.5t55 -57.5
t77 -39.5t101 -15.5z" />
    <glyph glyph-name="Racute" unicode="&#x154;" horiz-adv-x="1355" 
d="M856 1806l-283 -174q-11 -7 -24 -5t-19 13l-41 60q-6 9 -3.5 22.5t12.5 20.5l266 199q9 7 22 4.5t19 -11.5l59 -88q8 -9 5 -22t-13 -19zM1233 985q0 -153 -91.5 -267t-228.5 -161l250 -528q4 -10 -1.5 -19.5t-16.5 -9.5h-164q-33 0 -43 29l-238 503h-288v-501
q0 -12 -9.5 -21.5t-21.5 -9.5h-145q-12 0 -21.5 9.5t-9.5 21.5v1372q0 12 9.5 21.5t21.5 9.5h499q110 0 198.5 -29.5t143 -76t91 -107.5t51 -119.5t14.5 -116.5zM412 719h342q62 1 111.5 21.5t78 49.5t47 66.5t25 69t6.5 59.5q0 31 -6.5 63.5t-26 70t-49 66t-80 47.5
t-115.5 19h-333v-532z" />
    <glyph glyph-name="racute" unicode="&#x155;" horiz-adv-x="749" 
d="M723 999l-21 -116q-3 -12 -13.5 -19.5t-22.5 -5.5q-16 2 -50 2q-88 0 -156.5 -38t-90.5 -99v-692q0 -12 -9.5 -21.5t-21.5 -9.5h-143q-12 0 -21.5 9.5t-9.5 21.5v962q0 12 9.5 21.5t21.5 9.5h61q30 0 41 -29l25 -75q126 120 309 120q23 0 67 -6q12 -2 20 -12.5t5 -22.5z
M215 1333l266 199q9 7 22 5t19 -11l60 -88q7 -9 4.5 -22t-13.5 -19l-282 -174q-11 -7 -24 -5t-19 13l-41 59q-6 9 -4 22.5t12 20.5z" />
    <glyph glyph-name="Rcommaaccent" unicode="&#x156;" horiz-adv-x="1357" 
d="M1233 985q0 -153 -91.5 -267t-228.5 -161l250 -528q4 -10 -1.5 -19.5t-16.5 -9.5h-164q-33 0 -43 29l-238 503h-288v-501q0 -12 -9.5 -21.5t-21.5 -9.5h-145q-12 0 -21.5 9.5t-9.5 21.5v1372q0 12 9.5 21.5t21.5 9.5h499q110 0 198.5 -29.5t143 -76t91 -107.5t51 -119.5
t14.5 -116.5zM412 719h342q62 1 111.5 21.5t78 49.5t47 66.5t25 69t6.5 59.5q0 31 -6.5 63.5t-26 70t-49 66t-80 47.5t-115.5 19h-333v-532zM670 -186q69 0 102 -40t33 -96q0 -128 -131 -344q-7 -12 -20 -15t-23 3l-33 14q-11 6 -14.5 18t2.5 23q62 132 73 195
q-46 3 -77 38.5t-31 82.5q0 51 34 86t85 35z" />
    <glyph glyph-name="rcommaaccent" unicode="&#x157;" horiz-adv-x="768" 
d="M723 999l-21 -116q-3 -12 -13.5 -19.5t-22.5 -5.5q-16 2 -50 2q-88 0 -156.5 -38t-90.5 -99v-692q0 -12 -9.5 -21.5t-21.5 -9.5h-143q-12 0 -21.5 9.5t-9.5 21.5v962q0 12 9.5 21.5t21.5 9.5h61q30 0 41 -29l25 -75q126 120 309 120q23 0 67 -6q12 -2 20 -12.5t5 -22.5z
M215 -678l-33 14q-11 6 -14.5 18t2.5 23q64 135 74 195q-46 3 -77.5 38.5t-31.5 82.5q0 51 34 86t85 35q69 0 102 -40t33 -96q0 -128 -131 -344q-7 -12 -20 -15t-23 3z" />
    <glyph glyph-name="Rcaron" unicode="&#x158;" horiz-adv-x="1355" 
d="M1233 985q0 -153 -91.5 -267t-228.5 -161l250 -528q4 -10 -1.5 -19.5t-16.5 -9.5h-164q-33 0 -43 29l-238 503h-288v-501q0 -12 -9.5 -21.5t-21.5 -9.5h-145q-12 0 -21.5 9.5t-9.5 21.5v1372q0 12 9.5 21.5t21.5 9.5h499q110 0 198.5 -29.5t143 -76t91 -107.5t51 -119.5
t14.5 -116.5zM412 719h342q62 1 111.5 21.5t78 49.5t47 66.5t25 69t6.5 59.5q0 31 -6.5 63.5t-26 70t-49 66t-80 47.5t-115.5 19h-333v-532zM926 1831l-267 -199q-10 -8 -24 -8t-25 8l-266 199q-23 17 -8 43l41 59q6 10 19 13t24 -4l215 -132l215 132q11 7 24 4t19 -13
l41 -59q15 -26 -8 -43z" />
    <glyph glyph-name="rcaron" unicode="&#x159;" horiz-adv-x="761" 
d="M715 999l-21 -116q-3 -12 -14 -19.5t-23 -5.5q-16 2 -49 2q-88 0 -157 -38t-91 -99v-692q0 -12 -9 -21.5t-21 -9.5h-144q-12 0 -21 9.5t-9 21.5v962q0 12 9 21.5t21 9.5h62q30 0 41 -29l24 -75q126 120 310 120q23 0 67 -6q12 -2 20 -12.5t5 -22.5zM352 1223l-266 198
q-23 17 -8 43l41 60q6 9 19 12t24 -4l215 -131l215 131q11 7 24 4t19 -12l41 -60q15 -26 -8 -43l-267 -198q-25 -17 -49 0z" />
    <glyph glyph-name="Sacute" unicode="&#x15a;" horiz-adv-x="1273" 
d="M819 1806l-282 -174q-11 -7 -24 -5t-19 13l-41 60q-6 9 -4 22.5t12 20.5l266 199q9 7 22 4.5t19 -11.5l59 -88q8 -9 5 -22t-13 -19zM346 1077q0 -53 27.5 -92.5t74 -65t107 -46.5t127.5 -40.5t133.5 -42.5t127 -58t107 -81t74 -117t27.5 -161q0 -165 -145.5 -277
t-362.5 -112q-146 0 -261 27t-232 85q-11 6 -15 18.5t0 22.5l53 111q6 12 18.5 16.5t24.5 -0.5q203 -94 396 -94q125 0 215 57t90 148q0 62 -27.5 108.5t-73.5 76t-105.5 52t-125.5 41t-132.5 38.5t-126 50.5t-105.5 70.5t-73.5 103.5t-27.5 145.5q0 183 124 289t323 106
q234 0 462 -102q12 -4 17 -16.5t0 -24.5l-53 -117q-4 -12 -16.5 -17.5t-24.5 -0.5q-83 32 -180.5 57t-157.5 25q-62 0 -108 -7.5t-86 -26.5t-62.5 -56.5t-26.5 -92.5z" />
    <glyph glyph-name="sacute" unicode="&#x15b;" horiz-adv-x="1007" 
d="M684 1397l-283 -174q-11 -7 -24 -5t-19 13l-41 59q-6 9 -3.5 22.5t12.5 20.5l266 199q9 7 22 5t19 -11l59 -88q8 -9 5 -22t-13 -19zM334 756q0 -38 30.5 -65.5t79 -45.5t107 -36t117.5 -43t107.5 -59.5t79 -93.5t30.5 -137q0 -130 -105.5 -211t-267.5 -81
q-107 0 -191.5 21t-170.5 67q-11 6 -15 18.5t0 24.5l47 94q4 12 16.5 16t22.5 -2q145 -69 279 -69q73 0 123.5 33t50.5 87q0 46 -29.5 78t-77 51.5t-104.5 36.5t-114.5 39.5t-104.5 53.5t-76 85.5t-29 129.5q1 136 92.5 214t239.5 78q175 0 340 -77q12 -6 16.5 -18.5
t-0.5 -24.5l-47 -99q-4 -12 -16.5 -16.5t-24.5 0.5q-142 57 -231 57q-169 0 -174 -106z" />
    <glyph glyph-name="Scircumflex" unicode="&#x15c;" horiz-adv-x="1273" 
d="M346 1077q0 -53 27.5 -92.5t74 -65t107 -46.5t127.5 -40.5t133.5 -42.5t127 -58t107 -81t74 -117t27.5 -161q0 -165 -145.5 -277t-362.5 -112q-146 0 -261 27t-232 85q-11 6 -15 18.5t0 22.5l53 111q6 12 18.5 16.5t24.5 -0.5q203 -94 396 -94q125 0 215 57t90 148
q0 62 -27.5 108.5t-73.5 76t-105.5 52t-125.5 41t-132.5 38.5t-126 50.5t-105.5 70.5t-73.5 103.5t-27.5 145.5q0 183 124 289t323 106q234 0 462 -102q12 -4 17 -16.5t0 -24.5l-53 -117q-4 -12 -16.5 -17.5t-24.5 -0.5q-83 32 -180.5 57t-157.5 25q-62 0 -108 -7.5
t-86 -26.5t-62.5 -56.5t-26.5 -92.5zM641 1761l-215 -131q-11 -7 -24 -5t-19 13l-41 60q-6 9 -4 22.5t12 20.5l266 198q10 7 25 7t25 -7l266 -198q10 -7 12 -20.5t-4 -22.5l-41 -60q-6 -11 -19 -13t-24 5z" />
    <glyph glyph-name="scircumflex" unicode="&#x15d;" horiz-adv-x="1007" 
d="M334 756q0 -38 30.5 -65.5t79 -45.5t107 -36t117.5 -43t107.5 -59.5t79 -93.5t30.5 -137q0 -130 -105.5 -211t-267.5 -81q-107 0 -191.5 21t-170.5 67q-11 6 -15 18.5t0 24.5l47 94q4 12 16.5 16t22.5 -2q145 -69 279 -69q73 0 123.5 33t50.5 87q0 46 -29.5 78t-77 51.5
t-104.5 36.5t-114.5 39.5t-104.5 53.5t-76 85.5t-29 129.5q1 136 92.5 214t239.5 78q175 0 340 -77q12 -6 16.5 -18.5t-0.5 -24.5l-47 -99q-4 -12 -16.5 -16.5t-24.5 0.5q-142 57 -231 57q-169 0 -174 -106zM508 1352l-215 -131q-11 -7 -24 -5t-19 13l-41 59q-6 9 -4 22.5
t12 20.5l266 199q11 8 25 8t24 -8l267 -199q10 -7 12 -20.5t-4 -22.5l-41 -59q-6 -11 -19 -13t-24 5z" />
    <glyph glyph-name="Scedilla" unicode="&#x15e;" horiz-adv-x="1273" 
d="M623 -147h-2q-18 0 -35 10q-15 11 -15 28v95q-230 14 -421 110q-11 6 -15 18.5t0 22.5l53 111q6 12 18.5 16.5t24.5 -0.5q203 -94 396 -94q125 0 215 57t90 148q0 62 -27.5 108.5t-73.5 76t-105.5 52t-125.5 41t-132.5 38.5t-126 50.5t-105.5 70.5t-73.5 103.5
t-27.5 145.5q0 183 124 289t323 106q234 0 462 -102q12 -4 17 -16.5t0 -24.5l-53 -117q-4 -12 -16.5 -17.5t-24.5 -0.5q-83 32 -180.5 57t-157.5 25q-62 0 -108 -7.5t-86 -26.5t-62.5 -56.5t-26.5 -92.5q0 -53 27.5 -92.5t74 -65t107 -46.5t127.5 -40.5t133.5 -42.5t127 -58
t107 -81t74 -117t27.5 -161q0 -155 -129.5 -264t-327.5 -123v-39h13q93 -4 140.5 -60t47.5 -125q0 -99 -65 -155t-152 -56q-92 0 -160 43q-10 7 -13 21.5t3 24.5l29 49q6 10 18.5 13.5t22.5 -1.5q53 -23 90 -23t62.5 26t25.5 58q0 39 -32 65t-101 26z" />
    <glyph glyph-name="scedilla" unicode="&#x15f;" horiz-adv-x="1007" 
d="M481 -147h-2q-18 0 -35 10q-14 11 -14 28v97q-142 10 -280 84q-11 6 -15 18.5t0 24.5l47 94q4 12 16.5 16t22.5 -2q145 -69 279 -69q73 0 123.5 33t50.5 87q0 46 -29.5 78t-76.5 51t-104.5 36t-114.5 39.5t-104 53t-76.5 85t-29.5 128.5q0 136 92 215.5t240 79.5
q175 0 340 -77q12 -6 16.5 -18.5t-0.5 -24.5l-47 -99q-4 -12 -16.5 -16.5t-24.5 0.5q-142 57 -231 57q-169 0 -174 -106q0 -38 30.5 -65.5t79 -45.5t107 -36t117.5 -43t107.5 -59.5t79 -93.5t30.5 -137q0 -122 -92.5 -200.5t-239.5 -89.5v-39h12q93 -4 141 -60t48 -125
q0 -99 -65 -155t-152 -56q-92 0 -160 43q-10 7 -13 21.5t3 24.5l28 49q6 10 18.5 13.5t22.5 -1.5q53 -23 90 -23t62.5 26t25.5 58q0 39 -32 65t-101 26z" />
    <glyph glyph-name="Scaron" unicode="&#x160;" horiz-adv-x="1273" 
d="M897 1817l-266 -199q-10 -8 -24 -8t-25 8l-267 199q-23 17 -8 43l41 59q6 9 19 12t24 -4l215 -131l215 131q11 7 24 4t19 -12l41 -59q15 -26 -8 -43zM346 1077q0 -53 27.5 -92.5t74 -65t107 -46.5t127.5 -40.5t133.5 -42.5t127 -58t107 -81t74 -117t27.5 -161
q0 -165 -145.5 -277t-362.5 -112q-146 0 -261 27t-232 85q-11 6 -15 18.5t0 22.5l53 111q6 12 18.5 16.5t24.5 -0.5q203 -94 396 -94q125 0 215 57t90 148q0 62 -27.5 108.5t-73.5 76t-105.5 52t-125.5 41t-132.5 38.5t-126 50.5t-105.5 70.5t-73.5 103.5t-27.5 145.5
q0 183 124 289t323 106q234 0 462 -102q12 -4 17 -16.5t0 -24.5l-53 -117q-4 -12 -16.5 -17.5t-24.5 -0.5q-83 32 -180.5 57t-157.5 25q-62 0 -108 -7.5t-86 -26.5t-62.5 -56.5t-26.5 -92.5z" />
    <glyph glyph-name="scaron" unicode="&#x161;" horiz-adv-x="1007" 
d="M334 756q0 -38 30.5 -65.5t79 -45.5t107 -36t117.5 -43t107.5 -59.5t79 -93.5t30.5 -137q0 -130 -105.5 -211t-267.5 -81q-107 0 -191.5 21t-170.5 67q-11 6 -15 18.5t0 24.5l47 94q4 12 16.5 16t22.5 -2q145 -69 279 -69q73 0 123.5 33t50.5 87q0 46 -29.5 78t-77 51.5
t-104.5 36.5t-114.5 39.5t-104.5 53.5t-76 85.5t-29 129.5q1 136 92.5 214t239.5 78q175 0 340 -77q12 -6 16.5 -18.5t-0.5 -24.5l-47 -99q-4 -12 -16.5 -16.5t-24.5 0.5q-142 57 -231 57q-169 0 -174 -106zM799 1421l-267 -198q-24 -17 -49 0l-266 198q-23 17 -8 43l41 60
q6 9 19 12t24 -4l215 -131l215 131q11 7 24 4t19 -12l41 -60q15 -26 -8 -43z" />
    <glyph glyph-name="Tcommaaccent" unicode="&#x162;" horiz-adv-x="1230" 
d="M508 31v1218h-385q-12 0 -21.5 9.5t-9.5 21.5v123q0 12 9.5 21.5t21.5 9.5h985q12 0 21.5 -9.5t9.5 -21.5v-123q0 -12 -9.5 -21.5t-21.5 -9.5h-389v-1218q0 -12 -9.5 -21.5t-21.5 -9.5h-149q-12 0 -21.5 9.5t-9.5 21.5zM567 -678l-32 14q-11 6 -15 18t2 23q64 135 74 195
q-46 3 -77.5 38.5t-31.5 82.5q0 51 34 86t85 35q69 0 102 -40t33 -96q0 -128 -131 -344q-7 -12 -20 -15t-23 3z" />
    <glyph glyph-name="tcommaaccent" unicode="&#x163;" horiz-adv-x="655" 
d="M147 854h-96q-12 0 -21.5 9.5t-9.5 21.5v108q0 12 9.5 21.5t21.5 9.5h96l17 172q2 12 12 21.5t23 9.5h123q12 0 21 -9.5t9 -21.5v-172h180q12 0 21.5 -9.5t9.5 -21.5v-108q0 -12 -9.5 -21.5t-21.5 -9.5h-180v-573q0 -62 21 -95t84 -28q33 3 102 18q12 2 23 -5t14 -19
l18 -91q3 -14 -4 -24.5t-20 -13.5q-110 -31 -225 -31q-56 0 -98.5 20.5t-64.5 49t-35.5 66.5t-16.5 65t-3 53v608zM281 -678l-33 14q-11 6 -14.5 18t2.5 23q62 132 73 195q-46 3 -77 38.5t-31 82.5q0 51 33.5 86t84.5 35q69 0 102.5 -40t33.5 -96q0 -128 -131 -344
q-7 -12 -20 -15t-23 3z" />
    <glyph glyph-name="Tcaron" unicode="&#x164;" horiz-adv-x="1230" 
d="M508 31v1218h-385q-12 0 -21.5 9.5t-9.5 21.5v123q0 12 9.5 21.5t21.5 9.5h985q12 0 21.5 -9.5t9.5 -21.5v-123q0 -12 -9.5 -21.5t-21.5 -9.5h-389v-1218q0 -12 -9.5 -21.5t-21.5 -9.5h-149q-12 0 -21.5 9.5t-9.5 21.5zM590 1632l-266 199q-10 7 -12.5 20t3.5 23l41 59
q6 10 19 13t24 -4l215 -132l215 132q11 7 24 4t19 -13l41 -59q15 -26 -8 -43l-266 -199q-10 -8 -24 -8t-25 8z" />
    <glyph glyph-name="tcaron" unicode="&#x165;" horiz-adv-x="1009" 
d="M147 854h-96q-12 0 -21.5 9.5t-9.5 21.5v108q0 12 9.5 21.5t21.5 9.5h96l17 168q2 12 12 21.5t23 9.5h123q12 0 21 -9.5t9 -21.5v-168h180q12 0 21.5 -9.5t9.5 -21.5v-108q0 -12 -9.5 -21.5t-21.5 -9.5h-180v-573q0 -62 21 -95t84 -28q33 3 102 18q12 2 23 -5t14 -19
l18 -91q3 -14 -4 -24.5t-20 -13.5q-110 -31 -225 -31q-56 0 -98.5 20.5t-64.5 49t-35.5 66.5t-16.5 65t-3 53v608zM811 901l-47 23q-11 6 -14.5 18t2.5 23q81 154 96 241q-52 4 -86.5 43t-34.5 92q0 57 38 95.5t95 38.5q77 0 113.5 -43.5t36.5 -106.5q0 -145 -154 -410
q-17 -24 -45 -14z" />
    <glyph glyph-name="Tbar" unicode="&#x166;" horiz-adv-x="1230" 
d="M508 649h-174q-12 0 -21.5 9.5t-9.5 21.5v74q0 12 9.5 21t21.5 9h174v465h-385q-12 0 -21.5 9.5t-9.5 21.5v123q0 12 9.5 21.5t21.5 9.5h985q12 0 21.5 -9.5t9.5 -21.5v-123q0 -12 -9.5 -21.5t-21.5 -9.5h-385v-465h172q12 0 21.5 -9t9.5 -21v-74q0 -12 -9.5 -21.5
t-21.5 -9.5h-172v-618q0 -12 -9.5 -21.5t-21.5 -9.5h-153q-12 0 -21.5 9.5t-9.5 21.5v618z" />
    <glyph glyph-name="tbar" unicode="&#x167;" horiz-adv-x="645" 
d="M51 688h101v166h-97q-12 0 -21 9.5t-9 21.5v108q0 12 9 21.5t21 9.5h97l16 172q2 12 12 21.5t23 9.5h123q12 0 21 -9.5t9 -21.5v-172h181q12 0 21 -9.5t9 -21.5v-108q0 -12 -9 -21.5t-21 -9.5h-181v-166h174q12 0 21.5 -9.5t9.5 -21.5v-94q0 -12 -9.5 -21.5t-21.5 -9.5
h-174v-251q0 -62 21 -95t84 -28q33 3 102 18q12 2 23 -5t14 -19l18 -91q3 -14 -4 -24.5t-20 -13.5q-110 -31 -225 -31q-56 0 -98.5 20.5t-64 48.5t-35 66.5t-16.5 65t-3 53.5v286h-101q-12 0 -21.5 9.5t-9.5 21.5v94q0 12 9.5 21.5t21.5 9.5z" />
    <glyph glyph-name="Utilde" unicode="&#x168;" horiz-adv-x="1484" 
d="M1118 1434h152q12 0 21 -9.5t9 -21.5v-858q0 -75 -18 -150t-60.5 -149.5t-104.5 -131.5t-159.5 -92.5t-216.5 -35.5t-216 35.5t-159 92.5t-104.5 132t-60 149.5t-17.5 149.5v858q0 12 9.5 21.5t21.5 9.5h147q12 0 21.5 -9.5t9.5 -21.5v-858q0 -34 9 -77.5t33.5 -98
t62 -98t101 -73.5t142.5 -30t142.5 30t100.5 73.5t61.5 98t33 97.5t8.5 78v858q0 12 9.5 21.5t21.5 9.5zM631 1692q-54 0 -90 -60q-6 -11 -18.5 -14.5t-24.5 2.5l-54 25q-11 6 -15.5 18.5t-0.5 24.5q58 155 205 155q43 0 80 -20t68.5 -40t60.5 -20q51 0 90 54q8 11 20 14.5
t23 -2.5l63 -33q11 -6 15 -18.5t-2 -24.5q-74 -141 -213 -141q-46 0 -106.5 40t-100.5 40z" />
    <glyph glyph-name="utilde" unicode="&#x169;" horiz-adv-x="1185" 
d="M481 1282q-27 0 -48 -12t-42 -47q-6 -11 -18.5 -15t-24.5 2l-53 25q-11 6 -15.5 18.5t-0.5 24.5q31 84 85.5 120t118.5 36q43 0 80 -20t68.5 -40t60.5 -20q52 0 90 53q8 11 20 14.5t23 -2.5l64 -33q11 -6 14.5 -18.5t-2.5 -24.5q-74 -141 -213 -141q-46 0 -106.5 40
t-100.5 40zM848 1024h143q12 0 21.5 -9.5t9.5 -21.5v-962q0 -12 -9.5 -21.5t-21.5 -9.5h-61q-30 0 -41 29l-25 75q-126 -120 -309 -120q-79 0 -143.5 16t-109 43t-77.5 67.5t-52 83t-30.5 96.5t-15.5 101.5t-4 104.5v497q0 12 9.5 21.5t21.5 9.5h145q12 0 21.5 -9.5
t9.5 -21.5v-497q1 -8 1.5 -43t3 -59.5t9.5 -63t23 -66t40 -54t64.5 -40.5t93.5 -14q85 0 152 40t100 95v702q0 12 9.5 21.5t21.5 9.5z" />
    <glyph glyph-name="Umacron" unicode="&#x16a;" horiz-adv-x="1484" 
d="M1051 1743v-82q0 -12 -9.5 -21.5t-21.5 -9.5h-555q-12 0 -21.5 9.5t-9.5 21.5v82q0 12 9.5 21.5t21.5 9.5h555q12 0 21.5 -9.5t9.5 -21.5zM1118 1434h152q12 0 21 -9.5t9 -21.5v-858q0 -75 -18 -150t-60.5 -149.5t-104.5 -131.5t-159.5 -92.5t-216.5 -35.5t-216 35.5
t-159 92.5t-104.5 132t-60 149.5t-17.5 149.5v858q0 12 9.5 21.5t21.5 9.5h147q12 0 21.5 -9.5t9.5 -21.5v-858q0 -34 9 -77.5t33.5 -98t62 -98t101 -73.5t142.5 -30t142.5 30t100.5 73.5t61.5 98t33 97.5t8.5 78v858q0 12 9.5 21.5t21.5 9.5z" />
    <glyph glyph-name="umacron" unicode="&#x16b;" horiz-adv-x="1185" 
d="M901 1333v-82q0 -12 -9.5 -21t-21.5 -9h-555q-12 0 -21 9t-9 21v82q0 12 9 21.5t21 9.5h555q12 0 21.5 -9.5t9.5 -21.5zM848 1024h143q12 0 21.5 -9.5t9.5 -21.5v-962q0 -12 -9.5 -21.5t-21.5 -9.5h-61q-30 0 -41 29l-25 75q-126 -120 -309 -120q-79 0 -143.5 16t-109 43
t-77.5 67.5t-52 83t-30.5 96.5t-15.5 101.5t-4 104.5v497q0 12 9.5 21.5t21.5 9.5h145q12 0 21.5 -9.5t9.5 -21.5v-497q1 -8 1.5 -43t3 -59.5t9.5 -63t23 -66t40 -54t64.5 -40.5t93.5 -14q85 0 152 40t100 95v702q0 12 9.5 21.5t21.5 9.5z" />
    <glyph glyph-name="Ubreve" unicode="&#x16c;" horiz-adv-x="1484" 
d="M741 1622q-94 0 -168 57t-106 156q-4 12 2 23t18 14l80 24q10 3 21 -3t16 -17q19 -52 55 -80.5t82 -28.5q48 0 84.5 28t53.5 79q5 12 15.5 18.5t20.5 3.5l82 -24q12 -3 18 -14.5t3 -22.5q-34 -98 -108.5 -155.5t-168.5 -57.5zM1118 1434h152q12 0 21 -9.5t9 -21.5v-858
q0 -75 -18 -150t-60.5 -149.5t-104.5 -131.5t-159.5 -92.5t-216.5 -35.5t-216 35.5t-159 92.5t-104.5 132t-60 149.5t-17.5 149.5v858q0 12 9.5 21.5t21.5 9.5h147q12 0 21.5 -9.5t9.5 -21.5v-858q0 -34 9 -77.5t33.5 -98t62 -98t101 -73.5t142.5 -30t142.5 30t100.5 73.5
t61.5 98t33 97.5t8.5 78v858q0 12 9.5 21.5t21.5 9.5z" />
    <glyph glyph-name="ubreve" unicode="&#x16d;" horiz-adv-x="1185" 
d="M592 1212q-94 0 -168.5 57t-106.5 156q-4 12 2.5 23t18.5 14l80 25q10 3 21 -3.5t16 -17.5q19 -52 55 -80t82 -28q48 0 84 27.5t53 78.5q5 12 16 19t21 4l82 -25q12 -3 17.5 -14.5t2.5 -22.5q-34 -98 -108 -155.5t-168 -57.5zM848 1024h143q12 0 21.5 -9.5t9.5 -21.5
v-962q0 -12 -9.5 -21.5t-21.5 -9.5h-61q-30 0 -41 29l-25 75q-126 -120 -309 -120q-79 0 -143.5 16t-109 43t-77.5 67.5t-52 83t-30.5 96.5t-15.5 101.5t-4 104.5v497q0 12 9.5 21.5t21.5 9.5h145q12 0 21.5 -9.5t9.5 -21.5v-497q1 -8 1.5 -43t3 -59.5t9.5 -63t23 -66
t40 -54t64.5 -40.5t93.5 -14q85 0 152 40t100 95v702q0 12 9.5 21.5t21.5 9.5z" />
    <glyph glyph-name="Uring" unicode="&#x16e;" horiz-adv-x="1484" 
d="M535 1819q0 86 61 147.5t147 61.5t146.5 -61.5t60.5 -147.5t-60.5 -146.5t-146.5 -60.5t-147 60.5t-61 146.5zM659 1819q0 -32 25 -57t59 -25q32 0 57 25t25 57q0 34 -25 59t-57 25q-34 0 -59 -25t-25 -59zM1118 1434h152q12 0 21 -9.5t9 -21.5v-858q0 -75 -18 -150
t-60.5 -149.5t-104.5 -131.5t-159.5 -92.5t-216.5 -35.5t-216 35.5t-159 92.5t-104.5 132t-60 149.5t-17.5 149.5v858q0 12 9.5 21.5t21.5 9.5h147q12 0 21.5 -9.5t9.5 -21.5v-858q0 -34 9 -77.5t33.5 -98t62 -98t101 -73.5t142.5 -30t142.5 30t100.5 73.5t61.5 98t33 97.5
t8.5 78v858q0 12 9.5 21.5t21.5 9.5z" />
    <glyph glyph-name="uring" unicode="&#x16f;" horiz-adv-x="1185" 
d="M385 1409q0 86 61.5 147.5t147.5 61.5t146.5 -61.5t60.5 -147.5t-60.5 -146.5t-146.5 -60.5t-147.5 60.5t-61.5 146.5zM510 1409q0 -32 25 -57t59 -25q32 0 57 25t25 57q0 34 -25 59t-57 25q-34 0 -59 -25t-25 -59zM848 1024h143q12 0 21.5 -9.5t9.5 -21.5v-962
q0 -12 -9.5 -21.5t-21.5 -9.5h-61q-30 0 -41 29l-25 75q-126 -120 -309 -120q-79 0 -143.5 16t-109 43t-77.5 67.5t-52 83t-30.5 96.5t-15.5 101.5t-4 104.5v497q0 12 9.5 21.5t21.5 9.5h145q12 0 21.5 -9.5t9.5 -21.5v-497q1 -8 1.5 -43t3 -59.5t9.5 -63t23 -66t40 -54
t64.5 -40.5t93.5 -14q85 0 152 40t100 95v702q0 12 9.5 21.5t21.5 9.5z" />
    <glyph glyph-name="Uhungarumlaut" unicode="&#x170;" horiz-adv-x="1484" 
d="M707 1909l-109 -258q-13 -29 -43 -29h-78q-11 0 -18 9.5t-4 19.5l82 258q11 28 41 28h110q11 0 17 -9t2 -19zM1061 1909l-109 -258q-13 -29 -43 -29h-78q-11 0 -18 9.5t-4 19.5l82 258q11 28 41 28h110q11 0 17 -9t2 -19zM1118 1434h152q12 0 21 -9.5t9 -21.5v-858
q0 -75 -18 -150t-60.5 -149.5t-104.5 -131.5t-159.5 -92.5t-216.5 -35.5t-216 35.5t-159 92.5t-104.5 132t-60 149.5t-17.5 149.5v858q0 12 9.5 21.5t21.5 9.5h147q12 0 21.5 -9.5t9.5 -21.5v-858q0 -34 9 -77.5t33.5 -98t62 -98t101 -73.5t142.5 -30t142.5 30t100.5 73.5
t61.5 98t33 97.5t8.5 78v858q0 12 9.5 21.5t21.5 9.5z" />
    <glyph glyph-name="uhungarumlaut" unicode="&#x171;" horiz-adv-x="1185" 
d="M817 291v702q0 12 9.5 21.5t21.5 9.5h143q12 0 21.5 -9.5t9.5 -21.5v-962q0 -12 -9.5 -21.5t-21.5 -9.5h-61q-30 0 -41 29l-25 75q-126 -120 -309 -120q-79 0 -143.5 16t-109 43t-77.5 67.5t-52 83t-30.5 96.5t-15.5 101.5t-4 104.5v497q0 12 9.5 21.5t21.5 9.5h145
q12 0 21.5 -9.5t9.5 -21.5v-497q1 -8 1.5 -43t3 -59.5t9.5 -63t23 -66t40 -54t64.5 -40.5t93.5 -14q85 0 152 40t100 95zM895 1499l-109 -258q-13 -29 -43 -29h-77q-11 0 -18.5 9.5t-4.5 19.5l82 258q11 29 41 29h111q11 0 16.5 -9.5t1.5 -19.5zM541 1499l-109 -258
q-13 -29 -43 -29h-78q-11 0 -18 9.5t-4 19.5l82 258q11 29 41 29h110q11 0 17 -9.5t2 -19.5z" />
    <glyph glyph-name="Uogonek" unicode="&#x172;" horiz-adv-x="1484" 
d="M741 168q79 0 142.5 30t100.5 73.5t61.5 98t33 97.5t8.5 78v858q0 12 9.5 21.5t21.5 9.5h152q12 0 21 -9.5t9 -21.5v-858q0 -69 -15.5 -138.5t-51.5 -140t-89 -126.5t-135 -96.5t-182 -51.5q-2 -18 -36.5 -86t-34.5 -111q0 -53 30.5 -82.5t87.5 -29.5q55 0 113 22
q11 3 20 -3.5t9 -16.5v-70q0 -30 -29 -43q-80 -25 -139 -25q-102 0 -170 55t-68 162q0 42 17.5 86t40.5 83.5t28 54.5q-109 6 -198 44t-146.5 94.5t-96 129.5t-55 145t-16.5 144v858q0 12 9.5 21.5t21.5 9.5h147q12 0 21.5 -9.5t9.5 -21.5v-858q0 -34 9 -77.5t33.5 -98
t62 -98t101 -73.5t142.5 -30z" />
    <glyph glyph-name="uogonek" unicode="&#x173;" horiz-adv-x="1210" 
d="M817 291v702q0 12 9.5 21.5t21.5 9.5h143q12 0 21.5 -9.5t9.5 -21.5v-995q0 -21 -36 -90.5t-36 -112.5q0 -53 31 -82.5t88 -29.5q55 0 113 22q10 3 19 -3t9 -17v-70q0 -31 -28 -43q-80 -25 -140 -25q-102 0 -169.5 55t-67.5 162q0 47 22.5 97t45 87.5t22.5 55.5v8l-31 92
q-126 -120 -309 -120q-79 0 -143.5 16t-109 43t-77.5 67.5t-52 83t-30.5 96.5t-15.5 101.5t-4 104.5v497q0 12 9.5 21.5t21.5 9.5h145q12 0 21.5 -9.5t9.5 -21.5v-497q1 -8 1.5 -43t3 -59.5t9.5 -63t23 -66t40 -54t64.5 -40.5t93.5 -14q85 0 152 40t100 95z" />
    <glyph glyph-name="Wcircumflex" unicode="&#x174;" horiz-adv-x="2263" 
d="M1130 1452q26 0 37 -25l387 -985l404 963q14 29 43 29h168q11 0 16.5 -9.5t1.5 -19.5l-600 -1399q-6 -22 -33 -22q-24 0 -30 22l-394 977l-393 -977q-6 -22 -32 -22q-24 0 -33 22l-598 1399q-4 10 1.5 19.5t16.5 9.5h168q28 0 43 -29l404 -963l387 985q11 25 36 25z
M842 1741l266 198q25 17 49 0l266 -198q10 -7 12.5 -20.5t-3.5 -22.5l-41 -60q-6 -11 -19 -13t-24 5l-215 131l-215 -131q-10 -8 -24 -5t-20 13l-40 60q-6 9 -4 22.5t12 20.5z" />
    <glyph glyph-name="wcircumflex" unicode="&#x175;" horiz-adv-x="1552" 
d="M788 1036q29 0 43 -28l232 -564l231 551q14 29 43 29h158q11 0 16.5 -9.5t1.5 -19.5l-415 -989q-9 -18 -29 -18q-21 0 -27 18l-254 598l-253 -598q-9 -18 -29 -18q-21 0 -27 18l-416 989q-4 10 2 19.5t17 9.5h158q28 0 43 -29l231 -551l231 564q14 28 43 28zM485 1331
l267 199q10 8 24 8t25 -8l266 -199q10 -7 12 -20.5t-4 -22.5l-41 -59q-6 -11 -19 -13t-24 5l-215 131l-215 -131q-11 -7 -24 -5t-19 13l-41 59q-6 9 -4 22.5t12 20.5z" />
    <glyph glyph-name="Ycircumflex" unicode="&#x176;" horiz-adv-x="1302" 
d="M352 1741l266 198q11 7 25.5 7t24.5 -7l266 -198q10 -7 12 -20.5t-4 -22.5l-41 -60q-6 -11 -19 -13t-24 5l-215 131l-215 -131q-11 -7 -24 -5t-19 13l-41 60q-6 9 -4 22.5t12 20.5zM756 649v-618q0 -12 -9.5 -21.5t-21.5 -9.5h-150q-12 0 -21 9.5t-9 21.5v614l-467 762
q-6 9 -1.5 18t15.5 9h174q30 0 47 -27l336 -555l338 555q17 27 47 27h176q9 0 15 -9t0 -18z" />
    <glyph glyph-name="ycircumflex" unicode="&#x177;" horiz-adv-x="1159" 
d="M287 995l293 -710l284 710q14 29 43 29h178q5 0 9 -4t4 -8q0 -9 -4 -21l-582 -1370q-13 -29 -43 -29h-168q-10 0 -10 11q0 10 4 22l176 416l-405 950q-5 15 -5 21q0 12 11 12h172q28 0 43 -29zM287 1331l266 199q11 8 25 8t24 -8l266 -199q10 -7 12.5 -20.5t-3.5 -22.5
l-41 -59q-6 -11 -19 -13t-24 5l-215 131l-216 -131q-11 -7 -24 -5t-19 13l-40 59q-6 9 -4 22.5t12 20.5z" />
    <glyph glyph-name="Ydieresis" unicode="&#x178;" horiz-adv-x="1302" 
d="M756 649v-618q0 -12 -9.5 -21.5t-21.5 -9.5h-150q-12 0 -21 9.5t-9 21.5v614l-467 762q-6 9 -1.5 18t15.5 9h174q30 0 47 -27l336 -555l338 555q17 27 47 27h176q9 0 15 -9t0 -18zM289 1774q9 40 41 66t76 26q51 0 86.5 -36t35.5 -87q0 -52 -35.5 -86.5t-86.5 -34.5
q-44 0 -76 25t-41 65q-9 31 0 62zM774 1743q0 52 34.5 87.5t86.5 35.5q51 0 87 -36t36 -87q0 -52 -35.5 -86.5t-87.5 -34.5q-53 0 -87 34t-34 87z" />
    <glyph glyph-name="Zacute" unicode="&#x179;" horiz-adv-x="1308" 
d="M451 184h704q12 0 21.5 -9t9.5 -21v-123q0 -12 -9.5 -21.5t-21.5 -9.5h-979q-10 0 -18 8t-8 19q0 31 14 53l688 1171h-645q-12 0 -21.5 9.5t-9.5 21.5v121q0 12 9.5 21.5t21.5 9.5h923q12 0 20.5 -8.5t8.5 -20.5q0 -29 -14 -51zM473 1743l266 199q9 7 22 4.5t19 -11.5
l60 -88q7 -9 4.5 -22t-13.5 -19l-282 -174q-11 -7 -24 -5t-19 13l-41 60q-6 9 -4 22.5t12 20.5z" />
    <glyph glyph-name="zacute" unicode="&#x17a;" horiz-adv-x="1015" 
d="M154 866v127q0 12 9 21.5t21 9.5h693q10 0 18 -8t8 -19q0 -29 -14 -49l-459 -760h436q12 0 21.5 -9t9.5 -21v-127q0 -12 -9.5 -21.5t-21.5 -9.5h-708q-12 0 -21.5 9.5t-9.5 21.5v12q0 28 16 57l435 736h-394q-12 0 -21 9t-9 21zM328 1333l266 199q9 7 22 5t19 -11l59 -88
q8 -9 5 -22t-13 -19l-283 -174q-11 -7 -24 -5t-19 13l-41 59q-6 9 -3.5 22.5t12.5 20.5z" />
    <glyph glyph-name="Zdotaccent" unicode="&#x17b;" horiz-adv-x="1308" 
d="M532 1745q0 52 34.5 87.5t86.5 35.5q51 0 87 -36t36 -87q0 -52 -35.5 -86.5t-87.5 -34.5q-53 0 -87 34t-34 87zM451 184h704q12 0 21.5 -9t9.5 -21v-123q0 -12 -9.5 -21.5t-21.5 -9.5h-979q-10 0 -18 8t-8 19q0 31 14 53l688 1171h-645q-12 0 -21.5 9.5t-9.5 21.5v121
q0 12 9.5 21.5t21.5 9.5h923q12 0 20.5 -8.5t8.5 -20.5q0 -29 -14 -51z" />
    <glyph glyph-name="zdotaccent" unicode="&#x17c;" horiz-adv-x="1015" 
d="M403 1335q0 52 34.5 87.5t86.5 35.5q51 0 87 -36t36 -87q0 -52 -35.5 -86.5t-87.5 -34.5t-86.5 34t-34.5 87zM154 866v127q0 12 9 21.5t21 9.5h693q10 0 18 -8t8 -19q0 -29 -14 -49l-459 -760h436q12 0 21.5 -9t9.5 -21v-127q0 -12 -9.5 -21.5t-21.5 -9.5h-708
q-12 0 -21.5 9.5t-9.5 21.5v12q0 28 16 57l435 736h-394q-12 0 -21 9t-9 21z" />
    <glyph glyph-name="Zcaron" unicode="&#x17d;" horiz-adv-x="1308" 
d="M451 184h704q12 0 21.5 -9t9.5 -21v-123q0 -12 -9.5 -21.5t-21.5 -9.5h-965q-12 0 -21 9.5t-9 21.5v10q0 28 16 57l676 1153h-645q-12 0 -21.5 9.5t-9.5 21.5v121q0 12 9.5 21.5t21.5 9.5h913q12 0 21.5 -9.5t9.5 -21.5v-8q0 -32 -16 -58zM629 1632l-267 199
q-23 17 -8 43l41 59q6 10 19 13t24 -4l215 -132l215 132q11 7 24 4t19 -13l41 -59q15 -26 -8 -43l-266 -199q-11 -8 -25 -8t-24 8z" />
    <glyph glyph-name="zcaron" unicode="&#x17e;" horiz-adv-x="1015" 
d="M154 866v127q0 12 9 21.5t21 9.5h678q12 0 21.5 -9.5t9.5 -21.5v-8q0 -28 -16 -57l-463 -740h452q12 0 21.5 -9t9.5 -21v-127q0 -12 -9.5 -21.5t-21.5 -9.5h-714q-12 0 -21.5 9.5t-9.5 21.5v2q0 28 16 57l459 746h-412q-12 0 -21 9t-9 21zM483 1223l-266 198
q-23 17 -8 43l41 60q6 9 19 12t24 -4l215 -131l215 131q11 7 24 4t19 -12l41 -60q15 -26 -8 -43l-267 -198q-24 -17 -49 0z" />
    <glyph glyph-name="longs" unicode="&#x17f;" horiz-adv-x="737" 
d="M748 1362l-35 -96q-5 -12 -16 -17.5t-23 -1.5q-106 29 -166 29q-150 0 -158 -150v-1093q0 -12 -9.5 -21.5t-21.5 -9.5h-143q-12 0 -21.5 9.5t-9.5 21.5v823h-94q-12 0 -21.5 9.5t-9.5 21.5v106q0 12 9.5 21.5t21.5 9.5h94v90q0 110 49.5 187.5t127.5 112t178 34.5
q119 0 229 -45q12 -5 17.5 -17t1.5 -24z" />
    <glyph glyph-name="florin" unicode="&#x192;" horiz-adv-x="823" 
d="M-174 -352l39 100q5 12 16 17.5t23 1.5q89 -29 155 -29q153 0 168 151v967h-94q-12 0 -21.5 9.5t-9.5 21.5v106q0 12 9.5 21.5t21.5 9.5h94v90q0 110 49.5 187.5t127.5 112t178 34.5q123 0 233 -45q12 -5 17.5 -17t1.5 -24l-39 -100q-5 -12 -16 -17.5t-23 -1.5
q-89 29 -156 29q-152 0 -168 -152v-96h180q12 0 21.5 -9.5t9.5 -21.5v-106q0 -12 -9.5 -21.5t-21.5 -9.5h-180v-960q0 -164 -100 -249t-254 -85q-124 0 -234 45q-12 4 -17.5 16.5t-0.5 24.5z" />
    <glyph glyph-name="Scommaaccent" unicode="&#x218;" horiz-adv-x="1273" 
d="M588 -678l-33 14q-11 6 -14.5 18t2.5 23q62 132 73 195q-46 3 -77 38.5t-31 82.5q0 51 34 86t85 35q69 0 102 -40t33 -96q0 -128 -131 -344q-7 -12 -20 -15t-23 3zM346 1077q0 -53 27.5 -92.5t74 -65t107 -46.5t127.5 -40.5t133.5 -42.5t127 -58t107 -81t74 -117
t27.5 -161q0 -165 -145.5 -277t-362.5 -112q-146 0 -261 27t-232 85q-11 6 -15 18.5t0 22.5l53 111q6 12 18.5 16.5t24.5 -0.5q203 -94 396 -94q125 0 215 57t90 148q0 62 -27.5 108.5t-73.5 76t-105.5 52t-125.5 41t-132.5 38.5t-126 50.5t-105.5 70.5t-73.5 103.5
t-27.5 145.5q0 183 124 289t323 106q234 0 462 -102q12 -4 17 -16.5t0 -24.5l-53 -117q-4 -12 -16.5 -17.5t-24.5 -0.5q-83 32 -180.5 57t-157.5 25q-62 0 -108 -7.5t-86 -26.5t-62.5 -56.5t-26.5 -92.5z" />
    <glyph glyph-name="scommaaccent" unicode="&#x219;" horiz-adv-x="1007" 
d="M498 -186q69 0 102 -40t33 -96q0 -128 -131 -344q-7 -12 -20 -15t-23 3l-33 14q-11 6 -14.5 18t2.5 23q62 132 73 195q-46 3 -77 38.5t-31 82.5q0 51 34 86t85 35zM334 756q0 -38 30.5 -65.5t79 -45.5t107 -36t117.5 -43t107.5 -59.5t79 -93.5t30.5 -137
q0 -130 -105.5 -211t-267.5 -81q-107 0 -191.5 21t-170.5 67q-11 6 -15 18.5t0 24.5l47 94q4 12 16.5 16t22.5 -2q145 -69 279 -69q73 0 123.5 33t50.5 87q0 46 -29.5 78t-77 51.5t-104.5 36.5t-114.5 39.5t-104.5 53.5t-76 85.5t-29 129.5q1 136 92.5 214t239.5 78
q175 0 340 -77q12 -6 16.5 -18.5t-0.5 -24.5l-47 -99q-4 -12 -16.5 -16.5t-24.5 0.5q-142 57 -231 57q-169 0 -174 -106z" />
    <glyph glyph-name="circumflex" unicode="&#x2c6;" horiz-adv-x="1060" 
d="M250 1331l266 199q10 8 24 8t25 -8l266 -199q10 -7 12.5 -20.5t-3.5 -22.5l-41 -59q-6 -11 -19 -13t-24 5l-215 131l-215 -131q-11 -7 -24 -5t-19 13l-41 59q-6 9 -4 22.5t12 20.5z" />
    <glyph glyph-name="caron" unicode="&#x2c7;" horiz-adv-x="1024" 
d="M524 1223l-266 198q-23 17 -8 43l41 60q6 9 19 12t24 -4l215 -131l215 131q11 7 24 4t19 -12l41 -60q15 -26 -8 -43l-267 -198q-25 -17 -49 0z" />
    <glyph glyph-name="breve" unicode="&#x2d8;" horiz-adv-x="1056" 
d="M729 1487l82 -25q12 -3 17.5 -14.5t2.5 -22.5q-34 -98 -108 -155.5t-168 -57.5t-168 57t-106 156q-4 12 2 23t18 14l80 25q10 3 21 -3.5t16 -17.5q19 -52 55 -80t82 -28q48 0 84 27.5t53 78.5q5 12 16 19t21 4z" />
    <glyph glyph-name="dotaccent" unicode="&#x2d9;" horiz-adv-x="1185" 
d="M463 1335q0 52 34.5 87.5t86.5 35.5q51 0 87 -36t36 -87q0 -52 -35.5 -86.5t-87.5 -34.5t-86.5 34t-34.5 87z" />
    <glyph glyph-name="ring" unicode="&#x2da;" horiz-adv-x="1071" 
d="M328 1409q0 86 61.5 147.5t147.5 61.5t146 -61t60 -148q0 -86 -60 -146.5t-146 -60.5t-147.5 60.5t-61.5 146.5zM453 1409q0 -32 25 -57t59 -25q32 0 56.5 25t24.5 57q0 34 -24.5 59t-56.5 25q-34 0 -59 -25t-25 -59z" />
    <glyph glyph-name="ogonek" unicode="&#x2db;" horiz-adv-x="1251" 
d="M594 78h65q12 0 21.5 -9.5t9.5 -21.5v-49q0 -21 -36 -90.5t-36 -112.5q0 -53 31 -82.5t88 -29.5q55 0 113 22q11 3 20 -3.5t9 -16.5v-70q0 -30 -29 -43q-80 -25 -139 -25q-102 0 -170 55t-68 162q0 47 22.5 97t45 87.5t22.5 55.5v43q0 12 9.5 21.5t21.5 9.5z" />
    <glyph glyph-name="tilde" unicode="&#x2dc;" horiz-adv-x="1056" 
d="M762 1419l63 -33q11 -6 15 -18.5t-2 -24.5q-74 -141 -213 -141q-46 0 -106.5 40t-100.5 40q-27 0 -48 -12t-42 -47q-6 -11 -18.5 -15t-24.5 2l-54 25q-11 6 -15.5 18.5t-0.5 24.5q31 84 86 120t119 36q43 0 80 -20t68.5 -40t60.5 -20q52 0 90 53q8 11 20 14.5t23 -2.5z
" />
    <glyph glyph-name="hungarumlaut" unicode="&#x2dd;" horiz-adv-x="1085" 
d="M938 1499l-109 -258q-13 -29 -43 -29h-77q-11 0 -18.5 9.5t-4.5 19.5l82 258q11 29 41 29h111q11 0 16.5 -9.5t1.5 -19.5zM584 1499l-109 -258q-13 -29 -43 -29h-78q-11 0 -18 9.5t-4 19.5l82 258q11 29 41 29h110q11 0 17 -9.5t2 -19.5z" />
    <glyph glyph-name="Delta" unicode="&#x394;" horiz-adv-x="1515" 
d="M772 1434l608 -1405q4 -10 -1.5 -19.5t-16.5 -9.5h-1208q-11 0 -17 9.5t-2 19.5l608 1405q3 10 15 10q11 0 14 -10zM1087 184l-329 820l-330 -820h659z" />
    <glyph glyph-name="Delta" unicode="&#x2206;" horiz-adv-x="1515" 
d="M772 1434l608 -1405q4 -10 -1.5 -19.5t-16.5 -9.5h-1208q-11 0 -17 9.5t-2 19.5l608 1405q3 10 15 10q11 0 14 -10zM1087 184l-329 820l-330 -820h659z" />
    <glyph glyph-name="Omega" unicode="&#x3a9;" horiz-adv-x="1738" 
d="M1391 184h194q12 0 21.5 -9t9.5 -21v-123q0 -12 -9.5 -21.5t-21.5 -9.5h-477q-12 0 -21.5 9.5t-9.5 21.5v119q0 28 27 45q78 47 133.5 121t81 153t35.5 138.5t10 107.5q0 34 -4.5 74t-18.5 94.5t-36 105.5t-61 102t-88.5 88.5t-124 61t-163.5 23.5t-163 -23.5t-124 -61
t-88.5 -88.5t-60 -102t-35 -105.5t-18 -94.5t-4.5 -74q0 -37 5 -81t22.5 -107.5t44 -121t75 -116t111.5 -96.5q26 -13 26 -46v-116q0 -12 -9 -21.5t-21 -9.5h-475q-12 0 -21.5 9.5t-9.5 21.5v123q0 12 9.5 21t21.5 9h194q-98 107 -143 247.5t-45 283.5q0 67 10 135
t34.5 141.5t61.5 138.5t94 124.5t128 102.5t168.5 68t211.5 25t211.5 -25t168.5 -68t128.5 -102.5t94 -124.5t61 -138.5t35 -141.5t10.5 -135q0 -142 -45 -283t-141 -248z" />
    <glyph glyph-name="Omega" unicode="&#x2126;" horiz-adv-x="1738" 
d="M1391 184h194q12 0 21.5 -9t9.5 -21v-123q0 -12 -9.5 -21.5t-21.5 -9.5h-477q-12 0 -21.5 9.5t-9.5 21.5v119q0 28 27 45q78 47 133.5 121t81 153t35.5 138.5t10 107.5q0 34 -4.5 74t-18.5 94.5t-36 105.5t-61 102t-88.5 88.5t-124 61t-163.5 23.5t-163 -23.5t-124 -61
t-88.5 -88.5t-60 -102t-35 -105.5t-18 -94.5t-4.5 -74q0 -37 5 -81t22.5 -107.5t44 -121t75 -116t111.5 -96.5q26 -13 26 -46v-116q0 -12 -9 -21.5t-21 -9.5h-475q-12 0 -21.5 9.5t-9.5 21.5v123q0 12 9.5 21t21.5 9h194q-98 107 -143 247.5t-45 283.5q0 67 10 135
t34.5 141.5t61.5 138.5t94 124.5t128 102.5t168.5 68t211.5 25t211.5 -25t168.5 -68t128.5 -102.5t94 -124.5t61 -138.5t35 -141.5t10.5 -135q0 -142 -45 -283t-141 -248z" />
    <glyph glyph-name="pi" unicode="&#x3c0;" horiz-adv-x="1296" 
d="M938 -8q-56 0 -98.5 20.5t-64 48.5t-35 66.5t-16.5 65t-3 53.5v590h-262v-805q0 -12 -9.5 -21.5t-21.5 -9.5h-143q-12 0 -21.5 9.5t-9.5 21.5v805h-121q-12 0 -21.5 9t-9.5 21v127q0 12 9.5 21.5t21.5 9.5h997q12 0 21.5 -9.5t9.5 -21.5v-127q0 -12 -9.5 -21t-21.5 -9
h-204v-555q0 -62 20.5 -95t83.5 -28q34 3 103 18q12 2 22.5 -5t13.5 -19l19 -91q3 -13 -4 -24t-21 -14q-110 -31 -225 -31z" />
    <glyph glyph-name="endash" unicode="&#x2013;" horiz-adv-x="1126" 
d="M932 567h-737q-12 0 -21.5 9.5t-9.5 21.5v92q0 12 9.5 21.5t21.5 9.5h737q12 0 21.5 -9.5t9.5 -21.5v-92q0 -12 -9.5 -21.5t-21.5 -9.5z" />
    <glyph glyph-name="emdash" unicode="&#x2014;" horiz-adv-x="1376" 
d="M1182 567h-987q-12 0 -21.5 9.5t-9.5 21.5v92q0 12 9.5 21.5t21.5 9.5h987q12 0 21 -9.5t9 -21.5v-92q0 -12 -9 -21.5t-21 -9.5z" />
    <glyph glyph-name="quoteleft" unicode="&#x2018;" horiz-adv-x="528" 
d="M319 1452l48 -22q12 -4 16 -16.5t-2 -22.5q-85 -167 -96 -242q52 -4 86.5 -43t34.5 -92q0 -57 -38.5 -95t-95.5 -38q-77 0 -113 43t-36 106q0 147 153 410q8 11 20 14.5t23 -2.5z" />
    <glyph glyph-name="quoteright" unicode="&#x2019;" horiz-adv-x="528" 
d="M207 893l-47 22q-11 6 -15 18t2 23q82 156 97 242q-52 4 -86.5 43t-34.5 92q0 57 38 95t95 38q77 0 113.5 -43t36.5 -106q0 -145 -154 -410q-17 -24 -45 -14z" />
    <glyph glyph-name="quotesinglbase" unicode="&#x201a;" horiz-adv-x="610" 
d="M248 -317l-47 22q-11 6 -15 18t2 23q82 156 97 242q-52 4 -86.5 43t-34.5 92q0 57 38 95t95 38q77 0 113 -43.5t36 -106.5q0 -146 -153 -409q-17 -24 -45 -14z" />
    <glyph glyph-name="quotedblleft" unicode="&#x201c;" horiz-adv-x="890" 
d="M319 1452l48 -22q12 -4 16 -16.5t-2 -22.5q-85 -167 -96 -242q52 -4 86.5 -43t34.5 -92q0 -57 -38.5 -95t-95.5 -38q-77 0 -113 43t-36 106q0 147 153 410q8 11 20 14.5t23 -2.5zM682 1452l47 -22q12 -4 16 -16.5t-2 -22.5q-85 -167 -96 -242q52 -4 86.5 -43t34.5 -92
q0 -57 -38 -95t-95 -38q-77 0 -113.5 43t-36.5 106q0 145 154 410q8 11 20 14.5t23 -2.5z" />
    <glyph glyph-name="quotedblright" unicode="&#x201d;" horiz-adv-x="890" 
d="M569 893l-47 22q-11 6 -14.5 18t2.5 23q80 153 96 242q-52 4 -86.5 43t-34.5 92q0 57 38 95t95 38q77 0 113.5 -43t36.5 -106q0 -145 -154 -410q-17 -24 -45 -14zM207 893l-47 22q-11 6 -15 18t2 23q82 156 97 242q-52 4 -86.5 43t-34.5 92q0 57 38 95t95 38
q77 0 113.5 -43t36.5 -106q0 -145 -154 -410q-17 -24 -45 -14z" />
    <glyph glyph-name="quotedblbase" unicode="&#x201e;" horiz-adv-x="923" 
d="M248 -317l-47 22q-11 6 -15 18t2 23q82 156 97 242q-52 4 -86.5 43t-34.5 92q0 57 38 95t95 38q77 0 113 -43.5t36 -106.5q0 -146 -153 -409q-17 -24 -45 -14zM643 -317l-47 22q-11 6 -14.5 18t2.5 23q80 153 96 242q-52 4 -86.5 43t-34.5 92q0 57 38 95t95 38
q77 0 113.5 -43.5t36.5 -106.5q0 -144 -154 -409q-17 -24 -45 -14z" />
    <glyph glyph-name="dagger" unicode="&#x2020;" horiz-adv-x="1132" 
d="M938 842h-274v-1141q0 -12 -9.5 -21.5t-21.5 -9.5h-133q-12 0 -21.5 9.5t-9.5 21.5v1141h-274q-12 0 -21.5 9t-9.5 21v121q0 12 9.5 21.5t21.5 9.5h274v379q0 12 9.5 21.5t21.5 9.5h133q12 0 21.5 -9.5t9.5 -21.5v-379h274q12 0 21.5 -9.5t9.5 -21.5v-121q0 -12 -9.5 -21
t-21.5 -9z" />
    <glyph glyph-name="daggerdbl" unicode="&#x2021;" horiz-adv-x="1132" 
d="M664 84v-383q0 -12 -9.5 -21.5t-21.5 -9.5h-133q-12 0 -21.5 9.5t-9.5 21.5v383h-274q-12 0 -21.5 9.5t-9.5 21.5v121q0 12 9.5 21t21.5 9h274v576h-274q-12 0 -21.5 9t-9.5 21v121q0 12 9.5 21.5t21.5 9.5h274v379q0 12 9.5 21.5t21.5 9.5h133q12 0 21.5 -9.5t9.5 -21.5
v-379h274q12 0 21.5 -9.5t9.5 -21.5v-121q0 -12 -9.5 -21t-21.5 -9h-274v-576h274q12 0 21.5 -9t9.5 -21v-121q0 -12 -9.5 -21.5t-21.5 -9.5h-274z" />
    <glyph glyph-name="bullet" unicode="&#x2022;" horiz-adv-x="815" 
d="M403 352q-95 0 -167 72t-72 168q0 100 72 174t167 74q101 0 174.5 -74t73.5 -174q0 -97 -73.5 -168.5t-174.5 -71.5z" />
    <glyph glyph-name="ellipsis" unicode="&#x2026;" horiz-adv-x="1333" 
d="M164 121q0 57 38 95t95 38q56 0 95.5 -38.5t39.5 -94.5q0 -55 -40 -95t-95 -40q-56 0 -94.5 39.5t-38.5 95.5zM573 121q0 57 38.5 95t95.5 38q56 0 95.5 -38.5t39.5 -94.5q0 -55 -40 -95t-95 -40q-57 0 -95.5 39.5t-38.5 95.5zM983 121q0 57 38 95t95 38q56 0 95.5 -38.5
t39.5 -94.5q0 -55 -39.5 -95t-95.5 -40t-94.5 39.5t-38.5 95.5z" />
    <glyph glyph-name="perthousand" unicode="&#x2030;" horiz-adv-x="2342" 
d="M672 1120q0 -43 -8.5 -84.5t-31 -84.5t-56 -75t-87.5 -52.5t-122 -20.5q-84 0 -146.5 30t-95.5 79.5t-48.5 101.5t-15.5 106q0 53 15.5 105t48.5 101.5t95.5 80.5t146.5 31q68 0 122 -21t87.5 -53.5t56 -76t31 -85t8.5 -82.5zM367 944q46 0 78 20t46 51.5t19.5 56.5
t5.5 48q0 17 -2.5 36.5t-12 45t-25 45t-44 33.5t-65.5 14q-46 0 -78.5 -20t-47 -50.5t-20.5 -56t-6 -47.5q0 -23 6 -48.5t20.5 -56.5t47 -51t78.5 -20zM1976 631q68 0 122 -21t87.5 -53.5t56 -76t31 -85t8.5 -82.5q0 -43 -8.5 -84.5t-31 -84.5t-56 -75t-87.5 -52.5
t-122 -20.5t-122 20.5t-87.5 52.5t-56 75t-31 84.5t-8.5 84.5q0 41 8.5 82.5t31 85t56 76t87.5 53.5t122 21zM1976 137q46 0 78 20t46.5 51t20 56.5t5.5 48.5t-5.5 48t-20 56t-46.5 50.5t-78 19.5q-37 0 -65.5 -14t-44.5 -33.5t-25.5 -45t-12.5 -45t-3 -36.5t3 -36.5
t12.5 -45.5t25.5 -46t44.5 -34t65.5 -14zM1225 631q68 0 122 -21t87.5 -53.5t56 -76t31 -85t8.5 -82.5q0 -43 -8.5 -84.5t-31 -84.5t-56 -75t-87.5 -52.5t-122 -20.5t-122 20.5t-87.5 52.5t-56 75t-31 84.5t-8.5 84.5q0 41 8.5 82.5t31 85t56 76t87.5 53.5t122 21zM1225 137
q46 0 78 20t46 51.5t19.5 56.5t5.5 48q0 17 -2.5 36.5t-12 45t-25 45t-44 33.5t-65.5 14q-46 0 -78.5 -20t-47 -50.5t-20.5 -56t-6 -47.5q0 -23 6 -48.5t20.5 -56.5t47 -51t78.5 -20zM977 1434h104q11 0 18 -9.5t3 -19.5l-447 -1376q-11 -29 -41 -29h-104q-11 0 -18 9.5
t-3 19.5l447 1376q11 29 41 29z" />
    <glyph glyph-name="guilsinglleft" unicode="&#x2039;" horiz-adv-x="579" 
d="M256 514l242 -287q20 -21 -2 -43l-54 -47q-9 -9 -22 -8t-21 10l-325 342q-13 16 -13 33q0 18 13 31l325 344q8 9 21 10t22 -8l54 -47q22 -22 2 -43z" />
    <glyph glyph-name="guilsinglright" unicode="&#x203a;" horiz-adv-x="579" 
d="M82 227l242 287l-242 287q-20 21 2 43l53 47q9 9 22 8t21 -10l326 -344q12 -12 12 -31q0 -18 -12 -33l-326 -342q-8 -9 -21 -10t-22 8l-53 47q-22 22 -2 43z" />
    <glyph glyph-name="fraction" unicode="&#x2044;" horiz-adv-x="108" 
d="M471 1407l-686 -1380q-13 -27 -45 -27h-88q-10 0 -16 9t-1 18l689 1380q14 27 45 27h86q10 0 15.5 -9t0.5 -18z" />
    <glyph glyph-name="zerosuperior" unicode="&#x2070;" horiz-adv-x="638" 
d="M319 1630q57 0 103 -22t74.5 -56t47.5 -79.5t26.5 -89t7.5 -87.5q0 -45 -7.5 -89t-26.5 -89t-47.5 -78.5t-74.5 -55t-103 -21.5q-71 0 -123.5 31.5t-80.5 83t-41 106t-13 112.5q0 44 7.5 87.5t26.5 89t47 79.5t74 56t103 22zM319 1069q41 0 70 26.5t42 67t18.5 73
t5.5 60.5q0 27 -5.5 60t-18.5 73.5t-42 67.5t-70 27t-70 -27t-42 -67.5t-18 -73.5t-5 -60q0 -28 5 -60.5t18 -73t42 -67t70 -26.5z" />
    <glyph glyph-name="foursuperior" unicode="&#x2074;" horiz-adv-x="579" 
d="M438 1104v-98q0 -12 -9 -21.5t-21 -9.5h-64q-12 0 -21.5 9.5t-9.5 21.5v98h-241q-12 0 -21.5 9.5t-9.5 21.5v10q0 28 16 57l265 408q16 26 47 26h39q12 0 21 -9t9 -21v-387h70q12 0 21.5 -9.5t9.5 -21.5v-53q0 -12 -9.5 -21.5t-21.5 -9.5h-70zM313 1391l-110 -172h110
v172z" />
    <glyph glyph-name="fivesuperior" unicode="&#x2075;" horiz-adv-x="561" 
d="M84 1096l35 34q20 17 43 -2q49 -49 104 -49q51 0 81 33.5t30 79.5q0 45 -29.5 78t-83.5 33h-127q-12 0 -21.5 9t-9.5 21v273q0 12 9.5 21t21.5 9h285q12 0 21.5 -9t9.5 -21v-50q0 -12 -9.5 -21t-21.5 -9h-191v-115h33q67 0 115.5 -22t73.5 -57.5t36 -71.5t11 -74
q0 -24 -6.5 -50.5t-23.5 -57t-42.5 -54t-68 -39.5t-95.5 -16q-110 0 -182 82q-20 23 2 45z" />
    <glyph glyph-name="sixsuperior" unicode="&#x2076;" horiz-adv-x="585" 
d="M373 1624l24 -39q8 -9 5 -22t-13 -19q-112 -73 -162 -153q9 5 32.5 9.5t33.5 4.5q68 0 116.5 -23t72 -60t33 -72t9.5 -72q0 -30 -10 -63t-33.5 -70.5t-72 -62t-115.5 -24.5q-66 0 -114.5 24t-72 61t-33.5 70.5t-10 64.5q-5 291 265 454q11 7 24 5t21 -13zM293 1071
q52 0 81 34t29 79t-28.5 77.5t-81.5 32.5q-51 0 -79 -31.5t-30 -78.5q0 -45 28.5 -79t80.5 -34z" />
    <glyph glyph-name="sevensuperior" unicode="&#x2077;" horiz-adv-x="495" 
d="M41 1556v50q0 12 9.5 21t21.5 9h366q6 0 11.5 -5t5.5 -11q0 -19 -6 -31l-240 -585q-13 -29 -43 -29h-68q-11 0 -16.5 9.5t-1.5 19.5l213 522h-221q-12 0 -21.5 9t-9.5 21z" />
    <glyph glyph-name="eightsuperior" unicode="&#x2078;" horiz-adv-x="561" 
d="M418 1300q38 -28 56 -70t18 -81q0 -30 -10 -60t-32 -61t-67.5 -50.5t-106.5 -19.5t-106 19.5t-67 50.5t-32 61t-10 60q0 39 18 81t56 70q-38 28 -56 70.5t-18 81.5q0 30 10 60t32 61t67 50t106 19t106.5 -19.5t67.5 -50t32 -60.5t10 -60q0 -39 -18 -81.5t-56 -70.5z
M276 1061q39 0 68 23.5t29 64.5q0 42 -29 66t-68 24t-67.5 -24t-28.5 -66q0 -41 28.5 -64.5t67.5 -23.5zM276 1362q39 0 68 24t29 66q0 41 -29 64.5t-68 23.5t-67.5 -23.5t-28.5 -64.5q0 -42 28.5 -66t67.5 -24z" />
    <glyph glyph-name="ninesuperior" unicode="&#x2079;" horiz-adv-x="585" 
d="M213 971l-25 39q-7 9 -4.5 21t13.5 20q105 68 161 153q-9 -5 -32 -9.5t-33 -4.5q-68 0 -117 23t-72 60t-33 72.5t-10 71.5q0 23 5.5 48.5t21.5 57t41 56t67.5 41t96.5 16.5t96 -16.5t66 -40.5t40 -55t21.5 -57t5.5 -50q5 -291 -264 -454q-11 -7 -24 -5t-21 13zM293 1524
q-52 0 -81.5 -34t-29.5 -79t28.5 -78t82.5 -33q51 0 78.5 31.5t29.5 79.5q0 46 -28 79.5t-80 33.5z" />
    <glyph glyph-name="zeroinferior" unicode="&#x2080;" horiz-adv-x="638" 
d="M319 326q57 0 103 -22t74.5 -56t47.5 -79.5t26.5 -89t7.5 -87.5q0 -45 -7.5 -89t-26.5 -89t-47.5 -79t-74.5 -55.5t-103 -21.5q-71 0 -123.5 31.5t-80.5 83.5t-41 106.5t-13 112.5q0 44 7.5 87.5t26.5 89t47 79.5t74 56t103 22zM319 -236q41 0 70 26.5t42 67t18.5 73.5
t5.5 61q0 27 -5.5 59.5t-18.5 73.5t-42 67.5t-70 26.5t-70 -26.5t-42 -67.5t-18 -73.5t-5 -59.5q0 -28 5 -61t18 -73.5t42 -67t70 -26.5z" />
    <glyph glyph-name="oneinferior" unicode="&#x2081;" horiz-adv-x="421" 
d="M319 295v-606q0 -12 -9 -21.5t-21 -9.5h-64q-12 0 -21 9.5t-9 21.5v440l-72 -41q-11 -7 -24 -4t-19 14l-23 35q-7 11 -4.5 24t13.5 21l182 129q22 15 45 15q10 0 18 -8t8 -19z" />
    <glyph glyph-name="twoinferior" unicode="&#x2082;" horiz-adv-x="536" 
d="M100 158l-32 32q-8 9 -8.5 23t8.5 23q97 90 202 90q95 0 150 -56.5t55 -138.5q0 -86 -80 -182l-149 -176h182q12 0 21.5 -9.5t9.5 -21.5v-53q0 -12 -9.5 -21.5t-21.5 -9.5h-362q-9 0 -17 8t-8 17q0 25 16 47l246 293q53 65 53 116q0 32 -19.5 55t-64.5 23q-57 0 -127 -61
q-9 -9 -22.5 -8t-22.5 10z" />
    <glyph glyph-name="threeinferior" unicode="&#x2083;" horiz-adv-x="528" 
d="M467 129q0 -91 -66 -149q34 -28 50 -70t16 -78q0 -31 -10 -62.5t-33 -63t-69 -51.5t-109 -20q-101 0 -183 70q-9 8 -10 21t8 22l25 27q7 9 20.5 9.5t22.5 -7.5q60 -43 117 -43q46 0 78 25t32 73t-32 74t-78 26h-58q-12 0 -21 9.5t-9 21.5v35q0 12 9 21.5t21 9.5h58
q46 0 78 26t32 74q0 47 -32 72.5t-78 25.5q-56 0 -115 -45q-10 -6 -24 -5.5t-21 9.5l-25 27q-8 9 -7.5 21.5t9.5 21.5q87 70 183 70q63 0 109 -20t69 -52t33 -63t10 -62z" />
    <glyph glyph-name="fourinferior" unicode="&#x2084;" horiz-adv-x="579" 
d="M438 -213v-98q0 -12 -9 -21.5t-21 -9.5h-64q-12 0 -21.5 9.5t-9.5 21.5v98h-241q-12 0 -21.5 9.5t-9.5 21.5v10q0 28 16 57l265 408q16 26 47 26h39q12 0 21 -9t9 -21v-387h70q12 0 21.5 -9.5t9.5 -21.5v-53q0 -12 -9.5 -21.5t-21.5 -9.5h-70zM313 74l-110 -172h110v172z
" />
    <glyph glyph-name="fiveinferior" unicode="&#x2085;" horiz-adv-x="561" 
d="M84 -221l35 35q20 17 43 -2q50 -50 104 -50q51 0 81 33.5t30 79.5q0 45 -29.5 78t-83.5 33h-127q-12 0 -21.5 9t-9.5 21v273q0 12 9.5 21t21.5 9h285q12 0 21.5 -9t9.5 -21v-49q0 -12 -9.5 -21.5t-21.5 -9.5h-191v-115h33q67 0 115.5 -22t73.5 -57.5t36 -71.5t11 -74
q0 -24 -6.5 -50.5t-23.5 -57t-42.5 -54t-68 -39.5t-95.5 -16q-110 0 -182 82q-20 23 2 45z" />
    <glyph glyph-name="sixinferior" unicode="&#x2086;" horiz-adv-x="585" 
d="M373 309l24 -39q8 -9 5 -22t-13 -19q-112 -73 -162 -153q9 5 32.5 9.5t33.5 4.5q68 0 116.5 -23t72 -60t33 -72t9.5 -72q0 -23 -5.5 -48.5t-21.5 -57t-40.5 -56t-67 -41t-96.5 -16.5t-96 16.5t-66.5 40.5t-40.5 55t-21.5 57t-5.5 50q-5 291 265 454q11 7 24 5t21 -13z
M293 -244q52 0 81 34t29 79t-28.5 78t-81.5 33q-51 0 -79 -32t-30 -79q0 -45 28.5 -79t80.5 -34z" />
    <glyph glyph-name="seveninferior" unicode="&#x2087;" horiz-adv-x="495" 
d="M41 240v49q0 12 9.5 21t21.5 9h366q6 0 11.5 -5t5.5 -11q0 -19 -6 -31l-240 -585q-13 -29 -43 -29h-68q-11 0 -16.5 9.5t-1.5 19.5l213 522h-221q-12 0 -21.5 9.5t-9.5 21.5z" />
    <glyph glyph-name="eightinferior" unicode="&#x2088;" horiz-adv-x="561" 
d="M276 -328q-58 0 -102 19t-67.5 49.5t-34.5 62.5t-11 64q0 40 19.5 79t48.5 54q-28 18 -45.5 58t-17.5 75q0 31 9.5 61.5t32 61.5t67 50.5t106.5 19.5t106.5 -19.5t66 -51t31 -61.5t9.5 -61t-17.5 -72t-44.5 -61q30 -21 49 -57.5t19 -75.5q0 -32 -11.5 -64t-35.5 -62.5
t-70 -49.5t-107 -19zM281 -49q-49 -1 -73 -29.5t-24 -54.5q0 -41 27 -63.5t65 -22.5q41 0 71 21.5t30 64.5q0 32 -22.5 58t-73.5 26zM369 133q0 38 -26.5 60t-63.5 22q-36 0 -62.5 -22t-26.5 -60q0 -28 21 -52.5t70 -25.5q27 1 45.5 10t27 22.5t12 24.5t3.5 21z" />
    <glyph glyph-name="nineinferior" unicode="&#x2089;" horiz-adv-x="585" 
d="M213 -340l-25 39q-7 9 -4.5 21t13.5 20q104 67 161 154q-9 -5 -32.5 -10t-32.5 -5q-68 0 -117 23t-72 60t-33 72.5t-10 71.5q0 23 5.5 48.5t21.5 57t41 56t67.5 41.5t96.5 17t96 -16.5t66 -40.5t40 -55.5t21.5 -57.5t5.5 -50q5 -291 -264 -454q-11 -7 -24 -5t-21 13z
M293 213q-52 0 -81.5 -34t-29.5 -79t28.5 -77.5t82.5 -32.5q51 0 78.5 31.5t29.5 78.5q0 46 -28 79.5t-80 33.5z" />
    <glyph glyph-name="Euro" unicode="&#x20ac;" horiz-adv-x="1138" 
d="M766 772h-406v-55q0 -38 2 -58h328q11 0 18.5 -9t4.5 -19l-25 -82q-3 -12 -14.5 -20.5t-24.5 -8.5h-270q11 -55 26 -102.5t41 -96t59 -82.5t80.5 -55.5t104.5 -21.5q117 0 209 80q25 18 47 2l86 -68q10 -7 11 -19.5t-7 -21.5q-143 -149 -346 -149q-95 0 -174.5 30.5
t-135 80.5t-98 120.5t-67.5 144.5t-39 158h-125q-12 0 -18.5 9t-3.5 20l26 82q3 12 14 20t25 8h66v113h-109q-12 0 -18.5 9t-3.5 20l26 82q3 12 14 20t25 8h82q14 83 39 156.5t67.5 144.5t98 121.5t135.5 81.5t174 31q199 0 342 -152q9 -9 8 -21t-12 -20l-86 -71
q-22 -16 -47 2q-92 86 -205 86q-57 0 -105 -22t-80.5 -56.5t-58.5 -83t-41 -96t-26 -101.5h430q11 0 18 -9t4 -19l-26 -82q-3 -12 -14.5 -20.5t-24.5 -8.5z" />
    <glyph glyph-name="afii61289" unicode="&#x2113;" horiz-adv-x="894" 
d="M41 641v111q0 12 9.5 21t21.5 9h86v324q0 84 22.5 148.5t56.5 101.5t79 60.5t84 31.5t79 8q89 0 158.5 -31.5t111.5 -85t63.5 -118.5t21.5 -138q0 -200 -138 -335.5t-334 -135.5v-225q0 -41 5 -74.5t20 -71t48.5 -58t84.5 -19.5q69 4 152 49q10 6 23.5 3t19.5 -13l53 -82
q16 -26 -8 -47q-94 -75 -234 -84q-71 -5 -129 9t-95.5 39t-65.5 62t-42.5 72t-23 76.5t-10.5 67t-2 51.5v243h-86q-12 0 -21.5 9.5t-9.5 21.5zM362 782q122 0 205 91.5t76 232.5q-4 86 -52.5 133.5t-111.5 42.5q-51 -3 -84 -42t-33 -118v-340z" />
    <glyph glyph-name="trademark" unicode="&#x2122;" horiz-adv-x="1431" 
d="M1110 1278l-154 -320q-4 -8 -14 -8t-14 8l-154 320l-92 -297q-3 -12 -14.5 -20.5t-24.5 -8.5h-68q-11 0 -17.5 9.5t-2.5 19.5l193 553q3 10 14 10q13 0 16 -10l164 -360l164 360q3 10 14 10q12 0 15 -10l194 -553q3 -11 -3.5 -20t-16.5 -9h-68q-13 0 -24.5 8.5
t-14.5 20.5zM252 983v451h-129q-12 0 -21.5 9t-9.5 21v47q0 12 9.5 21.5t21.5 9.5h379q12 0 21 -9.5t9 -21.5v-47q0 -12 -9 -21t-21 -9h-131v-451q0 -12 -9.5 -21.5t-21.5 -9.5h-57q-12 0 -21.5 9.5t-9.5 21.5z" />
    <glyph glyph-name="estimated" unicode="&#x212e;" horiz-adv-x="1662" 
d="M1309 291l41 -35q11 -8 12 -20t-8 -23q-98 -117 -221 -173t-302 -56q-114 0 -211.5 25t-168.5 67.5t-128 101.5t-94 124t-61.5 138.5t-34.5 142.5t-10 138q0 67 10 135t34.5 141.5t61.5 138.5t94 124.5t128 102.5t168.5 68t211.5 25q113 0 210.5 -25t168.5 -67.5
t128 -101.5t94 -124t61.5 -137.5t35.5 -140.5t11 -135q0 -12 -9.5 -21.5t-21.5 -9.5h-1108v-403q149 -201 430 -201q139 0 242 50.5t191 146.5q21 21 45 4zM831 1350q-279 0 -430 -199v-350h854v356q-145 193 -424 193z" />
    <glyph glyph-name="onethird" unicode="&#x2153;" horiz-adv-x="1212" 
d="M332 1409v-606q0 -12 -9.5 -21.5t-21.5 -9.5h-63q-12 0 -21.5 9.5t-9.5 21.5v440l-72 -41q-11 -7 -24 -4t-19 14l-22 35q-7 11 -5 24t13 21l182 129q22 15 45 15q11 0 19 -8t8 -19zM948 1407l-686 -1380q-14 -27 -45 -27h-88q-10 0 -15.5 9t-0.5 18l688 1380q13 27 45 27
h86q10 0 15.5 -9t0.5 -18zM1108 479q0 -91 -66 -149q34 -28 50 -70t16 -78q0 -24 -5.5 -49t-21 -52t-39.5 -47.5t-64 -34t-91 -13.5q-101 0 -182 69q-9 8 -10.5 21t7.5 22l25 27q7 9 20.5 9.5t22.5 -7.5q60 -43 117 -43q46 0 78 25t32 73t-32 74.5t-78 26.5h-58q-12 0 -21 9
t-9 21v35q0 12 9 21.5t21 9.5h58q46 0 78 26t32 74q0 47 -32 73t-78 26q-54 0 -115 -46q-10 -6 -24 -5t-21 10l-25 26q-8 9 -7 21.5t10 21.5q87 70 182 70q63 0 109 -20t69 -52t33 -63t10 -62z" />
    <glyph glyph-name="twothirds" unicode="&#x2154;" horiz-adv-x="1296" 
d="M1065 1407l-686 -1380q-13 -27 -45 -27h-88q-10 0 -16 9t-1 18l689 1380q14 27 45 27h86q10 0 15.5 -9t0.5 -18zM117 1272l-33 33q-8 9 -8.5 22.5t8.5 22.5q97 90 203 90q95 0 150 -56.5t55 -138.5q0 -86 -80 -182l-150 -176h182q12 0 21.5 -9.5t9.5 -21.5v-53
q0 -12 -9.5 -21.5t-21.5 -9.5h-362q-9 0 -17 8t-8 17q0 23 17 47l245 293q54 66 54 116q0 32 -19.5 55t-64.5 23q-57 0 -127 -61q-9 -9 -22.5 -8t-22.5 10zM1210 479q0 -92 -65 -149q33 -28 49 -69.5t16 -78.5q0 -24 -5.5 -49t-21 -52t-39.5 -47.5t-64 -34t-91 -13.5
q-101 0 -182 69q-9 8 -10 21t8 22l24 27q7 9 20.5 9.5t22.5 -7.5q60 -43 117 -43q47 0 79 25t32 73t-32.5 74.5t-78.5 26.5h-57q-12 0 -21.5 9t-9.5 21v35q0 12 9.5 21.5t21.5 9.5h57q46 0 78.5 26t32.5 74q0 47 -32.5 73t-78.5 26q-54 0 -115 -46q-10 -6 -24 -5t-21 10
l-24 26q-8 9 -7.5 21.5t9.5 21.5q87 70 182 70q63 0 109 -20t69 -52t33 -63t10 -62z" />
    <glyph glyph-name="oneeighth" unicode="&#x215b;" horiz-adv-x="1198" 
d="M207 1243l-72 -41q-11 -7 -24 -4t-19 14l-22 35q-7 11 -5 24t13 21l182 129q22 15 45 15q11 0 19 -8t8 -19v-606q0 -12 -9.5 -21.5t-21.5 -9.5h-63q-12 0 -21.5 9.5t-9.5 21.5v440zM1034 336q38 -28 56 -70.5t18 -81.5q0 -30 -10 -60t-32 -61t-67 -50t-106 -19t-106 19
t-67 50t-32 61t-10 60q0 39 18 81.5t56 70.5q-38 28 -56 70t-18 81q0 30 10 60t32 61t67 50.5t106 19.5t106 -19.5t67 -50.5t32 -61t10 -60q0 -39 -18 -81t-56 -70zM893 96q39 0 67.5 23.5t28.5 64.5q0 42 -28.5 66t-67.5 24t-67.5 -24t-28.5 -66q0 -41 28.5 -64.5
t67.5 -23.5zM893 397q39 0 67.5 24t28.5 66q0 41 -28.5 64.5t-67.5 23.5t-67.5 -23.5t-28.5 -64.5q0 -42 28.5 -66t67.5 -24zM856 1434h86q10 0 15.5 -9t0.5 -18l-686 -1380q-14 -27 -45 -27h-88q-10 0 -15.5 9t-0.5 18l688 1380q13 27 45 27z" />
    <glyph glyph-name="threeeighths" unicode="&#x215c;" horiz-adv-x="1183" 
d="M250 856q46 0 78 25t32 73t-32 74.5t-78 26.5h-57q-12 0 -21.5 9t-9.5 21v35q0 12 9.5 21.5t21.5 9.5h57q46 0 78 26t32 74q0 47 -32 73t-78 26q-56 0 -115 -45q-10 -6 -24 -5.5t-21 9.5l-24 26q-8 9 -7.5 21.5t9.5 21.5q87 70 182 70q63 0 109 -20t69 -52t33 -63t10 -62
q0 -92 -65 -149q33 -28 49 -69.5t16 -78.5q0 -24 -5.5 -49t-21 -52t-39.5 -47.5t-64 -34t-91 -13.5q-101 0 -182 69q-9 8 -10 21t8 22l24 27q7 9 20.5 9.5t22.5 -7.5q60 -43 117 -43zM885 1434h86q10 0 15.5 -9t0.5 -18l-686 -1380q-13 -27 -45 -27h-88q-10 0 -15.5 9
t-0.5 18l688 1380q14 27 45 27zM1038 336q38 -28 56 -70.5t18 -81.5q0 -30 -10 -60t-32 -61t-67 -50t-106 -19t-106 19t-67 50t-32 61t-10 60q0 39 18 81.5t56 70.5q-38 28 -56 70t-18 81q0 30 10 60t32 61t67 50.5t106 19.5t106 -19.5t67 -50.5t32 -61t10 -60
q0 -39 -18 -81t-56 -70zM897 96q39 0 67.5 23.5t28.5 64.5q0 42 -28.5 66t-67.5 24t-67.5 -24t-28.5 -66q0 -41 28.5 -64.5t67.5 -23.5zM897 397q39 0 67.5 24t28.5 66q0 41 -28.5 64.5t-67.5 23.5t-67.5 -23.5t-28.5 -64.5q0 -42 28.5 -66t67.5 -24z" />
    <glyph glyph-name="fiveeighths" unicode="&#x215d;" horiz-adv-x="1220" 
d="M500 983q0 -24 -6.5 -50.5t-23.5 -57t-42.5 -54t-68 -39.5t-95.5 -16q-110 0 -182 82q-20 23 2 45l35 35q20 17 43 -2q49 -49 104 -49q51 0 81 33t30 79q0 45 -29.5 78t-83.5 33h-127q-12 0 -21.5 9t-9.5 21v273q0 12 9.5 21.5t21.5 9.5h285q12 0 21.5 -9.5t9.5 -21.5
v-49q0 -12 -9.5 -21.5t-21.5 -9.5h-191v-115h33q67 0 115.5 -22t73.5 -57.5t36 -71.5t11 -74zM909 1434h86q10 0 16 -9t1 -18l-686 -1380q-14 -27 -45 -27h-88q-10 0 -16 9t-1 18l688 1380q14 27 45 27zM1063 336q38 -28 56 -70.5t18 -81.5q0 -30 -10 -60t-32 -61t-67 -50
t-106 -19t-106 19t-67 50t-32 61t-10 60q0 39 17.5 81.5t55.5 70.5q-38 28 -55.5 70t-17.5 81q0 30 10 60t32 61t67 50.5t106 19.5t106 -19.5t67 -50.5t32 -61t10 -60q0 -39 -18 -81t-56 -70zM922 96q39 0 67.5 23.5t28.5 64.5q0 42 -28.5 66t-67.5 24t-68 -24t-29 -66
q0 -41 29 -64.5t68 -23.5zM922 397q39 0 67.5 24t28.5 66q0 41 -28.5 64.5t-67.5 23.5t-68 -23.5t-29 -64.5q0 -42 29 -66t68 -24z" />
    </font>
</defs>
</svg>
